%MOIN*%
%OFA0B0*%
%FSLAX46Y46*%
%IPPOS*%
%LPD*%
%ADD10C,0.0039370078740157488*%
%ADD11R,0.0905511811023622X0.066929133858267723*%
%ADD12C,0.074803149606299218*%
%ADD13R,0.0905511811023622X0.10433070866141733*%
%ADD14R,0.055118110236220472X0.055118110236220472*%
%ADD15C,0.033464566929133861*%
%ADD16R,0.068897637795275593X0.031496062992125991*%
%ADD17R,0.0905511811023622X0.0905511811023622*%
%ADD18R,0.082677165354330714X0.082677165354330714*%
%ADD19O,0.082677165354330714X0.082677165354330714*%
%ADD20R,0.082677165354330714X0.055118110236220472*%
%ADD21R,0.062992125984251982X0.062992125984251982*%
%ADD32C,0.0039370078740157488*%
%ADD33R,0.0905511811023622X0.066929133858267723*%
%ADD34C,0.074803149606299218*%
%ADD35R,0.0905511811023622X0.10433070866141733*%
%ADD36R,0.055118110236220472X0.055118110236220472*%
%ADD37C,0.033464566929133861*%
%ADD38R,0.068897637795275593X0.031496062992125991*%
%ADD39R,0.0905511811023622X0.0905511811023622*%
%ADD40R,0.082677165354330714X0.082677165354330714*%
%ADD41O,0.082677165354330714X0.082677165354330714*%
%ADD42R,0.082677165354330714X0.055118110236220472*%
%ADD43R,0.062992125984251982X0.062992125984251982*%
%ADD44C,0.0039370078740157488*%
%ADD45R,0.0905511811023622X0.066929133858267723*%
%ADD46C,0.074803149606299218*%
%ADD47R,0.0905511811023622X0.10433070866141733*%
%ADD48R,0.055118110236220472X0.055118110236220472*%
%ADD49C,0.033464566929133861*%
%ADD50R,0.068897637795275593X0.031496062992125991*%
%ADD51R,0.0905511811023622X0.0905511811023622*%
%ADD52R,0.082677165354330714X0.082677165354330714*%
%ADD53O,0.082677165354330714X0.082677165354330714*%
%ADD54R,0.082677165354330714X0.055118110236220472*%
%ADD55R,0.062992125984251982X0.062992125984251982*%
%ADD56C,0.0039370078740157488*%
%ADD57R,0.0905511811023622X0.066929133858267723*%
%ADD58C,0.074803149606299218*%
%ADD59R,0.0905511811023622X0.10433070866141733*%
%ADD60R,0.055118110236220472X0.055118110236220472*%
%ADD61C,0.033464566929133861*%
%ADD62R,0.068897637795275593X0.031496062992125991*%
%ADD63R,0.0905511811023622X0.0905511811023622*%
%ADD64R,0.082677165354330714X0.082677165354330714*%
%ADD65O,0.082677165354330714X0.082677165354330714*%
%ADD66R,0.082677165354330714X0.055118110236220472*%
%ADD67R,0.062992125984251982X0.062992125984251982*%
%ADD68C,0.0039370078740157488*%
%ADD69R,0.082677165354330714X0.082677165354330714*%
%ADD70O,0.082677165354330714X0.082677165354330714*%
%ADD71C,0.074803149606299218*%
%ADD72R,0.062992125984251982X0.062992125984251982*%
%ADD73R,0.0905511811023622X0.10433070866141733*%
%ADD74R,0.055118110236220472X0.055118110236220472*%
%ADD75C,0.033464566929133861*%
%ADD76R,0.068897637795275593X0.031496062992125991*%
%ADD77R,0.0905511811023622X0.0905511811023622*%
%ADD78C,0.0039370078740157488*%
%ADD79R,0.082677165354330714X0.082677165354330714*%
%ADD80O,0.082677165354330714X0.082677165354330714*%
%ADD81C,0.074803149606299218*%
%ADD82R,0.062992125984251982X0.062992125984251982*%
%ADD83R,0.0905511811023622X0.10433070866141733*%
%ADD84R,0.055118110236220472X0.055118110236220472*%
%ADD85C,0.033464566929133861*%
%ADD86R,0.068897637795275593X0.031496062992125991*%
%ADD87R,0.0905511811023622X0.0905511811023622*%
%ADD88C,0.0039370078740157488*%
%ADD89R,0.082677165354330714X0.082677165354330714*%
%ADD90O,0.082677165354330714X0.082677165354330714*%
%ADD91C,0.074803149606299218*%
%ADD92R,0.062992125984251982X0.062992125984251982*%
%ADD93R,0.0905511811023622X0.10433070866141733*%
%ADD94R,0.055118110236220472X0.055118110236220472*%
%ADD95C,0.033464566929133861*%
%ADD96R,0.068897637795275593X0.031496062992125991*%
%ADD97R,0.0905511811023622X0.0905511811023622*%
%ADD98C,0.0039370078740157488*%
%ADD99R,0.082677165354330714X0.082677165354330714*%
%ADD100O,0.082677165354330714X0.082677165354330714*%
%ADD101C,0.074803149606299218*%
%ADD102R,0.062992125984251982X0.062992125984251982*%
%ADD103R,0.0905511811023622X0.10433070866141733*%
%ADD104R,0.055118110236220472X0.055118110236220472*%
%ADD105C,0.033464566929133861*%
%ADD106R,0.068897637795275593X0.031496062992125991*%
%ADD107R,0.0905511811023622X0.0905511811023622*%
%ADD108C,0.0039370078740157488*%
%ADD109C,0.094488188976377951*%
%ADD110C,0.055118110236220472*%
%ADD111R,0.066929133858267723X0.066929133858267723*%
%ADD112O,0.066929133858267723X0.066929133858267723*%
%ADD113C,0.0039370078740157488*%
%ADD114C,0.094488188976377951*%
%ADD115C,0.055118110236220472*%
%ADD116R,0.066929133858267723X0.066929133858267723*%
%ADD117O,0.066929133858267723X0.066929133858267723*%
%ADD118C,0.0039370078740157488*%
%ADD119C,0.094488188976377951*%
%ADD120C,0.055118110236220472*%
%ADD121R,0.066929133858267723X0.066929133858267723*%
%ADD122O,0.066929133858267723X0.066929133858267723*%
%ADD123C,0.0039370078740157488*%
%ADD124C,0.094488188976377951*%
%ADD125C,0.055118110236220472*%
%ADD126R,0.066929133858267723X0.066929133858267723*%
%ADD127O,0.066929133858267723X0.066929133858267723*%
G01G01*
D10*
D11*
X0000000000Y0000905511D02*
X0001449685Y0000539685D03*
X0001449685Y0000323149D03*
X0001575669Y0000323149D03*
X0001575669Y0000539685D03*
D12*
X0001268582Y0000345590D03*
X0001268582Y0000537716D03*
D13*
X0000083543Y0000603464D03*
X0000083543Y0000306220D03*
D14*
X0000180000Y0000578858D03*
X0000180000Y0000330826D03*
D15*
X0000168188Y0000533582D03*
X0000168188Y0000376102D03*
D16*
X0000188874Y0000506023D03*
X0000188874Y0000480433D03*
X0000188874Y0000454842D03*
X0000188874Y0000429251D03*
X0000188874Y0000403661D03*
D17*
X0000083543Y0000407598D03*
X0000083543Y0000502086D03*
D10*
G36*
X0001076710Y0000459611D02*
X0001136563Y0000399757D01*
X0001117076Y0000380270D01*
X0001057222Y0000440124D01*
X0001076710Y0000459611D01*
X0001076710Y0000459611D01*
G37*
G36*
X0001062790Y0000445691D02*
X0001122644Y0000385838D01*
X0001103156Y0000366351D01*
X0001043303Y0000426204D01*
X0001062790Y0000445691D01*
X0001062790Y0000445691D01*
G37*
G36*
X0001048871Y0000431772D02*
X0001108724Y0000371918D01*
X0001089237Y0000352431D01*
X0001029383Y0000412285D01*
X0001048871Y0000431772D01*
X0001048871Y0000431772D01*
G37*
G36*
X0001034951Y0000417853D02*
X0001094805Y0000357999D01*
X0001075318Y0000338512D01*
X0001015464Y0000398365D01*
X0001034951Y0000417853D01*
X0001034951Y0000417853D01*
G37*
G36*
X0001021032Y0000403933D02*
X0001080885Y0000344080D01*
X0001061398Y0000324592D01*
X0001001545Y0000384446D01*
X0001021032Y0000403933D01*
X0001021032Y0000403933D01*
G37*
G36*
X0001047479Y0000310673D02*
X0000987625Y0000370527D01*
X0001007112Y0000390014D01*
X0001066966Y0000330160D01*
X0001047479Y0000310673D01*
X0001047479Y0000310673D01*
G37*
G36*
X0000993193Y0000376094D02*
X0001053047Y0000316241D01*
X0001033559Y0000296754D01*
X0000973706Y0000356607D01*
X0000993193Y0000376094D01*
X0000993193Y0000376094D01*
G37*
G36*
X0000979274Y0000362175D02*
X0001039127Y0000302321D01*
X0001019640Y0000282834D01*
X0000959786Y0000342688D01*
X0000979274Y0000362175D01*
X0000979274Y0000362175D01*
G37*
G36*
X0000965354Y0000348255D02*
X0001025208Y0000288402D01*
X0001005720Y0000268915D01*
X0000945867Y0000328768D01*
X0000965354Y0000348255D01*
X0000965354Y0000348255D01*
G37*
G36*
X0000951435Y0000334336D02*
X0001011288Y0000274483D01*
X0000991801Y0000254995D01*
X0000931948Y0000314849D01*
X0000951435Y0000334336D01*
X0000951435Y0000334336D01*
G37*
G36*
X0000937515Y0000320417D02*
X0000997369Y0000260563D01*
X0000977882Y0000241076D01*
X0000918028Y0000300929D01*
X0000937515Y0000320417D01*
X0000937515Y0000320417D01*
G37*
G36*
X0000923596Y0000306497D02*
X0000983449Y0000246644D01*
X0000963962Y0000227156D01*
X0000904109Y0000287010D01*
X0000923596Y0000306497D01*
X0000923596Y0000306497D01*
G37*
G36*
X0000973706Y0000551479D02*
X0001033559Y0000611333D01*
X0001053047Y0000591845D01*
X0000993193Y0000531992D01*
X0000973706Y0000551479D01*
X0000973706Y0000551479D01*
G37*
G36*
X0000987625Y0000537560D02*
X0001047479Y0000597413D01*
X0001066966Y0000577926D01*
X0001007112Y0000518072D01*
X0000987625Y0000537560D01*
X0000987625Y0000537560D01*
G37*
G36*
X0001001545Y0000523640D02*
X0001061398Y0000583494D01*
X0001080885Y0000564007D01*
X0001021032Y0000504153D01*
X0001001545Y0000523640D01*
X0001001545Y0000523640D01*
G37*
G36*
X0001015464Y0000509721D02*
X0001075318Y0000569574D01*
X0001094805Y0000550087D01*
X0001034951Y0000490234D01*
X0001015464Y0000509721D01*
X0001015464Y0000509721D01*
G37*
G36*
X0001029383Y0000495801D02*
X0001089237Y0000555655D01*
X0001108724Y0000536168D01*
X0001048871Y0000476314D01*
X0001029383Y0000495801D01*
X0001029383Y0000495801D01*
G37*
G36*
X0001043303Y0000481882D02*
X0001103156Y0000541735D01*
X0001122644Y0000522248D01*
X0001062790Y0000462395D01*
X0001043303Y0000481882D01*
X0001043303Y0000481882D01*
G37*
G36*
X0000959786Y0000565399D02*
X0001019640Y0000625252D01*
X0001039127Y0000605765D01*
X0000979274Y0000545911D01*
X0000959786Y0000565399D01*
X0000959786Y0000565399D01*
G37*
G36*
X0001057222Y0000467963D02*
X0001117076Y0000527816D01*
X0001136563Y0000508329D01*
X0001076710Y0000448475D01*
X0001057222Y0000467963D01*
X0001057222Y0000467963D01*
G37*
G36*
X0000945867Y0000579318D02*
X0001005720Y0000639171D01*
X0001025208Y0000619684D01*
X0000965354Y0000559831D01*
X0000945867Y0000579318D01*
X0000945867Y0000579318D01*
G37*
G36*
X0000931948Y0000593237D02*
X0000991801Y0000653091D01*
X0001011288Y0000633604D01*
X0000951435Y0000573750D01*
X0000931948Y0000593237D01*
X0000931948Y0000593237D01*
G37*
G36*
X0000918028Y0000607157D02*
X0000977882Y0000667010D01*
X0000997369Y0000647523D01*
X0000937515Y0000587670D01*
X0000918028Y0000607157D01*
X0000918028Y0000607157D01*
G37*
G36*
X0000904109Y0000621076D02*
X0000963962Y0000680930D01*
X0000983449Y0000661442D01*
X0000923596Y0000601589D01*
X0000904109Y0000621076D01*
X0000904109Y0000621076D01*
G37*
G36*
X0000771874Y0000597413D02*
X0000831728Y0000537560D01*
X0000812240Y0000518072D01*
X0000752387Y0000577926D01*
X0000771874Y0000597413D01*
X0000771874Y0000597413D01*
G37*
G36*
X0000785794Y0000611333D02*
X0000845647Y0000551479D01*
X0000826160Y0000531992D01*
X0000766306Y0000591845D01*
X0000785794Y0000611333D01*
X0000785794Y0000611333D01*
G37*
G36*
X0000799713Y0000625252D02*
X0000859567Y0000565399D01*
X0000840079Y0000545911D01*
X0000780226Y0000605765D01*
X0000799713Y0000625252D01*
X0000799713Y0000625252D01*
G37*
G36*
X0000813632Y0000639171D02*
X0000873486Y0000579318D01*
X0000853999Y0000559831D01*
X0000794145Y0000619684D01*
X0000813632Y0000639171D01*
X0000813632Y0000639171D01*
G37*
G36*
X0000827552Y0000653091D02*
X0000887405Y0000593237D01*
X0000867918Y0000573750D01*
X0000808065Y0000633604D01*
X0000827552Y0000653091D01*
X0000827552Y0000653091D01*
G37*
G36*
X0000841471Y0000667010D02*
X0000901325Y0000607157D01*
X0000881838Y0000587670D01*
X0000821984Y0000647523D01*
X0000841471Y0000667010D01*
X0000841471Y0000667010D01*
G37*
G36*
X0000855391Y0000680930D02*
X0000915244Y0000621076D01*
X0000895757Y0000601589D01*
X0000835903Y0000661442D01*
X0000855391Y0000680930D01*
X0000855391Y0000680930D01*
G37*
G36*
X0000757955Y0000583494D02*
X0000817808Y0000523640D01*
X0000798321Y0000504153D01*
X0000738467Y0000564007D01*
X0000757955Y0000583494D01*
X0000757955Y0000583494D01*
G37*
G36*
X0000744035Y0000569574D02*
X0000803889Y0000509721D01*
X0000784402Y0000490234D01*
X0000724548Y0000550087D01*
X0000744035Y0000569574D01*
X0000744035Y0000569574D01*
G37*
G36*
X0000730116Y0000555655D02*
X0000789969Y0000495801D01*
X0000770482Y0000476314D01*
X0000710629Y0000536168D01*
X0000730116Y0000555655D01*
X0000730116Y0000555655D01*
G37*
G36*
X0000716196Y0000541735D02*
X0000776050Y0000481882D01*
X0000756563Y0000462395D01*
X0000696709Y0000522248D01*
X0000716196Y0000541735D01*
X0000716196Y0000541735D01*
G37*
G36*
X0000702277Y0000527816D02*
X0000762131Y0000467963D01*
X0000742643Y0000448475D01*
X0000682790Y0000508329D01*
X0000702277Y0000527816D01*
X0000702277Y0000527816D01*
G37*
G36*
X0000766306Y0000316241D02*
X0000826160Y0000376094D01*
X0000845647Y0000356607D01*
X0000785794Y0000296754D01*
X0000766306Y0000316241D01*
X0000766306Y0000316241D01*
G37*
G36*
X0000752387Y0000330160D02*
X0000812240Y0000390014D01*
X0000831728Y0000370527D01*
X0000771874Y0000310673D01*
X0000752387Y0000330160D01*
X0000752387Y0000330160D01*
G37*
G36*
X0000780226Y0000302321D02*
X0000840079Y0000362175D01*
X0000859567Y0000342688D01*
X0000799713Y0000282834D01*
X0000780226Y0000302321D01*
X0000780226Y0000302321D01*
G37*
G36*
X0000794145Y0000288402D02*
X0000853999Y0000348255D01*
X0000873486Y0000328768D01*
X0000813632Y0000268915D01*
X0000794145Y0000288402D01*
X0000794145Y0000288402D01*
G37*
G36*
X0000808065Y0000274483D02*
X0000867918Y0000334336D01*
X0000887405Y0000314849D01*
X0000827552Y0000254995D01*
X0000808065Y0000274483D01*
X0000808065Y0000274483D01*
G37*
G36*
X0000821984Y0000260563D02*
X0000881838Y0000320417D01*
X0000901325Y0000300929D01*
X0000841471Y0000241076D01*
X0000821984Y0000260563D01*
X0000821984Y0000260563D01*
G37*
G36*
X0000835903Y0000246644D02*
X0000895757Y0000306497D01*
X0000915244Y0000287010D01*
X0000855391Y0000227156D01*
X0000835903Y0000246644D01*
X0000835903Y0000246644D01*
G37*
G36*
X0000738467Y0000344080D02*
X0000798321Y0000403933D01*
X0000817808Y0000384446D01*
X0000757955Y0000324592D01*
X0000738467Y0000344080D01*
X0000738467Y0000344080D01*
G37*
G36*
X0000724548Y0000357999D02*
X0000784402Y0000417853D01*
X0000803889Y0000398365D01*
X0000744035Y0000338512D01*
X0000724548Y0000357999D01*
X0000724548Y0000357999D01*
G37*
G36*
X0000710629Y0000371918D02*
X0000770482Y0000431772D01*
X0000789969Y0000412285D01*
X0000730116Y0000352431D01*
X0000710629Y0000371918D01*
X0000710629Y0000371918D01*
G37*
G36*
X0000696709Y0000385838D02*
X0000756563Y0000445691D01*
X0000776050Y0000426204D01*
X0000716196Y0000366351D01*
X0000696709Y0000385838D01*
X0000696709Y0000385838D01*
G37*
G36*
X0000682790Y0000399757D02*
X0000742643Y0000459611D01*
X0000762131Y0000440124D01*
X0000702277Y0000380270D01*
X0000682790Y0000399757D01*
X0000682790Y0000399757D01*
G37*
G36*
X0000995977Y0000534776D02*
X0001076710Y0000454043D01*
X0000995977Y0000373310D01*
X0000915244Y0000454043D01*
X0000995977Y0000534776D01*
X0000995977Y0000534776D01*
G37*
G36*
X0000823376Y0000534776D02*
X0000904109Y0000454043D01*
X0000823376Y0000373310D01*
X0000742643Y0000454043D01*
X0000823376Y0000534776D01*
X0000823376Y0000534776D01*
G37*
G36*
X0000909676Y0000448475D02*
X0000990409Y0000367743D01*
X0000909676Y0000287010D01*
X0000828944Y0000367743D01*
X0000909676Y0000448475D01*
X0000909676Y0000448475D01*
G37*
G36*
X0000909676Y0000621076D02*
X0000990409Y0000540344D01*
X0000909676Y0000459611D01*
X0000828944Y0000540344D01*
X0000909676Y0000621076D01*
X0000909676Y0000621076D01*
G37*
D18*
X0001880787Y0000650314D03*
D19*
X0001880787Y0000550314D03*
X0001880787Y0000450314D03*
X0001880787Y0000350314D03*
X0001880787Y0000250314D03*
D20*
X0000333149Y0000658188D03*
X0000581181Y0000658188D03*
X0000333149Y0000508582D03*
X0000581181Y0000508582D03*
D18*
X0001974488Y0000150314D03*
D19*
X0001874488Y0000150314D03*
X0001774488Y0000150314D03*
X0001674488Y0000150314D03*
X0001574488Y0000150314D03*
X0001474488Y0000150314D03*
X0001374488Y0000150314D03*
X0001274488Y0000150314D03*
X0001174488Y0000150314D03*
X0001074488Y0000150314D03*
X0000974488Y0000150314D03*
X0000874488Y0000150314D03*
X0000774488Y0000150314D03*
X0000674488Y0000150314D03*
X0000574488Y0000150314D03*
X0000474488Y0000150314D03*
X0000374488Y0000150314D03*
X0000274488Y0000150314D03*
X0000174488Y0000150314D03*
X0000074488Y0000150314D03*
D18*
X0001974488Y0000760551D03*
D19*
X0001874488Y0000760551D03*
X0001774488Y0000760551D03*
X0001674488Y0000760551D03*
X0001574488Y0000760551D03*
X0001474488Y0000760551D03*
X0001374488Y0000760551D03*
X0001274488Y0000760551D03*
X0001174488Y0000760551D03*
X0001074488Y0000760551D03*
X0000974488Y0000760551D03*
X0000874488Y0000760551D03*
X0000774488Y0000760551D03*
X0000674488Y0000760551D03*
X0000574488Y0000760551D03*
X0000474488Y0000760551D03*
X0000374488Y0000760551D03*
X0000274488Y0000760551D03*
X0000174488Y0000760551D03*
X0000074488Y0000760551D03*
D18*
X0000555511Y0000390551D03*
D19*
X0000555511Y0000290551D03*
X0000455511Y0000390551D03*
X0000455511Y0000290551D03*
X0000355511Y0000390551D03*
X0000355511Y0000290551D03*
D21*
X0001705984Y0000605039D03*
X0001705984Y0000518425D03*
X0001705984Y0000391259D03*
X0001705984Y0000304645D03*
G04 next file*
G04 Gerber Fmt 4.6, Leading zero omitted, Abs format (unit mm)*
G04 Created by KiCad (PCBNEW 4.0.7) date 11/30/17 23:24:33*
G01G01*
G04 APERTURE LIST*
G04 APERTURE END LIST*
D32*
D33*
X0000000000Y0001811023D02*
X0001449685Y0001445196D03*
X0001449685Y0001228661D03*
X0001575669Y0001228661D03*
X0001575669Y0001445196D03*
D34*
X0001268582Y0001251102D03*
X0001268582Y0001443228D03*
D35*
X0000083543Y0001508976D03*
X0000083543Y0001211732D03*
D36*
X0000180000Y0001484370D03*
X0000180000Y0001236338D03*
D37*
X0000168188Y0001439094D03*
X0000168188Y0001281614D03*
D38*
X0000188874Y0001411535D03*
X0000188874Y0001385944D03*
X0000188874Y0001360354D03*
X0000188874Y0001334763D03*
X0000188874Y0001309173D03*
D39*
X0000083543Y0001313110D03*
X0000083543Y0001407598D03*
D32*
G36*
X0001076710Y0001365123D02*
X0001136563Y0001305269D01*
X0001117076Y0001285782D01*
X0001057222Y0001345635D01*
X0001076710Y0001365123D01*
X0001076710Y0001365123D01*
G37*
G36*
X0001062790Y0001351203D02*
X0001122644Y0001291350D01*
X0001103156Y0001271863D01*
X0001043303Y0001331716D01*
X0001062790Y0001351203D01*
X0001062790Y0001351203D01*
G37*
G36*
X0001048871Y0001337284D02*
X0001108724Y0001277430D01*
X0001089237Y0001257943D01*
X0001029383Y0001317797D01*
X0001048871Y0001337284D01*
X0001048871Y0001337284D01*
G37*
G36*
X0001034951Y0001323364D02*
X0001094805Y0001263511D01*
X0001075318Y0001244024D01*
X0001015464Y0001303877D01*
X0001034951Y0001323364D01*
X0001034951Y0001323364D01*
G37*
G36*
X0001021032Y0001309445D02*
X0001080885Y0001249591D01*
X0001061398Y0001230104D01*
X0001001545Y0001289958D01*
X0001021032Y0001309445D01*
X0001021032Y0001309445D01*
G37*
G36*
X0001047479Y0001216185D02*
X0000987625Y0001276038D01*
X0001007112Y0001295526D01*
X0001066966Y0001235672D01*
X0001047479Y0001216185D01*
X0001047479Y0001216185D01*
G37*
G36*
X0000993193Y0001281606D02*
X0001053047Y0001221753D01*
X0001033559Y0001202265D01*
X0000973706Y0001262119D01*
X0000993193Y0001281606D01*
X0000993193Y0001281606D01*
G37*
G36*
X0000979274Y0001267687D02*
X0001039127Y0001207833D01*
X0001019640Y0001188346D01*
X0000959786Y0001248199D01*
X0000979274Y0001267687D01*
X0000979274Y0001267687D01*
G37*
G36*
X0000965354Y0001253767D02*
X0001025208Y0001193914D01*
X0001005720Y0001174427D01*
X0000945867Y0001234280D01*
X0000965354Y0001253767D01*
X0000965354Y0001253767D01*
G37*
G36*
X0000951435Y0001239848D02*
X0001011288Y0001179994D01*
X0000991801Y0001160507D01*
X0000931948Y0001220361D01*
X0000951435Y0001239848D01*
X0000951435Y0001239848D01*
G37*
G36*
X0000937515Y0001225928D02*
X0000997369Y0001166075D01*
X0000977882Y0001146588D01*
X0000918028Y0001206441D01*
X0000937515Y0001225928D01*
X0000937515Y0001225928D01*
G37*
G36*
X0000923596Y0001212009D02*
X0000983449Y0001152155D01*
X0000963962Y0001132668D01*
X0000904109Y0001192522D01*
X0000923596Y0001212009D01*
X0000923596Y0001212009D01*
G37*
G36*
X0000973706Y0001456991D02*
X0001033559Y0001516844D01*
X0001053047Y0001497357D01*
X0000993193Y0001437504D01*
X0000973706Y0001456991D01*
X0000973706Y0001456991D01*
G37*
G36*
X0000987625Y0001443071D02*
X0001047479Y0001502925D01*
X0001066966Y0001483438D01*
X0001007112Y0001423584D01*
X0000987625Y0001443071D01*
X0000987625Y0001443071D01*
G37*
G36*
X0001001545Y0001429152D02*
X0001061398Y0001489006D01*
X0001080885Y0001469518D01*
X0001021032Y0001409665D01*
X0001001545Y0001429152D01*
X0001001545Y0001429152D01*
G37*
G36*
X0001015464Y0001415233D02*
X0001075318Y0001475086D01*
X0001094805Y0001455599D01*
X0001034951Y0001395745D01*
X0001015464Y0001415233D01*
X0001015464Y0001415233D01*
G37*
G36*
X0001029383Y0001401313D02*
X0001089237Y0001461167D01*
X0001108724Y0001441679D01*
X0001048871Y0001381826D01*
X0001029383Y0001401313D01*
X0001029383Y0001401313D01*
G37*
G36*
X0001043303Y0001387394D02*
X0001103156Y0001447247D01*
X0001122644Y0001427760D01*
X0001062790Y0001367907D01*
X0001043303Y0001387394D01*
X0001043303Y0001387394D01*
G37*
G36*
X0000959786Y0001470910D02*
X0001019640Y0001530764D01*
X0001039127Y0001511277D01*
X0000979274Y0001451423D01*
X0000959786Y0001470910D01*
X0000959786Y0001470910D01*
G37*
G36*
X0001057222Y0001373474D02*
X0001117076Y0001433328D01*
X0001136563Y0001413841D01*
X0001076710Y0001353987D01*
X0001057222Y0001373474D01*
X0001057222Y0001373474D01*
G37*
G36*
X0000945867Y0001484830D02*
X0001005720Y0001544683D01*
X0001025208Y0001525196D01*
X0000965354Y0001465343D01*
X0000945867Y0001484830D01*
X0000945867Y0001484830D01*
G37*
G36*
X0000931948Y0001498749D02*
X0000991801Y0001558603D01*
X0001011288Y0001539115D01*
X0000951435Y0001479262D01*
X0000931948Y0001498749D01*
X0000931948Y0001498749D01*
G37*
G36*
X0000918028Y0001512669D02*
X0000977882Y0001572522D01*
X0000997369Y0001553035D01*
X0000937515Y0001493181D01*
X0000918028Y0001512669D01*
X0000918028Y0001512669D01*
G37*
G36*
X0000904109Y0001526588D02*
X0000963962Y0001586441D01*
X0000983449Y0001566954D01*
X0000923596Y0001507101D01*
X0000904109Y0001526588D01*
X0000904109Y0001526588D01*
G37*
G36*
X0000771874Y0001502925D02*
X0000831728Y0001443071D01*
X0000812240Y0001423584D01*
X0000752387Y0001483438D01*
X0000771874Y0001502925D01*
X0000771874Y0001502925D01*
G37*
G36*
X0000785794Y0001516844D02*
X0000845647Y0001456991D01*
X0000826160Y0001437504D01*
X0000766306Y0001497357D01*
X0000785794Y0001516844D01*
X0000785794Y0001516844D01*
G37*
G36*
X0000799713Y0001530764D02*
X0000859567Y0001470910D01*
X0000840079Y0001451423D01*
X0000780226Y0001511277D01*
X0000799713Y0001530764D01*
X0000799713Y0001530764D01*
G37*
G36*
X0000813632Y0001544683D02*
X0000873486Y0001484830D01*
X0000853999Y0001465343D01*
X0000794145Y0001525196D01*
X0000813632Y0001544683D01*
X0000813632Y0001544683D01*
G37*
G36*
X0000827552Y0001558603D02*
X0000887405Y0001498749D01*
X0000867918Y0001479262D01*
X0000808065Y0001539115D01*
X0000827552Y0001558603D01*
X0000827552Y0001558603D01*
G37*
G36*
X0000841471Y0001572522D02*
X0000901325Y0001512669D01*
X0000881838Y0001493181D01*
X0000821984Y0001553035D01*
X0000841471Y0001572522D01*
X0000841471Y0001572522D01*
G37*
G36*
X0000855391Y0001586441D02*
X0000915244Y0001526588D01*
X0000895757Y0001507101D01*
X0000835903Y0001566954D01*
X0000855391Y0001586441D01*
X0000855391Y0001586441D01*
G37*
G36*
X0000757955Y0001489006D02*
X0000817808Y0001429152D01*
X0000798321Y0001409665D01*
X0000738467Y0001469518D01*
X0000757955Y0001489006D01*
X0000757955Y0001489006D01*
G37*
G36*
X0000744035Y0001475086D02*
X0000803889Y0001415233D01*
X0000784402Y0001395745D01*
X0000724548Y0001455599D01*
X0000744035Y0001475086D01*
X0000744035Y0001475086D01*
G37*
G36*
X0000730116Y0001461167D02*
X0000789969Y0001401313D01*
X0000770482Y0001381826D01*
X0000710629Y0001441679D01*
X0000730116Y0001461167D01*
X0000730116Y0001461167D01*
G37*
G36*
X0000716196Y0001447247D02*
X0000776050Y0001387394D01*
X0000756563Y0001367907D01*
X0000696709Y0001427760D01*
X0000716196Y0001447247D01*
X0000716196Y0001447247D01*
G37*
G36*
X0000702277Y0001433328D02*
X0000762131Y0001373474D01*
X0000742643Y0001353987D01*
X0000682790Y0001413841D01*
X0000702277Y0001433328D01*
X0000702277Y0001433328D01*
G37*
G36*
X0000766306Y0001221753D02*
X0000826160Y0001281606D01*
X0000845647Y0001262119D01*
X0000785794Y0001202265D01*
X0000766306Y0001221753D01*
X0000766306Y0001221753D01*
G37*
G36*
X0000752387Y0001235672D02*
X0000812240Y0001295526D01*
X0000831728Y0001276038D01*
X0000771874Y0001216185D01*
X0000752387Y0001235672D01*
X0000752387Y0001235672D01*
G37*
G36*
X0000780226Y0001207833D02*
X0000840079Y0001267687D01*
X0000859567Y0001248199D01*
X0000799713Y0001188346D01*
X0000780226Y0001207833D01*
X0000780226Y0001207833D01*
G37*
G36*
X0000794145Y0001193914D02*
X0000853999Y0001253767D01*
X0000873486Y0001234280D01*
X0000813632Y0001174427D01*
X0000794145Y0001193914D01*
X0000794145Y0001193914D01*
G37*
G36*
X0000808065Y0001179994D02*
X0000867918Y0001239848D01*
X0000887405Y0001220361D01*
X0000827552Y0001160507D01*
X0000808065Y0001179994D01*
X0000808065Y0001179994D01*
G37*
G36*
X0000821984Y0001166075D02*
X0000881838Y0001225928D01*
X0000901325Y0001206441D01*
X0000841471Y0001146588D01*
X0000821984Y0001166075D01*
X0000821984Y0001166075D01*
G37*
G36*
X0000835903Y0001152155D02*
X0000895757Y0001212009D01*
X0000915244Y0001192522D01*
X0000855391Y0001132668D01*
X0000835903Y0001152155D01*
X0000835903Y0001152155D01*
G37*
G36*
X0000738467Y0001249591D02*
X0000798321Y0001309445D01*
X0000817808Y0001289958D01*
X0000757955Y0001230104D01*
X0000738467Y0001249591D01*
X0000738467Y0001249591D01*
G37*
G36*
X0000724548Y0001263511D02*
X0000784402Y0001323364D01*
X0000803889Y0001303877D01*
X0000744035Y0001244024D01*
X0000724548Y0001263511D01*
X0000724548Y0001263511D01*
G37*
G36*
X0000710629Y0001277430D02*
X0000770482Y0001337284D01*
X0000789969Y0001317797D01*
X0000730116Y0001257943D01*
X0000710629Y0001277430D01*
X0000710629Y0001277430D01*
G37*
G36*
X0000696709Y0001291350D02*
X0000756563Y0001351203D01*
X0000776050Y0001331716D01*
X0000716196Y0001271863D01*
X0000696709Y0001291350D01*
X0000696709Y0001291350D01*
G37*
G36*
X0000682790Y0001305269D02*
X0000742643Y0001365123D01*
X0000762131Y0001345635D01*
X0000702277Y0001285782D01*
X0000682790Y0001305269D01*
X0000682790Y0001305269D01*
G37*
G36*
X0000995977Y0001440288D02*
X0001076710Y0001359555D01*
X0000995977Y0001278822D01*
X0000915244Y0001359555D01*
X0000995977Y0001440288D01*
X0000995977Y0001440288D01*
G37*
G36*
X0000823376Y0001440288D02*
X0000904109Y0001359555D01*
X0000823376Y0001278822D01*
X0000742643Y0001359555D01*
X0000823376Y0001440288D01*
X0000823376Y0001440288D01*
G37*
G36*
X0000909676Y0001353987D02*
X0000990409Y0001273254D01*
X0000909676Y0001192522D01*
X0000828944Y0001273254D01*
X0000909676Y0001353987D01*
X0000909676Y0001353987D01*
G37*
G36*
X0000909676Y0001526588D02*
X0000990409Y0001445855D01*
X0000909676Y0001365123D01*
X0000828944Y0001445855D01*
X0000909676Y0001526588D01*
X0000909676Y0001526588D01*
G37*
D40*
X0001880787Y0001555826D03*
D41*
X0001880787Y0001455826D03*
X0001880787Y0001355826D03*
X0001880787Y0001255826D03*
X0001880787Y0001155826D03*
D42*
X0000333149Y0001563700D03*
X0000581181Y0001563700D03*
X0000333149Y0001414094D03*
X0000581181Y0001414094D03*
D40*
X0001974488Y0001055826D03*
D41*
X0001874488Y0001055826D03*
X0001774488Y0001055826D03*
X0001674488Y0001055826D03*
X0001574488Y0001055826D03*
X0001474488Y0001055826D03*
X0001374488Y0001055826D03*
X0001274488Y0001055826D03*
X0001174488Y0001055826D03*
X0001074488Y0001055826D03*
X0000974488Y0001055826D03*
X0000874488Y0001055826D03*
X0000774488Y0001055826D03*
X0000674488Y0001055826D03*
X0000574488Y0001055826D03*
X0000474488Y0001055826D03*
X0000374488Y0001055826D03*
X0000274488Y0001055826D03*
X0000174488Y0001055826D03*
X0000074488Y0001055826D03*
D40*
X0001974488Y0001666062D03*
D41*
X0001874488Y0001666062D03*
X0001774488Y0001666062D03*
X0001674488Y0001666062D03*
X0001574488Y0001666062D03*
X0001474488Y0001666062D03*
X0001374488Y0001666062D03*
X0001274488Y0001666062D03*
X0001174488Y0001666062D03*
X0001074488Y0001666062D03*
X0000974488Y0001666062D03*
X0000874488Y0001666062D03*
X0000774488Y0001666062D03*
X0000674488Y0001666062D03*
X0000574488Y0001666062D03*
X0000474488Y0001666062D03*
X0000374488Y0001666062D03*
X0000274488Y0001666062D03*
X0000174488Y0001666062D03*
X0000074488Y0001666062D03*
D40*
X0000555511Y0001296062D03*
D41*
X0000555511Y0001196062D03*
X0000455511Y0001296062D03*
X0000455511Y0001196062D03*
X0000355511Y0001296062D03*
X0000355511Y0001196062D03*
D43*
X0001705984Y0001510551D03*
X0001705984Y0001423937D03*
X0001705984Y0001296771D03*
X0001705984Y0001210157D03*
G04 next file*
G04 Gerber Fmt 4.6, Leading zero omitted, Abs format (unit mm)*
G04 Created by KiCad (PCBNEW 4.0.7) date 11/30/17 23:24:33*
G01G01*
G04 APERTURE LIST*
G04 APERTURE END LIST*
D44*
D45*
X0000000000Y0002716535D02*
X0001449685Y0002350708D03*
X0001449685Y0002134173D03*
X0001575669Y0002134173D03*
X0001575669Y0002350708D03*
D46*
X0001268582Y0002156614D03*
X0001268582Y0002348740D03*
D47*
X0000083543Y0002414488D03*
X0000083543Y0002117244D03*
D48*
X0000180000Y0002389881D03*
X0000180000Y0002141850D03*
D49*
X0000168188Y0002344606D03*
X0000168188Y0002187125D03*
D50*
X0000188874Y0002317047D03*
X0000188874Y0002291456D03*
X0000188874Y0002265866D03*
X0000188874Y0002240275D03*
X0000188874Y0002214685D03*
D51*
X0000083543Y0002218622D03*
X0000083543Y0002313110D03*
D44*
G36*
X0001076710Y0002270634D02*
X0001136563Y0002210781D01*
X0001117076Y0002191294D01*
X0001057222Y0002251147D01*
X0001076710Y0002270634D01*
X0001076710Y0002270634D01*
G37*
G36*
X0001062790Y0002256715D02*
X0001122644Y0002196862D01*
X0001103156Y0002177374D01*
X0001043303Y0002237228D01*
X0001062790Y0002256715D01*
X0001062790Y0002256715D01*
G37*
G36*
X0001048871Y0002242796D02*
X0001108724Y0002182942D01*
X0001089237Y0002163455D01*
X0001029383Y0002223308D01*
X0001048871Y0002242796D01*
X0001048871Y0002242796D01*
G37*
G36*
X0001034951Y0002228876D02*
X0001094805Y0002169023D01*
X0001075318Y0002149535D01*
X0001015464Y0002209389D01*
X0001034951Y0002228876D01*
X0001034951Y0002228876D01*
G37*
G36*
X0001021032Y0002214957D02*
X0001080885Y0002155103D01*
X0001061398Y0002135616D01*
X0001001545Y0002195470D01*
X0001021032Y0002214957D01*
X0001021032Y0002214957D01*
G37*
G36*
X0001047479Y0002121697D02*
X0000987625Y0002181550D01*
X0001007112Y0002201037D01*
X0001066966Y0002141184D01*
X0001047479Y0002121697D01*
X0001047479Y0002121697D01*
G37*
G36*
X0000993193Y0002187118D02*
X0001053047Y0002127264D01*
X0001033559Y0002107777D01*
X0000973706Y0002167631D01*
X0000993193Y0002187118D01*
X0000993193Y0002187118D01*
G37*
G36*
X0000979274Y0002173198D02*
X0001039127Y0002113345D01*
X0001019640Y0002093858D01*
X0000959786Y0002153711D01*
X0000979274Y0002173198D01*
X0000979274Y0002173198D01*
G37*
G36*
X0000965354Y0002159279D02*
X0001025208Y0002099426D01*
X0001005720Y0002079938D01*
X0000945867Y0002139792D01*
X0000965354Y0002159279D01*
X0000965354Y0002159279D01*
G37*
G36*
X0000951435Y0002145360D02*
X0001011288Y0002085506D01*
X0000991801Y0002066019D01*
X0000931948Y0002125872D01*
X0000951435Y0002145360D01*
X0000951435Y0002145360D01*
G37*
G36*
X0000937515Y0002131440D02*
X0000997369Y0002071587D01*
X0000977882Y0002052100D01*
X0000918028Y0002111953D01*
X0000937515Y0002131440D01*
X0000937515Y0002131440D01*
G37*
G36*
X0000923596Y0002117521D02*
X0000983449Y0002057667D01*
X0000963962Y0002038180D01*
X0000904109Y0002098034D01*
X0000923596Y0002117521D01*
X0000923596Y0002117521D01*
G37*
G36*
X0000973706Y0002362503D02*
X0001033559Y0002422356D01*
X0001053047Y0002402869D01*
X0000993193Y0002343015D01*
X0000973706Y0002362503D01*
X0000973706Y0002362503D01*
G37*
G36*
X0000987625Y0002348583D02*
X0001047479Y0002408437D01*
X0001066966Y0002388950D01*
X0001007112Y0002329096D01*
X0000987625Y0002348583D01*
X0000987625Y0002348583D01*
G37*
G36*
X0001001545Y0002334664D02*
X0001061398Y0002394517D01*
X0001080885Y0002375030D01*
X0001021032Y0002315177D01*
X0001001545Y0002334664D01*
X0001001545Y0002334664D01*
G37*
G36*
X0001015464Y0002320744D02*
X0001075318Y0002380598D01*
X0001094805Y0002361111D01*
X0001034951Y0002301257D01*
X0001015464Y0002320744D01*
X0001015464Y0002320744D01*
G37*
G36*
X0001029383Y0002306825D02*
X0001089237Y0002366679D01*
X0001108724Y0002347191D01*
X0001048871Y0002287338D01*
X0001029383Y0002306825D01*
X0001029383Y0002306825D01*
G37*
G36*
X0001043303Y0002292906D02*
X0001103156Y0002352759D01*
X0001122644Y0002333272D01*
X0001062790Y0002273418D01*
X0001043303Y0002292906D01*
X0001043303Y0002292906D01*
G37*
G36*
X0000959786Y0002376422D02*
X0001019640Y0002436276D01*
X0001039127Y0002416788D01*
X0000979274Y0002356935D01*
X0000959786Y0002376422D01*
X0000959786Y0002376422D01*
G37*
G36*
X0001057222Y0002278986D02*
X0001117076Y0002338840D01*
X0001136563Y0002319352D01*
X0001076710Y0002259499D01*
X0001057222Y0002278986D01*
X0001057222Y0002278986D01*
G37*
G36*
X0000945867Y0002390342D02*
X0001005720Y0002450195D01*
X0001025208Y0002430708D01*
X0000965354Y0002370854D01*
X0000945867Y0002390342D01*
X0000945867Y0002390342D01*
G37*
G36*
X0000931948Y0002404261D02*
X0000991801Y0002464114D01*
X0001011288Y0002444627D01*
X0000951435Y0002384774D01*
X0000931948Y0002404261D01*
X0000931948Y0002404261D01*
G37*
G36*
X0000918028Y0002418180D02*
X0000977882Y0002478034D01*
X0000997369Y0002458547D01*
X0000937515Y0002398693D01*
X0000918028Y0002418180D01*
X0000918028Y0002418180D01*
G37*
G36*
X0000904109Y0002432100D02*
X0000963962Y0002491953D01*
X0000983449Y0002472466D01*
X0000923596Y0002412613D01*
X0000904109Y0002432100D01*
X0000904109Y0002432100D01*
G37*
G36*
X0000771874Y0002408437D02*
X0000831728Y0002348583D01*
X0000812240Y0002329096D01*
X0000752387Y0002388950D01*
X0000771874Y0002408437D01*
X0000771874Y0002408437D01*
G37*
G36*
X0000785794Y0002422356D02*
X0000845647Y0002362503D01*
X0000826160Y0002343015D01*
X0000766306Y0002402869D01*
X0000785794Y0002422356D01*
X0000785794Y0002422356D01*
G37*
G36*
X0000799713Y0002436276D02*
X0000859567Y0002376422D01*
X0000840079Y0002356935D01*
X0000780226Y0002416788D01*
X0000799713Y0002436276D01*
X0000799713Y0002436276D01*
G37*
G36*
X0000813632Y0002450195D02*
X0000873486Y0002390342D01*
X0000853999Y0002370854D01*
X0000794145Y0002430708D01*
X0000813632Y0002450195D01*
X0000813632Y0002450195D01*
G37*
G36*
X0000827552Y0002464114D02*
X0000887405Y0002404261D01*
X0000867918Y0002384774D01*
X0000808065Y0002444627D01*
X0000827552Y0002464114D01*
X0000827552Y0002464114D01*
G37*
G36*
X0000841471Y0002478034D02*
X0000901325Y0002418180D01*
X0000881838Y0002398693D01*
X0000821984Y0002458547D01*
X0000841471Y0002478034D01*
X0000841471Y0002478034D01*
G37*
G36*
X0000855391Y0002491953D02*
X0000915244Y0002432100D01*
X0000895757Y0002412613D01*
X0000835903Y0002472466D01*
X0000855391Y0002491953D01*
X0000855391Y0002491953D01*
G37*
G36*
X0000757955Y0002394517D02*
X0000817808Y0002334664D01*
X0000798321Y0002315177D01*
X0000738467Y0002375030D01*
X0000757955Y0002394517D01*
X0000757955Y0002394517D01*
G37*
G36*
X0000744035Y0002380598D02*
X0000803889Y0002320744D01*
X0000784402Y0002301257D01*
X0000724548Y0002361111D01*
X0000744035Y0002380598D01*
X0000744035Y0002380598D01*
G37*
G36*
X0000730116Y0002366679D02*
X0000789969Y0002306825D01*
X0000770482Y0002287338D01*
X0000710629Y0002347191D01*
X0000730116Y0002366679D01*
X0000730116Y0002366679D01*
G37*
G36*
X0000716196Y0002352759D02*
X0000776050Y0002292906D01*
X0000756563Y0002273418D01*
X0000696709Y0002333272D01*
X0000716196Y0002352759D01*
X0000716196Y0002352759D01*
G37*
G36*
X0000702277Y0002338840D02*
X0000762131Y0002278986D01*
X0000742643Y0002259499D01*
X0000682790Y0002319352D01*
X0000702277Y0002338840D01*
X0000702277Y0002338840D01*
G37*
G36*
X0000766306Y0002127264D02*
X0000826160Y0002187118D01*
X0000845647Y0002167631D01*
X0000785794Y0002107777D01*
X0000766306Y0002127264D01*
X0000766306Y0002127264D01*
G37*
G36*
X0000752387Y0002141184D02*
X0000812240Y0002201037D01*
X0000831728Y0002181550D01*
X0000771874Y0002121697D01*
X0000752387Y0002141184D01*
X0000752387Y0002141184D01*
G37*
G36*
X0000780226Y0002113345D02*
X0000840079Y0002173198D01*
X0000859567Y0002153711D01*
X0000799713Y0002093858D01*
X0000780226Y0002113345D01*
X0000780226Y0002113345D01*
G37*
G36*
X0000794145Y0002099426D02*
X0000853999Y0002159279D01*
X0000873486Y0002139792D01*
X0000813632Y0002079938D01*
X0000794145Y0002099426D01*
X0000794145Y0002099426D01*
G37*
G36*
X0000808065Y0002085506D02*
X0000867918Y0002145360D01*
X0000887405Y0002125872D01*
X0000827552Y0002066019D01*
X0000808065Y0002085506D01*
X0000808065Y0002085506D01*
G37*
G36*
X0000821984Y0002071587D02*
X0000881838Y0002131440D01*
X0000901325Y0002111953D01*
X0000841471Y0002052100D01*
X0000821984Y0002071587D01*
X0000821984Y0002071587D01*
G37*
G36*
X0000835903Y0002057667D02*
X0000895757Y0002117521D01*
X0000915244Y0002098034D01*
X0000855391Y0002038180D01*
X0000835903Y0002057667D01*
X0000835903Y0002057667D01*
G37*
G36*
X0000738467Y0002155103D02*
X0000798321Y0002214957D01*
X0000817808Y0002195470D01*
X0000757955Y0002135616D01*
X0000738467Y0002155103D01*
X0000738467Y0002155103D01*
G37*
G36*
X0000724548Y0002169023D02*
X0000784402Y0002228876D01*
X0000803889Y0002209389D01*
X0000744035Y0002149535D01*
X0000724548Y0002169023D01*
X0000724548Y0002169023D01*
G37*
G36*
X0000710629Y0002182942D02*
X0000770482Y0002242796D01*
X0000789969Y0002223308D01*
X0000730116Y0002163455D01*
X0000710629Y0002182942D01*
X0000710629Y0002182942D01*
G37*
G36*
X0000696709Y0002196862D02*
X0000756563Y0002256715D01*
X0000776050Y0002237228D01*
X0000716196Y0002177374D01*
X0000696709Y0002196862D01*
X0000696709Y0002196862D01*
G37*
G36*
X0000682790Y0002210781D02*
X0000742643Y0002270634D01*
X0000762131Y0002251147D01*
X0000702277Y0002191294D01*
X0000682790Y0002210781D01*
X0000682790Y0002210781D01*
G37*
G36*
X0000995977Y0002345799D02*
X0001076710Y0002265067D01*
X0000995977Y0002184334D01*
X0000915244Y0002265067D01*
X0000995977Y0002345799D01*
X0000995977Y0002345799D01*
G37*
G36*
X0000823376Y0002345799D02*
X0000904109Y0002265067D01*
X0000823376Y0002184334D01*
X0000742643Y0002265067D01*
X0000823376Y0002345799D01*
X0000823376Y0002345799D01*
G37*
G36*
X0000909676Y0002259499D02*
X0000990409Y0002178766D01*
X0000909676Y0002098034D01*
X0000828944Y0002178766D01*
X0000909676Y0002259499D01*
X0000909676Y0002259499D01*
G37*
G36*
X0000909676Y0002432100D02*
X0000990409Y0002351367D01*
X0000909676Y0002270634D01*
X0000828944Y0002351367D01*
X0000909676Y0002432100D01*
X0000909676Y0002432100D01*
G37*
D52*
X0001880787Y0002461338D03*
D53*
X0001880787Y0002361338D03*
X0001880787Y0002261338D03*
X0001880787Y0002161338D03*
X0001880787Y0002061338D03*
D54*
X0000333149Y0002469212D03*
X0000581181Y0002469212D03*
X0000333149Y0002319606D03*
X0000581181Y0002319606D03*
D52*
X0001974488Y0001961338D03*
D53*
X0001874488Y0001961338D03*
X0001774488Y0001961338D03*
X0001674488Y0001961338D03*
X0001574488Y0001961338D03*
X0001474488Y0001961338D03*
X0001374488Y0001961338D03*
X0001274488Y0001961338D03*
X0001174488Y0001961338D03*
X0001074488Y0001961338D03*
X0000974488Y0001961338D03*
X0000874488Y0001961338D03*
X0000774488Y0001961338D03*
X0000674488Y0001961338D03*
X0000574488Y0001961338D03*
X0000474488Y0001961338D03*
X0000374488Y0001961338D03*
X0000274488Y0001961338D03*
X0000174488Y0001961338D03*
X0000074488Y0001961338D03*
D52*
X0001974488Y0002571574D03*
D53*
X0001874488Y0002571574D03*
X0001774488Y0002571574D03*
X0001674488Y0002571574D03*
X0001574488Y0002571574D03*
X0001474488Y0002571574D03*
X0001374488Y0002571574D03*
X0001274488Y0002571574D03*
X0001174488Y0002571574D03*
X0001074488Y0002571574D03*
X0000974488Y0002571574D03*
X0000874488Y0002571574D03*
X0000774488Y0002571574D03*
X0000674488Y0002571574D03*
X0000574488Y0002571574D03*
X0000474488Y0002571574D03*
X0000374488Y0002571574D03*
X0000274488Y0002571574D03*
X0000174488Y0002571574D03*
X0000074488Y0002571574D03*
D52*
X0000555511Y0002201574D03*
D53*
X0000555511Y0002101574D03*
X0000455511Y0002201574D03*
X0000455511Y0002101574D03*
X0000355511Y0002201574D03*
X0000355511Y0002101574D03*
D55*
X0001705984Y0002416062D03*
X0001705984Y0002329448D03*
X0001705984Y0002202283D03*
X0001705984Y0002115669D03*
G04 next file*
G04 Gerber Fmt 4.6, Leading zero omitted, Abs format (unit mm)*
G04 Created by KiCad (PCBNEW 4.0.7) date 11/30/17 23:24:33*
G01G01*
G04 APERTURE LIST*
G04 APERTURE END LIST*
D56*
D57*
X0000000000Y0003622047D02*
X0001449685Y0003256220D03*
X0001449685Y0003039685D03*
X0001575669Y0003039685D03*
X0001575669Y0003256220D03*
D58*
X0001268582Y0003062125D03*
X0001268582Y0003254251D03*
D59*
X0000083543Y0003320000D03*
X0000083543Y0003022755D03*
D60*
X0000180000Y0003295393D03*
X0000180000Y0003047362D03*
D61*
X0000168188Y0003250118D03*
X0000168188Y0003092637D03*
D62*
X0000188874Y0003222559D03*
X0000188874Y0003196968D03*
X0000188874Y0003171377D03*
X0000188874Y0003145787D03*
X0000188874Y0003120196D03*
D63*
X0000083543Y0003124133D03*
X0000083543Y0003218622D03*
D56*
G36*
X0001076710Y0003176146D02*
X0001136563Y0003116293D01*
X0001117076Y0003096806D01*
X0001057222Y0003156659D01*
X0001076710Y0003176146D01*
X0001076710Y0003176146D01*
G37*
G36*
X0001062790Y0003162227D02*
X0001122644Y0003102373D01*
X0001103156Y0003082886D01*
X0001043303Y0003142740D01*
X0001062790Y0003162227D01*
X0001062790Y0003162227D01*
G37*
G36*
X0001048871Y0003148307D02*
X0001108724Y0003088454D01*
X0001089237Y0003068967D01*
X0001029383Y0003128820D01*
X0001048871Y0003148307D01*
X0001048871Y0003148307D01*
G37*
G36*
X0001034951Y0003134388D02*
X0001094805Y0003074535D01*
X0001075318Y0003055047D01*
X0001015464Y0003114901D01*
X0001034951Y0003134388D01*
X0001034951Y0003134388D01*
G37*
G36*
X0001021032Y0003120469D02*
X0001080885Y0003060615D01*
X0001061398Y0003041128D01*
X0001001545Y0003100981D01*
X0001021032Y0003120469D01*
X0001021032Y0003120469D01*
G37*
G36*
X0001047479Y0003027208D02*
X0000987625Y0003087062D01*
X0001007112Y0003106549D01*
X0001066966Y0003046696D01*
X0001047479Y0003027208D01*
X0001047479Y0003027208D01*
G37*
G36*
X0000993193Y0003092630D02*
X0001053047Y0003032776D01*
X0001033559Y0003013289D01*
X0000973706Y0003073143D01*
X0000993193Y0003092630D01*
X0000993193Y0003092630D01*
G37*
G36*
X0000979274Y0003078710D02*
X0001039127Y0003018857D01*
X0001019640Y0002999370D01*
X0000959786Y0003059223D01*
X0000979274Y0003078710D01*
X0000979274Y0003078710D01*
G37*
G36*
X0000965354Y0003064791D02*
X0001025208Y0003004937D01*
X0001005720Y0002985450D01*
X0000945867Y0003045304D01*
X0000965354Y0003064791D01*
X0000965354Y0003064791D01*
G37*
G36*
X0000951435Y0003050871D02*
X0001011288Y0002991018D01*
X0000991801Y0002971531D01*
X0000931948Y0003031384D01*
X0000951435Y0003050871D01*
X0000951435Y0003050871D01*
G37*
G36*
X0000937515Y0003036952D02*
X0000997369Y0002977099D01*
X0000977882Y0002957611D01*
X0000918028Y0003017465D01*
X0000937515Y0003036952D01*
X0000937515Y0003036952D01*
G37*
G36*
X0000923596Y0003023033D02*
X0000983449Y0002963179D01*
X0000963962Y0002943692D01*
X0000904109Y0003003545D01*
X0000923596Y0003023033D01*
X0000923596Y0003023033D01*
G37*
G36*
X0000973706Y0003268015D02*
X0001033559Y0003327868D01*
X0001053047Y0003308381D01*
X0000993193Y0003248527D01*
X0000973706Y0003268015D01*
X0000973706Y0003268015D01*
G37*
G36*
X0000987625Y0003254095D02*
X0001047479Y0003313949D01*
X0001066966Y0003294461D01*
X0001007112Y0003234608D01*
X0000987625Y0003254095D01*
X0000987625Y0003254095D01*
G37*
G36*
X0001001545Y0003240176D02*
X0001061398Y0003300029D01*
X0001080885Y0003280542D01*
X0001021032Y0003220688D01*
X0001001545Y0003240176D01*
X0001001545Y0003240176D01*
G37*
G36*
X0001015464Y0003226256D02*
X0001075318Y0003286110D01*
X0001094805Y0003266623D01*
X0001034951Y0003206769D01*
X0001015464Y0003226256D01*
X0001015464Y0003226256D01*
G37*
G36*
X0001029383Y0003212337D02*
X0001089237Y0003272190D01*
X0001108724Y0003252703D01*
X0001048871Y0003192850D01*
X0001029383Y0003212337D01*
X0001029383Y0003212337D01*
G37*
G36*
X0001043303Y0003198417D02*
X0001103156Y0003258271D01*
X0001122644Y0003238784D01*
X0001062790Y0003178930D01*
X0001043303Y0003198417D01*
X0001043303Y0003198417D01*
G37*
G36*
X0000959786Y0003281934D02*
X0001019640Y0003341787D01*
X0001039127Y0003322300D01*
X0000979274Y0003262447D01*
X0000959786Y0003281934D01*
X0000959786Y0003281934D01*
G37*
G36*
X0001057222Y0003184498D02*
X0001117076Y0003244351D01*
X0001136563Y0003224864D01*
X0001076710Y0003165011D01*
X0001057222Y0003184498D01*
X0001057222Y0003184498D01*
G37*
G36*
X0000945867Y0003295853D02*
X0001005720Y0003355707D01*
X0001025208Y0003336220D01*
X0000965354Y0003276366D01*
X0000945867Y0003295853D01*
X0000945867Y0003295853D01*
G37*
G36*
X0000931948Y0003309773D02*
X0000991801Y0003369626D01*
X0001011288Y0003350139D01*
X0000951435Y0003290286D01*
X0000931948Y0003309773D01*
X0000931948Y0003309773D01*
G37*
G36*
X0000918028Y0003323692D02*
X0000977882Y0003383546D01*
X0000997369Y0003364059D01*
X0000937515Y0003304205D01*
X0000918028Y0003323692D01*
X0000918028Y0003323692D01*
G37*
G36*
X0000904109Y0003337612D02*
X0000963962Y0003397465D01*
X0000983449Y0003377978D01*
X0000923596Y0003318124D01*
X0000904109Y0003337612D01*
X0000904109Y0003337612D01*
G37*
G36*
X0000771874Y0003313949D02*
X0000831728Y0003254095D01*
X0000812240Y0003234608D01*
X0000752387Y0003294461D01*
X0000771874Y0003313949D01*
X0000771874Y0003313949D01*
G37*
G36*
X0000785794Y0003327868D02*
X0000845647Y0003268015D01*
X0000826160Y0003248527D01*
X0000766306Y0003308381D01*
X0000785794Y0003327868D01*
X0000785794Y0003327868D01*
G37*
G36*
X0000799713Y0003341787D02*
X0000859567Y0003281934D01*
X0000840079Y0003262447D01*
X0000780226Y0003322300D01*
X0000799713Y0003341787D01*
X0000799713Y0003341787D01*
G37*
G36*
X0000813632Y0003355707D02*
X0000873486Y0003295853D01*
X0000853999Y0003276366D01*
X0000794145Y0003336220D01*
X0000813632Y0003355707D01*
X0000813632Y0003355707D01*
G37*
G36*
X0000827552Y0003369626D02*
X0000887405Y0003309773D01*
X0000867918Y0003290286D01*
X0000808065Y0003350139D01*
X0000827552Y0003369626D01*
X0000827552Y0003369626D01*
G37*
G36*
X0000841471Y0003383546D02*
X0000901325Y0003323692D01*
X0000881838Y0003304205D01*
X0000821984Y0003364059D01*
X0000841471Y0003383546D01*
X0000841471Y0003383546D01*
G37*
G36*
X0000855391Y0003397465D02*
X0000915244Y0003337612D01*
X0000895757Y0003318124D01*
X0000835903Y0003377978D01*
X0000855391Y0003397465D01*
X0000855391Y0003397465D01*
G37*
G36*
X0000757955Y0003300029D02*
X0000817808Y0003240176D01*
X0000798321Y0003220688D01*
X0000738467Y0003280542D01*
X0000757955Y0003300029D01*
X0000757955Y0003300029D01*
G37*
G36*
X0000744035Y0003286110D02*
X0000803889Y0003226256D01*
X0000784402Y0003206769D01*
X0000724548Y0003266623D01*
X0000744035Y0003286110D01*
X0000744035Y0003286110D01*
G37*
G36*
X0000730116Y0003272190D02*
X0000789969Y0003212337D01*
X0000770482Y0003192850D01*
X0000710629Y0003252703D01*
X0000730116Y0003272190D01*
X0000730116Y0003272190D01*
G37*
G36*
X0000716196Y0003258271D02*
X0000776050Y0003198417D01*
X0000756563Y0003178930D01*
X0000696709Y0003238784D01*
X0000716196Y0003258271D01*
X0000716196Y0003258271D01*
G37*
G36*
X0000702277Y0003244351D02*
X0000762131Y0003184498D01*
X0000742643Y0003165011D01*
X0000682790Y0003224864D01*
X0000702277Y0003244351D01*
X0000702277Y0003244351D01*
G37*
G36*
X0000766306Y0003032776D02*
X0000826160Y0003092630D01*
X0000845647Y0003073143D01*
X0000785794Y0003013289D01*
X0000766306Y0003032776D01*
X0000766306Y0003032776D01*
G37*
G36*
X0000752387Y0003046696D02*
X0000812240Y0003106549D01*
X0000831728Y0003087062D01*
X0000771874Y0003027208D01*
X0000752387Y0003046696D01*
X0000752387Y0003046696D01*
G37*
G36*
X0000780226Y0003018857D02*
X0000840079Y0003078710D01*
X0000859567Y0003059223D01*
X0000799713Y0002999370D01*
X0000780226Y0003018857D01*
X0000780226Y0003018857D01*
G37*
G36*
X0000794145Y0003004937D02*
X0000853999Y0003064791D01*
X0000873486Y0003045304D01*
X0000813632Y0002985450D01*
X0000794145Y0003004937D01*
X0000794145Y0003004937D01*
G37*
G36*
X0000808065Y0002991018D02*
X0000867918Y0003050871D01*
X0000887405Y0003031384D01*
X0000827552Y0002971531D01*
X0000808065Y0002991018D01*
X0000808065Y0002991018D01*
G37*
G36*
X0000821984Y0002977099D02*
X0000881838Y0003036952D01*
X0000901325Y0003017465D01*
X0000841471Y0002957611D01*
X0000821984Y0002977099D01*
X0000821984Y0002977099D01*
G37*
G36*
X0000835903Y0002963179D02*
X0000895757Y0003023033D01*
X0000915244Y0003003545D01*
X0000855391Y0002943692D01*
X0000835903Y0002963179D01*
X0000835903Y0002963179D01*
G37*
G36*
X0000738467Y0003060615D02*
X0000798321Y0003120469D01*
X0000817808Y0003100981D01*
X0000757955Y0003041128D01*
X0000738467Y0003060615D01*
X0000738467Y0003060615D01*
G37*
G36*
X0000724548Y0003074535D02*
X0000784402Y0003134388D01*
X0000803889Y0003114901D01*
X0000744035Y0003055047D01*
X0000724548Y0003074535D01*
X0000724548Y0003074535D01*
G37*
G36*
X0000710629Y0003088454D02*
X0000770482Y0003148307D01*
X0000789969Y0003128820D01*
X0000730116Y0003068967D01*
X0000710629Y0003088454D01*
X0000710629Y0003088454D01*
G37*
G36*
X0000696709Y0003102373D02*
X0000756563Y0003162227D01*
X0000776050Y0003142740D01*
X0000716196Y0003082886D01*
X0000696709Y0003102373D01*
X0000696709Y0003102373D01*
G37*
G36*
X0000682790Y0003116293D02*
X0000742643Y0003176146D01*
X0000762131Y0003156659D01*
X0000702277Y0003096806D01*
X0000682790Y0003116293D01*
X0000682790Y0003116293D01*
G37*
G36*
X0000995977Y0003251311D02*
X0001076710Y0003170579D01*
X0000995977Y0003089846D01*
X0000915244Y0003170579D01*
X0000995977Y0003251311D01*
X0000995977Y0003251311D01*
G37*
G36*
X0000823376Y0003251311D02*
X0000904109Y0003170579D01*
X0000823376Y0003089846D01*
X0000742643Y0003170579D01*
X0000823376Y0003251311D01*
X0000823376Y0003251311D01*
G37*
G36*
X0000909676Y0003165011D02*
X0000990409Y0003084278D01*
X0000909676Y0003003545D01*
X0000828944Y0003084278D01*
X0000909676Y0003165011D01*
X0000909676Y0003165011D01*
G37*
G36*
X0000909676Y0003337612D02*
X0000990409Y0003256879D01*
X0000909676Y0003176146D01*
X0000828944Y0003256879D01*
X0000909676Y0003337612D01*
X0000909676Y0003337612D01*
G37*
D64*
X0001880787Y0003366850D03*
D65*
X0001880787Y0003266850D03*
X0001880787Y0003166850D03*
X0001880787Y0003066850D03*
X0001880787Y0002966850D03*
D66*
X0000333149Y0003374724D03*
X0000581181Y0003374724D03*
X0000333149Y0003225118D03*
X0000581181Y0003225118D03*
D64*
X0001974488Y0002866850D03*
D65*
X0001874488Y0002866850D03*
X0001774488Y0002866850D03*
X0001674488Y0002866850D03*
X0001574488Y0002866850D03*
X0001474488Y0002866850D03*
X0001374488Y0002866850D03*
X0001274488Y0002866850D03*
X0001174488Y0002866850D03*
X0001074488Y0002866850D03*
X0000974488Y0002866850D03*
X0000874488Y0002866850D03*
X0000774488Y0002866850D03*
X0000674488Y0002866850D03*
X0000574488Y0002866850D03*
X0000474488Y0002866850D03*
X0000374488Y0002866850D03*
X0000274488Y0002866850D03*
X0000174488Y0002866850D03*
X0000074488Y0002866850D03*
D64*
X0001974488Y0003477086D03*
D65*
X0001874488Y0003477086D03*
X0001774488Y0003477086D03*
X0001674488Y0003477086D03*
X0001574488Y0003477086D03*
X0001474488Y0003477086D03*
X0001374488Y0003477086D03*
X0001274488Y0003477086D03*
X0001174488Y0003477086D03*
X0001074488Y0003477086D03*
X0000974488Y0003477086D03*
X0000874488Y0003477086D03*
X0000774488Y0003477086D03*
X0000674488Y0003477086D03*
X0000574488Y0003477086D03*
X0000474488Y0003477086D03*
X0000374488Y0003477086D03*
X0000274488Y0003477086D03*
X0000174488Y0003477086D03*
X0000074488Y0003477086D03*
D64*
X0000555511Y0003107086D03*
D65*
X0000555511Y0003007086D03*
X0000455511Y0003107086D03*
X0000455511Y0003007086D03*
X0000355511Y0003107086D03*
X0000355511Y0003007086D03*
D67*
X0001705984Y0003321574D03*
X0001705984Y0003234960D03*
X0001705984Y0003107795D03*
X0001705984Y0003021181D03*
G04 next file*
G04 Gerber Fmt 4.6, Leading zero omitted, Abs format (unit mm)*
G04 Created by KiCad (PCBNEW 4.0.7) date 11/30/17 23:31:52*
G01G01*
G04 APERTURE LIST*
G04 APERTURE END LIST*
D68*
G36*
X0002252877Y0002625879D02*
X0002250333Y0002618287D01*
X0002251502Y0002611988D01*
X0002255421Y0002607562D01*
X0002261127Y0002605589D01*
X0002267660Y0002606651D01*
X0002274057Y0002611326D01*
X0002276616Y0002619243D01*
X0002275238Y0002625583D01*
X0002271050Y0002629883D01*
X0002265176Y0002631675D01*
X0002258743Y0002630496D01*
X0002252877Y0002625879D01*
X0002252877Y0002625879D01*
G37*
G36*
X0002271621Y0002661095D02*
X0002263656Y0002669244D01*
X0002272048Y0002671961D01*
X0002280442Y0002673641D01*
X0002288782Y0002674333D01*
X0002297016Y0002674088D01*
X0002305089Y0002672956D01*
X0002312947Y0002670986D01*
X0002320536Y0002668228D01*
X0002327801Y0002664734D01*
X0002334690Y0002660552D01*
X0002341147Y0002655734D01*
X0002347120Y0002650328D01*
X0002352553Y0002644385D01*
X0002357393Y0002637954D01*
X0002361585Y0002631087D01*
X0002365077Y0002623833D01*
X0002367812Y0002616242D01*
X0002369739Y0002608364D01*
X0002370802Y0002600250D01*
X0002370947Y0002591948D01*
X0002370122Y0002583510D01*
X0002368270Y0002574985D01*
X0002365339Y0002566423D01*
X0002361274Y0002557875D01*
X0002356022Y0002549390D01*
X0002350344Y0002542070D01*
X0002344178Y0002535672D01*
X0002337587Y0002530177D01*
X0002330633Y0002525565D01*
X0002323379Y0002521817D01*
X0002315888Y0002518915D01*
X0002308223Y0002516837D01*
X0002300447Y0002515566D01*
X0002292622Y0002515082D01*
X0002284811Y0002515365D01*
X0002277076Y0002516397D01*
X0002269482Y0002518158D01*
X0002262089Y0002520629D01*
X0002254961Y0002523790D01*
X0002248162Y0002527622D01*
X0002241753Y0002532107D01*
X0002235797Y0002537223D01*
X0002230357Y0002542953D01*
X0002225496Y0002549277D01*
X0002221277Y0002556176D01*
X0002217762Y0002563630D01*
X0002215014Y0002571620D01*
X0002213096Y0002580127D01*
X0002212070Y0002589132D01*
X0002212000Y0002598614D01*
X0002212948Y0002608556D01*
X0002222216Y0002601478D01*
X0002221836Y0002593087D01*
X0002222496Y0002584930D01*
X0002224127Y0002577062D01*
X0002226661Y0002569536D01*
X0002230028Y0002562410D01*
X0002234159Y0002555737D01*
X0002238986Y0002549572D01*
X0002244440Y0002543970D01*
X0002250451Y0002538986D01*
X0002256951Y0002534675D01*
X0002263872Y0002531093D01*
X0002271143Y0002528293D01*
X0002278696Y0002526331D01*
X0002286463Y0002525261D01*
X0002294373Y0002525139D01*
X0002302360Y0002526019D01*
X0002310352Y0002527957D01*
X0002318282Y0002531007D01*
X0002326081Y0002535224D01*
X0002333679Y0002540663D01*
X0002341009Y0002547379D01*
X0002348000Y0002555427D01*
X0002352820Y0002563728D01*
X0002356397Y0002572153D01*
X0002358785Y0002580627D01*
X0002360042Y0002589077D01*
X0002360222Y0002597430D01*
X0002359380Y0002605613D01*
X0002357574Y0002613551D01*
X0002354858Y0002621171D01*
X0002351289Y0002628401D01*
X0002346922Y0002635166D01*
X0002341812Y0002641392D01*
X0002336016Y0002647008D01*
X0002329589Y0002651938D01*
X0002322587Y0002656109D01*
X0002315066Y0002659449D01*
X0002307081Y0002661883D01*
X0002298689Y0002663338D01*
X0002289944Y0002663741D01*
X0002280903Y0002663018D01*
X0002271621Y0002661095D01*
X0002271621Y0002661095D01*
G37*
G36*
X0002191701Y0002672368D02*
X0002167930Y0002693240D01*
X0002194600Y0002675846D01*
X0002191701Y0002672368D01*
X0002191701Y0002672368D01*
X0002191701Y0002672368D01*
G37*
G36*
X0003149606Y0002568110D02*
X0003149606Y0002654724D01*
X0003283464Y0002654724D01*
X0003283464Y0002568110D01*
X0003149606Y0002568110D01*
X0003149606Y0002568110D01*
G37*
G36*
X0003149606Y0002468110D02*
X0003149606Y0002554724D01*
X0003283464Y0002554724D01*
X0003283464Y0002468110D01*
X0003149606Y0002468110D01*
X0003149606Y0002468110D01*
G37*
G36*
X0003149606Y0002368110D02*
X0003149606Y0002454724D01*
X0003283464Y0002454724D01*
X0003283464Y0002368110D01*
X0003149606Y0002368110D01*
X0003149606Y0002368110D01*
G37*
G36*
X0003149606Y0002268110D02*
X0003149606Y0002354724D01*
X0003283464Y0002354724D01*
X0003283464Y0002268110D01*
X0003149606Y0002268110D01*
X0003149606Y0002268110D01*
G37*
G36*
X0003149606Y0002168110D02*
X0003149606Y0002254724D01*
X0003283464Y0002254724D01*
X0003283464Y0002168110D01*
X0003149606Y0002168110D01*
X0003149606Y0002168110D01*
G37*
G36*
X0003149606Y0002068110D02*
X0003149606Y0002154724D01*
X0003283464Y0002154724D01*
X0003283464Y0002068110D01*
X0003149606Y0002068110D01*
X0003149606Y0002068110D01*
G37*
G36*
X0003149606Y0001968110D02*
X0003149606Y0002054724D01*
X0003283464Y0002054724D01*
X0003283464Y0001968110D01*
X0003149606Y0001968110D01*
X0003149606Y0001968110D01*
G37*
G36*
X0003149606Y0001868110D02*
X0003149606Y0001954724D01*
X0003283464Y0001954724D01*
X0003283464Y0001868110D01*
X0003149606Y0001868110D01*
X0003149606Y0001868110D01*
G37*
D69*
X0003025015Y0002597338D03*
D70*
X0002925015Y0002597338D03*
X0002825015Y0002597338D03*
X0002725015Y0002597338D03*
X0002625015Y0002597338D03*
X0002525015Y0002597338D03*
D71*
X0002433015Y0002135338D03*
X0002433015Y0002327464D03*
D72*
X0002397322Y0001932338D03*
X0002310708Y0001932338D03*
X0003058303Y0001928891D03*
X0003058303Y0002015505D03*
X0002973370Y0001928070D03*
X0002973370Y0002014685D03*
D68*
G36*
X0002628880Y0002227987D02*
X0002569026Y0002287840D01*
X0002588513Y0002307327D01*
X0002648367Y0002247474D01*
X0002628880Y0002227987D01*
X0002628880Y0002227987D01*
G37*
G36*
X0002642799Y0002241906D02*
X0002582945Y0002301760D01*
X0002602433Y0002321247D01*
X0002662286Y0002261393D01*
X0002642799Y0002241906D01*
X0002642799Y0002241906D01*
G37*
G36*
X0002656718Y0002255825D02*
X0002596865Y0002315679D01*
X0002616352Y0002335166D01*
X0002676206Y0002275313D01*
X0002656718Y0002255825D01*
X0002656718Y0002255825D01*
G37*
G36*
X0002670638Y0002269745D02*
X0002610784Y0002329598D01*
X0002630272Y0002349086D01*
X0002690125Y0002289232D01*
X0002670638Y0002269745D01*
X0002670638Y0002269745D01*
G37*
G36*
X0002684557Y0002283664D02*
X0002624704Y0002343518D01*
X0002644191Y0002363005D01*
X0002704044Y0002303151D01*
X0002684557Y0002283664D01*
X0002684557Y0002283664D01*
G37*
G36*
X0002658110Y0002376924D02*
X0002717964Y0002317071D01*
X0002698477Y0002297584D01*
X0002638623Y0002357437D01*
X0002658110Y0002376924D01*
X0002658110Y0002376924D01*
G37*
G36*
X0002712396Y0002311503D02*
X0002652543Y0002371357D01*
X0002672030Y0002390844D01*
X0002731883Y0002330990D01*
X0002712396Y0002311503D01*
X0002712396Y0002311503D01*
G37*
G36*
X0002726315Y0002325423D02*
X0002666462Y0002385276D01*
X0002685949Y0002404763D01*
X0002745803Y0002344910D01*
X0002726315Y0002325423D01*
X0002726315Y0002325423D01*
G37*
G36*
X0002740235Y0002339342D02*
X0002680381Y0002399195D01*
X0002699869Y0002418683D01*
X0002759722Y0002358829D01*
X0002740235Y0002339342D01*
X0002740235Y0002339342D01*
G37*
G36*
X0002754154Y0002353261D02*
X0002694301Y0002413115D01*
X0002713788Y0002432602D01*
X0002773642Y0002372749D01*
X0002754154Y0002353261D01*
X0002754154Y0002353261D01*
G37*
G36*
X0002768074Y0002367181D02*
X0002708220Y0002427034D01*
X0002727707Y0002446522D01*
X0002787561Y0002386668D01*
X0002768074Y0002367181D01*
X0002768074Y0002367181D01*
G37*
G36*
X0002781993Y0002381100D02*
X0002722140Y0002440954D01*
X0002741627Y0002460441D01*
X0002801480Y0002400587D01*
X0002781993Y0002381100D01*
X0002781993Y0002381100D01*
G37*
G36*
X0002731883Y0002136118D02*
X0002672030Y0002076265D01*
X0002652543Y0002095752D01*
X0002712396Y0002155606D01*
X0002731883Y0002136118D01*
X0002731883Y0002136118D01*
G37*
G36*
X0002717964Y0002150038D02*
X0002658110Y0002090184D01*
X0002638623Y0002109671D01*
X0002698477Y0002169525D01*
X0002717964Y0002150038D01*
X0002717964Y0002150038D01*
G37*
G36*
X0002704044Y0002163957D02*
X0002644191Y0002104104D01*
X0002624704Y0002123591D01*
X0002684557Y0002183444D01*
X0002704044Y0002163957D01*
X0002704044Y0002163957D01*
G37*
G36*
X0002690125Y0002177877D02*
X0002630272Y0002118023D01*
X0002610784Y0002137510D01*
X0002670638Y0002197364D01*
X0002690125Y0002177877D01*
X0002690125Y0002177877D01*
G37*
G36*
X0002676206Y0002191796D02*
X0002616352Y0002131943D01*
X0002596865Y0002151430D01*
X0002656718Y0002211283D01*
X0002676206Y0002191796D01*
X0002676206Y0002191796D01*
G37*
G36*
X0002662286Y0002205715D02*
X0002602433Y0002145862D01*
X0002582945Y0002165349D01*
X0002642799Y0002225203D01*
X0002662286Y0002205715D01*
X0002662286Y0002205715D01*
G37*
G36*
X0002745803Y0002122199D02*
X0002685949Y0002062345D01*
X0002666462Y0002081833D01*
X0002726315Y0002141686D01*
X0002745803Y0002122199D01*
X0002745803Y0002122199D01*
G37*
G36*
X0002648367Y0002219635D02*
X0002588513Y0002159781D01*
X0002569026Y0002179269D01*
X0002628880Y0002239122D01*
X0002648367Y0002219635D01*
X0002648367Y0002219635D01*
G37*
G36*
X0002759722Y0002108280D02*
X0002699869Y0002048426D01*
X0002680381Y0002067913D01*
X0002740235Y0002127767D01*
X0002759722Y0002108280D01*
X0002759722Y0002108280D01*
G37*
G36*
X0002773642Y0002094360D02*
X0002713788Y0002034507D01*
X0002694301Y0002053994D01*
X0002754154Y0002113847D01*
X0002773642Y0002094360D01*
X0002773642Y0002094360D01*
G37*
G36*
X0002787561Y0002080441D02*
X0002727707Y0002020587D01*
X0002708220Y0002040074D01*
X0002768074Y0002099928D01*
X0002787561Y0002080441D01*
X0002787561Y0002080441D01*
G37*
G36*
X0002801480Y0002066521D02*
X0002741627Y0002006668D01*
X0002722140Y0002026155D01*
X0002781993Y0002086008D01*
X0002801480Y0002066521D01*
X0002801480Y0002066521D01*
G37*
G36*
X0002933715Y0002090184D02*
X0002873861Y0002150038D01*
X0002893349Y0002169525D01*
X0002953202Y0002109671D01*
X0002933715Y0002090184D01*
X0002933715Y0002090184D01*
G37*
G36*
X0002919796Y0002076265D02*
X0002859942Y0002136118D01*
X0002879429Y0002155606D01*
X0002939283Y0002095752D01*
X0002919796Y0002076265D01*
X0002919796Y0002076265D01*
G37*
G36*
X0002905876Y0002062345D02*
X0002846023Y0002122199D01*
X0002865510Y0002141686D01*
X0002925363Y0002081833D01*
X0002905876Y0002062345D01*
X0002905876Y0002062345D01*
G37*
G36*
X0002891957Y0002048426D02*
X0002832103Y0002108280D01*
X0002851590Y0002127767D01*
X0002911444Y0002067913D01*
X0002891957Y0002048426D01*
X0002891957Y0002048426D01*
G37*
G36*
X0002878037Y0002034507D02*
X0002818184Y0002094360D01*
X0002837671Y0002113847D01*
X0002897524Y0002053994D01*
X0002878037Y0002034507D01*
X0002878037Y0002034507D01*
G37*
G36*
X0002864118Y0002020587D02*
X0002804264Y0002080441D01*
X0002823751Y0002099928D01*
X0002883605Y0002040074D01*
X0002864118Y0002020587D01*
X0002864118Y0002020587D01*
G37*
G36*
X0002850198Y0002006668D02*
X0002790345Y0002066521D01*
X0002809832Y0002086008D01*
X0002869686Y0002026155D01*
X0002850198Y0002006668D01*
X0002850198Y0002006668D01*
G37*
G36*
X0002947634Y0002104104D02*
X0002887781Y0002163957D01*
X0002907268Y0002183444D01*
X0002967122Y0002123591D01*
X0002947634Y0002104104D01*
X0002947634Y0002104104D01*
G37*
G36*
X0002961554Y0002118023D02*
X0002901700Y0002177877D01*
X0002921187Y0002197364D01*
X0002981041Y0002137510D01*
X0002961554Y0002118023D01*
X0002961554Y0002118023D01*
G37*
G36*
X0002975473Y0002131943D02*
X0002915620Y0002191796D01*
X0002935107Y0002211283D01*
X0002994960Y0002151430D01*
X0002975473Y0002131943D01*
X0002975473Y0002131943D01*
G37*
G36*
X0002989393Y0002145862D02*
X0002929539Y0002205715D01*
X0002949026Y0002225203D01*
X0003008880Y0002165349D01*
X0002989393Y0002145862D01*
X0002989393Y0002145862D01*
G37*
G36*
X0003003312Y0002159781D02*
X0002943459Y0002219635D01*
X0002962946Y0002239122D01*
X0003022799Y0002179269D01*
X0003003312Y0002159781D01*
X0003003312Y0002159781D01*
G37*
G36*
X0002939283Y0002371357D02*
X0002879429Y0002311503D01*
X0002859942Y0002330990D01*
X0002919796Y0002390844D01*
X0002939283Y0002371357D01*
X0002939283Y0002371357D01*
G37*
G36*
X0002953202Y0002357437D02*
X0002893349Y0002297584D01*
X0002873861Y0002317071D01*
X0002933715Y0002376924D01*
X0002953202Y0002357437D01*
X0002953202Y0002357437D01*
G37*
G36*
X0002925363Y0002385276D02*
X0002865510Y0002325423D01*
X0002846023Y0002344910D01*
X0002905876Y0002404763D01*
X0002925363Y0002385276D01*
X0002925363Y0002385276D01*
G37*
G36*
X0002911444Y0002399195D02*
X0002851590Y0002339342D01*
X0002832103Y0002358829D01*
X0002891957Y0002418683D01*
X0002911444Y0002399195D01*
X0002911444Y0002399195D01*
G37*
G36*
X0002897524Y0002413115D02*
X0002837671Y0002353261D01*
X0002818184Y0002372749D01*
X0002878037Y0002432602D01*
X0002897524Y0002413115D01*
X0002897524Y0002413115D01*
G37*
G36*
X0002883605Y0002427034D02*
X0002823751Y0002367181D01*
X0002804264Y0002386668D01*
X0002864118Y0002446522D01*
X0002883605Y0002427034D01*
X0002883605Y0002427034D01*
G37*
G36*
X0002869686Y0002440954D02*
X0002809832Y0002381100D01*
X0002790345Y0002400587D01*
X0002850198Y0002460441D01*
X0002869686Y0002440954D01*
X0002869686Y0002440954D01*
G37*
G36*
X0002967122Y0002343518D02*
X0002907268Y0002283664D01*
X0002887781Y0002303151D01*
X0002947634Y0002363005D01*
X0002967122Y0002343518D01*
X0002967122Y0002343518D01*
G37*
G36*
X0002981041Y0002329598D02*
X0002921187Y0002269745D01*
X0002901700Y0002289232D01*
X0002961554Y0002349086D01*
X0002981041Y0002329598D01*
X0002981041Y0002329598D01*
G37*
G36*
X0002994960Y0002315679D02*
X0002935107Y0002255825D01*
X0002915620Y0002275313D01*
X0002975473Y0002335166D01*
X0002994960Y0002315679D01*
X0002994960Y0002315679D01*
G37*
G36*
X0003008880Y0002301760D02*
X0002949026Y0002241906D01*
X0002929539Y0002261393D01*
X0002989393Y0002321247D01*
X0003008880Y0002301760D01*
X0003008880Y0002301760D01*
G37*
G36*
X0003022799Y0002287840D02*
X0002962946Y0002227987D01*
X0002943459Y0002247474D01*
X0003003312Y0002307327D01*
X0003022799Y0002287840D01*
X0003022799Y0002287840D01*
G37*
G36*
X0002709612Y0002152822D02*
X0002628880Y0002233554D01*
X0002709612Y0002314287D01*
X0002790345Y0002233554D01*
X0002709612Y0002152822D01*
X0002709612Y0002152822D01*
G37*
G36*
X0002882213Y0002152822D02*
X0002801480Y0002233554D01*
X0002882213Y0002314287D01*
X0002962946Y0002233554D01*
X0002882213Y0002152822D01*
X0002882213Y0002152822D01*
G37*
G36*
X0002795913Y0002239122D02*
X0002715180Y0002319855D01*
X0002795913Y0002400587D01*
X0002876645Y0002319855D01*
X0002795913Y0002239122D01*
X0002795913Y0002239122D01*
G37*
G36*
X0002795913Y0002066521D02*
X0002715180Y0002147254D01*
X0002795913Y0002227987D01*
X0002876645Y0002147254D01*
X0002795913Y0002066521D01*
X0002795913Y0002066521D01*
G37*
D73*
X0002133858Y0002415354D03*
X0002133858Y0002118110D03*
D74*
X0002230314Y0002390748D03*
X0002230314Y0002142716D03*
D75*
X0002218503Y0002345472D03*
X0002218503Y0002187992D03*
D76*
X0002255905Y0002317913D03*
X0002255905Y0002292322D03*
X0002255905Y0002266732D03*
X0002255905Y0002241141D03*
X0002255905Y0002215551D03*
D77*
X0002133858Y0002219488D03*
X0002133858Y0002313976D03*
G04 next file*
G04 Gerber Fmt 4.6, Leading zero omitted, Abs format (unit mm)*
G04 Created by KiCad (PCBNEW 4.0.7) date 11/30/17 23:31:52*
G01G01*
G04 APERTURE LIST*
G04 APERTURE END LIST*
D78*
G36*
X0002252877Y0001720367D02*
X0002250333Y0001712775D01*
X0002251502Y0001706476D01*
X0002255421Y0001702050D01*
X0002261127Y0001700077D01*
X0002267660Y0001701139D01*
X0002274057Y0001705815D01*
X0002276616Y0001713731D01*
X0002275238Y0001720071D01*
X0002271050Y0001724371D01*
X0002265176Y0001726164D01*
X0002258743Y0001724984D01*
X0002252877Y0001720367D01*
X0002252877Y0001720367D01*
G37*
G36*
X0002271621Y0001755584D02*
X0002263656Y0001763732D01*
X0002272048Y0001766449D01*
X0002280442Y0001768129D01*
X0002288782Y0001768821D01*
X0002297016Y0001768576D01*
X0002305089Y0001767444D01*
X0002312947Y0001765474D01*
X0002320536Y0001762717D01*
X0002327801Y0001759222D01*
X0002334690Y0001755041D01*
X0002341147Y0001750222D01*
X0002347120Y0001744816D01*
X0002352553Y0001738873D01*
X0002357393Y0001732443D01*
X0002361585Y0001725575D01*
X0002365077Y0001718321D01*
X0002367812Y0001710730D01*
X0002369739Y0001702853D01*
X0002370802Y0001694738D01*
X0002370947Y0001686436D01*
X0002370122Y0001677998D01*
X0002368270Y0001669473D01*
X0002365339Y0001660912D01*
X0002361274Y0001652363D01*
X0002356022Y0001643878D01*
X0002350344Y0001636558D01*
X0002344178Y0001630160D01*
X0002337587Y0001624665D01*
X0002330633Y0001620053D01*
X0002323379Y0001616306D01*
X0002315888Y0001613403D01*
X0002308223Y0001611325D01*
X0002300447Y0001610054D01*
X0002292622Y0001609570D01*
X0002284811Y0001609854D01*
X0002277076Y0001610886D01*
X0002269482Y0001612646D01*
X0002262089Y0001615117D01*
X0002254961Y0001618278D01*
X0002248162Y0001622111D01*
X0002241753Y0001626595D01*
X0002235797Y0001631712D01*
X0002230357Y0001637442D01*
X0002225496Y0001643766D01*
X0002221277Y0001650664D01*
X0002217762Y0001658118D01*
X0002215014Y0001666109D01*
X0002213096Y0001674616D01*
X0002212070Y0001683620D01*
X0002212000Y0001693103D01*
X0002212948Y0001703044D01*
X0002222216Y0001695967D01*
X0002221836Y0001687576D01*
X0002222496Y0001679418D01*
X0002224127Y0001671550D01*
X0002226661Y0001664025D01*
X0002230028Y0001656898D01*
X0002234159Y0001650225D01*
X0002238986Y0001644060D01*
X0002244440Y0001638458D01*
X0002250451Y0001633474D01*
X0002256951Y0001629164D01*
X0002263872Y0001625581D01*
X0002271143Y0001622781D01*
X0002278696Y0001620819D01*
X0002286463Y0001619749D01*
X0002294373Y0001619627D01*
X0002302360Y0001620507D01*
X0002310352Y0001622445D01*
X0002318282Y0001625495D01*
X0002326081Y0001629712D01*
X0002333679Y0001635151D01*
X0002341009Y0001641868D01*
X0002348000Y0001649916D01*
X0002352820Y0001658217D01*
X0002356397Y0001666641D01*
X0002358785Y0001675115D01*
X0002360042Y0001683565D01*
X0002360222Y0001691918D01*
X0002359380Y0001700101D01*
X0002357574Y0001708039D01*
X0002354858Y0001715660D01*
X0002351289Y0001722889D01*
X0002346922Y0001729654D01*
X0002341812Y0001735881D01*
X0002336016Y0001741496D01*
X0002329589Y0001746426D01*
X0002322587Y0001750598D01*
X0002315066Y0001753937D01*
X0002307081Y0001756371D01*
X0002298689Y0001757827D01*
X0002289944Y0001758229D01*
X0002280903Y0001757506D01*
X0002271621Y0001755584D01*
X0002271621Y0001755584D01*
G37*
G36*
X0002191701Y0001766856D02*
X0002167930Y0001787728D01*
X0002194600Y0001770335D01*
X0002191701Y0001766856D01*
X0002191701Y0001766856D01*
X0002191701Y0001766856D01*
G37*
G36*
X0003149606Y0001662598D02*
X0003149606Y0001749212D01*
X0003283464Y0001749212D01*
X0003283464Y0001662598D01*
X0003149606Y0001662598D01*
X0003149606Y0001662598D01*
G37*
G36*
X0003149606Y0001562598D02*
X0003149606Y0001649212D01*
X0003283464Y0001649212D01*
X0003283464Y0001562598D01*
X0003149606Y0001562598D01*
X0003149606Y0001562598D01*
G37*
G36*
X0003149606Y0001462598D02*
X0003149606Y0001549212D01*
X0003283464Y0001549212D01*
X0003283464Y0001462598D01*
X0003149606Y0001462598D01*
X0003149606Y0001462598D01*
G37*
G36*
X0003149606Y0001362598D02*
X0003149606Y0001449212D01*
X0003283464Y0001449212D01*
X0003283464Y0001362598D01*
X0003149606Y0001362598D01*
X0003149606Y0001362598D01*
G37*
G36*
X0003149606Y0001262598D02*
X0003149606Y0001349212D01*
X0003283464Y0001349212D01*
X0003283464Y0001262598D01*
X0003149606Y0001262598D01*
X0003149606Y0001262598D01*
G37*
G36*
X0003149606Y0001162598D02*
X0003149606Y0001249212D01*
X0003283464Y0001249212D01*
X0003283464Y0001162598D01*
X0003149606Y0001162598D01*
X0003149606Y0001162598D01*
G37*
G36*
X0003149606Y0001062598D02*
X0003149606Y0001149212D01*
X0003283464Y0001149212D01*
X0003283464Y0001062598D01*
X0003149606Y0001062598D01*
X0003149606Y0001062598D01*
G37*
G36*
X0003149606Y0000962598D02*
X0003149606Y0001049212D01*
X0003283464Y0001049212D01*
X0003283464Y0000962598D01*
X0003149606Y0000962598D01*
X0003149606Y0000962598D01*
G37*
D79*
X0003025015Y0001691826D03*
D80*
X0002925015Y0001691826D03*
X0002825015Y0001691826D03*
X0002725015Y0001691826D03*
X0002625015Y0001691826D03*
X0002525015Y0001691826D03*
D81*
X0002433015Y0001229826D03*
X0002433015Y0001421952D03*
D82*
X0002397322Y0001026826D03*
X0002310708Y0001026826D03*
X0003058303Y0001023379D03*
X0003058303Y0001109994D03*
X0002973370Y0001022559D03*
X0002973370Y0001109173D03*
D78*
G36*
X0002628880Y0001322475D02*
X0002569026Y0001382328D01*
X0002588513Y0001401815D01*
X0002648367Y0001341962D01*
X0002628880Y0001322475D01*
X0002628880Y0001322475D01*
G37*
G36*
X0002642799Y0001336394D02*
X0002582945Y0001396248D01*
X0002602433Y0001415735D01*
X0002662286Y0001355881D01*
X0002642799Y0001336394D01*
X0002642799Y0001336394D01*
G37*
G36*
X0002656718Y0001350314D02*
X0002596865Y0001410167D01*
X0002616352Y0001429654D01*
X0002676206Y0001369801D01*
X0002656718Y0001350314D01*
X0002656718Y0001350314D01*
G37*
G36*
X0002670638Y0001364233D02*
X0002610784Y0001424087D01*
X0002630272Y0001443574D01*
X0002690125Y0001383720D01*
X0002670638Y0001364233D01*
X0002670638Y0001364233D01*
G37*
G36*
X0002684557Y0001378152D02*
X0002624704Y0001438006D01*
X0002644191Y0001457493D01*
X0002704044Y0001397640D01*
X0002684557Y0001378152D01*
X0002684557Y0001378152D01*
G37*
G36*
X0002658110Y0001471413D02*
X0002717964Y0001411559D01*
X0002698477Y0001392072D01*
X0002638623Y0001451925D01*
X0002658110Y0001471413D01*
X0002658110Y0001471413D01*
G37*
G36*
X0002712396Y0001405991D02*
X0002652543Y0001465845D01*
X0002672030Y0001485332D01*
X0002731883Y0001425479D01*
X0002712396Y0001405991D01*
X0002712396Y0001405991D01*
G37*
G36*
X0002726315Y0001419911D02*
X0002666462Y0001479764D01*
X0002685949Y0001499251D01*
X0002745803Y0001439398D01*
X0002726315Y0001419911D01*
X0002726315Y0001419911D01*
G37*
G36*
X0002740235Y0001433830D02*
X0002680381Y0001493684D01*
X0002699869Y0001513171D01*
X0002759722Y0001453317D01*
X0002740235Y0001433830D01*
X0002740235Y0001433830D01*
G37*
G36*
X0002754154Y0001447750D02*
X0002694301Y0001507603D01*
X0002713788Y0001527090D01*
X0002773642Y0001467237D01*
X0002754154Y0001447750D01*
X0002754154Y0001447750D01*
G37*
G36*
X0002768074Y0001461669D02*
X0002708220Y0001521523D01*
X0002727707Y0001541010D01*
X0002787561Y0001481156D01*
X0002768074Y0001461669D01*
X0002768074Y0001461669D01*
G37*
G36*
X0002781993Y0001475588D02*
X0002722140Y0001535442D01*
X0002741627Y0001554929D01*
X0002801480Y0001495076D01*
X0002781993Y0001475588D01*
X0002781993Y0001475588D01*
G37*
G36*
X0002731883Y0001230607D02*
X0002672030Y0001170753D01*
X0002652543Y0001190240D01*
X0002712396Y0001250094D01*
X0002731883Y0001230607D01*
X0002731883Y0001230607D01*
G37*
G36*
X0002717964Y0001244526D02*
X0002658110Y0001184672D01*
X0002638623Y0001204160D01*
X0002698477Y0001264013D01*
X0002717964Y0001244526D01*
X0002717964Y0001244526D01*
G37*
G36*
X0002704044Y0001258445D02*
X0002644191Y0001198592D01*
X0002624704Y0001218079D01*
X0002684557Y0001277933D01*
X0002704044Y0001258445D01*
X0002704044Y0001258445D01*
G37*
G36*
X0002690125Y0001272365D02*
X0002630272Y0001212511D01*
X0002610784Y0001231999D01*
X0002670638Y0001291852D01*
X0002690125Y0001272365D01*
X0002690125Y0001272365D01*
G37*
G36*
X0002676206Y0001286284D02*
X0002616352Y0001226431D01*
X0002596865Y0001245918D01*
X0002656718Y0001305771D01*
X0002676206Y0001286284D01*
X0002676206Y0001286284D01*
G37*
G36*
X0002662286Y0001300204D02*
X0002602433Y0001240350D01*
X0002582945Y0001259837D01*
X0002642799Y0001319691D01*
X0002662286Y0001300204D01*
X0002662286Y0001300204D01*
G37*
G36*
X0002745803Y0001216687D02*
X0002685949Y0001156834D01*
X0002666462Y0001176321D01*
X0002726315Y0001236174D01*
X0002745803Y0001216687D01*
X0002745803Y0001216687D01*
G37*
G36*
X0002648367Y0001314123D02*
X0002588513Y0001254270D01*
X0002569026Y0001273757D01*
X0002628880Y0001333610D01*
X0002648367Y0001314123D01*
X0002648367Y0001314123D01*
G37*
G36*
X0002759722Y0001202768D02*
X0002699869Y0001142914D01*
X0002680381Y0001162401D01*
X0002740235Y0001222255D01*
X0002759722Y0001202768D01*
X0002759722Y0001202768D01*
G37*
G36*
X0002773642Y0001188848D02*
X0002713788Y0001128995D01*
X0002694301Y0001148482D01*
X0002754154Y0001208335D01*
X0002773642Y0001188848D01*
X0002773642Y0001188848D01*
G37*
G36*
X0002787561Y0001174929D02*
X0002727707Y0001115075D01*
X0002708220Y0001134563D01*
X0002768074Y0001194416D01*
X0002787561Y0001174929D01*
X0002787561Y0001174929D01*
G37*
G36*
X0002801480Y0001161009D02*
X0002741627Y0001101156D01*
X0002722140Y0001120643D01*
X0002781993Y0001180497D01*
X0002801480Y0001161009D01*
X0002801480Y0001161009D01*
G37*
G36*
X0002933715Y0001184672D02*
X0002873861Y0001244526D01*
X0002893349Y0001264013D01*
X0002953202Y0001204160D01*
X0002933715Y0001184672D01*
X0002933715Y0001184672D01*
G37*
G36*
X0002919796Y0001170753D02*
X0002859942Y0001230607D01*
X0002879429Y0001250094D01*
X0002939283Y0001190240D01*
X0002919796Y0001170753D01*
X0002919796Y0001170753D01*
G37*
G36*
X0002905876Y0001156834D02*
X0002846023Y0001216687D01*
X0002865510Y0001236174D01*
X0002925363Y0001176321D01*
X0002905876Y0001156834D01*
X0002905876Y0001156834D01*
G37*
G36*
X0002891957Y0001142914D02*
X0002832103Y0001202768D01*
X0002851590Y0001222255D01*
X0002911444Y0001162401D01*
X0002891957Y0001142914D01*
X0002891957Y0001142914D01*
G37*
G36*
X0002878037Y0001128995D02*
X0002818184Y0001188848D01*
X0002837671Y0001208335D01*
X0002897524Y0001148482D01*
X0002878037Y0001128995D01*
X0002878037Y0001128995D01*
G37*
G36*
X0002864118Y0001115075D02*
X0002804264Y0001174929D01*
X0002823751Y0001194416D01*
X0002883605Y0001134563D01*
X0002864118Y0001115075D01*
X0002864118Y0001115075D01*
G37*
G36*
X0002850198Y0001101156D02*
X0002790345Y0001161009D01*
X0002809832Y0001180497D01*
X0002869686Y0001120643D01*
X0002850198Y0001101156D01*
X0002850198Y0001101156D01*
G37*
G36*
X0002947634Y0001198592D02*
X0002887781Y0001258445D01*
X0002907268Y0001277933D01*
X0002967122Y0001218079D01*
X0002947634Y0001198592D01*
X0002947634Y0001198592D01*
G37*
G36*
X0002961554Y0001212511D02*
X0002901700Y0001272365D01*
X0002921187Y0001291852D01*
X0002981041Y0001231999D01*
X0002961554Y0001212511D01*
X0002961554Y0001212511D01*
G37*
G36*
X0002975473Y0001226431D02*
X0002915620Y0001286284D01*
X0002935107Y0001305771D01*
X0002994960Y0001245918D01*
X0002975473Y0001226431D01*
X0002975473Y0001226431D01*
G37*
G36*
X0002989393Y0001240350D02*
X0002929539Y0001300204D01*
X0002949026Y0001319691D01*
X0003008880Y0001259837D01*
X0002989393Y0001240350D01*
X0002989393Y0001240350D01*
G37*
G36*
X0003003312Y0001254270D02*
X0002943459Y0001314123D01*
X0002962946Y0001333610D01*
X0003022799Y0001273757D01*
X0003003312Y0001254270D01*
X0003003312Y0001254270D01*
G37*
G36*
X0002939283Y0001465845D02*
X0002879429Y0001405991D01*
X0002859942Y0001425479D01*
X0002919796Y0001485332D01*
X0002939283Y0001465845D01*
X0002939283Y0001465845D01*
G37*
G36*
X0002953202Y0001451925D02*
X0002893349Y0001392072D01*
X0002873861Y0001411559D01*
X0002933715Y0001471413D01*
X0002953202Y0001451925D01*
X0002953202Y0001451925D01*
G37*
G36*
X0002925363Y0001479764D02*
X0002865510Y0001419911D01*
X0002846023Y0001439398D01*
X0002905876Y0001499251D01*
X0002925363Y0001479764D01*
X0002925363Y0001479764D01*
G37*
G36*
X0002911444Y0001493684D02*
X0002851590Y0001433830D01*
X0002832103Y0001453317D01*
X0002891957Y0001513171D01*
X0002911444Y0001493684D01*
X0002911444Y0001493684D01*
G37*
G36*
X0002897524Y0001507603D02*
X0002837671Y0001447750D01*
X0002818184Y0001467237D01*
X0002878037Y0001527090D01*
X0002897524Y0001507603D01*
X0002897524Y0001507603D01*
G37*
G36*
X0002883605Y0001521523D02*
X0002823751Y0001461669D01*
X0002804264Y0001481156D01*
X0002864118Y0001541010D01*
X0002883605Y0001521523D01*
X0002883605Y0001521523D01*
G37*
G36*
X0002869686Y0001535442D02*
X0002809832Y0001475588D01*
X0002790345Y0001495076D01*
X0002850198Y0001554929D01*
X0002869686Y0001535442D01*
X0002869686Y0001535442D01*
G37*
G36*
X0002967122Y0001438006D02*
X0002907268Y0001378152D01*
X0002887781Y0001397640D01*
X0002947634Y0001457493D01*
X0002967122Y0001438006D01*
X0002967122Y0001438006D01*
G37*
G36*
X0002981041Y0001424087D02*
X0002921187Y0001364233D01*
X0002901700Y0001383720D01*
X0002961554Y0001443574D01*
X0002981041Y0001424087D01*
X0002981041Y0001424087D01*
G37*
G36*
X0002994960Y0001410167D02*
X0002935107Y0001350314D01*
X0002915620Y0001369801D01*
X0002975473Y0001429654D01*
X0002994960Y0001410167D01*
X0002994960Y0001410167D01*
G37*
G36*
X0003008880Y0001396248D02*
X0002949026Y0001336394D01*
X0002929539Y0001355881D01*
X0002989393Y0001415735D01*
X0003008880Y0001396248D01*
X0003008880Y0001396248D01*
G37*
G36*
X0003022799Y0001382328D02*
X0002962946Y0001322475D01*
X0002943459Y0001341962D01*
X0003003312Y0001401815D01*
X0003022799Y0001382328D01*
X0003022799Y0001382328D01*
G37*
G36*
X0002709612Y0001247310D02*
X0002628880Y0001328043D01*
X0002709612Y0001408775D01*
X0002790345Y0001328043D01*
X0002709612Y0001247310D01*
X0002709612Y0001247310D01*
G37*
G36*
X0002882213Y0001247310D02*
X0002801480Y0001328043D01*
X0002882213Y0001408775D01*
X0002962946Y0001328043D01*
X0002882213Y0001247310D01*
X0002882213Y0001247310D01*
G37*
G36*
X0002795913Y0001333610D02*
X0002715180Y0001414343D01*
X0002795913Y0001495076D01*
X0002876645Y0001414343D01*
X0002795913Y0001333610D01*
X0002795913Y0001333610D01*
G37*
G36*
X0002795913Y0001161009D02*
X0002715180Y0001241742D01*
X0002795913Y0001322475D01*
X0002876645Y0001241742D01*
X0002795913Y0001161009D01*
X0002795913Y0001161009D01*
G37*
D83*
X0002133858Y0001509842D03*
X0002133858Y0001212598D03*
D84*
X0002230314Y0001485236D03*
X0002230314Y0001237204D03*
D85*
X0002218503Y0001439960D03*
X0002218503Y0001282480D03*
D86*
X0002255905Y0001412401D03*
X0002255905Y0001386811D03*
X0002255905Y0001361220D03*
X0002255905Y0001335629D03*
X0002255905Y0001310039D03*
D87*
X0002133858Y0001313976D03*
X0002133858Y0001408464D03*
G04 next file*
G04 Gerber Fmt 4.6, Leading zero omitted, Abs format (unit mm)*
G04 Created by KiCad (PCBNEW 4.0.7) date 11/30/17 23:31:52*
G01G01*
G04 APERTURE LIST*
G04 APERTURE END LIST*
D88*
G36*
X0002252877Y0000814855D02*
X0002250333Y0000807264D01*
X0002251502Y0000800964D01*
X0002255421Y0000796538D01*
X0002261127Y0000794566D01*
X0002267660Y0000795627D01*
X0002274057Y0000800303D01*
X0002276616Y0000808219D01*
X0002275238Y0000814560D01*
X0002271050Y0000818859D01*
X0002265176Y0000820652D01*
X0002258743Y0000819472D01*
X0002252877Y0000814855D01*
X0002252877Y0000814855D01*
G37*
G36*
X0002271621Y0000850072D02*
X0002263656Y0000858220D01*
X0002272048Y0000860938D01*
X0002280442Y0000862617D01*
X0002288782Y0000863310D01*
X0002297016Y0000863064D01*
X0002305089Y0000861932D01*
X0002312947Y0000859962D01*
X0002320536Y0000857205D01*
X0002327801Y0000853710D01*
X0002334690Y0000849529D01*
X0002341147Y0000844710D01*
X0002347120Y0000839304D01*
X0002352553Y0000833361D01*
X0002357393Y0000826931D01*
X0002361585Y0000820064D01*
X0002365077Y0000812810D01*
X0002367812Y0000805219D01*
X0002369739Y0000797341D01*
X0002370802Y0000789226D01*
X0002370947Y0000780925D01*
X0002370122Y0000772486D01*
X0002368270Y0000763961D01*
X0002365339Y0000755400D01*
X0002361274Y0000746851D01*
X0002356022Y0000738367D01*
X0002350344Y0000731047D01*
X0002344178Y0000724649D01*
X0002337587Y0000719153D01*
X0002330633Y0000714541D01*
X0002323379Y0000710794D01*
X0002315888Y0000707891D01*
X0002308223Y0000705814D01*
X0002300447Y0000704542D01*
X0002292622Y0000704058D01*
X0002284811Y0000704342D01*
X0002277076Y0000705374D01*
X0002269482Y0000707135D01*
X0002262089Y0000709605D01*
X0002254961Y0000712767D01*
X0002248162Y0000716599D01*
X0002241753Y0000721083D01*
X0002235797Y0000726200D01*
X0002230357Y0000731930D01*
X0002225496Y0000738254D01*
X0002221277Y0000745153D01*
X0002217762Y0000752607D01*
X0002215014Y0000760597D01*
X0002213096Y0000769104D01*
X0002212070Y0000778108D01*
X0002212000Y0000787591D01*
X0002212948Y0000797532D01*
X0002222216Y0000790455D01*
X0002221836Y0000782064D01*
X0002222496Y0000773907D01*
X0002224127Y0000766038D01*
X0002226661Y0000758513D01*
X0002230028Y0000751386D01*
X0002234159Y0000744713D01*
X0002238986Y0000738548D01*
X0002244440Y0000732946D01*
X0002250451Y0000727963D01*
X0002256951Y0000723652D01*
X0002263872Y0000720069D01*
X0002271143Y0000717269D01*
X0002278696Y0000715307D01*
X0002286463Y0000714237D01*
X0002294373Y0000714115D01*
X0002302360Y0000714996D01*
X0002310352Y0000716933D01*
X0002318282Y0000719983D01*
X0002326081Y0000724200D01*
X0002333679Y0000729640D01*
X0002341009Y0000736356D01*
X0002348000Y0000744404D01*
X0002352820Y0000752705D01*
X0002356397Y0000761129D01*
X0002358785Y0000769603D01*
X0002360042Y0000778054D01*
X0002360222Y0000786407D01*
X0002359380Y0000794589D01*
X0002357574Y0000802527D01*
X0002354858Y0000810148D01*
X0002351289Y0000817377D01*
X0002346922Y0000824142D01*
X0002341812Y0000830369D01*
X0002336016Y0000835984D01*
X0002329589Y0000840914D01*
X0002322587Y0000845086D01*
X0002315066Y0000848425D01*
X0002307081Y0000850860D01*
X0002298689Y0000852315D01*
X0002289944Y0000852717D01*
X0002280903Y0000851994D01*
X0002271621Y0000850072D01*
X0002271621Y0000850072D01*
G37*
G36*
X0002191701Y0000861344D02*
X0002167930Y0000882216D01*
X0002194600Y0000864823D01*
X0002191701Y0000861344D01*
X0002191701Y0000861344D01*
X0002191701Y0000861344D01*
G37*
G36*
X0003149606Y0000757086D02*
X0003149606Y0000843700D01*
X0003283464Y0000843700D01*
X0003283464Y0000757086D01*
X0003149606Y0000757086D01*
X0003149606Y0000757086D01*
G37*
G36*
X0003149606Y0000657086D02*
X0003149606Y0000743700D01*
X0003283464Y0000743700D01*
X0003283464Y0000657086D01*
X0003149606Y0000657086D01*
X0003149606Y0000657086D01*
G37*
G36*
X0003149606Y0000557086D02*
X0003149606Y0000643700D01*
X0003283464Y0000643700D01*
X0003283464Y0000557086D01*
X0003149606Y0000557086D01*
X0003149606Y0000557086D01*
G37*
G36*
X0003149606Y0000457086D02*
X0003149606Y0000543700D01*
X0003283464Y0000543700D01*
X0003283464Y0000457086D01*
X0003149606Y0000457086D01*
X0003149606Y0000457086D01*
G37*
G36*
X0003149606Y0000357086D02*
X0003149606Y0000443700D01*
X0003283464Y0000443700D01*
X0003283464Y0000357086D01*
X0003149606Y0000357086D01*
X0003149606Y0000357086D01*
G37*
G36*
X0003149606Y0000257086D02*
X0003149606Y0000343700D01*
X0003283464Y0000343700D01*
X0003283464Y0000257086D01*
X0003149606Y0000257086D01*
X0003149606Y0000257086D01*
G37*
G36*
X0003149606Y0000157086D02*
X0003149606Y0000243700D01*
X0003283464Y0000243700D01*
X0003283464Y0000157086D01*
X0003149606Y0000157086D01*
X0003149606Y0000157086D01*
G37*
G36*
X0003149606Y0000057086D02*
X0003149606Y0000143700D01*
X0003283464Y0000143700D01*
X0003283464Y0000057086D01*
X0003149606Y0000057086D01*
X0003149606Y0000057086D01*
G37*
D89*
X0003025015Y0000786314D03*
D90*
X0002925015Y0000786314D03*
X0002825015Y0000786314D03*
X0002725015Y0000786314D03*
X0002625015Y0000786314D03*
X0002525015Y0000786314D03*
D91*
X0002433015Y0000324314D03*
X0002433015Y0000516440D03*
D92*
X0002397322Y0000121314D03*
X0002310708Y0000121314D03*
X0003058303Y0000117868D03*
X0003058303Y0000204482D03*
X0002973370Y0000117047D03*
X0002973370Y0000203661D03*
D88*
G36*
X0002628880Y0000416963D02*
X0002569026Y0000476816D01*
X0002588513Y0000496304D01*
X0002648367Y0000436450D01*
X0002628880Y0000416963D01*
X0002628880Y0000416963D01*
G37*
G36*
X0002642799Y0000430882D02*
X0002582945Y0000490736D01*
X0002602433Y0000510223D01*
X0002662286Y0000450370D01*
X0002642799Y0000430882D01*
X0002642799Y0000430882D01*
G37*
G36*
X0002656718Y0000444802D02*
X0002596865Y0000504655D01*
X0002616352Y0000524143D01*
X0002676206Y0000464289D01*
X0002656718Y0000444802D01*
X0002656718Y0000444802D01*
G37*
G36*
X0002670638Y0000458721D02*
X0002610784Y0000518575D01*
X0002630272Y0000538062D01*
X0002690125Y0000478208D01*
X0002670638Y0000458721D01*
X0002670638Y0000458721D01*
G37*
G36*
X0002684557Y0000472641D02*
X0002624704Y0000532494D01*
X0002644191Y0000551981D01*
X0002704044Y0000492128D01*
X0002684557Y0000472641D01*
X0002684557Y0000472641D01*
G37*
G36*
X0002658110Y0000565901D02*
X0002717964Y0000506047D01*
X0002698477Y0000486560D01*
X0002638623Y0000546414D01*
X0002658110Y0000565901D01*
X0002658110Y0000565901D01*
G37*
G36*
X0002712396Y0000500480D02*
X0002652543Y0000560333D01*
X0002672030Y0000579820D01*
X0002731883Y0000519967D01*
X0002712396Y0000500480D01*
X0002712396Y0000500480D01*
G37*
G36*
X0002726315Y0000514399D02*
X0002666462Y0000574252D01*
X0002685949Y0000593740D01*
X0002745803Y0000533886D01*
X0002726315Y0000514399D01*
X0002726315Y0000514399D01*
G37*
G36*
X0002740235Y0000528318D02*
X0002680381Y0000588172D01*
X0002699869Y0000607659D01*
X0002759722Y0000547806D01*
X0002740235Y0000528318D01*
X0002740235Y0000528318D01*
G37*
G36*
X0002754154Y0000542238D02*
X0002694301Y0000602091D01*
X0002713788Y0000621578D01*
X0002773642Y0000561725D01*
X0002754154Y0000542238D01*
X0002754154Y0000542238D01*
G37*
G36*
X0002768074Y0000556157D02*
X0002708220Y0000616011D01*
X0002727707Y0000635498D01*
X0002787561Y0000575644D01*
X0002768074Y0000556157D01*
X0002768074Y0000556157D01*
G37*
G36*
X0002781993Y0000570077D02*
X0002722140Y0000629930D01*
X0002741627Y0000649417D01*
X0002801480Y0000589564D01*
X0002781993Y0000570077D01*
X0002781993Y0000570077D01*
G37*
G36*
X0002731883Y0000325095D02*
X0002672030Y0000265241D01*
X0002652543Y0000284728D01*
X0002712396Y0000344582D01*
X0002731883Y0000325095D01*
X0002731883Y0000325095D01*
G37*
G36*
X0002717964Y0000339014D02*
X0002658110Y0000279161D01*
X0002638623Y0000298648D01*
X0002698477Y0000358501D01*
X0002717964Y0000339014D01*
X0002717964Y0000339014D01*
G37*
G36*
X0002704044Y0000352934D02*
X0002644191Y0000293080D01*
X0002624704Y0000312567D01*
X0002684557Y0000372421D01*
X0002704044Y0000352934D01*
X0002704044Y0000352934D01*
G37*
G36*
X0002690125Y0000366853D02*
X0002630272Y0000307000D01*
X0002610784Y0000326487D01*
X0002670638Y0000386340D01*
X0002690125Y0000366853D01*
X0002690125Y0000366853D01*
G37*
G36*
X0002676206Y0000380772D02*
X0002616352Y0000320919D01*
X0002596865Y0000340406D01*
X0002656718Y0000400260D01*
X0002676206Y0000380772D01*
X0002676206Y0000380772D01*
G37*
G36*
X0002662286Y0000394692D02*
X0002602433Y0000334838D01*
X0002582945Y0000354326D01*
X0002642799Y0000414179D01*
X0002662286Y0000394692D01*
X0002662286Y0000394692D01*
G37*
G36*
X0002745803Y0000311175D02*
X0002685949Y0000251322D01*
X0002666462Y0000270809D01*
X0002726315Y0000330662D01*
X0002745803Y0000311175D01*
X0002745803Y0000311175D01*
G37*
G36*
X0002648367Y0000408611D02*
X0002588513Y0000348758D01*
X0002569026Y0000368245D01*
X0002628880Y0000428098D01*
X0002648367Y0000408611D01*
X0002648367Y0000408611D01*
G37*
G36*
X0002759722Y0000297256D02*
X0002699869Y0000237402D01*
X0002680381Y0000256890D01*
X0002740235Y0000316743D01*
X0002759722Y0000297256D01*
X0002759722Y0000297256D01*
G37*
G36*
X0002773642Y0000283336D02*
X0002713788Y0000223483D01*
X0002694301Y0000242970D01*
X0002754154Y0000302824D01*
X0002773642Y0000283336D01*
X0002773642Y0000283336D01*
G37*
G36*
X0002787561Y0000269417D02*
X0002727707Y0000209563D01*
X0002708220Y0000229051D01*
X0002768074Y0000288904D01*
X0002787561Y0000269417D01*
X0002787561Y0000269417D01*
G37*
G36*
X0002801480Y0000255498D02*
X0002741627Y0000195644D01*
X0002722140Y0000215131D01*
X0002781993Y0000274985D01*
X0002801480Y0000255498D01*
X0002801480Y0000255498D01*
G37*
G36*
X0002933715Y0000279161D02*
X0002873861Y0000339014D01*
X0002893349Y0000358501D01*
X0002953202Y0000298648D01*
X0002933715Y0000279161D01*
X0002933715Y0000279161D01*
G37*
G36*
X0002919796Y0000265241D02*
X0002859942Y0000325095D01*
X0002879429Y0000344582D01*
X0002939283Y0000284728D01*
X0002919796Y0000265241D01*
X0002919796Y0000265241D01*
G37*
G36*
X0002905876Y0000251322D02*
X0002846023Y0000311175D01*
X0002865510Y0000330662D01*
X0002925363Y0000270809D01*
X0002905876Y0000251322D01*
X0002905876Y0000251322D01*
G37*
G36*
X0002891957Y0000237402D02*
X0002832103Y0000297256D01*
X0002851590Y0000316743D01*
X0002911444Y0000256890D01*
X0002891957Y0000237402D01*
X0002891957Y0000237402D01*
G37*
G36*
X0002878037Y0000223483D02*
X0002818184Y0000283336D01*
X0002837671Y0000302824D01*
X0002897524Y0000242970D01*
X0002878037Y0000223483D01*
X0002878037Y0000223483D01*
G37*
G36*
X0002864118Y0000209563D02*
X0002804264Y0000269417D01*
X0002823751Y0000288904D01*
X0002883605Y0000229051D01*
X0002864118Y0000209563D01*
X0002864118Y0000209563D01*
G37*
G36*
X0002850198Y0000195644D02*
X0002790345Y0000255498D01*
X0002809832Y0000274985D01*
X0002869686Y0000215131D01*
X0002850198Y0000195644D01*
X0002850198Y0000195644D01*
G37*
G36*
X0002947634Y0000293080D02*
X0002887781Y0000352934D01*
X0002907268Y0000372421D01*
X0002967122Y0000312567D01*
X0002947634Y0000293080D01*
X0002947634Y0000293080D01*
G37*
G36*
X0002961554Y0000307000D02*
X0002901700Y0000366853D01*
X0002921187Y0000386340D01*
X0002981041Y0000326487D01*
X0002961554Y0000307000D01*
X0002961554Y0000307000D01*
G37*
G36*
X0002975473Y0000320919D02*
X0002915620Y0000380772D01*
X0002935107Y0000400260D01*
X0002994960Y0000340406D01*
X0002975473Y0000320919D01*
X0002975473Y0000320919D01*
G37*
G36*
X0002989393Y0000334838D02*
X0002929539Y0000394692D01*
X0002949026Y0000414179D01*
X0003008880Y0000354326D01*
X0002989393Y0000334838D01*
X0002989393Y0000334838D01*
G37*
G36*
X0003003312Y0000348758D02*
X0002943459Y0000408611D01*
X0002962946Y0000428098D01*
X0003022799Y0000368245D01*
X0003003312Y0000348758D01*
X0003003312Y0000348758D01*
G37*
G36*
X0002939283Y0000560333D02*
X0002879429Y0000500480D01*
X0002859942Y0000519967D01*
X0002919796Y0000579820D01*
X0002939283Y0000560333D01*
X0002939283Y0000560333D01*
G37*
G36*
X0002953202Y0000546414D02*
X0002893349Y0000486560D01*
X0002873861Y0000506047D01*
X0002933715Y0000565901D01*
X0002953202Y0000546414D01*
X0002953202Y0000546414D01*
G37*
G36*
X0002925363Y0000574252D02*
X0002865510Y0000514399D01*
X0002846023Y0000533886D01*
X0002905876Y0000593740D01*
X0002925363Y0000574252D01*
X0002925363Y0000574252D01*
G37*
G36*
X0002911444Y0000588172D02*
X0002851590Y0000528318D01*
X0002832103Y0000547806D01*
X0002891957Y0000607659D01*
X0002911444Y0000588172D01*
X0002911444Y0000588172D01*
G37*
G36*
X0002897524Y0000602091D02*
X0002837671Y0000542238D01*
X0002818184Y0000561725D01*
X0002878037Y0000621578D01*
X0002897524Y0000602091D01*
X0002897524Y0000602091D01*
G37*
G36*
X0002883605Y0000616011D02*
X0002823751Y0000556157D01*
X0002804264Y0000575644D01*
X0002864118Y0000635498D01*
X0002883605Y0000616011D01*
X0002883605Y0000616011D01*
G37*
G36*
X0002869686Y0000629930D02*
X0002809832Y0000570077D01*
X0002790345Y0000589564D01*
X0002850198Y0000649417D01*
X0002869686Y0000629930D01*
X0002869686Y0000629930D01*
G37*
G36*
X0002967122Y0000532494D02*
X0002907268Y0000472641D01*
X0002887781Y0000492128D01*
X0002947634Y0000551981D01*
X0002967122Y0000532494D01*
X0002967122Y0000532494D01*
G37*
G36*
X0002981041Y0000518575D02*
X0002921187Y0000458721D01*
X0002901700Y0000478208D01*
X0002961554Y0000538062D01*
X0002981041Y0000518575D01*
X0002981041Y0000518575D01*
G37*
G36*
X0002994960Y0000504655D02*
X0002935107Y0000444802D01*
X0002915620Y0000464289D01*
X0002975473Y0000524143D01*
X0002994960Y0000504655D01*
X0002994960Y0000504655D01*
G37*
G36*
X0003008880Y0000490736D02*
X0002949026Y0000430882D01*
X0002929539Y0000450370D01*
X0002989393Y0000510223D01*
X0003008880Y0000490736D01*
X0003008880Y0000490736D01*
G37*
G36*
X0003022799Y0000476816D02*
X0002962946Y0000416963D01*
X0002943459Y0000436450D01*
X0003003312Y0000496304D01*
X0003022799Y0000476816D01*
X0003022799Y0000476816D01*
G37*
G36*
X0002709612Y0000341798D02*
X0002628880Y0000422531D01*
X0002709612Y0000503263D01*
X0002790345Y0000422531D01*
X0002709612Y0000341798D01*
X0002709612Y0000341798D01*
G37*
G36*
X0002882213Y0000341798D02*
X0002801480Y0000422531D01*
X0002882213Y0000503263D01*
X0002962946Y0000422531D01*
X0002882213Y0000341798D01*
X0002882213Y0000341798D01*
G37*
G36*
X0002795913Y0000428098D02*
X0002715180Y0000508831D01*
X0002795913Y0000589564D01*
X0002876645Y0000508831D01*
X0002795913Y0000428098D01*
X0002795913Y0000428098D01*
G37*
G36*
X0002795913Y0000255498D02*
X0002715180Y0000336230D01*
X0002795913Y0000416963D01*
X0002876645Y0000336230D01*
X0002795913Y0000255498D01*
X0002795913Y0000255498D01*
G37*
D93*
X0002133858Y0000604330D03*
X0002133858Y0000307086D03*
D94*
X0002230314Y0000579724D03*
X0002230314Y0000331692D03*
D95*
X0002218503Y0000534448D03*
X0002218503Y0000376968D03*
D96*
X0002255905Y0000506889D03*
X0002255905Y0000481299D03*
X0002255905Y0000455708D03*
X0002255905Y0000430118D03*
X0002255905Y0000404527D03*
D97*
X0002133858Y0000408464D03*
X0002133858Y0000502952D03*
G04 next file*
G04 Gerber Fmt 4.6, Leading zero omitted, Abs format (unit mm)*
G04 Created by KiCad (PCBNEW 4.0.7) date 11/30/17 23:31:52*
G01G01*
G04 APERTURE LIST*
G04 APERTURE END LIST*
D98*
G36*
X0002252877Y0003531391D02*
X0002250333Y0003523799D01*
X0002251502Y0003517500D01*
X0002255421Y0003513074D01*
X0002261127Y0003511101D01*
X0002267660Y0003512162D01*
X0002274057Y0003516838D01*
X0002276616Y0003524754D01*
X0002275238Y0003531095D01*
X0002271050Y0003535394D01*
X0002265176Y0003537187D01*
X0002258743Y0003536008D01*
X0002252877Y0003531391D01*
X0002252877Y0003531391D01*
G37*
G36*
X0002271621Y0003566607D02*
X0002263656Y0003574756D01*
X0002272048Y0003577473D01*
X0002280442Y0003579153D01*
X0002288782Y0003579845D01*
X0002297016Y0003579600D01*
X0002305089Y0003578467D01*
X0002312947Y0003576497D01*
X0002320536Y0003573740D01*
X0002327801Y0003570246D01*
X0002334690Y0003566064D01*
X0002341147Y0003561245D01*
X0002347120Y0003555839D01*
X0002352553Y0003549896D01*
X0002357393Y0003543466D01*
X0002361585Y0003536599D01*
X0002365077Y0003529345D01*
X0002367812Y0003521754D01*
X0002369739Y0003513876D01*
X0002370802Y0003505761D01*
X0002370947Y0003497460D01*
X0002370122Y0003489022D01*
X0002368270Y0003480497D01*
X0002365339Y0003471935D01*
X0002361274Y0003463387D01*
X0002356022Y0003454902D01*
X0002350344Y0003447582D01*
X0002344178Y0003441184D01*
X0002337587Y0003435689D01*
X0002330633Y0003431077D01*
X0002323379Y0003427329D01*
X0002315888Y0003424426D01*
X0002308223Y0003422349D01*
X0002300447Y0003421078D01*
X0002292622Y0003420594D01*
X0002284811Y0003420877D01*
X0002277076Y0003421909D01*
X0002269482Y0003423670D01*
X0002262089Y0003426141D01*
X0002254961Y0003429302D01*
X0002248162Y0003433134D01*
X0002241753Y0003437618D01*
X0002235797Y0003442735D01*
X0002230357Y0003448465D01*
X0002225496Y0003454789D01*
X0002221277Y0003461688D01*
X0002217762Y0003469142D01*
X0002215014Y0003477132D01*
X0002213096Y0003485639D01*
X0002212070Y0003494644D01*
X0002212000Y0003504126D01*
X0002212948Y0003514068D01*
X0002222216Y0003506990D01*
X0002221836Y0003498599D01*
X0002222496Y0003490442D01*
X0002224127Y0003482573D01*
X0002226661Y0003475048D01*
X0002230028Y0003467922D01*
X0002234159Y0003461248D01*
X0002238986Y0003455083D01*
X0002244440Y0003449482D01*
X0002250451Y0003444498D01*
X0002256951Y0003440187D01*
X0002263872Y0003436605D01*
X0002271143Y0003433805D01*
X0002278696Y0003431842D01*
X0002286463Y0003430773D01*
X0002294373Y0003430651D01*
X0002302360Y0003431531D01*
X0002310352Y0003433469D01*
X0002318282Y0003436519D01*
X0002326081Y0003440736D01*
X0002333679Y0003446175D01*
X0002341009Y0003452891D01*
X0002348000Y0003460939D01*
X0002352820Y0003469240D01*
X0002356397Y0003477665D01*
X0002358785Y0003486139D01*
X0002360042Y0003494589D01*
X0002360222Y0003502942D01*
X0002359380Y0003511124D01*
X0002357574Y0003519063D01*
X0002354858Y0003526683D01*
X0002351289Y0003533913D01*
X0002346922Y0003540677D01*
X0002341812Y0003546904D01*
X0002336016Y0003552519D01*
X0002329589Y0003557450D01*
X0002322587Y0003561621D01*
X0002315066Y0003564961D01*
X0002307081Y0003567395D01*
X0002298689Y0003568850D01*
X0002289944Y0003569253D01*
X0002280903Y0003568530D01*
X0002271621Y0003566607D01*
X0002271621Y0003566607D01*
G37*
G36*
X0002191701Y0003577880D02*
X0002167930Y0003598752D01*
X0002194600Y0003581358D01*
X0002191701Y0003577879D01*
X0002191701Y0003577880D01*
X0002191701Y0003577880D01*
G37*
G36*
X0003149606Y0003473622D02*
X0003149606Y0003560236D01*
X0003283464Y0003560236D01*
X0003283464Y0003473622D01*
X0003149606Y0003473622D01*
X0003149606Y0003473622D01*
G37*
G36*
X0003149606Y0003373622D02*
X0003149606Y0003460236D01*
X0003283464Y0003460236D01*
X0003283464Y0003373622D01*
X0003149606Y0003373622D01*
X0003149606Y0003373622D01*
G37*
G36*
X0003149606Y0003273622D02*
X0003149606Y0003360236D01*
X0003283464Y0003360236D01*
X0003283464Y0003273622D01*
X0003149606Y0003273622D01*
X0003149606Y0003273622D01*
G37*
G36*
X0003149606Y0003173622D02*
X0003149606Y0003260236D01*
X0003283464Y0003260236D01*
X0003283464Y0003173622D01*
X0003149606Y0003173622D01*
X0003149606Y0003173622D01*
G37*
G36*
X0003149606Y0003073622D02*
X0003149606Y0003160236D01*
X0003283464Y0003160236D01*
X0003283464Y0003073622D01*
X0003149606Y0003073622D01*
X0003149606Y0003073622D01*
G37*
G36*
X0003149606Y0002973622D02*
X0003149606Y0003060236D01*
X0003283464Y0003060236D01*
X0003283464Y0002973622D01*
X0003149606Y0002973622D01*
X0003149606Y0002973622D01*
G37*
G36*
X0003149606Y0002873622D02*
X0003149606Y0002960236D01*
X0003283464Y0002960236D01*
X0003283464Y0002873622D01*
X0003149606Y0002873622D01*
X0003149606Y0002873622D01*
G37*
G36*
X0003149606Y0002773622D02*
X0003149606Y0002860236D01*
X0003283464Y0002860236D01*
X0003283464Y0002773622D01*
X0003149606Y0002773622D01*
X0003149606Y0002773622D01*
G37*
D99*
X0003025015Y0003502850D03*
D100*
X0002925015Y0003502850D03*
X0002825015Y0003502850D03*
X0002725015Y0003502850D03*
X0002625015Y0003502850D03*
X0002525015Y0003502850D03*
D101*
X0002433015Y0003040850D03*
X0002433015Y0003232976D03*
D102*
X0002397322Y0002837850D03*
X0002310708Y0002837850D03*
X0003058303Y0002834403D03*
X0003058303Y0002921017D03*
X0002973370Y0002833582D03*
X0002973370Y0002920196D03*
D98*
G36*
X0002628880Y0003133498D02*
X0002569026Y0003193352D01*
X0002588513Y0003212839D01*
X0002648367Y0003152986D01*
X0002628880Y0003133498D01*
X0002628880Y0003133498D01*
G37*
G36*
X0002642799Y0003147418D02*
X0002582945Y0003207271D01*
X0002602433Y0003226759D01*
X0002662286Y0003166905D01*
X0002642799Y0003147418D01*
X0002642799Y0003147418D01*
G37*
G36*
X0002656718Y0003161337D02*
X0002596865Y0003221191D01*
X0002616352Y0003240678D01*
X0002676206Y0003180824D01*
X0002656718Y0003161337D01*
X0002656718Y0003161337D01*
G37*
G36*
X0002670638Y0003175257D02*
X0002610784Y0003235110D01*
X0002630272Y0003254597D01*
X0002690125Y0003194744D01*
X0002670638Y0003175257D01*
X0002670638Y0003175257D01*
G37*
G36*
X0002684557Y0003189176D02*
X0002624704Y0003249030D01*
X0002644191Y0003268517D01*
X0002704044Y0003208663D01*
X0002684557Y0003189176D01*
X0002684557Y0003189176D01*
G37*
G36*
X0002658110Y0003282436D02*
X0002717964Y0003222583D01*
X0002698477Y0003203096D01*
X0002638623Y0003262949D01*
X0002658110Y0003282436D01*
X0002658110Y0003282436D01*
G37*
G36*
X0002712396Y0003217015D02*
X0002652543Y0003276868D01*
X0002672030Y0003296356D01*
X0002731883Y0003236502D01*
X0002712396Y0003217015D01*
X0002712396Y0003217015D01*
G37*
G36*
X0002726315Y0003230934D02*
X0002666462Y0003290788D01*
X0002685949Y0003310275D01*
X0002745803Y0003250422D01*
X0002726315Y0003230934D01*
X0002726315Y0003230934D01*
G37*
G36*
X0002740235Y0003244854D02*
X0002680381Y0003304707D01*
X0002699869Y0003324195D01*
X0002759722Y0003264341D01*
X0002740235Y0003244854D01*
X0002740235Y0003244854D01*
G37*
G36*
X0002754154Y0003258773D02*
X0002694301Y0003318627D01*
X0002713788Y0003338114D01*
X0002773642Y0003278260D01*
X0002754154Y0003258773D01*
X0002754154Y0003258773D01*
G37*
G36*
X0002768074Y0003272693D02*
X0002708220Y0003332546D01*
X0002727707Y0003352033D01*
X0002787561Y0003292180D01*
X0002768074Y0003272693D01*
X0002768074Y0003272693D01*
G37*
G36*
X0002781993Y0003286612D02*
X0002722140Y0003346466D01*
X0002741627Y0003365953D01*
X0002801480Y0003306099D01*
X0002781993Y0003286612D01*
X0002781993Y0003286612D01*
G37*
G36*
X0002731883Y0003041630D02*
X0002672030Y0002981777D01*
X0002652543Y0003001264D01*
X0002712396Y0003061117D01*
X0002731883Y0003041630D01*
X0002731883Y0003041630D01*
G37*
G36*
X0002717964Y0003055550D02*
X0002658110Y0002995696D01*
X0002638623Y0003015183D01*
X0002698477Y0003075037D01*
X0002717964Y0003055550D01*
X0002717964Y0003055550D01*
G37*
G36*
X0002704044Y0003069469D02*
X0002644191Y0003009616D01*
X0002624704Y0003029103D01*
X0002684557Y0003088956D01*
X0002704044Y0003069469D01*
X0002704044Y0003069469D01*
G37*
G36*
X0002690125Y0003083388D02*
X0002630272Y0003023535D01*
X0002610784Y0003043022D01*
X0002670638Y0003102876D01*
X0002690125Y0003083388D01*
X0002690125Y0003083388D01*
G37*
G36*
X0002676206Y0003097308D02*
X0002616352Y0003037454D01*
X0002596865Y0003056942D01*
X0002656718Y0003116795D01*
X0002676206Y0003097308D01*
X0002676206Y0003097308D01*
G37*
G36*
X0002662286Y0003111227D02*
X0002602433Y0003051374D01*
X0002582945Y0003070861D01*
X0002642799Y0003130715D01*
X0002662286Y0003111227D01*
X0002662286Y0003111227D01*
G37*
G36*
X0002745803Y0003027711D02*
X0002685949Y0002967857D01*
X0002666462Y0002987344D01*
X0002726315Y0003047198D01*
X0002745803Y0003027711D01*
X0002745803Y0003027711D01*
G37*
G36*
X0002648367Y0003125147D02*
X0002588513Y0003065293D01*
X0002569026Y0003084780D01*
X0002628880Y0003144634D01*
X0002648367Y0003125147D01*
X0002648367Y0003125147D01*
G37*
G36*
X0002759722Y0003013791D02*
X0002699869Y0002953938D01*
X0002680381Y0002973425D01*
X0002740235Y0003033279D01*
X0002759722Y0003013791D01*
X0002759722Y0003013791D01*
G37*
G36*
X0002773642Y0002999872D02*
X0002713788Y0002940018D01*
X0002694301Y0002959506D01*
X0002754154Y0003019359D01*
X0002773642Y0002999872D01*
X0002773642Y0002999872D01*
G37*
G36*
X0002787561Y0002985952D02*
X0002727707Y0002926099D01*
X0002708220Y0002945586D01*
X0002768074Y0003005440D01*
X0002787561Y0002985952D01*
X0002787561Y0002985952D01*
G37*
G36*
X0002801480Y0002972033D02*
X0002741627Y0002912180D01*
X0002722140Y0002931667D01*
X0002781993Y0002991520D01*
X0002801480Y0002972033D01*
X0002801480Y0002972033D01*
G37*
G36*
X0002933715Y0002995696D02*
X0002873861Y0003055550D01*
X0002893349Y0003075037D01*
X0002953202Y0003015183D01*
X0002933715Y0002995696D01*
X0002933715Y0002995696D01*
G37*
G36*
X0002919796Y0002981777D02*
X0002859942Y0003041630D01*
X0002879429Y0003061117D01*
X0002939283Y0003001264D01*
X0002919796Y0002981777D01*
X0002919796Y0002981777D01*
G37*
G36*
X0002905876Y0002967857D02*
X0002846023Y0003027711D01*
X0002865510Y0003047198D01*
X0002925363Y0002987344D01*
X0002905876Y0002967857D01*
X0002905876Y0002967857D01*
G37*
G36*
X0002891957Y0002953938D02*
X0002832103Y0003013791D01*
X0002851590Y0003033279D01*
X0002911444Y0002973425D01*
X0002891957Y0002953938D01*
X0002891957Y0002953938D01*
G37*
G36*
X0002878037Y0002940018D02*
X0002818184Y0002999872D01*
X0002837671Y0003019359D01*
X0002897524Y0002959506D01*
X0002878037Y0002940018D01*
X0002878037Y0002940018D01*
G37*
G36*
X0002864118Y0002926099D02*
X0002804264Y0002985952D01*
X0002823751Y0003005440D01*
X0002883605Y0002945586D01*
X0002864118Y0002926099D01*
X0002864118Y0002926099D01*
G37*
G36*
X0002850198Y0002912180D02*
X0002790345Y0002972033D01*
X0002809832Y0002991520D01*
X0002869686Y0002931667D01*
X0002850198Y0002912180D01*
X0002850198Y0002912180D01*
G37*
G36*
X0002947634Y0003009616D02*
X0002887781Y0003069469D01*
X0002907268Y0003088956D01*
X0002967122Y0003029103D01*
X0002947634Y0003009616D01*
X0002947634Y0003009616D01*
G37*
G36*
X0002961554Y0003023535D02*
X0002901700Y0003083388D01*
X0002921187Y0003102876D01*
X0002981041Y0003043022D01*
X0002961554Y0003023535D01*
X0002961554Y0003023535D01*
G37*
G36*
X0002975473Y0003037454D02*
X0002915620Y0003097308D01*
X0002935107Y0003116795D01*
X0002994960Y0003056942D01*
X0002975473Y0003037454D01*
X0002975473Y0003037454D01*
G37*
G36*
X0002989393Y0003051374D02*
X0002929539Y0003111227D01*
X0002949026Y0003130715D01*
X0003008880Y0003070861D01*
X0002989393Y0003051374D01*
X0002989393Y0003051374D01*
G37*
G36*
X0003003312Y0003065293D02*
X0002943459Y0003125147D01*
X0002962946Y0003144634D01*
X0003022799Y0003084780D01*
X0003003312Y0003065293D01*
X0003003312Y0003065293D01*
G37*
G36*
X0002939283Y0003276868D02*
X0002879429Y0003217015D01*
X0002859942Y0003236502D01*
X0002919796Y0003296356D01*
X0002939283Y0003276868D01*
X0002939283Y0003276868D01*
G37*
G36*
X0002953202Y0003262949D02*
X0002893349Y0003203096D01*
X0002873861Y0003222583D01*
X0002933715Y0003282436D01*
X0002953202Y0003262949D01*
X0002953202Y0003262949D01*
G37*
G36*
X0002925363Y0003290788D02*
X0002865510Y0003230934D01*
X0002846023Y0003250422D01*
X0002905876Y0003310275D01*
X0002925363Y0003290788D01*
X0002925363Y0003290788D01*
G37*
G36*
X0002911444Y0003304707D02*
X0002851590Y0003244854D01*
X0002832103Y0003264341D01*
X0002891957Y0003324195D01*
X0002911444Y0003304707D01*
X0002911444Y0003304707D01*
G37*
G36*
X0002897524Y0003318627D02*
X0002837671Y0003258773D01*
X0002818184Y0003278260D01*
X0002878037Y0003338114D01*
X0002897524Y0003318627D01*
X0002897524Y0003318627D01*
G37*
G36*
X0002883605Y0003332546D02*
X0002823751Y0003272693D01*
X0002804264Y0003292180D01*
X0002864118Y0003352033D01*
X0002883605Y0003332546D01*
X0002883605Y0003332546D01*
G37*
G36*
X0002869686Y0003346466D02*
X0002809832Y0003286612D01*
X0002790345Y0003306099D01*
X0002850198Y0003365953D01*
X0002869686Y0003346466D01*
X0002869686Y0003346466D01*
G37*
G36*
X0002967122Y0003249030D02*
X0002907268Y0003189176D01*
X0002887781Y0003208663D01*
X0002947634Y0003268517D01*
X0002967122Y0003249030D01*
X0002967122Y0003249030D01*
G37*
G36*
X0002981041Y0003235110D02*
X0002921187Y0003175257D01*
X0002901700Y0003194744D01*
X0002961554Y0003254597D01*
X0002981041Y0003235110D01*
X0002981041Y0003235110D01*
G37*
G36*
X0002994960Y0003221191D02*
X0002935107Y0003161337D01*
X0002915620Y0003180824D01*
X0002975473Y0003240678D01*
X0002994960Y0003221191D01*
X0002994960Y0003221191D01*
G37*
G36*
X0003008880Y0003207271D02*
X0002949026Y0003147418D01*
X0002929539Y0003166905D01*
X0002989393Y0003226759D01*
X0003008880Y0003207271D01*
X0003008880Y0003207271D01*
G37*
G36*
X0003022799Y0003193352D02*
X0002962946Y0003133498D01*
X0002943459Y0003152986D01*
X0003003312Y0003212839D01*
X0003022799Y0003193352D01*
X0003022799Y0003193352D01*
G37*
G36*
X0002709612Y0003058333D02*
X0002628880Y0003139066D01*
X0002709612Y0003219799D01*
X0002790345Y0003139066D01*
X0002709612Y0003058333D01*
X0002709612Y0003058333D01*
G37*
G36*
X0002882213Y0003058333D02*
X0002801480Y0003139066D01*
X0002882213Y0003219799D01*
X0002962946Y0003139066D01*
X0002882213Y0003058333D01*
X0002882213Y0003058333D01*
G37*
G36*
X0002795913Y0003144634D02*
X0002715180Y0003225367D01*
X0002795913Y0003306099D01*
X0002876645Y0003225367D01*
X0002795913Y0003144634D01*
X0002795913Y0003144634D01*
G37*
G36*
X0002795913Y0002972033D02*
X0002715180Y0003052766D01*
X0002795913Y0003133498D01*
X0002876645Y0003052766D01*
X0002795913Y0002972033D01*
X0002795913Y0002972033D01*
G37*
D103*
X0002133858Y0003320866D03*
X0002133858Y0003023622D03*
D104*
X0002230314Y0003296259D03*
X0002230314Y0003048228D03*
D105*
X0002218503Y0003250984D03*
X0002218503Y0003093503D03*
D106*
X0002255905Y0003223425D03*
X0002255905Y0003197834D03*
X0002255905Y0003172244D03*
X0002255905Y0003146653D03*
X0002255905Y0003121062D03*
D107*
X0002133858Y0003125000D03*
X0002133858Y0003219488D03*
G04 next file*
G04 Gerber Fmt 4.6, Leading zero omitted, Abs format (unit mm)*
G04 Created by KiCad (PCBNEW 4.0.7) date 11/19/17 12:57:03*
G01G01*
G04 APERTURE LIST*
G04 APERTURE END LIST*
D108*
D109*
X0003299212Y0003622047D02*
X0003375984Y0003027165D03*
X0003848425Y0003027165D03*
D110*
X0003512204Y0003117716D03*
X0003552165Y0003217716D03*
X0003592126Y0003117716D03*
X0003632086Y0003217716D03*
X0003672047Y0003117716D03*
X0003712007Y0003217716D03*
D111*
X0003864173Y0003503937D03*
D112*
X0003764173Y0003503937D03*
X0003664173Y0003503937D03*
X0003564173Y0003503937D03*
X0003464173Y0003503937D03*
X0003364173Y0003503937D03*
G04 next file*
G04 Gerber Fmt 4.6, Leading zero omitted, Abs format (unit mm)*
G04 Created by KiCad (PCBNEW 4.0.7) date 11/19/17 12:57:03*
G01G01*
G04 APERTURE LIST*
G04 APERTURE END LIST*
D113*
D114*
X0003299212Y0001811023D02*
X0003375984Y0001216141D03*
X0003848425Y0001216141D03*
D115*
X0003512204Y0001306692D03*
X0003552165Y0001406692D03*
X0003592126Y0001306692D03*
X0003632086Y0001406692D03*
X0003672047Y0001306692D03*
X0003712007Y0001406692D03*
D116*
X0003864173Y0001692913D03*
D117*
X0003764173Y0001692913D03*
X0003664173Y0001692913D03*
X0003564173Y0001692913D03*
X0003464173Y0001692913D03*
X0003364173Y0001692913D03*
G04 next file*
G04 Gerber Fmt 4.6, Leading zero omitted, Abs format (unit mm)*
G04 Created by KiCad (PCBNEW 4.0.7) date 11/19/17 12:57:03*
G01G01*
G04 APERTURE LIST*
G04 APERTURE END LIST*
D118*
D119*
X0003299212Y0000905511D02*
X0003375984Y0000310629D03*
X0003848425Y0000310629D03*
D120*
X0003512204Y0000401181D03*
X0003552165Y0000501181D03*
X0003592126Y0000401181D03*
X0003632086Y0000501181D03*
X0003672047Y0000401181D03*
X0003712007Y0000501181D03*
D121*
X0003864173Y0000787401D03*
D122*
X0003764173Y0000787401D03*
X0003664173Y0000787401D03*
X0003564173Y0000787401D03*
X0003464173Y0000787401D03*
X0003364173Y0000787401D03*
G04 next file*
G04 Gerber Fmt 4.6, Leading zero omitted, Abs format (unit mm)*
G04 Created by KiCad (PCBNEW 4.0.7) date 11/19/17 12:57:03*
G01G01*
G04 APERTURE LIST*
G04 APERTURE END LIST*
D123*
D124*
X0003299212Y0002716535D02*
X0003375984Y0002121653D03*
X0003848425Y0002121653D03*
D125*
X0003512204Y0002212204D03*
X0003552165Y0002312204D03*
X0003592126Y0002212204D03*
X0003632086Y0002312204D03*
X0003672047Y0002212204D03*
X0003712007Y0002312204D03*
D126*
X0003864173Y0002598425D03*
D127*
X0003764173Y0002598425D03*
X0003664173Y0002598425D03*
X0003564173Y0002598425D03*
X0003464173Y0002598425D03*
X0003364173Y0002598425D03*
M02*