%MOIN*%
%OFA0B0*%
%FSLAX46Y46*%
%IPPOS*%
%LPD*%
%ADD10C,0.0039370078740157488*%
%ADD11C,0.074803149606299218*%
%ADD12C,0.033464566929133861*%
%ADD13R,0.082677165354330714X0.082677165354330714*%
%ADD14O,0.082677165354330714X0.082677165354330714*%
%ADD15R,0.035433070866141732X0.051181102362204731*%
%ADD16R,0.047244094488188976X0.0452755905511811*%
%ADD17R,0.0452755905511811X0.047244094488188976*%
%ADD18R,0.051181102362204731X0.035433070866141732*%
%ADD19R,0.05748031496062992X0.041338582677165357*%
%ADD30C,0.0039370078740157488*%
%ADD31C,0.074803149606299218*%
%ADD32C,0.033464566929133861*%
%ADD33R,0.082677165354330714X0.082677165354330714*%
%ADD34O,0.082677165354330714X0.082677165354330714*%
%ADD35R,0.035433070866141732X0.051181102362204731*%
%ADD36R,0.047244094488188976X0.0452755905511811*%
%ADD37R,0.0452755905511811X0.047244094488188976*%
%ADD38R,0.051181102362204731X0.035433070866141732*%
%ADD39R,0.05748031496062992X0.041338582677165357*%
%ADD40C,0.0039370078740157488*%
%ADD41C,0.074803149606299218*%
%ADD42C,0.033464566929133861*%
%ADD43R,0.082677165354330714X0.082677165354330714*%
%ADD44O,0.082677165354330714X0.082677165354330714*%
%ADD45R,0.035433070866141732X0.051181102362204731*%
%ADD46R,0.047244094488188976X0.0452755905511811*%
%ADD47R,0.0452755905511811X0.047244094488188976*%
%ADD48R,0.051181102362204731X0.035433070866141732*%
%ADD49R,0.05748031496062992X0.041338582677165357*%
%ADD50C,0.0039370078740157488*%
%ADD51C,0.074803149606299218*%
%ADD52C,0.033464566929133861*%
%ADD53R,0.082677165354330714X0.082677165354330714*%
%ADD54O,0.082677165354330714X0.082677165354330714*%
%ADD55R,0.035433070866141732X0.051181102362204731*%
%ADD56R,0.047244094488188976X0.0452755905511811*%
%ADD57R,0.0452755905511811X0.047244094488188976*%
%ADD58R,0.051181102362204731X0.035433070866141732*%
%ADD59R,0.05748031496062992X0.041338582677165357*%
%ADD60C,0.0039370078740157488*%
%ADD61C,0.074803149606299218*%
%ADD62R,0.051181102362204731X0.035433070866141732*%
%ADD63R,0.082677165354330714X0.082677165354330714*%
%ADD64O,0.082677165354330714X0.082677165354330714*%
%ADD65R,0.0452755905511811X0.047244094488188976*%
%ADD66R,0.05748031496062992X0.041338582677165357*%
%ADD67R,0.035433070866141732X0.051181102362204731*%
%ADD68R,0.051181102362204731X0.047244094488188976*%
%ADD69R,0.047244094488188976X0.0452755905511811*%
%ADD70C,0.033464566929133861*%
%ADD71C,0.0039370078740157488*%
%ADD72C,0.074803149606299218*%
%ADD73R,0.051181102362204731X0.035433070866141732*%
%ADD74R,0.082677165354330714X0.082677165354330714*%
%ADD75O,0.082677165354330714X0.082677165354330714*%
%ADD76R,0.0452755905511811X0.047244094488188976*%
%ADD77R,0.05748031496062992X0.041338582677165357*%
%ADD78R,0.035433070866141732X0.051181102362204731*%
%ADD79R,0.051181102362204731X0.047244094488188976*%
%ADD80R,0.047244094488188976X0.0452755905511811*%
%ADD81C,0.033464566929133861*%
%ADD82C,0.0039370078740157488*%
%ADD83C,0.074803149606299218*%
%ADD84R,0.051181102362204731X0.035433070866141732*%
%ADD85R,0.082677165354330714X0.082677165354330714*%
%ADD86O,0.082677165354330714X0.082677165354330714*%
%ADD87R,0.0452755905511811X0.047244094488188976*%
%ADD88R,0.05748031496062992X0.041338582677165357*%
%ADD89R,0.035433070866141732X0.051181102362204731*%
%ADD90R,0.051181102362204731X0.047244094488188976*%
%ADD91R,0.047244094488188976X0.0452755905511811*%
%ADD92C,0.033464566929133861*%
%ADD93C,0.0039370078740157488*%
%ADD94C,0.074803149606299218*%
%ADD95R,0.051181102362204731X0.035433070866141732*%
%ADD96R,0.082677165354330714X0.082677165354330714*%
%ADD97O,0.082677165354330714X0.082677165354330714*%
%ADD98R,0.0452755905511811X0.047244094488188976*%
%ADD99R,0.05748031496062992X0.041338582677165357*%
%ADD100R,0.035433070866141732X0.051181102362204731*%
%ADD101R,0.051181102362204731X0.047244094488188976*%
%ADD102R,0.047244094488188976X0.0452755905511811*%
%ADD103C,0.033464566929133861*%
%ADD104C,0.0039370078740157488*%
%ADD105C,0.094488188976377951*%
%ADD106C,0.055118110236220472*%
%ADD107R,0.066929133858267723X0.066929133858267723*%
%ADD108O,0.066929133858267723X0.066929133858267723*%
%ADD109C,0.0039370078740157488*%
%ADD110C,0.094488188976377951*%
%ADD111C,0.055118110236220472*%
%ADD112R,0.066929133858267723X0.066929133858267723*%
%ADD113O,0.066929133858267723X0.066929133858267723*%
%ADD114C,0.0039370078740157488*%
%ADD115C,0.094488188976377951*%
%ADD116C,0.055118110236220472*%
%ADD117R,0.066929133858267723X0.066929133858267723*%
%ADD118O,0.066929133858267723X0.066929133858267723*%
%ADD119C,0.0039370078740157488*%
%ADD120C,0.094488188976377951*%
%ADD121C,0.055118110236220472*%
%ADD122R,0.066929133858267723X0.066929133858267723*%
%ADD123O,0.066929133858267723X0.066929133858267723*%
%ADD124C,0.0039370078740157488*%
%ADD125C,0.074803149606299218*%
%ADD126C,0.0039370078740157488*%
%ADD127C,0.00011110236220472441*%
%ADD128C,0.074803149606299218*%
G01G01*
D10*
D11*
X0000000000Y0000905511D02*
X0001268582Y0000345590D03*
X0001268582Y0000537716D03*
D12*
X0000168188Y0000533582D03*
X0000168188Y0000376102D03*
D13*
X0001880787Y0000650314D03*
D14*
X0001880787Y0000550314D03*
X0001880787Y0000450314D03*
X0001880787Y0000350314D03*
X0001880787Y0000250314D03*
D15*
X0000088267Y0000261338D03*
X0000147322Y0000261338D03*
D16*
X0001236299Y0000422755D03*
X0001295354Y0000422755D03*
D17*
X0001359921Y0000362519D03*
X0001359921Y0000303464D03*
X0001775669Y0000301496D03*
X0001775669Y0000360551D03*
D16*
X0000255196Y0000650708D03*
X0000196141Y0000650708D03*
X0000628425Y0000648346D03*
X0000687480Y0000648346D03*
D18*
X0000665826Y0000364094D03*
X0000665826Y0000305039D03*
D17*
X0000731968Y0000305433D03*
X0000731968Y0000364488D03*
X0000796535Y0000364094D03*
X0000796535Y0000305039D03*
D19*
X0000866220Y0000299921D03*
X0000866220Y0000337322D03*
X0000866220Y0000374724D03*
X0000952834Y0000374724D03*
X0000952834Y0000299921D03*
D17*
X0001034724Y0000365275D03*
X0001034724Y0000306220D03*
X0001103228Y0000364881D03*
X0001103228Y0000305826D03*
D18*
X0001181574Y0000364094D03*
X0001181574Y0000305039D03*
X0001582362Y0000361732D03*
X0001582362Y0000302677D03*
D17*
X0001710708Y0000302283D03*
X0001710708Y0000361338D03*
D18*
X0001623622Y0000562992D03*
X0001623622Y0000503937D03*
D17*
X0001476456Y0000508976D03*
X0001476456Y0000568031D03*
X0001401653Y0000568818D03*
X0001401653Y0000509763D03*
X0001333543Y0000568818D03*
X0001333543Y0000509763D03*
D18*
X0001184330Y0000508188D03*
X0001184330Y0000567244D03*
D17*
X0001093385Y0000509763D03*
X0001093385Y0000568818D03*
X0000810708Y0000510157D03*
X0000810708Y0000569212D03*
X0001019370Y0000510157D03*
X0001019370Y0000569212D03*
X0000878818Y0000509370D03*
X0000878818Y0000568425D03*
X0000952834Y0000510551D03*
X0000952834Y0000569606D03*
D18*
X0000739055Y0000570000D03*
X0000739055Y0000510944D03*
D15*
X0000516535Y0000649212D03*
X0000457480Y0000649212D03*
D19*
X0000546535Y0000572362D03*
X0000546535Y0000534960D03*
X0000546535Y0000497559D03*
X0000459921Y0000497559D03*
X0000459921Y0000572362D03*
X0000459921Y0000534960D03*
D15*
X0000372125Y0000505826D03*
X0000313070Y0000505826D03*
X0000372125Y0000581023D03*
X0000313070Y0000581023D03*
D18*
X0000085118Y0000484566D03*
X0000085118Y0000425511D03*
D13*
X0001974488Y0000150314D03*
D14*
X0001874488Y0000150314D03*
X0001774488Y0000150314D03*
X0001674488Y0000150314D03*
X0001574488Y0000150314D03*
X0001474488Y0000150314D03*
X0001374488Y0000150314D03*
X0001274488Y0000150314D03*
X0001174488Y0000150314D03*
X0001074488Y0000150314D03*
X0000974488Y0000150314D03*
X0000874488Y0000150314D03*
X0000774488Y0000150314D03*
X0000674488Y0000150314D03*
X0000574488Y0000150314D03*
X0000474488Y0000150314D03*
X0000374488Y0000150314D03*
X0000274488Y0000150314D03*
X0000174488Y0000150314D03*
X0000074488Y0000150314D03*
D13*
X0001974488Y0000760551D03*
D14*
X0001874488Y0000760551D03*
X0001774488Y0000760551D03*
X0001674488Y0000760551D03*
X0001574488Y0000760551D03*
X0001474488Y0000760551D03*
X0001374488Y0000760551D03*
X0001274488Y0000760551D03*
X0001174488Y0000760551D03*
X0001074488Y0000760551D03*
X0000974488Y0000760551D03*
X0000874488Y0000760551D03*
X0000774488Y0000760551D03*
X0000674488Y0000760551D03*
X0000574488Y0000760551D03*
X0000474488Y0000760551D03*
X0000374488Y0000760551D03*
X0000274488Y0000760551D03*
X0000174488Y0000760551D03*
X0000074488Y0000760551D03*
D13*
X0000555511Y0000390551D03*
D14*
X0000555511Y0000290551D03*
X0000455511Y0000390551D03*
X0000455511Y0000290551D03*
X0000355511Y0000390551D03*
X0000355511Y0000290551D03*
D17*
X0001549685Y0000508976D03*
X0001549685Y0000568031D03*
G04 next file*
G04 Gerber Fmt 4.6, Leading zero omitted, Abs format (unit mm)*
G04 Created by KiCad (PCBNEW 4.0.7) date 12/01/17 19:40:24*
G01G01*
G04 APERTURE LIST*
G04 APERTURE END LIST*
D30*
D31*
X0000000000Y0001811023D02*
X0001268582Y0001251102D03*
X0001268582Y0001443228D03*
D32*
X0000168188Y0001439094D03*
X0000168188Y0001281614D03*
D33*
X0001880787Y0001555826D03*
D34*
X0001880787Y0001455826D03*
X0001880787Y0001355826D03*
X0001880787Y0001255826D03*
X0001880787Y0001155826D03*
D35*
X0000088267Y0001166850D03*
X0000147322Y0001166850D03*
D36*
X0001236299Y0001328267D03*
X0001295354Y0001328267D03*
D37*
X0001359921Y0001268031D03*
X0001359921Y0001208976D03*
X0001775669Y0001207007D03*
X0001775669Y0001266062D03*
D36*
X0000255196Y0001556220D03*
X0000196141Y0001556220D03*
X0000628425Y0001553858D03*
X0000687480Y0001553858D03*
D38*
X0000665826Y0001269606D03*
X0000665826Y0001210551D03*
D37*
X0000731968Y0001210944D03*
X0000731968Y0001269999D03*
X0000796535Y0001269606D03*
X0000796535Y0001210551D03*
D39*
X0000866220Y0001205433D03*
X0000866220Y0001242834D03*
X0000866220Y0001280236D03*
X0000952834Y0001280236D03*
X0000952834Y0001205433D03*
D37*
X0001034724Y0001270787D03*
X0001034724Y0001211732D03*
X0001103228Y0001270393D03*
X0001103228Y0001211338D03*
D38*
X0001181574Y0001269606D03*
X0001181574Y0001210551D03*
X0001582362Y0001267244D03*
X0001582362Y0001208188D03*
D37*
X0001710708Y0001207795D03*
X0001710708Y0001266850D03*
D38*
X0001623622Y0001468503D03*
X0001623622Y0001409448D03*
D37*
X0001476456Y0001414488D03*
X0001476456Y0001473543D03*
X0001401653Y0001474330D03*
X0001401653Y0001415275D03*
X0001333543Y0001474330D03*
X0001333543Y0001415275D03*
D38*
X0001184330Y0001413700D03*
X0001184330Y0001472755D03*
D37*
X0001093385Y0001415275D03*
X0001093385Y0001474330D03*
X0000810708Y0001415669D03*
X0000810708Y0001474724D03*
X0001019370Y0001415669D03*
X0001019370Y0001474724D03*
X0000878818Y0001414881D03*
X0000878818Y0001473937D03*
X0000952834Y0001416062D03*
X0000952834Y0001475118D03*
D38*
X0000739055Y0001475511D03*
X0000739055Y0001416456D03*
D35*
X0000516535Y0001554724D03*
X0000457480Y0001554724D03*
D39*
X0000546535Y0001477874D03*
X0000546535Y0001440472D03*
X0000546535Y0001403070D03*
X0000459921Y0001403070D03*
X0000459921Y0001477874D03*
X0000459921Y0001440472D03*
D35*
X0000372125Y0001411338D03*
X0000313070Y0001411338D03*
X0000372125Y0001486535D03*
X0000313070Y0001486535D03*
D38*
X0000085118Y0001390078D03*
X0000085118Y0001331023D03*
D33*
X0001974488Y0001055826D03*
D34*
X0001874488Y0001055826D03*
X0001774488Y0001055826D03*
X0001674488Y0001055826D03*
X0001574488Y0001055826D03*
X0001474488Y0001055826D03*
X0001374488Y0001055826D03*
X0001274488Y0001055826D03*
X0001174488Y0001055826D03*
X0001074488Y0001055826D03*
X0000974488Y0001055826D03*
X0000874488Y0001055826D03*
X0000774488Y0001055826D03*
X0000674488Y0001055826D03*
X0000574488Y0001055826D03*
X0000474488Y0001055826D03*
X0000374488Y0001055826D03*
X0000274488Y0001055826D03*
X0000174488Y0001055826D03*
X0000074488Y0001055826D03*
D33*
X0001974488Y0001666062D03*
D34*
X0001874488Y0001666062D03*
X0001774488Y0001666062D03*
X0001674488Y0001666062D03*
X0001574488Y0001666062D03*
X0001474488Y0001666062D03*
X0001374488Y0001666062D03*
X0001274488Y0001666062D03*
X0001174488Y0001666062D03*
X0001074488Y0001666062D03*
X0000974488Y0001666062D03*
X0000874488Y0001666062D03*
X0000774488Y0001666062D03*
X0000674488Y0001666062D03*
X0000574488Y0001666062D03*
X0000474488Y0001666062D03*
X0000374488Y0001666062D03*
X0000274488Y0001666062D03*
X0000174488Y0001666062D03*
X0000074488Y0001666062D03*
D33*
X0000555511Y0001296062D03*
D34*
X0000555511Y0001196062D03*
X0000455511Y0001296062D03*
X0000455511Y0001196062D03*
X0000355511Y0001296062D03*
X0000355511Y0001196062D03*
D37*
X0001549685Y0001414488D03*
X0001549685Y0001473543D03*
G04 next file*
G04 Gerber Fmt 4.6, Leading zero omitted, Abs format (unit mm)*
G04 Created by KiCad (PCBNEW 4.0.7) date 12/01/17 19:40:24*
G01G01*
G04 APERTURE LIST*
G04 APERTURE END LIST*
D40*
D41*
X0000000000Y0002716535D02*
X0001268582Y0002156614D03*
X0001268582Y0002348740D03*
D42*
X0000168188Y0002344606D03*
X0000168188Y0002187125D03*
D43*
X0001880787Y0002461338D03*
D44*
X0001880787Y0002361338D03*
X0001880787Y0002261338D03*
X0001880787Y0002161338D03*
X0001880787Y0002061338D03*
D45*
X0000088267Y0002072362D03*
X0000147322Y0002072362D03*
D46*
X0001236299Y0002233779D03*
X0001295354Y0002233779D03*
D47*
X0001359921Y0002173543D03*
X0001359921Y0002114488D03*
X0001775669Y0002112519D03*
X0001775669Y0002171574D03*
D46*
X0000255196Y0002461732D03*
X0000196141Y0002461732D03*
X0000628425Y0002459370D03*
X0000687480Y0002459370D03*
D48*
X0000665826Y0002175118D03*
X0000665826Y0002116062D03*
D47*
X0000731968Y0002116456D03*
X0000731968Y0002175511D03*
X0000796535Y0002175118D03*
X0000796535Y0002116062D03*
D49*
X0000866220Y0002110944D03*
X0000866220Y0002148346D03*
X0000866220Y0002185748D03*
X0000952834Y0002185748D03*
X0000952834Y0002110944D03*
D47*
X0001034724Y0002176299D03*
X0001034724Y0002117244D03*
X0001103228Y0002175905D03*
X0001103228Y0002116850D03*
D48*
X0001181574Y0002175118D03*
X0001181574Y0002116062D03*
X0001582362Y0002172755D03*
X0001582362Y0002113700D03*
D47*
X0001710708Y0002113307D03*
X0001710708Y0002172362D03*
D48*
X0001623622Y0002374015D03*
X0001623622Y0002314960D03*
D47*
X0001476456Y0002320000D03*
X0001476456Y0002379055D03*
X0001401653Y0002379842D03*
X0001401653Y0002320787D03*
X0001333543Y0002379842D03*
X0001333543Y0002320787D03*
D48*
X0001184330Y0002319212D03*
X0001184330Y0002378267D03*
D47*
X0001093385Y0002320787D03*
X0001093385Y0002379842D03*
X0000810708Y0002321181D03*
X0000810708Y0002380236D03*
X0001019370Y0002321181D03*
X0001019370Y0002380236D03*
X0000878818Y0002320393D03*
X0000878818Y0002379448D03*
X0000952834Y0002321574D03*
X0000952834Y0002380629D03*
D48*
X0000739055Y0002381023D03*
X0000739055Y0002321968D03*
D45*
X0000516535Y0002460236D03*
X0000457480Y0002460236D03*
D49*
X0000546535Y0002383385D03*
X0000546535Y0002345984D03*
X0000546535Y0002308582D03*
X0000459921Y0002308582D03*
X0000459921Y0002383385D03*
X0000459921Y0002345984D03*
D45*
X0000372125Y0002316850D03*
X0000313070Y0002316850D03*
X0000372125Y0002392047D03*
X0000313070Y0002392047D03*
D48*
X0000085118Y0002295590D03*
X0000085118Y0002236535D03*
D43*
X0001974488Y0001961338D03*
D44*
X0001874488Y0001961338D03*
X0001774488Y0001961338D03*
X0001674488Y0001961338D03*
X0001574488Y0001961338D03*
X0001474488Y0001961338D03*
X0001374488Y0001961338D03*
X0001274488Y0001961338D03*
X0001174488Y0001961338D03*
X0001074488Y0001961338D03*
X0000974488Y0001961338D03*
X0000874488Y0001961338D03*
X0000774488Y0001961338D03*
X0000674488Y0001961338D03*
X0000574488Y0001961338D03*
X0000474488Y0001961338D03*
X0000374488Y0001961338D03*
X0000274488Y0001961338D03*
X0000174488Y0001961338D03*
X0000074488Y0001961338D03*
D43*
X0001974488Y0002571574D03*
D44*
X0001874488Y0002571574D03*
X0001774488Y0002571574D03*
X0001674488Y0002571574D03*
X0001574488Y0002571574D03*
X0001474488Y0002571574D03*
X0001374488Y0002571574D03*
X0001274488Y0002571574D03*
X0001174488Y0002571574D03*
X0001074488Y0002571574D03*
X0000974488Y0002571574D03*
X0000874488Y0002571574D03*
X0000774488Y0002571574D03*
X0000674488Y0002571574D03*
X0000574488Y0002571574D03*
X0000474488Y0002571574D03*
X0000374488Y0002571574D03*
X0000274488Y0002571574D03*
X0000174488Y0002571574D03*
X0000074488Y0002571574D03*
D43*
X0000555511Y0002201574D03*
D44*
X0000555511Y0002101574D03*
X0000455511Y0002201574D03*
X0000455511Y0002101574D03*
X0000355511Y0002201574D03*
X0000355511Y0002101574D03*
D47*
X0001549685Y0002320000D03*
X0001549685Y0002379055D03*
G04 next file*
G04 Gerber Fmt 4.6, Leading zero omitted, Abs format (unit mm)*
G04 Created by KiCad (PCBNEW 4.0.7) date 12/01/17 19:40:24*
G01G01*
G04 APERTURE LIST*
G04 APERTURE END LIST*
D50*
D51*
X0000000000Y0003622047D02*
X0001268582Y0003062125D03*
X0001268582Y0003254251D03*
D52*
X0000168188Y0003250118D03*
X0000168188Y0003092637D03*
D53*
X0001880787Y0003366850D03*
D54*
X0001880787Y0003266850D03*
X0001880787Y0003166850D03*
X0001880787Y0003066850D03*
X0001880787Y0002966850D03*
D55*
X0000088267Y0002977874D03*
X0000147322Y0002977874D03*
D56*
X0001236299Y0003139291D03*
X0001295354Y0003139291D03*
D57*
X0001359921Y0003079055D03*
X0001359921Y0003020000D03*
X0001775669Y0003018031D03*
X0001775669Y0003077086D03*
D56*
X0000255196Y0003367244D03*
X0000196141Y0003367244D03*
X0000628425Y0003364881D03*
X0000687480Y0003364881D03*
D58*
X0000665826Y0003080629D03*
X0000665826Y0003021574D03*
D57*
X0000731968Y0003021968D03*
X0000731968Y0003081023D03*
X0000796535Y0003080629D03*
X0000796535Y0003021574D03*
D59*
X0000866220Y0003016456D03*
X0000866220Y0003053858D03*
X0000866220Y0003091259D03*
X0000952834Y0003091259D03*
X0000952834Y0003016456D03*
D57*
X0001034724Y0003081811D03*
X0001034724Y0003022755D03*
X0001103228Y0003081417D03*
X0001103228Y0003022362D03*
D58*
X0001181574Y0003080629D03*
X0001181574Y0003021574D03*
X0001582362Y0003078267D03*
X0001582362Y0003019212D03*
D57*
X0001710708Y0003018818D03*
X0001710708Y0003077874D03*
D58*
X0001623622Y0003279527D03*
X0001623622Y0003220472D03*
D57*
X0001476456Y0003225511D03*
X0001476456Y0003284566D03*
X0001401653Y0003285354D03*
X0001401653Y0003226299D03*
X0001333543Y0003285354D03*
X0001333543Y0003226299D03*
D58*
X0001184330Y0003224724D03*
X0001184330Y0003283779D03*
D57*
X0001093385Y0003226299D03*
X0001093385Y0003285354D03*
X0000810708Y0003226692D03*
X0000810708Y0003285748D03*
X0001019370Y0003226692D03*
X0001019370Y0003285748D03*
X0000878818Y0003225905D03*
X0000878818Y0003284960D03*
X0000952834Y0003227086D03*
X0000952834Y0003286141D03*
D58*
X0000739055Y0003286535D03*
X0000739055Y0003227480D03*
D55*
X0000516535Y0003365748D03*
X0000457480Y0003365748D03*
D59*
X0000546535Y0003288897D03*
X0000546535Y0003251496D03*
X0000546535Y0003214094D03*
X0000459921Y0003214094D03*
X0000459921Y0003288897D03*
X0000459921Y0003251496D03*
D55*
X0000372125Y0003222362D03*
X0000313070Y0003222362D03*
X0000372125Y0003297559D03*
X0000313070Y0003297559D03*
D58*
X0000085118Y0003201102D03*
X0000085118Y0003142047D03*
D53*
X0001974488Y0002866850D03*
D54*
X0001874488Y0002866850D03*
X0001774488Y0002866850D03*
X0001674488Y0002866850D03*
X0001574488Y0002866850D03*
X0001474488Y0002866850D03*
X0001374488Y0002866850D03*
X0001274488Y0002866850D03*
X0001174488Y0002866850D03*
X0001074488Y0002866850D03*
X0000974488Y0002866850D03*
X0000874488Y0002866850D03*
X0000774488Y0002866850D03*
X0000674488Y0002866850D03*
X0000574488Y0002866850D03*
X0000474488Y0002866850D03*
X0000374488Y0002866850D03*
X0000274488Y0002866850D03*
X0000174488Y0002866850D03*
X0000074488Y0002866850D03*
D53*
X0001974488Y0003477086D03*
D54*
X0001874488Y0003477086D03*
X0001774488Y0003477086D03*
X0001674488Y0003477086D03*
X0001574488Y0003477086D03*
X0001474488Y0003477086D03*
X0001374488Y0003477086D03*
X0001274488Y0003477086D03*
X0001174488Y0003477086D03*
X0001074488Y0003477086D03*
X0000974488Y0003477086D03*
X0000874488Y0003477086D03*
X0000774488Y0003477086D03*
X0000674488Y0003477086D03*
X0000574488Y0003477086D03*
X0000474488Y0003477086D03*
X0000374488Y0003477086D03*
X0000274488Y0003477086D03*
X0000174488Y0003477086D03*
X0000074488Y0003477086D03*
D53*
X0000555511Y0003107086D03*
D54*
X0000555511Y0003007086D03*
X0000455511Y0003107086D03*
X0000455511Y0003007086D03*
X0000355511Y0003107086D03*
X0000355511Y0003007086D03*
D57*
X0001549685Y0003225511D03*
X0001549685Y0003284566D03*
G04 next file*
G04 Gerber Fmt 4.6, Leading zero omitted, Abs format (unit mm)*
G04 Created by KiCad (PCBNEW 4.0.7) date 12/01/17 19:39:18*
G01G01*
G04 APERTURE LIST*
G04 APERTURE END LIST*
D60*
D61*
X0002047244Y0000905511D02*
X0002433015Y0000324314D03*
X0002433015Y0000516440D03*
D62*
X0002612795Y0000319291D03*
X0002612795Y0000260236D03*
X0002944881Y0000267322D03*
X0002944881Y0000326377D03*
X0002835433Y0000322047D03*
X0002835433Y0000262992D03*
D60*
G36*
X0003283464Y0000843700D02*
X0003283464Y0000757086D01*
X0003149606Y0000757086D01*
X0003149606Y0000843700D01*
X0003283464Y0000843700D01*
X0003283464Y0000843700D01*
G37*
G36*
X0003283464Y0000743700D02*
X0003283464Y0000657086D01*
X0003149606Y0000657086D01*
X0003149606Y0000743700D01*
X0003283464Y0000743700D01*
X0003283464Y0000743700D01*
G37*
G36*
X0003283464Y0000643700D02*
X0003283464Y0000557086D01*
X0003149606Y0000557086D01*
X0003149606Y0000643700D01*
X0003283464Y0000643700D01*
X0003283464Y0000643700D01*
G37*
G36*
X0003283464Y0000543700D02*
X0003283464Y0000457086D01*
X0003149606Y0000457086D01*
X0003149606Y0000543700D01*
X0003283464Y0000543700D01*
X0003283464Y0000543700D01*
G37*
G36*
X0003283464Y0000443700D02*
X0003283464Y0000357086D01*
X0003149606Y0000357086D01*
X0003149606Y0000443700D01*
X0003283464Y0000443700D01*
X0003283464Y0000443700D01*
G37*
G36*
X0003283464Y0000343700D02*
X0003283464Y0000257086D01*
X0003149606Y0000257086D01*
X0003149606Y0000343700D01*
X0003283464Y0000343700D01*
X0003283464Y0000343700D01*
G37*
G36*
X0003283464Y0000243700D02*
X0003283464Y0000157086D01*
X0003149606Y0000157086D01*
X0003149606Y0000243700D01*
X0003283464Y0000243700D01*
X0003283464Y0000243700D01*
G37*
G36*
X0003283464Y0000143700D02*
X0003283464Y0000057086D01*
X0003149606Y0000057086D01*
X0003149606Y0000143700D01*
X0003283464Y0000143700D01*
X0003283464Y0000143700D01*
G37*
D63*
X0003025015Y0000786314D03*
D64*
X0002925015Y0000786314D03*
X0002825015Y0000786314D03*
X0002725015Y0000786314D03*
X0002625015Y0000786314D03*
X0002525015Y0000786314D03*
D62*
X0002715354Y0000643700D03*
X0002715354Y0000702755D03*
X0002678015Y0000392125D03*
X0002678015Y0000451181D03*
D65*
X0002740944Y0000205905D03*
X0002740944Y0000146850D03*
X0002967015Y0000392125D03*
X0002967015Y0000451181D03*
X0002850393Y0000643700D03*
X0002850393Y0000702755D03*
X0002606015Y0000389787D03*
X0002606015Y0000448842D03*
D62*
X0002392519Y0000137795D03*
X0002392519Y0000196850D03*
X0003058303Y0000191096D03*
X0003058303Y0000132041D03*
X0002973370Y0000130826D03*
X0002973370Y0000189881D03*
D66*
X0002227165Y0000150787D03*
X0002227165Y0000188188D03*
X0002227165Y0000225590D03*
X0002313779Y0000225590D03*
X0002313779Y0000150787D03*
X0002313779Y0000188188D03*
D62*
X0002783070Y0000702755D03*
X0002783070Y0000643700D03*
X0002746015Y0000451181D03*
X0002746015Y0000392125D03*
X0002811015Y0000392125D03*
X0002811015Y0000451181D03*
X0002902755Y0000451181D03*
X0002902755Y0000392125D03*
X0002387251Y0000794748D03*
X0002387251Y0000735692D03*
X0002644881Y0000705511D03*
X0002644881Y0000646456D03*
X0002255251Y0000735692D03*
X0002255251Y0000794748D03*
X0002321251Y0000794748D03*
X0002321251Y0000735692D03*
X0002144496Y0000484251D03*
X0002144496Y0000425196D03*
D67*
X0002145669Y0000071850D03*
X0002086614Y0000071850D03*
X0002145669Y0000220472D03*
X0002086614Y0000220472D03*
X0002145669Y0000149606D03*
X0002086614Y0000149606D03*
D62*
X0002612795Y0000208251D03*
X0002612795Y0000149196D03*
X0002675795Y0000208251D03*
X0002675795Y0000149196D03*
X0002550795Y0000207251D03*
X0002550795Y0000148196D03*
D68*
X0002185039Y0000795275D03*
X0002185039Y0000720472D03*
X0002106299Y0000757874D03*
D65*
X0002538976Y0000389370D03*
X0002538976Y0000448425D03*
D69*
X0002397346Y0000675685D03*
X0002338291Y0000675685D03*
D65*
X0002484645Y0000448818D03*
X0002484645Y0000389763D03*
X0002372047Y0000389370D03*
X0002372047Y0000448425D03*
X0002484795Y0000149196D03*
X0002484795Y0000208251D03*
X0002804724Y0000205905D03*
X0002804724Y0000146850D03*
D69*
X0002397346Y0000612685D03*
X0002338291Y0000612685D03*
D66*
X0002475590Y0000611023D03*
X0002475590Y0000648425D03*
X0002475590Y0000685826D03*
X0002562204Y0000685826D03*
X0002562204Y0000611023D03*
D70*
X0002218503Y0000534448D03*
X0002218503Y0000376968D03*
G04 next file*
G04 Gerber Fmt 4.6, Leading zero omitted, Abs format (unit mm)*
G04 Created by KiCad (PCBNEW 4.0.7) date 12/01/17 19:39:18*
G01G01*
G04 APERTURE LIST*
G04 APERTURE END LIST*
D71*
D72*
X0002047244Y0001811023D02*
X0002433015Y0001229826D03*
X0002433015Y0001421952D03*
D73*
X0002612795Y0001224803D03*
X0002612795Y0001165748D03*
X0002944881Y0001172834D03*
X0002944881Y0001231889D03*
X0002835433Y0001227559D03*
X0002835433Y0001168503D03*
D71*
G36*
X0003283464Y0001749212D02*
X0003283464Y0001662598D01*
X0003149606Y0001662598D01*
X0003149606Y0001749212D01*
X0003283464Y0001749212D01*
X0003283464Y0001749212D01*
G37*
G36*
X0003283464Y0001649212D02*
X0003283464Y0001562598D01*
X0003149606Y0001562598D01*
X0003149606Y0001649212D01*
X0003283464Y0001649212D01*
X0003283464Y0001649212D01*
G37*
G36*
X0003283464Y0001549212D02*
X0003283464Y0001462598D01*
X0003149606Y0001462598D01*
X0003149606Y0001549212D01*
X0003283464Y0001549212D01*
X0003283464Y0001549212D01*
G37*
G36*
X0003283464Y0001449212D02*
X0003283464Y0001362598D01*
X0003149606Y0001362598D01*
X0003149606Y0001449212D01*
X0003283464Y0001449212D01*
X0003283464Y0001449212D01*
G37*
G36*
X0003283464Y0001349212D02*
X0003283464Y0001262598D01*
X0003149606Y0001262598D01*
X0003149606Y0001349212D01*
X0003283464Y0001349212D01*
X0003283464Y0001349212D01*
G37*
G36*
X0003283464Y0001249212D02*
X0003283464Y0001162598D01*
X0003149606Y0001162598D01*
X0003149606Y0001249212D01*
X0003283464Y0001249212D01*
X0003283464Y0001249212D01*
G37*
G36*
X0003283464Y0001149212D02*
X0003283464Y0001062598D01*
X0003149606Y0001062598D01*
X0003149606Y0001149212D01*
X0003283464Y0001149212D01*
X0003283464Y0001149212D01*
G37*
G36*
X0003283464Y0001049212D02*
X0003283464Y0000962598D01*
X0003149606Y0000962598D01*
X0003149606Y0001049212D01*
X0003283464Y0001049212D01*
X0003283464Y0001049212D01*
G37*
D74*
X0003025015Y0001691826D03*
D75*
X0002925015Y0001691826D03*
X0002825015Y0001691826D03*
X0002725015Y0001691826D03*
X0002625015Y0001691826D03*
X0002525015Y0001691826D03*
D73*
X0002715354Y0001549212D03*
X0002715354Y0001608267D03*
X0002678015Y0001297637D03*
X0002678015Y0001356692D03*
D76*
X0002740944Y0001111417D03*
X0002740944Y0001052362D03*
X0002967015Y0001297637D03*
X0002967015Y0001356692D03*
X0002850393Y0001549212D03*
X0002850393Y0001608267D03*
X0002606015Y0001295299D03*
X0002606015Y0001354354D03*
D73*
X0002392519Y0001043307D03*
X0002392519Y0001102362D03*
X0003058303Y0001096608D03*
X0003058303Y0001037553D03*
X0002973370Y0001036338D03*
X0002973370Y0001095393D03*
D77*
X0002227165Y0001056299D03*
X0002227165Y0001093700D03*
X0002227165Y0001131102D03*
X0002313779Y0001131102D03*
X0002313779Y0001056299D03*
X0002313779Y0001093700D03*
D73*
X0002783070Y0001608267D03*
X0002783070Y0001549212D03*
X0002746015Y0001356692D03*
X0002746015Y0001297637D03*
X0002811015Y0001297637D03*
X0002811015Y0001356692D03*
X0002902755Y0001356692D03*
X0002902755Y0001297637D03*
X0002387251Y0001700259D03*
X0002387251Y0001641204D03*
X0002644881Y0001611023D03*
X0002644881Y0001551968D03*
X0002255251Y0001641204D03*
X0002255251Y0001700259D03*
X0002321251Y0001700259D03*
X0002321251Y0001641204D03*
X0002144496Y0001389763D03*
X0002144496Y0001330708D03*
D78*
X0002145669Y0000977362D03*
X0002086614Y0000977362D03*
X0002145669Y0001125984D03*
X0002086614Y0001125984D03*
X0002145669Y0001055118D03*
X0002086614Y0001055118D03*
D73*
X0002612795Y0001113763D03*
X0002612795Y0001054708D03*
X0002675795Y0001113763D03*
X0002675795Y0001054708D03*
X0002550795Y0001112763D03*
X0002550795Y0001053708D03*
D79*
X0002185039Y0001700787D03*
X0002185039Y0001625984D03*
X0002106299Y0001663385D03*
D76*
X0002538976Y0001294881D03*
X0002538976Y0001353937D03*
D80*
X0002397346Y0001581196D03*
X0002338291Y0001581196D03*
D76*
X0002484645Y0001354330D03*
X0002484645Y0001295275D03*
X0002372047Y0001294881D03*
X0002372047Y0001353937D03*
X0002484795Y0001054708D03*
X0002484795Y0001113763D03*
X0002804724Y0001111417D03*
X0002804724Y0001052362D03*
D80*
X0002397346Y0001518196D03*
X0002338291Y0001518196D03*
D77*
X0002475590Y0001516535D03*
X0002475590Y0001553937D03*
X0002475590Y0001591338D03*
X0002562204Y0001591338D03*
X0002562204Y0001516535D03*
D81*
X0002218503Y0001439960D03*
X0002218503Y0001282480D03*
G04 next file*
G04 Gerber Fmt 4.6, Leading zero omitted, Abs format (unit mm)*
G04 Created by KiCad (PCBNEW 4.0.7) date 12/01/17 19:39:18*
G01G01*
G04 APERTURE LIST*
G04 APERTURE END LIST*
D82*
D83*
X0002047244Y0002716535D02*
X0002433015Y0002135338D03*
X0002433015Y0002327464D03*
D84*
X0002612795Y0002130314D03*
X0002612795Y0002071259D03*
X0002944881Y0002078346D03*
X0002944881Y0002137401D03*
X0002835433Y0002133070D03*
X0002835433Y0002074015D03*
D82*
G36*
X0003283464Y0002654724D02*
X0003283464Y0002568110D01*
X0003149606Y0002568110D01*
X0003149606Y0002654724D01*
X0003283464Y0002654724D01*
X0003283464Y0002654724D01*
G37*
G36*
X0003283464Y0002554724D02*
X0003283464Y0002468110D01*
X0003149606Y0002468110D01*
X0003149606Y0002554724D01*
X0003283464Y0002554724D01*
X0003283464Y0002554724D01*
G37*
G36*
X0003283464Y0002454724D02*
X0003283464Y0002368110D01*
X0003149606Y0002368110D01*
X0003149606Y0002454724D01*
X0003283464Y0002454724D01*
X0003283464Y0002454724D01*
G37*
G36*
X0003283464Y0002354724D02*
X0003283464Y0002268110D01*
X0003149606Y0002268110D01*
X0003149606Y0002354724D01*
X0003283464Y0002354724D01*
X0003283464Y0002354724D01*
G37*
G36*
X0003283464Y0002254724D02*
X0003283464Y0002168110D01*
X0003149606Y0002168110D01*
X0003149606Y0002254724D01*
X0003283464Y0002254724D01*
X0003283464Y0002254724D01*
G37*
G36*
X0003283464Y0002154724D02*
X0003283464Y0002068110D01*
X0003149606Y0002068110D01*
X0003149606Y0002154724D01*
X0003283464Y0002154724D01*
X0003283464Y0002154724D01*
G37*
G36*
X0003283464Y0002054724D02*
X0003283464Y0001968110D01*
X0003149606Y0001968110D01*
X0003149606Y0002054724D01*
X0003283464Y0002054724D01*
X0003283464Y0002054724D01*
G37*
G36*
X0003283464Y0001954724D02*
X0003283464Y0001868110D01*
X0003149606Y0001868110D01*
X0003149606Y0001954724D01*
X0003283464Y0001954724D01*
X0003283464Y0001954724D01*
G37*
D85*
X0003025015Y0002597338D03*
D86*
X0002925015Y0002597338D03*
X0002825015Y0002597338D03*
X0002725015Y0002597338D03*
X0002625015Y0002597338D03*
X0002525015Y0002597338D03*
D84*
X0002715354Y0002454724D03*
X0002715354Y0002513779D03*
X0002678015Y0002203149D03*
X0002678015Y0002262204D03*
D87*
X0002740944Y0002016929D03*
X0002740944Y0001957874D03*
X0002967015Y0002203149D03*
X0002967015Y0002262204D03*
X0002850393Y0002454724D03*
X0002850393Y0002513779D03*
X0002606015Y0002200811D03*
X0002606015Y0002259866D03*
D84*
X0002392519Y0001948818D03*
X0002392519Y0002007874D03*
X0003058303Y0002002120D03*
X0003058303Y0001943064D03*
X0002973370Y0001941850D03*
X0002973370Y0002000905D03*
D88*
X0002227165Y0001961811D03*
X0002227165Y0001999212D03*
X0002227165Y0002036614D03*
X0002313779Y0002036614D03*
X0002313779Y0001961811D03*
X0002313779Y0001999212D03*
D84*
X0002783070Y0002513779D03*
X0002783070Y0002454724D03*
X0002746015Y0002262204D03*
X0002746015Y0002203149D03*
X0002811015Y0002203149D03*
X0002811015Y0002262204D03*
X0002902755Y0002262204D03*
X0002902755Y0002203149D03*
X0002387251Y0002605771D03*
X0002387251Y0002546716D03*
X0002644881Y0002516535D03*
X0002644881Y0002457480D03*
X0002255251Y0002546716D03*
X0002255251Y0002605771D03*
X0002321251Y0002605771D03*
X0002321251Y0002546716D03*
X0002144496Y0002295275D03*
X0002144496Y0002236220D03*
D89*
X0002145669Y0001882874D03*
X0002086614Y0001882874D03*
X0002145669Y0002031496D03*
X0002086614Y0002031496D03*
X0002145669Y0001960629D03*
X0002086614Y0001960629D03*
D84*
X0002612795Y0002019275D03*
X0002612795Y0001960220D03*
X0002675795Y0002019275D03*
X0002675795Y0001960220D03*
X0002550795Y0002018275D03*
X0002550795Y0001959220D03*
D90*
X0002185039Y0002606299D03*
X0002185039Y0002531496D03*
X0002106299Y0002568897D03*
D87*
X0002538976Y0002200393D03*
X0002538976Y0002259448D03*
D91*
X0002397346Y0002486708D03*
X0002338291Y0002486708D03*
D87*
X0002484645Y0002259842D03*
X0002484645Y0002200787D03*
X0002372047Y0002200393D03*
X0002372047Y0002259448D03*
X0002484795Y0001960220D03*
X0002484795Y0002019275D03*
X0002804724Y0002016929D03*
X0002804724Y0001957874D03*
D91*
X0002397346Y0002423708D03*
X0002338291Y0002423708D03*
D88*
X0002475590Y0002422047D03*
X0002475590Y0002459448D03*
X0002475590Y0002496850D03*
X0002562204Y0002496850D03*
X0002562204Y0002422047D03*
D92*
X0002218503Y0002345472D03*
X0002218503Y0002187992D03*
G04 next file*
G04 Gerber Fmt 4.6, Leading zero omitted, Abs format (unit mm)*
G04 Created by KiCad (PCBNEW 4.0.7) date 12/01/17 19:39:18*
G01G01*
G04 APERTURE LIST*
G04 APERTURE END LIST*
D93*
D94*
X0002047244Y0003622047D02*
X0002433015Y0003040850D03*
X0002433015Y0003232976D03*
D95*
X0002612795Y0003035826D03*
X0002612795Y0002976771D03*
X0002944881Y0002983858D03*
X0002944881Y0003042913D03*
X0002835433Y0003038582D03*
X0002835433Y0002979527D03*
D93*
G36*
X0003283464Y0003560236D02*
X0003283464Y0003473622D01*
X0003149606Y0003473622D01*
X0003149606Y0003560236D01*
X0003283464Y0003560236D01*
X0003283464Y0003560236D01*
G37*
G36*
X0003283464Y0003460236D02*
X0003283464Y0003373622D01*
X0003149606Y0003373622D01*
X0003149606Y0003460236D01*
X0003283464Y0003460236D01*
X0003283464Y0003460236D01*
G37*
G36*
X0003283464Y0003360236D02*
X0003283464Y0003273622D01*
X0003149606Y0003273622D01*
X0003149606Y0003360236D01*
X0003283464Y0003360236D01*
X0003283464Y0003360236D01*
G37*
G36*
X0003283464Y0003260236D02*
X0003283464Y0003173622D01*
X0003149606Y0003173622D01*
X0003149606Y0003260236D01*
X0003283464Y0003260236D01*
X0003283464Y0003260236D01*
G37*
G36*
X0003283464Y0003160236D02*
X0003283464Y0003073622D01*
X0003149606Y0003073622D01*
X0003149606Y0003160236D01*
X0003283464Y0003160236D01*
X0003283464Y0003160236D01*
G37*
G36*
X0003283464Y0003060236D02*
X0003283464Y0002973622D01*
X0003149606Y0002973622D01*
X0003149606Y0003060236D01*
X0003283464Y0003060236D01*
X0003283464Y0003060236D01*
G37*
G36*
X0003283464Y0002960236D02*
X0003283464Y0002873622D01*
X0003149606Y0002873622D01*
X0003149606Y0002960236D01*
X0003283464Y0002960236D01*
X0003283464Y0002960236D01*
G37*
G36*
X0003283464Y0002860236D02*
X0003283464Y0002773622D01*
X0003149606Y0002773622D01*
X0003149606Y0002860236D01*
X0003283464Y0002860236D01*
X0003283464Y0002860236D01*
G37*
D96*
X0003025015Y0003502850D03*
D97*
X0002925015Y0003502850D03*
X0002825015Y0003502850D03*
X0002725015Y0003502850D03*
X0002625015Y0003502850D03*
X0002525015Y0003502850D03*
D95*
X0002715354Y0003360236D03*
X0002715354Y0003419291D03*
X0002678015Y0003108661D03*
X0002678015Y0003167716D03*
D98*
X0002740944Y0002922440D03*
X0002740944Y0002863385D03*
X0002967015Y0003108661D03*
X0002967015Y0003167716D03*
X0002850393Y0003360236D03*
X0002850393Y0003419291D03*
X0002606015Y0003106322D03*
X0002606015Y0003165377D03*
D95*
X0002392519Y0002854330D03*
X0002392519Y0002913385D03*
X0003058303Y0002907631D03*
X0003058303Y0002848576D03*
X0002973370Y0002847362D03*
X0002973370Y0002906417D03*
D99*
X0002227165Y0002867322D03*
X0002227165Y0002904724D03*
X0002227165Y0002942125D03*
X0002313779Y0002942125D03*
X0002313779Y0002867322D03*
X0002313779Y0002904724D03*
D95*
X0002783070Y0003419291D03*
X0002783070Y0003360236D03*
X0002746015Y0003167716D03*
X0002746015Y0003108661D03*
X0002811015Y0003108661D03*
X0002811015Y0003167716D03*
X0002902755Y0003167716D03*
X0002902755Y0003108661D03*
X0002387251Y0003511283D03*
X0002387251Y0003452228D03*
X0002644881Y0003422047D03*
X0002644881Y0003362992D03*
X0002255251Y0003452228D03*
X0002255251Y0003511283D03*
X0002321251Y0003511283D03*
X0002321251Y0003452228D03*
X0002144496Y0003200787D03*
X0002144496Y0003141732D03*
D100*
X0002145669Y0002788385D03*
X0002086614Y0002788385D03*
X0002145669Y0002937007D03*
X0002086614Y0002937007D03*
X0002145669Y0002866141D03*
X0002086614Y0002866141D03*
D95*
X0002612795Y0002924787D03*
X0002612795Y0002865732D03*
X0002675795Y0002924787D03*
X0002675795Y0002865732D03*
X0002550795Y0002923787D03*
X0002550795Y0002864732D03*
D101*
X0002185039Y0003511811D03*
X0002185039Y0003437007D03*
X0002106299Y0003474409D03*
D98*
X0002538976Y0003105905D03*
X0002538976Y0003164960D03*
D102*
X0002397346Y0003392220D03*
X0002338291Y0003392220D03*
D98*
X0002484645Y0003165354D03*
X0002484645Y0003106299D03*
X0002372047Y0003105905D03*
X0002372047Y0003164960D03*
X0002484795Y0002865732D03*
X0002484795Y0002924787D03*
X0002804724Y0002922440D03*
X0002804724Y0002863385D03*
D102*
X0002397346Y0003329220D03*
X0002338291Y0003329220D03*
D99*
X0002475590Y0003327559D03*
X0002475590Y0003364960D03*
X0002475590Y0003402362D03*
X0002562204Y0003402362D03*
X0002562204Y0003327559D03*
D103*
X0002218503Y0003250984D03*
X0002218503Y0003093503D03*
G04 next file*
G04 Gerber Fmt 4.6, Leading zero omitted, Abs format (unit mm)*
G04 Created by KiCad (PCBNEW 4.0.7) date 12/01/17 20:59:20*
G01G01*
G04 APERTURE LIST*
G04 APERTURE END LIST*
D104*
D105*
X0003299212Y0000905511D02*
X0003375984Y0000310629D03*
X0003848425Y0000310629D03*
D106*
X0003512204Y0000401181D03*
X0003552165Y0000501181D03*
X0003592126Y0000401181D03*
X0003632086Y0000501181D03*
X0003672047Y0000401181D03*
X0003712007Y0000501181D03*
D107*
X0003864173Y0000787401D03*
D108*
X0003764173Y0000787401D03*
X0003664173Y0000787401D03*
X0003564173Y0000787401D03*
X0003464173Y0000787401D03*
X0003364173Y0000787401D03*
G04 next file*
G04 Gerber Fmt 4.6, Leading zero omitted, Abs format (unit mm)*
G04 Created by KiCad (PCBNEW 4.0.7) date 12/01/17 20:59:20*
G01G01*
G04 APERTURE LIST*
G04 APERTURE END LIST*
D109*
D110*
X0003299212Y0001811023D02*
X0003375984Y0001216141D03*
X0003848425Y0001216141D03*
D111*
X0003512204Y0001306692D03*
X0003552165Y0001406692D03*
X0003592126Y0001306692D03*
X0003632086Y0001406692D03*
X0003672047Y0001306692D03*
X0003712007Y0001406692D03*
D112*
X0003864173Y0001692913D03*
D113*
X0003764173Y0001692913D03*
X0003664173Y0001692913D03*
X0003564173Y0001692913D03*
X0003464173Y0001692913D03*
X0003364173Y0001692913D03*
G04 next file*
G04 Gerber Fmt 4.6, Leading zero omitted, Abs format (unit mm)*
G04 Created by KiCad (PCBNEW 4.0.7) date 12/01/17 20:59:20*
G01G01*
G04 APERTURE LIST*
G04 APERTURE END LIST*
D114*
D115*
X0003299212Y0002716535D02*
X0003375984Y0002121653D03*
X0003848425Y0002121653D03*
D116*
X0003512204Y0002212204D03*
X0003552165Y0002312204D03*
X0003592126Y0002212204D03*
X0003632086Y0002312204D03*
X0003672047Y0002212204D03*
X0003712007Y0002312204D03*
D117*
X0003864173Y0002598425D03*
D118*
X0003764173Y0002598425D03*
X0003664173Y0002598425D03*
X0003564173Y0002598425D03*
X0003464173Y0002598425D03*
X0003364173Y0002598425D03*
G04 next file*
G04 Gerber Fmt 4.6, Leading zero omitted, Abs format (unit mm)*
G04 Created by KiCad (PCBNEW 4.0.7) date 12/01/17 20:59:20*
G01G01*
G04 APERTURE LIST*
G04 APERTURE END LIST*
D119*
D120*
X0003299212Y0003622047D02*
X0003375984Y0003027165D03*
X0003848425Y0003027165D03*
D121*
X0003512204Y0003117716D03*
X0003552165Y0003217716D03*
X0003592126Y0003117716D03*
X0003632086Y0003217716D03*
X0003672047Y0003117716D03*
X0003712007Y0003217716D03*
D122*
X0003864173Y0003503937D03*
D123*
X0003764173Y0003503937D03*
X0003664173Y0003503937D03*
X0003564173Y0003503937D03*
X0003464173Y0003503937D03*
X0003364173Y0003503937D03*
G04 next file*
G04 Gerber Fmt 4.6, Leading zero omitted, Abs format (unit mm)*
G04 Created by KiCad (PCBNEW 4.0.7) date 12/02/17 00:53:47*
G01G01*
G04 APERTURE LIST*
G04 APERTURE END LIST*
D124*
G36*
X0003555861Y0003915108D02*
X0003564599Y0003908801D01*
X0003573107Y0003902764D01*
X0003581421Y0003896963D01*
X0003589576Y0003891364D01*
X0003597609Y0003885934D01*
X0003605555Y0003880640D01*
X0003613450Y0003875447D01*
X0003621329Y0003870321D01*
X0003629228Y0003865231D01*
X0003637182Y0003860140D01*
X0003645228Y0003855017D01*
X0003653400Y0003849827D01*
X0003661735Y0003844537D01*
X0003670267Y0003839113D01*
X0003679034Y0003833521D01*
X0003688070Y0003827728D01*
X0003697410Y0003821700D01*
X0003707092Y0003815404D01*
X0003717149Y0003808806D01*
X0003708214Y0003797865D01*
X0003696568Y0003805084D01*
X0003684837Y0003812357D01*
X0003673088Y0003819644D01*
X0003661386Y0003826904D01*
X0003649801Y0003834097D01*
X0003638398Y0003841184D01*
X0003627245Y0003848122D01*
X0003616410Y0003854874D01*
X0003605958Y0003861397D01*
X0003595958Y0003867652D01*
X0003586477Y0003873600D01*
X0003577581Y0003879198D01*
X0003569339Y0003884408D01*
X0003561816Y0003889188D01*
X0003555080Y0003893500D01*
X0003549199Y0003897302D01*
X0003544240Y0003900554D01*
X0003540269Y0003903216D01*
X0003537353Y0003905248D01*
X0003535561Y0003906610D01*
X0003539659Y0003910461D01*
X0003545690Y0003914646D01*
X0003551145Y0003913879D01*
X0003555861Y0003915108D01*
X0003555861Y0003915108D01*
G37*
D125*
X0003400787Y0003858661D03*
G04 next file*
G04 Gerber Fmt 4.6, Leading zero omitted, Abs format (unit mm)*
G04 Created by KiCad (PCBNEW 4.0.7) date 12/02/17 01:49:37*
G01G01*
G04 APERTURE LIST*
G04 APERTURE END LIST*
D126*
G36*
X0001016487Y0003776193D02*
X0001034081Y0003765597D01*
X0001040799Y0003766439D01*
X0001046617Y0003765723D01*
X0001051756Y0003763578D01*
X0001055975Y0003760065D01*
X0001059194Y0003755080D01*
X0001061174Y0003749442D01*
X0001061833Y0003743805D01*
X0001060874Y0003738251D01*
X0001057515Y0003734044D01*
X0001052236Y0003732447D01*
X0001047477Y0003733415D01*
X0001043118Y0003736319D01*
X0001039579Y0003740905D01*
X0001037280Y0003746920D01*
X0001035840Y0003753988D01*
X0001034081Y0003765600D01*
X0001034081Y0003765597D01*
X0001016487Y0003776193D01*
X0001017767Y0003769715D01*
X0001018807Y0003762731D01*
X0001019846Y0003756399D01*
X0001020886Y0003750699D01*
X0001022166Y0003742874D01*
X0001022565Y0003739509D01*
X0001022644Y0003737825D01*
X0001021364Y0003734122D01*
X0001018085Y0003732859D01*
X0001013626Y0003733953D01*
X0001008728Y0003737234D01*
X0001004109Y0003742451D01*
X0001000490Y0003749183D01*
X0000998090Y0003756966D01*
X0000997291Y0003765169D01*
X0000997970Y0003772363D01*
X0001000010Y0003779137D01*
X0001003589Y0003785237D01*
X0001008887Y0003790244D01*
X0001015526Y0003794114D01*
X0001023123Y0003796638D01*
X0001031301Y0003798090D01*
X0001039679Y0003798573D01*
X0001047144Y0003798200D01*
X0001054395Y0003797078D01*
X0001061433Y0003795208D01*
X0001068063Y0003792525D01*
X0001074194Y0003788850D01*
X0001079828Y0003784185D01*
X0001084814Y0003778651D01*
X0001088999Y0003772368D01*
X0001092385Y0003765338D01*
X0001094873Y0003757840D01*
X0001096366Y0003750155D01*
X0001096864Y0003742283D01*
X0001096164Y0003733406D01*
X0001094065Y0003725118D01*
X0001090446Y0003717819D01*
X0001085347Y0003711740D01*
X0001078789Y0003707028D01*
X0001070951Y0003703831D01*
X0001062153Y0003702001D01*
X0001052876Y0003701391D01*
X0001043718Y0003701833D01*
X0001035600Y0003703158D01*
X0001027942Y0003705766D01*
X0001020164Y0003710057D01*
X0001017685Y0003700297D01*
X0001025663Y0003695921D01*
X0001034240Y0003692892D01*
X0001043518Y0003691125D01*
X0001053755Y0003690535D01*
X0001061531Y0003690909D01*
X0001069076Y0003692031D01*
X0001076389Y0003693900D01*
X0001083187Y0003696507D01*
X0001089186Y0003699845D01*
X0001094384Y0003703912D01*
X0001100603Y0003711296D01*
X0001105022Y0003720152D01*
X0001106932Y0003726715D01*
X0001108079Y0003733615D01*
X0001108461Y0003740851D01*
X0001107857Y0003750396D01*
X0001106044Y0003759736D01*
X0001103022Y0003768870D01*
X0001098961Y0003777461D01*
X0001094029Y0003785062D01*
X0001088226Y0003791672D01*
X0001081597Y0003797244D01*
X0001074186Y0003801731D01*
X0001065992Y0003805135D01*
X0001057266Y0003807519D01*
X0001048255Y0003808949D01*
X0001038960Y0003809426D01*
X0001031753Y0003809117D01*
X0001024741Y0003808192D01*
X0001017925Y0003806649D01*
X0001008568Y0003803157D01*
X0001000650Y0003798066D01*
X0000994291Y0003791524D01*
X0000989613Y0003783510D01*
X0000986734Y0003774570D01*
X0000985774Y0003765083D01*
X0000986369Y0003757501D01*
X0000988155Y0003750237D01*
X0000991132Y0003743290D01*
X0000995105Y0003736933D01*
X0000999983Y0003731436D01*
X0001005768Y0003726799D01*
X0001012033Y0003723340D01*
X0001018458Y0003721264D01*
X0001025043Y0003720572D01*
X0001031522Y0003721584D01*
X0001036560Y0003724783D01*
X0001038800Y0003729916D01*
X0001043118Y0003725625D01*
X0001046717Y0003723354D01*
X0001052156Y0003721335D01*
X0001058074Y0003720580D01*
X0001063393Y0003721274D01*
X0001068152Y0003723358D01*
X0001072011Y0003726640D01*
X0001074790Y0003730931D01*
X0001076469Y0003736126D01*
X0001077029Y0003742121D01*
X0001075850Y0003751272D01*
X0001072310Y0003760548D01*
X0001066652Y0003768647D01*
X0001059114Y0003774263D01*
X0001052893Y0003776741D01*
X0001045642Y0003778227D01*
X0001037360Y0003778723D01*
X0001028802Y0003778218D01*
X0001023443Y0003777461D01*
X0001016485Y0003776199D01*
X0001016487Y0003776193D01*
X0001016487Y0003776193D01*
G37*
D127*
G36*
X0000961833Y0003881574D02*
X0000955813Y0003890832D01*
X0000949440Y0003896922D01*
X0000942906Y0003900197D01*
X0000936406Y0003901010D01*
X0000930133Y0003899714D01*
X0000924282Y0003896661D01*
X0000919047Y0003892204D01*
X0000914621Y0003886696D01*
X0000911198Y0003880489D01*
X0000908973Y0003873937D01*
X0000908138Y0003867392D01*
X0000912426Y0003858998D01*
X0000917318Y0003851537D01*
X0000922693Y0003844795D01*
X0000928427Y0003838560D01*
X0000934397Y0003832617D01*
X0000940480Y0003826754D01*
X0000946553Y0003820757D01*
X0000952492Y0003814413D01*
X0000958174Y0003807509D01*
X0000963477Y0003799832D01*
X0000968276Y0003791167D01*
X0000972939Y0003797343D01*
X0000976655Y0003803200D01*
X0000979839Y0003808942D01*
X0000982905Y0003814772D01*
X0000986265Y0003820892D01*
X0000990335Y0003827507D01*
X0000995526Y0003834818D01*
X0001002254Y0003843028D01*
X0001010931Y0003852342D01*
X0001021971Y0003862961D01*
X0001024314Y0003868709D01*
X0001025407Y0003874612D01*
X0001025329Y0003880487D01*
X0001024159Y0003886149D01*
X0001021977Y0003891412D01*
X0001018861Y0003896093D01*
X0001014890Y0003900007D01*
X0001010143Y0003902969D01*
X0001004699Y0003904796D01*
X0000998638Y0003905303D01*
X0000992038Y0003904304D01*
X0000984979Y0003901617D01*
X0000977539Y0003897056D01*
X0000969797Y0003890436D01*
X0000961833Y0003881574D01*
X0000961833Y0003881574D01*
G37*
X0000961833Y0003881574D02*
X0000955813Y0003890832D01*
X0000949440Y0003896922D01*
X0000942906Y0003900197D01*
X0000936406Y0003901010D01*
X0000930133Y0003899714D01*
X0000924282Y0003896661D01*
X0000919047Y0003892204D01*
X0000914621Y0003886696D01*
X0000911198Y0003880489D01*
X0000908973Y0003873937D01*
X0000908138Y0003867392D01*
X0000912426Y0003858998D01*
X0000917318Y0003851537D01*
X0000922693Y0003844795D01*
X0000928427Y0003838560D01*
X0000934397Y0003832617D01*
X0000940480Y0003826754D01*
X0000946553Y0003820757D01*
X0000952492Y0003814413D01*
X0000958174Y0003807509D01*
X0000963477Y0003799832D01*
X0000968276Y0003791167D01*
X0000972939Y0003797343D01*
X0000976655Y0003803200D01*
X0000979839Y0003808942D01*
X0000982905Y0003814772D01*
X0000986265Y0003820892D01*
X0000990335Y0003827507D01*
X0000995526Y0003834818D01*
X0001002254Y0003843028D01*
X0001010931Y0003852342D01*
X0001021971Y0003862961D01*
X0001024314Y0003868709D01*
X0001025407Y0003874612D01*
X0001025329Y0003880487D01*
X0001024159Y0003886149D01*
X0001021977Y0003891412D01*
X0001018861Y0003896093D01*
X0001014890Y0003900007D01*
X0001010143Y0003902969D01*
X0001004699Y0003904796D01*
X0000998638Y0003905303D01*
X0000992038Y0003904304D01*
X0000984979Y0003901617D01*
X0000977539Y0003897056D01*
X0000969797Y0003890436D01*
X0000961833Y0003881574D01*
D126*
G36*
X0000561809Y0003807410D02*
X0000554031Y0003807283D01*
X0000549252Y0003807241D01*
X0000544174Y0003807283D01*
X0000537095Y0003807410D01*
X0000540854Y0003739508D01*
X0000540937Y0003736984D01*
X0000540177Y0003727034D01*
X0000537898Y0003719903D01*
X0000534079Y0003714960D01*
X0000528860Y0003711573D01*
X0000522442Y0003709617D01*
X0000515184Y0003708964D01*
X0000505906Y0003710143D01*
X0000499348Y0003712919D01*
X0000495109Y0003716453D01*
X0000491510Y0003722091D01*
X0000489271Y0003729159D01*
X0000488595Y0003734123D01*
X0000487956Y0003741051D01*
X0000487351Y0003749942D01*
X0000485672Y0003779223D01*
X0000485325Y0003788039D01*
X0000485032Y0003797435D01*
X0000484792Y0003807410D01*
X0000476914Y0003807283D01*
X0000471356Y0003807241D01*
X0000459679Y0003807410D01*
X0000462158Y0003766854D01*
X0000463758Y0003734628D01*
X0000464678Y0003724783D01*
X0000465998Y0003717800D01*
X0000469596Y0003709217D01*
X0000474955Y0003702907D01*
X0000479294Y0003699541D01*
X0000484313Y0003696680D01*
X0000490491Y0003694135D01*
X0000497029Y0003692389D01*
X0000506447Y0003691000D01*
X0000516144Y0003690538D01*
X0000525901Y0003691021D01*
X0000535019Y0003692473D01*
X0000542237Y0003694619D01*
X0000548855Y0003697690D01*
X0000554454Y0003701434D01*
X0000558773Y0003705599D01*
X0000563491Y0003714434D01*
X0000564991Y0003720660D01*
X0000565491Y0003727560D01*
X0000565330Y0003734039D01*
X0000564770Y0003744388D01*
X0000564050Y0003756252D01*
X0000563631Y0003763109D01*
X0000563171Y0003772575D01*
X0000562371Y0003790834D01*
X0000562072Y0003798722D01*
X0000561812Y0003807410D01*
X0000561809Y0003807410D01*
X0000561809Y0003807410D01*
G37*
G36*
X0000353704Y0003713592D02*
X0000355344Y0003703664D01*
X0000356744Y0003693567D01*
X0000365481Y0003692136D01*
X0000373459Y0003691211D01*
X0000380517Y0003690706D01*
X0000386496Y0003690538D01*
X0000394378Y0003690930D01*
X0000402029Y0003692108D01*
X0000409450Y0003694072D01*
X0000416470Y0003696876D01*
X0000423028Y0003700578D01*
X0000429124Y0003705178D01*
X0000434403Y0003710638D01*
X0000438615Y0003716808D01*
X0000441761Y0003723689D01*
X0000443938Y0003731150D01*
X0000445244Y0003739059D01*
X0000445680Y0003747417D01*
X0000445156Y0003756495D01*
X0000443583Y0003765105D01*
X0000440961Y0003773248D01*
X0000437362Y0003780746D01*
X0000432857Y0003787422D01*
X0000427445Y0003793274D01*
X0000421171Y0003798248D01*
X0000414186Y0003802287D01*
X0000406490Y0003805390D01*
X0000398324Y0003807634D01*
X0000389926Y0003808980D01*
X0000381297Y0003809429D01*
X0000372393Y0003809083D01*
X0000362955Y0003808046D01*
X0000352985Y0003806316D01*
X0000352744Y0003799921D01*
X0000352504Y0003795714D01*
X0000351945Y0003786711D01*
X0000360222Y0003788836D01*
X0000366981Y0003790161D01*
X0000372839Y0003790855D01*
X0000378417Y0003791087D01*
X0000386815Y0003790392D01*
X0000394893Y0003788310D01*
X0000402291Y0003784797D01*
X0000408809Y0003779643D01*
X0000414128Y0003773038D01*
X0000418087Y0003765171D01*
X0000420486Y0003756567D01*
X0000421286Y0003747585D01*
X0000420286Y0003737215D01*
X0000417287Y0003727980D01*
X0000412089Y0003720134D01*
X0000404491Y0003713929D01*
X0000398110Y0003710937D01*
X0000390805Y0003709142D01*
X0000382576Y0003708544D01*
X0000374001Y0003709105D01*
X0000364377Y0003710788D01*
X0000353704Y0003713592D01*
X0000353704Y0003713592D01*
X0000353704Y0003713592D01*
G37*
D128*
X0000061417Y0003875984D03*
M02*