%MOIN*%
%OFA0B0*%
%FSLAX46Y46*%
%IPPOS*%
%LPD*%
%ADD10C,0.0039370078740157488*%
%ADD11C,0.0019685039370078744*%
%ADD22C,0.0039370078740157488*%
%ADD23C,0.0039370078740157488*%
%ADD24C,0.0039370078740157488*%
%ADD25C,0.011811023622047244*%
%ADD26C,0.0039370078740157488*%
%ADD27C,0.0039370078740157488*%
%ADD28C,0.0019685039370078744*%
%ADD29C,0.0039370078740157488*%
%ADD30C,0.0039370078740157488*%
%ADD31C,0.0019685039370078744*%
%ADD32C,0.0039370078740157488*%
%ADD33C,0.0039370078740157488*%
%ADD34C,0.0039370078740157488*%
%ADD35C,0.011811023622047244*%
%ADD36C,0.0039370078740157488*%
%ADD37C,0.0039370078740157488*%
%ADD38C,0.0019685039370078744*%
%ADD39C,0.0039370078740157488*%
%ADD40C,0.0039370078740157488*%
%ADD41C,0.0019685039370078744*%
%ADD42C,0.0039370078740157488*%
%ADD43C,0.0039370078740157488*%
%ADD44C,0.0039370078740157488*%
%ADD45C,0.011811023622047244*%
%ADD46C,0.0039370078740157488*%
%ADD47C,0.0039370078740157488*%
%ADD48C,0.0019685039370078744*%
%ADD49C,0.0039370078740157488*%
%ADD50C,0.0039370078740157488*%
%ADD51C,0.0019685039370078744*%
%ADD52C,0.0039370078740157488*%
%ADD53C,0.0039370078740157488*%
%ADD54C,0.0039370078740157488*%
%ADD55C,0.011811023622047244*%
%ADD56C,0.0039370078740157488*%
%ADD57C,0.0039370078740157488*%
%ADD58C,0.0019685039370078744*%
%ADD59C,0.0039370078740157488*%
%ADD60C,0.0039370078740157488*%
%ADD61C,0.0019685039370078744*%
%ADD62C,0.0039370078740157488*%
%ADD63C,0.0039370078740157488*%
%ADD64C,0.0039370078740157488*%
%ADD65C,0.011811023622047244*%
%ADD66C,0.0039370078740157488*%
%ADD67C,0.0039370078740157488*%
%ADD68C,0.0019685039370078744*%
%ADD69C,0.0039370078740157488*%
%ADD70C,0.0039370078740157488*%
%ADD71C,0.0019685039370078744*%
%ADD72C,0.0039370078740157488*%
%ADD73C,0.0039370078740157488*%
%ADD74C,0.0039370078740157488*%
%ADD75C,0.011811023622047244*%
%ADD76C,0.0039370078740157488*%
%ADD77C,0.0039370078740157488*%
%ADD78C,0.0019685039370078744*%
%ADD79C,0.0039370078740157488*%
%ADD80C,0.0039370078740157488*%
%ADD81C,0.0019685039370078744*%
%ADD82C,0.0039370078740157488*%
%ADD83C,0.0039370078740157488*%
%ADD84C,0.0039370078740157488*%
%ADD85C,0.011811023622047244*%
%ADD86C,0.0039370078740157488*%
%ADD87C,0.0039370078740157488*%
%ADD88C,0.0019685039370078744*%
%ADD89C,0.0039370078740157488*%
%ADD90C,0.0039370078740157488*%
%ADD91C,0.0019685039370078744*%
%ADD92C,0.0039370078740157488*%
%ADD93C,0.0039370078740157488*%
%ADD94C,0.0039370078740157488*%
%ADD95C,0.011811023622047244*%
%ADD96C,0.0039370078740157488*%
%ADD97C,0.0039370078740157488*%
%ADD98C,0.0019685039370078744*%
%ADD99C,0.0039370078740157488*%
%ADD100C,0.0039370078740157488*%
%ADD101C,0.0019685039370078744*%
%ADD102C,0.0039370078740157488*%
%ADD103C,0.0039370078740157488*%
%ADD104C,0.0039370078740157488*%
%ADD105C,0.011811023622047244*%
%ADD106C,0.0039370078740157488*%
%ADD107C,0.0039370078740157488*%
%ADD108C,0.0039370078740157488*%
%ADD109C,0.0039370078740157488*%
%ADD110C,0.0019685039370078744*%
%ADD111C,0.0039370078740157488*%
%ADD112C,0.0039370078740157488*%
%ADD113C,0.0039370078740157488*%
%ADD114C,0.011811023622047244*%
%ADD115C,0.0039370078740157488*%
%ADD116C,0.0039370078740157488*%
%ADD117C,0.0039370078740157488*%
%ADD118C,0.0039370078740157488*%
%ADD119C,0.0019685039370078744*%
%ADD120C,0.0039370078740157488*%
%ADD121C,0.0039370078740157488*%
%ADD122C,0.0039370078740157488*%
%ADD123C,0.011811023622047244*%
%ADD124C,0.0039370078740157488*%
%ADD125C,0.0039370078740157488*%
%ADD126C,0.0039370078740157488*%
%ADD127C,0.0039370078740157488*%
%ADD128C,0.0019685039370078744*%
%ADD129C,0.0039370078740157488*%
%ADD130C,0.0039370078740157488*%
%ADD131C,0.0039370078740157488*%
%ADD132C,0.011811023622047244*%
%ADD133C,0.0039370078740157488*%
%ADD134C,0.0039370078740157488*%
%ADD135C,0.0039370078740157488*%
G01G01*
D10*
D11*
X0000068582Y0000233779D02*
X0000167007Y0000233779D01*
X0000068582Y0000233779D02*
X0000068582Y0000288897D01*
X0000167007Y0000288897D02*
X0000167007Y0000233779D01*
X0000167007Y0000288897D02*
X0000068582Y0000288897D01*
X0001210708Y0000397165D02*
X0001320944Y0000397165D01*
X0001210708Y0000397165D02*
X0001210708Y0000448346D01*
X0001320944Y0000448346D02*
X0001320944Y0000397165D01*
X0001320944Y0000448346D02*
X0001210708Y0000448346D01*
X0001334330Y0000388110D02*
X0001334330Y0000277874D01*
X0001334330Y0000388110D02*
X0001385511Y0000388110D01*
X0001385511Y0000277874D02*
X0001334330Y0000277874D01*
X0001385511Y0000277874D02*
X0001385511Y0000388110D01*
X0001801259Y0000275905D02*
X0001801259Y0000386141D01*
X0001801259Y0000275905D02*
X0001750078Y0000275905D01*
X0001750078Y0000386141D02*
X0001801259Y0000386141D01*
X0001750078Y0000386141D02*
X0001750078Y0000275905D01*
X0000280787Y0000676299D02*
X0000170551Y0000676299D01*
X0000280787Y0000676299D02*
X0000280787Y0000625118D01*
X0000170551Y0000625118D02*
X0000170551Y0000676299D01*
X0000170551Y0000625118D02*
X0000280787Y0000625118D01*
X0000602834Y0000622755D02*
X0000713070Y0000622755D01*
X0000602834Y0000622755D02*
X0000602834Y0000673937D01*
X0000713070Y0000673937D02*
X0000713070Y0000622755D01*
X0000713070Y0000673937D02*
X0000602834Y0000673937D01*
X0000638267Y0000383779D02*
X0000638267Y0000285354D01*
X0000638267Y0000383779D02*
X0000693385Y0000383779D01*
X0000693385Y0000285354D02*
X0000638267Y0000285354D01*
X0000693385Y0000285354D02*
X0000693385Y0000383779D01*
X0000757559Y0000279842D02*
X0000757559Y0000390078D01*
X0000757559Y0000279842D02*
X0000706377Y0000279842D01*
X0000706377Y0000390078D02*
X0000757559Y0000390078D01*
X0000706377Y0000390078D02*
X0000706377Y0000279842D01*
X0000770944Y0000389685D02*
X0000770944Y0000279448D01*
X0000770944Y0000389685D02*
X0000822125Y0000389685D01*
X0000822125Y0000279448D02*
X0000770944Y0000279448D01*
X0000822125Y0000279448D02*
X0000822125Y0000389685D01*
X0000834724Y0000266456D02*
X0000984330Y0000266456D01*
X0000984330Y0000266456D02*
X0000984330Y0000408188D01*
X0000984330Y0000408188D02*
X0000834724Y0000408188D01*
X0000834724Y0000408188D02*
X0000834724Y0000266456D01*
X0001009133Y0000390866D02*
X0001009133Y0000280629D01*
X0001009133Y0000390866D02*
X0001060314Y0000390866D01*
X0001060314Y0000280629D02*
X0001009133Y0000280629D01*
X0001060314Y0000280629D02*
X0001060314Y0000390866D01*
X0001077637Y0000390472D02*
X0001077637Y0000280236D01*
X0001077637Y0000390472D02*
X0001128818Y0000390472D01*
X0001128818Y0000280236D02*
X0001077637Y0000280236D01*
X0001128818Y0000280236D02*
X0001128818Y0000390472D01*
X0001154015Y0000383779D02*
X0001154015Y0000285354D01*
X0001154015Y0000383779D02*
X0001209133Y0000383779D01*
X0001209133Y0000285354D02*
X0001154015Y0000285354D01*
X0001209133Y0000285354D02*
X0001209133Y0000383779D01*
X0001554803Y0000381417D02*
X0001554803Y0000282992D01*
X0001554803Y0000381417D02*
X0001609921Y0000381417D01*
X0001609921Y0000282992D02*
X0001554803Y0000282992D01*
X0001609921Y0000282992D02*
X0001609921Y0000381417D01*
X0001736299Y0000276692D02*
X0001736299Y0000386929D01*
X0001736299Y0000276692D02*
X0001685118Y0000276692D01*
X0001685118Y0000386929D02*
X0001736299Y0000386929D01*
X0001685118Y0000386929D02*
X0001685118Y0000276692D01*
X0001596062Y0000582677D02*
X0001596062Y0000484251D01*
X0001596062Y0000582677D02*
X0001651181Y0000582677D01*
X0001651181Y0000484251D02*
X0001596062Y0000484251D01*
X0001651181Y0000484251D02*
X0001651181Y0000582677D01*
X0001502047Y0000483385D02*
X0001502047Y0000593622D01*
X0001502047Y0000483385D02*
X0001450866Y0000483385D01*
X0001450866Y0000593622D02*
X0001502047Y0000593622D01*
X0001450866Y0000593622D02*
X0001450866Y0000483385D01*
X0001376062Y0000594409D02*
X0001376062Y0000484173D01*
X0001376062Y0000594409D02*
X0001427244Y0000594409D01*
X0001427244Y0000484173D02*
X0001376062Y0000484173D01*
X0001427244Y0000484173D02*
X0001427244Y0000594409D01*
X0001307952Y0000594409D02*
X0001307952Y0000484173D01*
X0001307952Y0000594409D02*
X0001359133Y0000594409D01*
X0001359133Y0000484173D02*
X0001307952Y0000484173D01*
X0001359133Y0000484173D02*
X0001359133Y0000594409D01*
X0001211889Y0000488503D02*
X0001211889Y0000586929D01*
X0001211889Y0000488503D02*
X0001156771Y0000488503D01*
X0001156771Y0000586929D02*
X0001211889Y0000586929D01*
X0001156771Y0000586929D02*
X0001156771Y0000488503D01*
X0001118976Y0000484173D02*
X0001118976Y0000594409D01*
X0001118976Y0000484173D02*
X0001067795Y0000484173D01*
X0001067795Y0000594409D02*
X0001118976Y0000594409D01*
X0001067795Y0000594409D02*
X0001067795Y0000484173D01*
X0000836299Y0000484566D02*
X0000836299Y0000594803D01*
X0000836299Y0000484566D02*
X0000785118Y0000484566D01*
X0000785118Y0000594803D02*
X0000836299Y0000594803D01*
X0000785118Y0000594803D02*
X0000785118Y0000484566D01*
X0001044960Y0000484566D02*
X0001044960Y0000594803D01*
X0001044960Y0000484566D02*
X0000993779Y0000484566D01*
X0000993779Y0000594803D02*
X0001044960Y0000594803D01*
X0000993779Y0000594803D02*
X0000993779Y0000484566D01*
X0000904409Y0000483779D02*
X0000904409Y0000594015D01*
X0000904409Y0000483779D02*
X0000853228Y0000483779D01*
X0000853228Y0000594015D02*
X0000904409Y0000594015D01*
X0000853228Y0000594015D02*
X0000853228Y0000483779D01*
X0000978425Y0000484960D02*
X0000978425Y0000595196D01*
X0000978425Y0000484960D02*
X0000927244Y0000484960D01*
X0000927244Y0000595196D02*
X0000978425Y0000595196D01*
X0000927244Y0000595196D02*
X0000927244Y0000484960D01*
X0000711496Y0000589685D02*
X0000711496Y0000491259D01*
X0000711496Y0000589685D02*
X0000766614Y0000589685D01*
X0000766614Y0000491259D02*
X0000711496Y0000491259D01*
X0000766614Y0000491259D02*
X0000766614Y0000589685D01*
X0000536220Y0000676771D02*
X0000437795Y0000676771D01*
X0000536220Y0000676771D02*
X0000536220Y0000621653D01*
X0000437795Y0000621653D02*
X0000437795Y0000676771D01*
X0000437795Y0000621653D02*
X0000536220Y0000621653D01*
X0000428425Y0000605826D02*
X0000578031Y0000605826D01*
X0000428425Y0000464094D02*
X0000428425Y0000605826D01*
X0000578031Y0000464094D02*
X0000428425Y0000464094D01*
X0000578031Y0000605826D02*
X0000578031Y0000464094D01*
X0000391811Y0000533385D02*
X0000293385Y0000533385D01*
X0000391811Y0000533385D02*
X0000391811Y0000478267D01*
X0000293385Y0000478267D02*
X0000293385Y0000533385D01*
X0000293385Y0000478267D02*
X0000391811Y0000478267D01*
X0000391811Y0000608582D02*
X0000293385Y0000608582D01*
X0000391811Y0000608582D02*
X0000391811Y0000553464D01*
X0000293385Y0000553464D02*
X0000293385Y0000608582D01*
X0000293385Y0000553464D02*
X0000391811Y0000553464D01*
X0000057559Y0000504251D02*
X0000057559Y0000405826D01*
X0000057559Y0000504251D02*
X0000112677Y0000504251D01*
X0000112677Y0000405826D02*
X0000057559Y0000405826D01*
X0000112677Y0000405826D02*
X0000112677Y0000504251D01*
X0002045354Y0000079448D02*
X0000004015Y0000079448D01*
X0000004015Y0000079448D02*
X0000004015Y0000221181D01*
X0000004015Y0000221181D02*
X0002045354Y0000221181D01*
X0002045354Y0000221181D02*
X0002045354Y0000079448D01*
X0002045354Y0000689685D02*
X0000004015Y0000689685D01*
X0000004015Y0000689685D02*
X0000004015Y0000831417D01*
X0000004015Y0000831417D02*
X0002045354Y0000831417D01*
X0002045354Y0000831417D02*
X0002045354Y0000689685D01*
X0001575275Y0000483385D02*
X0001575275Y0000593622D01*
X0001575275Y0000483385D02*
X0001524094Y0000483385D01*
X0001524094Y0000593622D02*
X0001575275Y0000593622D01*
X0001524094Y0000593622D02*
X0001524094Y0000483385D01*
G04 next file*
G04 Gerber Fmt 4.6, Leading zero omitted, Abs format (unit mm)*
G04 Created by KiCad (PCBNEW 4.0.7) date 11/29/17 18:04:40*
G01G01*
G04 APERTURE LIST*
G04 APERTURE END LIST*
D22*
G04 next file*
G04 Gerber Fmt 4.6, Leading zero omitted, Abs format (unit mm)*
G04 Created by KiCad (PCBNEW 4.0.7) date 11/29/17 18:04:40*
G01G01*
G04 APERTURE LIST*
G04 APERTURE END LIST*
D23*
G04 next file*
G04 Gerber Fmt 4.6, Leading zero omitted, Abs format (unit mm)*
G04 Created by KiCad (PCBNEW 4.0.7) date 11/29/17 18:04:40*
G01G01*
G04 APERTURE LIST*
G04 APERTURE END LIST*
D24*
D25*
X-0000097300Y0000697609D02*
X-0000094488Y0000694797D01*
X-0000091676Y0000689173D01*
X-0000091676Y0000675112D01*
X-0000094488Y0000669488D01*
X-0000097300Y0000666675D01*
X-0000102924Y0000663863D01*
X-0000108548Y0000663863D01*
X-0000116985Y0000666675D01*
X-0000150731Y0000700421D01*
X-0000150731Y0000663863D01*
X-0000097300Y0000641366D02*
X-0000094488Y0000638554D01*
X-0000091676Y0000632930D01*
X-0000091676Y0000618869D01*
X-0000094488Y0000613245D01*
X-0000097300Y0000610433D01*
X-0000102924Y0000607620D01*
X-0000108548Y0000607620D01*
X-0000116985Y0000610433D01*
X-0000150731Y0000644178D01*
X-0000150731Y0000607620D01*
X-0000145106Y0000582311D02*
X-0000147919Y0000579499D01*
X-0000150731Y0000582311D01*
X-0000147919Y0000585123D01*
X-0000145106Y0000582311D01*
X-0000150731Y0000582311D01*
X-0000150731Y0000551377D02*
X-0000150731Y0000540129D01*
X-0000147919Y0000534505D01*
X-0000145106Y0000531692D01*
X-0000136670Y0000526068D01*
X-0000125421Y0000523256D01*
X-0000102924Y0000523256D01*
X-0000097300Y0000526068D01*
X-0000094488Y0000528880D01*
X-0000091676Y0000534505D01*
X-0000091676Y0000545753D01*
X-0000094488Y0000551377D01*
X-0000097300Y0000554190D01*
X-0000102924Y0000557002D01*
X-0000116985Y0000557002D01*
X-0000122609Y0000554190D01*
X-0000125421Y0000551377D01*
X-0000128233Y0000545753D01*
X-0000128233Y0000534505D01*
X-0000125421Y0000528880D01*
X-0000122609Y0000526068D01*
X-0000116985Y0000523256D01*
X-0000150731Y0000495135D02*
X-0000150731Y0000483886D01*
X-0000147919Y0000478262D01*
X-0000145106Y0000475449D01*
X-0000136670Y0000469825D01*
X-0000125421Y0000467013D01*
X-0000102924Y0000467013D01*
X-0000097300Y0000469825D01*
X-0000094488Y0000472637D01*
X-0000091676Y0000478262D01*
X-0000091676Y0000489510D01*
X-0000094488Y0000495135D01*
X-0000097300Y0000497947D01*
X-0000102924Y0000500759D01*
X-0000116985Y0000500759D01*
X-0000122609Y0000497947D01*
X-0000125421Y0000495135D01*
X-0000128233Y0000489510D01*
X-0000128233Y0000478262D01*
X-0000125421Y0000472637D01*
X-0000122609Y0000469825D01*
X-0000116985Y0000467013D01*
X-0000091676Y0000430455D02*
X-0000091676Y0000424831D01*
X-0000094488Y0000419207D01*
X-0000097300Y0000416394D01*
X-0000102924Y0000413582D01*
X-0000114173Y0000410770D01*
X-0000128233Y0000410770D01*
X-0000139482Y0000413582D01*
X-0000145106Y0000416394D01*
X-0000147919Y0000419207D01*
X-0000150731Y0000424831D01*
X-0000150731Y0000430455D01*
X-0000147919Y0000436079D01*
X-0000145106Y0000438892D01*
X-0000139482Y0000441704D01*
X-0000128233Y0000444516D01*
X-0000114173Y0000444516D01*
X-0000102924Y0000441704D01*
X-0000097300Y0000438892D01*
X-0000094488Y0000436079D01*
X-0000091676Y0000430455D01*
X-0000150731Y0000340466D02*
X-0000111361Y0000340466D01*
X-0000116985Y0000340466D02*
X-0000114173Y0000337654D01*
X-0000111361Y0000332030D01*
X-0000111361Y0000323593D01*
X-0000114173Y0000317969D01*
X-0000119797Y0000315157D01*
X-0000150731Y0000315157D01*
X-0000119797Y0000315157D02*
X-0000114173Y0000312345D01*
X-0000111361Y0000306721D01*
X-0000111361Y0000298284D01*
X-0000114173Y0000292660D01*
X-0000119797Y0000289848D01*
X-0000150731Y0000289848D01*
X-0000150731Y0000261726D02*
X-0000111361Y0000261726D01*
X-0000116985Y0000261726D02*
X-0000114173Y0000258914D01*
X-0000111361Y0000253290D01*
X-0000111361Y0000244853D01*
X-0000114173Y0000239229D01*
X-0000119797Y0000236417D01*
X-0000150731Y0000236417D01*
X-0000119797Y0000236417D02*
X-0000114173Y0000233605D01*
X-0000111361Y0000227980D01*
X-0000111361Y0000219544D01*
X-0000114173Y0000213920D01*
X-0000119797Y0000211108D01*
X-0000150731Y0000211108D01*
X-0000070866Y0000905511D02*
X-0000070866Y0000000393D01*
X0000000393Y0000905511D02*
X-0000177165Y0000905511D01*
X0000000393Y0000000393D02*
X-0000177165Y0000000393D01*
X-0000070866Y0000000393D02*
X-0000093953Y0000044744D01*
X-0000070866Y0000000393D02*
X-0000047778Y0000044744D01*
X-0000070866Y0000905511D02*
X-0000093953Y0000861161D01*
X-0000070866Y0000905511D02*
X-0000047778Y0000861161D01*
X0000809810Y0001058087D02*
X0000781689Y0001058092D01*
X0000778871Y0001029971D01*
X0000781684Y0001032783D01*
X0000787308Y0001035594D01*
X0000801369Y0001035591D01*
X0000806993Y0001032778D01*
X0000809805Y0001029965D01*
X0000812616Y0001024341D01*
X0000812613Y0001010280D01*
X0000809800Y0001004656D01*
X0000806987Y0001001845D01*
X0000801362Y0000999033D01*
X0000787301Y0000999036D01*
X0000781678Y0001001849D01*
X0000778866Y0001004662D01*
X0000868854Y0000999021D02*
X0000835108Y0000999027D01*
X0000851981Y0000999024D02*
X0000851992Y0001058079D01*
X0000846366Y0001049644D01*
X0000840741Y0001044020D01*
X0000835116Y0001041209D01*
X0000894164Y0001004640D02*
X0000896976Y0001001827D01*
X0000894163Y0000999016D01*
X0000891351Y0001001828D01*
X0000894164Y0001004640D01*
X0000894163Y0000999016D01*
X0000925097Y0000999010D02*
X0000936345Y0000999008D01*
X0000941970Y0001001819D01*
X0000944783Y0001004630D01*
X0000950409Y0001013066D01*
X0000953223Y0001024314D01*
X0000953227Y0001046811D01*
X0000950416Y0001052436D01*
X0000947605Y0001055248D01*
X0000941981Y0001058062D01*
X0000930732Y0001058064D01*
X0000925107Y0001055253D01*
X0000922295Y0001052441D01*
X0000919482Y0001046817D01*
X0000919479Y0001032757D01*
X0000922290Y0001027132D01*
X0000925102Y0001024319D01*
X0000930725Y0001021506D01*
X0000941974Y0001021504D01*
X0000947599Y0001024315D01*
X0000950411Y0001027126D01*
X0000953225Y0001032750D01*
X0000981340Y0000998999D02*
X0000992588Y0000998997D01*
X0000998213Y0001001808D01*
X0001001026Y0001004619D01*
X0001006652Y0001013055D01*
X0001009466Y0001024303D01*
X0001009470Y0001046800D01*
X0001006659Y0001052425D01*
X0001003848Y0001055237D01*
X0000998224Y0001058051D01*
X0000986975Y0001058053D01*
X0000981350Y0001055242D01*
X0000978538Y0001052430D01*
X0000975725Y0001046806D01*
X0000975722Y0001032746D01*
X0000978533Y0001027121D01*
X0000981345Y0001024308D01*
X0000986968Y0001021495D01*
X0000998217Y0001021493D01*
X0001003842Y0001024304D01*
X0001006654Y0001027115D01*
X0001009468Y0001032739D01*
X0001046030Y0001058042D02*
X0001051655Y0001058040D01*
X0001057278Y0001055227D01*
X0001060090Y0001052415D01*
X0001062901Y0001046790D01*
X0001065711Y0001035541D01*
X0001065708Y0001021480D01*
X0001062894Y0001010232D01*
X0001060081Y0001004608D01*
X0001057268Y0001001796D01*
X0001051643Y0000998985D01*
X0001046019Y0000998986D01*
X0001040395Y0001001800D01*
X0001037584Y0001004612D01*
X0001034773Y0001010237D01*
X0001031963Y0001021486D01*
X0001031965Y0001035547D01*
X0001034780Y0001046795D01*
X0001037593Y0001052419D01*
X0001040406Y0001055230D01*
X0001046030Y0001058042D01*
X0001136008Y0000998969D02*
X0001136015Y0001038339D01*
X0001136014Y0001032715D02*
X0001138827Y0001035527D01*
X0001144452Y0001038338D01*
X0001152888Y0001038336D01*
X0001158512Y0001035523D01*
X0001161323Y0001029898D01*
X0001161317Y0000998964D01*
X0001161323Y0001029898D02*
X0001164136Y0001035522D01*
X0001169761Y0001038333D01*
X0001178198Y0001038331D01*
X0001183821Y0001035518D01*
X0001186632Y0001029893D01*
X0001186626Y0000998959D01*
X0001214748Y0000998954D02*
X0001214756Y0001038324D01*
X0001214754Y0001032700D02*
X0001217567Y0001035511D01*
X0001223192Y0001038322D01*
X0001231628Y0001038321D01*
X0001237252Y0001035508D01*
X0001240063Y0001029883D01*
X0001240057Y0000998949D01*
X0001240063Y0001029883D02*
X0001242876Y0001035506D01*
X0001248501Y0001038318D01*
X0001256938Y0001038316D01*
X0001262561Y0001035503D01*
X0001265373Y0001029878D01*
X0001265367Y0000998944D01*
X0000000092Y0000972753D02*
X0002046942Y0000972360D01*
X0000000078Y0000903070D02*
X0000000112Y0001079053D01*
X0002046929Y0000902677D02*
X0002046962Y0001078659D01*
X0002046942Y0000972360D02*
X0002002587Y0000949281D01*
X0002046942Y0000972360D02*
X0002002596Y0000995456D01*
X0000000092Y0000972753D02*
X0000044438Y0000949657D01*
X0000000092Y0000972753D02*
X0000044447Y0000995832D01*
G04 next file*
G04 Gerber Fmt 4.6, Leading zero omitted, Abs format (unit mm)*
G04 Created by KiCad (PCBNEW 4.0.7) date 11/29/17 18:04:40*
G01G01*
G04 APERTURE LIST*
G04 APERTURE END LIST*
D26*
G04 next file*
G04 Gerber Fmt 4.6, Leading zero omitted, Abs format (unit mm)*
G04 Created by KiCad (PCBNEW 4.0.7) date 11/29/17 18:04:40*
G01G01*
G04 APERTURE LIST*
G04 APERTURE END LIST*
D27*
D28*
X0001622913Y0000600708D02*
X0001402440Y0000600708D01*
X0001402440Y0000600708D02*
X0001402440Y0000262125D01*
X0001402440Y0000262125D02*
X0001622913Y0000262125D01*
X0001622913Y0000262125D02*
X0001622913Y0000600708D01*
X0001158346Y0000203858D02*
X0001378818Y0000203858D01*
X0001378818Y0000203858D02*
X0001378818Y0000680236D01*
X0001378818Y0000680236D02*
X0001158346Y0000680236D01*
X0001158346Y0000680236D02*
X0001158346Y0000203858D01*
X0001809921Y0000721181D02*
X0001809921Y0000179842D01*
X0001809921Y0000179842D02*
X0002296141Y0000179842D01*
X0002296141Y0000179842D02*
X0002296141Y0000721181D01*
X0002296141Y0000721181D02*
X0001809921Y0000721181D01*
X0000289842Y0000701496D02*
X0000624488Y0000701496D01*
X0000624488Y0000701496D02*
X0000624488Y0000465275D01*
X0000624488Y0000465275D02*
X0000289842Y0000465275D01*
X0000289842Y0000465275D02*
X0000289842Y0000701496D01*
X0000626377Y0000461417D02*
X0000285826Y0000461417D01*
X0000285826Y0000461417D02*
X0000285826Y0000219291D01*
X0000285826Y0000219291D02*
X0000626377Y0000219291D01*
X0000626377Y0000219291D02*
X0000626377Y0000461417D01*
X0001672519Y0000638503D02*
X0001739448Y0000638503D01*
X0001739448Y0000638503D02*
X0001739448Y0000484960D01*
X0001739448Y0000484960D02*
X0001672519Y0000484960D01*
X0001672519Y0000484960D02*
X0001672519Y0000638503D01*
X0001672519Y0000424724D02*
X0001739448Y0000424724D01*
X0001739448Y0000424724D02*
X0001739448Y0000271181D01*
X0001739448Y0000271181D02*
X0001672519Y0000271181D01*
X0001672519Y0000271181D02*
X0001672519Y0000424724D01*
G04 next file*
G04 Gerber Fmt 4.6, Leading zero omitted, Abs format (unit mm)*
G04 Created by KiCad (PCBNEW 4.0.7) date 11/29/17 18:04:40*
G01G01*
G04 APERTURE LIST*
G04 APERTURE END LIST*
D29*
G04 next file*
G04 Gerber Fmt 4.6, Leading zero omitted, Abs format (unit mm)*
G04 Created by KiCad (PCBNEW 4.0.7) date 11/29/17 18:04:40*
G01G01*
G04 APERTURE LIST*
G04 APERTURE END LIST*
D30*
D31*
X0000068582Y0001139291D02*
X0000167007Y0001139291D01*
X0000068582Y0001139291D02*
X0000068582Y0001194409D01*
X0000167007Y0001194409D02*
X0000167007Y0001139291D01*
X0000167007Y0001194409D02*
X0000068582Y0001194409D01*
X0001210708Y0001302677D02*
X0001320944Y0001302677D01*
X0001210708Y0001302677D02*
X0001210708Y0001353858D01*
X0001320944Y0001353858D02*
X0001320944Y0001302677D01*
X0001320944Y0001353858D02*
X0001210708Y0001353858D01*
X0001334330Y0001293622D02*
X0001334330Y0001183385D01*
X0001334330Y0001293622D02*
X0001385511Y0001293622D01*
X0001385511Y0001183385D02*
X0001334330Y0001183385D01*
X0001385511Y0001183385D02*
X0001385511Y0001293622D01*
X0001801259Y0001181417D02*
X0001801259Y0001291653D01*
X0001801259Y0001181417D02*
X0001750078Y0001181417D01*
X0001750078Y0001291653D02*
X0001801259Y0001291653D01*
X0001750078Y0001291653D02*
X0001750078Y0001181417D01*
X0000280787Y0001581811D02*
X0000170551Y0001581811D01*
X0000280787Y0001581811D02*
X0000280787Y0001530629D01*
X0000170551Y0001530629D02*
X0000170551Y0001581811D01*
X0000170551Y0001530629D02*
X0000280787Y0001530629D01*
X0000602834Y0001528267D02*
X0000713070Y0001528267D01*
X0000602834Y0001528267D02*
X0000602834Y0001579448D01*
X0000713070Y0001579448D02*
X0000713070Y0001528267D01*
X0000713070Y0001579448D02*
X0000602834Y0001579448D01*
X0000638267Y0001289291D02*
X0000638267Y0001190866D01*
X0000638267Y0001289291D02*
X0000693385Y0001289291D01*
X0000693385Y0001190866D02*
X0000638267Y0001190866D01*
X0000693385Y0001190866D02*
X0000693385Y0001289291D01*
X0000757559Y0001185354D02*
X0000757559Y0001295590D01*
X0000757559Y0001185354D02*
X0000706377Y0001185354D01*
X0000706377Y0001295590D02*
X0000757559Y0001295590D01*
X0000706377Y0001295590D02*
X0000706377Y0001185354D01*
X0000770944Y0001295196D02*
X0000770944Y0001184960D01*
X0000770944Y0001295196D02*
X0000822125Y0001295196D01*
X0000822125Y0001184960D02*
X0000770944Y0001184960D01*
X0000822125Y0001184960D02*
X0000822125Y0001295196D01*
X0000834724Y0001171968D02*
X0000984330Y0001171968D01*
X0000984330Y0001171968D02*
X0000984330Y0001313700D01*
X0000984330Y0001313700D02*
X0000834724Y0001313700D01*
X0000834724Y0001313700D02*
X0000834724Y0001171968D01*
X0001009133Y0001296377D02*
X0001009133Y0001186141D01*
X0001009133Y0001296377D02*
X0001060314Y0001296377D01*
X0001060314Y0001186141D02*
X0001009133Y0001186141D01*
X0001060314Y0001186141D02*
X0001060314Y0001296377D01*
X0001077637Y0001295984D02*
X0001077637Y0001185748D01*
X0001077637Y0001295984D02*
X0001128818Y0001295984D01*
X0001128818Y0001185748D02*
X0001077637Y0001185748D01*
X0001128818Y0001185748D02*
X0001128818Y0001295984D01*
X0001154015Y0001289291D02*
X0001154015Y0001190866D01*
X0001154015Y0001289291D02*
X0001209133Y0001289291D01*
X0001209133Y0001190866D02*
X0001154015Y0001190866D01*
X0001209133Y0001190866D02*
X0001209133Y0001289291D01*
X0001554803Y0001286929D02*
X0001554803Y0001188503D01*
X0001554803Y0001286929D02*
X0001609921Y0001286929D01*
X0001609921Y0001188503D02*
X0001554803Y0001188503D01*
X0001609921Y0001188503D02*
X0001609921Y0001286929D01*
X0001736299Y0001182204D02*
X0001736299Y0001292440D01*
X0001736299Y0001182204D02*
X0001685118Y0001182204D01*
X0001685118Y0001292440D02*
X0001736299Y0001292440D01*
X0001685118Y0001292440D02*
X0001685118Y0001182204D01*
X0001596062Y0001488188D02*
X0001596062Y0001389763D01*
X0001596062Y0001488188D02*
X0001651181Y0001488188D01*
X0001651181Y0001389763D02*
X0001596062Y0001389763D01*
X0001651181Y0001389763D02*
X0001651181Y0001488188D01*
X0001502047Y0001388897D02*
X0001502047Y0001499133D01*
X0001502047Y0001388897D02*
X0001450866Y0001388897D01*
X0001450866Y0001499133D02*
X0001502047Y0001499133D01*
X0001450866Y0001499133D02*
X0001450866Y0001388897D01*
X0001376062Y0001499921D02*
X0001376062Y0001389685D01*
X0001376062Y0001499921D02*
X0001427244Y0001499921D01*
X0001427244Y0001389685D02*
X0001376062Y0001389685D01*
X0001427244Y0001389685D02*
X0001427244Y0001499921D01*
X0001307952Y0001499921D02*
X0001307952Y0001389685D01*
X0001307952Y0001499921D02*
X0001359133Y0001499921D01*
X0001359133Y0001389685D02*
X0001307952Y0001389685D01*
X0001359133Y0001389685D02*
X0001359133Y0001499921D01*
X0001211889Y0001394015D02*
X0001211889Y0001492440D01*
X0001211889Y0001394015D02*
X0001156771Y0001394015D01*
X0001156771Y0001492440D02*
X0001211889Y0001492440D01*
X0001156771Y0001492440D02*
X0001156771Y0001394015D01*
X0001118976Y0001389685D02*
X0001118976Y0001499921D01*
X0001118976Y0001389685D02*
X0001067795Y0001389685D01*
X0001067795Y0001499921D02*
X0001118976Y0001499921D01*
X0001067795Y0001499921D02*
X0001067795Y0001389685D01*
X0000836299Y0001390078D02*
X0000836299Y0001500314D01*
X0000836299Y0001390078D02*
X0000785118Y0001390078D01*
X0000785118Y0001500314D02*
X0000836299Y0001500314D01*
X0000785118Y0001500314D02*
X0000785118Y0001390078D01*
X0001044960Y0001390078D02*
X0001044960Y0001500314D01*
X0001044960Y0001390078D02*
X0000993779Y0001390078D01*
X0000993779Y0001500314D02*
X0001044960Y0001500314D01*
X0000993779Y0001500314D02*
X0000993779Y0001390078D01*
X0000904409Y0001389291D02*
X0000904409Y0001499527D01*
X0000904409Y0001389291D02*
X0000853228Y0001389291D01*
X0000853228Y0001499527D02*
X0000904409Y0001499527D01*
X0000853228Y0001499527D02*
X0000853228Y0001389291D01*
X0000978425Y0001390472D02*
X0000978425Y0001500708D01*
X0000978425Y0001390472D02*
X0000927244Y0001390472D01*
X0000927244Y0001500708D02*
X0000978425Y0001500708D01*
X0000927244Y0001500708D02*
X0000927244Y0001390472D01*
X0000711496Y0001495196D02*
X0000711496Y0001396771D01*
X0000711496Y0001495196D02*
X0000766614Y0001495196D01*
X0000766614Y0001396771D02*
X0000711496Y0001396771D01*
X0000766614Y0001396771D02*
X0000766614Y0001495196D01*
X0000536220Y0001582283D02*
X0000437795Y0001582283D01*
X0000536220Y0001582283D02*
X0000536220Y0001527165D01*
X0000437795Y0001527165D02*
X0000437795Y0001582283D01*
X0000437795Y0001527165D02*
X0000536220Y0001527165D01*
X0000428425Y0001511338D02*
X0000578031Y0001511338D01*
X0000428425Y0001369606D02*
X0000428425Y0001511338D01*
X0000578031Y0001369606D02*
X0000428425Y0001369606D01*
X0000578031Y0001511338D02*
X0000578031Y0001369606D01*
X0000391811Y0001438897D02*
X0000293385Y0001438897D01*
X0000391811Y0001438897D02*
X0000391811Y0001383779D01*
X0000293385Y0001383779D02*
X0000293385Y0001438897D01*
X0000293385Y0001383779D02*
X0000391811Y0001383779D01*
X0000391811Y0001514094D02*
X0000293385Y0001514094D01*
X0000391811Y0001514094D02*
X0000391811Y0001458976D01*
X0000293385Y0001458976D02*
X0000293385Y0001514094D01*
X0000293385Y0001458976D02*
X0000391811Y0001458976D01*
X0000057559Y0001409763D02*
X0000057559Y0001311338D01*
X0000057559Y0001409763D02*
X0000112677Y0001409763D01*
X0000112677Y0001311338D02*
X0000057559Y0001311338D01*
X0000112677Y0001311338D02*
X0000112677Y0001409763D01*
X0002045354Y0000984960D02*
X0000004015Y0000984960D01*
X0000004015Y0000984960D02*
X0000004015Y0001126692D01*
X0000004015Y0001126692D02*
X0002045354Y0001126692D01*
X0002045354Y0001126692D02*
X0002045354Y0000984960D01*
X0002045354Y0001595196D02*
X0000004015Y0001595196D01*
X0000004015Y0001595196D02*
X0000004015Y0001736929D01*
X0000004015Y0001736929D02*
X0002045354Y0001736929D01*
X0002045354Y0001736929D02*
X0002045354Y0001595196D01*
X0001575275Y0001388897D02*
X0001575275Y0001499133D01*
X0001575275Y0001388897D02*
X0001524094Y0001388897D01*
X0001524094Y0001499133D02*
X0001575275Y0001499133D01*
X0001524094Y0001499133D02*
X0001524094Y0001388897D01*
G04 next file*
G04 Gerber Fmt 4.6, Leading zero omitted, Abs format (unit mm)*
G04 Created by KiCad (PCBNEW 4.0.7) date 11/29/17 18:04:40*
G01G01*
G04 APERTURE LIST*
G04 APERTURE END LIST*
D32*
G04 next file*
G04 Gerber Fmt 4.6, Leading zero omitted, Abs format (unit mm)*
G04 Created by KiCad (PCBNEW 4.0.7) date 11/29/17 18:04:40*
G01G01*
G04 APERTURE LIST*
G04 APERTURE END LIST*
D33*
G04 next file*
G04 Gerber Fmt 4.6, Leading zero omitted, Abs format (unit mm)*
G04 Created by KiCad (PCBNEW 4.0.7) date 11/29/17 18:04:40*
G01G01*
G04 APERTURE LIST*
G04 APERTURE END LIST*
D34*
D35*
X-0000097300Y0001603121D02*
X-0000094488Y0001600309D01*
X-0000091676Y0001594685D01*
X-0000091676Y0001580624D01*
X-0000094488Y0001574999D01*
X-0000097300Y0001572187D01*
X-0000102924Y0001569375D01*
X-0000108548Y0001569375D01*
X-0000116985Y0001572187D01*
X-0000150731Y0001605933D01*
X-0000150731Y0001569375D01*
X-0000097300Y0001546878D02*
X-0000094488Y0001544066D01*
X-0000091676Y0001538442D01*
X-0000091676Y0001524381D01*
X-0000094488Y0001518757D01*
X-0000097300Y0001515944D01*
X-0000102924Y0001513132D01*
X-0000108548Y0001513132D01*
X-0000116985Y0001515944D01*
X-0000150731Y0001549690D01*
X-0000150731Y0001513132D01*
X-0000145106Y0001487823D02*
X-0000147919Y0001485011D01*
X-0000150731Y0001487823D01*
X-0000147919Y0001490635D01*
X-0000145106Y0001487823D01*
X-0000150731Y0001487823D01*
X-0000150731Y0001456889D02*
X-0000150731Y0001445641D01*
X-0000147919Y0001440016D01*
X-0000145106Y0001437204D01*
X-0000136670Y0001431580D01*
X-0000125421Y0001428768D01*
X-0000102924Y0001428768D01*
X-0000097300Y0001431580D01*
X-0000094488Y0001434392D01*
X-0000091676Y0001440016D01*
X-0000091676Y0001451265D01*
X-0000094488Y0001456889D01*
X-0000097300Y0001459701D01*
X-0000102924Y0001462514D01*
X-0000116985Y0001462514D01*
X-0000122609Y0001459701D01*
X-0000125421Y0001456889D01*
X-0000128233Y0001451265D01*
X-0000128233Y0001440016D01*
X-0000125421Y0001434392D01*
X-0000122609Y0001431580D01*
X-0000116985Y0001428768D01*
X-0000150731Y0001400646D02*
X-0000150731Y0001389398D01*
X-0000147919Y0001383773D01*
X-0000145106Y0001380961D01*
X-0000136670Y0001375337D01*
X-0000125421Y0001372525D01*
X-0000102924Y0001372525D01*
X-0000097300Y0001375337D01*
X-0000094488Y0001378149D01*
X-0000091676Y0001383773D01*
X-0000091676Y0001395022D01*
X-0000094488Y0001400646D01*
X-0000097300Y0001403458D01*
X-0000102924Y0001406271D01*
X-0000116985Y0001406271D01*
X-0000122609Y0001403458D01*
X-0000125421Y0001400646D01*
X-0000128233Y0001395022D01*
X-0000128233Y0001383773D01*
X-0000125421Y0001378149D01*
X-0000122609Y0001375337D01*
X-0000116985Y0001372525D01*
X-0000091676Y0001335967D02*
X-0000091676Y0001330343D01*
X-0000094488Y0001324718D01*
X-0000097300Y0001321906D01*
X-0000102924Y0001319094D01*
X-0000114173Y0001316282D01*
X-0000128233Y0001316282D01*
X-0000139482Y0001319094D01*
X-0000145106Y0001321906D01*
X-0000147919Y0001324718D01*
X-0000150731Y0001330343D01*
X-0000150731Y0001335967D01*
X-0000147919Y0001341591D01*
X-0000145106Y0001344403D01*
X-0000139482Y0001347215D01*
X-0000128233Y0001350028D01*
X-0000114173Y0001350028D01*
X-0000102924Y0001347215D01*
X-0000097300Y0001344403D01*
X-0000094488Y0001341591D01*
X-0000091676Y0001335967D01*
X-0000150731Y0001245978D02*
X-0000111361Y0001245978D01*
X-0000116985Y0001245978D02*
X-0000114173Y0001243166D01*
X-0000111361Y0001237542D01*
X-0000111361Y0001229105D01*
X-0000114173Y0001223481D01*
X-0000119797Y0001220669D01*
X-0000150731Y0001220669D01*
X-0000119797Y0001220669D02*
X-0000114173Y0001217857D01*
X-0000111361Y0001212232D01*
X-0000111361Y0001203796D01*
X-0000114173Y0001198172D01*
X-0000119797Y0001195360D01*
X-0000150731Y0001195360D01*
X-0000150731Y0001167238D02*
X-0000111361Y0001167238D01*
X-0000116985Y0001167238D02*
X-0000114173Y0001164426D01*
X-0000111361Y0001158802D01*
X-0000111361Y0001150365D01*
X-0000114173Y0001144741D01*
X-0000119797Y0001141929D01*
X-0000150731Y0001141929D01*
X-0000119797Y0001141929D02*
X-0000114173Y0001139117D01*
X-0000111361Y0001133492D01*
X-0000111361Y0001125056D01*
X-0000114173Y0001119431D01*
X-0000119797Y0001116619D01*
X-0000150731Y0001116619D01*
X-0000070866Y0001811023D02*
X-0000070866Y0000905905D01*
X0000000393Y0001811023D02*
X-0000177165Y0001811023D01*
X0000000393Y0000905905D02*
X-0000177165Y0000905905D01*
X-0000070866Y0000905905D02*
X-0000093953Y0000950256D01*
X-0000070866Y0000905905D02*
X-0000047778Y0000950256D01*
X-0000070866Y0001811023D02*
X-0000093953Y0001766673D01*
X-0000070866Y0001811023D02*
X-0000047778Y0001766673D01*
X0000809810Y0001963599D02*
X0000781689Y0001963604D01*
X0000778871Y0001935483D01*
X0000781684Y0001938295D01*
X0000787308Y0001941106D01*
X0000801369Y0001941103D01*
X0000806993Y0001938290D01*
X0000809805Y0001935477D01*
X0000812616Y0001929852D01*
X0000812613Y0001915792D01*
X0000809800Y0001910168D01*
X0000806987Y0001907356D01*
X0000801362Y0001904545D01*
X0000787301Y0001904548D01*
X0000781678Y0001907361D01*
X0000778866Y0001910174D01*
X0000868854Y0001904532D02*
X0000835108Y0001904539D01*
X0000851981Y0001904536D02*
X0000851992Y0001963591D01*
X0000846366Y0001955155D01*
X0000840741Y0001949532D01*
X0000835116Y0001946721D01*
X0000894164Y0001910152D02*
X0000896976Y0001907339D01*
X0000894163Y0001904527D01*
X0000891351Y0001907340D01*
X0000894164Y0001910152D01*
X0000894163Y0001904527D01*
X0000925097Y0001904522D02*
X0000936345Y0001904519D01*
X0000941970Y0001907330D01*
X0000944783Y0001910142D01*
X0000950409Y0001918577D01*
X0000953223Y0001929825D01*
X0000953227Y0001952323D01*
X0000950416Y0001957947D01*
X0000947605Y0001960760D01*
X0000941981Y0001963573D01*
X0000930732Y0001963576D01*
X0000925107Y0001960764D01*
X0000922295Y0001957953D01*
X0000919482Y0001952329D01*
X0000919479Y0001938268D01*
X0000922290Y0001932644D01*
X0000925102Y0001929831D01*
X0000930725Y0001927018D01*
X0000941974Y0001927015D01*
X0000947599Y0001929827D01*
X0000950411Y0001932638D01*
X0000953225Y0001938262D01*
X0000981340Y0001904511D02*
X0000992588Y0001904509D01*
X0000998213Y0001907320D01*
X0001001026Y0001910131D01*
X0001006652Y0001918567D01*
X0001009466Y0001929815D01*
X0001009470Y0001952312D01*
X0001006659Y0001957937D01*
X0001003848Y0001960749D01*
X0000998224Y0001963563D01*
X0000986975Y0001963565D01*
X0000981350Y0001960754D01*
X0000978538Y0001957942D01*
X0000975725Y0001952318D01*
X0000975722Y0001938258D01*
X0000978533Y0001932633D01*
X0000981345Y0001929820D01*
X0000986968Y0001927007D01*
X0000998217Y0001927005D01*
X0001003842Y0001929816D01*
X0001006654Y0001932627D01*
X0001009468Y0001938251D01*
X0001046030Y0001963553D02*
X0001051655Y0001963552D01*
X0001057278Y0001960739D01*
X0001060090Y0001957926D01*
X0001062901Y0001952302D01*
X0001065711Y0001941052D01*
X0001065708Y0001926992D01*
X0001062894Y0001915744D01*
X0001060081Y0001910120D01*
X0001057268Y0001907308D01*
X0001051643Y0001904497D01*
X0001046019Y0001904498D01*
X0001040395Y0001907311D01*
X0001037584Y0001910124D01*
X0001034773Y0001915749D01*
X0001031963Y0001926998D01*
X0001031965Y0001941059D01*
X0001034780Y0001952307D01*
X0001037593Y0001957931D01*
X0001040406Y0001960742D01*
X0001046030Y0001963553D01*
X0001136008Y0001904481D02*
X0001136015Y0001943851D01*
X0001136014Y0001938227D02*
X0001138827Y0001941038D01*
X0001144452Y0001943849D01*
X0001152888Y0001943848D01*
X0001158512Y0001941035D01*
X0001161323Y0001935410D01*
X0001161317Y0001904476D01*
X0001161323Y0001935410D02*
X0001164136Y0001941033D01*
X0001169761Y0001943845D01*
X0001178198Y0001943843D01*
X0001183821Y0001941030D01*
X0001186632Y0001935405D01*
X0001186626Y0001904471D01*
X0001214748Y0001904466D02*
X0001214756Y0001943836D01*
X0001214754Y0001938212D02*
X0001217567Y0001941023D01*
X0001223192Y0001943834D01*
X0001231628Y0001943833D01*
X0001237252Y0001941019D01*
X0001240063Y0001935395D01*
X0001240057Y0001904461D01*
X0001240063Y0001935395D02*
X0001242876Y0001941018D01*
X0001248501Y0001943829D01*
X0001256938Y0001943828D01*
X0001262561Y0001941015D01*
X0001265373Y0001935390D01*
X0001265367Y0001904456D01*
X0000000092Y0001878265D02*
X0002046942Y0001877872D01*
X0000000078Y0001808582D02*
X0000000112Y0001984564D01*
X0002046929Y0001808188D02*
X0002046962Y0001984171D01*
X0002046942Y0001877872D02*
X0002002587Y0001854793D01*
X0002046942Y0001877872D02*
X0002002596Y0001900967D01*
X0000000092Y0001878265D02*
X0000044438Y0001855169D01*
X0000000092Y0001878265D02*
X0000044447Y0001901344D01*
G04 next file*
G04 Gerber Fmt 4.6, Leading zero omitted, Abs format (unit mm)*
G04 Created by KiCad (PCBNEW 4.0.7) date 11/29/17 18:04:40*
G01G01*
G04 APERTURE LIST*
G04 APERTURE END LIST*
D36*
G04 next file*
G04 Gerber Fmt 4.6, Leading zero omitted, Abs format (unit mm)*
G04 Created by KiCad (PCBNEW 4.0.7) date 11/29/17 18:04:40*
G01G01*
G04 APERTURE LIST*
G04 APERTURE END LIST*
D37*
D38*
X0001622913Y0001506220D02*
X0001402440Y0001506220D01*
X0001402440Y0001506220D02*
X0001402440Y0001167637D01*
X0001402440Y0001167637D02*
X0001622913Y0001167637D01*
X0001622913Y0001167637D02*
X0001622913Y0001506220D01*
X0001158346Y0001109370D02*
X0001378818Y0001109370D01*
X0001378818Y0001109370D02*
X0001378818Y0001585748D01*
X0001378818Y0001585748D02*
X0001158346Y0001585748D01*
X0001158346Y0001585748D02*
X0001158346Y0001109370D01*
X0001809921Y0001626692D02*
X0001809921Y0001085354D01*
X0001809921Y0001085354D02*
X0002296141Y0001085354D01*
X0002296141Y0001085354D02*
X0002296141Y0001626692D01*
X0002296141Y0001626692D02*
X0001809921Y0001626692D01*
X0000289842Y0001607007D02*
X0000624488Y0001607007D01*
X0000624488Y0001607007D02*
X0000624488Y0001370787D01*
X0000624488Y0001370787D02*
X0000289842Y0001370787D01*
X0000289842Y0001370787D02*
X0000289842Y0001607007D01*
X0000626377Y0001366929D02*
X0000285826Y0001366929D01*
X0000285826Y0001366929D02*
X0000285826Y0001124803D01*
X0000285826Y0001124803D02*
X0000626377Y0001124803D01*
X0000626377Y0001124803D02*
X0000626377Y0001366929D01*
X0001672519Y0001544015D02*
X0001739448Y0001544015D01*
X0001739448Y0001544015D02*
X0001739448Y0001390472D01*
X0001739448Y0001390472D02*
X0001672519Y0001390472D01*
X0001672519Y0001390472D02*
X0001672519Y0001544015D01*
X0001672519Y0001330236D02*
X0001739448Y0001330236D01*
X0001739448Y0001330236D02*
X0001739448Y0001176692D01*
X0001739448Y0001176692D02*
X0001672519Y0001176692D01*
X0001672519Y0001176692D02*
X0001672519Y0001330236D01*
G04 next file*
G04 Gerber Fmt 4.6, Leading zero omitted, Abs format (unit mm)*
G04 Created by KiCad (PCBNEW 4.0.7) date 11/29/17 18:04:40*
G01G01*
G04 APERTURE LIST*
G04 APERTURE END LIST*
D39*
G04 next file*
G04 Gerber Fmt 4.6, Leading zero omitted, Abs format (unit mm)*
G04 Created by KiCad (PCBNEW 4.0.7) date 11/29/17 18:04:40*
G01G01*
G04 APERTURE LIST*
G04 APERTURE END LIST*
D40*
D41*
X0000068582Y0002044803D02*
X0000167007Y0002044803D01*
X0000068582Y0002044803D02*
X0000068582Y0002099921D01*
X0000167007Y0002099921D02*
X0000167007Y0002044803D01*
X0000167007Y0002099921D02*
X0000068582Y0002099921D01*
X0001210708Y0002208188D02*
X0001320944Y0002208188D01*
X0001210708Y0002208188D02*
X0001210708Y0002259370D01*
X0001320944Y0002259370D02*
X0001320944Y0002208188D01*
X0001320944Y0002259370D02*
X0001210708Y0002259370D01*
X0001334330Y0002199133D02*
X0001334330Y0002088897D01*
X0001334330Y0002199133D02*
X0001385511Y0002199133D01*
X0001385511Y0002088897D02*
X0001334330Y0002088897D01*
X0001385511Y0002088897D02*
X0001385511Y0002199133D01*
X0001801259Y0002086929D02*
X0001801259Y0002197165D01*
X0001801259Y0002086929D02*
X0001750078Y0002086929D01*
X0001750078Y0002197165D02*
X0001801259Y0002197165D01*
X0001750078Y0002197165D02*
X0001750078Y0002086929D01*
X0000280787Y0002487322D02*
X0000170551Y0002487322D01*
X0000280787Y0002487322D02*
X0000280787Y0002436141D01*
X0000170551Y0002436141D02*
X0000170551Y0002487322D01*
X0000170551Y0002436141D02*
X0000280787Y0002436141D01*
X0000602834Y0002433779D02*
X0000713070Y0002433779D01*
X0000602834Y0002433779D02*
X0000602834Y0002484960D01*
X0000713070Y0002484960D02*
X0000713070Y0002433779D01*
X0000713070Y0002484960D02*
X0000602834Y0002484960D01*
X0000638267Y0002194803D02*
X0000638267Y0002096377D01*
X0000638267Y0002194803D02*
X0000693385Y0002194803D01*
X0000693385Y0002096377D02*
X0000638267Y0002096377D01*
X0000693385Y0002096377D02*
X0000693385Y0002194803D01*
X0000757559Y0002090866D02*
X0000757559Y0002201102D01*
X0000757559Y0002090866D02*
X0000706377Y0002090866D01*
X0000706377Y0002201102D02*
X0000757559Y0002201102D01*
X0000706377Y0002201102D02*
X0000706377Y0002090866D01*
X0000770944Y0002200708D02*
X0000770944Y0002090472D01*
X0000770944Y0002200708D02*
X0000822125Y0002200708D01*
X0000822125Y0002090472D02*
X0000770944Y0002090472D01*
X0000822125Y0002090472D02*
X0000822125Y0002200708D01*
X0000834724Y0002077480D02*
X0000984330Y0002077480D01*
X0000984330Y0002077480D02*
X0000984330Y0002219212D01*
X0000984330Y0002219212D02*
X0000834724Y0002219212D01*
X0000834724Y0002219212D02*
X0000834724Y0002077480D01*
X0001009133Y0002201889D02*
X0001009133Y0002091653D01*
X0001009133Y0002201889D02*
X0001060314Y0002201889D01*
X0001060314Y0002091653D02*
X0001009133Y0002091653D01*
X0001060314Y0002091653D02*
X0001060314Y0002201889D01*
X0001077637Y0002201496D02*
X0001077637Y0002091259D01*
X0001077637Y0002201496D02*
X0001128818Y0002201496D01*
X0001128818Y0002091259D02*
X0001077637Y0002091259D01*
X0001128818Y0002091259D02*
X0001128818Y0002201496D01*
X0001154015Y0002194803D02*
X0001154015Y0002096377D01*
X0001154015Y0002194803D02*
X0001209133Y0002194803D01*
X0001209133Y0002096377D02*
X0001154015Y0002096377D01*
X0001209133Y0002096377D02*
X0001209133Y0002194803D01*
X0001554803Y0002192440D02*
X0001554803Y0002094015D01*
X0001554803Y0002192440D02*
X0001609921Y0002192440D01*
X0001609921Y0002094015D02*
X0001554803Y0002094015D01*
X0001609921Y0002094015D02*
X0001609921Y0002192440D01*
X0001736299Y0002087716D02*
X0001736299Y0002197952D01*
X0001736299Y0002087716D02*
X0001685118Y0002087716D01*
X0001685118Y0002197952D02*
X0001736299Y0002197952D01*
X0001685118Y0002197952D02*
X0001685118Y0002087716D01*
X0001596062Y0002393700D02*
X0001596062Y0002295275D01*
X0001596062Y0002393700D02*
X0001651181Y0002393700D01*
X0001651181Y0002295275D02*
X0001596062Y0002295275D01*
X0001651181Y0002295275D02*
X0001651181Y0002393700D01*
X0001502047Y0002294409D02*
X0001502047Y0002404645D01*
X0001502047Y0002294409D02*
X0001450866Y0002294409D01*
X0001450866Y0002404645D02*
X0001502047Y0002404645D01*
X0001450866Y0002404645D02*
X0001450866Y0002294409D01*
X0001376062Y0002405433D02*
X0001376062Y0002295196D01*
X0001376062Y0002405433D02*
X0001427244Y0002405433D01*
X0001427244Y0002295196D02*
X0001376062Y0002295196D01*
X0001427244Y0002295196D02*
X0001427244Y0002405433D01*
X0001307952Y0002405433D02*
X0001307952Y0002295196D01*
X0001307952Y0002405433D02*
X0001359133Y0002405433D01*
X0001359133Y0002295196D02*
X0001307952Y0002295196D01*
X0001359133Y0002295196D02*
X0001359133Y0002405433D01*
X0001211889Y0002299527D02*
X0001211889Y0002397952D01*
X0001211889Y0002299527D02*
X0001156771Y0002299527D01*
X0001156771Y0002397952D02*
X0001211889Y0002397952D01*
X0001156771Y0002397952D02*
X0001156771Y0002299527D01*
X0001118976Y0002295196D02*
X0001118976Y0002405433D01*
X0001118976Y0002295196D02*
X0001067795Y0002295196D01*
X0001067795Y0002405433D02*
X0001118976Y0002405433D01*
X0001067795Y0002405433D02*
X0001067795Y0002295196D01*
X0000836299Y0002295590D02*
X0000836299Y0002405826D01*
X0000836299Y0002295590D02*
X0000785118Y0002295590D01*
X0000785118Y0002405826D02*
X0000836299Y0002405826D01*
X0000785118Y0002405826D02*
X0000785118Y0002295590D01*
X0001044960Y0002295590D02*
X0001044960Y0002405826D01*
X0001044960Y0002295590D02*
X0000993779Y0002295590D01*
X0000993779Y0002405826D02*
X0001044960Y0002405826D01*
X0000993779Y0002405826D02*
X0000993779Y0002295590D01*
X0000904409Y0002294803D02*
X0000904409Y0002405039D01*
X0000904409Y0002294803D02*
X0000853228Y0002294803D01*
X0000853228Y0002405039D02*
X0000904409Y0002405039D01*
X0000853228Y0002405039D02*
X0000853228Y0002294803D01*
X0000978425Y0002295984D02*
X0000978425Y0002406220D01*
X0000978425Y0002295984D02*
X0000927244Y0002295984D01*
X0000927244Y0002406220D02*
X0000978425Y0002406220D01*
X0000927244Y0002406220D02*
X0000927244Y0002295984D01*
X0000711496Y0002400708D02*
X0000711496Y0002302283D01*
X0000711496Y0002400708D02*
X0000766614Y0002400708D01*
X0000766614Y0002302283D02*
X0000711496Y0002302283D01*
X0000766614Y0002302283D02*
X0000766614Y0002400708D01*
X0000536220Y0002487795D02*
X0000437795Y0002487795D01*
X0000536220Y0002487795D02*
X0000536220Y0002432677D01*
X0000437795Y0002432677D02*
X0000437795Y0002487795D01*
X0000437795Y0002432677D02*
X0000536220Y0002432677D01*
X0000428425Y0002416850D02*
X0000578031Y0002416850D01*
X0000428425Y0002275118D02*
X0000428425Y0002416850D01*
X0000578031Y0002275118D02*
X0000428425Y0002275118D01*
X0000578031Y0002416850D02*
X0000578031Y0002275118D01*
X0000391811Y0002344409D02*
X0000293385Y0002344409D01*
X0000391811Y0002344409D02*
X0000391811Y0002289291D01*
X0000293385Y0002289291D02*
X0000293385Y0002344409D01*
X0000293385Y0002289291D02*
X0000391811Y0002289291D01*
X0000391811Y0002419606D02*
X0000293385Y0002419606D01*
X0000391811Y0002419606D02*
X0000391811Y0002364488D01*
X0000293385Y0002364488D02*
X0000293385Y0002419606D01*
X0000293385Y0002364488D02*
X0000391811Y0002364488D01*
X0000057559Y0002315275D02*
X0000057559Y0002216850D01*
X0000057559Y0002315275D02*
X0000112677Y0002315275D01*
X0000112677Y0002216850D02*
X0000057559Y0002216850D01*
X0000112677Y0002216850D02*
X0000112677Y0002315275D01*
X0002045354Y0001890472D02*
X0000004015Y0001890472D01*
X0000004015Y0001890472D02*
X0000004015Y0002032204D01*
X0000004015Y0002032204D02*
X0002045354Y0002032204D01*
X0002045354Y0002032204D02*
X0002045354Y0001890472D01*
X0002045354Y0002500708D02*
X0000004015Y0002500708D01*
X0000004015Y0002500708D02*
X0000004015Y0002642440D01*
X0000004015Y0002642440D02*
X0002045354Y0002642440D01*
X0002045354Y0002642440D02*
X0002045354Y0002500708D01*
X0001575275Y0002294409D02*
X0001575275Y0002404645D01*
X0001575275Y0002294409D02*
X0001524094Y0002294409D01*
X0001524094Y0002404645D02*
X0001575275Y0002404645D01*
X0001524094Y0002404645D02*
X0001524094Y0002294409D01*
G04 next file*
G04 Gerber Fmt 4.6, Leading zero omitted, Abs format (unit mm)*
G04 Created by KiCad (PCBNEW 4.0.7) date 11/29/17 18:04:40*
G01G01*
G04 APERTURE LIST*
G04 APERTURE END LIST*
D42*
G04 next file*
G04 Gerber Fmt 4.6, Leading zero omitted, Abs format (unit mm)*
G04 Created by KiCad (PCBNEW 4.0.7) date 11/29/17 18:04:40*
G01G01*
G04 APERTURE LIST*
G04 APERTURE END LIST*
D43*
G04 next file*
G04 Gerber Fmt 4.6, Leading zero omitted, Abs format (unit mm)*
G04 Created by KiCad (PCBNEW 4.0.7) date 11/29/17 18:04:40*
G01G01*
G04 APERTURE LIST*
G04 APERTURE END LIST*
D44*
D45*
X-0000097300Y0002508633D02*
X-0000094488Y0002505821D01*
X-0000091676Y0002500196D01*
X-0000091676Y0002486136D01*
X-0000094488Y0002480511D01*
X-0000097300Y0002477699D01*
X-0000102924Y0002474887D01*
X-0000108548Y0002474887D01*
X-0000116985Y0002477699D01*
X-0000150731Y0002511445D01*
X-0000150731Y0002474887D01*
X-0000097300Y0002452390D02*
X-0000094488Y0002449578D01*
X-0000091676Y0002443953D01*
X-0000091676Y0002429893D01*
X-0000094488Y0002424268D01*
X-0000097300Y0002421456D01*
X-0000102924Y0002418644D01*
X-0000108548Y0002418644D01*
X-0000116985Y0002421456D01*
X-0000150731Y0002455202D01*
X-0000150731Y0002418644D01*
X-0000145106Y0002393335D02*
X-0000147919Y0002390523D01*
X-0000150731Y0002393335D01*
X-0000147919Y0002396147D01*
X-0000145106Y0002393335D01*
X-0000150731Y0002393335D01*
X-0000150731Y0002362401D02*
X-0000150731Y0002351152D01*
X-0000147919Y0002345528D01*
X-0000145106Y0002342716D01*
X-0000136670Y0002337092D01*
X-0000125421Y0002334280D01*
X-0000102924Y0002334280D01*
X-0000097300Y0002337092D01*
X-0000094488Y0002339904D01*
X-0000091676Y0002345528D01*
X-0000091676Y0002356777D01*
X-0000094488Y0002362401D01*
X-0000097300Y0002365213D01*
X-0000102924Y0002368025D01*
X-0000116985Y0002368025D01*
X-0000122609Y0002365213D01*
X-0000125421Y0002362401D01*
X-0000128233Y0002356777D01*
X-0000128233Y0002345528D01*
X-0000125421Y0002339904D01*
X-0000122609Y0002337092D01*
X-0000116985Y0002334280D01*
X-0000150731Y0002306158D02*
X-0000150731Y0002294910D01*
X-0000147919Y0002289285D01*
X-0000145106Y0002286473D01*
X-0000136670Y0002280849D01*
X-0000125421Y0002278037D01*
X-0000102924Y0002278037D01*
X-0000097300Y0002280849D01*
X-0000094488Y0002283661D01*
X-0000091676Y0002289285D01*
X-0000091676Y0002300534D01*
X-0000094488Y0002306158D01*
X-0000097300Y0002308970D01*
X-0000102924Y0002311782D01*
X-0000116985Y0002311782D01*
X-0000122609Y0002308970D01*
X-0000125421Y0002306158D01*
X-0000128233Y0002300534D01*
X-0000128233Y0002289285D01*
X-0000125421Y0002283661D01*
X-0000122609Y0002280849D01*
X-0000116985Y0002278037D01*
X-0000091676Y0002241479D02*
X-0000091676Y0002235854D01*
X-0000094488Y0002230230D01*
X-0000097300Y0002227418D01*
X-0000102924Y0002224606D01*
X-0000114173Y0002221794D01*
X-0000128233Y0002221794D01*
X-0000139482Y0002224606D01*
X-0000145106Y0002227418D01*
X-0000147919Y0002230230D01*
X-0000150731Y0002235854D01*
X-0000150731Y0002241479D01*
X-0000147919Y0002247103D01*
X-0000145106Y0002249915D01*
X-0000139482Y0002252727D01*
X-0000128233Y0002255539D01*
X-0000114173Y0002255539D01*
X-0000102924Y0002252727D01*
X-0000097300Y0002249915D01*
X-0000094488Y0002247103D01*
X-0000091676Y0002241479D01*
X-0000150731Y0002151490D02*
X-0000111361Y0002151490D01*
X-0000116985Y0002151490D02*
X-0000114173Y0002148678D01*
X-0000111361Y0002143054D01*
X-0000111361Y0002134617D01*
X-0000114173Y0002128993D01*
X-0000119797Y0002126181D01*
X-0000150731Y0002126181D01*
X-0000119797Y0002126181D02*
X-0000114173Y0002123368D01*
X-0000111361Y0002117744D01*
X-0000111361Y0002109308D01*
X-0000114173Y0002103683D01*
X-0000119797Y0002100871D01*
X-0000150731Y0002100871D01*
X-0000150731Y0002072750D02*
X-0000111361Y0002072750D01*
X-0000116985Y0002072750D02*
X-0000114173Y0002069938D01*
X-0000111361Y0002064313D01*
X-0000111361Y0002055877D01*
X-0000114173Y0002050253D01*
X-0000119797Y0002047440D01*
X-0000150731Y0002047440D01*
X-0000119797Y0002047440D02*
X-0000114173Y0002044628D01*
X-0000111361Y0002039004D01*
X-0000111361Y0002030568D01*
X-0000114173Y0002024943D01*
X-0000119797Y0002022131D01*
X-0000150731Y0002022131D01*
X-0000070866Y0002716535D02*
X-0000070866Y0001811417D01*
X0000000393Y0002716535D02*
X-0000177165Y0002716535D01*
X0000000393Y0001811417D02*
X-0000177165Y0001811417D01*
X-0000070866Y0001811417D02*
X-0000093953Y0001855767D01*
X-0000070866Y0001811417D02*
X-0000047778Y0001855767D01*
X-0000070866Y0002716535D02*
X-0000093953Y0002672184D01*
X-0000070866Y0002716535D02*
X-0000047778Y0002672184D01*
X0000809810Y0002869111D02*
X0000781689Y0002869116D01*
X0000778871Y0002840995D01*
X0000781684Y0002843807D01*
X0000787308Y0002846618D01*
X0000801369Y0002846615D01*
X0000806993Y0002843802D01*
X0000809805Y0002840989D01*
X0000812616Y0002835364D01*
X0000812613Y0002821304D01*
X0000809800Y0002815680D01*
X0000806987Y0002812868D01*
X0000801362Y0002810057D01*
X0000787301Y0002810060D01*
X0000781678Y0002812873D01*
X0000778866Y0002815686D01*
X0000868854Y0002810044D02*
X0000835108Y0002810051D01*
X0000851981Y0002810047D02*
X0000851992Y0002869102D01*
X0000846366Y0002860667D01*
X0000840741Y0002855044D01*
X0000835116Y0002852233D01*
X0000894164Y0002815664D02*
X0000896976Y0002812851D01*
X0000894163Y0002810039D01*
X0000891351Y0002812852D01*
X0000894164Y0002815664D01*
X0000894163Y0002810039D01*
X0000925097Y0002810033D02*
X0000936345Y0002810031D01*
X0000941970Y0002812842D01*
X0000944783Y0002815654D01*
X0000950409Y0002824089D01*
X0000953223Y0002835337D01*
X0000953227Y0002857834D01*
X0000950416Y0002863459D01*
X0000947605Y0002866272D01*
X0000941981Y0002869085D01*
X0000930732Y0002869087D01*
X0000925107Y0002866276D01*
X0000922295Y0002863465D01*
X0000919482Y0002857841D01*
X0000919479Y0002843780D01*
X0000922290Y0002838155D01*
X0000925102Y0002835343D01*
X0000930725Y0002832529D01*
X0000941974Y0002832527D01*
X0000947599Y0002835338D01*
X0000950411Y0002838150D01*
X0000953225Y0002843774D01*
X0000981340Y0002810022D02*
X0000992588Y0002810020D01*
X0000998213Y0002812831D01*
X0001001026Y0002815643D01*
X0001006652Y0002824078D01*
X0001009466Y0002835326D01*
X0001009470Y0002857824D01*
X0001006659Y0002863448D01*
X0001003848Y0002866261D01*
X0000998224Y0002869074D01*
X0000986975Y0002869077D01*
X0000981350Y0002866265D01*
X0000978538Y0002863454D01*
X0000975725Y0002857830D01*
X0000975722Y0002843769D01*
X0000978533Y0002838145D01*
X0000981345Y0002835332D01*
X0000986968Y0002832519D01*
X0000998217Y0002832516D01*
X0001003842Y0002835327D01*
X0001006654Y0002838139D01*
X0001009468Y0002843763D01*
X0001046030Y0002869065D02*
X0001051655Y0002869064D01*
X0001057278Y0002866251D01*
X0001060090Y0002863438D01*
X0001062901Y0002857813D01*
X0001065711Y0002846564D01*
X0001065708Y0002832503D01*
X0001062894Y0002821255D01*
X0001060081Y0002815632D01*
X0001057268Y0002812820D01*
X0001051643Y0002810009D01*
X0001046019Y0002810010D01*
X0001040395Y0002812823D01*
X0001037584Y0002815636D01*
X0001034773Y0002821261D01*
X0001031963Y0002832510D01*
X0001031965Y0002846571D01*
X0001034780Y0002857819D01*
X0001037593Y0002863442D01*
X0001040406Y0002866254D01*
X0001046030Y0002869065D01*
X0001136008Y0002809993D02*
X0001136015Y0002849363D01*
X0001136014Y0002843738D02*
X0001138827Y0002846550D01*
X0001144452Y0002849361D01*
X0001152888Y0002849360D01*
X0001158512Y0002846546D01*
X0001161323Y0002840922D01*
X0001161317Y0002809988D01*
X0001161323Y0002840922D02*
X0001164136Y0002846545D01*
X0001169761Y0002849356D01*
X0001178198Y0002849355D01*
X0001183821Y0002846541D01*
X0001186632Y0002840917D01*
X0001186626Y0002809983D01*
X0001214748Y0002809978D02*
X0001214756Y0002849348D01*
X0001214754Y0002843723D02*
X0001217567Y0002846535D01*
X0001223192Y0002849346D01*
X0001231628Y0002849344D01*
X0001237252Y0002846531D01*
X0001240063Y0002840906D01*
X0001240057Y0002809973D01*
X0001240063Y0002840906D02*
X0001242876Y0002846530D01*
X0001248501Y0002849341D01*
X0001256938Y0002849340D01*
X0001262561Y0002846526D01*
X0001265373Y0002840901D01*
X0001265367Y0002809968D01*
X0000000092Y0002783777D02*
X0002046942Y0002783383D01*
X0000000078Y0002714094D02*
X0000000112Y0002890076D01*
X0002046929Y0002713700D02*
X0002046962Y0002889683D01*
X0002046942Y0002783383D02*
X0002002587Y0002760304D01*
X0002046942Y0002783383D02*
X0002002596Y0002806479D01*
X0000000092Y0002783777D02*
X0000044438Y0002760681D01*
X0000000092Y0002783777D02*
X0000044447Y0002806856D01*
G04 next file*
G04 Gerber Fmt 4.6, Leading zero omitted, Abs format (unit mm)*
G04 Created by KiCad (PCBNEW 4.0.7) date 11/29/17 18:04:40*
G01G01*
G04 APERTURE LIST*
G04 APERTURE END LIST*
D46*
G04 next file*
G04 Gerber Fmt 4.6, Leading zero omitted, Abs format (unit mm)*
G04 Created by KiCad (PCBNEW 4.0.7) date 11/29/17 18:04:40*
G01G01*
G04 APERTURE LIST*
G04 APERTURE END LIST*
D47*
D48*
X0001622913Y0002411732D02*
X0001402440Y0002411732D01*
X0001402440Y0002411732D02*
X0001402440Y0002073149D01*
X0001402440Y0002073149D02*
X0001622913Y0002073149D01*
X0001622913Y0002073149D02*
X0001622913Y0002411732D01*
X0001158346Y0002014881D02*
X0001378818Y0002014881D01*
X0001378818Y0002014881D02*
X0001378818Y0002491259D01*
X0001378818Y0002491259D02*
X0001158346Y0002491259D01*
X0001158346Y0002491259D02*
X0001158346Y0002014881D01*
X0001809921Y0002532204D02*
X0001809921Y0001990866D01*
X0001809921Y0001990866D02*
X0002296141Y0001990866D01*
X0002296141Y0001990866D02*
X0002296141Y0002532204D01*
X0002296141Y0002532204D02*
X0001809921Y0002532204D01*
X0000289842Y0002512519D02*
X0000624488Y0002512519D01*
X0000624488Y0002512519D02*
X0000624488Y0002276299D01*
X0000624488Y0002276299D02*
X0000289842Y0002276299D01*
X0000289842Y0002276299D02*
X0000289842Y0002512519D01*
X0000626377Y0002272440D02*
X0000285826Y0002272440D01*
X0000285826Y0002272440D02*
X0000285826Y0002030314D01*
X0000285826Y0002030314D02*
X0000626377Y0002030314D01*
X0000626377Y0002030314D02*
X0000626377Y0002272440D01*
X0001672519Y0002449527D02*
X0001739448Y0002449527D01*
X0001739448Y0002449527D02*
X0001739448Y0002295984D01*
X0001739448Y0002295984D02*
X0001672519Y0002295984D01*
X0001672519Y0002295984D02*
X0001672519Y0002449527D01*
X0001672519Y0002235748D02*
X0001739448Y0002235748D01*
X0001739448Y0002235748D02*
X0001739448Y0002082204D01*
X0001739448Y0002082204D02*
X0001672519Y0002082204D01*
X0001672519Y0002082204D02*
X0001672519Y0002235748D01*
G04 next file*
G04 Gerber Fmt 4.6, Leading zero omitted, Abs format (unit mm)*
G04 Created by KiCad (PCBNEW 4.0.7) date 11/29/17 18:04:40*
G01G01*
G04 APERTURE LIST*
G04 APERTURE END LIST*
D49*
G04 next file*
G04 Gerber Fmt 4.6, Leading zero omitted, Abs format (unit mm)*
G04 Created by KiCad (PCBNEW 4.0.7) date 11/29/17 18:04:40*
G01G01*
G04 APERTURE LIST*
G04 APERTURE END LIST*
D50*
D51*
X0000068582Y0002950314D02*
X0000167007Y0002950314D01*
X0000068582Y0002950314D02*
X0000068582Y0003005433D01*
X0000167007Y0003005433D02*
X0000167007Y0002950314D01*
X0000167007Y0003005433D02*
X0000068582Y0003005433D01*
X0001210708Y0003113700D02*
X0001320944Y0003113700D01*
X0001210708Y0003113700D02*
X0001210708Y0003164881D01*
X0001320944Y0003164881D02*
X0001320944Y0003113700D01*
X0001320944Y0003164881D02*
X0001210708Y0003164881D01*
X0001334330Y0003104645D02*
X0001334330Y0002994409D01*
X0001334330Y0003104645D02*
X0001385511Y0003104645D01*
X0001385511Y0002994409D02*
X0001334330Y0002994409D01*
X0001385511Y0002994409D02*
X0001385511Y0003104645D01*
X0001801259Y0002992440D02*
X0001801259Y0003102677D01*
X0001801259Y0002992440D02*
X0001750078Y0002992440D01*
X0001750078Y0003102677D02*
X0001801259Y0003102677D01*
X0001750078Y0003102677D02*
X0001750078Y0002992440D01*
X0000280787Y0003392834D02*
X0000170551Y0003392834D01*
X0000280787Y0003392834D02*
X0000280787Y0003341653D01*
X0000170551Y0003341653D02*
X0000170551Y0003392834D01*
X0000170551Y0003341653D02*
X0000280787Y0003341653D01*
X0000602834Y0003339291D02*
X0000713070Y0003339291D01*
X0000602834Y0003339291D02*
X0000602834Y0003390472D01*
X0000713070Y0003390472D02*
X0000713070Y0003339291D01*
X0000713070Y0003390472D02*
X0000602834Y0003390472D01*
X0000638267Y0003100314D02*
X0000638267Y0003001889D01*
X0000638267Y0003100314D02*
X0000693385Y0003100314D01*
X0000693385Y0003001889D02*
X0000638267Y0003001889D01*
X0000693385Y0003001889D02*
X0000693385Y0003100314D01*
X0000757559Y0002996377D02*
X0000757559Y0003106614D01*
X0000757559Y0002996377D02*
X0000706377Y0002996377D01*
X0000706377Y0003106614D02*
X0000757559Y0003106614D01*
X0000706377Y0003106614D02*
X0000706377Y0002996377D01*
X0000770944Y0003106220D02*
X0000770944Y0002995984D01*
X0000770944Y0003106220D02*
X0000822125Y0003106220D01*
X0000822125Y0002995984D02*
X0000770944Y0002995984D01*
X0000822125Y0002995984D02*
X0000822125Y0003106220D01*
X0000834724Y0002982992D02*
X0000984330Y0002982992D01*
X0000984330Y0002982992D02*
X0000984330Y0003124724D01*
X0000984330Y0003124724D02*
X0000834724Y0003124724D01*
X0000834724Y0003124724D02*
X0000834724Y0002982992D01*
X0001009133Y0003107401D02*
X0001009133Y0002997165D01*
X0001009133Y0003107401D02*
X0001060314Y0003107401D01*
X0001060314Y0002997165D02*
X0001009133Y0002997165D01*
X0001060314Y0002997165D02*
X0001060314Y0003107401D01*
X0001077637Y0003107007D02*
X0001077637Y0002996771D01*
X0001077637Y0003107007D02*
X0001128818Y0003107007D01*
X0001128818Y0002996771D02*
X0001077637Y0002996771D01*
X0001128818Y0002996771D02*
X0001128818Y0003107007D01*
X0001154015Y0003100314D02*
X0001154015Y0003001889D01*
X0001154015Y0003100314D02*
X0001209133Y0003100314D01*
X0001209133Y0003001889D02*
X0001154015Y0003001889D01*
X0001209133Y0003001889D02*
X0001209133Y0003100314D01*
X0001554803Y0003097952D02*
X0001554803Y0002999527D01*
X0001554803Y0003097952D02*
X0001609921Y0003097952D01*
X0001609921Y0002999527D02*
X0001554803Y0002999527D01*
X0001609921Y0002999527D02*
X0001609921Y0003097952D01*
X0001736299Y0002993228D02*
X0001736299Y0003103464D01*
X0001736299Y0002993228D02*
X0001685118Y0002993228D01*
X0001685118Y0003103464D02*
X0001736299Y0003103464D01*
X0001685118Y0003103464D02*
X0001685118Y0002993228D01*
X0001596062Y0003299212D02*
X0001596062Y0003200787D01*
X0001596062Y0003299212D02*
X0001651181Y0003299212D01*
X0001651181Y0003200787D02*
X0001596062Y0003200787D01*
X0001651181Y0003200787D02*
X0001651181Y0003299212D01*
X0001502047Y0003199921D02*
X0001502047Y0003310157D01*
X0001502047Y0003199921D02*
X0001450866Y0003199921D01*
X0001450866Y0003310157D02*
X0001502047Y0003310157D01*
X0001450866Y0003310157D02*
X0001450866Y0003199921D01*
X0001376062Y0003310944D02*
X0001376062Y0003200708D01*
X0001376062Y0003310944D02*
X0001427244Y0003310944D01*
X0001427244Y0003200708D02*
X0001376062Y0003200708D01*
X0001427244Y0003200708D02*
X0001427244Y0003310944D01*
X0001307952Y0003310944D02*
X0001307952Y0003200708D01*
X0001307952Y0003310944D02*
X0001359133Y0003310944D01*
X0001359133Y0003200708D02*
X0001307952Y0003200708D01*
X0001359133Y0003200708D02*
X0001359133Y0003310944D01*
X0001211889Y0003205039D02*
X0001211889Y0003303464D01*
X0001211889Y0003205039D02*
X0001156771Y0003205039D01*
X0001156771Y0003303464D02*
X0001211889Y0003303464D01*
X0001156771Y0003303464D02*
X0001156771Y0003205039D01*
X0001118976Y0003200708D02*
X0001118976Y0003310944D01*
X0001118976Y0003200708D02*
X0001067795Y0003200708D01*
X0001067795Y0003310944D02*
X0001118976Y0003310944D01*
X0001067795Y0003310944D02*
X0001067795Y0003200708D01*
X0000836299Y0003201102D02*
X0000836299Y0003311338D01*
X0000836299Y0003201102D02*
X0000785118Y0003201102D01*
X0000785118Y0003311338D02*
X0000836299Y0003311338D01*
X0000785118Y0003311338D02*
X0000785118Y0003201102D01*
X0001044960Y0003201102D02*
X0001044960Y0003311338D01*
X0001044960Y0003201102D02*
X0000993779Y0003201102D01*
X0000993779Y0003311338D02*
X0001044960Y0003311338D01*
X0000993779Y0003311338D02*
X0000993779Y0003201102D01*
X0000904409Y0003200314D02*
X0000904409Y0003310551D01*
X0000904409Y0003200314D02*
X0000853228Y0003200314D01*
X0000853228Y0003310551D02*
X0000904409Y0003310551D01*
X0000853228Y0003310551D02*
X0000853228Y0003200314D01*
X0000978425Y0003201496D02*
X0000978425Y0003311732D01*
X0000978425Y0003201496D02*
X0000927244Y0003201496D01*
X0000927244Y0003311732D02*
X0000978425Y0003311732D01*
X0000927244Y0003311732D02*
X0000927244Y0003201496D01*
X0000711496Y0003306220D02*
X0000711496Y0003207795D01*
X0000711496Y0003306220D02*
X0000766614Y0003306220D01*
X0000766614Y0003207795D02*
X0000711496Y0003207795D01*
X0000766614Y0003207795D02*
X0000766614Y0003306220D01*
X0000536220Y0003393307D02*
X0000437795Y0003393307D01*
X0000536220Y0003393307D02*
X0000536220Y0003338188D01*
X0000437795Y0003338188D02*
X0000437795Y0003393307D01*
X0000437795Y0003338188D02*
X0000536220Y0003338188D01*
X0000428425Y0003322362D02*
X0000578031Y0003322362D01*
X0000428425Y0003180629D02*
X0000428425Y0003322362D01*
X0000578031Y0003180629D02*
X0000428425Y0003180629D01*
X0000578031Y0003322362D02*
X0000578031Y0003180629D01*
X0000391811Y0003249921D02*
X0000293385Y0003249921D01*
X0000391811Y0003249921D02*
X0000391811Y0003194803D01*
X0000293385Y0003194803D02*
X0000293385Y0003249921D01*
X0000293385Y0003194803D02*
X0000391811Y0003194803D01*
X0000391811Y0003325118D02*
X0000293385Y0003325118D01*
X0000391811Y0003325118D02*
X0000391811Y0003270000D01*
X0000293385Y0003270000D02*
X0000293385Y0003325118D01*
X0000293385Y0003270000D02*
X0000391811Y0003270000D01*
X0000057559Y0003220787D02*
X0000057559Y0003122362D01*
X0000057559Y0003220787D02*
X0000112677Y0003220787D01*
X0000112677Y0003122362D02*
X0000057559Y0003122362D01*
X0000112677Y0003122362D02*
X0000112677Y0003220787D01*
X0002045354Y0002795984D02*
X0000004015Y0002795984D01*
X0000004015Y0002795984D02*
X0000004015Y0002937716D01*
X0000004015Y0002937716D02*
X0002045354Y0002937716D01*
X0002045354Y0002937716D02*
X0002045354Y0002795984D01*
X0002045354Y0003406220D02*
X0000004015Y0003406220D01*
X0000004015Y0003406220D02*
X0000004015Y0003547952D01*
X0000004015Y0003547952D02*
X0002045354Y0003547952D01*
X0002045354Y0003547952D02*
X0002045354Y0003406220D01*
X0001575275Y0003199921D02*
X0001575275Y0003310157D01*
X0001575275Y0003199921D02*
X0001524094Y0003199921D01*
X0001524094Y0003310157D02*
X0001575275Y0003310157D01*
X0001524094Y0003310157D02*
X0001524094Y0003199921D01*
G04 next file*
G04 Gerber Fmt 4.6, Leading zero omitted, Abs format (unit mm)*
G04 Created by KiCad (PCBNEW 4.0.7) date 11/29/17 18:04:40*
G01G01*
G04 APERTURE LIST*
G04 APERTURE END LIST*
D52*
G04 next file*
G04 Gerber Fmt 4.6, Leading zero omitted, Abs format (unit mm)*
G04 Created by KiCad (PCBNEW 4.0.7) date 11/29/17 18:04:40*
G01G01*
G04 APERTURE LIST*
G04 APERTURE END LIST*
D53*
G04 next file*
G04 Gerber Fmt 4.6, Leading zero omitted, Abs format (unit mm)*
G04 Created by KiCad (PCBNEW 4.0.7) date 11/29/17 18:04:40*
G01G01*
G04 APERTURE LIST*
G04 APERTURE END LIST*
D54*
D55*
X-0000097300Y0003414145D02*
X-0000094488Y0003411332D01*
X-0000091676Y0003405708D01*
X-0000091676Y0003391647D01*
X-0000094488Y0003386023D01*
X-0000097300Y0003383211D01*
X-0000102924Y0003380399D01*
X-0000108548Y0003380399D01*
X-0000116985Y0003383211D01*
X-0000150731Y0003416957D01*
X-0000150731Y0003380399D01*
X-0000097300Y0003357902D02*
X-0000094488Y0003355089D01*
X-0000091676Y0003349465D01*
X-0000091676Y0003335404D01*
X-0000094488Y0003329780D01*
X-0000097300Y0003326968D01*
X-0000102924Y0003324156D01*
X-0000108548Y0003324156D01*
X-0000116985Y0003326968D01*
X-0000150731Y0003360714D01*
X-0000150731Y0003324156D01*
X-0000145106Y0003298847D02*
X-0000147919Y0003296034D01*
X-0000150731Y0003298847D01*
X-0000147919Y0003301659D01*
X-0000145106Y0003298847D01*
X-0000150731Y0003298847D01*
X-0000150731Y0003267913D02*
X-0000150731Y0003256664D01*
X-0000147919Y0003251040D01*
X-0000145106Y0003248228D01*
X-0000136670Y0003242604D01*
X-0000125421Y0003239791D01*
X-0000102924Y0003239791D01*
X-0000097300Y0003242604D01*
X-0000094488Y0003245416D01*
X-0000091676Y0003251040D01*
X-0000091676Y0003262289D01*
X-0000094488Y0003267913D01*
X-0000097300Y0003270725D01*
X-0000102924Y0003273537D01*
X-0000116985Y0003273537D01*
X-0000122609Y0003270725D01*
X-0000125421Y0003267913D01*
X-0000128233Y0003262289D01*
X-0000128233Y0003251040D01*
X-0000125421Y0003245416D01*
X-0000122609Y0003242604D01*
X-0000116985Y0003239791D01*
X-0000150731Y0003211670D02*
X-0000150731Y0003200421D01*
X-0000147919Y0003194797D01*
X-0000145106Y0003191985D01*
X-0000136670Y0003186361D01*
X-0000125421Y0003183548D01*
X-0000102924Y0003183548D01*
X-0000097300Y0003186361D01*
X-0000094488Y0003189173D01*
X-0000091676Y0003194797D01*
X-0000091676Y0003206046D01*
X-0000094488Y0003211670D01*
X-0000097300Y0003214482D01*
X-0000102924Y0003217294D01*
X-0000116985Y0003217294D01*
X-0000122609Y0003214482D01*
X-0000125421Y0003211670D01*
X-0000128233Y0003206046D01*
X-0000128233Y0003194797D01*
X-0000125421Y0003189173D01*
X-0000122609Y0003186361D01*
X-0000116985Y0003183548D01*
X-0000091676Y0003146991D02*
X-0000091676Y0003141366D01*
X-0000094488Y0003135742D01*
X-0000097300Y0003132930D01*
X-0000102924Y0003130118D01*
X-0000114173Y0003127305D01*
X-0000128233Y0003127305D01*
X-0000139482Y0003130118D01*
X-0000145106Y0003132930D01*
X-0000147919Y0003135742D01*
X-0000150731Y0003141366D01*
X-0000150731Y0003146991D01*
X-0000147919Y0003152615D01*
X-0000145106Y0003155427D01*
X-0000139482Y0003158239D01*
X-0000128233Y0003161051D01*
X-0000114173Y0003161051D01*
X-0000102924Y0003158239D01*
X-0000097300Y0003155427D01*
X-0000094488Y0003152615D01*
X-0000091676Y0003146991D01*
X-0000150731Y0003057002D02*
X-0000111361Y0003057002D01*
X-0000116985Y0003057002D02*
X-0000114173Y0003054190D01*
X-0000111361Y0003048565D01*
X-0000111361Y0003040129D01*
X-0000114173Y0003034505D01*
X-0000119797Y0003031692D01*
X-0000150731Y0003031692D01*
X-0000119797Y0003031692D02*
X-0000114173Y0003028880D01*
X-0000111361Y0003023256D01*
X-0000111361Y0003014820D01*
X-0000114173Y0003009195D01*
X-0000119797Y0003006383D01*
X-0000150731Y0003006383D01*
X-0000150731Y0002978262D02*
X-0000111361Y0002978262D01*
X-0000116985Y0002978262D02*
X-0000114173Y0002975450D01*
X-0000111361Y0002969825D01*
X-0000111361Y0002961389D01*
X-0000114173Y0002955764D01*
X-0000119797Y0002952952D01*
X-0000150731Y0002952952D01*
X-0000119797Y0002952952D02*
X-0000114173Y0002950140D01*
X-0000111361Y0002944516D01*
X-0000111361Y0002936079D01*
X-0000114173Y0002930455D01*
X-0000119797Y0002927643D01*
X-0000150731Y0002927643D01*
X-0000070866Y0003622047D02*
X-0000070866Y0002716929D01*
X0000000393Y0003622047D02*
X-0000177165Y0003622047D01*
X0000000393Y0002716929D02*
X-0000177165Y0002716929D01*
X-0000070866Y0002716929D02*
X-0000093953Y0002761279D01*
X-0000070866Y0002716929D02*
X-0000047778Y0002761279D01*
X-0000070866Y0003622047D02*
X-0000093953Y0003577696D01*
X-0000070866Y0003622047D02*
X-0000047778Y0003577696D01*
X0000809810Y0003774622D02*
X0000781689Y0003774628D01*
X0000778871Y0003746507D01*
X0000781684Y0003749318D01*
X0000787308Y0003752130D01*
X0000801369Y0003752127D01*
X0000806993Y0003749314D01*
X0000809805Y0003746501D01*
X0000812616Y0003740876D01*
X0000812613Y0003726815D01*
X0000809800Y0003721192D01*
X0000806987Y0003718380D01*
X0000801362Y0003715569D01*
X0000787301Y0003715572D01*
X0000781678Y0003718385D01*
X0000778866Y0003721198D01*
X0000868854Y0003715556D02*
X0000835108Y0003715562D01*
X0000851981Y0003715559D02*
X0000851992Y0003774614D01*
X0000846366Y0003766179D01*
X0000840741Y0003760556D01*
X0000835116Y0003757745D01*
X0000894164Y0003721175D02*
X0000896976Y0003718363D01*
X0000894163Y0003715551D01*
X0000891351Y0003718364D01*
X0000894164Y0003721175D01*
X0000894163Y0003715551D01*
X0000925097Y0003715545D02*
X0000936345Y0003715543D01*
X0000941970Y0003718354D01*
X0000944783Y0003721166D01*
X0000950409Y0003729601D01*
X0000953223Y0003740849D01*
X0000953227Y0003763346D01*
X0000950416Y0003768971D01*
X0000947605Y0003771784D01*
X0000941981Y0003774597D01*
X0000930732Y0003774599D01*
X0000925107Y0003771788D01*
X0000922295Y0003768976D01*
X0000919482Y0003763353D01*
X0000919479Y0003749292D01*
X0000922290Y0003743667D01*
X0000925102Y0003740854D01*
X0000930725Y0003738041D01*
X0000941974Y0003738039D01*
X0000947599Y0003740850D01*
X0000950411Y0003743662D01*
X0000953225Y0003749285D01*
X0000981340Y0003715534D02*
X0000992588Y0003715532D01*
X0000998213Y0003718343D01*
X0001001026Y0003721155D01*
X0001006652Y0003729590D01*
X0001009466Y0003740838D01*
X0001009470Y0003763335D01*
X0001006659Y0003768960D01*
X0001003848Y0003771773D01*
X0000998224Y0003774586D01*
X0000986975Y0003774588D01*
X0000981350Y0003771777D01*
X0000978538Y0003768966D01*
X0000975725Y0003763342D01*
X0000975722Y0003749281D01*
X0000978533Y0003743656D01*
X0000981345Y0003740844D01*
X0000986968Y0003738030D01*
X0000998217Y0003738028D01*
X0001003842Y0003740839D01*
X0001006654Y0003743651D01*
X0001009468Y0003749275D01*
X0001046030Y0003774577D02*
X0001051655Y0003774576D01*
X0001057278Y0003771763D01*
X0001060090Y0003768950D01*
X0001062901Y0003763325D01*
X0001065711Y0003752076D01*
X0001065708Y0003738015D01*
X0001062894Y0003726767D01*
X0001060081Y0003721143D01*
X0001057268Y0003718332D01*
X0001051643Y0003715521D01*
X0001046019Y0003715522D01*
X0001040395Y0003718335D01*
X0001037584Y0003721148D01*
X0001034773Y0003726773D01*
X0001031963Y0003738022D01*
X0001031965Y0003752082D01*
X0001034780Y0003763331D01*
X0001037593Y0003768954D01*
X0001040406Y0003771766D01*
X0001046030Y0003774577D01*
X0001136008Y0003715505D02*
X0001136015Y0003754875D01*
X0001136014Y0003749250D02*
X0001138827Y0003752062D01*
X0001144452Y0003754873D01*
X0001152888Y0003754871D01*
X0001158512Y0003752058D01*
X0001161323Y0003746433D01*
X0001161317Y0003715500D01*
X0001161323Y0003746433D02*
X0001164136Y0003752057D01*
X0001169761Y0003754868D01*
X0001178198Y0003754867D01*
X0001183821Y0003752053D01*
X0001186632Y0003746428D01*
X0001186626Y0003715495D01*
X0001214748Y0003715489D02*
X0001214756Y0003754860D01*
X0001214754Y0003749235D02*
X0001217567Y0003752047D01*
X0001223192Y0003754858D01*
X0001231628Y0003754856D01*
X0001237252Y0003752043D01*
X0001240063Y0003746418D01*
X0001240057Y0003715485D01*
X0001240063Y0003746418D02*
X0001242876Y0003752042D01*
X0001248501Y0003754853D01*
X0001256938Y0003754851D01*
X0001262561Y0003752038D01*
X0001265373Y0003746413D01*
X0001265367Y0003715480D01*
X0000000092Y0003689289D02*
X0002046942Y0003688895D01*
X0000000078Y0003619606D02*
X0000000112Y0003795588D01*
X0002046929Y0003619212D02*
X0002046962Y0003795194D01*
X0002046942Y0003688895D02*
X0002002587Y0003665816D01*
X0002046942Y0003688895D02*
X0002002596Y0003711991D01*
X0000000092Y0003689289D02*
X0000044438Y0003666193D01*
X0000000092Y0003689289D02*
X0000044447Y0003712368D01*
G04 next file*
G04 Gerber Fmt 4.6, Leading zero omitted, Abs format (unit mm)*
G04 Created by KiCad (PCBNEW 4.0.7) date 11/29/17 18:04:40*
G01G01*
G04 APERTURE LIST*
G04 APERTURE END LIST*
D56*
G04 next file*
G04 Gerber Fmt 4.6, Leading zero omitted, Abs format (unit mm)*
G04 Created by KiCad (PCBNEW 4.0.7) date 11/29/17 18:04:40*
G01G01*
G04 APERTURE LIST*
G04 APERTURE END LIST*
D57*
D58*
X0001622913Y0003317244D02*
X0001402440Y0003317244D01*
X0001402440Y0003317244D02*
X0001402440Y0002978661D01*
X0001402440Y0002978661D02*
X0001622913Y0002978661D01*
X0001622913Y0002978661D02*
X0001622913Y0003317244D01*
X0001158346Y0002920393D02*
X0001378818Y0002920393D01*
X0001378818Y0002920393D02*
X0001378818Y0003396771D01*
X0001378818Y0003396771D02*
X0001158346Y0003396771D01*
X0001158346Y0003396771D02*
X0001158346Y0002920393D01*
X0001809921Y0003437716D02*
X0001809921Y0002896377D01*
X0001809921Y0002896377D02*
X0002296141Y0002896377D01*
X0002296141Y0002896377D02*
X0002296141Y0003437716D01*
X0002296141Y0003437716D02*
X0001809921Y0003437716D01*
X0000289842Y0003418031D02*
X0000624488Y0003418031D01*
X0000624488Y0003418031D02*
X0000624488Y0003181811D01*
X0000624488Y0003181811D02*
X0000289842Y0003181811D01*
X0000289842Y0003181811D02*
X0000289842Y0003418031D01*
X0000626377Y0003177952D02*
X0000285826Y0003177952D01*
X0000285826Y0003177952D02*
X0000285826Y0002935826D01*
X0000285826Y0002935826D02*
X0000626377Y0002935826D01*
X0000626377Y0002935826D02*
X0000626377Y0003177952D01*
X0001672519Y0003355039D02*
X0001739448Y0003355039D01*
X0001739448Y0003355039D02*
X0001739448Y0003201496D01*
X0001739448Y0003201496D02*
X0001672519Y0003201496D01*
X0001672519Y0003201496D02*
X0001672519Y0003355039D01*
X0001672519Y0003141259D02*
X0001739448Y0003141259D01*
X0001739448Y0003141259D02*
X0001739448Y0002987716D01*
X0001739448Y0002987716D02*
X0001672519Y0002987716D01*
X0001672519Y0002987716D02*
X0001672519Y0003141259D01*
G04 next file*
G04 Gerber Fmt 4.6, Leading zero omitted, Abs format (unit mm)*
G04 Created by KiCad (PCBNEW 4.0.7) date 11/29/17 18:04:40*
G01G01*
G04 APERTURE LIST*
G04 APERTURE END LIST*
D59*
G04 next file*
G04 Gerber Fmt 4.6, Leading zero omitted, Abs format (unit mm)*
G04 Created by KiCad (PCBNEW 4.0.7) date 11/29/17 17:20:56*
G01G01*
G04 APERTURE LIST*
G04 APERTURE END LIST*
D60*
D61*
X0002585236Y0003055511D02*
X0002585236Y0002957086D01*
X0002585236Y0003055511D02*
X0002640354Y0003055511D01*
X0002640354Y0002957086D02*
X0002585236Y0002957086D01*
X0002640354Y0002957086D02*
X0002640354Y0003055511D01*
X0002972440Y0002964173D02*
X0002972440Y0003062598D01*
X0002972440Y0002964173D02*
X0002917322Y0002964173D01*
X0002917322Y0003062598D02*
X0002972440Y0003062598D01*
X0002917322Y0003062598D02*
X0002917322Y0002964173D01*
X0002807874Y0003058267D02*
X0002807874Y0002959842D01*
X0002807874Y0003058267D02*
X0002862992Y0003058267D01*
X0002862992Y0002959842D02*
X0002807874Y0002959842D01*
X0002862992Y0002959842D02*
X0002862992Y0003058267D01*
X0002742913Y0003340551D02*
X0002742913Y0003438976D01*
X0002742913Y0003340551D02*
X0002687795Y0003340551D01*
X0002687795Y0003438976D02*
X0002742913Y0003438976D01*
X0002687795Y0003438976D02*
X0002687795Y0003340551D01*
X0002705574Y0003088976D02*
X0002705574Y0003187401D01*
X0002705574Y0003088976D02*
X0002650456Y0003088976D01*
X0002650456Y0003187401D02*
X0002705574Y0003187401D01*
X0002650456Y0003187401D02*
X0002650456Y0003088976D01*
X0002715354Y0002948031D02*
X0002715354Y0002837795D01*
X0002715354Y0002948031D02*
X0002766535Y0002948031D01*
X0002766535Y0002837795D02*
X0002715354Y0002837795D01*
X0002766535Y0002837795D02*
X0002766535Y0002948031D01*
X0002992606Y0003083070D02*
X0002992606Y0003193307D01*
X0002992606Y0003083070D02*
X0002941425Y0003083070D01*
X0002941425Y0003193307D02*
X0002992606Y0003193307D01*
X0002941425Y0003193307D02*
X0002941425Y0003083070D01*
X0002875984Y0003334645D02*
X0002875984Y0003444881D01*
X0002875984Y0003334645D02*
X0002824803Y0003334645D01*
X0002824803Y0003444881D02*
X0002875984Y0003444881D01*
X0002824803Y0003444881D02*
X0002824803Y0003334645D01*
X0002631606Y0003080732D02*
X0002631606Y0003190968D01*
X0002631606Y0003080732D02*
X0002580425Y0003080732D01*
X0002580425Y0003190968D02*
X0002631606Y0003190968D01*
X0002580425Y0003190968D02*
X0002580425Y0003080732D01*
X0002420078Y0002834645D02*
X0002420078Y0002933070D01*
X0002420078Y0002834645D02*
X0002364960Y0002834645D01*
X0002364960Y0002933070D02*
X0002420078Y0002933070D01*
X0002364960Y0002933070D02*
X0002364960Y0002834645D01*
X0003030744Y0002927316D02*
X0003030744Y0002828891D01*
X0003030744Y0002927316D02*
X0003085862Y0002927316D01*
X0003085862Y0002828891D02*
X0003030744Y0002828891D01*
X0003085862Y0002828891D02*
X0003085862Y0002927316D01*
X0003000929Y0002827677D02*
X0003000929Y0002926102D01*
X0003000929Y0002827677D02*
X0002945811Y0002827677D01*
X0002945811Y0002926102D02*
X0003000929Y0002926102D01*
X0002945811Y0002926102D02*
X0002945811Y0002827677D01*
X0002345275Y0002833858D02*
X0002195669Y0002833858D01*
X0002345275Y0002975590D02*
X0002345275Y0002833858D01*
X0002195669Y0002975590D02*
X0002345275Y0002975590D01*
X0002195669Y0002833858D02*
X0002195669Y0002975590D01*
X0002755511Y0003438976D02*
X0002755511Y0003340551D01*
X0002755511Y0003438976D02*
X0002810629Y0003438976D01*
X0002810629Y0003340551D02*
X0002755511Y0003340551D01*
X0002810629Y0003340551D02*
X0002810629Y0003438976D01*
X0002718456Y0003187401D02*
X0002718456Y0003088976D01*
X0002718456Y0003187401D02*
X0002773574Y0003187401D01*
X0002773574Y0003088976D02*
X0002718456Y0003088976D01*
X0002773574Y0003088976D02*
X0002773574Y0003187401D01*
X0002838574Y0003088976D02*
X0002838574Y0003187401D01*
X0002838574Y0003088976D02*
X0002783456Y0003088976D01*
X0002783456Y0003187401D02*
X0002838574Y0003187401D01*
X0002783456Y0003187401D02*
X0002783456Y0003088976D01*
X0002875196Y0003187401D02*
X0002875196Y0003088976D01*
X0002875196Y0003187401D02*
X0002930314Y0003187401D01*
X0002930314Y0003088976D02*
X0002875196Y0003088976D01*
X0002930314Y0003088976D02*
X0002930314Y0003187401D01*
X0002359692Y0003530968D02*
X0002359692Y0003432543D01*
X0002359692Y0003530968D02*
X0002414811Y0003530968D01*
X0002414811Y0003432543D02*
X0002359692Y0003432543D01*
X0002414811Y0003432543D02*
X0002414811Y0003530968D01*
X0002617322Y0003441732D02*
X0002617322Y0003343307D01*
X0002617322Y0003441732D02*
X0002672440Y0003441732D01*
X0002672440Y0003343307D02*
X0002617322Y0003343307D01*
X0002672440Y0003343307D02*
X0002672440Y0003441732D01*
X0002282811Y0003432543D02*
X0002282811Y0003530968D01*
X0002282811Y0003432543D02*
X0002227692Y0003432543D01*
X0002227692Y0003530968D02*
X0002282811Y0003530968D01*
X0002227692Y0003530968D02*
X0002227692Y0003432543D01*
X0002293692Y0003530968D02*
X0002293692Y0003432543D01*
X0002293692Y0003530968D02*
X0002348811Y0003530968D01*
X0002348811Y0003432543D02*
X0002293692Y0003432543D01*
X0002348811Y0003432543D02*
X0002348811Y0003530968D01*
X0002116937Y0003220472D02*
X0002116937Y0003122047D01*
X0002116937Y0003220472D02*
X0002172055Y0003220472D01*
X0002172055Y0003122047D02*
X0002116937Y0003122047D01*
X0002172055Y0003122047D02*
X0002172055Y0003220472D01*
X0002165354Y0002815944D02*
X0002066929Y0002815944D01*
X0002165354Y0002815944D02*
X0002165354Y0002760826D01*
X0002066929Y0002760826D02*
X0002066929Y0002815944D01*
X0002066929Y0002760826D02*
X0002165354Y0002760826D01*
X0002165354Y0002964566D02*
X0002066929Y0002964566D01*
X0002165354Y0002964566D02*
X0002165354Y0002909448D01*
X0002066929Y0002909448D02*
X0002066929Y0002964566D01*
X0002066929Y0002909448D02*
X0002165354Y0002909448D01*
X0002165354Y0002893700D02*
X0002066929Y0002893700D01*
X0002165354Y0002893700D02*
X0002165354Y0002838582D01*
X0002066929Y0002838582D02*
X0002066929Y0002893700D01*
X0002066929Y0002838582D02*
X0002165354Y0002838582D01*
X0002585236Y0002944472D02*
X0002585236Y0002846047D01*
X0002585236Y0002944472D02*
X0002640354Y0002944472D01*
X0002640354Y0002846047D02*
X0002585236Y0002846047D01*
X0002640354Y0002846047D02*
X0002640354Y0002944472D01*
X0002648236Y0002944472D02*
X0002648236Y0002846047D01*
X0002648236Y0002944472D02*
X0002703354Y0002944472D01*
X0002703354Y0002846047D02*
X0002648236Y0002846047D01*
X0002703354Y0002846047D02*
X0002703354Y0002944472D01*
X0002523236Y0002943472D02*
X0002523236Y0002845047D01*
X0002523236Y0002943472D02*
X0002578354Y0002943472D01*
X0002578354Y0002845047D02*
X0002523236Y0002845047D01*
X0002578354Y0002845047D02*
X0002578354Y0002943472D01*
X0002212598Y0003543307D02*
X0002078740Y0003543307D01*
X0002078740Y0003543307D02*
X0002078740Y0003405511D01*
X0002078740Y0003405511D02*
X0002212598Y0003405511D01*
X0002212598Y0003405511D02*
X0002212598Y0003543307D01*
X0002564566Y0003080314D02*
X0002564566Y0003190551D01*
X0002564566Y0003080314D02*
X0002513385Y0003080314D01*
X0002513385Y0003190551D02*
X0002564566Y0003190551D01*
X0002513385Y0003190551D02*
X0002513385Y0003080314D01*
X0002422937Y0003417811D02*
X0002312700Y0003417811D01*
X0002422937Y0003417811D02*
X0002422937Y0003366629D01*
X0002312700Y0003366629D02*
X0002312700Y0003417811D01*
X0002312700Y0003366629D02*
X0002422937Y0003366629D01*
X0002459055Y0003190944D02*
X0002459055Y0003080708D01*
X0002459055Y0003190944D02*
X0002510236Y0003190944D01*
X0002510236Y0003080708D02*
X0002459055Y0003080708D01*
X0002510236Y0003080708D02*
X0002510236Y0003190944D01*
X0002397637Y0003080314D02*
X0002397637Y0003190551D01*
X0002397637Y0003080314D02*
X0002346456Y0003080314D01*
X0002346456Y0003190551D02*
X0002397637Y0003190551D01*
X0002346456Y0003190551D02*
X0002346456Y0003080314D01*
X0002510385Y0002840141D02*
X0002510385Y0002950377D01*
X0002510385Y0002840141D02*
X0002459204Y0002840141D01*
X0002459204Y0002950377D02*
X0002510385Y0002950377D01*
X0002459204Y0002950377D02*
X0002459204Y0002840141D01*
X0002779133Y0002948031D02*
X0002779133Y0002837795D01*
X0002779133Y0002948031D02*
X0002830314Y0002948031D01*
X0002830314Y0002837795D02*
X0002779133Y0002837795D01*
X0002830314Y0002837795D02*
X0002830314Y0002948031D01*
X0002422937Y0003354811D02*
X0002312700Y0003354811D01*
X0002422937Y0003354811D02*
X0002422937Y0003303629D01*
X0002312700Y0003303629D02*
X0002312700Y0003354811D01*
X0002312700Y0003303629D02*
X0002422937Y0003303629D01*
X0002444094Y0003294094D02*
X0002593700Y0003294094D01*
X0002593700Y0003294094D02*
X0002593700Y0003435826D01*
X0002593700Y0003435826D02*
X0002444094Y0003435826D01*
X0002444094Y0003435826D02*
X0002444094Y0003294094D01*
G04 next file*
G04 Gerber Fmt 4.6, Leading zero omitted, Abs format (unit mm)*
G04 Created by KiCad (PCBNEW 4.0.7) date 11/29/17 17:20:56*
G01G01*
G04 APERTURE LIST*
G04 APERTURE END LIST*
D62*
G04 next file*
G04 Gerber Fmt 4.6, Leading zero omitted, Abs format (unit mm)*
G04 Created by KiCad (PCBNEW 4.0.7) date 11/29/17 17:20:56*
G01G01*
G04 APERTURE LIST*
G04 APERTURE END LIST*
D63*
G04 next file*
G04 Gerber Fmt 4.6, Leading zero omitted, Abs format (unit mm)*
G04 Created by KiCad (PCBNEW 4.0.7) date 11/29/17 17:20:56*
G01G01*
G04 APERTURE LIST*
G04 APERTURE END LIST*
D64*
D65*
X0002003093Y0003413948D02*
X0002005905Y0003411136D01*
X0002008717Y0003405511D01*
X0002008717Y0003391451D01*
X0002005905Y0003385826D01*
X0002003093Y0003383014D01*
X0001997469Y0003380202D01*
X0001991844Y0003380202D01*
X0001983408Y0003383014D01*
X0001949662Y0003416760D01*
X0001949662Y0003380202D01*
X0002008717Y0003360517D02*
X0002008717Y0003323959D01*
X0001986220Y0003343644D01*
X0001986220Y0003335208D01*
X0001983408Y0003329583D01*
X0001980596Y0003326771D01*
X0001974971Y0003323959D01*
X0001960911Y0003323959D01*
X0001955286Y0003326771D01*
X0001952474Y0003329583D01*
X0001949662Y0003335208D01*
X0001949662Y0003352080D01*
X0001952474Y0003357705D01*
X0001955286Y0003360517D01*
X0001955286Y0003298650D02*
X0001952474Y0003295838D01*
X0001949662Y0003298650D01*
X0001952474Y0003301462D01*
X0001955286Y0003298650D01*
X0001949662Y0003298650D01*
X0002008717Y0003259280D02*
X0002008717Y0003253655D01*
X0002005905Y0003248031D01*
X0002003093Y0003245219D01*
X0001997469Y0003242407D01*
X0001986220Y0003239595D01*
X0001972159Y0003239595D01*
X0001960911Y0003242407D01*
X0001955286Y0003245219D01*
X0001952474Y0003248031D01*
X0001949662Y0003253655D01*
X0001949662Y0003259280D01*
X0001952474Y0003264904D01*
X0001955286Y0003267716D01*
X0001960911Y0003270528D01*
X0001972159Y0003273340D01*
X0001986220Y0003273340D01*
X0001997469Y0003270528D01*
X0002003093Y0003267716D01*
X0002005905Y0003264904D01*
X0002008717Y0003259280D01*
X0002008717Y0003203037D02*
X0002008717Y0003197412D01*
X0002005905Y0003191788D01*
X0002003093Y0003188976D01*
X0001997469Y0003186164D01*
X0001986220Y0003183352D01*
X0001972159Y0003183352D01*
X0001960911Y0003186164D01*
X0001955286Y0003188976D01*
X0001952474Y0003191788D01*
X0001949662Y0003197412D01*
X0001949662Y0003203037D01*
X0001952474Y0003208661D01*
X0001955286Y0003211473D01*
X0001960911Y0003214285D01*
X0001972159Y0003217097D01*
X0001986220Y0003217097D01*
X0001997469Y0003214285D01*
X0002003093Y0003211473D01*
X0002005905Y0003208661D01*
X0002008717Y0003203037D01*
X0002008717Y0003146794D02*
X0002008717Y0003141169D01*
X0002005905Y0003135545D01*
X0002003093Y0003132733D01*
X0001997469Y0003129921D01*
X0001986220Y0003127109D01*
X0001972159Y0003127109D01*
X0001960911Y0003129921D01*
X0001955286Y0003132733D01*
X0001952474Y0003135545D01*
X0001949662Y0003141169D01*
X0001949662Y0003146794D01*
X0001952474Y0003152418D01*
X0001955286Y0003155230D01*
X0001960911Y0003158042D01*
X0001972159Y0003160854D01*
X0001986220Y0003160854D01*
X0001997469Y0003158042D01*
X0002003093Y0003155230D01*
X0002005905Y0003152418D01*
X0002008717Y0003146794D01*
X0001949662Y0003056805D02*
X0001989032Y0003056805D01*
X0001983408Y0003056805D02*
X0001986220Y0003053993D01*
X0001989032Y0003048368D01*
X0001989032Y0003039932D01*
X0001986220Y0003034308D01*
X0001980596Y0003031496D01*
X0001949662Y0003031496D01*
X0001980596Y0003031496D02*
X0001986220Y0003028683D01*
X0001989032Y0003023059D01*
X0001989032Y0003014623D01*
X0001986220Y0003008998D01*
X0001980596Y0003006186D01*
X0001949662Y0003006186D01*
X0001949662Y0002978065D02*
X0001989032Y0002978065D01*
X0001983408Y0002978065D02*
X0001986220Y0002975253D01*
X0001989032Y0002969628D01*
X0001989032Y0002961192D01*
X0001986220Y0002955568D01*
X0001980596Y0002952755D01*
X0001949662Y0002952755D01*
X0001980596Y0002952755D02*
X0001986220Y0002949943D01*
X0001989032Y0002944319D01*
X0001989032Y0002935883D01*
X0001986220Y0002930258D01*
X0001980596Y0002927446D01*
X0001949662Y0002927446D01*
X0002029527Y0003622047D02*
X0002029527Y0002716535D01*
X0002047244Y0003622047D02*
X0001923228Y0003622047D01*
X0002047244Y0002716535D02*
X0001923228Y0002716535D01*
X0002029527Y0002716535D02*
X0002006440Y0002760885D01*
X0002029527Y0002716535D02*
X0002052614Y0002760885D01*
X0002029527Y0003622047D02*
X0002006440Y0003577696D01*
X0002029527Y0003622047D02*
X0002052614Y0003577696D01*
X0002425759Y0003770528D02*
X0002462317Y0003770528D01*
X0002442632Y0003748031D01*
X0002451068Y0003748031D01*
X0002456692Y0003745219D01*
X0002459505Y0003742407D01*
X0002462317Y0003736782D01*
X0002462317Y0003722722D01*
X0002459505Y0003717097D01*
X0002456692Y0003714285D01*
X0002451068Y0003711473D01*
X0002434195Y0003711473D01*
X0002428571Y0003714285D01*
X0002425759Y0003717097D01*
X0002518560Y0003711473D02*
X0002484814Y0003711473D01*
X0002501687Y0003711473D02*
X0002501687Y0003770528D01*
X0002496063Y0003762092D01*
X0002490438Y0003756467D01*
X0002484814Y0003753655D01*
X0002543869Y0003717097D02*
X0002546681Y0003714285D01*
X0002543869Y0003711473D01*
X0002541057Y0003714285D01*
X0002543869Y0003717097D01*
X0002543869Y0003711473D01*
X0002580427Y0003745219D02*
X0002574803Y0003748031D01*
X0002571990Y0003750843D01*
X0002569178Y0003756467D01*
X0002569178Y0003759280D01*
X0002571990Y0003764904D01*
X0002574803Y0003767716D01*
X0002580427Y0003770528D01*
X0002591676Y0003770528D01*
X0002597300Y0003767716D01*
X0002600112Y0003764904D01*
X0002602924Y0003759280D01*
X0002602924Y0003756467D01*
X0002600112Y0003750843D01*
X0002597300Y0003748031D01*
X0002591676Y0003745219D01*
X0002580427Y0003745219D01*
X0002574803Y0003742407D01*
X0002571990Y0003739595D01*
X0002569178Y0003733970D01*
X0002569178Y0003722722D01*
X0002571990Y0003717097D01*
X0002574803Y0003714285D01*
X0002580427Y0003711473D01*
X0002591676Y0003711473D01*
X0002597300Y0003714285D01*
X0002600112Y0003717097D01*
X0002602924Y0003722722D01*
X0002602924Y0003733970D01*
X0002600112Y0003739595D01*
X0002597300Y0003742407D01*
X0002591676Y0003745219D01*
X0002639482Y0003770528D02*
X0002645106Y0003770528D01*
X0002650731Y0003767716D01*
X0002653543Y0003764904D01*
X0002656355Y0003759280D01*
X0002659167Y0003748031D01*
X0002659167Y0003733970D01*
X0002656355Y0003722722D01*
X0002653543Y0003717097D01*
X0002650731Y0003714285D01*
X0002645106Y0003711473D01*
X0002639482Y0003711473D01*
X0002633858Y0003714285D01*
X0002631046Y0003717097D01*
X0002628233Y0003722722D01*
X0002625421Y0003733970D01*
X0002625421Y0003748031D01*
X0002628233Y0003759280D01*
X0002631046Y0003764904D01*
X0002633858Y0003767716D01*
X0002639482Y0003770528D01*
X0002695725Y0003770528D02*
X0002701349Y0003770528D01*
X0002706974Y0003767716D01*
X0002709786Y0003764904D01*
X0002712598Y0003759280D01*
X0002715410Y0003748031D01*
X0002715410Y0003733970D01*
X0002712598Y0003722722D01*
X0002709786Y0003717097D01*
X0002706974Y0003714285D01*
X0002701349Y0003711473D01*
X0002695725Y0003711473D01*
X0002690101Y0003714285D01*
X0002687289Y0003717097D01*
X0002684476Y0003722722D01*
X0002681664Y0003733970D01*
X0002681664Y0003748031D01*
X0002684476Y0003759280D01*
X0002687289Y0003764904D01*
X0002690101Y0003767716D01*
X0002695725Y0003770528D01*
X0002785714Y0003711473D02*
X0002785714Y0003750843D01*
X0002785714Y0003745219D02*
X0002788526Y0003748031D01*
X0002794150Y0003750843D01*
X0002802587Y0003750843D01*
X0002808211Y0003748031D01*
X0002811023Y0003742407D01*
X0002811023Y0003711473D01*
X0002811023Y0003742407D02*
X0002813835Y0003748031D01*
X0002819460Y0003750843D01*
X0002827896Y0003750843D01*
X0002833520Y0003748031D01*
X0002836332Y0003742407D01*
X0002836332Y0003711473D01*
X0002864454Y0003711473D02*
X0002864454Y0003750843D01*
X0002864454Y0003745219D02*
X0002867266Y0003748031D01*
X0002872890Y0003750843D01*
X0002881327Y0003750843D01*
X0002886951Y0003748031D01*
X0002889763Y0003742407D01*
X0002889763Y0003711473D01*
X0002889763Y0003742407D02*
X0002892575Y0003748031D01*
X0002898200Y0003750843D01*
X0002906636Y0003750843D01*
X0002912260Y0003748031D01*
X0002915073Y0003742407D01*
X0002915073Y0003711473D01*
X0002047244Y0003685039D02*
X0003299212Y0003685039D01*
X0002047244Y0003622047D02*
X0002047244Y0003791338D01*
X0003299212Y0003622047D02*
X0003299212Y0003791338D01*
X0003299212Y0003685039D02*
X0003254862Y0003661951D01*
X0003299212Y0003685039D02*
X0003254862Y0003708126D01*
X0002047244Y0003685039D02*
X0002091594Y0003661951D01*
X0002047244Y0003685039D02*
X0002091594Y0003708126D01*
G04 next file*
G04 Gerber Fmt 4.6, Leading zero omitted, Abs format (unit mm)*
G04 Created by KiCad (PCBNEW 4.0.7) date 11/29/17 17:20:56*
G01G01*
G04 APERTURE LIST*
G04 APERTURE END LIST*
D66*
G04 next file*
G04 Gerber Fmt 4.6, Leading zero omitted, Abs format (unit mm)*
G04 Created by KiCad (PCBNEW 4.0.7) date 11/29/17 17:20:56*
G01G01*
G04 APERTURE LIST*
G04 APERTURE END LIST*
D67*
D68*
X0002322779Y0002899118D02*
X0002543251Y0002899118D01*
X0002543251Y0002899118D02*
X0002543251Y0003375496D01*
X0002543251Y0003375496D02*
X0002322779Y0003375496D01*
X0002322779Y0003375496D02*
X0002322779Y0002899118D01*
X0003095881Y0003573716D02*
X0002454149Y0003573716D01*
X0002454149Y0003573716D02*
X0002454149Y0003431984D01*
X0002454149Y0003431984D02*
X0003095881Y0003431984D01*
X0003095881Y0003431984D02*
X0003095881Y0003573716D01*
X0002430787Y0002871314D02*
X0002430787Y0002804385D01*
X0002430787Y0002804385D02*
X0002277244Y0002804385D01*
X0002277244Y0002804385D02*
X0002277244Y0002871314D01*
X0002277244Y0002871314D02*
X0002430787Y0002871314D01*
X0003091768Y0002800938D02*
X0003024839Y0002800938D01*
X0003024839Y0002800938D02*
X0003024839Y0002954482D01*
X0003024839Y0002954482D02*
X0003091768Y0002954482D01*
X0003091768Y0002954482D02*
X0003091768Y0002800938D01*
X0003006834Y0002800118D02*
X0002939905Y0002800118D01*
X0002939905Y0002800118D02*
X0002939905Y0002953661D01*
X0002939905Y0002953661D02*
X0003006834Y0002953661D01*
X0003006834Y0002953661D02*
X0003006834Y0002800118D01*
G04 next file*
G04 Gerber Fmt 4.6, Leading zero omitted, Abs format (unit mm)*
G04 Created by KiCad (PCBNEW 4.0.7) date 11/29/17 17:20:56*
G01G01*
G04 APERTURE LIST*
G04 APERTURE END LIST*
D69*
G04 next file*
G04 Gerber Fmt 4.6, Leading zero omitted, Abs format (unit mm)*
G04 Created by KiCad (PCBNEW 4.0.7) date 11/29/17 17:20:56*
G01G01*
G04 APERTURE LIST*
G04 APERTURE END LIST*
D70*
D71*
X0002585236Y0001244488D02*
X0002585236Y0001146062D01*
X0002585236Y0001244488D02*
X0002640354Y0001244488D01*
X0002640354Y0001146062D02*
X0002585236Y0001146062D01*
X0002640354Y0001146062D02*
X0002640354Y0001244488D01*
X0002972440Y0001153149D02*
X0002972440Y0001251574D01*
X0002972440Y0001153149D02*
X0002917322Y0001153149D01*
X0002917322Y0001251574D02*
X0002972440Y0001251574D01*
X0002917322Y0001251574D02*
X0002917322Y0001153149D01*
X0002807874Y0001247244D02*
X0002807874Y0001148818D01*
X0002807874Y0001247244D02*
X0002862992Y0001247244D01*
X0002862992Y0001148818D02*
X0002807874Y0001148818D01*
X0002862992Y0001148818D02*
X0002862992Y0001247244D01*
X0002742913Y0001529527D02*
X0002742913Y0001627952D01*
X0002742913Y0001529527D02*
X0002687795Y0001529527D01*
X0002687795Y0001627952D02*
X0002742913Y0001627952D01*
X0002687795Y0001627952D02*
X0002687795Y0001529527D01*
X0002705574Y0001277952D02*
X0002705574Y0001376377D01*
X0002705574Y0001277952D02*
X0002650456Y0001277952D01*
X0002650456Y0001376377D02*
X0002705574Y0001376377D01*
X0002650456Y0001376377D02*
X0002650456Y0001277952D01*
X0002715354Y0001137007D02*
X0002715354Y0001026771D01*
X0002715354Y0001137007D02*
X0002766535Y0001137007D01*
X0002766535Y0001026771D02*
X0002715354Y0001026771D01*
X0002766535Y0001026771D02*
X0002766535Y0001137007D01*
X0002992606Y0001272047D02*
X0002992606Y0001382283D01*
X0002992606Y0001272047D02*
X0002941425Y0001272047D01*
X0002941425Y0001382283D02*
X0002992606Y0001382283D01*
X0002941425Y0001382283D02*
X0002941425Y0001272047D01*
X0002875984Y0001523622D02*
X0002875984Y0001633858D01*
X0002875984Y0001523622D02*
X0002824803Y0001523622D01*
X0002824803Y0001633858D02*
X0002875984Y0001633858D01*
X0002824803Y0001633858D02*
X0002824803Y0001523622D01*
X0002631606Y0001269708D02*
X0002631606Y0001379944D01*
X0002631606Y0001269708D02*
X0002580425Y0001269708D01*
X0002580425Y0001379944D02*
X0002631606Y0001379944D01*
X0002580425Y0001379944D02*
X0002580425Y0001269708D01*
X0002420078Y0001023622D02*
X0002420078Y0001122047D01*
X0002420078Y0001023622D02*
X0002364960Y0001023622D01*
X0002364960Y0001122047D02*
X0002420078Y0001122047D01*
X0002364960Y0001122047D02*
X0002364960Y0001023622D01*
X0003030744Y0001116293D02*
X0003030744Y0001017868D01*
X0003030744Y0001116293D02*
X0003085862Y0001116293D01*
X0003085862Y0001017868D02*
X0003030744Y0001017868D01*
X0003085862Y0001017868D02*
X0003085862Y0001116293D01*
X0003000929Y0001016653D02*
X0003000929Y0001115078D01*
X0003000929Y0001016653D02*
X0002945811Y0001016653D01*
X0002945811Y0001115078D02*
X0003000929Y0001115078D01*
X0002945811Y0001115078D02*
X0002945811Y0001016653D01*
X0002345275Y0001022834D02*
X0002195669Y0001022834D01*
X0002345275Y0001164566D02*
X0002345275Y0001022834D01*
X0002195669Y0001164566D02*
X0002345275Y0001164566D01*
X0002195669Y0001022834D02*
X0002195669Y0001164566D01*
X0002755511Y0001627952D02*
X0002755511Y0001529527D01*
X0002755511Y0001627952D02*
X0002810629Y0001627952D01*
X0002810629Y0001529527D02*
X0002755511Y0001529527D01*
X0002810629Y0001529527D02*
X0002810629Y0001627952D01*
X0002718456Y0001376377D02*
X0002718456Y0001277952D01*
X0002718456Y0001376377D02*
X0002773574Y0001376377D01*
X0002773574Y0001277952D02*
X0002718456Y0001277952D01*
X0002773574Y0001277952D02*
X0002773574Y0001376377D01*
X0002838574Y0001277952D02*
X0002838574Y0001376377D01*
X0002838574Y0001277952D02*
X0002783456Y0001277952D01*
X0002783456Y0001376377D02*
X0002838574Y0001376377D01*
X0002783456Y0001376377D02*
X0002783456Y0001277952D01*
X0002875196Y0001376377D02*
X0002875196Y0001277952D01*
X0002875196Y0001376377D02*
X0002930314Y0001376377D01*
X0002930314Y0001277952D02*
X0002875196Y0001277952D01*
X0002930314Y0001277952D02*
X0002930314Y0001376377D01*
X0002359692Y0001719944D02*
X0002359692Y0001621519D01*
X0002359692Y0001719944D02*
X0002414811Y0001719944D01*
X0002414811Y0001621519D02*
X0002359692Y0001621519D01*
X0002414811Y0001621519D02*
X0002414811Y0001719944D01*
X0002617322Y0001630708D02*
X0002617322Y0001532283D01*
X0002617322Y0001630708D02*
X0002672440Y0001630708D01*
X0002672440Y0001532283D02*
X0002617322Y0001532283D01*
X0002672440Y0001532283D02*
X0002672440Y0001630708D01*
X0002282811Y0001621519D02*
X0002282811Y0001719944D01*
X0002282811Y0001621519D02*
X0002227692Y0001621519D01*
X0002227692Y0001719944D02*
X0002282811Y0001719944D01*
X0002227692Y0001719944D02*
X0002227692Y0001621519D01*
X0002293692Y0001719944D02*
X0002293692Y0001621519D01*
X0002293692Y0001719944D02*
X0002348811Y0001719944D01*
X0002348811Y0001621519D02*
X0002293692Y0001621519D01*
X0002348811Y0001621519D02*
X0002348811Y0001719944D01*
X0002116937Y0001409448D02*
X0002116937Y0001311023D01*
X0002116937Y0001409448D02*
X0002172055Y0001409448D01*
X0002172055Y0001311023D02*
X0002116937Y0001311023D01*
X0002172055Y0001311023D02*
X0002172055Y0001409448D01*
X0002165354Y0001004921D02*
X0002066929Y0001004921D01*
X0002165354Y0001004921D02*
X0002165354Y0000949803D01*
X0002066929Y0000949803D02*
X0002066929Y0001004921D01*
X0002066929Y0000949803D02*
X0002165354Y0000949803D01*
X0002165354Y0001153543D02*
X0002066929Y0001153543D01*
X0002165354Y0001153543D02*
X0002165354Y0001098425D01*
X0002066929Y0001098425D02*
X0002066929Y0001153543D01*
X0002066929Y0001098425D02*
X0002165354Y0001098425D01*
X0002165354Y0001082677D02*
X0002066929Y0001082677D01*
X0002165354Y0001082677D02*
X0002165354Y0001027559D01*
X0002066929Y0001027559D02*
X0002066929Y0001082677D01*
X0002066929Y0001027559D02*
X0002165354Y0001027559D01*
X0002585236Y0001133448D02*
X0002585236Y0001035023D01*
X0002585236Y0001133448D02*
X0002640354Y0001133448D01*
X0002640354Y0001035023D02*
X0002585236Y0001035023D01*
X0002640354Y0001035023D02*
X0002640354Y0001133448D01*
X0002648236Y0001133448D02*
X0002648236Y0001035023D01*
X0002648236Y0001133448D02*
X0002703354Y0001133448D01*
X0002703354Y0001035023D02*
X0002648236Y0001035023D01*
X0002703354Y0001035023D02*
X0002703354Y0001133448D01*
X0002523236Y0001132448D02*
X0002523236Y0001034023D01*
X0002523236Y0001132448D02*
X0002578354Y0001132448D01*
X0002578354Y0001034023D02*
X0002523236Y0001034023D01*
X0002578354Y0001034023D02*
X0002578354Y0001132448D01*
X0002212598Y0001732283D02*
X0002078740Y0001732283D01*
X0002078740Y0001732283D02*
X0002078740Y0001594488D01*
X0002078740Y0001594488D02*
X0002212598Y0001594488D01*
X0002212598Y0001594488D02*
X0002212598Y0001732283D01*
X0002564566Y0001269291D02*
X0002564566Y0001379527D01*
X0002564566Y0001269291D02*
X0002513385Y0001269291D01*
X0002513385Y0001379527D02*
X0002564566Y0001379527D01*
X0002513385Y0001379527D02*
X0002513385Y0001269291D01*
X0002422937Y0001606787D02*
X0002312700Y0001606787D01*
X0002422937Y0001606787D02*
X0002422937Y0001555606D01*
X0002312700Y0001555606D02*
X0002312700Y0001606787D01*
X0002312700Y0001555606D02*
X0002422937Y0001555606D01*
X0002459055Y0001379921D02*
X0002459055Y0001269685D01*
X0002459055Y0001379921D02*
X0002510236Y0001379921D01*
X0002510236Y0001269685D02*
X0002459055Y0001269685D01*
X0002510236Y0001269685D02*
X0002510236Y0001379921D01*
X0002397637Y0001269291D02*
X0002397637Y0001379527D01*
X0002397637Y0001269291D02*
X0002346456Y0001269291D01*
X0002346456Y0001379527D02*
X0002397637Y0001379527D01*
X0002346456Y0001379527D02*
X0002346456Y0001269291D01*
X0002510385Y0001029118D02*
X0002510385Y0001139354D01*
X0002510385Y0001029118D02*
X0002459204Y0001029118D01*
X0002459204Y0001139354D02*
X0002510385Y0001139354D01*
X0002459204Y0001139354D02*
X0002459204Y0001029118D01*
X0002779133Y0001137007D02*
X0002779133Y0001026771D01*
X0002779133Y0001137007D02*
X0002830314Y0001137007D01*
X0002830314Y0001026771D02*
X0002779133Y0001026771D01*
X0002830314Y0001026771D02*
X0002830314Y0001137007D01*
X0002422937Y0001543787D02*
X0002312700Y0001543787D01*
X0002422937Y0001543787D02*
X0002422937Y0001492606D01*
X0002312700Y0001492606D02*
X0002312700Y0001543787D01*
X0002312700Y0001492606D02*
X0002422937Y0001492606D01*
X0002444094Y0001483070D02*
X0002593700Y0001483070D01*
X0002593700Y0001483070D02*
X0002593700Y0001624803D01*
X0002593700Y0001624803D02*
X0002444094Y0001624803D01*
X0002444094Y0001624803D02*
X0002444094Y0001483070D01*
G04 next file*
G04 Gerber Fmt 4.6, Leading zero omitted, Abs format (unit mm)*
G04 Created by KiCad (PCBNEW 4.0.7) date 11/29/17 17:20:56*
G01G01*
G04 APERTURE LIST*
G04 APERTURE END LIST*
D72*
G04 next file*
G04 Gerber Fmt 4.6, Leading zero omitted, Abs format (unit mm)*
G04 Created by KiCad (PCBNEW 4.0.7) date 11/29/17 17:20:56*
G01G01*
G04 APERTURE LIST*
G04 APERTURE END LIST*
D73*
G04 next file*
G04 Gerber Fmt 4.6, Leading zero omitted, Abs format (unit mm)*
G04 Created by KiCad (PCBNEW 4.0.7) date 11/29/17 17:20:56*
G01G01*
G04 APERTURE LIST*
G04 APERTURE END LIST*
D74*
D75*
X0002003093Y0001602924D02*
X0002005905Y0001600112D01*
X0002008717Y0001594488D01*
X0002008717Y0001580427D01*
X0002005905Y0001574803D01*
X0002003093Y0001571990D01*
X0001997469Y0001569178D01*
X0001991844Y0001569178D01*
X0001983408Y0001571990D01*
X0001949662Y0001605736D01*
X0001949662Y0001569178D01*
X0002008717Y0001549493D02*
X0002008717Y0001512935D01*
X0001986220Y0001532620D01*
X0001986220Y0001524184D01*
X0001983408Y0001518560D01*
X0001980596Y0001515747D01*
X0001974971Y0001512935D01*
X0001960911Y0001512935D01*
X0001955286Y0001515747D01*
X0001952474Y0001518560D01*
X0001949662Y0001524184D01*
X0001949662Y0001541057D01*
X0001952474Y0001546681D01*
X0001955286Y0001549493D01*
X0001955286Y0001487626D02*
X0001952474Y0001484814D01*
X0001949662Y0001487626D01*
X0001952474Y0001490438D01*
X0001955286Y0001487626D01*
X0001949662Y0001487626D01*
X0002008717Y0001448256D02*
X0002008717Y0001442632D01*
X0002005905Y0001437007D01*
X0002003093Y0001434195D01*
X0001997469Y0001431383D01*
X0001986220Y0001428571D01*
X0001972159Y0001428571D01*
X0001960911Y0001431383D01*
X0001955286Y0001434195D01*
X0001952474Y0001437007D01*
X0001949662Y0001442632D01*
X0001949662Y0001448256D01*
X0001952474Y0001453880D01*
X0001955286Y0001456692D01*
X0001960911Y0001459505D01*
X0001972159Y0001462317D01*
X0001986220Y0001462317D01*
X0001997469Y0001459505D01*
X0002003093Y0001456692D01*
X0002005905Y0001453880D01*
X0002008717Y0001448256D01*
X0002008717Y0001392013D02*
X0002008717Y0001386389D01*
X0002005905Y0001380764D01*
X0002003093Y0001377952D01*
X0001997469Y0001375140D01*
X0001986220Y0001372328D01*
X0001972159Y0001372328D01*
X0001960911Y0001375140D01*
X0001955286Y0001377952D01*
X0001952474Y0001380764D01*
X0001949662Y0001386389D01*
X0001949662Y0001392013D01*
X0001952474Y0001397637D01*
X0001955286Y0001400449D01*
X0001960911Y0001403262D01*
X0001972159Y0001406074D01*
X0001986220Y0001406074D01*
X0001997469Y0001403262D01*
X0002003093Y0001400449D01*
X0002005905Y0001397637D01*
X0002008717Y0001392013D01*
X0002008717Y0001335770D02*
X0002008717Y0001330146D01*
X0002005905Y0001324521D01*
X0002003093Y0001321709D01*
X0001997469Y0001318897D01*
X0001986220Y0001316085D01*
X0001972159Y0001316085D01*
X0001960911Y0001318897D01*
X0001955286Y0001321709D01*
X0001952474Y0001324521D01*
X0001949662Y0001330146D01*
X0001949662Y0001335770D01*
X0001952474Y0001341394D01*
X0001955286Y0001344207D01*
X0001960911Y0001347019D01*
X0001972159Y0001349831D01*
X0001986220Y0001349831D01*
X0001997469Y0001347019D01*
X0002003093Y0001344207D01*
X0002005905Y0001341394D01*
X0002008717Y0001335770D01*
X0001949662Y0001245781D02*
X0001989032Y0001245781D01*
X0001983408Y0001245781D02*
X0001986220Y0001242969D01*
X0001989032Y0001237345D01*
X0001989032Y0001228908D01*
X0001986220Y0001223284D01*
X0001980596Y0001220472D01*
X0001949662Y0001220472D01*
X0001980596Y0001220472D02*
X0001986220Y0001217660D01*
X0001989032Y0001212036D01*
X0001989032Y0001203599D01*
X0001986220Y0001197975D01*
X0001980596Y0001195163D01*
X0001949662Y0001195163D01*
X0001949662Y0001167041D02*
X0001989032Y0001167041D01*
X0001983408Y0001167041D02*
X0001986220Y0001164229D01*
X0001989032Y0001158605D01*
X0001989032Y0001150168D01*
X0001986220Y0001144544D01*
X0001980596Y0001141732D01*
X0001949662Y0001141732D01*
X0001980596Y0001141732D02*
X0001986220Y0001138920D01*
X0001989032Y0001133295D01*
X0001989032Y0001124859D01*
X0001986220Y0001119235D01*
X0001980596Y0001116422D01*
X0001949662Y0001116422D01*
X0002029527Y0001811023D02*
X0002029527Y0000905511D01*
X0002047244Y0001811023D02*
X0001923228Y0001811023D01*
X0002047244Y0000905511D02*
X0001923228Y0000905511D01*
X0002029527Y0000905511D02*
X0002006440Y0000949862D01*
X0002029527Y0000905511D02*
X0002052614Y0000949862D01*
X0002029527Y0001811023D02*
X0002006440Y0001766673D01*
X0002029527Y0001811023D02*
X0002052614Y0001766673D01*
X0002425759Y0001959505D02*
X0002462317Y0001959505D01*
X0002442632Y0001937007D01*
X0002451068Y0001937007D01*
X0002456692Y0001934195D01*
X0002459505Y0001931383D01*
X0002462317Y0001925759D01*
X0002462317Y0001911698D01*
X0002459505Y0001906074D01*
X0002456692Y0001903262D01*
X0002451068Y0001900449D01*
X0002434195Y0001900449D01*
X0002428571Y0001903262D01*
X0002425759Y0001906074D01*
X0002518560Y0001900449D02*
X0002484814Y0001900449D01*
X0002501687Y0001900449D02*
X0002501687Y0001959505D01*
X0002496063Y0001951068D01*
X0002490438Y0001945444D01*
X0002484814Y0001942632D01*
X0002543869Y0001906074D02*
X0002546681Y0001903262D01*
X0002543869Y0001900449D01*
X0002541057Y0001903262D01*
X0002543869Y0001906074D01*
X0002543869Y0001900449D01*
X0002580427Y0001934195D02*
X0002574803Y0001937007D01*
X0002571990Y0001939820D01*
X0002569178Y0001945444D01*
X0002569178Y0001948256D01*
X0002571990Y0001953880D01*
X0002574803Y0001956692D01*
X0002580427Y0001959505D01*
X0002591676Y0001959505D01*
X0002597300Y0001956692D01*
X0002600112Y0001953880D01*
X0002602924Y0001948256D01*
X0002602924Y0001945444D01*
X0002600112Y0001939820D01*
X0002597300Y0001937007D01*
X0002591676Y0001934195D01*
X0002580427Y0001934195D01*
X0002574803Y0001931383D01*
X0002571990Y0001928571D01*
X0002569178Y0001922947D01*
X0002569178Y0001911698D01*
X0002571990Y0001906074D01*
X0002574803Y0001903262D01*
X0002580427Y0001900449D01*
X0002591676Y0001900449D01*
X0002597300Y0001903262D01*
X0002600112Y0001906074D01*
X0002602924Y0001911698D01*
X0002602924Y0001922947D01*
X0002600112Y0001928571D01*
X0002597300Y0001931383D01*
X0002591676Y0001934195D01*
X0002639482Y0001959505D02*
X0002645106Y0001959505D01*
X0002650731Y0001956692D01*
X0002653543Y0001953880D01*
X0002656355Y0001948256D01*
X0002659167Y0001937007D01*
X0002659167Y0001922947D01*
X0002656355Y0001911698D01*
X0002653543Y0001906074D01*
X0002650731Y0001903262D01*
X0002645106Y0001900449D01*
X0002639482Y0001900449D01*
X0002633858Y0001903262D01*
X0002631046Y0001906074D01*
X0002628233Y0001911698D01*
X0002625421Y0001922947D01*
X0002625421Y0001937007D01*
X0002628233Y0001948256D01*
X0002631046Y0001953880D01*
X0002633858Y0001956692D01*
X0002639482Y0001959505D01*
X0002695725Y0001959505D02*
X0002701349Y0001959505D01*
X0002706974Y0001956692D01*
X0002709786Y0001953880D01*
X0002712598Y0001948256D01*
X0002715410Y0001937007D01*
X0002715410Y0001922947D01*
X0002712598Y0001911698D01*
X0002709786Y0001906074D01*
X0002706974Y0001903262D01*
X0002701349Y0001900449D01*
X0002695725Y0001900449D01*
X0002690101Y0001903262D01*
X0002687289Y0001906074D01*
X0002684476Y0001911698D01*
X0002681664Y0001922947D01*
X0002681664Y0001937007D01*
X0002684476Y0001948256D01*
X0002687289Y0001953880D01*
X0002690101Y0001956692D01*
X0002695725Y0001959505D01*
X0002785714Y0001900449D02*
X0002785714Y0001939820D01*
X0002785714Y0001934195D02*
X0002788526Y0001937007D01*
X0002794150Y0001939820D01*
X0002802587Y0001939820D01*
X0002808211Y0001937007D01*
X0002811023Y0001931383D01*
X0002811023Y0001900449D01*
X0002811023Y0001931383D02*
X0002813835Y0001937007D01*
X0002819460Y0001939820D01*
X0002827896Y0001939820D01*
X0002833520Y0001937007D01*
X0002836332Y0001931383D01*
X0002836332Y0001900449D01*
X0002864454Y0001900449D02*
X0002864454Y0001939820D01*
X0002864454Y0001934195D02*
X0002867266Y0001937007D01*
X0002872890Y0001939820D01*
X0002881327Y0001939820D01*
X0002886951Y0001937007D01*
X0002889763Y0001931383D01*
X0002889763Y0001900449D01*
X0002889763Y0001931383D02*
X0002892575Y0001937007D01*
X0002898200Y0001939820D01*
X0002906636Y0001939820D01*
X0002912260Y0001937007D01*
X0002915073Y0001931383D01*
X0002915073Y0001900449D01*
X0002047244Y0001874015D02*
X0003299212Y0001874015D01*
X0002047244Y0001811023D02*
X0002047244Y0001980314D01*
X0003299212Y0001811023D02*
X0003299212Y0001980314D01*
X0003299212Y0001874015D02*
X0003254862Y0001850928D01*
X0003299212Y0001874015D02*
X0003254862Y0001897103D01*
X0002047244Y0001874015D02*
X0002091594Y0001850928D01*
X0002047244Y0001874015D02*
X0002091594Y0001897103D01*
G04 next file*
G04 Gerber Fmt 4.6, Leading zero omitted, Abs format (unit mm)*
G04 Created by KiCad (PCBNEW 4.0.7) date 11/29/17 17:20:56*
G01G01*
G04 APERTURE LIST*
G04 APERTURE END LIST*
D76*
G04 next file*
G04 Gerber Fmt 4.6, Leading zero omitted, Abs format (unit mm)*
G04 Created by KiCad (PCBNEW 4.0.7) date 11/29/17 17:20:56*
G01G01*
G04 APERTURE LIST*
G04 APERTURE END LIST*
D77*
D78*
X0002322779Y0001088094D02*
X0002543251Y0001088094D01*
X0002543251Y0001088094D02*
X0002543251Y0001564472D01*
X0002543251Y0001564472D02*
X0002322779Y0001564472D01*
X0002322779Y0001564472D02*
X0002322779Y0001088094D01*
X0003095881Y0001762692D02*
X0002454149Y0001762692D01*
X0002454149Y0001762692D02*
X0002454149Y0001620960D01*
X0002454149Y0001620960D02*
X0003095881Y0001620960D01*
X0003095881Y0001620960D02*
X0003095881Y0001762692D01*
X0002430787Y0001060291D02*
X0002430787Y0000993362D01*
X0002430787Y0000993362D02*
X0002277244Y0000993362D01*
X0002277244Y0000993362D02*
X0002277244Y0001060291D01*
X0002277244Y0001060291D02*
X0002430787Y0001060291D01*
X0003091768Y0000989915D02*
X0003024839Y0000989915D01*
X0003024839Y0000989915D02*
X0003024839Y0001143458D01*
X0003024839Y0001143458D02*
X0003091768Y0001143458D01*
X0003091768Y0001143458D02*
X0003091768Y0000989915D01*
X0003006834Y0000989094D02*
X0002939905Y0000989094D01*
X0002939905Y0000989094D02*
X0002939905Y0001142637D01*
X0002939905Y0001142637D02*
X0003006834Y0001142637D01*
X0003006834Y0001142637D02*
X0003006834Y0000989094D01*
G04 next file*
G04 Gerber Fmt 4.6, Leading zero omitted, Abs format (unit mm)*
G04 Created by KiCad (PCBNEW 4.0.7) date 11/29/17 17:20:56*
G01G01*
G04 APERTURE LIST*
G04 APERTURE END LIST*
D79*
G04 next file*
G04 Gerber Fmt 4.6, Leading zero omitted, Abs format (unit mm)*
G04 Created by KiCad (PCBNEW 4.0.7) date 11/29/17 17:20:56*
G01G01*
G04 APERTURE LIST*
G04 APERTURE END LIST*
D80*
D81*
X0002585236Y0002150000D02*
X0002585236Y0002051574D01*
X0002585236Y0002150000D02*
X0002640354Y0002150000D01*
X0002640354Y0002051574D02*
X0002585236Y0002051574D01*
X0002640354Y0002051574D02*
X0002640354Y0002150000D01*
X0002972440Y0002058661D02*
X0002972440Y0002157086D01*
X0002972440Y0002058661D02*
X0002917322Y0002058661D01*
X0002917322Y0002157086D02*
X0002972440Y0002157086D01*
X0002917322Y0002157086D02*
X0002917322Y0002058661D01*
X0002807874Y0002152755D02*
X0002807874Y0002054330D01*
X0002807874Y0002152755D02*
X0002862992Y0002152755D01*
X0002862992Y0002054330D02*
X0002807874Y0002054330D01*
X0002862992Y0002054330D02*
X0002862992Y0002152755D01*
X0002742913Y0002435039D02*
X0002742913Y0002533464D01*
X0002742913Y0002435039D02*
X0002687795Y0002435039D01*
X0002687795Y0002533464D02*
X0002742913Y0002533464D01*
X0002687795Y0002533464D02*
X0002687795Y0002435039D01*
X0002705574Y0002183464D02*
X0002705574Y0002281889D01*
X0002705574Y0002183464D02*
X0002650456Y0002183464D01*
X0002650456Y0002281889D02*
X0002705574Y0002281889D01*
X0002650456Y0002281889D02*
X0002650456Y0002183464D01*
X0002715354Y0002042519D02*
X0002715354Y0001932283D01*
X0002715354Y0002042519D02*
X0002766535Y0002042519D01*
X0002766535Y0001932283D02*
X0002715354Y0001932283D01*
X0002766535Y0001932283D02*
X0002766535Y0002042519D01*
X0002992606Y0002177559D02*
X0002992606Y0002287795D01*
X0002992606Y0002177559D02*
X0002941425Y0002177559D01*
X0002941425Y0002287795D02*
X0002992606Y0002287795D01*
X0002941425Y0002287795D02*
X0002941425Y0002177559D01*
X0002875984Y0002429133D02*
X0002875984Y0002539370D01*
X0002875984Y0002429133D02*
X0002824803Y0002429133D01*
X0002824803Y0002539370D02*
X0002875984Y0002539370D01*
X0002824803Y0002539370D02*
X0002824803Y0002429133D01*
X0002631606Y0002175220D02*
X0002631606Y0002285456D01*
X0002631606Y0002175220D02*
X0002580425Y0002175220D01*
X0002580425Y0002285456D02*
X0002631606Y0002285456D01*
X0002580425Y0002285456D02*
X0002580425Y0002175220D01*
X0002420078Y0001929133D02*
X0002420078Y0002027559D01*
X0002420078Y0001929133D02*
X0002364960Y0001929133D01*
X0002364960Y0002027559D02*
X0002420078Y0002027559D01*
X0002364960Y0002027559D02*
X0002364960Y0001929133D01*
X0003030744Y0002021805D02*
X0003030744Y0001923379D01*
X0003030744Y0002021805D02*
X0003085862Y0002021805D01*
X0003085862Y0001923379D02*
X0003030744Y0001923379D01*
X0003085862Y0001923379D02*
X0003085862Y0002021805D01*
X0003000929Y0001922165D02*
X0003000929Y0002020590D01*
X0003000929Y0001922165D02*
X0002945811Y0001922165D01*
X0002945811Y0002020590D02*
X0003000929Y0002020590D01*
X0002945811Y0002020590D02*
X0002945811Y0001922165D01*
X0002345275Y0001928346D02*
X0002195669Y0001928346D01*
X0002345275Y0002070078D02*
X0002345275Y0001928346D01*
X0002195669Y0002070078D02*
X0002345275Y0002070078D01*
X0002195669Y0001928346D02*
X0002195669Y0002070078D01*
X0002755511Y0002533464D02*
X0002755511Y0002435039D01*
X0002755511Y0002533464D02*
X0002810629Y0002533464D01*
X0002810629Y0002435039D02*
X0002755511Y0002435039D01*
X0002810629Y0002435039D02*
X0002810629Y0002533464D01*
X0002718456Y0002281889D02*
X0002718456Y0002183464D01*
X0002718456Y0002281889D02*
X0002773574Y0002281889D01*
X0002773574Y0002183464D02*
X0002718456Y0002183464D01*
X0002773574Y0002183464D02*
X0002773574Y0002281889D01*
X0002838574Y0002183464D02*
X0002838574Y0002281889D01*
X0002838574Y0002183464D02*
X0002783456Y0002183464D01*
X0002783456Y0002281889D02*
X0002838574Y0002281889D01*
X0002783456Y0002281889D02*
X0002783456Y0002183464D01*
X0002875196Y0002281889D02*
X0002875196Y0002183464D01*
X0002875196Y0002281889D02*
X0002930314Y0002281889D01*
X0002930314Y0002183464D02*
X0002875196Y0002183464D01*
X0002930314Y0002183464D02*
X0002930314Y0002281889D01*
X0002359692Y0002625456D02*
X0002359692Y0002527031D01*
X0002359692Y0002625456D02*
X0002414811Y0002625456D01*
X0002414811Y0002527031D02*
X0002359692Y0002527031D01*
X0002414811Y0002527031D02*
X0002414811Y0002625456D01*
X0002617322Y0002536220D02*
X0002617322Y0002437795D01*
X0002617322Y0002536220D02*
X0002672440Y0002536220D01*
X0002672440Y0002437795D02*
X0002617322Y0002437795D01*
X0002672440Y0002437795D02*
X0002672440Y0002536220D01*
X0002282811Y0002527031D02*
X0002282811Y0002625456D01*
X0002282811Y0002527031D02*
X0002227692Y0002527031D01*
X0002227692Y0002625456D02*
X0002282811Y0002625456D01*
X0002227692Y0002625456D02*
X0002227692Y0002527031D01*
X0002293692Y0002625456D02*
X0002293692Y0002527031D01*
X0002293692Y0002625456D02*
X0002348811Y0002625456D01*
X0002348811Y0002527031D02*
X0002293692Y0002527031D01*
X0002348811Y0002527031D02*
X0002348811Y0002625456D01*
X0002116937Y0002314960D02*
X0002116937Y0002216535D01*
X0002116937Y0002314960D02*
X0002172055Y0002314960D01*
X0002172055Y0002216535D02*
X0002116937Y0002216535D01*
X0002172055Y0002216535D02*
X0002172055Y0002314960D01*
X0002165354Y0001910433D02*
X0002066929Y0001910433D01*
X0002165354Y0001910433D02*
X0002165354Y0001855314D01*
X0002066929Y0001855314D02*
X0002066929Y0001910433D01*
X0002066929Y0001855314D02*
X0002165354Y0001855314D01*
X0002165354Y0002059055D02*
X0002066929Y0002059055D01*
X0002165354Y0002059055D02*
X0002165354Y0002003937D01*
X0002066929Y0002003937D02*
X0002066929Y0002059055D01*
X0002066929Y0002003937D02*
X0002165354Y0002003937D01*
X0002165354Y0001988188D02*
X0002066929Y0001988188D01*
X0002165354Y0001988188D02*
X0002165354Y0001933070D01*
X0002066929Y0001933070D02*
X0002066929Y0001988188D01*
X0002066929Y0001933070D02*
X0002165354Y0001933070D01*
X0002585236Y0002038960D02*
X0002585236Y0001940535D01*
X0002585236Y0002038960D02*
X0002640354Y0002038960D01*
X0002640354Y0001940535D02*
X0002585236Y0001940535D01*
X0002640354Y0001940535D02*
X0002640354Y0002038960D01*
X0002648236Y0002038960D02*
X0002648236Y0001940535D01*
X0002648236Y0002038960D02*
X0002703354Y0002038960D01*
X0002703354Y0001940535D02*
X0002648236Y0001940535D01*
X0002703354Y0001940535D02*
X0002703354Y0002038960D01*
X0002523236Y0002037960D02*
X0002523236Y0001939535D01*
X0002523236Y0002037960D02*
X0002578354Y0002037960D01*
X0002578354Y0001939535D02*
X0002523236Y0001939535D01*
X0002578354Y0001939535D02*
X0002578354Y0002037960D01*
X0002212598Y0002637795D02*
X0002078740Y0002637795D01*
X0002078740Y0002637795D02*
X0002078740Y0002500000D01*
X0002078740Y0002500000D02*
X0002212598Y0002500000D01*
X0002212598Y0002500000D02*
X0002212598Y0002637795D01*
X0002564566Y0002174803D02*
X0002564566Y0002285039D01*
X0002564566Y0002174803D02*
X0002513385Y0002174803D01*
X0002513385Y0002285039D02*
X0002564566Y0002285039D01*
X0002513385Y0002285039D02*
X0002513385Y0002174803D01*
X0002422937Y0002512299D02*
X0002312700Y0002512299D01*
X0002422937Y0002512299D02*
X0002422937Y0002461118D01*
X0002312700Y0002461118D02*
X0002312700Y0002512299D01*
X0002312700Y0002461118D02*
X0002422937Y0002461118D01*
X0002459055Y0002285433D02*
X0002459055Y0002175196D01*
X0002459055Y0002285433D02*
X0002510236Y0002285433D01*
X0002510236Y0002175196D02*
X0002459055Y0002175196D01*
X0002510236Y0002175196D02*
X0002510236Y0002285433D01*
X0002397637Y0002174803D02*
X0002397637Y0002285039D01*
X0002397637Y0002174803D02*
X0002346456Y0002174803D01*
X0002346456Y0002285039D02*
X0002397637Y0002285039D01*
X0002346456Y0002285039D02*
X0002346456Y0002174803D01*
X0002510385Y0001934629D02*
X0002510385Y0002044866D01*
X0002510385Y0001934629D02*
X0002459204Y0001934629D01*
X0002459204Y0002044866D02*
X0002510385Y0002044866D01*
X0002459204Y0002044866D02*
X0002459204Y0001934629D01*
X0002779133Y0002042519D02*
X0002779133Y0001932283D01*
X0002779133Y0002042519D02*
X0002830314Y0002042519D01*
X0002830314Y0001932283D02*
X0002779133Y0001932283D01*
X0002830314Y0001932283D02*
X0002830314Y0002042519D01*
X0002422937Y0002449299D02*
X0002312700Y0002449299D01*
X0002422937Y0002449299D02*
X0002422937Y0002398118D01*
X0002312700Y0002398118D02*
X0002312700Y0002449299D01*
X0002312700Y0002398118D02*
X0002422937Y0002398118D01*
X0002444094Y0002388582D02*
X0002593700Y0002388582D01*
X0002593700Y0002388582D02*
X0002593700Y0002530314D01*
X0002593700Y0002530314D02*
X0002444094Y0002530314D01*
X0002444094Y0002530314D02*
X0002444094Y0002388582D01*
G04 next file*
G04 Gerber Fmt 4.6, Leading zero omitted, Abs format (unit mm)*
G04 Created by KiCad (PCBNEW 4.0.7) date 11/29/17 17:20:56*
G01G01*
G04 APERTURE LIST*
G04 APERTURE END LIST*
D82*
G04 next file*
G04 Gerber Fmt 4.6, Leading zero omitted, Abs format (unit mm)*
G04 Created by KiCad (PCBNEW 4.0.7) date 11/29/17 17:20:56*
G01G01*
G04 APERTURE LIST*
G04 APERTURE END LIST*
D83*
G04 next file*
G04 Gerber Fmt 4.6, Leading zero omitted, Abs format (unit mm)*
G04 Created by KiCad (PCBNEW 4.0.7) date 11/29/17 17:20:56*
G01G01*
G04 APERTURE LIST*
G04 APERTURE END LIST*
D84*
D85*
X0002003093Y0002508436D02*
X0002005905Y0002505624D01*
X0002008717Y0002499999D01*
X0002008717Y0002485939D01*
X0002005905Y0002480314D01*
X0002003093Y0002477502D01*
X0001997469Y0002474690D01*
X0001991844Y0002474690D01*
X0001983408Y0002477502D01*
X0001949662Y0002511248D01*
X0001949662Y0002474690D01*
X0002008717Y0002455005D02*
X0002008717Y0002418447D01*
X0001986220Y0002438132D01*
X0001986220Y0002429696D01*
X0001983408Y0002424071D01*
X0001980596Y0002421259D01*
X0001974971Y0002418447D01*
X0001960911Y0002418447D01*
X0001955286Y0002421259D01*
X0001952474Y0002424071D01*
X0001949662Y0002429696D01*
X0001949662Y0002446569D01*
X0001952474Y0002452193D01*
X0001955286Y0002455005D01*
X0001955286Y0002393138D02*
X0001952474Y0002390326D01*
X0001949662Y0002393138D01*
X0001952474Y0002395950D01*
X0001955286Y0002393138D01*
X0001949662Y0002393138D01*
X0002008717Y0002353768D02*
X0002008717Y0002348143D01*
X0002005905Y0002342519D01*
X0002003093Y0002339707D01*
X0001997469Y0002336895D01*
X0001986220Y0002334083D01*
X0001972159Y0002334083D01*
X0001960911Y0002336895D01*
X0001955286Y0002339707D01*
X0001952474Y0002342519D01*
X0001949662Y0002348143D01*
X0001949662Y0002353768D01*
X0001952474Y0002359392D01*
X0001955286Y0002362204D01*
X0001960911Y0002365016D01*
X0001972159Y0002367829D01*
X0001986220Y0002367829D01*
X0001997469Y0002365016D01*
X0002003093Y0002362204D01*
X0002005905Y0002359392D01*
X0002008717Y0002353768D01*
X0002008717Y0002297525D02*
X0002008717Y0002291901D01*
X0002005905Y0002286276D01*
X0002003093Y0002283464D01*
X0001997469Y0002280652D01*
X0001986220Y0002277840D01*
X0001972159Y0002277840D01*
X0001960911Y0002280652D01*
X0001955286Y0002283464D01*
X0001952474Y0002286276D01*
X0001949662Y0002291901D01*
X0001949662Y0002297525D01*
X0001952474Y0002303149D01*
X0001955286Y0002305961D01*
X0001960911Y0002308773D01*
X0001972159Y0002311586D01*
X0001986220Y0002311586D01*
X0001997469Y0002308773D01*
X0002003093Y0002305961D01*
X0002005905Y0002303149D01*
X0002008717Y0002297525D01*
X0002008717Y0002241282D02*
X0002008717Y0002235658D01*
X0002005905Y0002230033D01*
X0002003093Y0002227221D01*
X0001997469Y0002224409D01*
X0001986220Y0002221597D01*
X0001972159Y0002221597D01*
X0001960911Y0002224409D01*
X0001955286Y0002227221D01*
X0001952474Y0002230033D01*
X0001949662Y0002235658D01*
X0001949662Y0002241282D01*
X0001952474Y0002246906D01*
X0001955286Y0002249718D01*
X0001960911Y0002252530D01*
X0001972159Y0002255343D01*
X0001986220Y0002255343D01*
X0001997469Y0002252530D01*
X0002003093Y0002249718D01*
X0002005905Y0002246906D01*
X0002008717Y0002241282D01*
X0001949662Y0002151293D02*
X0001989032Y0002151293D01*
X0001983408Y0002151293D02*
X0001986220Y0002148481D01*
X0001989032Y0002142857D01*
X0001989032Y0002134420D01*
X0001986220Y0002128796D01*
X0001980596Y0002125984D01*
X0001949662Y0002125984D01*
X0001980596Y0002125984D02*
X0001986220Y0002123172D01*
X0001989032Y0002117547D01*
X0001989032Y0002109111D01*
X0001986220Y0002103487D01*
X0001980596Y0002100674D01*
X0001949662Y0002100674D01*
X0001949662Y0002072553D02*
X0001989032Y0002072553D01*
X0001983408Y0002072553D02*
X0001986220Y0002069741D01*
X0001989032Y0002064117D01*
X0001989032Y0002055680D01*
X0001986220Y0002050056D01*
X0001980596Y0002047244D01*
X0001949662Y0002047244D01*
X0001980596Y0002047244D02*
X0001986220Y0002044431D01*
X0001989032Y0002038807D01*
X0001989032Y0002030371D01*
X0001986220Y0002024746D01*
X0001980596Y0002021934D01*
X0001949662Y0002021934D01*
X0002029527Y0002716535D02*
X0002029527Y0001811023D01*
X0002047244Y0002716535D02*
X0001923228Y0002716535D01*
X0002047244Y0001811023D02*
X0001923228Y0001811023D01*
X0002029527Y0001811023D02*
X0002006440Y0001855374D01*
X0002029527Y0001811023D02*
X0002052614Y0001855374D01*
X0002029527Y0002716535D02*
X0002006440Y0002672184D01*
X0002029527Y0002716535D02*
X0002052614Y0002672184D01*
X0002425759Y0002865016D02*
X0002462317Y0002865016D01*
X0002442632Y0002842519D01*
X0002451068Y0002842519D01*
X0002456692Y0002839707D01*
X0002459505Y0002836895D01*
X0002462317Y0002831271D01*
X0002462317Y0002817210D01*
X0002459505Y0002811586D01*
X0002456692Y0002808773D01*
X0002451068Y0002805961D01*
X0002434195Y0002805961D01*
X0002428571Y0002808773D01*
X0002425759Y0002811586D01*
X0002518560Y0002805961D02*
X0002484814Y0002805961D01*
X0002501687Y0002805961D02*
X0002501687Y0002865016D01*
X0002496063Y0002856580D01*
X0002490438Y0002850956D01*
X0002484814Y0002848143D01*
X0002543869Y0002811586D02*
X0002546681Y0002808773D01*
X0002543869Y0002805961D01*
X0002541057Y0002808773D01*
X0002543869Y0002811586D01*
X0002543869Y0002805961D01*
X0002580427Y0002839707D02*
X0002574803Y0002842519D01*
X0002571990Y0002845331D01*
X0002569178Y0002850956D01*
X0002569178Y0002853768D01*
X0002571990Y0002859392D01*
X0002574803Y0002862204D01*
X0002580427Y0002865016D01*
X0002591676Y0002865016D01*
X0002597300Y0002862204D01*
X0002600112Y0002859392D01*
X0002602924Y0002853768D01*
X0002602924Y0002850956D01*
X0002600112Y0002845331D01*
X0002597300Y0002842519D01*
X0002591676Y0002839707D01*
X0002580427Y0002839707D01*
X0002574803Y0002836895D01*
X0002571990Y0002834083D01*
X0002569178Y0002828458D01*
X0002569178Y0002817210D01*
X0002571990Y0002811586D01*
X0002574803Y0002808773D01*
X0002580427Y0002805961D01*
X0002591676Y0002805961D01*
X0002597300Y0002808773D01*
X0002600112Y0002811586D01*
X0002602924Y0002817210D01*
X0002602924Y0002828458D01*
X0002600112Y0002834083D01*
X0002597300Y0002836895D01*
X0002591676Y0002839707D01*
X0002639482Y0002865016D02*
X0002645106Y0002865016D01*
X0002650731Y0002862204D01*
X0002653543Y0002859392D01*
X0002656355Y0002853768D01*
X0002659167Y0002842519D01*
X0002659167Y0002828458D01*
X0002656355Y0002817210D01*
X0002653543Y0002811586D01*
X0002650731Y0002808773D01*
X0002645106Y0002805961D01*
X0002639482Y0002805961D01*
X0002633858Y0002808773D01*
X0002631046Y0002811586D01*
X0002628233Y0002817210D01*
X0002625421Y0002828458D01*
X0002625421Y0002842519D01*
X0002628233Y0002853768D01*
X0002631046Y0002859392D01*
X0002633858Y0002862204D01*
X0002639482Y0002865016D01*
X0002695725Y0002865016D02*
X0002701349Y0002865016D01*
X0002706974Y0002862204D01*
X0002709786Y0002859392D01*
X0002712598Y0002853768D01*
X0002715410Y0002842519D01*
X0002715410Y0002828458D01*
X0002712598Y0002817210D01*
X0002709786Y0002811586D01*
X0002706974Y0002808773D01*
X0002701349Y0002805961D01*
X0002695725Y0002805961D01*
X0002690101Y0002808773D01*
X0002687289Y0002811586D01*
X0002684476Y0002817210D01*
X0002681664Y0002828458D01*
X0002681664Y0002842519D01*
X0002684476Y0002853768D01*
X0002687289Y0002859392D01*
X0002690101Y0002862204D01*
X0002695725Y0002865016D01*
X0002785714Y0002805961D02*
X0002785714Y0002845331D01*
X0002785714Y0002839707D02*
X0002788526Y0002842519D01*
X0002794150Y0002845331D01*
X0002802587Y0002845331D01*
X0002808211Y0002842519D01*
X0002811023Y0002836895D01*
X0002811023Y0002805961D01*
X0002811023Y0002836895D02*
X0002813835Y0002842519D01*
X0002819460Y0002845331D01*
X0002827896Y0002845331D01*
X0002833520Y0002842519D01*
X0002836332Y0002836895D01*
X0002836332Y0002805961D01*
X0002864454Y0002805961D02*
X0002864454Y0002845331D01*
X0002864454Y0002839707D02*
X0002867266Y0002842519D01*
X0002872890Y0002845331D01*
X0002881327Y0002845331D01*
X0002886951Y0002842519D01*
X0002889763Y0002836895D01*
X0002889763Y0002805961D01*
X0002889763Y0002836895D02*
X0002892575Y0002842519D01*
X0002898200Y0002845331D01*
X0002906636Y0002845331D01*
X0002912260Y0002842519D01*
X0002915073Y0002836895D01*
X0002915073Y0002805961D01*
X0002047244Y0002779527D02*
X0003299212Y0002779527D01*
X0002047244Y0002716535D02*
X0002047244Y0002885826D01*
X0003299212Y0002716535D02*
X0003299212Y0002885826D01*
X0003299212Y0002779527D02*
X0003254862Y0002756440D01*
X0003299212Y0002779527D02*
X0003254862Y0002802615D01*
X0002047244Y0002779527D02*
X0002091594Y0002756440D01*
X0002047244Y0002779527D02*
X0002091594Y0002802615D01*
G04 next file*
G04 Gerber Fmt 4.6, Leading zero omitted, Abs format (unit mm)*
G04 Created by KiCad (PCBNEW 4.0.7) date 11/29/17 17:20:56*
G01G01*
G04 APERTURE LIST*
G04 APERTURE END LIST*
D86*
G04 next file*
G04 Gerber Fmt 4.6, Leading zero omitted, Abs format (unit mm)*
G04 Created by KiCad (PCBNEW 4.0.7) date 11/29/17 17:20:56*
G01G01*
G04 APERTURE LIST*
G04 APERTURE END LIST*
D87*
D88*
X0002322779Y0001993606D02*
X0002543251Y0001993606D01*
X0002543251Y0001993606D02*
X0002543251Y0002469984D01*
X0002543251Y0002469984D02*
X0002322779Y0002469984D01*
X0002322779Y0002469984D02*
X0002322779Y0001993606D01*
X0003095881Y0002668204D02*
X0002454149Y0002668204D01*
X0002454149Y0002668204D02*
X0002454149Y0002526472D01*
X0002454149Y0002526472D02*
X0003095881Y0002526472D01*
X0003095881Y0002526472D02*
X0003095881Y0002668204D01*
X0002430787Y0001965803D02*
X0002430787Y0001898874D01*
X0002430787Y0001898874D02*
X0002277244Y0001898874D01*
X0002277244Y0001898874D02*
X0002277244Y0001965803D01*
X0002277244Y0001965803D02*
X0002430787Y0001965803D01*
X0003091768Y0001895427D02*
X0003024839Y0001895427D01*
X0003024839Y0001895427D02*
X0003024839Y0002048970D01*
X0003024839Y0002048970D02*
X0003091768Y0002048970D01*
X0003091768Y0002048970D02*
X0003091768Y0001895427D01*
X0003006834Y0001894606D02*
X0002939905Y0001894606D01*
X0002939905Y0001894606D02*
X0002939905Y0002048149D01*
X0002939905Y0002048149D02*
X0003006834Y0002048149D01*
X0003006834Y0002048149D02*
X0003006834Y0001894606D01*
G04 next file*
G04 Gerber Fmt 4.6, Leading zero omitted, Abs format (unit mm)*
G04 Created by KiCad (PCBNEW 4.0.7) date 11/29/17 17:20:56*
G01G01*
G04 APERTURE LIST*
G04 APERTURE END LIST*
D89*
G04 next file*
G04 Gerber Fmt 4.6, Leading zero omitted, Abs format (unit mm)*
G04 Created by KiCad (PCBNEW 4.0.7) date 11/29/17 17:20:56*
G01G01*
G04 APERTURE LIST*
G04 APERTURE END LIST*
D90*
D91*
X0002585236Y0000338976D02*
X0002585236Y0000240551D01*
X0002585236Y0000338976D02*
X0002640354Y0000338976D01*
X0002640354Y0000240551D02*
X0002585236Y0000240551D01*
X0002640354Y0000240551D02*
X0002640354Y0000338976D01*
X0002972440Y0000247637D02*
X0002972440Y0000346062D01*
X0002972440Y0000247637D02*
X0002917322Y0000247637D01*
X0002917322Y0000346062D02*
X0002972440Y0000346062D01*
X0002917322Y0000346062D02*
X0002917322Y0000247637D01*
X0002807874Y0000341732D02*
X0002807874Y0000243307D01*
X0002807874Y0000341732D02*
X0002862992Y0000341732D01*
X0002862992Y0000243307D02*
X0002807874Y0000243307D01*
X0002862992Y0000243307D02*
X0002862992Y0000341732D01*
X0002742913Y0000624015D02*
X0002742913Y0000722440D01*
X0002742913Y0000624015D02*
X0002687795Y0000624015D01*
X0002687795Y0000722440D02*
X0002742913Y0000722440D01*
X0002687795Y0000722440D02*
X0002687795Y0000624015D01*
X0002705574Y0000372440D02*
X0002705574Y0000470866D01*
X0002705574Y0000372440D02*
X0002650456Y0000372440D01*
X0002650456Y0000470866D02*
X0002705574Y0000470866D01*
X0002650456Y0000470866D02*
X0002650456Y0000372440D01*
X0002715354Y0000231496D02*
X0002715354Y0000121259D01*
X0002715354Y0000231496D02*
X0002766535Y0000231496D01*
X0002766535Y0000121259D02*
X0002715354Y0000121259D01*
X0002766535Y0000121259D02*
X0002766535Y0000231496D01*
X0002992606Y0000366535D02*
X0002992606Y0000476771D01*
X0002992606Y0000366535D02*
X0002941425Y0000366535D01*
X0002941425Y0000476771D02*
X0002992606Y0000476771D01*
X0002941425Y0000476771D02*
X0002941425Y0000366535D01*
X0002875984Y0000618110D02*
X0002875984Y0000728346D01*
X0002875984Y0000618110D02*
X0002824803Y0000618110D01*
X0002824803Y0000728346D02*
X0002875984Y0000728346D01*
X0002824803Y0000728346D02*
X0002824803Y0000618110D01*
X0002631606Y0000364196D02*
X0002631606Y0000474433D01*
X0002631606Y0000364196D02*
X0002580425Y0000364196D01*
X0002580425Y0000474433D02*
X0002631606Y0000474433D01*
X0002580425Y0000474433D02*
X0002580425Y0000364196D01*
X0002420078Y0000118110D02*
X0002420078Y0000216535D01*
X0002420078Y0000118110D02*
X0002364960Y0000118110D01*
X0002364960Y0000216535D02*
X0002420078Y0000216535D01*
X0002364960Y0000216535D02*
X0002364960Y0000118110D01*
X0003030744Y0000210781D02*
X0003030744Y0000112356D01*
X0003030744Y0000210781D02*
X0003085862Y0000210781D01*
X0003085862Y0000112356D02*
X0003030744Y0000112356D01*
X0003085862Y0000112356D02*
X0003085862Y0000210781D01*
X0003000929Y0000111141D02*
X0003000929Y0000209566D01*
X0003000929Y0000111141D02*
X0002945811Y0000111141D01*
X0002945811Y0000209566D02*
X0003000929Y0000209566D01*
X0002945811Y0000209566D02*
X0002945811Y0000111141D01*
X0002345275Y0000117322D02*
X0002195669Y0000117322D01*
X0002345275Y0000259055D02*
X0002345275Y0000117322D01*
X0002195669Y0000259055D02*
X0002345275Y0000259055D01*
X0002195669Y0000117322D02*
X0002195669Y0000259055D01*
X0002755511Y0000722440D02*
X0002755511Y0000624015D01*
X0002755511Y0000722440D02*
X0002810629Y0000722440D01*
X0002810629Y0000624015D02*
X0002755511Y0000624015D01*
X0002810629Y0000624015D02*
X0002810629Y0000722440D01*
X0002718456Y0000470866D02*
X0002718456Y0000372440D01*
X0002718456Y0000470866D02*
X0002773574Y0000470866D01*
X0002773574Y0000372440D02*
X0002718456Y0000372440D01*
X0002773574Y0000372440D02*
X0002773574Y0000470866D01*
X0002838574Y0000372440D02*
X0002838574Y0000470866D01*
X0002838574Y0000372440D02*
X0002783456Y0000372440D01*
X0002783456Y0000470866D02*
X0002838574Y0000470866D01*
X0002783456Y0000470866D02*
X0002783456Y0000372440D01*
X0002875196Y0000470866D02*
X0002875196Y0000372440D01*
X0002875196Y0000470866D02*
X0002930314Y0000470866D01*
X0002930314Y0000372440D02*
X0002875196Y0000372440D01*
X0002930314Y0000372440D02*
X0002930314Y0000470866D01*
X0002359692Y0000814433D02*
X0002359692Y0000716007D01*
X0002359692Y0000814433D02*
X0002414811Y0000814433D01*
X0002414811Y0000716007D02*
X0002359692Y0000716007D01*
X0002414811Y0000716007D02*
X0002414811Y0000814433D01*
X0002617322Y0000725196D02*
X0002617322Y0000626771D01*
X0002617322Y0000725196D02*
X0002672440Y0000725196D01*
X0002672440Y0000626771D02*
X0002617322Y0000626771D01*
X0002672440Y0000626771D02*
X0002672440Y0000725196D01*
X0002282811Y0000716007D02*
X0002282811Y0000814433D01*
X0002282811Y0000716007D02*
X0002227692Y0000716007D01*
X0002227692Y0000814433D02*
X0002282811Y0000814433D01*
X0002227692Y0000814433D02*
X0002227692Y0000716007D01*
X0002293692Y0000814433D02*
X0002293692Y0000716007D01*
X0002293692Y0000814433D02*
X0002348811Y0000814433D01*
X0002348811Y0000716007D02*
X0002293692Y0000716007D01*
X0002348811Y0000716007D02*
X0002348811Y0000814433D01*
X0002116937Y0000503937D02*
X0002116937Y0000405511D01*
X0002116937Y0000503937D02*
X0002172055Y0000503937D01*
X0002172055Y0000405511D02*
X0002116937Y0000405511D01*
X0002172055Y0000405511D02*
X0002172055Y0000503937D01*
X0002165354Y0000099409D02*
X0002066929Y0000099409D01*
X0002165354Y0000099409D02*
X0002165354Y0000044291D01*
X0002066929Y0000044291D02*
X0002066929Y0000099409D01*
X0002066929Y0000044291D02*
X0002165354Y0000044291D01*
X0002165354Y0000248031D02*
X0002066929Y0000248031D01*
X0002165354Y0000248031D02*
X0002165354Y0000192913D01*
X0002066929Y0000192913D02*
X0002066929Y0000248031D01*
X0002066929Y0000192913D02*
X0002165354Y0000192913D01*
X0002165354Y0000177165D02*
X0002066929Y0000177165D01*
X0002165354Y0000177165D02*
X0002165354Y0000122047D01*
X0002066929Y0000122047D02*
X0002066929Y0000177165D01*
X0002066929Y0000122047D02*
X0002165354Y0000122047D01*
X0002585236Y0000227937D02*
X0002585236Y0000129511D01*
X0002585236Y0000227937D02*
X0002640354Y0000227937D01*
X0002640354Y0000129511D02*
X0002585236Y0000129511D01*
X0002640354Y0000129511D02*
X0002640354Y0000227937D01*
X0002648236Y0000227937D02*
X0002648236Y0000129511D01*
X0002648236Y0000227937D02*
X0002703354Y0000227937D01*
X0002703354Y0000129511D02*
X0002648236Y0000129511D01*
X0002703354Y0000129511D02*
X0002703354Y0000227937D01*
X0002523236Y0000226936D02*
X0002523236Y0000128511D01*
X0002523236Y0000226936D02*
X0002578354Y0000226936D01*
X0002578354Y0000128511D02*
X0002523236Y0000128511D01*
X0002578354Y0000128511D02*
X0002578354Y0000226936D01*
X0002212598Y0000826771D02*
X0002078740Y0000826771D01*
X0002078740Y0000826771D02*
X0002078740Y0000688976D01*
X0002078740Y0000688976D02*
X0002212598Y0000688976D01*
X0002212598Y0000688976D02*
X0002212598Y0000826771D01*
X0002564566Y0000363779D02*
X0002564566Y0000474015D01*
X0002564566Y0000363779D02*
X0002513385Y0000363779D01*
X0002513385Y0000474015D02*
X0002564566Y0000474015D01*
X0002513385Y0000474015D02*
X0002513385Y0000363779D01*
X0002422937Y0000701275D02*
X0002312700Y0000701275D01*
X0002422937Y0000701275D02*
X0002422937Y0000650094D01*
X0002312700Y0000650094D02*
X0002312700Y0000701275D01*
X0002312700Y0000650094D02*
X0002422937Y0000650094D01*
X0002459055Y0000474409D02*
X0002459055Y0000364173D01*
X0002459055Y0000474409D02*
X0002510236Y0000474409D01*
X0002510236Y0000364173D02*
X0002459055Y0000364173D01*
X0002510236Y0000364173D02*
X0002510236Y0000474409D01*
X0002397637Y0000363779D02*
X0002397637Y0000474015D01*
X0002397637Y0000363779D02*
X0002346456Y0000363779D01*
X0002346456Y0000474015D02*
X0002397637Y0000474015D01*
X0002346456Y0000474015D02*
X0002346456Y0000363779D01*
X0002510385Y0000123606D02*
X0002510385Y0000233842D01*
X0002510385Y0000123606D02*
X0002459204Y0000123606D01*
X0002459204Y0000233842D02*
X0002510385Y0000233842D01*
X0002459204Y0000233842D02*
X0002459204Y0000123606D01*
X0002779133Y0000231496D02*
X0002779133Y0000121259D01*
X0002779133Y0000231496D02*
X0002830314Y0000231496D01*
X0002830314Y0000121259D02*
X0002779133Y0000121259D01*
X0002830314Y0000121259D02*
X0002830314Y0000231496D01*
X0002422937Y0000638275D02*
X0002312700Y0000638275D01*
X0002422937Y0000638275D02*
X0002422937Y0000587094D01*
X0002312700Y0000587094D02*
X0002312700Y0000638275D01*
X0002312700Y0000587094D02*
X0002422937Y0000587094D01*
X0002444094Y0000577559D02*
X0002593700Y0000577559D01*
X0002593700Y0000577559D02*
X0002593700Y0000719291D01*
X0002593700Y0000719291D02*
X0002444094Y0000719291D01*
X0002444094Y0000719291D02*
X0002444094Y0000577559D01*
G04 next file*
G04 Gerber Fmt 4.6, Leading zero omitted, Abs format (unit mm)*
G04 Created by KiCad (PCBNEW 4.0.7) date 11/29/17 17:20:56*
G01G01*
G04 APERTURE LIST*
G04 APERTURE END LIST*
D92*
G04 next file*
G04 Gerber Fmt 4.6, Leading zero omitted, Abs format (unit mm)*
G04 Created by KiCad (PCBNEW 4.0.7) date 11/29/17 17:20:56*
G01G01*
G04 APERTURE LIST*
G04 APERTURE END LIST*
D93*
G04 next file*
G04 Gerber Fmt 4.6, Leading zero omitted, Abs format (unit mm)*
G04 Created by KiCad (PCBNEW 4.0.7) date 11/29/17 17:20:56*
G01G01*
G04 APERTURE LIST*
G04 APERTURE END LIST*
D94*
D95*
X0002003093Y0000697412D02*
X0002005905Y0000694600D01*
X0002008717Y0000688976D01*
X0002008717Y0000674915D01*
X0002005905Y0000669291D01*
X0002003093Y0000666479D01*
X0001997469Y0000663667D01*
X0001991844Y0000663667D01*
X0001983408Y0000666479D01*
X0001949662Y0000700224D01*
X0001949662Y0000663667D01*
X0002008717Y0000643981D02*
X0002008717Y0000607424D01*
X0001986220Y0000627109D01*
X0001986220Y0000618672D01*
X0001983408Y0000613048D01*
X0001980596Y0000610236D01*
X0001974971Y0000607424D01*
X0001960911Y0000607424D01*
X0001955286Y0000610236D01*
X0001952474Y0000613048D01*
X0001949662Y0000618672D01*
X0001949662Y0000635545D01*
X0001952474Y0000641169D01*
X0001955286Y0000643981D01*
X0001955286Y0000582114D02*
X0001952474Y0000579302D01*
X0001949662Y0000582114D01*
X0001952474Y0000584926D01*
X0001955286Y0000582114D01*
X0001949662Y0000582114D01*
X0002008717Y0000542744D02*
X0002008717Y0000537120D01*
X0002005905Y0000531496D01*
X0002003093Y0000528683D01*
X0001997469Y0000525871D01*
X0001986220Y0000523059D01*
X0001972159Y0000523059D01*
X0001960911Y0000525871D01*
X0001955286Y0000528683D01*
X0001952474Y0000531496D01*
X0001949662Y0000537120D01*
X0001949662Y0000542744D01*
X0001952474Y0000548368D01*
X0001955286Y0000551181D01*
X0001960911Y0000553993D01*
X0001972159Y0000556805D01*
X0001986220Y0000556805D01*
X0001997469Y0000553993D01*
X0002003093Y0000551181D01*
X0002005905Y0000548368D01*
X0002008717Y0000542744D01*
X0002008717Y0000486501D02*
X0002008717Y0000480877D01*
X0002005905Y0000475253D01*
X0002003093Y0000472440D01*
X0001997469Y0000469628D01*
X0001986220Y0000466816D01*
X0001972159Y0000466816D01*
X0001960911Y0000469628D01*
X0001955286Y0000472440D01*
X0001952474Y0000475253D01*
X0001949662Y0000480877D01*
X0001949662Y0000486501D01*
X0001952474Y0000492125D01*
X0001955286Y0000494938D01*
X0001960911Y0000497750D01*
X0001972159Y0000500562D01*
X0001986220Y0000500562D01*
X0001997469Y0000497750D01*
X0002003093Y0000494938D01*
X0002005905Y0000492125D01*
X0002008717Y0000486501D01*
X0002008717Y0000430258D02*
X0002008717Y0000424634D01*
X0002005905Y0000419010D01*
X0002003093Y0000416197D01*
X0001997469Y0000413385D01*
X0001986220Y0000410573D01*
X0001972159Y0000410573D01*
X0001960911Y0000413385D01*
X0001955286Y0000416197D01*
X0001952474Y0000419010D01*
X0001949662Y0000424634D01*
X0001949662Y0000430258D01*
X0001952474Y0000435883D01*
X0001955286Y0000438695D01*
X0001960911Y0000441507D01*
X0001972159Y0000444319D01*
X0001986220Y0000444319D01*
X0001997469Y0000441507D01*
X0002003093Y0000438695D01*
X0002005905Y0000435883D01*
X0002008717Y0000430258D01*
X0001949662Y0000340270D02*
X0001989032Y0000340270D01*
X0001983408Y0000340270D02*
X0001986220Y0000337457D01*
X0001989032Y0000331833D01*
X0001989032Y0000323397D01*
X0001986220Y0000317772D01*
X0001980596Y0000314960D01*
X0001949662Y0000314960D01*
X0001980596Y0000314960D02*
X0001986220Y0000312148D01*
X0001989032Y0000306524D01*
X0001989032Y0000298087D01*
X0001986220Y0000292463D01*
X0001980596Y0000289651D01*
X0001949662Y0000289651D01*
X0001949662Y0000261529D02*
X0001989032Y0000261529D01*
X0001983408Y0000261529D02*
X0001986220Y0000258717D01*
X0001989032Y0000253093D01*
X0001989032Y0000244656D01*
X0001986220Y0000239032D01*
X0001980596Y0000236220D01*
X0001949662Y0000236220D01*
X0001980596Y0000236220D02*
X0001986220Y0000233408D01*
X0001989032Y0000227784D01*
X0001989032Y0000219347D01*
X0001986220Y0000213723D01*
X0001980596Y0000210911D01*
X0001949662Y0000210911D01*
X0002029527Y0000905511D02*
X0002029527Y0000000000D01*
X0002047244Y0000905511D02*
X0001923228Y0000905511D01*
X0002047244Y0000000000D02*
X0001923228Y0000000000D01*
X0002029527Y0000000000D02*
X0002006440Y0000044350D01*
X0002029527Y0000000000D02*
X0002052614Y0000044350D01*
X0002029527Y0000905511D02*
X0002006440Y0000861161D01*
X0002029527Y0000905511D02*
X0002052614Y0000861161D01*
X0002425759Y0001053993D02*
X0002462317Y0001053993D01*
X0002442632Y0001031496D01*
X0002451068Y0001031496D01*
X0002456692Y0001028683D01*
X0002459505Y0001025871D01*
X0002462317Y0001020247D01*
X0002462317Y0001006186D01*
X0002459505Y0001000562D01*
X0002456692Y0000997750D01*
X0002451068Y0000994938D01*
X0002434195Y0000994938D01*
X0002428571Y0000997750D01*
X0002425759Y0001000562D01*
X0002518560Y0000994938D02*
X0002484814Y0000994938D01*
X0002501687Y0000994938D02*
X0002501687Y0001053993D01*
X0002496063Y0001045556D01*
X0002490438Y0001039932D01*
X0002484814Y0001037120D01*
X0002543869Y0001000562D02*
X0002546681Y0000997750D01*
X0002543869Y0000994938D01*
X0002541057Y0000997750D01*
X0002543869Y0001000562D01*
X0002543869Y0000994938D01*
X0002580427Y0001028683D02*
X0002574803Y0001031496D01*
X0002571990Y0001034308D01*
X0002569178Y0001039932D01*
X0002569178Y0001042744D01*
X0002571990Y0001048368D01*
X0002574803Y0001051181D01*
X0002580427Y0001053993D01*
X0002591676Y0001053993D01*
X0002597300Y0001051181D01*
X0002600112Y0001048368D01*
X0002602924Y0001042744D01*
X0002602924Y0001039932D01*
X0002600112Y0001034308D01*
X0002597300Y0001031496D01*
X0002591676Y0001028683D01*
X0002580427Y0001028683D01*
X0002574803Y0001025871D01*
X0002571990Y0001023059D01*
X0002569178Y0001017435D01*
X0002569178Y0001006186D01*
X0002571990Y0001000562D01*
X0002574803Y0000997750D01*
X0002580427Y0000994938D01*
X0002591676Y0000994938D01*
X0002597300Y0000997750D01*
X0002600112Y0001000562D01*
X0002602924Y0001006186D01*
X0002602924Y0001017435D01*
X0002600112Y0001023059D01*
X0002597300Y0001025871D01*
X0002591676Y0001028683D01*
X0002639482Y0001053993D02*
X0002645106Y0001053993D01*
X0002650731Y0001051181D01*
X0002653543Y0001048368D01*
X0002656355Y0001042744D01*
X0002659167Y0001031496D01*
X0002659167Y0001017435D01*
X0002656355Y0001006186D01*
X0002653543Y0001000562D01*
X0002650731Y0000997750D01*
X0002645106Y0000994938D01*
X0002639482Y0000994938D01*
X0002633858Y0000997750D01*
X0002631046Y0001000562D01*
X0002628233Y0001006186D01*
X0002625421Y0001017435D01*
X0002625421Y0001031496D01*
X0002628233Y0001042744D01*
X0002631046Y0001048368D01*
X0002633858Y0001051181D01*
X0002639482Y0001053993D01*
X0002695725Y0001053993D02*
X0002701349Y0001053993D01*
X0002706974Y0001051181D01*
X0002709786Y0001048368D01*
X0002712598Y0001042744D01*
X0002715410Y0001031496D01*
X0002715410Y0001017435D01*
X0002712598Y0001006186D01*
X0002709786Y0001000562D01*
X0002706974Y0000997750D01*
X0002701349Y0000994938D01*
X0002695725Y0000994938D01*
X0002690101Y0000997750D01*
X0002687289Y0001000562D01*
X0002684476Y0001006186D01*
X0002681664Y0001017435D01*
X0002681664Y0001031496D01*
X0002684476Y0001042744D01*
X0002687289Y0001048368D01*
X0002690101Y0001051181D01*
X0002695725Y0001053993D01*
X0002785714Y0000994938D02*
X0002785714Y0001034308D01*
X0002785714Y0001028683D02*
X0002788526Y0001031496D01*
X0002794150Y0001034308D01*
X0002802587Y0001034308D01*
X0002808211Y0001031496D01*
X0002811023Y0001025871D01*
X0002811023Y0000994938D01*
X0002811023Y0001025871D02*
X0002813835Y0001031496D01*
X0002819460Y0001034308D01*
X0002827896Y0001034308D01*
X0002833520Y0001031496D01*
X0002836332Y0001025871D01*
X0002836332Y0000994938D01*
X0002864454Y0000994938D02*
X0002864454Y0001034308D01*
X0002864454Y0001028683D02*
X0002867266Y0001031496D01*
X0002872890Y0001034308D01*
X0002881327Y0001034308D01*
X0002886951Y0001031496D01*
X0002889763Y0001025871D01*
X0002889763Y0000994938D01*
X0002889763Y0001025871D02*
X0002892575Y0001031496D01*
X0002898200Y0001034308D01*
X0002906636Y0001034308D01*
X0002912260Y0001031496D01*
X0002915073Y0001025871D01*
X0002915073Y0000994938D01*
X0002047244Y0000968503D02*
X0003299212Y0000968503D01*
X0002047244Y0000905511D02*
X0002047244Y0001074803D01*
X0003299212Y0000905511D02*
X0003299212Y0001074803D01*
X0003299212Y0000968503D02*
X0003254862Y0000945416D01*
X0003299212Y0000968503D02*
X0003254862Y0000991591D01*
X0002047244Y0000968503D02*
X0002091594Y0000945416D01*
X0002047244Y0000968503D02*
X0002091594Y0000991591D01*
G04 next file*
G04 Gerber Fmt 4.6, Leading zero omitted, Abs format (unit mm)*
G04 Created by KiCad (PCBNEW 4.0.7) date 11/29/17 17:20:56*
G01G01*
G04 APERTURE LIST*
G04 APERTURE END LIST*
D96*
G04 next file*
G04 Gerber Fmt 4.6, Leading zero omitted, Abs format (unit mm)*
G04 Created by KiCad (PCBNEW 4.0.7) date 11/29/17 17:20:56*
G01G01*
G04 APERTURE LIST*
G04 APERTURE END LIST*
D97*
D98*
X0002322779Y0000182582D02*
X0002543251Y0000182582D01*
X0002543251Y0000182582D02*
X0002543251Y0000658960D01*
X0002543251Y0000658960D02*
X0002322779Y0000658960D01*
X0002322779Y0000658960D02*
X0002322779Y0000182582D01*
X0003095881Y0000857181D02*
X0002454149Y0000857181D01*
X0002454149Y0000857181D02*
X0002454149Y0000715448D01*
X0002454149Y0000715448D02*
X0003095881Y0000715448D01*
X0003095881Y0000715448D02*
X0003095881Y0000857181D01*
X0002430787Y0000154779D02*
X0002430787Y0000087850D01*
X0002430787Y0000087850D02*
X0002277244Y0000087850D01*
X0002277244Y0000087850D02*
X0002277244Y0000154779D01*
X0002277244Y0000154779D02*
X0002430787Y0000154779D01*
X0003091768Y0000084403D02*
X0003024839Y0000084403D01*
X0003024839Y0000084403D02*
X0003024839Y0000237946D01*
X0003024839Y0000237946D02*
X0003091768Y0000237946D01*
X0003091768Y0000237946D02*
X0003091768Y0000084403D01*
X0003006834Y0000083582D02*
X0002939905Y0000083582D01*
X0002939905Y0000083582D02*
X0002939905Y0000237125D01*
X0002939905Y0000237125D02*
X0003006834Y0000237125D01*
X0003006834Y0000237125D02*
X0003006834Y0000083582D01*
G04 next file*
G04 Gerber Fmt 4.6, Leading zero omitted, Abs format (unit mm)*
G04 Created by KiCad (PCBNEW 4.0.7) date 11/29/17 17:20:56*
G01G01*
G04 APERTURE LIST*
G04 APERTURE END LIST*
D99*
G04 next file*
G04 Gerber Fmt 4.6, Leading zero omitted, Abs format (unit mm)*
G04 Created by KiCad (PCBNEW 4.0.7) date 11/29/17 18:13:59*
G01G01*
G04 APERTURE LIST*
G04 APERTURE END LIST*
D100*
D101*
X0003935039Y0001622047D02*
X0003293307Y0001622047D01*
X0003293307Y0001622047D02*
X0003293307Y0001763779D01*
X0003293307Y0001763779D02*
X0003935039Y0001763779D01*
X0003935039Y0001763779D02*
X0003935039Y0001622047D01*
G04 next file*
G04 Gerber Fmt 4.6, Leading zero omitted, Abs format (unit mm)*
G04 Created by KiCad (PCBNEW 4.0.7) date 11/29/17 18:13:59*
G01G01*
G04 APERTURE LIST*
G04 APERTURE END LIST*
D102*
G04 next file*
G04 Gerber Fmt 4.6, Leading zero omitted, Abs format (unit mm)*
G04 Created by KiCad (PCBNEW 4.0.7) date 11/29/17 18:13:59*
G01G01*
G04 APERTURE LIST*
G04 APERTURE END LIST*
D103*
G04 next file*
G04 Gerber Fmt 4.6, Leading zero omitted, Abs format (unit mm)*
G04 Created by KiCad (PCBNEW 4.0.7) date 11/29/17 18:13:59*
G01G01*
G04 APERTURE LIST*
G04 APERTURE END LIST*
D104*
D105*
X0003228577Y0001602831D02*
X0003231393Y0001600023D01*
X0003234212Y0001594402D01*
X0003234231Y0001580342D01*
X0003231426Y0001574714D01*
X0003228617Y0001571898D01*
X0003222997Y0001569078D01*
X0003217373Y0001569071D01*
X0003208932Y0001571872D01*
X0003175143Y0001605574D01*
X0003175190Y0001569016D01*
X0003234271Y0001549408D02*
X0003234319Y0001512850D01*
X0003211796Y0001532506D01*
X0003211807Y0001524069D01*
X0003209002Y0001518441D01*
X0003206194Y0001515626D01*
X0003200573Y0001512806D01*
X0003186512Y0001512788D01*
X0003180884Y0001515593D01*
X0003178069Y0001518401D01*
X0003175249Y0001524022D01*
X0003175227Y0001540895D01*
X0003178032Y0001546522D01*
X0003180840Y0001549338D01*
X0003180921Y0001487471D02*
X0003178113Y0001484655D01*
X0003175297Y0001487464D01*
X0003178105Y0001490280D01*
X0003180921Y0001487471D01*
X0003175297Y0001487464D01*
X0003234403Y0001448171D02*
X0003234410Y0001442546D01*
X0003231606Y0001436919D01*
X0003228797Y0001434103D01*
X0003223177Y0001431283D01*
X0003211932Y0001428456D01*
X0003197871Y0001428438D01*
X0003186619Y0001431235D01*
X0003180991Y0001434040D01*
X0003178175Y0001436849D01*
X0003175355Y0001442469D01*
X0003175348Y0001448094D01*
X0003178153Y0001453722D01*
X0003180961Y0001456537D01*
X0003186582Y0001459357D01*
X0003197827Y0001462184D01*
X0003211888Y0001462202D01*
X0003223140Y0001459405D01*
X0003228768Y0001456600D01*
X0003231584Y0001453791D01*
X0003234403Y0001448171D01*
X0003234477Y0001391928D02*
X0003234484Y0001386304D01*
X0003231679Y0001380676D01*
X0003228871Y0001377860D01*
X0003223250Y0001375040D01*
X0003212005Y0001372213D01*
X0003197944Y0001372195D01*
X0003186692Y0001374993D01*
X0003181064Y0001377797D01*
X0003178248Y0001380606D01*
X0003175429Y0001386227D01*
X0003175421Y0001391851D01*
X0003178226Y0001397479D01*
X0003181035Y0001400295D01*
X0003186655Y0001403114D01*
X0003197900Y0001405941D01*
X0003211961Y0001405959D01*
X0003223213Y0001403162D01*
X0003228841Y0001400357D01*
X0003231657Y0001397548D01*
X0003234477Y0001391928D01*
X0003234550Y0001335685D02*
X0003234557Y0001330061D01*
X0003231752Y0001324433D01*
X0003228944Y0001321617D01*
X0003223323Y0001318797D01*
X0003212078Y0001315971D01*
X0003198018Y0001315952D01*
X0003186765Y0001318750D01*
X0003181137Y0001321555D01*
X0003178322Y0001324363D01*
X0003175502Y0001329984D01*
X0003175495Y0001335608D01*
X0003178300Y0001341236D01*
X0003181108Y0001344052D01*
X0003186729Y0001346871D01*
X0003197974Y0001349698D01*
X0003212034Y0001349716D01*
X0003223287Y0001346919D01*
X0003228915Y0001344114D01*
X0003231730Y0001341306D01*
X0003234550Y0001335685D01*
X0003175612Y0001245619D02*
X0003214982Y0001245671D01*
X0003209358Y0001245663D02*
X0003212174Y0001242855D01*
X0003214993Y0001237234D01*
X0003215004Y0001228798D01*
X0003212199Y0001223170D01*
X0003206579Y0001220350D01*
X0003175645Y0001220310D01*
X0003206579Y0001220350D02*
X0003212207Y0001217545D01*
X0003215026Y0001211925D01*
X0003215037Y0001203488D01*
X0003212232Y0001197860D01*
X0003206612Y0001195041D01*
X0003175678Y0001195001D01*
X0003175715Y0001166879D02*
X0003215085Y0001166930D01*
X0003209461Y0001166923D02*
X0003212276Y0001164115D01*
X0003215096Y0001158494D01*
X0003215107Y0001150058D01*
X0003212302Y0001144430D01*
X0003206682Y0001141610D01*
X0003175748Y0001141570D01*
X0003206682Y0001141610D02*
X0003212309Y0001138805D01*
X0003215129Y0001133185D01*
X0003215140Y0001124748D01*
X0003212335Y0001119120D01*
X0003206715Y0001116301D01*
X0003175781Y0001116261D01*
X0003254740Y0001810965D02*
X0003255921Y0000905453D01*
X0003299212Y0001811023D02*
X0003148441Y0001810826D01*
X0003300393Y0000905511D02*
X0003149622Y0000905315D01*
X0003255921Y0000905453D02*
X0003232776Y0000949774D01*
X0003255921Y0000905453D02*
X0003278951Y0000949834D01*
X0003254740Y0001810965D02*
X0003231710Y0001766585D01*
X0003254740Y0001810965D02*
X0003277885Y0001766645D01*
X0003403459Y0001873286D02*
X0003369713Y0001873286D01*
X0003386586Y0001873286D02*
X0003386586Y0001932341D01*
X0003380961Y0001923905D01*
X0003375337Y0001918280D01*
X0003369713Y0001915468D01*
X0003454077Y0001932341D02*
X0003442829Y0001932341D01*
X0003437204Y0001929529D01*
X0003434392Y0001926717D01*
X0003428768Y0001918280D01*
X0003425956Y0001907032D01*
X0003425956Y0001884535D01*
X0003428768Y0001878910D01*
X0003431580Y0001876098D01*
X0003437204Y0001873286D01*
X0003448453Y0001873286D01*
X0003454077Y0001876098D01*
X0003456889Y0001878910D01*
X0003459702Y0001884535D01*
X0003459702Y0001898595D01*
X0003456889Y0001904220D01*
X0003454077Y0001907032D01*
X0003448453Y0001909844D01*
X0003437204Y0001909844D01*
X0003431580Y0001907032D01*
X0003428768Y0001904220D01*
X0003425956Y0001898595D01*
X0003485011Y0001878910D02*
X0003487823Y0001876098D01*
X0003485011Y0001873286D01*
X0003482199Y0001876098D01*
X0003485011Y0001878910D01*
X0003485011Y0001873286D01*
X0003524381Y0001932341D02*
X0003530005Y0001932341D01*
X0003535630Y0001929529D01*
X0003538442Y0001926717D01*
X0003541254Y0001921092D01*
X0003544066Y0001909844D01*
X0003544066Y0001895783D01*
X0003541254Y0001884535D01*
X0003538442Y0001878910D01*
X0003535630Y0001876098D01*
X0003530005Y0001873286D01*
X0003524381Y0001873286D01*
X0003518757Y0001876098D01*
X0003515945Y0001878910D01*
X0003513132Y0001884535D01*
X0003510320Y0001895783D01*
X0003510320Y0001909844D01*
X0003513132Y0001921092D01*
X0003515945Y0001926717D01*
X0003518757Y0001929529D01*
X0003524381Y0001932341D01*
X0003600309Y0001873286D02*
X0003566563Y0001873286D01*
X0003583436Y0001873286D02*
X0003583436Y0001932341D01*
X0003577812Y0001923905D01*
X0003572187Y0001918280D01*
X0003566563Y0001915468D01*
X0003636867Y0001932341D02*
X0003642491Y0001932341D01*
X0003648115Y0001929529D01*
X0003650928Y0001926717D01*
X0003653740Y0001921092D01*
X0003656552Y0001909844D01*
X0003656552Y0001895783D01*
X0003653740Y0001884535D01*
X0003650928Y0001878910D01*
X0003648115Y0001876098D01*
X0003642491Y0001873286D01*
X0003636867Y0001873286D01*
X0003631243Y0001876098D01*
X0003628430Y0001878910D01*
X0003625618Y0001884535D01*
X0003622806Y0001895783D01*
X0003622806Y0001909844D01*
X0003625618Y0001921092D01*
X0003628430Y0001926717D01*
X0003631243Y0001929529D01*
X0003636867Y0001932341D01*
X0003726856Y0001873286D02*
X0003726856Y0001912656D01*
X0003726856Y0001907032D02*
X0003729668Y0001909844D01*
X0003735292Y0001912656D01*
X0003743728Y0001912656D01*
X0003749353Y0001909844D01*
X0003752165Y0001904220D01*
X0003752165Y0001873286D01*
X0003752165Y0001904220D02*
X0003754977Y0001909844D01*
X0003760601Y0001912656D01*
X0003769038Y0001912656D01*
X0003774662Y0001909844D01*
X0003777474Y0001904220D01*
X0003777474Y0001873286D01*
X0003805596Y0001873286D02*
X0003805596Y0001912656D01*
X0003805596Y0001907032D02*
X0003808408Y0001909844D01*
X0003814032Y0001912656D01*
X0003822469Y0001912656D01*
X0003828093Y0001909844D01*
X0003830905Y0001904220D01*
X0003830905Y0001873286D01*
X0003830905Y0001904220D02*
X0003833717Y0001909844D01*
X0003839342Y0001912656D01*
X0003847778Y0001912656D01*
X0003853402Y0001909844D01*
X0003856214Y0001904220D01*
X0003856214Y0001873286D01*
X0003299212Y0001846852D02*
X0003929527Y0001846852D01*
X0003299212Y0001811023D02*
X0003299212Y0001953151D01*
X0003929527Y0001811023D02*
X0003929527Y0001953151D01*
X0003929527Y0001846852D02*
X0003885177Y0001823764D01*
X0003929527Y0001846852D02*
X0003885177Y0001869939D01*
X0003299212Y0001846852D02*
X0003343563Y0001823764D01*
X0003299212Y0001846852D02*
X0003343563Y0001869939D01*
G04 next file*
G04 Gerber Fmt 4.6, Leading zero omitted, Abs format (unit mm)*
G04 Created by KiCad (PCBNEW 4.0.7) date 11/29/17 18:13:59*
G01G01*
G04 APERTURE LIST*
G04 APERTURE END LIST*
D106*
G04 next file*
G04 Gerber Fmt 4.6, Leading zero omitted, Abs format (unit mm)*
G04 Created by KiCad (PCBNEW 4.0.7) date 11/29/17 18:13:59*
G01G01*
G04 APERTURE LIST*
G04 APERTURE END LIST*
D107*
G04 next file*
G04 Gerber Fmt 4.6, Leading zero omitted, Abs format (unit mm)*
G04 Created by KiCad (PCBNEW 4.0.7) date 11/29/17 18:13:59*
G01G01*
G04 APERTURE LIST*
G04 APERTURE END LIST*
D108*
G04 next file*
G04 Gerber Fmt 4.6, Leading zero omitted, Abs format (unit mm)*
G04 Created by KiCad (PCBNEW 4.0.7) date 11/29/17 18:13:59*
G01G01*
G04 APERTURE LIST*
G04 APERTURE END LIST*
D109*
D110*
X0003935039Y0000716535D02*
X0003293307Y0000716535D01*
X0003293307Y0000716535D02*
X0003293307Y0000858267D01*
X0003293307Y0000858267D02*
X0003935039Y0000858267D01*
X0003935039Y0000858267D02*
X0003935039Y0000716535D01*
G04 next file*
G04 Gerber Fmt 4.6, Leading zero omitted, Abs format (unit mm)*
G04 Created by KiCad (PCBNEW 4.0.7) date 11/29/17 18:13:59*
G01G01*
G04 APERTURE LIST*
G04 APERTURE END LIST*
D111*
G04 next file*
G04 Gerber Fmt 4.6, Leading zero omitted, Abs format (unit mm)*
G04 Created by KiCad (PCBNEW 4.0.7) date 11/29/17 18:13:59*
G01G01*
G04 APERTURE LIST*
G04 APERTURE END LIST*
D112*
G04 next file*
G04 Gerber Fmt 4.6, Leading zero omitted, Abs format (unit mm)*
G04 Created by KiCad (PCBNEW 4.0.7) date 11/29/17 18:13:59*
G01G01*
G04 APERTURE LIST*
G04 APERTURE END LIST*
D113*
D114*
X0003228577Y0000697320D02*
X0003231393Y0000694511D01*
X0003234212Y0000688890D01*
X0003234231Y0000674830D01*
X0003231426Y0000669202D01*
X0003228617Y0000666386D01*
X0003222997Y0000663567D01*
X0003217373Y0000663559D01*
X0003208932Y0000666360D01*
X0003175143Y0000700062D01*
X0003175190Y0000663504D01*
X0003234271Y0000643896D02*
X0003234319Y0000607338D01*
X0003211796Y0000626994D01*
X0003211807Y0000618558D01*
X0003209002Y0000612930D01*
X0003206194Y0000610114D01*
X0003200573Y0000607294D01*
X0003186512Y0000607276D01*
X0003180884Y0000610081D01*
X0003178069Y0000612889D01*
X0003175249Y0000618510D01*
X0003175227Y0000635383D01*
X0003178032Y0000641011D01*
X0003180840Y0000643826D01*
X0003180921Y0000581959D02*
X0003178113Y0000579143D01*
X0003175297Y0000581952D01*
X0003178105Y0000584768D01*
X0003180921Y0000581959D01*
X0003175297Y0000581952D01*
X0003234403Y0000542659D02*
X0003234410Y0000537035D01*
X0003231606Y0000531407D01*
X0003228797Y0000528591D01*
X0003223177Y0000525771D01*
X0003211932Y0000522945D01*
X0003197871Y0000522926D01*
X0003186619Y0000525724D01*
X0003180991Y0000528529D01*
X0003178175Y0000531337D01*
X0003175355Y0000536958D01*
X0003175348Y0000542582D01*
X0003178153Y0000548210D01*
X0003180961Y0000551026D01*
X0003186582Y0000553845D01*
X0003197827Y0000556672D01*
X0003211888Y0000556690D01*
X0003223140Y0000553893D01*
X0003228768Y0000551088D01*
X0003231584Y0000548280D01*
X0003234403Y0000542659D01*
X0003234477Y0000486416D02*
X0003234484Y0000480792D01*
X0003231679Y0000475164D01*
X0003228871Y0000472348D01*
X0003223250Y0000469528D01*
X0003212005Y0000466702D01*
X0003197944Y0000466683D01*
X0003186692Y0000469481D01*
X0003181064Y0000472286D01*
X0003178248Y0000475094D01*
X0003175429Y0000480715D01*
X0003175421Y0000486339D01*
X0003178226Y0000491967D01*
X0003181035Y0000494783D01*
X0003186655Y0000497602D01*
X0003197900Y0000500429D01*
X0003211961Y0000500447D01*
X0003223213Y0000497650D01*
X0003228841Y0000494845D01*
X0003231657Y0000492037D01*
X0003234477Y0000486416D01*
X0003234550Y0000430173D02*
X0003234557Y0000424549D01*
X0003231752Y0000418921D01*
X0003228944Y0000416105D01*
X0003223323Y0000413286D01*
X0003212078Y0000410459D01*
X0003198018Y0000410440D01*
X0003186765Y0000413238D01*
X0003181137Y0000416043D01*
X0003178322Y0000418851D01*
X0003175502Y0000424472D01*
X0003175495Y0000430096D01*
X0003178300Y0000435724D01*
X0003181108Y0000438540D01*
X0003186729Y0000441359D01*
X0003197974Y0000444186D01*
X0003212034Y0000444205D01*
X0003223287Y0000441407D01*
X0003228915Y0000438602D01*
X0003231730Y0000435794D01*
X0003234550Y0000430173D01*
X0003175612Y0000340107D02*
X0003214982Y0000340159D01*
X0003209358Y0000340151D02*
X0003212174Y0000337343D01*
X0003214993Y0000331722D01*
X0003215004Y0000323286D01*
X0003212199Y0000317658D01*
X0003206579Y0000314838D01*
X0003175645Y0000314798D01*
X0003206579Y0000314838D02*
X0003212207Y0000312034D01*
X0003215026Y0000306413D01*
X0003215037Y0000297977D01*
X0003212232Y0000292349D01*
X0003206612Y0000289529D01*
X0003175678Y0000289489D01*
X0003175715Y0000261367D02*
X0003215085Y0000261419D01*
X0003209461Y0000261411D02*
X0003212276Y0000258603D01*
X0003215096Y0000252982D01*
X0003215107Y0000244546D01*
X0003212302Y0000238918D01*
X0003206682Y0000236098D01*
X0003175748Y0000236058D01*
X0003206682Y0000236098D02*
X0003212309Y0000233294D01*
X0003215129Y0000227673D01*
X0003215140Y0000219236D01*
X0003212335Y0000213608D01*
X0003206715Y0000210789D01*
X0003175781Y0000210749D01*
X0003254740Y0000905453D02*
X0003255921Y-0000000057D01*
X0003299212Y0000905511D02*
X0003148441Y0000905315D01*
X0003300393Y0000000000D02*
X0003149622Y-0000000196D01*
X0003255921Y-0000000057D02*
X0003232776Y0000044262D01*
X0003255921Y-0000000057D02*
X0003278951Y0000044322D01*
X0003254740Y0000905453D02*
X0003231710Y0000861073D01*
X0003254740Y0000905453D02*
X0003277885Y0000861133D01*
X0003403459Y0000967774D02*
X0003369713Y0000967774D01*
X0003386586Y0000967774D02*
X0003386586Y0001026829D01*
X0003380961Y0001018393D01*
X0003375337Y0001012769D01*
X0003369713Y0001009956D01*
X0003454077Y0001026829D02*
X0003442829Y0001026829D01*
X0003437204Y0001024017D01*
X0003434392Y0001021205D01*
X0003428768Y0001012769D01*
X0003425956Y0001001520D01*
X0003425956Y0000979023D01*
X0003428768Y0000973398D01*
X0003431580Y0000970586D01*
X0003437204Y0000967774D01*
X0003448453Y0000967774D01*
X0003454077Y0000970586D01*
X0003456889Y0000973398D01*
X0003459702Y0000979023D01*
X0003459702Y0000993083D01*
X0003456889Y0000998708D01*
X0003454077Y0001001520D01*
X0003448453Y0001004332D01*
X0003437204Y0001004332D01*
X0003431580Y0001001520D01*
X0003428768Y0000998708D01*
X0003425956Y0000993083D01*
X0003485011Y0000973398D02*
X0003487823Y0000970586D01*
X0003485011Y0000967774D01*
X0003482199Y0000970586D01*
X0003485011Y0000973398D01*
X0003485011Y0000967774D01*
X0003524381Y0001026829D02*
X0003530005Y0001026829D01*
X0003535630Y0001024017D01*
X0003538442Y0001021205D01*
X0003541254Y0001015581D01*
X0003544066Y0001004332D01*
X0003544066Y0000990271D01*
X0003541254Y0000979023D01*
X0003538442Y0000973398D01*
X0003535630Y0000970586D01*
X0003530005Y0000967774D01*
X0003524381Y0000967774D01*
X0003518757Y0000970586D01*
X0003515945Y0000973398D01*
X0003513132Y0000979023D01*
X0003510320Y0000990271D01*
X0003510320Y0001004332D01*
X0003513132Y0001015581D01*
X0003515945Y0001021205D01*
X0003518757Y0001024017D01*
X0003524381Y0001026829D01*
X0003600309Y0000967774D02*
X0003566563Y0000967774D01*
X0003583436Y0000967774D02*
X0003583436Y0001026829D01*
X0003577812Y0001018393D01*
X0003572187Y0001012769D01*
X0003566563Y0001009956D01*
X0003636867Y0001026829D02*
X0003642491Y0001026829D01*
X0003648115Y0001024017D01*
X0003650928Y0001021205D01*
X0003653740Y0001015581D01*
X0003656552Y0001004332D01*
X0003656552Y0000990271D01*
X0003653740Y0000979023D01*
X0003650928Y0000973398D01*
X0003648115Y0000970586D01*
X0003642491Y0000967774D01*
X0003636867Y0000967774D01*
X0003631243Y0000970586D01*
X0003628430Y0000973398D01*
X0003625618Y0000979023D01*
X0003622806Y0000990271D01*
X0003622806Y0001004332D01*
X0003625618Y0001015581D01*
X0003628430Y0001021205D01*
X0003631243Y0001024017D01*
X0003636867Y0001026829D01*
X0003726856Y0000967774D02*
X0003726856Y0001007144D01*
X0003726856Y0001001520D02*
X0003729668Y0001004332D01*
X0003735292Y0001007144D01*
X0003743728Y0001007144D01*
X0003749353Y0001004332D01*
X0003752165Y0000998708D01*
X0003752165Y0000967774D01*
X0003752165Y0000998708D02*
X0003754977Y0001004332D01*
X0003760601Y0001007144D01*
X0003769038Y0001007144D01*
X0003774662Y0001004332D01*
X0003777474Y0000998708D01*
X0003777474Y0000967774D01*
X0003805596Y0000967774D02*
X0003805596Y0001007144D01*
X0003805596Y0001001520D02*
X0003808408Y0001004332D01*
X0003814032Y0001007144D01*
X0003822469Y0001007144D01*
X0003828093Y0001004332D01*
X0003830905Y0000998708D01*
X0003830905Y0000967774D01*
X0003830905Y0000998708D02*
X0003833717Y0001004332D01*
X0003839342Y0001007144D01*
X0003847778Y0001007144D01*
X0003853402Y0001004332D01*
X0003856214Y0000998708D01*
X0003856214Y0000967774D01*
X0003299212Y0000941340D02*
X0003929527Y0000941340D01*
X0003299212Y0000905511D02*
X0003299212Y0001047639D01*
X0003929527Y0000905511D02*
X0003929527Y0001047639D01*
X0003929527Y0000941340D02*
X0003885177Y0000918252D01*
X0003929527Y0000941340D02*
X0003885177Y0000964427D01*
X0003299212Y0000941340D02*
X0003343563Y0000918252D01*
X0003299212Y0000941340D02*
X0003343563Y0000964427D01*
G04 next file*
G04 Gerber Fmt 4.6, Leading zero omitted, Abs format (unit mm)*
G04 Created by KiCad (PCBNEW 4.0.7) date 11/29/17 18:13:59*
G01G01*
G04 APERTURE LIST*
G04 APERTURE END LIST*
D115*
G04 next file*
G04 Gerber Fmt 4.6, Leading zero omitted, Abs format (unit mm)*
G04 Created by KiCad (PCBNEW 4.0.7) date 11/29/17 18:13:59*
G01G01*
G04 APERTURE LIST*
G04 APERTURE END LIST*
D116*
G04 next file*
G04 Gerber Fmt 4.6, Leading zero omitted, Abs format (unit mm)*
G04 Created by KiCad (PCBNEW 4.0.7) date 11/29/17 18:13:59*
G01G01*
G04 APERTURE LIST*
G04 APERTURE END LIST*
D117*
G04 next file*
G04 Gerber Fmt 4.6, Leading zero omitted, Abs format (unit mm)*
G04 Created by KiCad (PCBNEW 4.0.7) date 11/29/17 18:13:59*
G01G01*
G04 APERTURE LIST*
G04 APERTURE END LIST*
D118*
D119*
X0003935039Y0002527559D02*
X0003293307Y0002527559D01*
X0003293307Y0002527559D02*
X0003293307Y0002669291D01*
X0003293307Y0002669291D02*
X0003935039Y0002669291D01*
X0003935039Y0002669291D02*
X0003935039Y0002527559D01*
G04 next file*
G04 Gerber Fmt 4.6, Leading zero omitted, Abs format (unit mm)*
G04 Created by KiCad (PCBNEW 4.0.7) date 11/29/17 18:13:59*
G01G01*
G04 APERTURE LIST*
G04 APERTURE END LIST*
D120*
G04 next file*
G04 Gerber Fmt 4.6, Leading zero omitted, Abs format (unit mm)*
G04 Created by KiCad (PCBNEW 4.0.7) date 11/29/17 18:13:59*
G01G01*
G04 APERTURE LIST*
G04 APERTURE END LIST*
D121*
G04 next file*
G04 Gerber Fmt 4.6, Leading zero omitted, Abs format (unit mm)*
G04 Created by KiCad (PCBNEW 4.0.7) date 11/29/17 18:13:59*
G01G01*
G04 APERTURE LIST*
G04 APERTURE END LIST*
D122*
D123*
X0003228577Y0002508343D02*
X0003231393Y0002505535D01*
X0003234212Y0002499914D01*
X0003234231Y0002485853D01*
X0003231426Y0002480225D01*
X0003228617Y0002477410D01*
X0003222997Y0002474590D01*
X0003217373Y0002474583D01*
X0003208932Y0002477384D01*
X0003175143Y0002511086D01*
X0003175190Y0002474528D01*
X0003234271Y0002454920D02*
X0003234319Y0002418362D01*
X0003211796Y0002438018D01*
X0003211807Y0002429581D01*
X0003209002Y0002423953D01*
X0003206194Y0002421137D01*
X0003200573Y0002418318D01*
X0003186512Y0002418300D01*
X0003180884Y0002421104D01*
X0003178069Y0002423913D01*
X0003175249Y0002429533D01*
X0003175227Y0002446406D01*
X0003178032Y0002452034D01*
X0003180840Y0002454850D01*
X0003180921Y0002392983D02*
X0003178113Y0002390167D01*
X0003175297Y0002392976D01*
X0003178105Y0002395791D01*
X0003180921Y0002392983D01*
X0003175297Y0002392976D01*
X0003234403Y0002353683D02*
X0003234410Y0002348058D01*
X0003231606Y0002342430D01*
X0003228797Y0002339614D01*
X0003223177Y0002336795D01*
X0003211932Y0002333968D01*
X0003197871Y0002333950D01*
X0003186619Y0002336747D01*
X0003180991Y0002339552D01*
X0003178175Y0002342361D01*
X0003175355Y0002347981D01*
X0003175348Y0002353606D01*
X0003178153Y0002359233D01*
X0003180961Y0002362049D01*
X0003186582Y0002364869D01*
X0003197827Y0002367696D01*
X0003211888Y0002367714D01*
X0003223140Y0002364916D01*
X0003228768Y0002362112D01*
X0003231584Y0002359303D01*
X0003234403Y0002353683D01*
X0003234477Y0002297440D02*
X0003234484Y0002291815D01*
X0003231679Y0002286187D01*
X0003228871Y0002283372D01*
X0003223250Y0002280552D01*
X0003212005Y0002277725D01*
X0003197944Y0002277707D01*
X0003186692Y0002280504D01*
X0003181064Y0002283309D01*
X0003178248Y0002286118D01*
X0003175429Y0002291738D01*
X0003175421Y0002297363D01*
X0003178226Y0002302991D01*
X0003181035Y0002305806D01*
X0003186655Y0002308626D01*
X0003197900Y0002311453D01*
X0003211961Y0002311471D01*
X0003223213Y0002308674D01*
X0003228841Y0002305869D01*
X0003231657Y0002303060D01*
X0003234477Y0002297440D01*
X0003234550Y0002241197D02*
X0003234557Y0002235572D01*
X0003231752Y0002229945D01*
X0003228944Y0002227129D01*
X0003223323Y0002224309D01*
X0003212078Y0002221482D01*
X0003198018Y0002221464D01*
X0003186765Y0002224261D01*
X0003181137Y0002227066D01*
X0003178322Y0002229875D01*
X0003175502Y0002235495D01*
X0003175495Y0002241120D01*
X0003178300Y0002246748D01*
X0003181108Y0002249564D01*
X0003186729Y0002252383D01*
X0003197974Y0002255210D01*
X0003212034Y0002255228D01*
X0003223287Y0002252431D01*
X0003228915Y0002249626D01*
X0003231730Y0002246817D01*
X0003234550Y0002241197D01*
X0003175612Y0002151131D02*
X0003214982Y0002151182D01*
X0003209358Y0002151175D02*
X0003212174Y0002148367D01*
X0003214993Y0002142746D01*
X0003215004Y0002134310D01*
X0003212199Y0002128682D01*
X0003206579Y0002125862D01*
X0003175645Y0002125822D01*
X0003206579Y0002125862D02*
X0003212207Y0002123057D01*
X0003215026Y0002117437D01*
X0003215037Y0002109000D01*
X0003212232Y0002103372D01*
X0003206612Y0002100553D01*
X0003175678Y0002100512D01*
X0003175715Y0002072391D02*
X0003215085Y0002072442D01*
X0003209461Y0002072435D02*
X0003212276Y0002069627D01*
X0003215096Y0002064006D01*
X0003215107Y0002055569D01*
X0003212302Y0002049942D01*
X0003206682Y0002047122D01*
X0003175748Y0002047082D01*
X0003206682Y0002047122D02*
X0003212309Y0002044317D01*
X0003215129Y0002038697D01*
X0003215140Y0002030260D01*
X0003212335Y0002024632D01*
X0003206715Y0002021813D01*
X0003175781Y0002021772D01*
X0003254740Y0002716477D02*
X0003255921Y0001810965D01*
X0003299212Y0002716535D02*
X0003148441Y0002716338D01*
X0003300393Y0001811023D02*
X0003149622Y0001810826D01*
X0003255921Y0001810965D02*
X0003232776Y0001855286D01*
X0003255921Y0001810965D02*
X0003278951Y0001855346D01*
X0003254740Y0002716477D02*
X0003231710Y0002672096D01*
X0003254740Y0002716477D02*
X0003277885Y0002672157D01*
X0003403459Y0002778798D02*
X0003369713Y0002778798D01*
X0003386586Y0002778798D02*
X0003386586Y0002837853D01*
X0003380961Y0002829416D01*
X0003375337Y0002823792D01*
X0003369713Y0002820980D01*
X0003454077Y0002837853D02*
X0003442829Y0002837853D01*
X0003437204Y0002835041D01*
X0003434392Y0002832229D01*
X0003428768Y0002823792D01*
X0003425956Y0002812544D01*
X0003425956Y0002790046D01*
X0003428768Y0002784422D01*
X0003431580Y0002781610D01*
X0003437204Y0002778798D01*
X0003448453Y0002778798D01*
X0003454077Y0002781610D01*
X0003456889Y0002784422D01*
X0003459702Y0002790046D01*
X0003459702Y0002804107D01*
X0003456889Y0002809731D01*
X0003454077Y0002812544D01*
X0003448453Y0002815356D01*
X0003437204Y0002815356D01*
X0003431580Y0002812544D01*
X0003428768Y0002809731D01*
X0003425956Y0002804107D01*
X0003485011Y0002784422D02*
X0003487823Y0002781610D01*
X0003485011Y0002778798D01*
X0003482199Y0002781610D01*
X0003485011Y0002784422D01*
X0003485011Y0002778798D01*
X0003524381Y0002837853D02*
X0003530005Y0002837853D01*
X0003535630Y0002835041D01*
X0003538442Y0002832229D01*
X0003541254Y0002826604D01*
X0003544066Y0002815356D01*
X0003544066Y0002801295D01*
X0003541254Y0002790046D01*
X0003538442Y0002784422D01*
X0003535630Y0002781610D01*
X0003530005Y0002778798D01*
X0003524381Y0002778798D01*
X0003518757Y0002781610D01*
X0003515945Y0002784422D01*
X0003513132Y0002790046D01*
X0003510320Y0002801295D01*
X0003510320Y0002815356D01*
X0003513132Y0002826604D01*
X0003515945Y0002832229D01*
X0003518757Y0002835041D01*
X0003524381Y0002837853D01*
X0003600309Y0002778798D02*
X0003566563Y0002778798D01*
X0003583436Y0002778798D02*
X0003583436Y0002837853D01*
X0003577812Y0002829416D01*
X0003572187Y0002823792D01*
X0003566563Y0002820980D01*
X0003636867Y0002837853D02*
X0003642491Y0002837853D01*
X0003648115Y0002835041D01*
X0003650928Y0002832229D01*
X0003653740Y0002826604D01*
X0003656552Y0002815356D01*
X0003656552Y0002801295D01*
X0003653740Y0002790046D01*
X0003650928Y0002784422D01*
X0003648115Y0002781610D01*
X0003642491Y0002778798D01*
X0003636867Y0002778798D01*
X0003631243Y0002781610D01*
X0003628430Y0002784422D01*
X0003625618Y0002790046D01*
X0003622806Y0002801295D01*
X0003622806Y0002815356D01*
X0003625618Y0002826604D01*
X0003628430Y0002832229D01*
X0003631243Y0002835041D01*
X0003636867Y0002837853D01*
X0003726856Y0002778798D02*
X0003726856Y0002818168D01*
X0003726856Y0002812544D02*
X0003729668Y0002815356D01*
X0003735292Y0002818168D01*
X0003743728Y0002818168D01*
X0003749353Y0002815356D01*
X0003752165Y0002809731D01*
X0003752165Y0002778798D01*
X0003752165Y0002809731D02*
X0003754977Y0002815356D01*
X0003760601Y0002818168D01*
X0003769038Y0002818168D01*
X0003774662Y0002815356D01*
X0003777474Y0002809731D01*
X0003777474Y0002778798D01*
X0003805596Y0002778798D02*
X0003805596Y0002818168D01*
X0003805596Y0002812544D02*
X0003808408Y0002815356D01*
X0003814032Y0002818168D01*
X0003822469Y0002818168D01*
X0003828093Y0002815356D01*
X0003830905Y0002809731D01*
X0003830905Y0002778798D01*
X0003830905Y0002809731D02*
X0003833717Y0002815356D01*
X0003839342Y0002818168D01*
X0003847778Y0002818168D01*
X0003853402Y0002815356D01*
X0003856214Y0002809731D01*
X0003856214Y0002778798D01*
X0003299212Y0002752364D02*
X0003929527Y0002752364D01*
X0003299212Y0002716535D02*
X0003299212Y0002858663D01*
X0003929527Y0002716535D02*
X0003929527Y0002858663D01*
X0003929527Y0002752364D02*
X0003885177Y0002729276D01*
X0003929527Y0002752364D02*
X0003885177Y0002775451D01*
X0003299212Y0002752364D02*
X0003343563Y0002729276D01*
X0003299212Y0002752364D02*
X0003343563Y0002775451D01*
G04 next file*
G04 Gerber Fmt 4.6, Leading zero omitted, Abs format (unit mm)*
G04 Created by KiCad (PCBNEW 4.0.7) date 11/29/17 18:13:59*
G01G01*
G04 APERTURE LIST*
G04 APERTURE END LIST*
D124*
G04 next file*
G04 Gerber Fmt 4.6, Leading zero omitted, Abs format (unit mm)*
G04 Created by KiCad (PCBNEW 4.0.7) date 11/29/17 18:13:59*
G01G01*
G04 APERTURE LIST*
G04 APERTURE END LIST*
D125*
G04 next file*
G04 Gerber Fmt 4.6, Leading zero omitted, Abs format (unit mm)*
G04 Created by KiCad (PCBNEW 4.0.7) date 11/29/17 18:13:59*
G01G01*
G04 APERTURE LIST*
G04 APERTURE END LIST*
D126*
G04 next file*
G04 Gerber Fmt 4.6, Leading zero omitted, Abs format (unit mm)*
G04 Created by KiCad (PCBNEW 4.0.7) date 11/29/17 18:13:59*
G01G01*
G04 APERTURE LIST*
G04 APERTURE END LIST*
D127*
D128*
X0003935039Y0003433070D02*
X0003293307Y0003433070D01*
X0003293307Y0003433070D02*
X0003293307Y0003574803D01*
X0003293307Y0003574803D02*
X0003935039Y0003574803D01*
X0003935039Y0003574803D02*
X0003935039Y0003433070D01*
G04 next file*
G04 Gerber Fmt 4.6, Leading zero omitted, Abs format (unit mm)*
G04 Created by KiCad (PCBNEW 4.0.7) date 11/29/17 18:13:59*
G01G01*
G04 APERTURE LIST*
G04 APERTURE END LIST*
D129*
G04 next file*
G04 Gerber Fmt 4.6, Leading zero omitted, Abs format (unit mm)*
G04 Created by KiCad (PCBNEW 4.0.7) date 11/29/17 18:13:59*
G01G01*
G04 APERTURE LIST*
G04 APERTURE END LIST*
D130*
G04 next file*
G04 Gerber Fmt 4.6, Leading zero omitted, Abs format (unit mm)*
G04 Created by KiCad (PCBNEW 4.0.7) date 11/29/17 18:13:59*
G01G01*
G04 APERTURE LIST*
G04 APERTURE END LIST*
D131*
D132*
X0003228577Y0003413855D02*
X0003231393Y0003411047D01*
X0003234212Y0003405426D01*
X0003234231Y0003391365D01*
X0003231426Y0003385737D01*
X0003228617Y0003382921D01*
X0003222997Y0003380102D01*
X0003217373Y0003380095D01*
X0003208932Y0003382896D01*
X0003175143Y0003416597D01*
X0003175190Y0003380040D01*
X0003234271Y0003360432D02*
X0003234319Y0003323874D01*
X0003211796Y0003343529D01*
X0003211807Y0003335093D01*
X0003209002Y0003329465D01*
X0003206194Y0003326649D01*
X0003200573Y0003323830D01*
X0003186512Y0003323811D01*
X0003180884Y0003326616D01*
X0003178069Y0003329425D01*
X0003175249Y0003335045D01*
X0003175227Y0003351918D01*
X0003178032Y0003357546D01*
X0003180840Y0003360362D01*
X0003180921Y0003298495D02*
X0003178113Y0003295679D01*
X0003175297Y0003298487D01*
X0003178105Y0003301303D01*
X0003180921Y0003298495D01*
X0003175297Y0003298487D01*
X0003234403Y0003259194D02*
X0003234410Y0003253570D01*
X0003231606Y0003247942D01*
X0003228797Y0003245126D01*
X0003223177Y0003242307D01*
X0003211932Y0003239480D01*
X0003197871Y0003239462D01*
X0003186619Y0003242259D01*
X0003180991Y0003245064D01*
X0003178175Y0003247872D01*
X0003175355Y0003253493D01*
X0003175348Y0003259117D01*
X0003178153Y0003264745D01*
X0003180961Y0003267561D01*
X0003186582Y0003270381D01*
X0003197827Y0003273207D01*
X0003211888Y0003273226D01*
X0003223140Y0003270428D01*
X0003228768Y0003267623D01*
X0003231584Y0003264815D01*
X0003234403Y0003259194D01*
X0003234477Y0003202951D02*
X0003234484Y0003197327D01*
X0003231679Y0003191699D01*
X0003228871Y0003188883D01*
X0003223250Y0003186064D01*
X0003212005Y0003183237D01*
X0003197944Y0003183219D01*
X0003186692Y0003186016D01*
X0003181064Y0003188821D01*
X0003178248Y0003191630D01*
X0003175429Y0003197250D01*
X0003175421Y0003202874D01*
X0003178226Y0003208502D01*
X0003181035Y0003211318D01*
X0003186655Y0003214138D01*
X0003197900Y0003216965D01*
X0003211961Y0003216983D01*
X0003223213Y0003214185D01*
X0003228841Y0003211381D01*
X0003231657Y0003208572D01*
X0003234477Y0003202951D01*
X0003234550Y0003146709D02*
X0003234557Y0003141084D01*
X0003231752Y0003135456D01*
X0003228944Y0003132640D01*
X0003223323Y0003129821D01*
X0003212078Y0003126994D01*
X0003198018Y0003126976D01*
X0003186765Y0003129773D01*
X0003181137Y0003132578D01*
X0003178322Y0003135387D01*
X0003175502Y0003141007D01*
X0003175495Y0003146632D01*
X0003178300Y0003152259D01*
X0003181108Y0003155075D01*
X0003186729Y0003157895D01*
X0003197974Y0003160722D01*
X0003212034Y0003160740D01*
X0003223287Y0003157942D01*
X0003228915Y0003155138D01*
X0003231730Y0003152329D01*
X0003234550Y0003146709D01*
X0003175612Y0003056643D02*
X0003214982Y0003056694D01*
X0003209358Y0003056687D02*
X0003212174Y0003053878D01*
X0003214993Y0003048258D01*
X0003215004Y0003039821D01*
X0003212199Y0003034193D01*
X0003206579Y0003031374D01*
X0003175645Y0003031334D01*
X0003206579Y0003031374D02*
X0003212207Y0003028569D01*
X0003215026Y0003022948D01*
X0003215037Y0003014512D01*
X0003212232Y0003008884D01*
X0003206612Y0003006065D01*
X0003175678Y0003006024D01*
X0003175715Y0002977903D02*
X0003215085Y0002977954D01*
X0003209461Y0002977947D02*
X0003212276Y0002975138D01*
X0003215096Y0002969518D01*
X0003215107Y0002961081D01*
X0003212302Y0002955453D01*
X0003206682Y0002952634D01*
X0003175748Y0002952593D01*
X0003206682Y0002952634D02*
X0003212309Y0002949829D01*
X0003215129Y0002944208D01*
X0003215140Y0002935772D01*
X0003212335Y0002930144D01*
X0003206715Y0002927325D01*
X0003175781Y0002927284D01*
X0003254740Y0003621989D02*
X0003255921Y0002716477D01*
X0003299212Y0003622047D02*
X0003148441Y0003621850D01*
X0003300393Y0002716535D02*
X0003149622Y0002716338D01*
X0003255921Y0002716477D02*
X0003232776Y0002760797D01*
X0003255921Y0002716477D02*
X0003278951Y0002760858D01*
X0003254740Y0003621989D02*
X0003231710Y0003577608D01*
X0003254740Y0003621989D02*
X0003277885Y0003577668D01*
X0003403459Y0003684310D02*
X0003369713Y0003684310D01*
X0003386586Y0003684310D02*
X0003386586Y0003743365D01*
X0003380961Y0003734928D01*
X0003375337Y0003729304D01*
X0003369713Y0003726492D01*
X0003454077Y0003743365D02*
X0003442829Y0003743365D01*
X0003437204Y0003740553D01*
X0003434392Y0003737740D01*
X0003428768Y0003729304D01*
X0003425956Y0003718055D01*
X0003425956Y0003695558D01*
X0003428768Y0003689934D01*
X0003431580Y0003687122D01*
X0003437204Y0003684310D01*
X0003448453Y0003684310D01*
X0003454077Y0003687122D01*
X0003456889Y0003689934D01*
X0003459702Y0003695558D01*
X0003459702Y0003709619D01*
X0003456889Y0003715243D01*
X0003454077Y0003718055D01*
X0003448453Y0003720867D01*
X0003437204Y0003720867D01*
X0003431580Y0003718055D01*
X0003428768Y0003715243D01*
X0003425956Y0003709619D01*
X0003485011Y0003689934D02*
X0003487823Y0003687122D01*
X0003485011Y0003684310D01*
X0003482199Y0003687122D01*
X0003485011Y0003689934D01*
X0003485011Y0003684310D01*
X0003524381Y0003743365D02*
X0003530005Y0003743365D01*
X0003535630Y0003740553D01*
X0003538442Y0003737740D01*
X0003541254Y0003732116D01*
X0003544066Y0003720867D01*
X0003544066Y0003706807D01*
X0003541254Y0003695558D01*
X0003538442Y0003689934D01*
X0003535630Y0003687122D01*
X0003530005Y0003684310D01*
X0003524381Y0003684310D01*
X0003518757Y0003687122D01*
X0003515945Y0003689934D01*
X0003513132Y0003695558D01*
X0003510320Y0003706807D01*
X0003510320Y0003720867D01*
X0003513132Y0003732116D01*
X0003515945Y0003737740D01*
X0003518757Y0003740553D01*
X0003524381Y0003743365D01*
X0003600309Y0003684310D02*
X0003566563Y0003684310D01*
X0003583436Y0003684310D02*
X0003583436Y0003743365D01*
X0003577812Y0003734928D01*
X0003572187Y0003729304D01*
X0003566563Y0003726492D01*
X0003636867Y0003743365D02*
X0003642491Y0003743365D01*
X0003648115Y0003740553D01*
X0003650928Y0003737740D01*
X0003653740Y0003732116D01*
X0003656552Y0003720867D01*
X0003656552Y0003706807D01*
X0003653740Y0003695558D01*
X0003650928Y0003689934D01*
X0003648115Y0003687122D01*
X0003642491Y0003684310D01*
X0003636867Y0003684310D01*
X0003631243Y0003687122D01*
X0003628430Y0003689934D01*
X0003625618Y0003695558D01*
X0003622806Y0003706807D01*
X0003622806Y0003720867D01*
X0003625618Y0003732116D01*
X0003628430Y0003737740D01*
X0003631243Y0003740553D01*
X0003636867Y0003743365D01*
X0003726856Y0003684310D02*
X0003726856Y0003723680D01*
X0003726856Y0003718055D02*
X0003729668Y0003720867D01*
X0003735292Y0003723680D01*
X0003743728Y0003723680D01*
X0003749353Y0003720867D01*
X0003752165Y0003715243D01*
X0003752165Y0003684310D01*
X0003752165Y0003715243D02*
X0003754977Y0003720867D01*
X0003760601Y0003723680D01*
X0003769038Y0003723680D01*
X0003774662Y0003720867D01*
X0003777474Y0003715243D01*
X0003777474Y0003684310D01*
X0003805596Y0003684310D02*
X0003805596Y0003723680D01*
X0003805596Y0003718055D02*
X0003808408Y0003720867D01*
X0003814032Y0003723680D01*
X0003822469Y0003723680D01*
X0003828093Y0003720867D01*
X0003830905Y0003715243D01*
X0003830905Y0003684310D01*
X0003830905Y0003715243D02*
X0003833717Y0003720867D01*
X0003839342Y0003723680D01*
X0003847778Y0003723680D01*
X0003853402Y0003720867D01*
X0003856214Y0003715243D01*
X0003856214Y0003684310D01*
X0003299212Y0003657875D02*
X0003929527Y0003657875D01*
X0003299212Y0003622047D02*
X0003299212Y0003764175D01*
X0003929527Y0003622047D02*
X0003929527Y0003764175D01*
X0003929527Y0003657875D02*
X0003885177Y0003634788D01*
X0003929527Y0003657875D02*
X0003885177Y0003680963D01*
X0003299212Y0003657875D02*
X0003343563Y0003634788D01*
X0003299212Y0003657875D02*
X0003343563Y0003680963D01*
G04 next file*
G04 Gerber Fmt 4.6, Leading zero omitted, Abs format (unit mm)*
G04 Created by KiCad (PCBNEW 4.0.7) date 11/29/17 18:13:59*
G01G01*
G04 APERTURE LIST*
G04 APERTURE END LIST*
D133*
G04 next file*
G04 Gerber Fmt 4.6, Leading zero omitted, Abs format (unit mm)*
G04 Created by KiCad (PCBNEW 4.0.7) date 11/29/17 18:13:59*
G01G01*
G04 APERTURE LIST*
G04 APERTURE END LIST*
D134*
G04 next file*
G04 Gerber Fmt 4.6, Leading zero omitted, Abs format (unit mm)*
G04 Created by KiCad (PCBNEW 4.0.7) date 11/29/17 18:13:59*
G01G01*
G04 APERTURE LIST*
G04 APERTURE END LIST*
D135*
M02*