%MOIN*%
%OFA0B0*%
%FSLAX44Y44*%
%IPPOS*%
%LPD*%
%ADD10C,0*%
D10*
X00033003Y00027161D02*
X00033003Y00027161D01*
X00039307Y00027161D01*
X00039295Y00036220D01*
X00032992Y00036220D01*
X00033003Y00027161D01*
X00020472Y00000000D02*
X00020472Y00000000D01*
X00020472Y00009055D01*
X00000000Y00009055D01*
X00000000Y00000000D01*
X00020472Y00000000D01*
X00020472Y00036220D02*
X00033003Y-00000003D01*
X00039307Y-00000003D01*
X00039295Y00009055D01*
X00033003Y00009051D01*
X00039307Y00009051D01*
X00039295Y00018110D01*
X00033003Y00018106D01*
X00039307Y00018106D01*
X00039295Y00027165D01*
X00032992Y00027165D01*
X00032992Y00036220D01*
X00020472Y00036220D01*
X00032992Y00009055D02*
X00020472Y00000000D01*
X00032992Y00000000D01*
X00032992Y00009055D01*
X00000000Y00027165D02*
X00032992Y00018110D01*
X00032992Y00027165D01*
X00020472Y00027165D01*
X00020472Y00036220D01*
X00000000Y00036220D01*
X00000000Y00027165D01*
X00000000Y00018110D02*
X00020472Y00018110D01*
X00020472Y00027165D01*
X00000000Y00027165D01*
X00000000Y00018110D01*
X00000000Y00009055D02*
X00020472Y00009055D01*
X00020472Y00018110D01*
X00000000Y00018110D01*
X00000000Y00009055D01*
M02*