%MOIN*%
%OFA0B0*%
%FSLAX46Y46*%
%IPPOS*%
%LPD*%
%ADD10C,0.0039370078740157488*%
%ADD11C,0.074803149606299218*%
%ADD12C,0.033464566929133861*%
%ADD13R,0.082677165354330714X0.082677165354330714*%
%ADD14O,0.082677165354330714X0.082677165354330714*%
%ADD15R,0.035433070866141732X0.051181102362204731*%
%ADD16R,0.047244094488188976X0.0452755905511811*%
%ADD17R,0.0452755905511811X0.047244094488188976*%
%ADD18R,0.051181102362204731X0.035433070866141732*%
%ADD19R,0.05748031496062992X0.041338582677165357*%
%ADD30C,0.0039370078740157488*%
%ADD31C,0.074803149606299218*%
%ADD32C,0.033464566929133861*%
%ADD33R,0.082677165354330714X0.082677165354330714*%
%ADD34O,0.082677165354330714X0.082677165354330714*%
%ADD35R,0.035433070866141732X0.051181102362204731*%
%ADD36R,0.047244094488188976X0.0452755905511811*%
%ADD37R,0.0452755905511811X0.047244094488188976*%
%ADD38R,0.051181102362204731X0.035433070866141732*%
%ADD39R,0.05748031496062992X0.041338582677165357*%
%ADD40C,0.0039370078740157488*%
%ADD41C,0.074803149606299218*%
%ADD42C,0.033464566929133861*%
%ADD43R,0.082677165354330714X0.082677165354330714*%
%ADD44O,0.082677165354330714X0.082677165354330714*%
%ADD45R,0.035433070866141732X0.051181102362204731*%
%ADD46R,0.047244094488188976X0.0452755905511811*%
%ADD47R,0.0452755905511811X0.047244094488188976*%
%ADD48R,0.051181102362204731X0.035433070866141732*%
%ADD49R,0.05748031496062992X0.041338582677165357*%
%ADD50C,0.0039370078740157488*%
%ADD51C,0.074803149606299218*%
%ADD52C,0.033464566929133861*%
%ADD53R,0.082677165354330714X0.082677165354330714*%
%ADD54O,0.082677165354330714X0.082677165354330714*%
%ADD55R,0.035433070866141732X0.051181102362204731*%
%ADD56R,0.047244094488188976X0.0452755905511811*%
%ADD57R,0.0452755905511811X0.047244094488188976*%
%ADD58R,0.051181102362204731X0.035433070866141732*%
%ADD59R,0.05748031496062992X0.041338582677165357*%
%ADD60C,0.0039370078740157488*%
%ADD61R,0.051181102362204731X0.035433070866141732*%
%ADD62R,0.082677165354330714X0.082677165354330714*%
%ADD63O,0.082677165354330714X0.082677165354330714*%
%ADD64R,0.0452755905511811X0.047244094488188976*%
%ADD65R,0.05748031496062992X0.041338582677165357*%
%ADD66R,0.035433070866141732X0.051181102362204731*%
%ADD67R,0.051181102362204731X0.047244094488188976*%
%ADD68R,0.047244094488188976X0.0452755905511811*%
%ADD69C,0.074803149606299218*%
%ADD70C,0.033464566929133861*%
%ADD71C,0.0039370078740157488*%
%ADD72R,0.051181102362204731X0.035433070866141732*%
%ADD73R,0.082677165354330714X0.082677165354330714*%
%ADD74O,0.082677165354330714X0.082677165354330714*%
%ADD75R,0.0452755905511811X0.047244094488188976*%
%ADD76R,0.05748031496062992X0.041338582677165357*%
%ADD77R,0.035433070866141732X0.051181102362204731*%
%ADD78R,0.051181102362204731X0.047244094488188976*%
%ADD79R,0.047244094488188976X0.0452755905511811*%
%ADD80C,0.074803149606299218*%
%ADD81C,0.033464566929133861*%
%ADD82C,0.0039370078740157488*%
%ADD83R,0.051181102362204731X0.035433070866141732*%
%ADD84R,0.082677165354330714X0.082677165354330714*%
%ADD85O,0.082677165354330714X0.082677165354330714*%
%ADD86R,0.0452755905511811X0.047244094488188976*%
%ADD87R,0.05748031496062992X0.041338582677165357*%
%ADD88R,0.035433070866141732X0.051181102362204731*%
%ADD89R,0.051181102362204731X0.047244094488188976*%
%ADD90R,0.047244094488188976X0.0452755905511811*%
%ADD91C,0.074803149606299218*%
%ADD92C,0.033464566929133861*%
%ADD93C,0.0039370078740157488*%
%ADD94R,0.051181102362204731X0.035433070866141732*%
%ADD95R,0.082677165354330714X0.082677165354330714*%
%ADD96O,0.082677165354330714X0.082677165354330714*%
%ADD97R,0.0452755905511811X0.047244094488188976*%
%ADD98R,0.05748031496062992X0.041338582677165357*%
%ADD99R,0.035433070866141732X0.051181102362204731*%
%ADD100R,0.051181102362204731X0.047244094488188976*%
%ADD101R,0.047244094488188976X0.0452755905511811*%
%ADD102C,0.074803149606299218*%
%ADD103C,0.033464566929133861*%
%ADD104C,0.0039370078740157488*%
%ADD105C,0.094488188976377951*%
%ADD106C,0.055118110236220472*%
%ADD107R,0.066929133858267723X0.066929133858267723*%
%ADD108O,0.066929133858267723X0.066929133858267723*%
%ADD109C,0.0039370078740157488*%
%ADD110C,0.094488188976377951*%
%ADD111C,0.055118110236220472*%
%ADD112R,0.066929133858267723X0.066929133858267723*%
%ADD113O,0.066929133858267723X0.066929133858267723*%
%ADD114C,0.0039370078740157488*%
%ADD115C,0.094488188976377951*%
%ADD116C,0.055118110236220472*%
%ADD117R,0.066929133858267723X0.066929133858267723*%
%ADD118O,0.066929133858267723X0.066929133858267723*%
%ADD119C,0.0039370078740157488*%
%ADD120C,0.094488188976377951*%
%ADD121C,0.055118110236220472*%
%ADD122R,0.066929133858267723X0.066929133858267723*%
%ADD123O,0.066929133858267723X0.066929133858267723*%
G01G01*
D10*
D11*
X0000000000Y0000905511D02*
X0001268582Y0000345590D03*
X0001268582Y0000537716D03*
D12*
X0000168188Y0000533582D03*
X0000168188Y0000376102D03*
D13*
X0001880787Y0000650314D03*
D14*
X0001880787Y0000550314D03*
X0001880787Y0000450314D03*
X0001880787Y0000350314D03*
X0001880787Y0000250314D03*
D15*
X0000088267Y0000261338D03*
X0000147322Y0000261338D03*
D16*
X0001236299Y0000422755D03*
X0001295354Y0000422755D03*
D17*
X0001359921Y0000362519D03*
X0001359921Y0000303464D03*
X0001775669Y0000301496D03*
X0001775669Y0000360551D03*
D16*
X0000255196Y0000650708D03*
X0000196141Y0000650708D03*
X0000628425Y0000648346D03*
X0000687480Y0000648346D03*
D18*
X0000665826Y0000364094D03*
X0000665826Y0000305039D03*
D17*
X0000731968Y0000305433D03*
X0000731968Y0000364488D03*
X0000796535Y0000364094D03*
X0000796535Y0000305039D03*
D19*
X0000866220Y0000299921D03*
X0000866220Y0000337322D03*
X0000866220Y0000374724D03*
X0000952834Y0000374724D03*
X0000952834Y0000299921D03*
D17*
X0001034724Y0000365275D03*
X0001034724Y0000306220D03*
X0001103228Y0000364881D03*
X0001103228Y0000305826D03*
D18*
X0001181574Y0000364094D03*
X0001181574Y0000305039D03*
X0001582362Y0000361732D03*
X0001582362Y0000302677D03*
D17*
X0001710708Y0000302283D03*
X0001710708Y0000361338D03*
D18*
X0001623622Y0000562992D03*
X0001623622Y0000503937D03*
D17*
X0001476456Y0000508976D03*
X0001476456Y0000568031D03*
X0001401653Y0000568818D03*
X0001401653Y0000509763D03*
X0001333543Y0000568818D03*
X0001333543Y0000509763D03*
D18*
X0001184330Y0000508188D03*
X0001184330Y0000567244D03*
D17*
X0001093385Y0000509763D03*
X0001093385Y0000568818D03*
X0000810708Y0000510157D03*
X0000810708Y0000569212D03*
X0001019370Y0000510157D03*
X0001019370Y0000569212D03*
X0000878818Y0000509370D03*
X0000878818Y0000568425D03*
X0000952834Y0000510551D03*
X0000952834Y0000569606D03*
D18*
X0000739055Y0000570000D03*
X0000739055Y0000510944D03*
D15*
X0000516535Y0000649212D03*
X0000457480Y0000649212D03*
D19*
X0000546535Y0000572362D03*
X0000546535Y0000534960D03*
X0000546535Y0000497559D03*
X0000459921Y0000497559D03*
X0000459921Y0000572362D03*
X0000459921Y0000534960D03*
D15*
X0000372125Y0000505826D03*
X0000313070Y0000505826D03*
X0000372125Y0000581023D03*
X0000313070Y0000581023D03*
D18*
X0000085118Y0000484566D03*
X0000085118Y0000425511D03*
D13*
X0001974488Y0000150314D03*
D14*
X0001874488Y0000150314D03*
X0001774488Y0000150314D03*
X0001674488Y0000150314D03*
X0001574488Y0000150314D03*
X0001474488Y0000150314D03*
X0001374488Y0000150314D03*
X0001274488Y0000150314D03*
X0001174488Y0000150314D03*
X0001074488Y0000150314D03*
X0000974488Y0000150314D03*
X0000874488Y0000150314D03*
X0000774488Y0000150314D03*
X0000674488Y0000150314D03*
X0000574488Y0000150314D03*
X0000474488Y0000150314D03*
X0000374488Y0000150314D03*
X0000274488Y0000150314D03*
X0000174488Y0000150314D03*
X0000074488Y0000150314D03*
D13*
X0001974488Y0000760551D03*
D14*
X0001874488Y0000760551D03*
X0001774488Y0000760551D03*
X0001674488Y0000760551D03*
X0001574488Y0000760551D03*
X0001474488Y0000760551D03*
X0001374488Y0000760551D03*
X0001274488Y0000760551D03*
X0001174488Y0000760551D03*
X0001074488Y0000760551D03*
X0000974488Y0000760551D03*
X0000874488Y0000760551D03*
X0000774488Y0000760551D03*
X0000674488Y0000760551D03*
X0000574488Y0000760551D03*
X0000474488Y0000760551D03*
X0000374488Y0000760551D03*
X0000274488Y0000760551D03*
X0000174488Y0000760551D03*
X0000074488Y0000760551D03*
D13*
X0000555511Y0000390551D03*
D14*
X0000555511Y0000290551D03*
X0000455511Y0000390551D03*
X0000455511Y0000290551D03*
X0000355511Y0000390551D03*
X0000355511Y0000290551D03*
D17*
X0001549685Y0000508976D03*
X0001549685Y0000568031D03*
G04 next file*
G04 Gerber Fmt 4.6, Leading zero omitted, Abs format (unit mm)*
G04 Created by KiCad (PCBNEW 4.0.7) date 11/30/17 23:24:33*
G01G01*
G04 APERTURE LIST*
G04 APERTURE END LIST*
D30*
D31*
X0000000000Y0001811023D02*
X0001268582Y0001251102D03*
X0001268582Y0001443228D03*
D32*
X0000168188Y0001439094D03*
X0000168188Y0001281614D03*
D33*
X0001880787Y0001555826D03*
D34*
X0001880787Y0001455826D03*
X0001880787Y0001355826D03*
X0001880787Y0001255826D03*
X0001880787Y0001155826D03*
D35*
X0000088267Y0001166850D03*
X0000147322Y0001166850D03*
D36*
X0001236299Y0001328267D03*
X0001295354Y0001328267D03*
D37*
X0001359921Y0001268031D03*
X0001359921Y0001208976D03*
X0001775669Y0001207007D03*
X0001775669Y0001266062D03*
D36*
X0000255196Y0001556220D03*
X0000196141Y0001556220D03*
X0000628425Y0001553858D03*
X0000687480Y0001553858D03*
D38*
X0000665826Y0001269606D03*
X0000665826Y0001210551D03*
D37*
X0000731968Y0001210944D03*
X0000731968Y0001269999D03*
X0000796535Y0001269606D03*
X0000796535Y0001210551D03*
D39*
X0000866220Y0001205433D03*
X0000866220Y0001242834D03*
X0000866220Y0001280236D03*
X0000952834Y0001280236D03*
X0000952834Y0001205433D03*
D37*
X0001034724Y0001270787D03*
X0001034724Y0001211732D03*
X0001103228Y0001270393D03*
X0001103228Y0001211338D03*
D38*
X0001181574Y0001269606D03*
X0001181574Y0001210551D03*
X0001582362Y0001267244D03*
X0001582362Y0001208188D03*
D37*
X0001710708Y0001207795D03*
X0001710708Y0001266850D03*
D38*
X0001623622Y0001468503D03*
X0001623622Y0001409448D03*
D37*
X0001476456Y0001414488D03*
X0001476456Y0001473543D03*
X0001401653Y0001474330D03*
X0001401653Y0001415275D03*
X0001333543Y0001474330D03*
X0001333543Y0001415275D03*
D38*
X0001184330Y0001413700D03*
X0001184330Y0001472755D03*
D37*
X0001093385Y0001415275D03*
X0001093385Y0001474330D03*
X0000810708Y0001415669D03*
X0000810708Y0001474724D03*
X0001019370Y0001415669D03*
X0001019370Y0001474724D03*
X0000878818Y0001414881D03*
X0000878818Y0001473937D03*
X0000952834Y0001416062D03*
X0000952834Y0001475118D03*
D38*
X0000739055Y0001475511D03*
X0000739055Y0001416456D03*
D35*
X0000516535Y0001554724D03*
X0000457480Y0001554724D03*
D39*
X0000546535Y0001477874D03*
X0000546535Y0001440472D03*
X0000546535Y0001403070D03*
X0000459921Y0001403070D03*
X0000459921Y0001477874D03*
X0000459921Y0001440472D03*
D35*
X0000372125Y0001411338D03*
X0000313070Y0001411338D03*
X0000372125Y0001486535D03*
X0000313070Y0001486535D03*
D38*
X0000085118Y0001390078D03*
X0000085118Y0001331023D03*
D33*
X0001974488Y0001055826D03*
D34*
X0001874488Y0001055826D03*
X0001774488Y0001055826D03*
X0001674488Y0001055826D03*
X0001574488Y0001055826D03*
X0001474488Y0001055826D03*
X0001374488Y0001055826D03*
X0001274488Y0001055826D03*
X0001174488Y0001055826D03*
X0001074488Y0001055826D03*
X0000974488Y0001055826D03*
X0000874488Y0001055826D03*
X0000774488Y0001055826D03*
X0000674488Y0001055826D03*
X0000574488Y0001055826D03*
X0000474488Y0001055826D03*
X0000374488Y0001055826D03*
X0000274488Y0001055826D03*
X0000174488Y0001055826D03*
X0000074488Y0001055826D03*
D33*
X0001974488Y0001666062D03*
D34*
X0001874488Y0001666062D03*
X0001774488Y0001666062D03*
X0001674488Y0001666062D03*
X0001574488Y0001666062D03*
X0001474488Y0001666062D03*
X0001374488Y0001666062D03*
X0001274488Y0001666062D03*
X0001174488Y0001666062D03*
X0001074488Y0001666062D03*
X0000974488Y0001666062D03*
X0000874488Y0001666062D03*
X0000774488Y0001666062D03*
X0000674488Y0001666062D03*
X0000574488Y0001666062D03*
X0000474488Y0001666062D03*
X0000374488Y0001666062D03*
X0000274488Y0001666062D03*
X0000174488Y0001666062D03*
X0000074488Y0001666062D03*
D33*
X0000555511Y0001296062D03*
D34*
X0000555511Y0001196062D03*
X0000455511Y0001296062D03*
X0000455511Y0001196062D03*
X0000355511Y0001296062D03*
X0000355511Y0001196062D03*
D37*
X0001549685Y0001414488D03*
X0001549685Y0001473543D03*
G04 next file*
G04 Gerber Fmt 4.6, Leading zero omitted, Abs format (unit mm)*
G04 Created by KiCad (PCBNEW 4.0.7) date 11/30/17 23:24:33*
G01G01*
G04 APERTURE LIST*
G04 APERTURE END LIST*
D40*
D41*
X0000000000Y0002716535D02*
X0001268582Y0002156614D03*
X0001268582Y0002348740D03*
D42*
X0000168188Y0002344606D03*
X0000168188Y0002187125D03*
D43*
X0001880787Y0002461338D03*
D44*
X0001880787Y0002361338D03*
X0001880787Y0002261338D03*
X0001880787Y0002161338D03*
X0001880787Y0002061338D03*
D45*
X0000088267Y0002072362D03*
X0000147322Y0002072362D03*
D46*
X0001236299Y0002233779D03*
X0001295354Y0002233779D03*
D47*
X0001359921Y0002173543D03*
X0001359921Y0002114488D03*
X0001775669Y0002112519D03*
X0001775669Y0002171574D03*
D46*
X0000255196Y0002461732D03*
X0000196141Y0002461732D03*
X0000628425Y0002459370D03*
X0000687480Y0002459370D03*
D48*
X0000665826Y0002175118D03*
X0000665826Y0002116062D03*
D47*
X0000731968Y0002116456D03*
X0000731968Y0002175511D03*
X0000796535Y0002175118D03*
X0000796535Y0002116062D03*
D49*
X0000866220Y0002110944D03*
X0000866220Y0002148346D03*
X0000866220Y0002185748D03*
X0000952834Y0002185748D03*
X0000952834Y0002110944D03*
D47*
X0001034724Y0002176299D03*
X0001034724Y0002117244D03*
X0001103228Y0002175905D03*
X0001103228Y0002116850D03*
D48*
X0001181574Y0002175118D03*
X0001181574Y0002116062D03*
X0001582362Y0002172755D03*
X0001582362Y0002113700D03*
D47*
X0001710708Y0002113307D03*
X0001710708Y0002172362D03*
D48*
X0001623622Y0002374015D03*
X0001623622Y0002314960D03*
D47*
X0001476456Y0002320000D03*
X0001476456Y0002379055D03*
X0001401653Y0002379842D03*
X0001401653Y0002320787D03*
X0001333543Y0002379842D03*
X0001333543Y0002320787D03*
D48*
X0001184330Y0002319212D03*
X0001184330Y0002378267D03*
D47*
X0001093385Y0002320787D03*
X0001093385Y0002379842D03*
X0000810708Y0002321181D03*
X0000810708Y0002380236D03*
X0001019370Y0002321181D03*
X0001019370Y0002380236D03*
X0000878818Y0002320393D03*
X0000878818Y0002379448D03*
X0000952834Y0002321574D03*
X0000952834Y0002380629D03*
D48*
X0000739055Y0002381023D03*
X0000739055Y0002321968D03*
D45*
X0000516535Y0002460236D03*
X0000457480Y0002460236D03*
D49*
X0000546535Y0002383385D03*
X0000546535Y0002345984D03*
X0000546535Y0002308582D03*
X0000459921Y0002308582D03*
X0000459921Y0002383385D03*
X0000459921Y0002345984D03*
D45*
X0000372125Y0002316850D03*
X0000313070Y0002316850D03*
X0000372125Y0002392047D03*
X0000313070Y0002392047D03*
D48*
X0000085118Y0002295590D03*
X0000085118Y0002236535D03*
D43*
X0001974488Y0001961338D03*
D44*
X0001874488Y0001961338D03*
X0001774488Y0001961338D03*
X0001674488Y0001961338D03*
X0001574488Y0001961338D03*
X0001474488Y0001961338D03*
X0001374488Y0001961338D03*
X0001274488Y0001961338D03*
X0001174488Y0001961338D03*
X0001074488Y0001961338D03*
X0000974488Y0001961338D03*
X0000874488Y0001961338D03*
X0000774488Y0001961338D03*
X0000674488Y0001961338D03*
X0000574488Y0001961338D03*
X0000474488Y0001961338D03*
X0000374488Y0001961338D03*
X0000274488Y0001961338D03*
X0000174488Y0001961338D03*
X0000074488Y0001961338D03*
D43*
X0001974488Y0002571574D03*
D44*
X0001874488Y0002571574D03*
X0001774488Y0002571574D03*
X0001674488Y0002571574D03*
X0001574488Y0002571574D03*
X0001474488Y0002571574D03*
X0001374488Y0002571574D03*
X0001274488Y0002571574D03*
X0001174488Y0002571574D03*
X0001074488Y0002571574D03*
X0000974488Y0002571574D03*
X0000874488Y0002571574D03*
X0000774488Y0002571574D03*
X0000674488Y0002571574D03*
X0000574488Y0002571574D03*
X0000474488Y0002571574D03*
X0000374488Y0002571574D03*
X0000274488Y0002571574D03*
X0000174488Y0002571574D03*
X0000074488Y0002571574D03*
D43*
X0000555511Y0002201574D03*
D44*
X0000555511Y0002101574D03*
X0000455511Y0002201574D03*
X0000455511Y0002101574D03*
X0000355511Y0002201574D03*
X0000355511Y0002101574D03*
D47*
X0001549685Y0002320000D03*
X0001549685Y0002379055D03*
G04 next file*
G04 Gerber Fmt 4.6, Leading zero omitted, Abs format (unit mm)*
G04 Created by KiCad (PCBNEW 4.0.7) date 11/30/17 23:24:33*
G01G01*
G04 APERTURE LIST*
G04 APERTURE END LIST*
D50*
D51*
X0000000000Y0003622047D02*
X0001268582Y0003062125D03*
X0001268582Y0003254251D03*
D52*
X0000168188Y0003250118D03*
X0000168188Y0003092637D03*
D53*
X0001880787Y0003366850D03*
D54*
X0001880787Y0003266850D03*
X0001880787Y0003166850D03*
X0001880787Y0003066850D03*
X0001880787Y0002966850D03*
D55*
X0000088267Y0002977874D03*
X0000147322Y0002977874D03*
D56*
X0001236299Y0003139291D03*
X0001295354Y0003139291D03*
D57*
X0001359921Y0003079055D03*
X0001359921Y0003020000D03*
X0001775669Y0003018031D03*
X0001775669Y0003077086D03*
D56*
X0000255196Y0003367244D03*
X0000196141Y0003367244D03*
X0000628425Y0003364881D03*
X0000687480Y0003364881D03*
D58*
X0000665826Y0003080629D03*
X0000665826Y0003021574D03*
D57*
X0000731968Y0003021968D03*
X0000731968Y0003081023D03*
X0000796535Y0003080629D03*
X0000796535Y0003021574D03*
D59*
X0000866220Y0003016456D03*
X0000866220Y0003053858D03*
X0000866220Y0003091259D03*
X0000952834Y0003091259D03*
X0000952834Y0003016456D03*
D57*
X0001034724Y0003081811D03*
X0001034724Y0003022755D03*
X0001103228Y0003081417D03*
X0001103228Y0003022362D03*
D58*
X0001181574Y0003080629D03*
X0001181574Y0003021574D03*
X0001582362Y0003078267D03*
X0001582362Y0003019212D03*
D57*
X0001710708Y0003018818D03*
X0001710708Y0003077874D03*
D58*
X0001623622Y0003279527D03*
X0001623622Y0003220472D03*
D57*
X0001476456Y0003225511D03*
X0001476456Y0003284566D03*
X0001401653Y0003285354D03*
X0001401653Y0003226299D03*
X0001333543Y0003285354D03*
X0001333543Y0003226299D03*
D58*
X0001184330Y0003224724D03*
X0001184330Y0003283779D03*
D57*
X0001093385Y0003226299D03*
X0001093385Y0003285354D03*
X0000810708Y0003226692D03*
X0000810708Y0003285748D03*
X0001019370Y0003226692D03*
X0001019370Y0003285748D03*
X0000878818Y0003225905D03*
X0000878818Y0003284960D03*
X0000952834Y0003227086D03*
X0000952834Y0003286141D03*
D58*
X0000739055Y0003286535D03*
X0000739055Y0003227480D03*
D55*
X0000516535Y0003365748D03*
X0000457480Y0003365748D03*
D59*
X0000546535Y0003288897D03*
X0000546535Y0003251496D03*
X0000546535Y0003214094D03*
X0000459921Y0003214094D03*
X0000459921Y0003288897D03*
X0000459921Y0003251496D03*
D55*
X0000372125Y0003222362D03*
X0000313070Y0003222362D03*
X0000372125Y0003297559D03*
X0000313070Y0003297559D03*
D58*
X0000085118Y0003201102D03*
X0000085118Y0003142047D03*
D53*
X0001974488Y0002866850D03*
D54*
X0001874488Y0002866850D03*
X0001774488Y0002866850D03*
X0001674488Y0002866850D03*
X0001574488Y0002866850D03*
X0001474488Y0002866850D03*
X0001374488Y0002866850D03*
X0001274488Y0002866850D03*
X0001174488Y0002866850D03*
X0001074488Y0002866850D03*
X0000974488Y0002866850D03*
X0000874488Y0002866850D03*
X0000774488Y0002866850D03*
X0000674488Y0002866850D03*
X0000574488Y0002866850D03*
X0000474488Y0002866850D03*
X0000374488Y0002866850D03*
X0000274488Y0002866850D03*
X0000174488Y0002866850D03*
X0000074488Y0002866850D03*
D53*
X0001974488Y0003477086D03*
D54*
X0001874488Y0003477086D03*
X0001774488Y0003477086D03*
X0001674488Y0003477086D03*
X0001574488Y0003477086D03*
X0001474488Y0003477086D03*
X0001374488Y0003477086D03*
X0001274488Y0003477086D03*
X0001174488Y0003477086D03*
X0001074488Y0003477086D03*
X0000974488Y0003477086D03*
X0000874488Y0003477086D03*
X0000774488Y0003477086D03*
X0000674488Y0003477086D03*
X0000574488Y0003477086D03*
X0000474488Y0003477086D03*
X0000374488Y0003477086D03*
X0000274488Y0003477086D03*
X0000174488Y0003477086D03*
X0000074488Y0003477086D03*
D53*
X0000555511Y0003107086D03*
D54*
X0000555511Y0003007086D03*
X0000455511Y0003107086D03*
X0000455511Y0003007086D03*
X0000355511Y0003107086D03*
X0000355511Y0003007086D03*
D57*
X0001549685Y0003225511D03*
X0001549685Y0003284566D03*
G04 next file*
G04 Gerber Fmt 4.6, Leading zero omitted, Abs format (unit mm)*
G04 Created by KiCad (PCBNEW 4.0.7) date 11/30/17 23:31:52*
G01G01*
G04 APERTURE LIST*
G04 APERTURE END LIST*
D60*
D61*
X0002047244Y0002716535D02*
X0002612795Y0002130314D03*
X0002612795Y0002071259D03*
X0002944881Y0002078346D03*
X0002944881Y0002137401D03*
X0002835433Y0002133070D03*
X0002835433Y0002074015D03*
D60*
G36*
X0003283464Y0002654724D02*
X0003283464Y0002568110D01*
X0003149606Y0002568110D01*
X0003149606Y0002654724D01*
X0003283464Y0002654724D01*
X0003283464Y0002654724D01*
G37*
G36*
X0003283464Y0002554724D02*
X0003283464Y0002468110D01*
X0003149606Y0002468110D01*
X0003149606Y0002554724D01*
X0003283464Y0002554724D01*
X0003283464Y0002554724D01*
G37*
G36*
X0003283464Y0002454724D02*
X0003283464Y0002368110D01*
X0003149606Y0002368110D01*
X0003149606Y0002454724D01*
X0003283464Y0002454724D01*
X0003283464Y0002454724D01*
G37*
G36*
X0003283464Y0002354724D02*
X0003283464Y0002268110D01*
X0003149606Y0002268110D01*
X0003149606Y0002354724D01*
X0003283464Y0002354724D01*
X0003283464Y0002354724D01*
G37*
G36*
X0003283464Y0002254724D02*
X0003283464Y0002168110D01*
X0003149606Y0002168110D01*
X0003149606Y0002254724D01*
X0003283464Y0002254724D01*
X0003283464Y0002254724D01*
G37*
G36*
X0003283464Y0002154724D02*
X0003283464Y0002068110D01*
X0003149606Y0002068110D01*
X0003149606Y0002154724D01*
X0003283464Y0002154724D01*
X0003283464Y0002154724D01*
G37*
G36*
X0003283464Y0002054724D02*
X0003283464Y0001968110D01*
X0003149606Y0001968110D01*
X0003149606Y0002054724D01*
X0003283464Y0002054724D01*
X0003283464Y0002054724D01*
G37*
G36*
X0003283464Y0001954724D02*
X0003283464Y0001868110D01*
X0003149606Y0001868110D01*
X0003149606Y0001954724D01*
X0003283464Y0001954724D01*
X0003283464Y0001954724D01*
G37*
D62*
X0003025015Y0002597338D03*
D63*
X0002925015Y0002597338D03*
X0002825015Y0002597338D03*
X0002725015Y0002597338D03*
X0002625015Y0002597338D03*
X0002525015Y0002597338D03*
D61*
X0002715354Y0002454724D03*
X0002715354Y0002513779D03*
X0002678015Y0002203149D03*
X0002678015Y0002262204D03*
D64*
X0002740944Y0002016929D03*
X0002740944Y0001957874D03*
X0002967015Y0002203149D03*
X0002967015Y0002262204D03*
X0002850393Y0002454724D03*
X0002850393Y0002513779D03*
X0002606015Y0002200811D03*
X0002606015Y0002259866D03*
D61*
X0002392519Y0001948818D03*
X0002392519Y0002007874D03*
X0003058303Y0002002120D03*
X0003058303Y0001943064D03*
X0002973370Y0001941850D03*
X0002973370Y0002000905D03*
D65*
X0002227165Y0001961811D03*
X0002227165Y0001999212D03*
X0002227165Y0002036614D03*
X0002313779Y0002036614D03*
X0002313779Y0001961811D03*
X0002313779Y0001999212D03*
D61*
X0002783070Y0002513779D03*
X0002783070Y0002454724D03*
X0002746015Y0002262204D03*
X0002746015Y0002203149D03*
X0002811015Y0002203149D03*
X0002811015Y0002262204D03*
X0002902755Y0002262204D03*
X0002902755Y0002203149D03*
X0002387251Y0002605771D03*
X0002387251Y0002546716D03*
X0002644881Y0002516535D03*
X0002644881Y0002457480D03*
X0002255251Y0002546716D03*
X0002255251Y0002605771D03*
X0002321251Y0002605771D03*
X0002321251Y0002546716D03*
X0002144496Y0002295275D03*
X0002144496Y0002236220D03*
D66*
X0002145669Y0001882874D03*
X0002086614Y0001882874D03*
X0002145669Y0002031496D03*
X0002086614Y0002031496D03*
X0002145669Y0001960629D03*
X0002086614Y0001960629D03*
D61*
X0002612795Y0002019275D03*
X0002612795Y0001960220D03*
X0002675795Y0002019275D03*
X0002675795Y0001960220D03*
X0002550795Y0002018275D03*
X0002550795Y0001959220D03*
D67*
X0002185039Y0002606299D03*
X0002185039Y0002531496D03*
X0002106299Y0002568897D03*
D64*
X0002538976Y0002200393D03*
X0002538976Y0002259448D03*
D68*
X0002397346Y0002486708D03*
X0002338291Y0002486708D03*
D64*
X0002484645Y0002259842D03*
X0002484645Y0002200787D03*
X0002372047Y0002200393D03*
X0002372047Y0002259448D03*
X0002484795Y0001960220D03*
X0002484795Y0002019275D03*
X0002804724Y0002016929D03*
X0002804724Y0001957874D03*
D69*
X0002433015Y0002135338D03*
X0002433015Y0002327464D03*
D68*
X0002397346Y0002423708D03*
X0002338291Y0002423708D03*
D65*
X0002475590Y0002422047D03*
X0002475590Y0002459448D03*
X0002475590Y0002496850D03*
X0002562204Y0002496850D03*
X0002562204Y0002422047D03*
D70*
X0002218503Y0002345472D03*
X0002218503Y0002187992D03*
G04 next file*
G04 Gerber Fmt 4.6, Leading zero omitted, Abs format (unit mm)*
G04 Created by KiCad (PCBNEW 4.0.7) date 11/30/17 23:31:52*
G01G01*
G04 APERTURE LIST*
G04 APERTURE END LIST*
D71*
D72*
X0002047244Y0001811023D02*
X0002612795Y0001224803D03*
X0002612795Y0001165748D03*
X0002944881Y0001172834D03*
X0002944881Y0001231889D03*
X0002835433Y0001227559D03*
X0002835433Y0001168503D03*
D71*
G36*
X0003283464Y0001749212D02*
X0003283464Y0001662598D01*
X0003149606Y0001662598D01*
X0003149606Y0001749212D01*
X0003283464Y0001749212D01*
X0003283464Y0001749212D01*
G37*
G36*
X0003283464Y0001649212D02*
X0003283464Y0001562598D01*
X0003149606Y0001562598D01*
X0003149606Y0001649212D01*
X0003283464Y0001649212D01*
X0003283464Y0001649212D01*
G37*
G36*
X0003283464Y0001549212D02*
X0003283464Y0001462598D01*
X0003149606Y0001462598D01*
X0003149606Y0001549212D01*
X0003283464Y0001549212D01*
X0003283464Y0001549212D01*
G37*
G36*
X0003283464Y0001449212D02*
X0003283464Y0001362598D01*
X0003149606Y0001362598D01*
X0003149606Y0001449212D01*
X0003283464Y0001449212D01*
X0003283464Y0001449212D01*
G37*
G36*
X0003283464Y0001349212D02*
X0003283464Y0001262598D01*
X0003149606Y0001262598D01*
X0003149606Y0001349212D01*
X0003283464Y0001349212D01*
X0003283464Y0001349212D01*
G37*
G36*
X0003283464Y0001249212D02*
X0003283464Y0001162598D01*
X0003149606Y0001162598D01*
X0003149606Y0001249212D01*
X0003283464Y0001249212D01*
X0003283464Y0001249212D01*
G37*
G36*
X0003283464Y0001149212D02*
X0003283464Y0001062598D01*
X0003149606Y0001062598D01*
X0003149606Y0001149212D01*
X0003283464Y0001149212D01*
X0003283464Y0001149212D01*
G37*
G36*
X0003283464Y0001049212D02*
X0003283464Y0000962598D01*
X0003149606Y0000962598D01*
X0003149606Y0001049212D01*
X0003283464Y0001049212D01*
X0003283464Y0001049212D01*
G37*
D73*
X0003025015Y0001691826D03*
D74*
X0002925015Y0001691826D03*
X0002825015Y0001691826D03*
X0002725015Y0001691826D03*
X0002625015Y0001691826D03*
X0002525015Y0001691826D03*
D72*
X0002715354Y0001549212D03*
X0002715354Y0001608267D03*
X0002678015Y0001297637D03*
X0002678015Y0001356692D03*
D75*
X0002740944Y0001111417D03*
X0002740944Y0001052362D03*
X0002967015Y0001297637D03*
X0002967015Y0001356692D03*
X0002850393Y0001549212D03*
X0002850393Y0001608267D03*
X0002606015Y0001295299D03*
X0002606015Y0001354354D03*
D72*
X0002392519Y0001043307D03*
X0002392519Y0001102362D03*
X0003058303Y0001096608D03*
X0003058303Y0001037553D03*
X0002973370Y0001036338D03*
X0002973370Y0001095393D03*
D76*
X0002227165Y0001056299D03*
X0002227165Y0001093700D03*
X0002227165Y0001131102D03*
X0002313779Y0001131102D03*
X0002313779Y0001056299D03*
X0002313779Y0001093700D03*
D72*
X0002783070Y0001608267D03*
X0002783070Y0001549212D03*
X0002746015Y0001356692D03*
X0002746015Y0001297637D03*
X0002811015Y0001297637D03*
X0002811015Y0001356692D03*
X0002902755Y0001356692D03*
X0002902755Y0001297637D03*
X0002387251Y0001700259D03*
X0002387251Y0001641204D03*
X0002644881Y0001611023D03*
X0002644881Y0001551968D03*
X0002255251Y0001641204D03*
X0002255251Y0001700259D03*
X0002321251Y0001700259D03*
X0002321251Y0001641204D03*
X0002144496Y0001389763D03*
X0002144496Y0001330708D03*
D77*
X0002145669Y0000977362D03*
X0002086614Y0000977362D03*
X0002145669Y0001125984D03*
X0002086614Y0001125984D03*
X0002145669Y0001055118D03*
X0002086614Y0001055118D03*
D72*
X0002612795Y0001113763D03*
X0002612795Y0001054708D03*
X0002675795Y0001113763D03*
X0002675795Y0001054708D03*
X0002550795Y0001112763D03*
X0002550795Y0001053708D03*
D78*
X0002185039Y0001700787D03*
X0002185039Y0001625984D03*
X0002106299Y0001663385D03*
D75*
X0002538976Y0001294881D03*
X0002538976Y0001353937D03*
D79*
X0002397346Y0001581196D03*
X0002338291Y0001581196D03*
D75*
X0002484645Y0001354330D03*
X0002484645Y0001295275D03*
X0002372047Y0001294881D03*
X0002372047Y0001353937D03*
X0002484795Y0001054708D03*
X0002484795Y0001113763D03*
X0002804724Y0001111417D03*
X0002804724Y0001052362D03*
D80*
X0002433015Y0001229826D03*
X0002433015Y0001421952D03*
D79*
X0002397346Y0001518196D03*
X0002338291Y0001518196D03*
D76*
X0002475590Y0001516535D03*
X0002475590Y0001553937D03*
X0002475590Y0001591338D03*
X0002562204Y0001591338D03*
X0002562204Y0001516535D03*
D81*
X0002218503Y0001439960D03*
X0002218503Y0001282480D03*
G04 next file*
G04 Gerber Fmt 4.6, Leading zero omitted, Abs format (unit mm)*
G04 Created by KiCad (PCBNEW 4.0.7) date 11/30/17 23:31:52*
G01G01*
G04 APERTURE LIST*
G04 APERTURE END LIST*
D82*
D83*
X0002047244Y0000905511D02*
X0002612795Y0000319291D03*
X0002612795Y0000260236D03*
X0002944881Y0000267322D03*
X0002944881Y0000326377D03*
X0002835433Y0000322047D03*
X0002835433Y0000262992D03*
D82*
G36*
X0003283464Y0000843700D02*
X0003283464Y0000757086D01*
X0003149606Y0000757086D01*
X0003149606Y0000843700D01*
X0003283464Y0000843700D01*
X0003283464Y0000843700D01*
G37*
G36*
X0003283464Y0000743700D02*
X0003283464Y0000657086D01*
X0003149606Y0000657086D01*
X0003149606Y0000743700D01*
X0003283464Y0000743700D01*
X0003283464Y0000743700D01*
G37*
G36*
X0003283464Y0000643700D02*
X0003283464Y0000557086D01*
X0003149606Y0000557086D01*
X0003149606Y0000643700D01*
X0003283464Y0000643700D01*
X0003283464Y0000643700D01*
G37*
G36*
X0003283464Y0000543700D02*
X0003283464Y0000457086D01*
X0003149606Y0000457086D01*
X0003149606Y0000543700D01*
X0003283464Y0000543700D01*
X0003283464Y0000543700D01*
G37*
G36*
X0003283464Y0000443700D02*
X0003283464Y0000357086D01*
X0003149606Y0000357086D01*
X0003149606Y0000443700D01*
X0003283464Y0000443700D01*
X0003283464Y0000443700D01*
G37*
G36*
X0003283464Y0000343700D02*
X0003283464Y0000257086D01*
X0003149606Y0000257086D01*
X0003149606Y0000343700D01*
X0003283464Y0000343700D01*
X0003283464Y0000343700D01*
G37*
G36*
X0003283464Y0000243700D02*
X0003283464Y0000157086D01*
X0003149606Y0000157086D01*
X0003149606Y0000243700D01*
X0003283464Y0000243700D01*
X0003283464Y0000243700D01*
G37*
G36*
X0003283464Y0000143700D02*
X0003283464Y0000057086D01*
X0003149606Y0000057086D01*
X0003149606Y0000143700D01*
X0003283464Y0000143700D01*
X0003283464Y0000143700D01*
G37*
D84*
X0003025015Y0000786314D03*
D85*
X0002925015Y0000786314D03*
X0002825015Y0000786314D03*
X0002725015Y0000786314D03*
X0002625015Y0000786314D03*
X0002525015Y0000786314D03*
D83*
X0002715354Y0000643700D03*
X0002715354Y0000702755D03*
X0002678015Y0000392125D03*
X0002678015Y0000451181D03*
D86*
X0002740944Y0000205905D03*
X0002740944Y0000146850D03*
X0002967015Y0000392125D03*
X0002967015Y0000451181D03*
X0002850393Y0000643700D03*
X0002850393Y0000702755D03*
X0002606015Y0000389787D03*
X0002606015Y0000448842D03*
D83*
X0002392519Y0000137795D03*
X0002392519Y0000196850D03*
X0003058303Y0000191096D03*
X0003058303Y0000132041D03*
X0002973370Y0000130826D03*
X0002973370Y0000189881D03*
D87*
X0002227165Y0000150787D03*
X0002227165Y0000188188D03*
X0002227165Y0000225590D03*
X0002313779Y0000225590D03*
X0002313779Y0000150787D03*
X0002313779Y0000188188D03*
D83*
X0002783070Y0000702755D03*
X0002783070Y0000643700D03*
X0002746015Y0000451181D03*
X0002746015Y0000392125D03*
X0002811015Y0000392125D03*
X0002811015Y0000451181D03*
X0002902755Y0000451181D03*
X0002902755Y0000392125D03*
X0002387251Y0000794748D03*
X0002387251Y0000735692D03*
X0002644881Y0000705511D03*
X0002644881Y0000646456D03*
X0002255251Y0000735692D03*
X0002255251Y0000794748D03*
X0002321251Y0000794748D03*
X0002321251Y0000735692D03*
X0002144496Y0000484251D03*
X0002144496Y0000425196D03*
D88*
X0002145669Y0000071850D03*
X0002086614Y0000071850D03*
X0002145669Y0000220472D03*
X0002086614Y0000220472D03*
X0002145669Y0000149606D03*
X0002086614Y0000149606D03*
D83*
X0002612795Y0000208251D03*
X0002612795Y0000149196D03*
X0002675795Y0000208251D03*
X0002675795Y0000149196D03*
X0002550795Y0000207251D03*
X0002550795Y0000148196D03*
D89*
X0002185039Y0000795275D03*
X0002185039Y0000720472D03*
X0002106299Y0000757874D03*
D86*
X0002538976Y0000389370D03*
X0002538976Y0000448425D03*
D90*
X0002397346Y0000675685D03*
X0002338291Y0000675685D03*
D86*
X0002484645Y0000448818D03*
X0002484645Y0000389763D03*
X0002372047Y0000389370D03*
X0002372047Y0000448425D03*
X0002484795Y0000149196D03*
X0002484795Y0000208251D03*
X0002804724Y0000205905D03*
X0002804724Y0000146850D03*
D91*
X0002433015Y0000324314D03*
X0002433015Y0000516440D03*
D90*
X0002397346Y0000612685D03*
X0002338291Y0000612685D03*
D87*
X0002475590Y0000611023D03*
X0002475590Y0000648425D03*
X0002475590Y0000685826D03*
X0002562204Y0000685826D03*
X0002562204Y0000611023D03*
D92*
X0002218503Y0000534448D03*
X0002218503Y0000376968D03*
G04 next file*
G04 Gerber Fmt 4.6, Leading zero omitted, Abs format (unit mm)*
G04 Created by KiCad (PCBNEW 4.0.7) date 11/30/17 23:31:52*
G01G01*
G04 APERTURE LIST*
G04 APERTURE END LIST*
D93*
D94*
X0002047244Y0003622047D02*
X0002612795Y0003035826D03*
X0002612795Y0002976771D03*
X0002944881Y0002983858D03*
X0002944881Y0003042913D03*
X0002835433Y0003038582D03*
X0002835433Y0002979527D03*
D93*
G36*
X0003283464Y0003560236D02*
X0003283464Y0003473622D01*
X0003149606Y0003473622D01*
X0003149606Y0003560236D01*
X0003283464Y0003560236D01*
X0003283464Y0003560236D01*
G37*
G36*
X0003283464Y0003460236D02*
X0003283464Y0003373622D01*
X0003149606Y0003373622D01*
X0003149606Y0003460236D01*
X0003283464Y0003460236D01*
X0003283464Y0003460236D01*
G37*
G36*
X0003283464Y0003360236D02*
X0003283464Y0003273622D01*
X0003149606Y0003273622D01*
X0003149606Y0003360236D01*
X0003283464Y0003360236D01*
X0003283464Y0003360236D01*
G37*
G36*
X0003283464Y0003260236D02*
X0003283464Y0003173622D01*
X0003149606Y0003173622D01*
X0003149606Y0003260236D01*
X0003283464Y0003260236D01*
X0003283464Y0003260236D01*
G37*
G36*
X0003283464Y0003160236D02*
X0003283464Y0003073622D01*
X0003149606Y0003073622D01*
X0003149606Y0003160236D01*
X0003283464Y0003160236D01*
X0003283464Y0003160236D01*
G37*
G36*
X0003283464Y0003060236D02*
X0003283464Y0002973622D01*
X0003149606Y0002973622D01*
X0003149606Y0003060236D01*
X0003283464Y0003060236D01*
X0003283464Y0003060236D01*
G37*
G36*
X0003283464Y0002960236D02*
X0003283464Y0002873622D01*
X0003149606Y0002873622D01*
X0003149606Y0002960236D01*
X0003283464Y0002960236D01*
X0003283464Y0002960236D01*
G37*
G36*
X0003283464Y0002860236D02*
X0003283464Y0002773622D01*
X0003149606Y0002773622D01*
X0003149606Y0002860236D01*
X0003283464Y0002860236D01*
X0003283464Y0002860236D01*
G37*
D95*
X0003025015Y0003502850D03*
D96*
X0002925015Y0003502850D03*
X0002825015Y0003502850D03*
X0002725015Y0003502850D03*
X0002625015Y0003502850D03*
X0002525015Y0003502850D03*
D94*
X0002715354Y0003360236D03*
X0002715354Y0003419291D03*
X0002678015Y0003108661D03*
X0002678015Y0003167716D03*
D97*
X0002740944Y0002922440D03*
X0002740944Y0002863385D03*
X0002967015Y0003108661D03*
X0002967015Y0003167716D03*
X0002850393Y0003360236D03*
X0002850393Y0003419291D03*
X0002606015Y0003106322D03*
X0002606015Y0003165377D03*
D94*
X0002392519Y0002854330D03*
X0002392519Y0002913385D03*
X0003058303Y0002907631D03*
X0003058303Y0002848576D03*
X0002973370Y0002847362D03*
X0002973370Y0002906417D03*
D98*
X0002227165Y0002867322D03*
X0002227165Y0002904724D03*
X0002227165Y0002942125D03*
X0002313779Y0002942125D03*
X0002313779Y0002867322D03*
X0002313779Y0002904724D03*
D94*
X0002783070Y0003419291D03*
X0002783070Y0003360236D03*
X0002746015Y0003167716D03*
X0002746015Y0003108661D03*
X0002811015Y0003108661D03*
X0002811015Y0003167716D03*
X0002902755Y0003167716D03*
X0002902755Y0003108661D03*
X0002387251Y0003511283D03*
X0002387251Y0003452228D03*
X0002644881Y0003422047D03*
X0002644881Y0003362992D03*
X0002255251Y0003452228D03*
X0002255251Y0003511283D03*
X0002321251Y0003511283D03*
X0002321251Y0003452228D03*
X0002144496Y0003200787D03*
X0002144496Y0003141732D03*
D99*
X0002145669Y0002788385D03*
X0002086614Y0002788385D03*
X0002145669Y0002937007D03*
X0002086614Y0002937007D03*
X0002145669Y0002866141D03*
X0002086614Y0002866141D03*
D94*
X0002612795Y0002924787D03*
X0002612795Y0002865732D03*
X0002675795Y0002924787D03*
X0002675795Y0002865732D03*
X0002550795Y0002923787D03*
X0002550795Y0002864732D03*
D100*
X0002185039Y0003511811D03*
X0002185039Y0003437007D03*
X0002106299Y0003474409D03*
D97*
X0002538976Y0003105905D03*
X0002538976Y0003164960D03*
D101*
X0002397346Y0003392220D03*
X0002338291Y0003392220D03*
D97*
X0002484645Y0003165354D03*
X0002484645Y0003106299D03*
X0002372047Y0003105905D03*
X0002372047Y0003164960D03*
X0002484795Y0002865732D03*
X0002484795Y0002924787D03*
X0002804724Y0002922440D03*
X0002804724Y0002863385D03*
D102*
X0002433015Y0003040850D03*
X0002433015Y0003232976D03*
D101*
X0002397346Y0003329220D03*
X0002338291Y0003329220D03*
D98*
X0002475590Y0003327559D03*
X0002475590Y0003364960D03*
X0002475590Y0003402362D03*
X0002562204Y0003402362D03*
X0002562204Y0003327559D03*
D103*
X0002218503Y0003250984D03*
X0002218503Y0003093503D03*
G04 next file*
G04 Gerber Fmt 4.6, Leading zero omitted, Abs format (unit mm)*
G04 Created by KiCad (PCBNEW 4.0.7) date 11/19/17 12:57:03*
G01G01*
G04 APERTURE LIST*
G04 APERTURE END LIST*
D104*
D105*
X0003299212Y0003622047D02*
X0003375984Y0003027165D03*
X0003848425Y0003027165D03*
D106*
X0003512204Y0003117716D03*
X0003552165Y0003217716D03*
X0003592126Y0003117716D03*
X0003632086Y0003217716D03*
X0003672047Y0003117716D03*
X0003712007Y0003217716D03*
D107*
X0003864173Y0003503937D03*
D108*
X0003764173Y0003503937D03*
X0003664173Y0003503937D03*
X0003564173Y0003503937D03*
X0003464173Y0003503937D03*
X0003364173Y0003503937D03*
G04 next file*
G04 Gerber Fmt 4.6, Leading zero omitted, Abs format (unit mm)*
G04 Created by KiCad (PCBNEW 4.0.7) date 11/19/17 12:57:03*
G01G01*
G04 APERTURE LIST*
G04 APERTURE END LIST*
D109*
D110*
X0003299212Y0001811023D02*
X0003375984Y0001216141D03*
X0003848425Y0001216141D03*
D111*
X0003512204Y0001306692D03*
X0003552165Y0001406692D03*
X0003592126Y0001306692D03*
X0003632086Y0001406692D03*
X0003672047Y0001306692D03*
X0003712007Y0001406692D03*
D112*
X0003864173Y0001692913D03*
D113*
X0003764173Y0001692913D03*
X0003664173Y0001692913D03*
X0003564173Y0001692913D03*
X0003464173Y0001692913D03*
X0003364173Y0001692913D03*
G04 next file*
G04 Gerber Fmt 4.6, Leading zero omitted, Abs format (unit mm)*
G04 Created by KiCad (PCBNEW 4.0.7) date 11/19/17 12:57:03*
G01G01*
G04 APERTURE LIST*
G04 APERTURE END LIST*
D114*
D115*
X0003299212Y0000905511D02*
X0003375984Y0000310629D03*
X0003848425Y0000310629D03*
D116*
X0003512204Y0000401181D03*
X0003552165Y0000501181D03*
X0003592126Y0000401181D03*
X0003632086Y0000501181D03*
X0003672047Y0000401181D03*
X0003712007Y0000501181D03*
D117*
X0003864173Y0000787401D03*
D118*
X0003764173Y0000787401D03*
X0003664173Y0000787401D03*
X0003564173Y0000787401D03*
X0003464173Y0000787401D03*
X0003364173Y0000787401D03*
G04 next file*
G04 Gerber Fmt 4.6, Leading zero omitted, Abs format (unit mm)*
G04 Created by KiCad (PCBNEW 4.0.7) date 11/19/17 12:57:03*
G01G01*
G04 APERTURE LIST*
G04 APERTURE END LIST*
D119*
D120*
X0003299212Y0002716535D02*
X0003375984Y0002121653D03*
X0003848425Y0002121653D03*
D121*
X0003512204Y0002212204D03*
X0003552165Y0002312204D03*
X0003592126Y0002212204D03*
X0003632086Y0002312204D03*
X0003672047Y0002212204D03*
X0003712007Y0002312204D03*
D122*
X0003864173Y0002598425D03*
D123*
X0003764173Y0002598425D03*
X0003664173Y0002598425D03*
X0003564173Y0002598425D03*
X0003464173Y0002598425D03*
X0003364173Y0002598425D03*
M02*