%MOIN*%
%OFA0B0*%
%FSLAX46Y46*%
%IPPOS*%
%LPD*%
%ADD10C,0.0039370078740157488*%
%ADD11C,0.0019685039370078744*%
%ADD22C,0.0039370078740157488*%
%ADD23C,0.0039370078740157488*%
%ADD24C,0.0039370078740157488*%
%ADD25C,0.011811023622047244*%
%ADD26C,0.0039370078740157488*%
%ADD27C,0.0039370078740157488*%
%ADD28C,0.0019685039370078744*%
%ADD29C,0.0039370078740157488*%
%ADD30C,0.0039370078740157488*%
%ADD31C,0.0019685039370078744*%
%ADD32C,0.0039370078740157488*%
%ADD33C,0.0039370078740157488*%
%ADD34C,0.0039370078740157488*%
%ADD35C,0.011811023622047244*%
%ADD36C,0.0039370078740157488*%
%ADD37C,0.0039370078740157488*%
%ADD38C,0.0019685039370078744*%
%ADD39C,0.0039370078740157488*%
%ADD40C,0.0039370078740157488*%
%ADD41C,0.0019685039370078744*%
%ADD42C,0.0039370078740157488*%
%ADD43C,0.0039370078740157488*%
%ADD44C,0.0039370078740157488*%
%ADD45C,0.011811023622047244*%
%ADD46C,0.0039370078740157488*%
%ADD47C,0.0039370078740157488*%
%ADD48C,0.0019685039370078744*%
%ADD49C,0.0039370078740157488*%
%ADD50C,0.0039370078740157488*%
%ADD51C,0.0019685039370078744*%
%ADD52C,0.0039370078740157488*%
%ADD53C,0.0039370078740157488*%
%ADD54C,0.0039370078740157488*%
%ADD55C,0.011811023622047244*%
%ADD56C,0.0039370078740157488*%
%ADD57C,0.0039370078740157488*%
%ADD58C,0.0019685039370078744*%
%ADD59C,0.0039370078740157488*%
%ADD60C,0.0039370078740157488*%
%ADD61C,0.0019685039370078744*%
%ADD62C,0.0039370078740157488*%
%ADD63C,0.0039370078740157488*%
%ADD64C,0.0039370078740157488*%
%ADD65C,0.011811023622047244*%
%ADD66C,0.0039370078740157488*%
%ADD67C,0.0039370078740157488*%
%ADD68C,0.0019685039370078744*%
%ADD69C,0.0039370078740157488*%
%ADD70C,0.0039370078740157488*%
%ADD71C,0.0019685039370078744*%
%ADD72C,0.0039370078740157488*%
%ADD73C,0.0039370078740157488*%
%ADD74C,0.0039370078740157488*%
%ADD75C,0.011811023622047244*%
%ADD76C,0.0039370078740157488*%
%ADD77C,0.0039370078740157488*%
%ADD78C,0.0019685039370078744*%
%ADD79C,0.0039370078740157488*%
%ADD80C,0.0039370078740157488*%
%ADD81C,0.0019685039370078744*%
%ADD82C,0.0039370078740157488*%
%ADD83C,0.0039370078740157488*%
%ADD84C,0.0039370078740157488*%
%ADD85C,0.011811023622047244*%
%ADD86C,0.0039370078740157488*%
%ADD87C,0.0039370078740157488*%
%ADD88C,0.0019685039370078744*%
%ADD89C,0.0039370078740157488*%
%ADD90C,0.0039370078740157488*%
%ADD91C,0.0019685039370078744*%
%ADD92C,0.0039370078740157488*%
%ADD93C,0.0039370078740157488*%
%ADD94C,0.0039370078740157488*%
%ADD95C,0.011811023622047244*%
%ADD96C,0.0039370078740157488*%
%ADD97C,0.0039370078740157488*%
%ADD98C,0.0019685039370078744*%
%ADD99C,0.0039370078740157488*%
%ADD100C,0.0039370078740157488*%
%ADD101C,0.0019685039370078744*%
%ADD102C,0.0039370078740157488*%
%ADD103C,0.0039370078740157488*%
%ADD104C,0.0039370078740157488*%
%ADD105C,0.011811023622047244*%
%ADD106C,0.0039370078740157488*%
%ADD107C,0.0039370078740157488*%
%ADD108C,0.0039370078740157488*%
%ADD109C,0.0039370078740157488*%
%ADD110C,0.0019685039370078744*%
%ADD111C,0.0039370078740157488*%
%ADD112C,0.0039370078740157488*%
%ADD113C,0.0039370078740157488*%
%ADD114C,0.011811023622047244*%
%ADD115C,0.0039370078740157488*%
%ADD116C,0.0039370078740157488*%
%ADD117C,0.0039370078740157488*%
%ADD118C,0.0039370078740157488*%
%ADD119C,0.0019685039370078744*%
%ADD120C,0.0039370078740157488*%
%ADD121C,0.0039370078740157488*%
%ADD122C,0.0039370078740157488*%
%ADD123C,0.011811023622047244*%
%ADD124C,0.0039370078740157488*%
%ADD125C,0.0039370078740157488*%
%ADD126C,0.0039370078740157488*%
%ADD127C,0.0039370078740157488*%
%ADD128C,0.0019685039370078744*%
%ADD129C,0.0039370078740157488*%
%ADD130C,0.0039370078740157488*%
%ADD131C,0.0039370078740157488*%
%ADD132C,0.011811023622047244*%
%ADD133C,0.0039370078740157488*%
%ADD134C,0.0039370078740157488*%
%ADD135C,0.0039370078740157488*%
G01G01*
D10*
D11*
X0000068582Y0000233779D02*
X0000167007Y0000233779D01*
X0000068582Y0000233779D02*
X0000068582Y0000288897D01*
X0000167007Y0000288897D02*
X0000167007Y0000233779D01*
X0000167007Y0000288897D02*
X0000068582Y0000288897D01*
X0001210708Y0000397165D02*
X0001320944Y0000397165D01*
X0001210708Y0000397165D02*
X0001210708Y0000448346D01*
X0001320944Y0000448346D02*
X0001320944Y0000397165D01*
X0001320944Y0000448346D02*
X0001210708Y0000448346D01*
X0001334330Y0000388110D02*
X0001334330Y0000277874D01*
X0001334330Y0000388110D02*
X0001385511Y0000388110D01*
X0001385511Y0000277874D02*
X0001334330Y0000277874D01*
X0001385511Y0000277874D02*
X0001385511Y0000388110D01*
X0001801259Y0000275905D02*
X0001801259Y0000386141D01*
X0001801259Y0000275905D02*
X0001750078Y0000275905D01*
X0001750078Y0000386141D02*
X0001801259Y0000386141D01*
X0001750078Y0000386141D02*
X0001750078Y0000275905D01*
X0000280787Y0000676299D02*
X0000170551Y0000676299D01*
X0000280787Y0000676299D02*
X0000280787Y0000625118D01*
X0000170551Y0000625118D02*
X0000170551Y0000676299D01*
X0000170551Y0000625118D02*
X0000280787Y0000625118D01*
X0000602834Y0000622755D02*
X0000713070Y0000622755D01*
X0000602834Y0000622755D02*
X0000602834Y0000673937D01*
X0000713070Y0000673937D02*
X0000713070Y0000622755D01*
X0000713070Y0000673937D02*
X0000602834Y0000673937D01*
X0000638267Y0000383779D02*
X0000638267Y0000285354D01*
X0000638267Y0000383779D02*
X0000693385Y0000383779D01*
X0000693385Y0000285354D02*
X0000638267Y0000285354D01*
X0000693385Y0000285354D02*
X0000693385Y0000383779D01*
X0000757559Y0000279842D02*
X0000757559Y0000390078D01*
X0000757559Y0000279842D02*
X0000706377Y0000279842D01*
X0000706377Y0000390078D02*
X0000757559Y0000390078D01*
X0000706377Y0000390078D02*
X0000706377Y0000279842D01*
X0000770944Y0000389685D02*
X0000770944Y0000279448D01*
X0000770944Y0000389685D02*
X0000822125Y0000389685D01*
X0000822125Y0000279448D02*
X0000770944Y0000279448D01*
X0000822125Y0000279448D02*
X0000822125Y0000389685D01*
X0000834724Y0000266456D02*
X0000984330Y0000266456D01*
X0000984330Y0000266456D02*
X0000984330Y0000408188D01*
X0000984330Y0000408188D02*
X0000834724Y0000408188D01*
X0000834724Y0000408188D02*
X0000834724Y0000266456D01*
X0001009133Y0000390866D02*
X0001009133Y0000280629D01*
X0001009133Y0000390866D02*
X0001060314Y0000390866D01*
X0001060314Y0000280629D02*
X0001009133Y0000280629D01*
X0001060314Y0000280629D02*
X0001060314Y0000390866D01*
X0001077637Y0000390472D02*
X0001077637Y0000280236D01*
X0001077637Y0000390472D02*
X0001128818Y0000390472D01*
X0001128818Y0000280236D02*
X0001077637Y0000280236D01*
X0001128818Y0000280236D02*
X0001128818Y0000390472D01*
X0001154015Y0000383779D02*
X0001154015Y0000285354D01*
X0001154015Y0000383779D02*
X0001209133Y0000383779D01*
X0001209133Y0000285354D02*
X0001154015Y0000285354D01*
X0001209133Y0000285354D02*
X0001209133Y0000383779D01*
X0001554803Y0000381417D02*
X0001554803Y0000282992D01*
X0001554803Y0000381417D02*
X0001609921Y0000381417D01*
X0001609921Y0000282992D02*
X0001554803Y0000282992D01*
X0001609921Y0000282992D02*
X0001609921Y0000381417D01*
X0001736299Y0000276692D02*
X0001736299Y0000386929D01*
X0001736299Y0000276692D02*
X0001685118Y0000276692D01*
X0001685118Y0000386929D02*
X0001736299Y0000386929D01*
X0001685118Y0000386929D02*
X0001685118Y0000276692D01*
X0001596062Y0000582677D02*
X0001596062Y0000484251D01*
X0001596062Y0000582677D02*
X0001651181Y0000582677D01*
X0001651181Y0000484251D02*
X0001596062Y0000484251D01*
X0001651181Y0000484251D02*
X0001651181Y0000582677D01*
X0001502047Y0000483385D02*
X0001502047Y0000593622D01*
X0001502047Y0000483385D02*
X0001450866Y0000483385D01*
X0001450866Y0000593622D02*
X0001502047Y0000593622D01*
X0001450866Y0000593622D02*
X0001450866Y0000483385D01*
X0001376062Y0000594409D02*
X0001376062Y0000484173D01*
X0001376062Y0000594409D02*
X0001427244Y0000594409D01*
X0001427244Y0000484173D02*
X0001376062Y0000484173D01*
X0001427244Y0000484173D02*
X0001427244Y0000594409D01*
X0001307952Y0000594409D02*
X0001307952Y0000484173D01*
X0001307952Y0000594409D02*
X0001359133Y0000594409D01*
X0001359133Y0000484173D02*
X0001307952Y0000484173D01*
X0001359133Y0000484173D02*
X0001359133Y0000594409D01*
X0001211889Y0000488503D02*
X0001211889Y0000586929D01*
X0001211889Y0000488503D02*
X0001156771Y0000488503D01*
X0001156771Y0000586929D02*
X0001211889Y0000586929D01*
X0001156771Y0000586929D02*
X0001156771Y0000488503D01*
X0001118976Y0000484173D02*
X0001118976Y0000594409D01*
X0001118976Y0000484173D02*
X0001067795Y0000484173D01*
X0001067795Y0000594409D02*
X0001118976Y0000594409D01*
X0001067795Y0000594409D02*
X0001067795Y0000484173D01*
X0000836299Y0000484566D02*
X0000836299Y0000594803D01*
X0000836299Y0000484566D02*
X0000785118Y0000484566D01*
X0000785118Y0000594803D02*
X0000836299Y0000594803D01*
X0000785118Y0000594803D02*
X0000785118Y0000484566D01*
X0001044960Y0000484566D02*
X0001044960Y0000594803D01*
X0001044960Y0000484566D02*
X0000993779Y0000484566D01*
X0000993779Y0000594803D02*
X0001044960Y0000594803D01*
X0000993779Y0000594803D02*
X0000993779Y0000484566D01*
X0000904409Y0000483779D02*
X0000904409Y0000594015D01*
X0000904409Y0000483779D02*
X0000853228Y0000483779D01*
X0000853228Y0000594015D02*
X0000904409Y0000594015D01*
X0000853228Y0000594015D02*
X0000853228Y0000483779D01*
X0000978425Y0000484960D02*
X0000978425Y0000595196D01*
X0000978425Y0000484960D02*
X0000927244Y0000484960D01*
X0000927244Y0000595196D02*
X0000978425Y0000595196D01*
X0000927244Y0000595196D02*
X0000927244Y0000484960D01*
X0000711496Y0000589685D02*
X0000711496Y0000491259D01*
X0000711496Y0000589685D02*
X0000766614Y0000589685D01*
X0000766614Y0000491259D02*
X0000711496Y0000491259D01*
X0000766614Y0000491259D02*
X0000766614Y0000589685D01*
X0000536220Y0000676771D02*
X0000437795Y0000676771D01*
X0000536220Y0000676771D02*
X0000536220Y0000621653D01*
X0000437795Y0000621653D02*
X0000437795Y0000676771D01*
X0000437795Y0000621653D02*
X0000536220Y0000621653D01*
X0000428425Y0000605826D02*
X0000578031Y0000605826D01*
X0000428425Y0000464094D02*
X0000428425Y0000605826D01*
X0000578031Y0000464094D02*
X0000428425Y0000464094D01*
X0000578031Y0000605826D02*
X0000578031Y0000464094D01*
X0000391811Y0000533385D02*
X0000293385Y0000533385D01*
X0000391811Y0000533385D02*
X0000391811Y0000478267D01*
X0000293385Y0000478267D02*
X0000293385Y0000533385D01*
X0000293385Y0000478267D02*
X0000391811Y0000478267D01*
X0000391811Y0000608582D02*
X0000293385Y0000608582D01*
X0000391811Y0000608582D02*
X0000391811Y0000553464D01*
X0000293385Y0000553464D02*
X0000293385Y0000608582D01*
X0000293385Y0000553464D02*
X0000391811Y0000553464D01*
X0000057559Y0000504251D02*
X0000057559Y0000405826D01*
X0000057559Y0000504251D02*
X0000112677Y0000504251D01*
X0000112677Y0000405826D02*
X0000057559Y0000405826D01*
X0000112677Y0000405826D02*
X0000112677Y0000504251D01*
X0002045354Y0000079448D02*
X0000004015Y0000079448D01*
X0000004015Y0000079448D02*
X0000004015Y0000221181D01*
X0000004015Y0000221181D02*
X0002045354Y0000221181D01*
X0002045354Y0000221181D02*
X0002045354Y0000079448D01*
X0002045354Y0000689685D02*
X0000004015Y0000689685D01*
X0000004015Y0000689685D02*
X0000004015Y0000831417D01*
X0000004015Y0000831417D02*
X0002045354Y0000831417D01*
X0002045354Y0000831417D02*
X0002045354Y0000689685D01*
X0001575275Y0000483385D02*
X0001575275Y0000593622D01*
X0001575275Y0000483385D02*
X0001524094Y0000483385D01*
X0001524094Y0000593622D02*
X0001575275Y0000593622D01*
X0001524094Y0000593622D02*
X0001524094Y0000483385D01*
G04 next file*
G04 Gerber Fmt 4.6, Leading zero omitted, Abs format (unit mm)*
G04 Created by KiCad (PCBNEW 4.0.7) date 11/30/17 23:24:33*
G01G01*
G04 APERTURE LIST*
G04 APERTURE END LIST*
D22*
G04 next file*
G04 Gerber Fmt 4.6, Leading zero omitted, Abs format (unit mm)*
G04 Created by KiCad (PCBNEW 4.0.7) date 11/30/17 23:24:33*
G01G01*
G04 APERTURE LIST*
G04 APERTURE END LIST*
D23*
G04 next file*
G04 Gerber Fmt 4.6, Leading zero omitted, Abs format (unit mm)*
G04 Created by KiCad (PCBNEW 4.0.7) date 11/30/17 23:24:33*
G01G01*
G04 APERTURE LIST*
G04 APERTURE END LIST*
D24*
D25*
X-0000097300Y0000697609D02*
X-0000094488Y0000694797D01*
X-0000091676Y0000689173D01*
X-0000091676Y0000675112D01*
X-0000094488Y0000669488D01*
X-0000097300Y0000666675D01*
X-0000102924Y0000663863D01*
X-0000108548Y0000663863D01*
X-0000116985Y0000666675D01*
X-0000150731Y0000700421D01*
X-0000150731Y0000663863D01*
X-0000097300Y0000641366D02*
X-0000094488Y0000638554D01*
X-0000091676Y0000632930D01*
X-0000091676Y0000618869D01*
X-0000094488Y0000613245D01*
X-0000097300Y0000610433D01*
X-0000102924Y0000607620D01*
X-0000108548Y0000607620D01*
X-0000116985Y0000610433D01*
X-0000150731Y0000644178D01*
X-0000150731Y0000607620D01*
X-0000145106Y0000582311D02*
X-0000147919Y0000579499D01*
X-0000150731Y0000582311D01*
X-0000147919Y0000585123D01*
X-0000145106Y0000582311D01*
X-0000150731Y0000582311D01*
X-0000150731Y0000551377D02*
X-0000150731Y0000540129D01*
X-0000147919Y0000534505D01*
X-0000145106Y0000531692D01*
X-0000136670Y0000526068D01*
X-0000125421Y0000523256D01*
X-0000102924Y0000523256D01*
X-0000097300Y0000526068D01*
X-0000094488Y0000528880D01*
X-0000091676Y0000534505D01*
X-0000091676Y0000545753D01*
X-0000094488Y0000551377D01*
X-0000097300Y0000554190D01*
X-0000102924Y0000557002D01*
X-0000116985Y0000557002D01*
X-0000122609Y0000554190D01*
X-0000125421Y0000551377D01*
X-0000128233Y0000545753D01*
X-0000128233Y0000534505D01*
X-0000125421Y0000528880D01*
X-0000122609Y0000526068D01*
X-0000116985Y0000523256D01*
X-0000150731Y0000495135D02*
X-0000150731Y0000483886D01*
X-0000147919Y0000478262D01*
X-0000145106Y0000475449D01*
X-0000136670Y0000469825D01*
X-0000125421Y0000467013D01*
X-0000102924Y0000467013D01*
X-0000097300Y0000469825D01*
X-0000094488Y0000472637D01*
X-0000091676Y0000478262D01*
X-0000091676Y0000489510D01*
X-0000094488Y0000495135D01*
X-0000097300Y0000497947D01*
X-0000102924Y0000500759D01*
X-0000116985Y0000500759D01*
X-0000122609Y0000497947D01*
X-0000125421Y0000495135D01*
X-0000128233Y0000489510D01*
X-0000128233Y0000478262D01*
X-0000125421Y0000472637D01*
X-0000122609Y0000469825D01*
X-0000116985Y0000467013D01*
X-0000091676Y0000430455D02*
X-0000091676Y0000424831D01*
X-0000094488Y0000419207D01*
X-0000097300Y0000416394D01*
X-0000102924Y0000413582D01*
X-0000114173Y0000410770D01*
X-0000128233Y0000410770D01*
X-0000139482Y0000413582D01*
X-0000145106Y0000416394D01*
X-0000147919Y0000419207D01*
X-0000150731Y0000424831D01*
X-0000150731Y0000430455D01*
X-0000147919Y0000436079D01*
X-0000145106Y0000438892D01*
X-0000139482Y0000441704D01*
X-0000128233Y0000444516D01*
X-0000114173Y0000444516D01*
X-0000102924Y0000441704D01*
X-0000097300Y0000438892D01*
X-0000094488Y0000436079D01*
X-0000091676Y0000430455D01*
X-0000150731Y0000340466D02*
X-0000111361Y0000340466D01*
X-0000116985Y0000340466D02*
X-0000114173Y0000337654D01*
X-0000111361Y0000332030D01*
X-0000111361Y0000323593D01*
X-0000114173Y0000317969D01*
X-0000119797Y0000315157D01*
X-0000150731Y0000315157D01*
X-0000119797Y0000315157D02*
X-0000114173Y0000312345D01*
X-0000111361Y0000306721D01*
X-0000111361Y0000298284D01*
X-0000114173Y0000292660D01*
X-0000119797Y0000289848D01*
X-0000150731Y0000289848D01*
X-0000150731Y0000261726D02*
X-0000111361Y0000261726D01*
X-0000116985Y0000261726D02*
X-0000114173Y0000258914D01*
X-0000111361Y0000253290D01*
X-0000111361Y0000244853D01*
X-0000114173Y0000239229D01*
X-0000119797Y0000236417D01*
X-0000150731Y0000236417D01*
X-0000119797Y0000236417D02*
X-0000114173Y0000233605D01*
X-0000111361Y0000227980D01*
X-0000111361Y0000219544D01*
X-0000114173Y0000213920D01*
X-0000119797Y0000211108D01*
X-0000150731Y0000211108D01*
X-0000070866Y0000905511D02*
X-0000070866Y0000000393D01*
X0000000393Y0000905511D02*
X-0000177165Y0000905511D01*
X0000000393Y0000000393D02*
X-0000177165Y0000000393D01*
X-0000070866Y0000000393D02*
X-0000093953Y0000044744D01*
X-0000070866Y0000000393D02*
X-0000047778Y0000044744D01*
X-0000070866Y0000905511D02*
X-0000093953Y0000861161D01*
X-0000070866Y0000905511D02*
X-0000047778Y0000861161D01*
X0000809962Y0001058118D02*
X0000781840Y0001058122D01*
X0000779024Y0001030001D01*
X0000781836Y0001032813D01*
X0000787461Y0001035624D01*
X0000801522Y0001035622D01*
X0000807145Y0001032809D01*
X0000809957Y0001029997D01*
X0000812768Y0001024372D01*
X0000812766Y0001010311D01*
X0000809953Y0001004687D01*
X0000807141Y0001001876D01*
X0000801516Y0000999064D01*
X0000787455Y0000999066D01*
X0000781831Y0001001879D01*
X0000779020Y0001004692D01*
X0000869008Y0000999054D02*
X0000835262Y0000999059D01*
X0000852135Y0000999057D02*
X0000852144Y0001058112D01*
X0000846518Y0001049676D01*
X0000840893Y0001044053D01*
X0000835268Y0001041241D01*
X0000894318Y0001004674D02*
X0000897129Y0001001862D01*
X0000894317Y0000999050D01*
X0000891505Y0001001863D01*
X0000894318Y0001004674D01*
X0000894317Y0000999050D01*
X0000925250Y0000999045D02*
X0000936499Y0000999044D01*
X0000942124Y0001001855D01*
X0000944936Y0001004667D01*
X0000950562Y0001013102D01*
X0000953376Y0001024350D01*
X0000953379Y0001046847D01*
X0000950568Y0001052472D01*
X0000947756Y0001055285D01*
X0000942132Y0001058098D01*
X0000930884Y0001058100D01*
X0000925259Y0001055288D01*
X0000922447Y0001052477D01*
X0000919634Y0001046853D01*
X0000919631Y0001032792D01*
X0000922443Y0001027167D01*
X0000925254Y0001024355D01*
X0000930878Y0001021542D01*
X0000942127Y0001021540D01*
X0000947752Y0001024351D01*
X0000950564Y0001027163D01*
X0000953377Y0001032787D01*
X0000981493Y0000999037D02*
X0000992742Y0000999035D01*
X0000998367Y0001001846D01*
X0001001179Y0001004658D01*
X0001006805Y0001013093D01*
X0001009619Y0001024342D01*
X0001009622Y0001046839D01*
X0001006811Y0001052464D01*
X0001003999Y0001055276D01*
X0000998375Y0001058089D01*
X0000987127Y0001058091D01*
X0000981502Y0001055280D01*
X0000978690Y0001052468D01*
X0000975876Y0001046844D01*
X0000975874Y0001032783D01*
X0000978686Y0001027159D01*
X0000981497Y0001024346D01*
X0000987121Y0001021533D01*
X0000998370Y0001021531D01*
X0001003995Y0001024342D01*
X0001006807Y0001027154D01*
X0001009620Y0001032778D01*
X0001043366Y0001032773D02*
X0001037742Y0001035586D01*
X0001034930Y0001038398D01*
X0001032119Y0001044023D01*
X0001032119Y0001046835D01*
X0001034932Y0001052459D01*
X0001037745Y0001055271D01*
X0001043370Y0001058082D01*
X0001054618Y0001058080D01*
X0001060242Y0001055267D01*
X0001063054Y0001052455D01*
X0001065865Y0001046830D01*
X0001065865Y0001044018D01*
X0001063052Y0001038394D01*
X0001060239Y0001035582D01*
X0001054614Y0001032771D01*
X0001043366Y0001032773D01*
X0001037741Y0001029962D01*
X0001034929Y0001027150D01*
X0001032116Y0001021526D01*
X0001032114Y0001010277D01*
X0001034925Y0001004653D01*
X0001037737Y0001001840D01*
X0001043361Y0000999027D01*
X0001054609Y0000999025D01*
X0001060234Y0001001837D01*
X0001063047Y0001004648D01*
X0001065860Y0001010272D01*
X0001065861Y0001021521D01*
X0001063050Y0001027146D01*
X0001060238Y0001029958D01*
X0001054614Y0001032771D01*
X0001136162Y0000999013D02*
X0001136168Y0001038383D01*
X0001136167Y0001032759D02*
X0001138979Y0001035570D01*
X0001144604Y0001038382D01*
X0001153040Y0001038380D01*
X0001158664Y0001035567D01*
X0001161476Y0001029943D01*
X0001161471Y0000999009D01*
X0001161476Y0001029943D02*
X0001164289Y0001035566D01*
X0001169913Y0001038378D01*
X0001178350Y0001038376D01*
X0001183974Y0001035563D01*
X0001186785Y0001029939D01*
X0001186780Y0000999005D01*
X0001214902Y0000999001D02*
X0001214908Y0001038371D01*
X0001214907Y0001032746D02*
X0001217719Y0001035558D01*
X0001223344Y0001038370D01*
X0001231781Y0001038368D01*
X0001237405Y0001035555D01*
X0001240216Y0001029930D01*
X0001240211Y0000998997D01*
X0001240216Y0001029930D02*
X0001243029Y0001035554D01*
X0001248654Y0001038366D01*
X0001257090Y0001038364D01*
X0001262714Y0001035551D01*
X0001265525Y0001029927D01*
X0001265520Y0000998993D01*
X0000000089Y0000972753D02*
X0002047254Y0000972438D01*
X0000000078Y0000903070D02*
X0000000105Y0001079053D01*
X0002047244Y0000902755D02*
X0002047271Y0001078738D01*
X0002047254Y0000972438D02*
X0002002900Y0000949358D01*
X0002047254Y0000972438D02*
X0002002907Y0000995533D01*
X0000000089Y0000972753D02*
X0000044436Y0000949659D01*
X0000000089Y0000972753D02*
X0000044443Y0000995834D01*
G04 next file*
G04 Gerber Fmt 4.6, Leading zero omitted, Abs format (unit mm)*
G04 Created by KiCad (PCBNEW 4.0.7) date 11/30/17 23:24:33*
G01G01*
G04 APERTURE LIST*
G04 APERTURE END LIST*
D26*
G04 next file*
G04 Gerber Fmt 4.6, Leading zero omitted, Abs format (unit mm)*
G04 Created by KiCad (PCBNEW 4.0.7) date 11/30/17 23:24:33*
G01G01*
G04 APERTURE LIST*
G04 APERTURE END LIST*
D27*
D28*
X0001622913Y0000600708D02*
X0001402440Y0000600708D01*
X0001402440Y0000600708D02*
X0001402440Y0000262125D01*
X0001402440Y0000262125D02*
X0001622913Y0000262125D01*
X0001622913Y0000262125D02*
X0001622913Y0000600708D01*
X0001158346Y0000203858D02*
X0001378818Y0000203858D01*
X0001378818Y0000203858D02*
X0001378818Y0000680236D01*
X0001378818Y0000680236D02*
X0001158346Y0000680236D01*
X0001158346Y0000680236D02*
X0001158346Y0000203858D01*
X0001809921Y0000721181D02*
X0001809921Y0000179842D01*
X0001809921Y0000179842D02*
X0002296141Y0000179842D01*
X0002296141Y0000179842D02*
X0002296141Y0000721181D01*
X0002296141Y0000721181D02*
X0001809921Y0000721181D01*
X0000289842Y0000701496D02*
X0000624488Y0000701496D01*
X0000624488Y0000701496D02*
X0000624488Y0000465275D01*
X0000624488Y0000465275D02*
X0000289842Y0000465275D01*
X0000289842Y0000465275D02*
X0000289842Y0000701496D01*
X0000626377Y0000461417D02*
X0000285826Y0000461417D01*
X0000285826Y0000461417D02*
X0000285826Y0000219291D01*
X0000285826Y0000219291D02*
X0000626377Y0000219291D01*
X0000626377Y0000219291D02*
X0000626377Y0000461417D01*
X0001672519Y0000638503D02*
X0001739448Y0000638503D01*
X0001739448Y0000638503D02*
X0001739448Y0000484960D01*
X0001739448Y0000484960D02*
X0001672519Y0000484960D01*
X0001672519Y0000484960D02*
X0001672519Y0000638503D01*
X0001672519Y0000424724D02*
X0001739448Y0000424724D01*
X0001739448Y0000424724D02*
X0001739448Y0000271181D01*
X0001739448Y0000271181D02*
X0001672519Y0000271181D01*
X0001672519Y0000271181D02*
X0001672519Y0000424724D01*
G04 next file*
G04 Gerber Fmt 4.6, Leading zero omitted, Abs format (unit mm)*
G04 Created by KiCad (PCBNEW 4.0.7) date 11/30/17 23:24:33*
G01G01*
G04 APERTURE LIST*
G04 APERTURE END LIST*
D29*
G04 next file*
G04 Gerber Fmt 4.6, Leading zero omitted, Abs format (unit mm)*
G04 Created by KiCad (PCBNEW 4.0.7) date 11/30/17 23:24:33*
G01G01*
G04 APERTURE LIST*
G04 APERTURE END LIST*
D30*
D31*
X0000068582Y0001139291D02*
X0000167007Y0001139291D01*
X0000068582Y0001139291D02*
X0000068582Y0001194409D01*
X0000167007Y0001194409D02*
X0000167007Y0001139291D01*
X0000167007Y0001194409D02*
X0000068582Y0001194409D01*
X0001210708Y0001302677D02*
X0001320944Y0001302677D01*
X0001210708Y0001302677D02*
X0001210708Y0001353858D01*
X0001320944Y0001353858D02*
X0001320944Y0001302677D01*
X0001320944Y0001353858D02*
X0001210708Y0001353858D01*
X0001334330Y0001293622D02*
X0001334330Y0001183385D01*
X0001334330Y0001293622D02*
X0001385511Y0001293622D01*
X0001385511Y0001183385D02*
X0001334330Y0001183385D01*
X0001385511Y0001183385D02*
X0001385511Y0001293622D01*
X0001801259Y0001181417D02*
X0001801259Y0001291653D01*
X0001801259Y0001181417D02*
X0001750078Y0001181417D01*
X0001750078Y0001291653D02*
X0001801259Y0001291653D01*
X0001750078Y0001291653D02*
X0001750078Y0001181417D01*
X0000280787Y0001581811D02*
X0000170551Y0001581811D01*
X0000280787Y0001581811D02*
X0000280787Y0001530629D01*
X0000170551Y0001530629D02*
X0000170551Y0001581811D01*
X0000170551Y0001530629D02*
X0000280787Y0001530629D01*
X0000602834Y0001528267D02*
X0000713070Y0001528267D01*
X0000602834Y0001528267D02*
X0000602834Y0001579448D01*
X0000713070Y0001579448D02*
X0000713070Y0001528267D01*
X0000713070Y0001579448D02*
X0000602834Y0001579448D01*
X0000638267Y0001289291D02*
X0000638267Y0001190866D01*
X0000638267Y0001289291D02*
X0000693385Y0001289291D01*
X0000693385Y0001190866D02*
X0000638267Y0001190866D01*
X0000693385Y0001190866D02*
X0000693385Y0001289291D01*
X0000757559Y0001185354D02*
X0000757559Y0001295590D01*
X0000757559Y0001185354D02*
X0000706377Y0001185354D01*
X0000706377Y0001295590D02*
X0000757559Y0001295590D01*
X0000706377Y0001295590D02*
X0000706377Y0001185354D01*
X0000770944Y0001295196D02*
X0000770944Y0001184960D01*
X0000770944Y0001295196D02*
X0000822125Y0001295196D01*
X0000822125Y0001184960D02*
X0000770944Y0001184960D01*
X0000822125Y0001184960D02*
X0000822125Y0001295196D01*
X0000834724Y0001171968D02*
X0000984330Y0001171968D01*
X0000984330Y0001171968D02*
X0000984330Y0001313700D01*
X0000984330Y0001313700D02*
X0000834724Y0001313700D01*
X0000834724Y0001313700D02*
X0000834724Y0001171968D01*
X0001009133Y0001296377D02*
X0001009133Y0001186141D01*
X0001009133Y0001296377D02*
X0001060314Y0001296377D01*
X0001060314Y0001186141D02*
X0001009133Y0001186141D01*
X0001060314Y0001186141D02*
X0001060314Y0001296377D01*
X0001077637Y0001295984D02*
X0001077637Y0001185748D01*
X0001077637Y0001295984D02*
X0001128818Y0001295984D01*
X0001128818Y0001185748D02*
X0001077637Y0001185748D01*
X0001128818Y0001185748D02*
X0001128818Y0001295984D01*
X0001154015Y0001289291D02*
X0001154015Y0001190866D01*
X0001154015Y0001289291D02*
X0001209133Y0001289291D01*
X0001209133Y0001190866D02*
X0001154015Y0001190866D01*
X0001209133Y0001190866D02*
X0001209133Y0001289291D01*
X0001554803Y0001286929D02*
X0001554803Y0001188503D01*
X0001554803Y0001286929D02*
X0001609921Y0001286929D01*
X0001609921Y0001188503D02*
X0001554803Y0001188503D01*
X0001609921Y0001188503D02*
X0001609921Y0001286929D01*
X0001736299Y0001182204D02*
X0001736299Y0001292440D01*
X0001736299Y0001182204D02*
X0001685118Y0001182204D01*
X0001685118Y0001292440D02*
X0001736299Y0001292440D01*
X0001685118Y0001292440D02*
X0001685118Y0001182204D01*
X0001596062Y0001488188D02*
X0001596062Y0001389763D01*
X0001596062Y0001488188D02*
X0001651181Y0001488188D01*
X0001651181Y0001389763D02*
X0001596062Y0001389763D01*
X0001651181Y0001389763D02*
X0001651181Y0001488188D01*
X0001502047Y0001388897D02*
X0001502047Y0001499133D01*
X0001502047Y0001388897D02*
X0001450866Y0001388897D01*
X0001450866Y0001499133D02*
X0001502047Y0001499133D01*
X0001450866Y0001499133D02*
X0001450866Y0001388897D01*
X0001376062Y0001499921D02*
X0001376062Y0001389685D01*
X0001376062Y0001499921D02*
X0001427244Y0001499921D01*
X0001427244Y0001389685D02*
X0001376062Y0001389685D01*
X0001427244Y0001389685D02*
X0001427244Y0001499921D01*
X0001307952Y0001499921D02*
X0001307952Y0001389685D01*
X0001307952Y0001499921D02*
X0001359133Y0001499921D01*
X0001359133Y0001389685D02*
X0001307952Y0001389685D01*
X0001359133Y0001389685D02*
X0001359133Y0001499921D01*
X0001211889Y0001394015D02*
X0001211889Y0001492440D01*
X0001211889Y0001394015D02*
X0001156771Y0001394015D01*
X0001156771Y0001492440D02*
X0001211889Y0001492440D01*
X0001156771Y0001492440D02*
X0001156771Y0001394015D01*
X0001118976Y0001389685D02*
X0001118976Y0001499921D01*
X0001118976Y0001389685D02*
X0001067795Y0001389685D01*
X0001067795Y0001499921D02*
X0001118976Y0001499921D01*
X0001067795Y0001499921D02*
X0001067795Y0001389685D01*
X0000836299Y0001390078D02*
X0000836299Y0001500314D01*
X0000836299Y0001390078D02*
X0000785118Y0001390078D01*
X0000785118Y0001500314D02*
X0000836299Y0001500314D01*
X0000785118Y0001500314D02*
X0000785118Y0001390078D01*
X0001044960Y0001390078D02*
X0001044960Y0001500314D01*
X0001044960Y0001390078D02*
X0000993779Y0001390078D01*
X0000993779Y0001500314D02*
X0001044960Y0001500314D01*
X0000993779Y0001500314D02*
X0000993779Y0001390078D01*
X0000904409Y0001389291D02*
X0000904409Y0001499527D01*
X0000904409Y0001389291D02*
X0000853228Y0001389291D01*
X0000853228Y0001499527D02*
X0000904409Y0001499527D01*
X0000853228Y0001499527D02*
X0000853228Y0001389291D01*
X0000978425Y0001390472D02*
X0000978425Y0001500708D01*
X0000978425Y0001390472D02*
X0000927244Y0001390472D01*
X0000927244Y0001500708D02*
X0000978425Y0001500708D01*
X0000927244Y0001500708D02*
X0000927244Y0001390472D01*
X0000711496Y0001495196D02*
X0000711496Y0001396771D01*
X0000711496Y0001495196D02*
X0000766614Y0001495196D01*
X0000766614Y0001396771D02*
X0000711496Y0001396771D01*
X0000766614Y0001396771D02*
X0000766614Y0001495196D01*
X0000536220Y0001582283D02*
X0000437795Y0001582283D01*
X0000536220Y0001582283D02*
X0000536220Y0001527165D01*
X0000437795Y0001527165D02*
X0000437795Y0001582283D01*
X0000437795Y0001527165D02*
X0000536220Y0001527165D01*
X0000428425Y0001511338D02*
X0000578031Y0001511338D01*
X0000428425Y0001369606D02*
X0000428425Y0001511338D01*
X0000578031Y0001369606D02*
X0000428425Y0001369606D01*
X0000578031Y0001511338D02*
X0000578031Y0001369606D01*
X0000391811Y0001438897D02*
X0000293385Y0001438897D01*
X0000391811Y0001438897D02*
X0000391811Y0001383779D01*
X0000293385Y0001383779D02*
X0000293385Y0001438897D01*
X0000293385Y0001383779D02*
X0000391811Y0001383779D01*
X0000391811Y0001514094D02*
X0000293385Y0001514094D01*
X0000391811Y0001514094D02*
X0000391811Y0001458976D01*
X0000293385Y0001458976D02*
X0000293385Y0001514094D01*
X0000293385Y0001458976D02*
X0000391811Y0001458976D01*
X0000057559Y0001409763D02*
X0000057559Y0001311338D01*
X0000057559Y0001409763D02*
X0000112677Y0001409763D01*
X0000112677Y0001311338D02*
X0000057559Y0001311338D01*
X0000112677Y0001311338D02*
X0000112677Y0001409763D01*
X0002045354Y0000984960D02*
X0000004015Y0000984960D01*
X0000004015Y0000984960D02*
X0000004015Y0001126692D01*
X0000004015Y0001126692D02*
X0002045354Y0001126692D01*
X0002045354Y0001126692D02*
X0002045354Y0000984960D01*
X0002045354Y0001595196D02*
X0000004015Y0001595196D01*
X0000004015Y0001595196D02*
X0000004015Y0001736929D01*
X0000004015Y0001736929D02*
X0002045354Y0001736929D01*
X0002045354Y0001736929D02*
X0002045354Y0001595196D01*
X0001575275Y0001388897D02*
X0001575275Y0001499133D01*
X0001575275Y0001388897D02*
X0001524094Y0001388897D01*
X0001524094Y0001499133D02*
X0001575275Y0001499133D01*
X0001524094Y0001499133D02*
X0001524094Y0001388897D01*
G04 next file*
G04 Gerber Fmt 4.6, Leading zero omitted, Abs format (unit mm)*
G04 Created by KiCad (PCBNEW 4.0.7) date 11/30/17 23:24:33*
G01G01*
G04 APERTURE LIST*
G04 APERTURE END LIST*
D32*
G04 next file*
G04 Gerber Fmt 4.6, Leading zero omitted, Abs format (unit mm)*
G04 Created by KiCad (PCBNEW 4.0.7) date 11/30/17 23:24:33*
G01G01*
G04 APERTURE LIST*
G04 APERTURE END LIST*
D33*
G04 next file*
G04 Gerber Fmt 4.6, Leading zero omitted, Abs format (unit mm)*
G04 Created by KiCad (PCBNEW 4.0.7) date 11/30/17 23:24:33*
G01G01*
G04 APERTURE LIST*
G04 APERTURE END LIST*
D34*
D35*
X-0000097300Y0001603121D02*
X-0000094488Y0001600309D01*
X-0000091676Y0001594685D01*
X-0000091676Y0001580624D01*
X-0000094488Y0001574999D01*
X-0000097300Y0001572187D01*
X-0000102924Y0001569375D01*
X-0000108548Y0001569375D01*
X-0000116985Y0001572187D01*
X-0000150731Y0001605933D01*
X-0000150731Y0001569375D01*
X-0000097300Y0001546878D02*
X-0000094488Y0001544066D01*
X-0000091676Y0001538442D01*
X-0000091676Y0001524381D01*
X-0000094488Y0001518757D01*
X-0000097300Y0001515944D01*
X-0000102924Y0001513132D01*
X-0000108548Y0001513132D01*
X-0000116985Y0001515944D01*
X-0000150731Y0001549690D01*
X-0000150731Y0001513132D01*
X-0000145106Y0001487823D02*
X-0000147919Y0001485011D01*
X-0000150731Y0001487823D01*
X-0000147919Y0001490635D01*
X-0000145106Y0001487823D01*
X-0000150731Y0001487823D01*
X-0000150731Y0001456889D02*
X-0000150731Y0001445641D01*
X-0000147919Y0001440016D01*
X-0000145106Y0001437204D01*
X-0000136670Y0001431580D01*
X-0000125421Y0001428768D01*
X-0000102924Y0001428768D01*
X-0000097300Y0001431580D01*
X-0000094488Y0001434392D01*
X-0000091676Y0001440016D01*
X-0000091676Y0001451265D01*
X-0000094488Y0001456889D01*
X-0000097300Y0001459701D01*
X-0000102924Y0001462514D01*
X-0000116985Y0001462514D01*
X-0000122609Y0001459701D01*
X-0000125421Y0001456889D01*
X-0000128233Y0001451265D01*
X-0000128233Y0001440016D01*
X-0000125421Y0001434392D01*
X-0000122609Y0001431580D01*
X-0000116985Y0001428768D01*
X-0000150731Y0001400646D02*
X-0000150731Y0001389398D01*
X-0000147919Y0001383773D01*
X-0000145106Y0001380961D01*
X-0000136670Y0001375337D01*
X-0000125421Y0001372525D01*
X-0000102924Y0001372525D01*
X-0000097300Y0001375337D01*
X-0000094488Y0001378149D01*
X-0000091676Y0001383773D01*
X-0000091676Y0001395022D01*
X-0000094488Y0001400646D01*
X-0000097300Y0001403458D01*
X-0000102924Y0001406271D01*
X-0000116985Y0001406271D01*
X-0000122609Y0001403458D01*
X-0000125421Y0001400646D01*
X-0000128233Y0001395022D01*
X-0000128233Y0001383773D01*
X-0000125421Y0001378149D01*
X-0000122609Y0001375337D01*
X-0000116985Y0001372525D01*
X-0000091676Y0001335967D02*
X-0000091676Y0001330343D01*
X-0000094488Y0001324718D01*
X-0000097300Y0001321906D01*
X-0000102924Y0001319094D01*
X-0000114173Y0001316282D01*
X-0000128233Y0001316282D01*
X-0000139482Y0001319094D01*
X-0000145106Y0001321906D01*
X-0000147919Y0001324718D01*
X-0000150731Y0001330343D01*
X-0000150731Y0001335967D01*
X-0000147919Y0001341591D01*
X-0000145106Y0001344403D01*
X-0000139482Y0001347215D01*
X-0000128233Y0001350028D01*
X-0000114173Y0001350028D01*
X-0000102924Y0001347215D01*
X-0000097300Y0001344403D01*
X-0000094488Y0001341591D01*
X-0000091676Y0001335967D01*
X-0000150731Y0001245978D02*
X-0000111361Y0001245978D01*
X-0000116985Y0001245978D02*
X-0000114173Y0001243166D01*
X-0000111361Y0001237542D01*
X-0000111361Y0001229105D01*
X-0000114173Y0001223481D01*
X-0000119797Y0001220669D01*
X-0000150731Y0001220669D01*
X-0000119797Y0001220669D02*
X-0000114173Y0001217857D01*
X-0000111361Y0001212232D01*
X-0000111361Y0001203796D01*
X-0000114173Y0001198172D01*
X-0000119797Y0001195360D01*
X-0000150731Y0001195360D01*
X-0000150731Y0001167238D02*
X-0000111361Y0001167238D01*
X-0000116985Y0001167238D02*
X-0000114173Y0001164426D01*
X-0000111361Y0001158802D01*
X-0000111361Y0001150365D01*
X-0000114173Y0001144741D01*
X-0000119797Y0001141929D01*
X-0000150731Y0001141929D01*
X-0000119797Y0001141929D02*
X-0000114173Y0001139117D01*
X-0000111361Y0001133492D01*
X-0000111361Y0001125056D01*
X-0000114173Y0001119431D01*
X-0000119797Y0001116619D01*
X-0000150731Y0001116619D01*
X-0000070866Y0001811023D02*
X-0000070866Y0000905905D01*
X0000000393Y0001811023D02*
X-0000177165Y0001811023D01*
X0000000393Y0000905905D02*
X-0000177165Y0000905905D01*
X-0000070866Y0000905905D02*
X-0000093953Y0000950256D01*
X-0000070866Y0000905905D02*
X-0000047778Y0000950256D01*
X-0000070866Y0001811023D02*
X-0000093953Y0001766673D01*
X-0000070866Y0001811023D02*
X-0000047778Y0001766673D01*
X0000809962Y0001963630D02*
X0000781840Y0001963634D01*
X0000779024Y0001935513D01*
X0000781836Y0001938325D01*
X0000787461Y0001941136D01*
X0000801522Y0001941134D01*
X0000807145Y0001938321D01*
X0000809957Y0001935508D01*
X0000812768Y0001929884D01*
X0000812766Y0001915823D01*
X0000809953Y0001910199D01*
X0000807141Y0001907387D01*
X0000801516Y0001904576D01*
X0000787455Y0001904578D01*
X0000781831Y0001907391D01*
X0000779020Y0001910204D01*
X0000869008Y0001904566D02*
X0000835262Y0001904571D01*
X0000852135Y0001904568D02*
X0000852144Y0001963623D01*
X0000846518Y0001955188D01*
X0000840893Y0001949564D01*
X0000835268Y0001946753D01*
X0000894318Y0001910186D02*
X0000897129Y0001907374D01*
X0000894317Y0001904562D01*
X0000891505Y0001907374D01*
X0000894318Y0001910186D01*
X0000894317Y0001904562D01*
X0000925250Y0001904557D02*
X0000936499Y0001904555D01*
X0000942124Y0001907367D01*
X0000944936Y0001910178D01*
X0000950562Y0001918614D01*
X0000953376Y0001929862D01*
X0000953379Y0001952359D01*
X0000950568Y0001957984D01*
X0000947756Y0001960797D01*
X0000942132Y0001963610D01*
X0000930884Y0001963611D01*
X0000925259Y0001960800D01*
X0000922447Y0001957988D01*
X0000919634Y0001952364D01*
X0000919631Y0001938304D01*
X0000922443Y0001932679D01*
X0000925254Y0001929866D01*
X0000930878Y0001927053D01*
X0000942127Y0001927052D01*
X0000947752Y0001929863D01*
X0000950564Y0001932675D01*
X0000953377Y0001938299D01*
X0000981493Y0001904548D02*
X0000992742Y0001904547D01*
X0000998367Y0001907358D01*
X0001001179Y0001910170D01*
X0001006805Y0001918605D01*
X0001009619Y0001929853D01*
X0001009622Y0001952351D01*
X0001006811Y0001957975D01*
X0001003999Y0001960788D01*
X0000998375Y0001963601D01*
X0000987127Y0001963603D01*
X0000981502Y0001960791D01*
X0000978690Y0001957980D01*
X0000975876Y0001952356D01*
X0000975874Y0001938295D01*
X0000978686Y0001932670D01*
X0000981497Y0001929858D01*
X0000987121Y0001927045D01*
X0000998370Y0001927043D01*
X0001003995Y0001929854D01*
X0001006807Y0001932666D01*
X0001009620Y0001938290D01*
X0001043366Y0001938285D02*
X0001037742Y0001941098D01*
X0001034930Y0001943910D01*
X0001032119Y0001949535D01*
X0001032119Y0001952347D01*
X0001034932Y0001957971D01*
X0001037745Y0001960783D01*
X0001043370Y0001963594D01*
X0001054618Y0001963592D01*
X0001060242Y0001960779D01*
X0001063054Y0001957967D01*
X0001065865Y0001952342D01*
X0001065865Y0001949530D01*
X0001063052Y0001943906D01*
X0001060239Y0001941094D01*
X0001054614Y0001938283D01*
X0001043366Y0001938285D01*
X0001037741Y0001935473D01*
X0001034929Y0001932662D01*
X0001032116Y0001927038D01*
X0001032114Y0001915789D01*
X0001034925Y0001910165D01*
X0001037737Y0001907352D01*
X0001043361Y0001904539D01*
X0001054609Y0001904537D01*
X0001060234Y0001907348D01*
X0001063047Y0001910160D01*
X0001065860Y0001915784D01*
X0001065861Y0001927033D01*
X0001063050Y0001932657D01*
X0001060238Y0001935470D01*
X0001054614Y0001938283D01*
X0001136162Y0001904525D02*
X0001136168Y0001943895D01*
X0001136167Y0001938270D02*
X0001138979Y0001941082D01*
X0001144604Y0001943893D01*
X0001153040Y0001943892D01*
X0001158664Y0001941079D01*
X0001161476Y0001935454D01*
X0001161471Y0001904521D01*
X0001161476Y0001935454D02*
X0001164289Y0001941078D01*
X0001169913Y0001943890D01*
X0001178350Y0001943888D01*
X0001183974Y0001941075D01*
X0001186785Y0001935450D01*
X0001186780Y0001904517D01*
X0001214902Y0001904513D02*
X0001214908Y0001943883D01*
X0001214907Y0001938258D02*
X0001217719Y0001941070D01*
X0001223344Y0001943881D01*
X0001231781Y0001943880D01*
X0001237405Y0001941067D01*
X0001240216Y0001935442D01*
X0001240211Y0001904509D01*
X0001240216Y0001935442D02*
X0001243029Y0001941066D01*
X0001248654Y0001943877D01*
X0001257090Y0001943876D01*
X0001262714Y0001941063D01*
X0001265525Y0001935438D01*
X0001265520Y0001904505D01*
X0000000089Y0001878265D02*
X0002047254Y0001877950D01*
X0000000078Y0001808582D02*
X0000000105Y0001984564D01*
X0002047244Y0001808267D02*
X0002047271Y0001984249D01*
X0002047254Y0001877950D02*
X0002002900Y0001854870D01*
X0002047254Y0001877950D02*
X0002002907Y0001901045D01*
X0000000089Y0001878265D02*
X0000044436Y0001855171D01*
X0000000089Y0001878265D02*
X0000044443Y0001901346D01*
G04 next file*
G04 Gerber Fmt 4.6, Leading zero omitted, Abs format (unit mm)*
G04 Created by KiCad (PCBNEW 4.0.7) date 11/30/17 23:24:33*
G01G01*
G04 APERTURE LIST*
G04 APERTURE END LIST*
D36*
G04 next file*
G04 Gerber Fmt 4.6, Leading zero omitted, Abs format (unit mm)*
G04 Created by KiCad (PCBNEW 4.0.7) date 11/30/17 23:24:33*
G01G01*
G04 APERTURE LIST*
G04 APERTURE END LIST*
D37*
D38*
X0001622913Y0001506220D02*
X0001402440Y0001506220D01*
X0001402440Y0001506220D02*
X0001402440Y0001167637D01*
X0001402440Y0001167637D02*
X0001622913Y0001167637D01*
X0001622913Y0001167637D02*
X0001622913Y0001506220D01*
X0001158346Y0001109370D02*
X0001378818Y0001109370D01*
X0001378818Y0001109370D02*
X0001378818Y0001585748D01*
X0001378818Y0001585748D02*
X0001158346Y0001585748D01*
X0001158346Y0001585748D02*
X0001158346Y0001109370D01*
X0001809921Y0001626692D02*
X0001809921Y0001085354D01*
X0001809921Y0001085354D02*
X0002296141Y0001085354D01*
X0002296141Y0001085354D02*
X0002296141Y0001626692D01*
X0002296141Y0001626692D02*
X0001809921Y0001626692D01*
X0000289842Y0001607007D02*
X0000624488Y0001607007D01*
X0000624488Y0001607007D02*
X0000624488Y0001370787D01*
X0000624488Y0001370787D02*
X0000289842Y0001370787D01*
X0000289842Y0001370787D02*
X0000289842Y0001607007D01*
X0000626377Y0001366929D02*
X0000285826Y0001366929D01*
X0000285826Y0001366929D02*
X0000285826Y0001124803D01*
X0000285826Y0001124803D02*
X0000626377Y0001124803D01*
X0000626377Y0001124803D02*
X0000626377Y0001366929D01*
X0001672519Y0001544015D02*
X0001739448Y0001544015D01*
X0001739448Y0001544015D02*
X0001739448Y0001390472D01*
X0001739448Y0001390472D02*
X0001672519Y0001390472D01*
X0001672519Y0001390472D02*
X0001672519Y0001544015D01*
X0001672519Y0001330236D02*
X0001739448Y0001330236D01*
X0001739448Y0001330236D02*
X0001739448Y0001176692D01*
X0001739448Y0001176692D02*
X0001672519Y0001176692D01*
X0001672519Y0001176692D02*
X0001672519Y0001330236D01*
G04 next file*
G04 Gerber Fmt 4.6, Leading zero omitted, Abs format (unit mm)*
G04 Created by KiCad (PCBNEW 4.0.7) date 11/30/17 23:24:33*
G01G01*
G04 APERTURE LIST*
G04 APERTURE END LIST*
D39*
G04 next file*
G04 Gerber Fmt 4.6, Leading zero omitted, Abs format (unit mm)*
G04 Created by KiCad (PCBNEW 4.0.7) date 11/30/17 23:24:33*
G01G01*
G04 APERTURE LIST*
G04 APERTURE END LIST*
D40*
D41*
X0000068582Y0002044803D02*
X0000167007Y0002044803D01*
X0000068582Y0002044803D02*
X0000068582Y0002099921D01*
X0000167007Y0002099921D02*
X0000167007Y0002044803D01*
X0000167007Y0002099921D02*
X0000068582Y0002099921D01*
X0001210708Y0002208188D02*
X0001320944Y0002208188D01*
X0001210708Y0002208188D02*
X0001210708Y0002259370D01*
X0001320944Y0002259370D02*
X0001320944Y0002208188D01*
X0001320944Y0002259370D02*
X0001210708Y0002259370D01*
X0001334330Y0002199133D02*
X0001334330Y0002088897D01*
X0001334330Y0002199133D02*
X0001385511Y0002199133D01*
X0001385511Y0002088897D02*
X0001334330Y0002088897D01*
X0001385511Y0002088897D02*
X0001385511Y0002199133D01*
X0001801259Y0002086929D02*
X0001801259Y0002197165D01*
X0001801259Y0002086929D02*
X0001750078Y0002086929D01*
X0001750078Y0002197165D02*
X0001801259Y0002197165D01*
X0001750078Y0002197165D02*
X0001750078Y0002086929D01*
X0000280787Y0002487322D02*
X0000170551Y0002487322D01*
X0000280787Y0002487322D02*
X0000280787Y0002436141D01*
X0000170551Y0002436141D02*
X0000170551Y0002487322D01*
X0000170551Y0002436141D02*
X0000280787Y0002436141D01*
X0000602834Y0002433779D02*
X0000713070Y0002433779D01*
X0000602834Y0002433779D02*
X0000602834Y0002484960D01*
X0000713070Y0002484960D02*
X0000713070Y0002433779D01*
X0000713070Y0002484960D02*
X0000602834Y0002484960D01*
X0000638267Y0002194803D02*
X0000638267Y0002096377D01*
X0000638267Y0002194803D02*
X0000693385Y0002194803D01*
X0000693385Y0002096377D02*
X0000638267Y0002096377D01*
X0000693385Y0002096377D02*
X0000693385Y0002194803D01*
X0000757559Y0002090866D02*
X0000757559Y0002201102D01*
X0000757559Y0002090866D02*
X0000706377Y0002090866D01*
X0000706377Y0002201102D02*
X0000757559Y0002201102D01*
X0000706377Y0002201102D02*
X0000706377Y0002090866D01*
X0000770944Y0002200708D02*
X0000770944Y0002090472D01*
X0000770944Y0002200708D02*
X0000822125Y0002200708D01*
X0000822125Y0002090472D02*
X0000770944Y0002090472D01*
X0000822125Y0002090472D02*
X0000822125Y0002200708D01*
X0000834724Y0002077480D02*
X0000984330Y0002077480D01*
X0000984330Y0002077480D02*
X0000984330Y0002219212D01*
X0000984330Y0002219212D02*
X0000834724Y0002219212D01*
X0000834724Y0002219212D02*
X0000834724Y0002077480D01*
X0001009133Y0002201889D02*
X0001009133Y0002091653D01*
X0001009133Y0002201889D02*
X0001060314Y0002201889D01*
X0001060314Y0002091653D02*
X0001009133Y0002091653D01*
X0001060314Y0002091653D02*
X0001060314Y0002201889D01*
X0001077637Y0002201496D02*
X0001077637Y0002091259D01*
X0001077637Y0002201496D02*
X0001128818Y0002201496D01*
X0001128818Y0002091259D02*
X0001077637Y0002091259D01*
X0001128818Y0002091259D02*
X0001128818Y0002201496D01*
X0001154015Y0002194803D02*
X0001154015Y0002096377D01*
X0001154015Y0002194803D02*
X0001209133Y0002194803D01*
X0001209133Y0002096377D02*
X0001154015Y0002096377D01*
X0001209133Y0002096377D02*
X0001209133Y0002194803D01*
X0001554803Y0002192440D02*
X0001554803Y0002094015D01*
X0001554803Y0002192440D02*
X0001609921Y0002192440D01*
X0001609921Y0002094015D02*
X0001554803Y0002094015D01*
X0001609921Y0002094015D02*
X0001609921Y0002192440D01*
X0001736299Y0002087716D02*
X0001736299Y0002197952D01*
X0001736299Y0002087716D02*
X0001685118Y0002087716D01*
X0001685118Y0002197952D02*
X0001736299Y0002197952D01*
X0001685118Y0002197952D02*
X0001685118Y0002087716D01*
X0001596062Y0002393700D02*
X0001596062Y0002295275D01*
X0001596062Y0002393700D02*
X0001651181Y0002393700D01*
X0001651181Y0002295275D02*
X0001596062Y0002295275D01*
X0001651181Y0002295275D02*
X0001651181Y0002393700D01*
X0001502047Y0002294409D02*
X0001502047Y0002404645D01*
X0001502047Y0002294409D02*
X0001450866Y0002294409D01*
X0001450866Y0002404645D02*
X0001502047Y0002404645D01*
X0001450866Y0002404645D02*
X0001450866Y0002294409D01*
X0001376062Y0002405433D02*
X0001376062Y0002295196D01*
X0001376062Y0002405433D02*
X0001427244Y0002405433D01*
X0001427244Y0002295196D02*
X0001376062Y0002295196D01*
X0001427244Y0002295196D02*
X0001427244Y0002405433D01*
X0001307952Y0002405433D02*
X0001307952Y0002295196D01*
X0001307952Y0002405433D02*
X0001359133Y0002405433D01*
X0001359133Y0002295196D02*
X0001307952Y0002295196D01*
X0001359133Y0002295196D02*
X0001359133Y0002405433D01*
X0001211889Y0002299527D02*
X0001211889Y0002397952D01*
X0001211889Y0002299527D02*
X0001156771Y0002299527D01*
X0001156771Y0002397952D02*
X0001211889Y0002397952D01*
X0001156771Y0002397952D02*
X0001156771Y0002299527D01*
X0001118976Y0002295196D02*
X0001118976Y0002405433D01*
X0001118976Y0002295196D02*
X0001067795Y0002295196D01*
X0001067795Y0002405433D02*
X0001118976Y0002405433D01*
X0001067795Y0002405433D02*
X0001067795Y0002295196D01*
X0000836299Y0002295590D02*
X0000836299Y0002405826D01*
X0000836299Y0002295590D02*
X0000785118Y0002295590D01*
X0000785118Y0002405826D02*
X0000836299Y0002405826D01*
X0000785118Y0002405826D02*
X0000785118Y0002295590D01*
X0001044960Y0002295590D02*
X0001044960Y0002405826D01*
X0001044960Y0002295590D02*
X0000993779Y0002295590D01*
X0000993779Y0002405826D02*
X0001044960Y0002405826D01*
X0000993779Y0002405826D02*
X0000993779Y0002295590D01*
X0000904409Y0002294803D02*
X0000904409Y0002405039D01*
X0000904409Y0002294803D02*
X0000853228Y0002294803D01*
X0000853228Y0002405039D02*
X0000904409Y0002405039D01*
X0000853228Y0002405039D02*
X0000853228Y0002294803D01*
X0000978425Y0002295984D02*
X0000978425Y0002406220D01*
X0000978425Y0002295984D02*
X0000927244Y0002295984D01*
X0000927244Y0002406220D02*
X0000978425Y0002406220D01*
X0000927244Y0002406220D02*
X0000927244Y0002295984D01*
X0000711496Y0002400708D02*
X0000711496Y0002302283D01*
X0000711496Y0002400708D02*
X0000766614Y0002400708D01*
X0000766614Y0002302283D02*
X0000711496Y0002302283D01*
X0000766614Y0002302283D02*
X0000766614Y0002400708D01*
X0000536220Y0002487795D02*
X0000437795Y0002487795D01*
X0000536220Y0002487795D02*
X0000536220Y0002432677D01*
X0000437795Y0002432677D02*
X0000437795Y0002487795D01*
X0000437795Y0002432677D02*
X0000536220Y0002432677D01*
X0000428425Y0002416850D02*
X0000578031Y0002416850D01*
X0000428425Y0002275118D02*
X0000428425Y0002416850D01*
X0000578031Y0002275118D02*
X0000428425Y0002275118D01*
X0000578031Y0002416850D02*
X0000578031Y0002275118D01*
X0000391811Y0002344409D02*
X0000293385Y0002344409D01*
X0000391811Y0002344409D02*
X0000391811Y0002289291D01*
X0000293385Y0002289291D02*
X0000293385Y0002344409D01*
X0000293385Y0002289291D02*
X0000391811Y0002289291D01*
X0000391811Y0002419606D02*
X0000293385Y0002419606D01*
X0000391811Y0002419606D02*
X0000391811Y0002364488D01*
X0000293385Y0002364488D02*
X0000293385Y0002419606D01*
X0000293385Y0002364488D02*
X0000391811Y0002364488D01*
X0000057559Y0002315275D02*
X0000057559Y0002216850D01*
X0000057559Y0002315275D02*
X0000112677Y0002315275D01*
X0000112677Y0002216850D02*
X0000057559Y0002216850D01*
X0000112677Y0002216850D02*
X0000112677Y0002315275D01*
X0002045354Y0001890472D02*
X0000004015Y0001890472D01*
X0000004015Y0001890472D02*
X0000004015Y0002032204D01*
X0000004015Y0002032204D02*
X0002045354Y0002032204D01*
X0002045354Y0002032204D02*
X0002045354Y0001890472D01*
X0002045354Y0002500708D02*
X0000004015Y0002500708D01*
X0000004015Y0002500708D02*
X0000004015Y0002642440D01*
X0000004015Y0002642440D02*
X0002045354Y0002642440D01*
X0002045354Y0002642440D02*
X0002045354Y0002500708D01*
X0001575275Y0002294409D02*
X0001575275Y0002404645D01*
X0001575275Y0002294409D02*
X0001524094Y0002294409D01*
X0001524094Y0002404645D02*
X0001575275Y0002404645D01*
X0001524094Y0002404645D02*
X0001524094Y0002294409D01*
G04 next file*
G04 Gerber Fmt 4.6, Leading zero omitted, Abs format (unit mm)*
G04 Created by KiCad (PCBNEW 4.0.7) date 11/30/17 23:24:33*
G01G01*
G04 APERTURE LIST*
G04 APERTURE END LIST*
D42*
G04 next file*
G04 Gerber Fmt 4.6, Leading zero omitted, Abs format (unit mm)*
G04 Created by KiCad (PCBNEW 4.0.7) date 11/30/17 23:24:33*
G01G01*
G04 APERTURE LIST*
G04 APERTURE END LIST*
D43*
G04 next file*
G04 Gerber Fmt 4.6, Leading zero omitted, Abs format (unit mm)*
G04 Created by KiCad (PCBNEW 4.0.7) date 11/30/17 23:24:33*
G01G01*
G04 APERTURE LIST*
G04 APERTURE END LIST*
D44*
D45*
X-0000097300Y0002508633D02*
X-0000094488Y0002505821D01*
X-0000091676Y0002500196D01*
X-0000091676Y0002486136D01*
X-0000094488Y0002480511D01*
X-0000097300Y0002477699D01*
X-0000102924Y0002474887D01*
X-0000108548Y0002474887D01*
X-0000116985Y0002477699D01*
X-0000150731Y0002511445D01*
X-0000150731Y0002474887D01*
X-0000097300Y0002452390D02*
X-0000094488Y0002449578D01*
X-0000091676Y0002443953D01*
X-0000091676Y0002429893D01*
X-0000094488Y0002424268D01*
X-0000097300Y0002421456D01*
X-0000102924Y0002418644D01*
X-0000108548Y0002418644D01*
X-0000116985Y0002421456D01*
X-0000150731Y0002455202D01*
X-0000150731Y0002418644D01*
X-0000145106Y0002393335D02*
X-0000147919Y0002390523D01*
X-0000150731Y0002393335D01*
X-0000147919Y0002396147D01*
X-0000145106Y0002393335D01*
X-0000150731Y0002393335D01*
X-0000150731Y0002362401D02*
X-0000150731Y0002351152D01*
X-0000147919Y0002345528D01*
X-0000145106Y0002342716D01*
X-0000136670Y0002337092D01*
X-0000125421Y0002334280D01*
X-0000102924Y0002334280D01*
X-0000097300Y0002337092D01*
X-0000094488Y0002339904D01*
X-0000091676Y0002345528D01*
X-0000091676Y0002356777D01*
X-0000094488Y0002362401D01*
X-0000097300Y0002365213D01*
X-0000102924Y0002368025D01*
X-0000116985Y0002368025D01*
X-0000122609Y0002365213D01*
X-0000125421Y0002362401D01*
X-0000128233Y0002356777D01*
X-0000128233Y0002345528D01*
X-0000125421Y0002339904D01*
X-0000122609Y0002337092D01*
X-0000116985Y0002334280D01*
X-0000150731Y0002306158D02*
X-0000150731Y0002294910D01*
X-0000147919Y0002289285D01*
X-0000145106Y0002286473D01*
X-0000136670Y0002280849D01*
X-0000125421Y0002278037D01*
X-0000102924Y0002278037D01*
X-0000097300Y0002280849D01*
X-0000094488Y0002283661D01*
X-0000091676Y0002289285D01*
X-0000091676Y0002300534D01*
X-0000094488Y0002306158D01*
X-0000097300Y0002308970D01*
X-0000102924Y0002311782D01*
X-0000116985Y0002311782D01*
X-0000122609Y0002308970D01*
X-0000125421Y0002306158D01*
X-0000128233Y0002300534D01*
X-0000128233Y0002289285D01*
X-0000125421Y0002283661D01*
X-0000122609Y0002280849D01*
X-0000116985Y0002278037D01*
X-0000091676Y0002241479D02*
X-0000091676Y0002235854D01*
X-0000094488Y0002230230D01*
X-0000097300Y0002227418D01*
X-0000102924Y0002224606D01*
X-0000114173Y0002221794D01*
X-0000128233Y0002221794D01*
X-0000139482Y0002224606D01*
X-0000145106Y0002227418D01*
X-0000147919Y0002230230D01*
X-0000150731Y0002235854D01*
X-0000150731Y0002241479D01*
X-0000147919Y0002247103D01*
X-0000145106Y0002249915D01*
X-0000139482Y0002252727D01*
X-0000128233Y0002255539D01*
X-0000114173Y0002255539D01*
X-0000102924Y0002252727D01*
X-0000097300Y0002249915D01*
X-0000094488Y0002247103D01*
X-0000091676Y0002241479D01*
X-0000150731Y0002151490D02*
X-0000111361Y0002151490D01*
X-0000116985Y0002151490D02*
X-0000114173Y0002148678D01*
X-0000111361Y0002143054D01*
X-0000111361Y0002134617D01*
X-0000114173Y0002128993D01*
X-0000119797Y0002126181D01*
X-0000150731Y0002126181D01*
X-0000119797Y0002126181D02*
X-0000114173Y0002123368D01*
X-0000111361Y0002117744D01*
X-0000111361Y0002109308D01*
X-0000114173Y0002103683D01*
X-0000119797Y0002100871D01*
X-0000150731Y0002100871D01*
X-0000150731Y0002072750D02*
X-0000111361Y0002072750D01*
X-0000116985Y0002072750D02*
X-0000114173Y0002069938D01*
X-0000111361Y0002064313D01*
X-0000111361Y0002055877D01*
X-0000114173Y0002050253D01*
X-0000119797Y0002047440D01*
X-0000150731Y0002047440D01*
X-0000119797Y0002047440D02*
X-0000114173Y0002044628D01*
X-0000111361Y0002039004D01*
X-0000111361Y0002030568D01*
X-0000114173Y0002024943D01*
X-0000119797Y0002022131D01*
X-0000150731Y0002022131D01*
X-0000070866Y0002716535D02*
X-0000070866Y0001811417D01*
X0000000393Y0002716535D02*
X-0000177165Y0002716535D01*
X0000000393Y0001811417D02*
X-0000177165Y0001811417D01*
X-0000070866Y0001811417D02*
X-0000093953Y0001855767D01*
X-0000070866Y0001811417D02*
X-0000047778Y0001855767D01*
X-0000070866Y0002716535D02*
X-0000093953Y0002672184D01*
X-0000070866Y0002716535D02*
X-0000047778Y0002672184D01*
X0000809962Y0002869142D02*
X0000781840Y0002869146D01*
X0000779024Y0002841025D01*
X0000781836Y0002843837D01*
X0000787461Y0002846648D01*
X0000801522Y0002846646D01*
X0000807145Y0002843833D01*
X0000809957Y0002841020D01*
X0000812768Y0002835396D01*
X0000812766Y0002821335D01*
X0000809953Y0002815711D01*
X0000807141Y0002812899D01*
X0000801516Y0002810088D01*
X0000787455Y0002810090D01*
X0000781831Y0002812903D01*
X0000779020Y0002815716D01*
X0000869008Y0002810078D02*
X0000835262Y0002810083D01*
X0000852135Y0002810080D02*
X0000852144Y0002869135D01*
X0000846518Y0002860700D01*
X0000840893Y0002855076D01*
X0000835268Y0002852265D01*
X0000894318Y0002815698D02*
X0000897129Y0002812885D01*
X0000894317Y0002810074D01*
X0000891505Y0002812886D01*
X0000894318Y0002815698D01*
X0000894317Y0002810074D01*
X0000925250Y0002810069D02*
X0000936499Y0002810067D01*
X0000942124Y0002812878D01*
X0000944936Y0002815690D01*
X0000950562Y0002824126D01*
X0000953376Y0002835374D01*
X0000953379Y0002857871D01*
X0000950568Y0002863496D01*
X0000947756Y0002866308D01*
X0000942132Y0002869121D01*
X0000930884Y0002869123D01*
X0000925259Y0002866312D01*
X0000922447Y0002863500D01*
X0000919634Y0002857876D01*
X0000919631Y0002843816D01*
X0000922443Y0002838191D01*
X0000925254Y0002835378D01*
X0000930878Y0002832565D01*
X0000942127Y0002832563D01*
X0000947752Y0002835375D01*
X0000950564Y0002838186D01*
X0000953377Y0002843810D01*
X0000981493Y0002810060D02*
X0000992742Y0002810059D01*
X0000998367Y0002812870D01*
X0001001179Y0002815682D01*
X0001006805Y0002824117D01*
X0001009619Y0002835365D01*
X0001009622Y0002857862D01*
X0001006811Y0002863487D01*
X0001003999Y0002866300D01*
X0000998375Y0002869113D01*
X0000987127Y0002869115D01*
X0000981502Y0002866303D01*
X0000978690Y0002863491D01*
X0000975876Y0002857868D01*
X0000975874Y0002843807D01*
X0000978686Y0002838182D01*
X0000981497Y0002835370D01*
X0000987121Y0002832557D01*
X0000998370Y0002832555D01*
X0001003995Y0002835366D01*
X0001006807Y0002838178D01*
X0001009620Y0002843802D01*
X0001043366Y0002843796D02*
X0001037742Y0002846610D01*
X0001034930Y0002849422D01*
X0001032119Y0002855047D01*
X0001032119Y0002857859D01*
X0001034932Y0002863483D01*
X0001037745Y0002866295D01*
X0001043370Y0002869106D01*
X0001054618Y0002869104D01*
X0001060242Y0002866291D01*
X0001063054Y0002863478D01*
X0001065865Y0002857854D01*
X0001065865Y0002855042D01*
X0001063052Y0002849418D01*
X0001060239Y0002846606D01*
X0001054614Y0002843795D01*
X0001043366Y0002843796D01*
X0001037741Y0002840985D01*
X0001034929Y0002838173D01*
X0001032116Y0002832550D01*
X0001032114Y0002821301D01*
X0001034925Y0002815676D01*
X0001037737Y0002812864D01*
X0001043361Y0002810051D01*
X0001054609Y0002810049D01*
X0001060234Y0002812860D01*
X0001063047Y0002815672D01*
X0001065860Y0002821296D01*
X0001065861Y0002832544D01*
X0001063050Y0002838169D01*
X0001060238Y0002840982D01*
X0001054614Y0002843795D01*
X0001136162Y0002810036D02*
X0001136168Y0002849407D01*
X0001136167Y0002843782D02*
X0001138979Y0002846594D01*
X0001144604Y0002849405D01*
X0001153040Y0002849404D01*
X0001158664Y0002846591D01*
X0001161476Y0002840966D01*
X0001161471Y0002810033D01*
X0001161476Y0002840966D02*
X0001164289Y0002846590D01*
X0001169913Y0002849401D01*
X0001178350Y0002849400D01*
X0001183974Y0002846587D01*
X0001186785Y0002840962D01*
X0001186780Y0002810029D01*
X0001214902Y0002810024D02*
X0001214908Y0002849394D01*
X0001214907Y0002843770D02*
X0001217719Y0002846582D01*
X0001223344Y0002849393D01*
X0001231781Y0002849392D01*
X0001237405Y0002846579D01*
X0001240216Y0002840954D01*
X0001240211Y0002810020D01*
X0001240216Y0002840954D02*
X0001243029Y0002846578D01*
X0001248654Y0002849389D01*
X0001257090Y0002849388D01*
X0001262714Y0002846575D01*
X0001265525Y0002840950D01*
X0001265520Y0002810017D01*
X0000000089Y0002783777D02*
X0002047254Y0002783462D01*
X0000000078Y0002714094D02*
X0000000105Y0002890076D01*
X0002047244Y0002713779D02*
X0002047271Y0002889761D01*
X0002047254Y0002783462D02*
X0002002900Y0002760381D01*
X0002047254Y0002783462D02*
X0002002907Y0002806556D01*
X0000000089Y0002783777D02*
X0000044436Y0002760683D01*
X0000000089Y0002783777D02*
X0000044443Y0002806858D01*
G04 next file*
G04 Gerber Fmt 4.6, Leading zero omitted, Abs format (unit mm)*
G04 Created by KiCad (PCBNEW 4.0.7) date 11/30/17 23:24:33*
G01G01*
G04 APERTURE LIST*
G04 APERTURE END LIST*
D46*
G04 next file*
G04 Gerber Fmt 4.6, Leading zero omitted, Abs format (unit mm)*
G04 Created by KiCad (PCBNEW 4.0.7) date 11/30/17 23:24:33*
G01G01*
G04 APERTURE LIST*
G04 APERTURE END LIST*
D47*
D48*
X0001622913Y0002411732D02*
X0001402440Y0002411732D01*
X0001402440Y0002411732D02*
X0001402440Y0002073149D01*
X0001402440Y0002073149D02*
X0001622913Y0002073149D01*
X0001622913Y0002073149D02*
X0001622913Y0002411732D01*
X0001158346Y0002014881D02*
X0001378818Y0002014881D01*
X0001378818Y0002014881D02*
X0001378818Y0002491259D01*
X0001378818Y0002491259D02*
X0001158346Y0002491259D01*
X0001158346Y0002491259D02*
X0001158346Y0002014881D01*
X0001809921Y0002532204D02*
X0001809921Y0001990866D01*
X0001809921Y0001990866D02*
X0002296141Y0001990866D01*
X0002296141Y0001990866D02*
X0002296141Y0002532204D01*
X0002296141Y0002532204D02*
X0001809921Y0002532204D01*
X0000289842Y0002512519D02*
X0000624488Y0002512519D01*
X0000624488Y0002512519D02*
X0000624488Y0002276299D01*
X0000624488Y0002276299D02*
X0000289842Y0002276299D01*
X0000289842Y0002276299D02*
X0000289842Y0002512519D01*
X0000626377Y0002272440D02*
X0000285826Y0002272440D01*
X0000285826Y0002272440D02*
X0000285826Y0002030314D01*
X0000285826Y0002030314D02*
X0000626377Y0002030314D01*
X0000626377Y0002030314D02*
X0000626377Y0002272440D01*
X0001672519Y0002449527D02*
X0001739448Y0002449527D01*
X0001739448Y0002449527D02*
X0001739448Y0002295984D01*
X0001739448Y0002295984D02*
X0001672519Y0002295984D01*
X0001672519Y0002295984D02*
X0001672519Y0002449527D01*
X0001672519Y0002235748D02*
X0001739448Y0002235748D01*
X0001739448Y0002235748D02*
X0001739448Y0002082204D01*
X0001739448Y0002082204D02*
X0001672519Y0002082204D01*
X0001672519Y0002082204D02*
X0001672519Y0002235748D01*
G04 next file*
G04 Gerber Fmt 4.6, Leading zero omitted, Abs format (unit mm)*
G04 Created by KiCad (PCBNEW 4.0.7) date 11/30/17 23:24:33*
G01G01*
G04 APERTURE LIST*
G04 APERTURE END LIST*
D49*
G04 next file*
G04 Gerber Fmt 4.6, Leading zero omitted, Abs format (unit mm)*
G04 Created by KiCad (PCBNEW 4.0.7) date 11/30/17 23:24:33*
G01G01*
G04 APERTURE LIST*
G04 APERTURE END LIST*
D50*
D51*
X0000068582Y0002950314D02*
X0000167007Y0002950314D01*
X0000068582Y0002950314D02*
X0000068582Y0003005433D01*
X0000167007Y0003005433D02*
X0000167007Y0002950314D01*
X0000167007Y0003005433D02*
X0000068582Y0003005433D01*
X0001210708Y0003113700D02*
X0001320944Y0003113700D01*
X0001210708Y0003113700D02*
X0001210708Y0003164881D01*
X0001320944Y0003164881D02*
X0001320944Y0003113700D01*
X0001320944Y0003164881D02*
X0001210708Y0003164881D01*
X0001334330Y0003104645D02*
X0001334330Y0002994409D01*
X0001334330Y0003104645D02*
X0001385511Y0003104645D01*
X0001385511Y0002994409D02*
X0001334330Y0002994409D01*
X0001385511Y0002994409D02*
X0001385511Y0003104645D01*
X0001801259Y0002992440D02*
X0001801259Y0003102677D01*
X0001801259Y0002992440D02*
X0001750078Y0002992440D01*
X0001750078Y0003102677D02*
X0001801259Y0003102677D01*
X0001750078Y0003102677D02*
X0001750078Y0002992440D01*
X0000280787Y0003392834D02*
X0000170551Y0003392834D01*
X0000280787Y0003392834D02*
X0000280787Y0003341653D01*
X0000170551Y0003341653D02*
X0000170551Y0003392834D01*
X0000170551Y0003341653D02*
X0000280787Y0003341653D01*
X0000602834Y0003339291D02*
X0000713070Y0003339291D01*
X0000602834Y0003339291D02*
X0000602834Y0003390472D01*
X0000713070Y0003390472D02*
X0000713070Y0003339291D01*
X0000713070Y0003390472D02*
X0000602834Y0003390472D01*
X0000638267Y0003100314D02*
X0000638267Y0003001889D01*
X0000638267Y0003100314D02*
X0000693385Y0003100314D01*
X0000693385Y0003001889D02*
X0000638267Y0003001889D01*
X0000693385Y0003001889D02*
X0000693385Y0003100314D01*
X0000757559Y0002996377D02*
X0000757559Y0003106614D01*
X0000757559Y0002996377D02*
X0000706377Y0002996377D01*
X0000706377Y0003106614D02*
X0000757559Y0003106614D01*
X0000706377Y0003106614D02*
X0000706377Y0002996377D01*
X0000770944Y0003106220D02*
X0000770944Y0002995984D01*
X0000770944Y0003106220D02*
X0000822125Y0003106220D01*
X0000822125Y0002995984D02*
X0000770944Y0002995984D01*
X0000822125Y0002995984D02*
X0000822125Y0003106220D01*
X0000834724Y0002982992D02*
X0000984330Y0002982992D01*
X0000984330Y0002982992D02*
X0000984330Y0003124724D01*
X0000984330Y0003124724D02*
X0000834724Y0003124724D01*
X0000834724Y0003124724D02*
X0000834724Y0002982992D01*
X0001009133Y0003107401D02*
X0001009133Y0002997165D01*
X0001009133Y0003107401D02*
X0001060314Y0003107401D01*
X0001060314Y0002997165D02*
X0001009133Y0002997165D01*
X0001060314Y0002997165D02*
X0001060314Y0003107401D01*
X0001077637Y0003107007D02*
X0001077637Y0002996771D01*
X0001077637Y0003107007D02*
X0001128818Y0003107007D01*
X0001128818Y0002996771D02*
X0001077637Y0002996771D01*
X0001128818Y0002996771D02*
X0001128818Y0003107007D01*
X0001154015Y0003100314D02*
X0001154015Y0003001889D01*
X0001154015Y0003100314D02*
X0001209133Y0003100314D01*
X0001209133Y0003001889D02*
X0001154015Y0003001889D01*
X0001209133Y0003001889D02*
X0001209133Y0003100314D01*
X0001554803Y0003097952D02*
X0001554803Y0002999527D01*
X0001554803Y0003097952D02*
X0001609921Y0003097952D01*
X0001609921Y0002999527D02*
X0001554803Y0002999527D01*
X0001609921Y0002999527D02*
X0001609921Y0003097952D01*
X0001736299Y0002993228D02*
X0001736299Y0003103464D01*
X0001736299Y0002993228D02*
X0001685118Y0002993228D01*
X0001685118Y0003103464D02*
X0001736299Y0003103464D01*
X0001685118Y0003103464D02*
X0001685118Y0002993228D01*
X0001596062Y0003299212D02*
X0001596062Y0003200787D01*
X0001596062Y0003299212D02*
X0001651181Y0003299212D01*
X0001651181Y0003200787D02*
X0001596062Y0003200787D01*
X0001651181Y0003200787D02*
X0001651181Y0003299212D01*
X0001502047Y0003199921D02*
X0001502047Y0003310157D01*
X0001502047Y0003199921D02*
X0001450866Y0003199921D01*
X0001450866Y0003310157D02*
X0001502047Y0003310157D01*
X0001450866Y0003310157D02*
X0001450866Y0003199921D01*
X0001376062Y0003310944D02*
X0001376062Y0003200708D01*
X0001376062Y0003310944D02*
X0001427244Y0003310944D01*
X0001427244Y0003200708D02*
X0001376062Y0003200708D01*
X0001427244Y0003200708D02*
X0001427244Y0003310944D01*
X0001307952Y0003310944D02*
X0001307952Y0003200708D01*
X0001307952Y0003310944D02*
X0001359133Y0003310944D01*
X0001359133Y0003200708D02*
X0001307952Y0003200708D01*
X0001359133Y0003200708D02*
X0001359133Y0003310944D01*
X0001211889Y0003205039D02*
X0001211889Y0003303464D01*
X0001211889Y0003205039D02*
X0001156771Y0003205039D01*
X0001156771Y0003303464D02*
X0001211889Y0003303464D01*
X0001156771Y0003303464D02*
X0001156771Y0003205039D01*
X0001118976Y0003200708D02*
X0001118976Y0003310944D01*
X0001118976Y0003200708D02*
X0001067795Y0003200708D01*
X0001067795Y0003310944D02*
X0001118976Y0003310944D01*
X0001067795Y0003310944D02*
X0001067795Y0003200708D01*
X0000836299Y0003201102D02*
X0000836299Y0003311338D01*
X0000836299Y0003201102D02*
X0000785118Y0003201102D01*
X0000785118Y0003311338D02*
X0000836299Y0003311338D01*
X0000785118Y0003311338D02*
X0000785118Y0003201102D01*
X0001044960Y0003201102D02*
X0001044960Y0003311338D01*
X0001044960Y0003201102D02*
X0000993779Y0003201102D01*
X0000993779Y0003311338D02*
X0001044960Y0003311338D01*
X0000993779Y0003311338D02*
X0000993779Y0003201102D01*
X0000904409Y0003200314D02*
X0000904409Y0003310551D01*
X0000904409Y0003200314D02*
X0000853228Y0003200314D01*
X0000853228Y0003310551D02*
X0000904409Y0003310551D01*
X0000853228Y0003310551D02*
X0000853228Y0003200314D01*
X0000978425Y0003201496D02*
X0000978425Y0003311732D01*
X0000978425Y0003201496D02*
X0000927244Y0003201496D01*
X0000927244Y0003311732D02*
X0000978425Y0003311732D01*
X0000927244Y0003311732D02*
X0000927244Y0003201496D01*
X0000711496Y0003306220D02*
X0000711496Y0003207795D01*
X0000711496Y0003306220D02*
X0000766614Y0003306220D01*
X0000766614Y0003207795D02*
X0000711496Y0003207795D01*
X0000766614Y0003207795D02*
X0000766614Y0003306220D01*
X0000536220Y0003393307D02*
X0000437795Y0003393307D01*
X0000536220Y0003393307D02*
X0000536220Y0003338188D01*
X0000437795Y0003338188D02*
X0000437795Y0003393307D01*
X0000437795Y0003338188D02*
X0000536220Y0003338188D01*
X0000428425Y0003322362D02*
X0000578031Y0003322362D01*
X0000428425Y0003180629D02*
X0000428425Y0003322362D01*
X0000578031Y0003180629D02*
X0000428425Y0003180629D01*
X0000578031Y0003322362D02*
X0000578031Y0003180629D01*
X0000391811Y0003249921D02*
X0000293385Y0003249921D01*
X0000391811Y0003249921D02*
X0000391811Y0003194803D01*
X0000293385Y0003194803D02*
X0000293385Y0003249921D01*
X0000293385Y0003194803D02*
X0000391811Y0003194803D01*
X0000391811Y0003325118D02*
X0000293385Y0003325118D01*
X0000391811Y0003325118D02*
X0000391811Y0003270000D01*
X0000293385Y0003270000D02*
X0000293385Y0003325118D01*
X0000293385Y0003270000D02*
X0000391811Y0003270000D01*
X0000057559Y0003220787D02*
X0000057559Y0003122362D01*
X0000057559Y0003220787D02*
X0000112677Y0003220787D01*
X0000112677Y0003122362D02*
X0000057559Y0003122362D01*
X0000112677Y0003122362D02*
X0000112677Y0003220787D01*
X0002045354Y0002795984D02*
X0000004015Y0002795984D01*
X0000004015Y0002795984D02*
X0000004015Y0002937716D01*
X0000004015Y0002937716D02*
X0002045354Y0002937716D01*
X0002045354Y0002937716D02*
X0002045354Y0002795984D01*
X0002045354Y0003406220D02*
X0000004015Y0003406220D01*
X0000004015Y0003406220D02*
X0000004015Y0003547952D01*
X0000004015Y0003547952D02*
X0002045354Y0003547952D01*
X0002045354Y0003547952D02*
X0002045354Y0003406220D01*
X0001575275Y0003199921D02*
X0001575275Y0003310157D01*
X0001575275Y0003199921D02*
X0001524094Y0003199921D01*
X0001524094Y0003310157D02*
X0001575275Y0003310157D01*
X0001524094Y0003310157D02*
X0001524094Y0003199921D01*
G04 next file*
G04 Gerber Fmt 4.6, Leading zero omitted, Abs format (unit mm)*
G04 Created by KiCad (PCBNEW 4.0.7) date 11/30/17 23:24:33*
G01G01*
G04 APERTURE LIST*
G04 APERTURE END LIST*
D52*
G04 next file*
G04 Gerber Fmt 4.6, Leading zero omitted, Abs format (unit mm)*
G04 Created by KiCad (PCBNEW 4.0.7) date 11/30/17 23:24:33*
G01G01*
G04 APERTURE LIST*
G04 APERTURE END LIST*
D53*
G04 next file*
G04 Gerber Fmt 4.6, Leading zero omitted, Abs format (unit mm)*
G04 Created by KiCad (PCBNEW 4.0.7) date 11/30/17 23:24:33*
G01G01*
G04 APERTURE LIST*
G04 APERTURE END LIST*
D54*
D55*
X-0000097300Y0003414145D02*
X-0000094488Y0003411332D01*
X-0000091676Y0003405708D01*
X-0000091676Y0003391647D01*
X-0000094488Y0003386023D01*
X-0000097300Y0003383211D01*
X-0000102924Y0003380399D01*
X-0000108548Y0003380399D01*
X-0000116985Y0003383211D01*
X-0000150731Y0003416957D01*
X-0000150731Y0003380399D01*
X-0000097300Y0003357902D02*
X-0000094488Y0003355089D01*
X-0000091676Y0003349465D01*
X-0000091676Y0003335404D01*
X-0000094488Y0003329780D01*
X-0000097300Y0003326968D01*
X-0000102924Y0003324156D01*
X-0000108548Y0003324156D01*
X-0000116985Y0003326968D01*
X-0000150731Y0003360714D01*
X-0000150731Y0003324156D01*
X-0000145106Y0003298847D02*
X-0000147919Y0003296034D01*
X-0000150731Y0003298847D01*
X-0000147919Y0003301659D01*
X-0000145106Y0003298847D01*
X-0000150731Y0003298847D01*
X-0000150731Y0003267913D02*
X-0000150731Y0003256664D01*
X-0000147919Y0003251040D01*
X-0000145106Y0003248228D01*
X-0000136670Y0003242604D01*
X-0000125421Y0003239791D01*
X-0000102924Y0003239791D01*
X-0000097300Y0003242604D01*
X-0000094488Y0003245416D01*
X-0000091676Y0003251040D01*
X-0000091676Y0003262289D01*
X-0000094488Y0003267913D01*
X-0000097300Y0003270725D01*
X-0000102924Y0003273537D01*
X-0000116985Y0003273537D01*
X-0000122609Y0003270725D01*
X-0000125421Y0003267913D01*
X-0000128233Y0003262289D01*
X-0000128233Y0003251040D01*
X-0000125421Y0003245416D01*
X-0000122609Y0003242604D01*
X-0000116985Y0003239791D01*
X-0000150731Y0003211670D02*
X-0000150731Y0003200421D01*
X-0000147919Y0003194797D01*
X-0000145106Y0003191985D01*
X-0000136670Y0003186361D01*
X-0000125421Y0003183548D01*
X-0000102924Y0003183548D01*
X-0000097300Y0003186361D01*
X-0000094488Y0003189173D01*
X-0000091676Y0003194797D01*
X-0000091676Y0003206046D01*
X-0000094488Y0003211670D01*
X-0000097300Y0003214482D01*
X-0000102924Y0003217294D01*
X-0000116985Y0003217294D01*
X-0000122609Y0003214482D01*
X-0000125421Y0003211670D01*
X-0000128233Y0003206046D01*
X-0000128233Y0003194797D01*
X-0000125421Y0003189173D01*
X-0000122609Y0003186361D01*
X-0000116985Y0003183548D01*
X-0000091676Y0003146991D02*
X-0000091676Y0003141366D01*
X-0000094488Y0003135742D01*
X-0000097300Y0003132930D01*
X-0000102924Y0003130118D01*
X-0000114173Y0003127305D01*
X-0000128233Y0003127305D01*
X-0000139482Y0003130118D01*
X-0000145106Y0003132930D01*
X-0000147919Y0003135742D01*
X-0000150731Y0003141366D01*
X-0000150731Y0003146991D01*
X-0000147919Y0003152615D01*
X-0000145106Y0003155427D01*
X-0000139482Y0003158239D01*
X-0000128233Y0003161051D01*
X-0000114173Y0003161051D01*
X-0000102924Y0003158239D01*
X-0000097300Y0003155427D01*
X-0000094488Y0003152615D01*
X-0000091676Y0003146991D01*
X-0000150731Y0003057002D02*
X-0000111361Y0003057002D01*
X-0000116985Y0003057002D02*
X-0000114173Y0003054190D01*
X-0000111361Y0003048565D01*
X-0000111361Y0003040129D01*
X-0000114173Y0003034505D01*
X-0000119797Y0003031692D01*
X-0000150731Y0003031692D01*
X-0000119797Y0003031692D02*
X-0000114173Y0003028880D01*
X-0000111361Y0003023256D01*
X-0000111361Y0003014820D01*
X-0000114173Y0003009195D01*
X-0000119797Y0003006383D01*
X-0000150731Y0003006383D01*
X-0000150731Y0002978262D02*
X-0000111361Y0002978262D01*
X-0000116985Y0002978262D02*
X-0000114173Y0002975450D01*
X-0000111361Y0002969825D01*
X-0000111361Y0002961389D01*
X-0000114173Y0002955764D01*
X-0000119797Y0002952952D01*
X-0000150731Y0002952952D01*
X-0000119797Y0002952952D02*
X-0000114173Y0002950140D01*
X-0000111361Y0002944516D01*
X-0000111361Y0002936079D01*
X-0000114173Y0002930455D01*
X-0000119797Y0002927643D01*
X-0000150731Y0002927643D01*
X-0000070866Y0003622047D02*
X-0000070866Y0002716929D01*
X0000000393Y0003622047D02*
X-0000177165Y0003622047D01*
X0000000393Y0002716929D02*
X-0000177165Y0002716929D01*
X-0000070866Y0002716929D02*
X-0000093953Y0002761279D01*
X-0000070866Y0002716929D02*
X-0000047778Y0002761279D01*
X-0000070866Y0003622047D02*
X-0000093953Y0003577696D01*
X-0000070866Y0003622047D02*
X-0000047778Y0003577696D01*
X0000809962Y0003774654D02*
X0000781840Y0003774658D01*
X0000779024Y0003746537D01*
X0000781836Y0003749349D01*
X0000787461Y0003752160D01*
X0000801522Y0003752158D01*
X0000807145Y0003749345D01*
X0000809957Y0003746532D01*
X0000812768Y0003740907D01*
X0000812766Y0003726847D01*
X0000809953Y0003721223D01*
X0000807141Y0003718411D01*
X0000801516Y0003715600D01*
X0000787455Y0003715602D01*
X0000781831Y0003718415D01*
X0000779020Y0003721227D01*
X0000869008Y0003715589D02*
X0000835262Y0003715595D01*
X0000852135Y0003715592D02*
X0000852144Y0003774647D01*
X0000846518Y0003766211D01*
X0000840893Y0003760588D01*
X0000835268Y0003757777D01*
X0000894318Y0003721210D02*
X0000897129Y0003718397D01*
X0000894317Y0003715585D01*
X0000891505Y0003718398D01*
X0000894318Y0003721210D01*
X0000894317Y0003715585D01*
X0000925250Y0003715581D02*
X0000936499Y0003715579D01*
X0000942124Y0003718390D01*
X0000944936Y0003721202D01*
X0000950562Y0003729638D01*
X0000953376Y0003740886D01*
X0000953379Y0003763383D01*
X0000950568Y0003769008D01*
X0000947756Y0003771820D01*
X0000942132Y0003774633D01*
X0000930884Y0003774635D01*
X0000925259Y0003771824D01*
X0000922447Y0003769012D01*
X0000919634Y0003763388D01*
X0000919631Y0003749327D01*
X0000922443Y0003743703D01*
X0000925254Y0003740890D01*
X0000930878Y0003738077D01*
X0000942127Y0003738075D01*
X0000947752Y0003740887D01*
X0000950564Y0003743698D01*
X0000953377Y0003749322D01*
X0000981493Y0003715572D02*
X0000992742Y0003715570D01*
X0000998367Y0003718382D01*
X0001001179Y0003721193D01*
X0001006805Y0003729629D01*
X0001009619Y0003740877D01*
X0001009622Y0003763374D01*
X0001006811Y0003768999D01*
X0001003999Y0003771812D01*
X0000998375Y0003774625D01*
X0000987127Y0003774626D01*
X0000981502Y0003771815D01*
X0000978690Y0003769003D01*
X0000975876Y0003763379D01*
X0000975874Y0003749319D01*
X0000978686Y0003743694D01*
X0000981497Y0003740881D01*
X0000987121Y0003738068D01*
X0000998370Y0003738067D01*
X0001003995Y0003740878D01*
X0001006807Y0003743690D01*
X0001009620Y0003749313D01*
X0001043366Y0003749308D02*
X0001037742Y0003752121D01*
X0001034930Y0003754934D01*
X0001032119Y0003760559D01*
X0001032119Y0003763371D01*
X0001034932Y0003768995D01*
X0001037745Y0003771806D01*
X0001043370Y0003774618D01*
X0001054618Y0003774616D01*
X0001060242Y0003771803D01*
X0001063054Y0003768990D01*
X0001065865Y0003763366D01*
X0001065865Y0003760553D01*
X0001063052Y0003754930D01*
X0001060239Y0003752118D01*
X0001054614Y0003749307D01*
X0001043366Y0003749308D01*
X0001037741Y0003746497D01*
X0001034929Y0003743685D01*
X0001032116Y0003738061D01*
X0001032114Y0003726813D01*
X0001034925Y0003721188D01*
X0001037737Y0003718376D01*
X0001043361Y0003715563D01*
X0001054609Y0003715561D01*
X0001060234Y0003718372D01*
X0001063047Y0003721184D01*
X0001065860Y0003726808D01*
X0001065861Y0003738056D01*
X0001063050Y0003743681D01*
X0001060238Y0003746494D01*
X0001054614Y0003749307D01*
X0001136162Y0003715548D02*
X0001136168Y0003754918D01*
X0001136167Y0003749294D02*
X0001138979Y0003752106D01*
X0001144604Y0003754917D01*
X0001153040Y0003754916D01*
X0001158664Y0003752103D01*
X0001161476Y0003746478D01*
X0001161471Y0003715544D01*
X0001161476Y0003746478D02*
X0001164289Y0003752102D01*
X0001169913Y0003754913D01*
X0001178350Y0003754912D01*
X0001183974Y0003752099D01*
X0001186785Y0003746474D01*
X0001186780Y0003715540D01*
X0001214902Y0003715536D02*
X0001214908Y0003754906D01*
X0001214907Y0003749282D02*
X0001217719Y0003752094D01*
X0001223344Y0003754905D01*
X0001231781Y0003754904D01*
X0001237405Y0003752091D01*
X0001240216Y0003746466D01*
X0001240211Y0003715532D01*
X0001240216Y0003746466D02*
X0001243029Y0003752090D01*
X0001248654Y0003754901D01*
X0001257090Y0003754900D01*
X0001262714Y0003752087D01*
X0001265525Y0003746462D01*
X0001265520Y0003715528D01*
X0000000089Y0003689289D02*
X0002047254Y0003688974D01*
X0000000078Y0003619606D02*
X0000000105Y0003795588D01*
X0002047244Y0003619291D02*
X0002047271Y0003795273D01*
X0002047254Y0003688974D02*
X0002002900Y0003665893D01*
X0002047254Y0003688974D02*
X0002002907Y0003712068D01*
X0000000089Y0003689289D02*
X0000044436Y0003666195D01*
X0000000089Y0003689289D02*
X0000044443Y0003712369D01*
G04 next file*
G04 Gerber Fmt 4.6, Leading zero omitted, Abs format (unit mm)*
G04 Created by KiCad (PCBNEW 4.0.7) date 11/30/17 23:24:33*
G01G01*
G04 APERTURE LIST*
G04 APERTURE END LIST*
D56*
G04 next file*
G04 Gerber Fmt 4.6, Leading zero omitted, Abs format (unit mm)*
G04 Created by KiCad (PCBNEW 4.0.7) date 11/30/17 23:24:33*
G01G01*
G04 APERTURE LIST*
G04 APERTURE END LIST*
D57*
D58*
X0001622913Y0003317244D02*
X0001402440Y0003317244D01*
X0001402440Y0003317244D02*
X0001402440Y0002978661D01*
X0001402440Y0002978661D02*
X0001622913Y0002978661D01*
X0001622913Y0002978661D02*
X0001622913Y0003317244D01*
X0001158346Y0002920393D02*
X0001378818Y0002920393D01*
X0001378818Y0002920393D02*
X0001378818Y0003396771D01*
X0001378818Y0003396771D02*
X0001158346Y0003396771D01*
X0001158346Y0003396771D02*
X0001158346Y0002920393D01*
X0001809921Y0003437716D02*
X0001809921Y0002896377D01*
X0001809921Y0002896377D02*
X0002296141Y0002896377D01*
X0002296141Y0002896377D02*
X0002296141Y0003437716D01*
X0002296141Y0003437716D02*
X0001809921Y0003437716D01*
X0000289842Y0003418031D02*
X0000624488Y0003418031D01*
X0000624488Y0003418031D02*
X0000624488Y0003181811D01*
X0000624488Y0003181811D02*
X0000289842Y0003181811D01*
X0000289842Y0003181811D02*
X0000289842Y0003418031D01*
X0000626377Y0003177952D02*
X0000285826Y0003177952D01*
X0000285826Y0003177952D02*
X0000285826Y0002935826D01*
X0000285826Y0002935826D02*
X0000626377Y0002935826D01*
X0000626377Y0002935826D02*
X0000626377Y0003177952D01*
X0001672519Y0003355039D02*
X0001739448Y0003355039D01*
X0001739448Y0003355039D02*
X0001739448Y0003201496D01*
X0001739448Y0003201496D02*
X0001672519Y0003201496D01*
X0001672519Y0003201496D02*
X0001672519Y0003355039D01*
X0001672519Y0003141259D02*
X0001739448Y0003141259D01*
X0001739448Y0003141259D02*
X0001739448Y0002987716D01*
X0001739448Y0002987716D02*
X0001672519Y0002987716D01*
X0001672519Y0002987716D02*
X0001672519Y0003141259D01*
G04 next file*
G04 Gerber Fmt 4.6, Leading zero omitted, Abs format (unit mm)*
G04 Created by KiCad (PCBNEW 4.0.7) date 11/30/17 23:24:33*
G01G01*
G04 APERTURE LIST*
G04 APERTURE END LIST*
D59*
G04 next file*
G04 Gerber Fmt 4.6, Leading zero omitted, Abs format (unit mm)*
G04 Created by KiCad (PCBNEW 4.0.7) date 11/30/17 23:31:52*
G01G01*
G04 APERTURE LIST*
G04 APERTURE END LIST*
D60*
D61*
X0002585236Y0002150000D02*
X0002585236Y0002051574D01*
X0002585236Y0002150000D02*
X0002640354Y0002150000D01*
X0002640354Y0002051574D02*
X0002585236Y0002051574D01*
X0002640354Y0002051574D02*
X0002640354Y0002150000D01*
X0002972440Y0002058661D02*
X0002972440Y0002157086D01*
X0002972440Y0002058661D02*
X0002917322Y0002058661D01*
X0002917322Y0002157086D02*
X0002972440Y0002157086D01*
X0002917322Y0002157086D02*
X0002917322Y0002058661D01*
X0002807874Y0002152755D02*
X0002807874Y0002054330D01*
X0002807874Y0002152755D02*
X0002862992Y0002152755D01*
X0002862992Y0002054330D02*
X0002807874Y0002054330D01*
X0002862992Y0002054330D02*
X0002862992Y0002152755D01*
X0002742913Y0002435039D02*
X0002742913Y0002533464D01*
X0002742913Y0002435039D02*
X0002687795Y0002435039D01*
X0002687795Y0002533464D02*
X0002742913Y0002533464D01*
X0002687795Y0002533464D02*
X0002687795Y0002435039D01*
X0002705574Y0002183464D02*
X0002705574Y0002281889D01*
X0002705574Y0002183464D02*
X0002650456Y0002183464D01*
X0002650456Y0002281889D02*
X0002705574Y0002281889D01*
X0002650456Y0002281889D02*
X0002650456Y0002183464D01*
X0002715354Y0002042519D02*
X0002715354Y0001932283D01*
X0002715354Y0002042519D02*
X0002766535Y0002042519D01*
X0002766535Y0001932283D02*
X0002715354Y0001932283D01*
X0002766535Y0001932283D02*
X0002766535Y0002042519D01*
X0002992606Y0002177559D02*
X0002992606Y0002287795D01*
X0002992606Y0002177559D02*
X0002941425Y0002177559D01*
X0002941425Y0002287795D02*
X0002992606Y0002287795D01*
X0002941425Y0002287795D02*
X0002941425Y0002177559D01*
X0002875984Y0002429133D02*
X0002875984Y0002539370D01*
X0002875984Y0002429133D02*
X0002824803Y0002429133D01*
X0002824803Y0002539370D02*
X0002875984Y0002539370D01*
X0002824803Y0002539370D02*
X0002824803Y0002429133D01*
X0002631606Y0002175220D02*
X0002631606Y0002285456D01*
X0002631606Y0002175220D02*
X0002580425Y0002175220D01*
X0002580425Y0002285456D02*
X0002631606Y0002285456D01*
X0002580425Y0002285456D02*
X0002580425Y0002175220D01*
X0002420078Y0001929133D02*
X0002420078Y0002027559D01*
X0002420078Y0001929133D02*
X0002364960Y0001929133D01*
X0002364960Y0002027559D02*
X0002420078Y0002027559D01*
X0002364960Y0002027559D02*
X0002364960Y0001929133D01*
X0003030744Y0002021805D02*
X0003030744Y0001923379D01*
X0003030744Y0002021805D02*
X0003085862Y0002021805D01*
X0003085862Y0001923379D02*
X0003030744Y0001923379D01*
X0003085862Y0001923379D02*
X0003085862Y0002021805D01*
X0003000929Y0001922165D02*
X0003000929Y0002020590D01*
X0003000929Y0001922165D02*
X0002945811Y0001922165D01*
X0002945811Y0002020590D02*
X0003000929Y0002020590D01*
X0002945811Y0002020590D02*
X0002945811Y0001922165D01*
X0002345275Y0001928346D02*
X0002195669Y0001928346D01*
X0002345275Y0002070078D02*
X0002345275Y0001928346D01*
X0002195669Y0002070078D02*
X0002345275Y0002070078D01*
X0002195669Y0001928346D02*
X0002195669Y0002070078D01*
X0002755511Y0002533464D02*
X0002755511Y0002435039D01*
X0002755511Y0002533464D02*
X0002810629Y0002533464D01*
X0002810629Y0002435039D02*
X0002755511Y0002435039D01*
X0002810629Y0002435039D02*
X0002810629Y0002533464D01*
X0002718456Y0002281889D02*
X0002718456Y0002183464D01*
X0002718456Y0002281889D02*
X0002773574Y0002281889D01*
X0002773574Y0002183464D02*
X0002718456Y0002183464D01*
X0002773574Y0002183464D02*
X0002773574Y0002281889D01*
X0002838574Y0002183464D02*
X0002838574Y0002281889D01*
X0002838574Y0002183464D02*
X0002783456Y0002183464D01*
X0002783456Y0002281889D02*
X0002838574Y0002281889D01*
X0002783456Y0002281889D02*
X0002783456Y0002183464D01*
X0002875196Y0002281889D02*
X0002875196Y0002183464D01*
X0002875196Y0002281889D02*
X0002930314Y0002281889D01*
X0002930314Y0002183464D02*
X0002875196Y0002183464D01*
X0002930314Y0002183464D02*
X0002930314Y0002281889D01*
X0002359692Y0002625456D02*
X0002359692Y0002527031D01*
X0002359692Y0002625456D02*
X0002414811Y0002625456D01*
X0002414811Y0002527031D02*
X0002359692Y0002527031D01*
X0002414811Y0002527031D02*
X0002414811Y0002625456D01*
X0002617322Y0002536220D02*
X0002617322Y0002437795D01*
X0002617322Y0002536220D02*
X0002672440Y0002536220D01*
X0002672440Y0002437795D02*
X0002617322Y0002437795D01*
X0002672440Y0002437795D02*
X0002672440Y0002536220D01*
X0002282811Y0002527031D02*
X0002282811Y0002625456D01*
X0002282811Y0002527031D02*
X0002227692Y0002527031D01*
X0002227692Y0002625456D02*
X0002282811Y0002625456D01*
X0002227692Y0002625456D02*
X0002227692Y0002527031D01*
X0002293692Y0002625456D02*
X0002293692Y0002527031D01*
X0002293692Y0002625456D02*
X0002348811Y0002625456D01*
X0002348811Y0002527031D02*
X0002293692Y0002527031D01*
X0002348811Y0002527031D02*
X0002348811Y0002625456D01*
X0002116937Y0002314960D02*
X0002116937Y0002216535D01*
X0002116937Y0002314960D02*
X0002172055Y0002314960D01*
X0002172055Y0002216535D02*
X0002116937Y0002216535D01*
X0002172055Y0002216535D02*
X0002172055Y0002314960D01*
X0002165354Y0001910433D02*
X0002066929Y0001910433D01*
X0002165354Y0001910433D02*
X0002165354Y0001855314D01*
X0002066929Y0001855314D02*
X0002066929Y0001910433D01*
X0002066929Y0001855314D02*
X0002165354Y0001855314D01*
X0002165354Y0002059055D02*
X0002066929Y0002059055D01*
X0002165354Y0002059055D02*
X0002165354Y0002003937D01*
X0002066929Y0002003937D02*
X0002066929Y0002059055D01*
X0002066929Y0002003937D02*
X0002165354Y0002003937D01*
X0002165354Y0001988188D02*
X0002066929Y0001988188D01*
X0002165354Y0001988188D02*
X0002165354Y0001933070D01*
X0002066929Y0001933070D02*
X0002066929Y0001988188D01*
X0002066929Y0001933070D02*
X0002165354Y0001933070D01*
X0002585236Y0002038960D02*
X0002585236Y0001940535D01*
X0002585236Y0002038960D02*
X0002640354Y0002038960D01*
X0002640354Y0001940535D02*
X0002585236Y0001940535D01*
X0002640354Y0001940535D02*
X0002640354Y0002038960D01*
X0002648236Y0002038960D02*
X0002648236Y0001940535D01*
X0002648236Y0002038960D02*
X0002703354Y0002038960D01*
X0002703354Y0001940535D02*
X0002648236Y0001940535D01*
X0002703354Y0001940535D02*
X0002703354Y0002038960D01*
X0002523236Y0002037960D02*
X0002523236Y0001939535D01*
X0002523236Y0002037960D02*
X0002578354Y0002037960D01*
X0002578354Y0001939535D02*
X0002523236Y0001939535D01*
X0002578354Y0001939535D02*
X0002578354Y0002037960D01*
X0002212598Y0002637795D02*
X0002078740Y0002637795D01*
X0002078740Y0002637795D02*
X0002078740Y0002500000D01*
X0002078740Y0002500000D02*
X0002212598Y0002500000D01*
X0002212598Y0002500000D02*
X0002212598Y0002637795D01*
X0002564566Y0002174803D02*
X0002564566Y0002285039D01*
X0002564566Y0002174803D02*
X0002513385Y0002174803D01*
X0002513385Y0002285039D02*
X0002564566Y0002285039D01*
X0002513385Y0002285039D02*
X0002513385Y0002174803D01*
X0002422937Y0002512299D02*
X0002312700Y0002512299D01*
X0002422937Y0002512299D02*
X0002422937Y0002461118D01*
X0002312700Y0002461118D02*
X0002312700Y0002512299D01*
X0002312700Y0002461118D02*
X0002422937Y0002461118D01*
X0002459055Y0002285433D02*
X0002459055Y0002175196D01*
X0002459055Y0002285433D02*
X0002510236Y0002285433D01*
X0002510236Y0002175196D02*
X0002459055Y0002175196D01*
X0002510236Y0002175196D02*
X0002510236Y0002285433D01*
X0002397637Y0002174803D02*
X0002397637Y0002285039D01*
X0002397637Y0002174803D02*
X0002346456Y0002174803D01*
X0002346456Y0002285039D02*
X0002397637Y0002285039D01*
X0002346456Y0002285039D02*
X0002346456Y0002174803D01*
X0002510385Y0001934629D02*
X0002510385Y0002044866D01*
X0002510385Y0001934629D02*
X0002459204Y0001934629D01*
X0002459204Y0002044866D02*
X0002510385Y0002044866D01*
X0002459204Y0002044866D02*
X0002459204Y0001934629D01*
X0002779133Y0002042519D02*
X0002779133Y0001932283D01*
X0002779133Y0002042519D02*
X0002830314Y0002042519D01*
X0002830314Y0001932283D02*
X0002779133Y0001932283D01*
X0002830314Y0001932283D02*
X0002830314Y0002042519D01*
X0002422937Y0002449299D02*
X0002312700Y0002449299D01*
X0002422937Y0002449299D02*
X0002422937Y0002398118D01*
X0002312700Y0002398118D02*
X0002312700Y0002449299D01*
X0002312700Y0002398118D02*
X0002422937Y0002398118D01*
X0002444094Y0002388582D02*
X0002593700Y0002388582D01*
X0002593700Y0002388582D02*
X0002593700Y0002530314D01*
X0002593700Y0002530314D02*
X0002444094Y0002530314D01*
X0002444094Y0002530314D02*
X0002444094Y0002388582D01*
G04 next file*
G04 Gerber Fmt 4.6, Leading zero omitted, Abs format (unit mm)*
G04 Created by KiCad (PCBNEW 4.0.7) date 11/30/17 23:31:52*
G01G01*
G04 APERTURE LIST*
G04 APERTURE END LIST*
D62*
G04 next file*
G04 Gerber Fmt 4.6, Leading zero omitted, Abs format (unit mm)*
G04 Created by KiCad (PCBNEW 4.0.7) date 11/30/17 23:31:52*
G01G01*
G04 APERTURE LIST*
G04 APERTURE END LIST*
D63*
G04 next file*
G04 Gerber Fmt 4.6, Leading zero omitted, Abs format (unit mm)*
G04 Created by KiCad (PCBNEW 4.0.7) date 11/30/17 23:31:52*
G01G01*
G04 APERTURE LIST*
G04 APERTURE END LIST*
D64*
D65*
X0002003093Y0002508436D02*
X0002005905Y0002505624D01*
X0002008717Y0002499999D01*
X0002008717Y0002485939D01*
X0002005905Y0002480314D01*
X0002003093Y0002477502D01*
X0001997469Y0002474690D01*
X0001991844Y0002474690D01*
X0001983408Y0002477502D01*
X0001949662Y0002511248D01*
X0001949662Y0002474690D01*
X0002008717Y0002455005D02*
X0002008717Y0002418447D01*
X0001986220Y0002438132D01*
X0001986220Y0002429696D01*
X0001983408Y0002424071D01*
X0001980596Y0002421259D01*
X0001974971Y0002418447D01*
X0001960911Y0002418447D01*
X0001955286Y0002421259D01*
X0001952474Y0002424071D01*
X0001949662Y0002429696D01*
X0001949662Y0002446569D01*
X0001952474Y0002452193D01*
X0001955286Y0002455005D01*
X0001955286Y0002393138D02*
X0001952474Y0002390326D01*
X0001949662Y0002393138D01*
X0001952474Y0002395950D01*
X0001955286Y0002393138D01*
X0001949662Y0002393138D01*
X0002008717Y0002353768D02*
X0002008717Y0002348143D01*
X0002005905Y0002342519D01*
X0002003093Y0002339707D01*
X0001997469Y0002336895D01*
X0001986220Y0002334083D01*
X0001972159Y0002334083D01*
X0001960911Y0002336895D01*
X0001955286Y0002339707D01*
X0001952474Y0002342519D01*
X0001949662Y0002348143D01*
X0001949662Y0002353768D01*
X0001952474Y0002359392D01*
X0001955286Y0002362204D01*
X0001960911Y0002365016D01*
X0001972159Y0002367829D01*
X0001986220Y0002367829D01*
X0001997469Y0002365016D01*
X0002003093Y0002362204D01*
X0002005905Y0002359392D01*
X0002008717Y0002353768D01*
X0002008717Y0002297525D02*
X0002008717Y0002291901D01*
X0002005905Y0002286276D01*
X0002003093Y0002283464D01*
X0001997469Y0002280652D01*
X0001986220Y0002277840D01*
X0001972159Y0002277840D01*
X0001960911Y0002280652D01*
X0001955286Y0002283464D01*
X0001952474Y0002286276D01*
X0001949662Y0002291901D01*
X0001949662Y0002297525D01*
X0001952474Y0002303149D01*
X0001955286Y0002305961D01*
X0001960911Y0002308773D01*
X0001972159Y0002311586D01*
X0001986220Y0002311586D01*
X0001997469Y0002308773D01*
X0002003093Y0002305961D01*
X0002005905Y0002303149D01*
X0002008717Y0002297525D01*
X0002008717Y0002241282D02*
X0002008717Y0002235658D01*
X0002005905Y0002230033D01*
X0002003093Y0002227221D01*
X0001997469Y0002224409D01*
X0001986220Y0002221597D01*
X0001972159Y0002221597D01*
X0001960911Y0002224409D01*
X0001955286Y0002227221D01*
X0001952474Y0002230033D01*
X0001949662Y0002235658D01*
X0001949662Y0002241282D01*
X0001952474Y0002246906D01*
X0001955286Y0002249718D01*
X0001960911Y0002252530D01*
X0001972159Y0002255343D01*
X0001986220Y0002255343D01*
X0001997469Y0002252530D01*
X0002003093Y0002249718D01*
X0002005905Y0002246906D01*
X0002008717Y0002241282D01*
X0001949662Y0002151293D02*
X0001989032Y0002151293D01*
X0001983408Y0002151293D02*
X0001986220Y0002148481D01*
X0001989032Y0002142857D01*
X0001989032Y0002134420D01*
X0001986220Y0002128796D01*
X0001980596Y0002125984D01*
X0001949662Y0002125984D01*
X0001980596Y0002125984D02*
X0001986220Y0002123172D01*
X0001989032Y0002117547D01*
X0001989032Y0002109111D01*
X0001986220Y0002103487D01*
X0001980596Y0002100674D01*
X0001949662Y0002100674D01*
X0001949662Y0002072553D02*
X0001989032Y0002072553D01*
X0001983408Y0002072553D02*
X0001986220Y0002069741D01*
X0001989032Y0002064117D01*
X0001989032Y0002055680D01*
X0001986220Y0002050056D01*
X0001980596Y0002047244D01*
X0001949662Y0002047244D01*
X0001980596Y0002047244D02*
X0001986220Y0002044431D01*
X0001989032Y0002038807D01*
X0001989032Y0002030371D01*
X0001986220Y0002024746D01*
X0001980596Y0002021934D01*
X0001949662Y0002021934D01*
X0002029527Y0002716535D02*
X0002029527Y0001811023D01*
X0002047244Y0002716535D02*
X0001923228Y0002716535D01*
X0002047244Y0001811023D02*
X0001923228Y0001811023D01*
X0002029527Y0001811023D02*
X0002006440Y0001855374D01*
X0002029527Y0001811023D02*
X0002052614Y0001855374D01*
X0002029527Y0002716535D02*
X0002006440Y0002672184D01*
X0002029527Y0002716535D02*
X0002052614Y0002672184D01*
X0002425759Y0002865016D02*
X0002462317Y0002865016D01*
X0002442632Y0002842519D01*
X0002451068Y0002842519D01*
X0002456692Y0002839707D01*
X0002459505Y0002836895D01*
X0002462317Y0002831271D01*
X0002462317Y0002817210D01*
X0002459505Y0002811586D01*
X0002456692Y0002808773D01*
X0002451068Y0002805961D01*
X0002434195Y0002805961D01*
X0002428571Y0002808773D01*
X0002425759Y0002811586D01*
X0002518560Y0002805961D02*
X0002484814Y0002805961D01*
X0002501687Y0002805961D02*
X0002501687Y0002865016D01*
X0002496063Y0002856580D01*
X0002490438Y0002850956D01*
X0002484814Y0002848143D01*
X0002543869Y0002811586D02*
X0002546681Y0002808773D01*
X0002543869Y0002805961D01*
X0002541057Y0002808773D01*
X0002543869Y0002811586D01*
X0002543869Y0002805961D01*
X0002580427Y0002839707D02*
X0002574803Y0002842519D01*
X0002571990Y0002845331D01*
X0002569178Y0002850956D01*
X0002569178Y0002853768D01*
X0002571990Y0002859392D01*
X0002574803Y0002862204D01*
X0002580427Y0002865016D01*
X0002591676Y0002865016D01*
X0002597300Y0002862204D01*
X0002600112Y0002859392D01*
X0002602924Y0002853768D01*
X0002602924Y0002850956D01*
X0002600112Y0002845331D01*
X0002597300Y0002842519D01*
X0002591676Y0002839707D01*
X0002580427Y0002839707D01*
X0002574803Y0002836895D01*
X0002571990Y0002834083D01*
X0002569178Y0002828458D01*
X0002569178Y0002817210D01*
X0002571990Y0002811586D01*
X0002574803Y0002808773D01*
X0002580427Y0002805961D01*
X0002591676Y0002805961D01*
X0002597300Y0002808773D01*
X0002600112Y0002811586D01*
X0002602924Y0002817210D01*
X0002602924Y0002828458D01*
X0002600112Y0002834083D01*
X0002597300Y0002836895D01*
X0002591676Y0002839707D01*
X0002639482Y0002865016D02*
X0002645106Y0002865016D01*
X0002650731Y0002862204D01*
X0002653543Y0002859392D01*
X0002656355Y0002853768D01*
X0002659167Y0002842519D01*
X0002659167Y0002828458D01*
X0002656355Y0002817210D01*
X0002653543Y0002811586D01*
X0002650731Y0002808773D01*
X0002645106Y0002805961D01*
X0002639482Y0002805961D01*
X0002633858Y0002808773D01*
X0002631046Y0002811586D01*
X0002628233Y0002817210D01*
X0002625421Y0002828458D01*
X0002625421Y0002842519D01*
X0002628233Y0002853768D01*
X0002631046Y0002859392D01*
X0002633858Y0002862204D01*
X0002639482Y0002865016D01*
X0002695725Y0002865016D02*
X0002701349Y0002865016D01*
X0002706974Y0002862204D01*
X0002709786Y0002859392D01*
X0002712598Y0002853768D01*
X0002715410Y0002842519D01*
X0002715410Y0002828458D01*
X0002712598Y0002817210D01*
X0002709786Y0002811586D01*
X0002706974Y0002808773D01*
X0002701349Y0002805961D01*
X0002695725Y0002805961D01*
X0002690101Y0002808773D01*
X0002687289Y0002811586D01*
X0002684476Y0002817210D01*
X0002681664Y0002828458D01*
X0002681664Y0002842519D01*
X0002684476Y0002853768D01*
X0002687289Y0002859392D01*
X0002690101Y0002862204D01*
X0002695725Y0002865016D01*
X0002785714Y0002805961D02*
X0002785714Y0002845331D01*
X0002785714Y0002839707D02*
X0002788526Y0002842519D01*
X0002794150Y0002845331D01*
X0002802587Y0002845331D01*
X0002808211Y0002842519D01*
X0002811023Y0002836895D01*
X0002811023Y0002805961D01*
X0002811023Y0002836895D02*
X0002813835Y0002842519D01*
X0002819460Y0002845331D01*
X0002827896Y0002845331D01*
X0002833520Y0002842519D01*
X0002836332Y0002836895D01*
X0002836332Y0002805961D01*
X0002864454Y0002805961D02*
X0002864454Y0002845331D01*
X0002864454Y0002839707D02*
X0002867266Y0002842519D01*
X0002872890Y0002845331D01*
X0002881327Y0002845331D01*
X0002886951Y0002842519D01*
X0002889763Y0002836895D01*
X0002889763Y0002805961D01*
X0002889763Y0002836895D02*
X0002892575Y0002842519D01*
X0002898200Y0002845331D01*
X0002906636Y0002845331D01*
X0002912260Y0002842519D01*
X0002915073Y0002836895D01*
X0002915073Y0002805961D01*
X0002047244Y0002779527D02*
X0003299212Y0002779527D01*
X0002047244Y0002716535D02*
X0002047244Y0002885826D01*
X0003299212Y0002716535D02*
X0003299212Y0002885826D01*
X0003299212Y0002779527D02*
X0003254862Y0002756440D01*
X0003299212Y0002779527D02*
X0003254862Y0002802615D01*
X0002047244Y0002779527D02*
X0002091594Y0002756440D01*
X0002047244Y0002779527D02*
X0002091594Y0002802615D01*
G04 next file*
G04 Gerber Fmt 4.6, Leading zero omitted, Abs format (unit mm)*
G04 Created by KiCad (PCBNEW 4.0.7) date 11/30/17 23:31:52*
G01G01*
G04 APERTURE LIST*
G04 APERTURE END LIST*
D66*
G04 next file*
G04 Gerber Fmt 4.6, Leading zero omitted, Abs format (unit mm)*
G04 Created by KiCad (PCBNEW 4.0.7) date 11/30/17 23:31:52*
G01G01*
G04 APERTURE LIST*
G04 APERTURE END LIST*
D67*
D68*
X0003095881Y0002668204D02*
X0002454149Y0002668204D01*
X0002454149Y0002668204D02*
X0002454149Y0002526472D01*
X0002454149Y0002526472D02*
X0003095881Y0002526472D01*
X0003095881Y0002526472D02*
X0003095881Y0002668204D01*
X0002322779Y0001993606D02*
X0002543251Y0001993606D01*
X0002543251Y0001993606D02*
X0002543251Y0002469984D01*
X0002543251Y0002469984D02*
X0002322779Y0002469984D01*
X0002322779Y0002469984D02*
X0002322779Y0001993606D01*
X0002430787Y0001965803D02*
X0002430787Y0001898874D01*
X0002430787Y0001898874D02*
X0002277244Y0001898874D01*
X0002277244Y0001898874D02*
X0002277244Y0001965803D01*
X0002277244Y0001965803D02*
X0002430787Y0001965803D01*
X0003091768Y0001895427D02*
X0003024839Y0001895427D01*
X0003024839Y0001895427D02*
X0003024839Y0002048970D01*
X0003024839Y0002048970D02*
X0003091768Y0002048970D01*
X0003091768Y0002048970D02*
X0003091768Y0001895427D01*
X0003006834Y0001894606D02*
X0002939905Y0001894606D01*
X0002939905Y0001894606D02*
X0002939905Y0002048149D01*
X0002939905Y0002048149D02*
X0003006834Y0002048149D01*
X0003006834Y0002048149D02*
X0003006834Y0001894606D01*
G04 next file*
G04 Gerber Fmt 4.6, Leading zero omitted, Abs format (unit mm)*
G04 Created by KiCad (PCBNEW 4.0.7) date 11/30/17 23:31:52*
G01G01*
G04 APERTURE LIST*
G04 APERTURE END LIST*
D69*
G04 next file*
G04 Gerber Fmt 4.6, Leading zero omitted, Abs format (unit mm)*
G04 Created by KiCad (PCBNEW 4.0.7) date 11/30/17 23:31:52*
G01G01*
G04 APERTURE LIST*
G04 APERTURE END LIST*
D70*
D71*
X0002585236Y0001244488D02*
X0002585236Y0001146062D01*
X0002585236Y0001244488D02*
X0002640354Y0001244488D01*
X0002640354Y0001146062D02*
X0002585236Y0001146062D01*
X0002640354Y0001146062D02*
X0002640354Y0001244488D01*
X0002972440Y0001153149D02*
X0002972440Y0001251574D01*
X0002972440Y0001153149D02*
X0002917322Y0001153149D01*
X0002917322Y0001251574D02*
X0002972440Y0001251574D01*
X0002917322Y0001251574D02*
X0002917322Y0001153149D01*
X0002807874Y0001247244D02*
X0002807874Y0001148818D01*
X0002807874Y0001247244D02*
X0002862992Y0001247244D01*
X0002862992Y0001148818D02*
X0002807874Y0001148818D01*
X0002862992Y0001148818D02*
X0002862992Y0001247244D01*
X0002742913Y0001529527D02*
X0002742913Y0001627952D01*
X0002742913Y0001529527D02*
X0002687795Y0001529527D01*
X0002687795Y0001627952D02*
X0002742913Y0001627952D01*
X0002687795Y0001627952D02*
X0002687795Y0001529527D01*
X0002705574Y0001277952D02*
X0002705574Y0001376377D01*
X0002705574Y0001277952D02*
X0002650456Y0001277952D01*
X0002650456Y0001376377D02*
X0002705574Y0001376377D01*
X0002650456Y0001376377D02*
X0002650456Y0001277952D01*
X0002715354Y0001137007D02*
X0002715354Y0001026771D01*
X0002715354Y0001137007D02*
X0002766535Y0001137007D01*
X0002766535Y0001026771D02*
X0002715354Y0001026771D01*
X0002766535Y0001026771D02*
X0002766535Y0001137007D01*
X0002992606Y0001272047D02*
X0002992606Y0001382283D01*
X0002992606Y0001272047D02*
X0002941425Y0001272047D01*
X0002941425Y0001382283D02*
X0002992606Y0001382283D01*
X0002941425Y0001382283D02*
X0002941425Y0001272047D01*
X0002875984Y0001523622D02*
X0002875984Y0001633858D01*
X0002875984Y0001523622D02*
X0002824803Y0001523622D01*
X0002824803Y0001633858D02*
X0002875984Y0001633858D01*
X0002824803Y0001633858D02*
X0002824803Y0001523622D01*
X0002631606Y0001269708D02*
X0002631606Y0001379944D01*
X0002631606Y0001269708D02*
X0002580425Y0001269708D01*
X0002580425Y0001379944D02*
X0002631606Y0001379944D01*
X0002580425Y0001379944D02*
X0002580425Y0001269708D01*
X0002420078Y0001023622D02*
X0002420078Y0001122047D01*
X0002420078Y0001023622D02*
X0002364960Y0001023622D01*
X0002364960Y0001122047D02*
X0002420078Y0001122047D01*
X0002364960Y0001122047D02*
X0002364960Y0001023622D01*
X0003030744Y0001116293D02*
X0003030744Y0001017868D01*
X0003030744Y0001116293D02*
X0003085862Y0001116293D01*
X0003085862Y0001017868D02*
X0003030744Y0001017868D01*
X0003085862Y0001017868D02*
X0003085862Y0001116293D01*
X0003000929Y0001016653D02*
X0003000929Y0001115078D01*
X0003000929Y0001016653D02*
X0002945811Y0001016653D01*
X0002945811Y0001115078D02*
X0003000929Y0001115078D01*
X0002945811Y0001115078D02*
X0002945811Y0001016653D01*
X0002345275Y0001022834D02*
X0002195669Y0001022834D01*
X0002345275Y0001164566D02*
X0002345275Y0001022834D01*
X0002195669Y0001164566D02*
X0002345275Y0001164566D01*
X0002195669Y0001022834D02*
X0002195669Y0001164566D01*
X0002755511Y0001627952D02*
X0002755511Y0001529527D01*
X0002755511Y0001627952D02*
X0002810629Y0001627952D01*
X0002810629Y0001529527D02*
X0002755511Y0001529527D01*
X0002810629Y0001529527D02*
X0002810629Y0001627952D01*
X0002718456Y0001376377D02*
X0002718456Y0001277952D01*
X0002718456Y0001376377D02*
X0002773574Y0001376377D01*
X0002773574Y0001277952D02*
X0002718456Y0001277952D01*
X0002773574Y0001277952D02*
X0002773574Y0001376377D01*
X0002838574Y0001277952D02*
X0002838574Y0001376377D01*
X0002838574Y0001277952D02*
X0002783456Y0001277952D01*
X0002783456Y0001376377D02*
X0002838574Y0001376377D01*
X0002783456Y0001376377D02*
X0002783456Y0001277952D01*
X0002875196Y0001376377D02*
X0002875196Y0001277952D01*
X0002875196Y0001376377D02*
X0002930314Y0001376377D01*
X0002930314Y0001277952D02*
X0002875196Y0001277952D01*
X0002930314Y0001277952D02*
X0002930314Y0001376377D01*
X0002359692Y0001719944D02*
X0002359692Y0001621519D01*
X0002359692Y0001719944D02*
X0002414811Y0001719944D01*
X0002414811Y0001621519D02*
X0002359692Y0001621519D01*
X0002414811Y0001621519D02*
X0002414811Y0001719944D01*
X0002617322Y0001630708D02*
X0002617322Y0001532283D01*
X0002617322Y0001630708D02*
X0002672440Y0001630708D01*
X0002672440Y0001532283D02*
X0002617322Y0001532283D01*
X0002672440Y0001532283D02*
X0002672440Y0001630708D01*
X0002282811Y0001621519D02*
X0002282811Y0001719944D01*
X0002282811Y0001621519D02*
X0002227692Y0001621519D01*
X0002227692Y0001719944D02*
X0002282811Y0001719944D01*
X0002227692Y0001719944D02*
X0002227692Y0001621519D01*
X0002293692Y0001719944D02*
X0002293692Y0001621519D01*
X0002293692Y0001719944D02*
X0002348811Y0001719944D01*
X0002348811Y0001621519D02*
X0002293692Y0001621519D01*
X0002348811Y0001621519D02*
X0002348811Y0001719944D01*
X0002116937Y0001409448D02*
X0002116937Y0001311023D01*
X0002116937Y0001409448D02*
X0002172055Y0001409448D01*
X0002172055Y0001311023D02*
X0002116937Y0001311023D01*
X0002172055Y0001311023D02*
X0002172055Y0001409448D01*
X0002165354Y0001004921D02*
X0002066929Y0001004921D01*
X0002165354Y0001004921D02*
X0002165354Y0000949803D01*
X0002066929Y0000949803D02*
X0002066929Y0001004921D01*
X0002066929Y0000949803D02*
X0002165354Y0000949803D01*
X0002165354Y0001153543D02*
X0002066929Y0001153543D01*
X0002165354Y0001153543D02*
X0002165354Y0001098425D01*
X0002066929Y0001098425D02*
X0002066929Y0001153543D01*
X0002066929Y0001098425D02*
X0002165354Y0001098425D01*
X0002165354Y0001082677D02*
X0002066929Y0001082677D01*
X0002165354Y0001082677D02*
X0002165354Y0001027559D01*
X0002066929Y0001027559D02*
X0002066929Y0001082677D01*
X0002066929Y0001027559D02*
X0002165354Y0001027559D01*
X0002585236Y0001133448D02*
X0002585236Y0001035023D01*
X0002585236Y0001133448D02*
X0002640354Y0001133448D01*
X0002640354Y0001035023D02*
X0002585236Y0001035023D01*
X0002640354Y0001035023D02*
X0002640354Y0001133448D01*
X0002648236Y0001133448D02*
X0002648236Y0001035023D01*
X0002648236Y0001133448D02*
X0002703354Y0001133448D01*
X0002703354Y0001035023D02*
X0002648236Y0001035023D01*
X0002703354Y0001035023D02*
X0002703354Y0001133448D01*
X0002523236Y0001132448D02*
X0002523236Y0001034023D01*
X0002523236Y0001132448D02*
X0002578354Y0001132448D01*
X0002578354Y0001034023D02*
X0002523236Y0001034023D01*
X0002578354Y0001034023D02*
X0002578354Y0001132448D01*
X0002212598Y0001732283D02*
X0002078740Y0001732283D01*
X0002078740Y0001732283D02*
X0002078740Y0001594488D01*
X0002078740Y0001594488D02*
X0002212598Y0001594488D01*
X0002212598Y0001594488D02*
X0002212598Y0001732283D01*
X0002564566Y0001269291D02*
X0002564566Y0001379527D01*
X0002564566Y0001269291D02*
X0002513385Y0001269291D01*
X0002513385Y0001379527D02*
X0002564566Y0001379527D01*
X0002513385Y0001379527D02*
X0002513385Y0001269291D01*
X0002422937Y0001606787D02*
X0002312700Y0001606787D01*
X0002422937Y0001606787D02*
X0002422937Y0001555606D01*
X0002312700Y0001555606D02*
X0002312700Y0001606787D01*
X0002312700Y0001555606D02*
X0002422937Y0001555606D01*
X0002459055Y0001379921D02*
X0002459055Y0001269685D01*
X0002459055Y0001379921D02*
X0002510236Y0001379921D01*
X0002510236Y0001269685D02*
X0002459055Y0001269685D01*
X0002510236Y0001269685D02*
X0002510236Y0001379921D01*
X0002397637Y0001269291D02*
X0002397637Y0001379527D01*
X0002397637Y0001269291D02*
X0002346456Y0001269291D01*
X0002346456Y0001379527D02*
X0002397637Y0001379527D01*
X0002346456Y0001379527D02*
X0002346456Y0001269291D01*
X0002510385Y0001029118D02*
X0002510385Y0001139354D01*
X0002510385Y0001029118D02*
X0002459204Y0001029118D01*
X0002459204Y0001139354D02*
X0002510385Y0001139354D01*
X0002459204Y0001139354D02*
X0002459204Y0001029118D01*
X0002779133Y0001137007D02*
X0002779133Y0001026771D01*
X0002779133Y0001137007D02*
X0002830314Y0001137007D01*
X0002830314Y0001026771D02*
X0002779133Y0001026771D01*
X0002830314Y0001026771D02*
X0002830314Y0001137007D01*
X0002422937Y0001543787D02*
X0002312700Y0001543787D01*
X0002422937Y0001543787D02*
X0002422937Y0001492606D01*
X0002312700Y0001492606D02*
X0002312700Y0001543787D01*
X0002312700Y0001492606D02*
X0002422937Y0001492606D01*
X0002444094Y0001483070D02*
X0002593700Y0001483070D01*
X0002593700Y0001483070D02*
X0002593700Y0001624803D01*
X0002593700Y0001624803D02*
X0002444094Y0001624803D01*
X0002444094Y0001624803D02*
X0002444094Y0001483070D01*
G04 next file*
G04 Gerber Fmt 4.6, Leading zero omitted, Abs format (unit mm)*
G04 Created by KiCad (PCBNEW 4.0.7) date 11/30/17 23:31:52*
G01G01*
G04 APERTURE LIST*
G04 APERTURE END LIST*
D72*
G04 next file*
G04 Gerber Fmt 4.6, Leading zero omitted, Abs format (unit mm)*
G04 Created by KiCad (PCBNEW 4.0.7) date 11/30/17 23:31:52*
G01G01*
G04 APERTURE LIST*
G04 APERTURE END LIST*
D73*
G04 next file*
G04 Gerber Fmt 4.6, Leading zero omitted, Abs format (unit mm)*
G04 Created by KiCad (PCBNEW 4.0.7) date 11/30/17 23:31:52*
G01G01*
G04 APERTURE LIST*
G04 APERTURE END LIST*
D74*
D75*
X0002003093Y0001602924D02*
X0002005905Y0001600112D01*
X0002008717Y0001594488D01*
X0002008717Y0001580427D01*
X0002005905Y0001574803D01*
X0002003093Y0001571990D01*
X0001997469Y0001569178D01*
X0001991844Y0001569178D01*
X0001983408Y0001571990D01*
X0001949662Y0001605736D01*
X0001949662Y0001569178D01*
X0002008717Y0001549493D02*
X0002008717Y0001512935D01*
X0001986220Y0001532620D01*
X0001986220Y0001524184D01*
X0001983408Y0001518560D01*
X0001980596Y0001515747D01*
X0001974971Y0001512935D01*
X0001960911Y0001512935D01*
X0001955286Y0001515747D01*
X0001952474Y0001518560D01*
X0001949662Y0001524184D01*
X0001949662Y0001541057D01*
X0001952474Y0001546681D01*
X0001955286Y0001549493D01*
X0001955286Y0001487626D02*
X0001952474Y0001484814D01*
X0001949662Y0001487626D01*
X0001952474Y0001490438D01*
X0001955286Y0001487626D01*
X0001949662Y0001487626D01*
X0002008717Y0001448256D02*
X0002008717Y0001442632D01*
X0002005905Y0001437007D01*
X0002003093Y0001434195D01*
X0001997469Y0001431383D01*
X0001986220Y0001428571D01*
X0001972159Y0001428571D01*
X0001960911Y0001431383D01*
X0001955286Y0001434195D01*
X0001952474Y0001437007D01*
X0001949662Y0001442632D01*
X0001949662Y0001448256D01*
X0001952474Y0001453880D01*
X0001955286Y0001456692D01*
X0001960911Y0001459505D01*
X0001972159Y0001462317D01*
X0001986220Y0001462317D01*
X0001997469Y0001459505D01*
X0002003093Y0001456692D01*
X0002005905Y0001453880D01*
X0002008717Y0001448256D01*
X0002008717Y0001392013D02*
X0002008717Y0001386389D01*
X0002005905Y0001380764D01*
X0002003093Y0001377952D01*
X0001997469Y0001375140D01*
X0001986220Y0001372328D01*
X0001972159Y0001372328D01*
X0001960911Y0001375140D01*
X0001955286Y0001377952D01*
X0001952474Y0001380764D01*
X0001949662Y0001386389D01*
X0001949662Y0001392013D01*
X0001952474Y0001397637D01*
X0001955286Y0001400449D01*
X0001960911Y0001403262D01*
X0001972159Y0001406074D01*
X0001986220Y0001406074D01*
X0001997469Y0001403262D01*
X0002003093Y0001400449D01*
X0002005905Y0001397637D01*
X0002008717Y0001392013D01*
X0002008717Y0001335770D02*
X0002008717Y0001330146D01*
X0002005905Y0001324521D01*
X0002003093Y0001321709D01*
X0001997469Y0001318897D01*
X0001986220Y0001316085D01*
X0001972159Y0001316085D01*
X0001960911Y0001318897D01*
X0001955286Y0001321709D01*
X0001952474Y0001324521D01*
X0001949662Y0001330146D01*
X0001949662Y0001335770D01*
X0001952474Y0001341394D01*
X0001955286Y0001344207D01*
X0001960911Y0001347019D01*
X0001972159Y0001349831D01*
X0001986220Y0001349831D01*
X0001997469Y0001347019D01*
X0002003093Y0001344207D01*
X0002005905Y0001341394D01*
X0002008717Y0001335770D01*
X0001949662Y0001245781D02*
X0001989032Y0001245781D01*
X0001983408Y0001245781D02*
X0001986220Y0001242969D01*
X0001989032Y0001237345D01*
X0001989032Y0001228908D01*
X0001986220Y0001223284D01*
X0001980596Y0001220472D01*
X0001949662Y0001220472D01*
X0001980596Y0001220472D02*
X0001986220Y0001217660D01*
X0001989032Y0001212036D01*
X0001989032Y0001203599D01*
X0001986220Y0001197975D01*
X0001980596Y0001195163D01*
X0001949662Y0001195163D01*
X0001949662Y0001167041D02*
X0001989032Y0001167041D01*
X0001983408Y0001167041D02*
X0001986220Y0001164229D01*
X0001989032Y0001158605D01*
X0001989032Y0001150168D01*
X0001986220Y0001144544D01*
X0001980596Y0001141732D01*
X0001949662Y0001141732D01*
X0001980596Y0001141732D02*
X0001986220Y0001138920D01*
X0001989032Y0001133295D01*
X0001989032Y0001124859D01*
X0001986220Y0001119235D01*
X0001980596Y0001116422D01*
X0001949662Y0001116422D01*
X0002029527Y0001811023D02*
X0002029527Y0000905511D01*
X0002047244Y0001811023D02*
X0001923228Y0001811023D01*
X0002047244Y0000905511D02*
X0001923228Y0000905511D01*
X0002029527Y0000905511D02*
X0002006440Y0000949862D01*
X0002029527Y0000905511D02*
X0002052614Y0000949862D01*
X0002029527Y0001811023D02*
X0002006440Y0001766673D01*
X0002029527Y0001811023D02*
X0002052614Y0001766673D01*
X0002425759Y0001959505D02*
X0002462317Y0001959505D01*
X0002442632Y0001937007D01*
X0002451068Y0001937007D01*
X0002456692Y0001934195D01*
X0002459505Y0001931383D01*
X0002462317Y0001925759D01*
X0002462317Y0001911698D01*
X0002459505Y0001906074D01*
X0002456692Y0001903262D01*
X0002451068Y0001900449D01*
X0002434195Y0001900449D01*
X0002428571Y0001903262D01*
X0002425759Y0001906074D01*
X0002518560Y0001900449D02*
X0002484814Y0001900449D01*
X0002501687Y0001900449D02*
X0002501687Y0001959505D01*
X0002496063Y0001951068D01*
X0002490438Y0001945444D01*
X0002484814Y0001942632D01*
X0002543869Y0001906074D02*
X0002546681Y0001903262D01*
X0002543869Y0001900449D01*
X0002541057Y0001903262D01*
X0002543869Y0001906074D01*
X0002543869Y0001900449D01*
X0002580427Y0001934195D02*
X0002574803Y0001937007D01*
X0002571990Y0001939820D01*
X0002569178Y0001945444D01*
X0002569178Y0001948256D01*
X0002571990Y0001953880D01*
X0002574803Y0001956692D01*
X0002580427Y0001959505D01*
X0002591676Y0001959505D01*
X0002597300Y0001956692D01*
X0002600112Y0001953880D01*
X0002602924Y0001948256D01*
X0002602924Y0001945444D01*
X0002600112Y0001939820D01*
X0002597300Y0001937007D01*
X0002591676Y0001934195D01*
X0002580427Y0001934195D01*
X0002574803Y0001931383D01*
X0002571990Y0001928571D01*
X0002569178Y0001922947D01*
X0002569178Y0001911698D01*
X0002571990Y0001906074D01*
X0002574803Y0001903262D01*
X0002580427Y0001900449D01*
X0002591676Y0001900449D01*
X0002597300Y0001903262D01*
X0002600112Y0001906074D01*
X0002602924Y0001911698D01*
X0002602924Y0001922947D01*
X0002600112Y0001928571D01*
X0002597300Y0001931383D01*
X0002591676Y0001934195D01*
X0002639482Y0001959505D02*
X0002645106Y0001959505D01*
X0002650731Y0001956692D01*
X0002653543Y0001953880D01*
X0002656355Y0001948256D01*
X0002659167Y0001937007D01*
X0002659167Y0001922947D01*
X0002656355Y0001911698D01*
X0002653543Y0001906074D01*
X0002650731Y0001903262D01*
X0002645106Y0001900449D01*
X0002639482Y0001900449D01*
X0002633858Y0001903262D01*
X0002631046Y0001906074D01*
X0002628233Y0001911698D01*
X0002625421Y0001922947D01*
X0002625421Y0001937007D01*
X0002628233Y0001948256D01*
X0002631046Y0001953880D01*
X0002633858Y0001956692D01*
X0002639482Y0001959505D01*
X0002695725Y0001959505D02*
X0002701349Y0001959505D01*
X0002706974Y0001956692D01*
X0002709786Y0001953880D01*
X0002712598Y0001948256D01*
X0002715410Y0001937007D01*
X0002715410Y0001922947D01*
X0002712598Y0001911698D01*
X0002709786Y0001906074D01*
X0002706974Y0001903262D01*
X0002701349Y0001900449D01*
X0002695725Y0001900449D01*
X0002690101Y0001903262D01*
X0002687289Y0001906074D01*
X0002684476Y0001911698D01*
X0002681664Y0001922947D01*
X0002681664Y0001937007D01*
X0002684476Y0001948256D01*
X0002687289Y0001953880D01*
X0002690101Y0001956692D01*
X0002695725Y0001959505D01*
X0002785714Y0001900449D02*
X0002785714Y0001939820D01*
X0002785714Y0001934195D02*
X0002788526Y0001937007D01*
X0002794150Y0001939820D01*
X0002802587Y0001939820D01*
X0002808211Y0001937007D01*
X0002811023Y0001931383D01*
X0002811023Y0001900449D01*
X0002811023Y0001931383D02*
X0002813835Y0001937007D01*
X0002819460Y0001939820D01*
X0002827896Y0001939820D01*
X0002833520Y0001937007D01*
X0002836332Y0001931383D01*
X0002836332Y0001900449D01*
X0002864454Y0001900449D02*
X0002864454Y0001939820D01*
X0002864454Y0001934195D02*
X0002867266Y0001937007D01*
X0002872890Y0001939820D01*
X0002881327Y0001939820D01*
X0002886951Y0001937007D01*
X0002889763Y0001931383D01*
X0002889763Y0001900449D01*
X0002889763Y0001931383D02*
X0002892575Y0001937007D01*
X0002898200Y0001939820D01*
X0002906636Y0001939820D01*
X0002912260Y0001937007D01*
X0002915073Y0001931383D01*
X0002915073Y0001900449D01*
X0002047244Y0001874015D02*
X0003299212Y0001874015D01*
X0002047244Y0001811023D02*
X0002047244Y0001980314D01*
X0003299212Y0001811023D02*
X0003299212Y0001980314D01*
X0003299212Y0001874015D02*
X0003254862Y0001850928D01*
X0003299212Y0001874015D02*
X0003254862Y0001897103D01*
X0002047244Y0001874015D02*
X0002091594Y0001850928D01*
X0002047244Y0001874015D02*
X0002091594Y0001897103D01*
G04 next file*
G04 Gerber Fmt 4.6, Leading zero omitted, Abs format (unit mm)*
G04 Created by KiCad (PCBNEW 4.0.7) date 11/30/17 23:31:52*
G01G01*
G04 APERTURE LIST*
G04 APERTURE END LIST*
D76*
G04 next file*
G04 Gerber Fmt 4.6, Leading zero omitted, Abs format (unit mm)*
G04 Created by KiCad (PCBNEW 4.0.7) date 11/30/17 23:31:52*
G01G01*
G04 APERTURE LIST*
G04 APERTURE END LIST*
D77*
D78*
X0003095881Y0001762692D02*
X0002454149Y0001762692D01*
X0002454149Y0001762692D02*
X0002454149Y0001620960D01*
X0002454149Y0001620960D02*
X0003095881Y0001620960D01*
X0003095881Y0001620960D02*
X0003095881Y0001762692D01*
X0002322779Y0001088094D02*
X0002543251Y0001088094D01*
X0002543251Y0001088094D02*
X0002543251Y0001564472D01*
X0002543251Y0001564472D02*
X0002322779Y0001564472D01*
X0002322779Y0001564472D02*
X0002322779Y0001088094D01*
X0002430787Y0001060291D02*
X0002430787Y0000993362D01*
X0002430787Y0000993362D02*
X0002277244Y0000993362D01*
X0002277244Y0000993362D02*
X0002277244Y0001060291D01*
X0002277244Y0001060291D02*
X0002430787Y0001060291D01*
X0003091768Y0000989915D02*
X0003024839Y0000989915D01*
X0003024839Y0000989915D02*
X0003024839Y0001143458D01*
X0003024839Y0001143458D02*
X0003091768Y0001143458D01*
X0003091768Y0001143458D02*
X0003091768Y0000989915D01*
X0003006834Y0000989094D02*
X0002939905Y0000989094D01*
X0002939905Y0000989094D02*
X0002939905Y0001142637D01*
X0002939905Y0001142637D02*
X0003006834Y0001142637D01*
X0003006834Y0001142637D02*
X0003006834Y0000989094D01*
G04 next file*
G04 Gerber Fmt 4.6, Leading zero omitted, Abs format (unit mm)*
G04 Created by KiCad (PCBNEW 4.0.7) date 11/30/17 23:31:52*
G01G01*
G04 APERTURE LIST*
G04 APERTURE END LIST*
D79*
G04 next file*
G04 Gerber Fmt 4.6, Leading zero omitted, Abs format (unit mm)*
G04 Created by KiCad (PCBNEW 4.0.7) date 11/30/17 23:31:52*
G01G01*
G04 APERTURE LIST*
G04 APERTURE END LIST*
D80*
D81*
X0002585236Y0000338976D02*
X0002585236Y0000240551D01*
X0002585236Y0000338976D02*
X0002640354Y0000338976D01*
X0002640354Y0000240551D02*
X0002585236Y0000240551D01*
X0002640354Y0000240551D02*
X0002640354Y0000338976D01*
X0002972440Y0000247637D02*
X0002972440Y0000346062D01*
X0002972440Y0000247637D02*
X0002917322Y0000247637D01*
X0002917322Y0000346062D02*
X0002972440Y0000346062D01*
X0002917322Y0000346062D02*
X0002917322Y0000247637D01*
X0002807874Y0000341732D02*
X0002807874Y0000243307D01*
X0002807874Y0000341732D02*
X0002862992Y0000341732D01*
X0002862992Y0000243307D02*
X0002807874Y0000243307D01*
X0002862992Y0000243307D02*
X0002862992Y0000341732D01*
X0002742913Y0000624015D02*
X0002742913Y0000722440D01*
X0002742913Y0000624015D02*
X0002687795Y0000624015D01*
X0002687795Y0000722440D02*
X0002742913Y0000722440D01*
X0002687795Y0000722440D02*
X0002687795Y0000624015D01*
X0002705574Y0000372440D02*
X0002705574Y0000470866D01*
X0002705574Y0000372440D02*
X0002650456Y0000372440D01*
X0002650456Y0000470866D02*
X0002705574Y0000470866D01*
X0002650456Y0000470866D02*
X0002650456Y0000372440D01*
X0002715354Y0000231496D02*
X0002715354Y0000121259D01*
X0002715354Y0000231496D02*
X0002766535Y0000231496D01*
X0002766535Y0000121259D02*
X0002715354Y0000121259D01*
X0002766535Y0000121259D02*
X0002766535Y0000231496D01*
X0002992606Y0000366535D02*
X0002992606Y0000476771D01*
X0002992606Y0000366535D02*
X0002941425Y0000366535D01*
X0002941425Y0000476771D02*
X0002992606Y0000476771D01*
X0002941425Y0000476771D02*
X0002941425Y0000366535D01*
X0002875984Y0000618110D02*
X0002875984Y0000728346D01*
X0002875984Y0000618110D02*
X0002824803Y0000618110D01*
X0002824803Y0000728346D02*
X0002875984Y0000728346D01*
X0002824803Y0000728346D02*
X0002824803Y0000618110D01*
X0002631606Y0000364196D02*
X0002631606Y0000474433D01*
X0002631606Y0000364196D02*
X0002580425Y0000364196D01*
X0002580425Y0000474433D02*
X0002631606Y0000474433D01*
X0002580425Y0000474433D02*
X0002580425Y0000364196D01*
X0002420078Y0000118110D02*
X0002420078Y0000216535D01*
X0002420078Y0000118110D02*
X0002364960Y0000118110D01*
X0002364960Y0000216535D02*
X0002420078Y0000216535D01*
X0002364960Y0000216535D02*
X0002364960Y0000118110D01*
X0003030744Y0000210781D02*
X0003030744Y0000112356D01*
X0003030744Y0000210781D02*
X0003085862Y0000210781D01*
X0003085862Y0000112356D02*
X0003030744Y0000112356D01*
X0003085862Y0000112356D02*
X0003085862Y0000210781D01*
X0003000929Y0000111141D02*
X0003000929Y0000209566D01*
X0003000929Y0000111141D02*
X0002945811Y0000111141D01*
X0002945811Y0000209566D02*
X0003000929Y0000209566D01*
X0002945811Y0000209566D02*
X0002945811Y0000111141D01*
X0002345275Y0000117322D02*
X0002195669Y0000117322D01*
X0002345275Y0000259055D02*
X0002345275Y0000117322D01*
X0002195669Y0000259055D02*
X0002345275Y0000259055D01*
X0002195669Y0000117322D02*
X0002195669Y0000259055D01*
X0002755511Y0000722440D02*
X0002755511Y0000624015D01*
X0002755511Y0000722440D02*
X0002810629Y0000722440D01*
X0002810629Y0000624015D02*
X0002755511Y0000624015D01*
X0002810629Y0000624015D02*
X0002810629Y0000722440D01*
X0002718456Y0000470866D02*
X0002718456Y0000372440D01*
X0002718456Y0000470866D02*
X0002773574Y0000470866D01*
X0002773574Y0000372440D02*
X0002718456Y0000372440D01*
X0002773574Y0000372440D02*
X0002773574Y0000470866D01*
X0002838574Y0000372440D02*
X0002838574Y0000470866D01*
X0002838574Y0000372440D02*
X0002783456Y0000372440D01*
X0002783456Y0000470866D02*
X0002838574Y0000470866D01*
X0002783456Y0000470866D02*
X0002783456Y0000372440D01*
X0002875196Y0000470866D02*
X0002875196Y0000372440D01*
X0002875196Y0000470866D02*
X0002930314Y0000470866D01*
X0002930314Y0000372440D02*
X0002875196Y0000372440D01*
X0002930314Y0000372440D02*
X0002930314Y0000470866D01*
X0002359692Y0000814433D02*
X0002359692Y0000716007D01*
X0002359692Y0000814433D02*
X0002414811Y0000814433D01*
X0002414811Y0000716007D02*
X0002359692Y0000716007D01*
X0002414811Y0000716007D02*
X0002414811Y0000814433D01*
X0002617322Y0000725196D02*
X0002617322Y0000626771D01*
X0002617322Y0000725196D02*
X0002672440Y0000725196D01*
X0002672440Y0000626771D02*
X0002617322Y0000626771D01*
X0002672440Y0000626771D02*
X0002672440Y0000725196D01*
X0002282811Y0000716007D02*
X0002282811Y0000814433D01*
X0002282811Y0000716007D02*
X0002227692Y0000716007D01*
X0002227692Y0000814433D02*
X0002282811Y0000814433D01*
X0002227692Y0000814433D02*
X0002227692Y0000716007D01*
X0002293692Y0000814433D02*
X0002293692Y0000716007D01*
X0002293692Y0000814433D02*
X0002348811Y0000814433D01*
X0002348811Y0000716007D02*
X0002293692Y0000716007D01*
X0002348811Y0000716007D02*
X0002348811Y0000814433D01*
X0002116937Y0000503937D02*
X0002116937Y0000405511D01*
X0002116937Y0000503937D02*
X0002172055Y0000503937D01*
X0002172055Y0000405511D02*
X0002116937Y0000405511D01*
X0002172055Y0000405511D02*
X0002172055Y0000503937D01*
X0002165354Y0000099409D02*
X0002066929Y0000099409D01*
X0002165354Y0000099409D02*
X0002165354Y0000044291D01*
X0002066929Y0000044291D02*
X0002066929Y0000099409D01*
X0002066929Y0000044291D02*
X0002165354Y0000044291D01*
X0002165354Y0000248031D02*
X0002066929Y0000248031D01*
X0002165354Y0000248031D02*
X0002165354Y0000192913D01*
X0002066929Y0000192913D02*
X0002066929Y0000248031D01*
X0002066929Y0000192913D02*
X0002165354Y0000192913D01*
X0002165354Y0000177165D02*
X0002066929Y0000177165D01*
X0002165354Y0000177165D02*
X0002165354Y0000122047D01*
X0002066929Y0000122047D02*
X0002066929Y0000177165D01*
X0002066929Y0000122047D02*
X0002165354Y0000122047D01*
X0002585236Y0000227937D02*
X0002585236Y0000129511D01*
X0002585236Y0000227937D02*
X0002640354Y0000227937D01*
X0002640354Y0000129511D02*
X0002585236Y0000129511D01*
X0002640354Y0000129511D02*
X0002640354Y0000227937D01*
X0002648236Y0000227937D02*
X0002648236Y0000129511D01*
X0002648236Y0000227937D02*
X0002703354Y0000227937D01*
X0002703354Y0000129511D02*
X0002648236Y0000129511D01*
X0002703354Y0000129511D02*
X0002703354Y0000227937D01*
X0002523236Y0000226936D02*
X0002523236Y0000128511D01*
X0002523236Y0000226936D02*
X0002578354Y0000226936D01*
X0002578354Y0000128511D02*
X0002523236Y0000128511D01*
X0002578354Y0000128511D02*
X0002578354Y0000226936D01*
X0002212598Y0000826771D02*
X0002078740Y0000826771D01*
X0002078740Y0000826771D02*
X0002078740Y0000688976D01*
X0002078740Y0000688976D02*
X0002212598Y0000688976D01*
X0002212598Y0000688976D02*
X0002212598Y0000826771D01*
X0002564566Y0000363779D02*
X0002564566Y0000474015D01*
X0002564566Y0000363779D02*
X0002513385Y0000363779D01*
X0002513385Y0000474015D02*
X0002564566Y0000474015D01*
X0002513385Y0000474015D02*
X0002513385Y0000363779D01*
X0002422937Y0000701275D02*
X0002312700Y0000701275D01*
X0002422937Y0000701275D02*
X0002422937Y0000650094D01*
X0002312700Y0000650094D02*
X0002312700Y0000701275D01*
X0002312700Y0000650094D02*
X0002422937Y0000650094D01*
X0002459055Y0000474409D02*
X0002459055Y0000364173D01*
X0002459055Y0000474409D02*
X0002510236Y0000474409D01*
X0002510236Y0000364173D02*
X0002459055Y0000364173D01*
X0002510236Y0000364173D02*
X0002510236Y0000474409D01*
X0002397637Y0000363779D02*
X0002397637Y0000474015D01*
X0002397637Y0000363779D02*
X0002346456Y0000363779D01*
X0002346456Y0000474015D02*
X0002397637Y0000474015D01*
X0002346456Y0000474015D02*
X0002346456Y0000363779D01*
X0002510385Y0000123606D02*
X0002510385Y0000233842D01*
X0002510385Y0000123606D02*
X0002459204Y0000123606D01*
X0002459204Y0000233842D02*
X0002510385Y0000233842D01*
X0002459204Y0000233842D02*
X0002459204Y0000123606D01*
X0002779133Y0000231496D02*
X0002779133Y0000121259D01*
X0002779133Y0000231496D02*
X0002830314Y0000231496D01*
X0002830314Y0000121259D02*
X0002779133Y0000121259D01*
X0002830314Y0000121259D02*
X0002830314Y0000231496D01*
X0002422937Y0000638275D02*
X0002312700Y0000638275D01*
X0002422937Y0000638275D02*
X0002422937Y0000587094D01*
X0002312700Y0000587094D02*
X0002312700Y0000638275D01*
X0002312700Y0000587094D02*
X0002422937Y0000587094D01*
X0002444094Y0000577559D02*
X0002593700Y0000577559D01*
X0002593700Y0000577559D02*
X0002593700Y0000719291D01*
X0002593700Y0000719291D02*
X0002444094Y0000719291D01*
X0002444094Y0000719291D02*
X0002444094Y0000577559D01*
G04 next file*
G04 Gerber Fmt 4.6, Leading zero omitted, Abs format (unit mm)*
G04 Created by KiCad (PCBNEW 4.0.7) date 11/30/17 23:31:52*
G01G01*
G04 APERTURE LIST*
G04 APERTURE END LIST*
D82*
G04 next file*
G04 Gerber Fmt 4.6, Leading zero omitted, Abs format (unit mm)*
G04 Created by KiCad (PCBNEW 4.0.7) date 11/30/17 23:31:52*
G01G01*
G04 APERTURE LIST*
G04 APERTURE END LIST*
D83*
G04 next file*
G04 Gerber Fmt 4.6, Leading zero omitted, Abs format (unit mm)*
G04 Created by KiCad (PCBNEW 4.0.7) date 11/30/17 23:31:52*
G01G01*
G04 APERTURE LIST*
G04 APERTURE END LIST*
D84*
D85*
X0002003093Y0000697412D02*
X0002005905Y0000694600D01*
X0002008717Y0000688976D01*
X0002008717Y0000674915D01*
X0002005905Y0000669291D01*
X0002003093Y0000666479D01*
X0001997469Y0000663667D01*
X0001991844Y0000663667D01*
X0001983408Y0000666479D01*
X0001949662Y0000700224D01*
X0001949662Y0000663667D01*
X0002008717Y0000643981D02*
X0002008717Y0000607424D01*
X0001986220Y0000627109D01*
X0001986220Y0000618672D01*
X0001983408Y0000613048D01*
X0001980596Y0000610236D01*
X0001974971Y0000607424D01*
X0001960911Y0000607424D01*
X0001955286Y0000610236D01*
X0001952474Y0000613048D01*
X0001949662Y0000618672D01*
X0001949662Y0000635545D01*
X0001952474Y0000641169D01*
X0001955286Y0000643981D01*
X0001955286Y0000582114D02*
X0001952474Y0000579302D01*
X0001949662Y0000582114D01*
X0001952474Y0000584926D01*
X0001955286Y0000582114D01*
X0001949662Y0000582114D01*
X0002008717Y0000542744D02*
X0002008717Y0000537120D01*
X0002005905Y0000531496D01*
X0002003093Y0000528683D01*
X0001997469Y0000525871D01*
X0001986220Y0000523059D01*
X0001972159Y0000523059D01*
X0001960911Y0000525871D01*
X0001955286Y0000528683D01*
X0001952474Y0000531496D01*
X0001949662Y0000537120D01*
X0001949662Y0000542744D01*
X0001952474Y0000548368D01*
X0001955286Y0000551181D01*
X0001960911Y0000553993D01*
X0001972159Y0000556805D01*
X0001986220Y0000556805D01*
X0001997469Y0000553993D01*
X0002003093Y0000551181D01*
X0002005905Y0000548368D01*
X0002008717Y0000542744D01*
X0002008717Y0000486501D02*
X0002008717Y0000480877D01*
X0002005905Y0000475253D01*
X0002003093Y0000472440D01*
X0001997469Y0000469628D01*
X0001986220Y0000466816D01*
X0001972159Y0000466816D01*
X0001960911Y0000469628D01*
X0001955286Y0000472440D01*
X0001952474Y0000475253D01*
X0001949662Y0000480877D01*
X0001949662Y0000486501D01*
X0001952474Y0000492125D01*
X0001955286Y0000494938D01*
X0001960911Y0000497750D01*
X0001972159Y0000500562D01*
X0001986220Y0000500562D01*
X0001997469Y0000497750D01*
X0002003093Y0000494938D01*
X0002005905Y0000492125D01*
X0002008717Y0000486501D01*
X0002008717Y0000430258D02*
X0002008717Y0000424634D01*
X0002005905Y0000419010D01*
X0002003093Y0000416197D01*
X0001997469Y0000413385D01*
X0001986220Y0000410573D01*
X0001972159Y0000410573D01*
X0001960911Y0000413385D01*
X0001955286Y0000416197D01*
X0001952474Y0000419010D01*
X0001949662Y0000424634D01*
X0001949662Y0000430258D01*
X0001952474Y0000435883D01*
X0001955286Y0000438695D01*
X0001960911Y0000441507D01*
X0001972159Y0000444319D01*
X0001986220Y0000444319D01*
X0001997469Y0000441507D01*
X0002003093Y0000438695D01*
X0002005905Y0000435883D01*
X0002008717Y0000430258D01*
X0001949662Y0000340270D02*
X0001989032Y0000340270D01*
X0001983408Y0000340270D02*
X0001986220Y0000337457D01*
X0001989032Y0000331833D01*
X0001989032Y0000323397D01*
X0001986220Y0000317772D01*
X0001980596Y0000314960D01*
X0001949662Y0000314960D01*
X0001980596Y0000314960D02*
X0001986220Y0000312148D01*
X0001989032Y0000306524D01*
X0001989032Y0000298087D01*
X0001986220Y0000292463D01*
X0001980596Y0000289651D01*
X0001949662Y0000289651D01*
X0001949662Y0000261529D02*
X0001989032Y0000261529D01*
X0001983408Y0000261529D02*
X0001986220Y0000258717D01*
X0001989032Y0000253093D01*
X0001989032Y0000244656D01*
X0001986220Y0000239032D01*
X0001980596Y0000236220D01*
X0001949662Y0000236220D01*
X0001980596Y0000236220D02*
X0001986220Y0000233408D01*
X0001989032Y0000227784D01*
X0001989032Y0000219347D01*
X0001986220Y0000213723D01*
X0001980596Y0000210911D01*
X0001949662Y0000210911D01*
X0002029527Y0000905511D02*
X0002029527Y0000000000D01*
X0002047244Y0000905511D02*
X0001923228Y0000905511D01*
X0002047244Y0000000000D02*
X0001923228Y0000000000D01*
X0002029527Y0000000000D02*
X0002006440Y0000044350D01*
X0002029527Y0000000000D02*
X0002052614Y0000044350D01*
X0002029527Y0000905511D02*
X0002006440Y0000861161D01*
X0002029527Y0000905511D02*
X0002052614Y0000861161D01*
X0002425759Y0001053993D02*
X0002462317Y0001053993D01*
X0002442632Y0001031496D01*
X0002451068Y0001031496D01*
X0002456692Y0001028683D01*
X0002459505Y0001025871D01*
X0002462317Y0001020247D01*
X0002462317Y0001006186D01*
X0002459505Y0001000562D01*
X0002456692Y0000997750D01*
X0002451068Y0000994938D01*
X0002434195Y0000994938D01*
X0002428571Y0000997750D01*
X0002425759Y0001000562D01*
X0002518560Y0000994938D02*
X0002484814Y0000994938D01*
X0002501687Y0000994938D02*
X0002501687Y0001053993D01*
X0002496063Y0001045556D01*
X0002490438Y0001039932D01*
X0002484814Y0001037120D01*
X0002543869Y0001000562D02*
X0002546681Y0000997750D01*
X0002543869Y0000994938D01*
X0002541057Y0000997750D01*
X0002543869Y0001000562D01*
X0002543869Y0000994938D01*
X0002580427Y0001028683D02*
X0002574803Y0001031496D01*
X0002571990Y0001034308D01*
X0002569178Y0001039932D01*
X0002569178Y0001042744D01*
X0002571990Y0001048368D01*
X0002574803Y0001051181D01*
X0002580427Y0001053993D01*
X0002591676Y0001053993D01*
X0002597300Y0001051181D01*
X0002600112Y0001048368D01*
X0002602924Y0001042744D01*
X0002602924Y0001039932D01*
X0002600112Y0001034308D01*
X0002597300Y0001031496D01*
X0002591676Y0001028683D01*
X0002580427Y0001028683D01*
X0002574803Y0001025871D01*
X0002571990Y0001023059D01*
X0002569178Y0001017435D01*
X0002569178Y0001006186D01*
X0002571990Y0001000562D01*
X0002574803Y0000997750D01*
X0002580427Y0000994938D01*
X0002591676Y0000994938D01*
X0002597300Y0000997750D01*
X0002600112Y0001000562D01*
X0002602924Y0001006186D01*
X0002602924Y0001017435D01*
X0002600112Y0001023059D01*
X0002597300Y0001025871D01*
X0002591676Y0001028683D01*
X0002639482Y0001053993D02*
X0002645106Y0001053993D01*
X0002650731Y0001051181D01*
X0002653543Y0001048368D01*
X0002656355Y0001042744D01*
X0002659167Y0001031496D01*
X0002659167Y0001017435D01*
X0002656355Y0001006186D01*
X0002653543Y0001000562D01*
X0002650731Y0000997750D01*
X0002645106Y0000994938D01*
X0002639482Y0000994938D01*
X0002633858Y0000997750D01*
X0002631046Y0001000562D01*
X0002628233Y0001006186D01*
X0002625421Y0001017435D01*
X0002625421Y0001031496D01*
X0002628233Y0001042744D01*
X0002631046Y0001048368D01*
X0002633858Y0001051181D01*
X0002639482Y0001053993D01*
X0002695725Y0001053993D02*
X0002701349Y0001053993D01*
X0002706974Y0001051181D01*
X0002709786Y0001048368D01*
X0002712598Y0001042744D01*
X0002715410Y0001031496D01*
X0002715410Y0001017435D01*
X0002712598Y0001006186D01*
X0002709786Y0001000562D01*
X0002706974Y0000997750D01*
X0002701349Y0000994938D01*
X0002695725Y0000994938D01*
X0002690101Y0000997750D01*
X0002687289Y0001000562D01*
X0002684476Y0001006186D01*
X0002681664Y0001017435D01*
X0002681664Y0001031496D01*
X0002684476Y0001042744D01*
X0002687289Y0001048368D01*
X0002690101Y0001051181D01*
X0002695725Y0001053993D01*
X0002785714Y0000994938D02*
X0002785714Y0001034308D01*
X0002785714Y0001028683D02*
X0002788526Y0001031496D01*
X0002794150Y0001034308D01*
X0002802587Y0001034308D01*
X0002808211Y0001031496D01*
X0002811023Y0001025871D01*
X0002811023Y0000994938D01*
X0002811023Y0001025871D02*
X0002813835Y0001031496D01*
X0002819460Y0001034308D01*
X0002827896Y0001034308D01*
X0002833520Y0001031496D01*
X0002836332Y0001025871D01*
X0002836332Y0000994938D01*
X0002864454Y0000994938D02*
X0002864454Y0001034308D01*
X0002864454Y0001028683D02*
X0002867266Y0001031496D01*
X0002872890Y0001034308D01*
X0002881327Y0001034308D01*
X0002886951Y0001031496D01*
X0002889763Y0001025871D01*
X0002889763Y0000994938D01*
X0002889763Y0001025871D02*
X0002892575Y0001031496D01*
X0002898200Y0001034308D01*
X0002906636Y0001034308D01*
X0002912260Y0001031496D01*
X0002915073Y0001025871D01*
X0002915073Y0000994938D01*
X0002047244Y0000968503D02*
X0003299212Y0000968503D01*
X0002047244Y0000905511D02*
X0002047244Y0001074803D01*
X0003299212Y0000905511D02*
X0003299212Y0001074803D01*
X0003299212Y0000968503D02*
X0003254862Y0000945416D01*
X0003299212Y0000968503D02*
X0003254862Y0000991591D01*
X0002047244Y0000968503D02*
X0002091594Y0000945416D01*
X0002047244Y0000968503D02*
X0002091594Y0000991591D01*
G04 next file*
G04 Gerber Fmt 4.6, Leading zero omitted, Abs format (unit mm)*
G04 Created by KiCad (PCBNEW 4.0.7) date 11/30/17 23:31:52*
G01G01*
G04 APERTURE LIST*
G04 APERTURE END LIST*
D86*
G04 next file*
G04 Gerber Fmt 4.6, Leading zero omitted, Abs format (unit mm)*
G04 Created by KiCad (PCBNEW 4.0.7) date 11/30/17 23:31:52*
G01G01*
G04 APERTURE LIST*
G04 APERTURE END LIST*
D87*
D88*
X0003095881Y0000857181D02*
X0002454149Y0000857181D01*
X0002454149Y0000857181D02*
X0002454149Y0000715448D01*
X0002454149Y0000715448D02*
X0003095881Y0000715448D01*
X0003095881Y0000715448D02*
X0003095881Y0000857181D01*
X0002322779Y0000182582D02*
X0002543251Y0000182582D01*
X0002543251Y0000182582D02*
X0002543251Y0000658960D01*
X0002543251Y0000658960D02*
X0002322779Y0000658960D01*
X0002322779Y0000658960D02*
X0002322779Y0000182582D01*
X0002430787Y0000154779D02*
X0002430787Y0000087850D01*
X0002430787Y0000087850D02*
X0002277244Y0000087850D01*
X0002277244Y0000087850D02*
X0002277244Y0000154779D01*
X0002277244Y0000154779D02*
X0002430787Y0000154779D01*
X0003091768Y0000084403D02*
X0003024839Y0000084403D01*
X0003024839Y0000084403D02*
X0003024839Y0000237946D01*
X0003024839Y0000237946D02*
X0003091768Y0000237946D01*
X0003091768Y0000237946D02*
X0003091768Y0000084403D01*
X0003006834Y0000083582D02*
X0002939905Y0000083582D01*
X0002939905Y0000083582D02*
X0002939905Y0000237125D01*
X0002939905Y0000237125D02*
X0003006834Y0000237125D01*
X0003006834Y0000237125D02*
X0003006834Y0000083582D01*
G04 next file*
G04 Gerber Fmt 4.6, Leading zero omitted, Abs format (unit mm)*
G04 Created by KiCad (PCBNEW 4.0.7) date 11/30/17 23:31:52*
G01G01*
G04 APERTURE LIST*
G04 APERTURE END LIST*
D89*
G04 next file*
G04 Gerber Fmt 4.6, Leading zero omitted, Abs format (unit mm)*
G04 Created by KiCad (PCBNEW 4.0.7) date 11/30/17 23:31:52*
G01G01*
G04 APERTURE LIST*
G04 APERTURE END LIST*
D90*
D91*
X0002585236Y0003055511D02*
X0002585236Y0002957086D01*
X0002585236Y0003055511D02*
X0002640354Y0003055511D01*
X0002640354Y0002957086D02*
X0002585236Y0002957086D01*
X0002640354Y0002957086D02*
X0002640354Y0003055511D01*
X0002972440Y0002964173D02*
X0002972440Y0003062598D01*
X0002972440Y0002964173D02*
X0002917322Y0002964173D01*
X0002917322Y0003062598D02*
X0002972440Y0003062598D01*
X0002917322Y0003062598D02*
X0002917322Y0002964173D01*
X0002807874Y0003058267D02*
X0002807874Y0002959842D01*
X0002807874Y0003058267D02*
X0002862992Y0003058267D01*
X0002862992Y0002959842D02*
X0002807874Y0002959842D01*
X0002862992Y0002959842D02*
X0002862992Y0003058267D01*
X0002742913Y0003340551D02*
X0002742913Y0003438976D01*
X0002742913Y0003340551D02*
X0002687795Y0003340551D01*
X0002687795Y0003438976D02*
X0002742913Y0003438976D01*
X0002687795Y0003438976D02*
X0002687795Y0003340551D01*
X0002705574Y0003088976D02*
X0002705574Y0003187401D01*
X0002705574Y0003088976D02*
X0002650456Y0003088976D01*
X0002650456Y0003187401D02*
X0002705574Y0003187401D01*
X0002650456Y0003187401D02*
X0002650456Y0003088976D01*
X0002715354Y0002948031D02*
X0002715354Y0002837795D01*
X0002715354Y0002948031D02*
X0002766535Y0002948031D01*
X0002766535Y0002837795D02*
X0002715354Y0002837795D01*
X0002766535Y0002837795D02*
X0002766535Y0002948031D01*
X0002992606Y0003083070D02*
X0002992606Y0003193307D01*
X0002992606Y0003083070D02*
X0002941425Y0003083070D01*
X0002941425Y0003193307D02*
X0002992606Y0003193307D01*
X0002941425Y0003193307D02*
X0002941425Y0003083070D01*
X0002875984Y0003334645D02*
X0002875984Y0003444881D01*
X0002875984Y0003334645D02*
X0002824803Y0003334645D01*
X0002824803Y0003444881D02*
X0002875984Y0003444881D01*
X0002824803Y0003444881D02*
X0002824803Y0003334645D01*
X0002631606Y0003080732D02*
X0002631606Y0003190968D01*
X0002631606Y0003080732D02*
X0002580425Y0003080732D01*
X0002580425Y0003190968D02*
X0002631606Y0003190968D01*
X0002580425Y0003190968D02*
X0002580425Y0003080732D01*
X0002420078Y0002834645D02*
X0002420078Y0002933070D01*
X0002420078Y0002834645D02*
X0002364960Y0002834645D01*
X0002364960Y0002933070D02*
X0002420078Y0002933070D01*
X0002364960Y0002933070D02*
X0002364960Y0002834645D01*
X0003030744Y0002927316D02*
X0003030744Y0002828891D01*
X0003030744Y0002927316D02*
X0003085862Y0002927316D01*
X0003085862Y0002828891D02*
X0003030744Y0002828891D01*
X0003085862Y0002828891D02*
X0003085862Y0002927316D01*
X0003000929Y0002827677D02*
X0003000929Y0002926102D01*
X0003000929Y0002827677D02*
X0002945811Y0002827677D01*
X0002945811Y0002926102D02*
X0003000929Y0002926102D01*
X0002945811Y0002926102D02*
X0002945811Y0002827677D01*
X0002345275Y0002833858D02*
X0002195669Y0002833858D01*
X0002345275Y0002975590D02*
X0002345275Y0002833858D01*
X0002195669Y0002975590D02*
X0002345275Y0002975590D01*
X0002195669Y0002833858D02*
X0002195669Y0002975590D01*
X0002755511Y0003438976D02*
X0002755511Y0003340551D01*
X0002755511Y0003438976D02*
X0002810629Y0003438976D01*
X0002810629Y0003340551D02*
X0002755511Y0003340551D01*
X0002810629Y0003340551D02*
X0002810629Y0003438976D01*
X0002718456Y0003187401D02*
X0002718456Y0003088976D01*
X0002718456Y0003187401D02*
X0002773574Y0003187401D01*
X0002773574Y0003088976D02*
X0002718456Y0003088976D01*
X0002773574Y0003088976D02*
X0002773574Y0003187401D01*
X0002838574Y0003088976D02*
X0002838574Y0003187401D01*
X0002838574Y0003088976D02*
X0002783456Y0003088976D01*
X0002783456Y0003187401D02*
X0002838574Y0003187401D01*
X0002783456Y0003187401D02*
X0002783456Y0003088976D01*
X0002875196Y0003187401D02*
X0002875196Y0003088976D01*
X0002875196Y0003187401D02*
X0002930314Y0003187401D01*
X0002930314Y0003088976D02*
X0002875196Y0003088976D01*
X0002930314Y0003088976D02*
X0002930314Y0003187401D01*
X0002359692Y0003530968D02*
X0002359692Y0003432543D01*
X0002359692Y0003530968D02*
X0002414811Y0003530968D01*
X0002414811Y0003432543D02*
X0002359692Y0003432543D01*
X0002414811Y0003432543D02*
X0002414811Y0003530968D01*
X0002617322Y0003441732D02*
X0002617322Y0003343307D01*
X0002617322Y0003441732D02*
X0002672440Y0003441732D01*
X0002672440Y0003343307D02*
X0002617322Y0003343307D01*
X0002672440Y0003343307D02*
X0002672440Y0003441732D01*
X0002282811Y0003432543D02*
X0002282811Y0003530968D01*
X0002282811Y0003432543D02*
X0002227692Y0003432543D01*
X0002227692Y0003530968D02*
X0002282811Y0003530968D01*
X0002227692Y0003530968D02*
X0002227692Y0003432543D01*
X0002293692Y0003530968D02*
X0002293692Y0003432543D01*
X0002293692Y0003530968D02*
X0002348811Y0003530968D01*
X0002348811Y0003432543D02*
X0002293692Y0003432543D01*
X0002348811Y0003432543D02*
X0002348811Y0003530968D01*
X0002116937Y0003220472D02*
X0002116937Y0003122047D01*
X0002116937Y0003220472D02*
X0002172055Y0003220472D01*
X0002172055Y0003122047D02*
X0002116937Y0003122047D01*
X0002172055Y0003122047D02*
X0002172055Y0003220472D01*
X0002165354Y0002815944D02*
X0002066929Y0002815944D01*
X0002165354Y0002815944D02*
X0002165354Y0002760826D01*
X0002066929Y0002760826D02*
X0002066929Y0002815944D01*
X0002066929Y0002760826D02*
X0002165354Y0002760826D01*
X0002165354Y0002964566D02*
X0002066929Y0002964566D01*
X0002165354Y0002964566D02*
X0002165354Y0002909448D01*
X0002066929Y0002909448D02*
X0002066929Y0002964566D01*
X0002066929Y0002909448D02*
X0002165354Y0002909448D01*
X0002165354Y0002893700D02*
X0002066929Y0002893700D01*
X0002165354Y0002893700D02*
X0002165354Y0002838582D01*
X0002066929Y0002838582D02*
X0002066929Y0002893700D01*
X0002066929Y0002838582D02*
X0002165354Y0002838582D01*
X0002585236Y0002944472D02*
X0002585236Y0002846047D01*
X0002585236Y0002944472D02*
X0002640354Y0002944472D01*
X0002640354Y0002846047D02*
X0002585236Y0002846047D01*
X0002640354Y0002846047D02*
X0002640354Y0002944472D01*
X0002648236Y0002944472D02*
X0002648236Y0002846047D01*
X0002648236Y0002944472D02*
X0002703354Y0002944472D01*
X0002703354Y0002846047D02*
X0002648236Y0002846047D01*
X0002703354Y0002846047D02*
X0002703354Y0002944472D01*
X0002523236Y0002943472D02*
X0002523236Y0002845047D01*
X0002523236Y0002943472D02*
X0002578354Y0002943472D01*
X0002578354Y0002845047D02*
X0002523236Y0002845047D01*
X0002578354Y0002845047D02*
X0002578354Y0002943472D01*
X0002212598Y0003543307D02*
X0002078740Y0003543307D01*
X0002078740Y0003543307D02*
X0002078740Y0003405511D01*
X0002078740Y0003405511D02*
X0002212598Y0003405511D01*
X0002212598Y0003405511D02*
X0002212598Y0003543307D01*
X0002564566Y0003080314D02*
X0002564566Y0003190551D01*
X0002564566Y0003080314D02*
X0002513385Y0003080314D01*
X0002513385Y0003190551D02*
X0002564566Y0003190551D01*
X0002513385Y0003190551D02*
X0002513385Y0003080314D01*
X0002422937Y0003417811D02*
X0002312700Y0003417811D01*
X0002422937Y0003417811D02*
X0002422937Y0003366629D01*
X0002312700Y0003366629D02*
X0002312700Y0003417811D01*
X0002312700Y0003366629D02*
X0002422937Y0003366629D01*
X0002459055Y0003190944D02*
X0002459055Y0003080708D01*
X0002459055Y0003190944D02*
X0002510236Y0003190944D01*
X0002510236Y0003080708D02*
X0002459055Y0003080708D01*
X0002510236Y0003080708D02*
X0002510236Y0003190944D01*
X0002397637Y0003080314D02*
X0002397637Y0003190551D01*
X0002397637Y0003080314D02*
X0002346456Y0003080314D01*
X0002346456Y0003190551D02*
X0002397637Y0003190551D01*
X0002346456Y0003190551D02*
X0002346456Y0003080314D01*
X0002510385Y0002840141D02*
X0002510385Y0002950377D01*
X0002510385Y0002840141D02*
X0002459204Y0002840141D01*
X0002459204Y0002950377D02*
X0002510385Y0002950377D01*
X0002459204Y0002950377D02*
X0002459204Y0002840141D01*
X0002779133Y0002948031D02*
X0002779133Y0002837795D01*
X0002779133Y0002948031D02*
X0002830314Y0002948031D01*
X0002830314Y0002837795D02*
X0002779133Y0002837795D01*
X0002830314Y0002837795D02*
X0002830314Y0002948031D01*
X0002422937Y0003354811D02*
X0002312700Y0003354811D01*
X0002422937Y0003354811D02*
X0002422937Y0003303629D01*
X0002312700Y0003303629D02*
X0002312700Y0003354811D01*
X0002312700Y0003303629D02*
X0002422937Y0003303629D01*
X0002444094Y0003294094D02*
X0002593700Y0003294094D01*
X0002593700Y0003294094D02*
X0002593700Y0003435826D01*
X0002593700Y0003435826D02*
X0002444094Y0003435826D01*
X0002444094Y0003435826D02*
X0002444094Y0003294094D01*
G04 next file*
G04 Gerber Fmt 4.6, Leading zero omitted, Abs format (unit mm)*
G04 Created by KiCad (PCBNEW 4.0.7) date 11/30/17 23:31:52*
G01G01*
G04 APERTURE LIST*
G04 APERTURE END LIST*
D92*
G04 next file*
G04 Gerber Fmt 4.6, Leading zero omitted, Abs format (unit mm)*
G04 Created by KiCad (PCBNEW 4.0.7) date 11/30/17 23:31:52*
G01G01*
G04 APERTURE LIST*
G04 APERTURE END LIST*
D93*
G04 next file*
G04 Gerber Fmt 4.6, Leading zero omitted, Abs format (unit mm)*
G04 Created by KiCad (PCBNEW 4.0.7) date 11/30/17 23:31:52*
G01G01*
G04 APERTURE LIST*
G04 APERTURE END LIST*
D94*
D95*
X0002003093Y0003413948D02*
X0002005905Y0003411136D01*
X0002008717Y0003405511D01*
X0002008717Y0003391451D01*
X0002005905Y0003385826D01*
X0002003093Y0003383014D01*
X0001997469Y0003380202D01*
X0001991844Y0003380202D01*
X0001983408Y0003383014D01*
X0001949662Y0003416760D01*
X0001949662Y0003380202D01*
X0002008717Y0003360517D02*
X0002008717Y0003323959D01*
X0001986220Y0003343644D01*
X0001986220Y0003335208D01*
X0001983408Y0003329583D01*
X0001980596Y0003326771D01*
X0001974971Y0003323959D01*
X0001960911Y0003323959D01*
X0001955286Y0003326771D01*
X0001952474Y0003329583D01*
X0001949662Y0003335208D01*
X0001949662Y0003352080D01*
X0001952474Y0003357705D01*
X0001955286Y0003360517D01*
X0001955286Y0003298650D02*
X0001952474Y0003295838D01*
X0001949662Y0003298650D01*
X0001952474Y0003301462D01*
X0001955286Y0003298650D01*
X0001949662Y0003298650D01*
X0002008717Y0003259280D02*
X0002008717Y0003253655D01*
X0002005905Y0003248031D01*
X0002003093Y0003245219D01*
X0001997469Y0003242407D01*
X0001986220Y0003239595D01*
X0001972159Y0003239595D01*
X0001960911Y0003242407D01*
X0001955286Y0003245219D01*
X0001952474Y0003248031D01*
X0001949662Y0003253655D01*
X0001949662Y0003259280D01*
X0001952474Y0003264904D01*
X0001955286Y0003267716D01*
X0001960911Y0003270528D01*
X0001972159Y0003273340D01*
X0001986220Y0003273340D01*
X0001997469Y0003270528D01*
X0002003093Y0003267716D01*
X0002005905Y0003264904D01*
X0002008717Y0003259280D01*
X0002008717Y0003203037D02*
X0002008717Y0003197412D01*
X0002005905Y0003191788D01*
X0002003093Y0003188976D01*
X0001997469Y0003186164D01*
X0001986220Y0003183352D01*
X0001972159Y0003183352D01*
X0001960911Y0003186164D01*
X0001955286Y0003188976D01*
X0001952474Y0003191788D01*
X0001949662Y0003197412D01*
X0001949662Y0003203037D01*
X0001952474Y0003208661D01*
X0001955286Y0003211473D01*
X0001960911Y0003214285D01*
X0001972159Y0003217097D01*
X0001986220Y0003217097D01*
X0001997469Y0003214285D01*
X0002003093Y0003211473D01*
X0002005905Y0003208661D01*
X0002008717Y0003203037D01*
X0002008717Y0003146794D02*
X0002008717Y0003141169D01*
X0002005905Y0003135545D01*
X0002003093Y0003132733D01*
X0001997469Y0003129921D01*
X0001986220Y0003127109D01*
X0001972159Y0003127109D01*
X0001960911Y0003129921D01*
X0001955286Y0003132733D01*
X0001952474Y0003135545D01*
X0001949662Y0003141169D01*
X0001949662Y0003146794D01*
X0001952474Y0003152418D01*
X0001955286Y0003155230D01*
X0001960911Y0003158042D01*
X0001972159Y0003160854D01*
X0001986220Y0003160854D01*
X0001997469Y0003158042D01*
X0002003093Y0003155230D01*
X0002005905Y0003152418D01*
X0002008717Y0003146794D01*
X0001949662Y0003056805D02*
X0001989032Y0003056805D01*
X0001983408Y0003056805D02*
X0001986220Y0003053993D01*
X0001989032Y0003048368D01*
X0001989032Y0003039932D01*
X0001986220Y0003034308D01*
X0001980596Y0003031496D01*
X0001949662Y0003031496D01*
X0001980596Y0003031496D02*
X0001986220Y0003028683D01*
X0001989032Y0003023059D01*
X0001989032Y0003014623D01*
X0001986220Y0003008998D01*
X0001980596Y0003006186D01*
X0001949662Y0003006186D01*
X0001949662Y0002978065D02*
X0001989032Y0002978065D01*
X0001983408Y0002978065D02*
X0001986220Y0002975253D01*
X0001989032Y0002969628D01*
X0001989032Y0002961192D01*
X0001986220Y0002955568D01*
X0001980596Y0002952755D01*
X0001949662Y0002952755D01*
X0001980596Y0002952755D02*
X0001986220Y0002949943D01*
X0001989032Y0002944319D01*
X0001989032Y0002935883D01*
X0001986220Y0002930258D01*
X0001980596Y0002927446D01*
X0001949662Y0002927446D01*
X0002029527Y0003622047D02*
X0002029527Y0002716535D01*
X0002047244Y0003622047D02*
X0001923228Y0003622047D01*
X0002047244Y0002716535D02*
X0001923228Y0002716535D01*
X0002029527Y0002716535D02*
X0002006440Y0002760885D01*
X0002029527Y0002716535D02*
X0002052614Y0002760885D01*
X0002029527Y0003622047D02*
X0002006440Y0003577696D01*
X0002029527Y0003622047D02*
X0002052614Y0003577696D01*
X0002425759Y0003770528D02*
X0002462317Y0003770528D01*
X0002442632Y0003748031D01*
X0002451068Y0003748031D01*
X0002456692Y0003745219D01*
X0002459505Y0003742407D01*
X0002462317Y0003736782D01*
X0002462317Y0003722722D01*
X0002459505Y0003717097D01*
X0002456692Y0003714285D01*
X0002451068Y0003711473D01*
X0002434195Y0003711473D01*
X0002428571Y0003714285D01*
X0002425759Y0003717097D01*
X0002518560Y0003711473D02*
X0002484814Y0003711473D01*
X0002501687Y0003711473D02*
X0002501687Y0003770528D01*
X0002496063Y0003762092D01*
X0002490438Y0003756467D01*
X0002484814Y0003753655D01*
X0002543869Y0003717097D02*
X0002546681Y0003714285D01*
X0002543869Y0003711473D01*
X0002541057Y0003714285D01*
X0002543869Y0003717097D01*
X0002543869Y0003711473D01*
X0002580427Y0003745219D02*
X0002574803Y0003748031D01*
X0002571990Y0003750843D01*
X0002569178Y0003756467D01*
X0002569178Y0003759280D01*
X0002571990Y0003764904D01*
X0002574803Y0003767716D01*
X0002580427Y0003770528D01*
X0002591676Y0003770528D01*
X0002597300Y0003767716D01*
X0002600112Y0003764904D01*
X0002602924Y0003759280D01*
X0002602924Y0003756467D01*
X0002600112Y0003750843D01*
X0002597300Y0003748031D01*
X0002591676Y0003745219D01*
X0002580427Y0003745219D01*
X0002574803Y0003742407D01*
X0002571990Y0003739595D01*
X0002569178Y0003733970D01*
X0002569178Y0003722722D01*
X0002571990Y0003717097D01*
X0002574803Y0003714285D01*
X0002580427Y0003711473D01*
X0002591676Y0003711473D01*
X0002597300Y0003714285D01*
X0002600112Y0003717097D01*
X0002602924Y0003722722D01*
X0002602924Y0003733970D01*
X0002600112Y0003739595D01*
X0002597300Y0003742407D01*
X0002591676Y0003745219D01*
X0002639482Y0003770528D02*
X0002645106Y0003770528D01*
X0002650731Y0003767716D01*
X0002653543Y0003764904D01*
X0002656355Y0003759280D01*
X0002659167Y0003748031D01*
X0002659167Y0003733970D01*
X0002656355Y0003722722D01*
X0002653543Y0003717097D01*
X0002650731Y0003714285D01*
X0002645106Y0003711473D01*
X0002639482Y0003711473D01*
X0002633858Y0003714285D01*
X0002631046Y0003717097D01*
X0002628233Y0003722722D01*
X0002625421Y0003733970D01*
X0002625421Y0003748031D01*
X0002628233Y0003759280D01*
X0002631046Y0003764904D01*
X0002633858Y0003767716D01*
X0002639482Y0003770528D01*
X0002695725Y0003770528D02*
X0002701349Y0003770528D01*
X0002706974Y0003767716D01*
X0002709786Y0003764904D01*
X0002712598Y0003759280D01*
X0002715410Y0003748031D01*
X0002715410Y0003733970D01*
X0002712598Y0003722722D01*
X0002709786Y0003717097D01*
X0002706974Y0003714285D01*
X0002701349Y0003711473D01*
X0002695725Y0003711473D01*
X0002690101Y0003714285D01*
X0002687289Y0003717097D01*
X0002684476Y0003722722D01*
X0002681664Y0003733970D01*
X0002681664Y0003748031D01*
X0002684476Y0003759280D01*
X0002687289Y0003764904D01*
X0002690101Y0003767716D01*
X0002695725Y0003770528D01*
X0002785714Y0003711473D02*
X0002785714Y0003750843D01*
X0002785714Y0003745219D02*
X0002788526Y0003748031D01*
X0002794150Y0003750843D01*
X0002802587Y0003750843D01*
X0002808211Y0003748031D01*
X0002811023Y0003742407D01*
X0002811023Y0003711473D01*
X0002811023Y0003742407D02*
X0002813835Y0003748031D01*
X0002819460Y0003750843D01*
X0002827896Y0003750843D01*
X0002833520Y0003748031D01*
X0002836332Y0003742407D01*
X0002836332Y0003711473D01*
X0002864454Y0003711473D02*
X0002864454Y0003750843D01*
X0002864454Y0003745219D02*
X0002867266Y0003748031D01*
X0002872890Y0003750843D01*
X0002881327Y0003750843D01*
X0002886951Y0003748031D01*
X0002889763Y0003742407D01*
X0002889763Y0003711473D01*
X0002889763Y0003742407D02*
X0002892575Y0003748031D01*
X0002898200Y0003750843D01*
X0002906636Y0003750843D01*
X0002912260Y0003748031D01*
X0002915073Y0003742407D01*
X0002915073Y0003711473D01*
X0002047244Y0003685039D02*
X0003299212Y0003685039D01*
X0002047244Y0003622047D02*
X0002047244Y0003791338D01*
X0003299212Y0003622047D02*
X0003299212Y0003791338D01*
X0003299212Y0003685039D02*
X0003254862Y0003661951D01*
X0003299212Y0003685039D02*
X0003254862Y0003708126D01*
X0002047244Y0003685039D02*
X0002091594Y0003661951D01*
X0002047244Y0003685039D02*
X0002091594Y0003708126D01*
G04 next file*
G04 Gerber Fmt 4.6, Leading zero omitted, Abs format (unit mm)*
G04 Created by KiCad (PCBNEW 4.0.7) date 11/30/17 23:31:52*
G01G01*
G04 APERTURE LIST*
G04 APERTURE END LIST*
D96*
G04 next file*
G04 Gerber Fmt 4.6, Leading zero omitted, Abs format (unit mm)*
G04 Created by KiCad (PCBNEW 4.0.7) date 11/30/17 23:31:52*
G01G01*
G04 APERTURE LIST*
G04 APERTURE END LIST*
D97*
D98*
X0003095881Y0003573716D02*
X0002454149Y0003573716D01*
X0002454149Y0003573716D02*
X0002454149Y0003431984D01*
X0002454149Y0003431984D02*
X0003095881Y0003431984D01*
X0003095881Y0003431984D02*
X0003095881Y0003573716D01*
X0002322779Y0002899118D02*
X0002543251Y0002899118D01*
X0002543251Y0002899118D02*
X0002543251Y0003375496D01*
X0002543251Y0003375496D02*
X0002322779Y0003375496D01*
X0002322779Y0003375496D02*
X0002322779Y0002899118D01*
X0002430787Y0002871314D02*
X0002430787Y0002804385D01*
X0002430787Y0002804385D02*
X0002277244Y0002804385D01*
X0002277244Y0002804385D02*
X0002277244Y0002871314D01*
X0002277244Y0002871314D02*
X0002430787Y0002871314D01*
X0003091768Y0002800938D02*
X0003024839Y0002800938D01*
X0003024839Y0002800938D02*
X0003024839Y0002954482D01*
X0003024839Y0002954482D02*
X0003091768Y0002954482D01*
X0003091768Y0002954482D02*
X0003091768Y0002800938D01*
X0003006834Y0002800118D02*
X0002939905Y0002800118D01*
X0002939905Y0002800118D02*
X0002939905Y0002953661D01*
X0002939905Y0002953661D02*
X0003006834Y0002953661D01*
X0003006834Y0002953661D02*
X0003006834Y0002800118D01*
G04 next file*
G04 Gerber Fmt 4.6, Leading zero omitted, Abs format (unit mm)*
G04 Created by KiCad (PCBNEW 4.0.7) date 11/30/17 23:31:52*
G01G01*
G04 APERTURE LIST*
G04 APERTURE END LIST*
D99*
G04 next file*
G04 Gerber Fmt 4.6, Leading zero omitted, Abs format (unit mm)*
G04 Created by KiCad (PCBNEW 4.0.7) date 11/19/17 12:57:03*
G01G01*
G04 APERTURE LIST*
G04 APERTURE END LIST*
D100*
D101*
X0003935039Y0003433070D02*
X0003293307Y0003433070D01*
X0003293307Y0003433070D02*
X0003293307Y0003574803D01*
X0003293307Y0003574803D02*
X0003935039Y0003574803D01*
X0003935039Y0003574803D02*
X0003935039Y0003433070D01*
G04 next file*
G04 Gerber Fmt 4.6, Leading zero omitted, Abs format (unit mm)*
G04 Created by KiCad (PCBNEW 4.0.7) date 11/19/17 12:57:03*
G01G01*
G04 APERTURE LIST*
G04 APERTURE END LIST*
D102*
G04 next file*
G04 Gerber Fmt 4.6, Leading zero omitted, Abs format (unit mm)*
G04 Created by KiCad (PCBNEW 4.0.7) date 11/19/17 12:57:03*
G01G01*
G04 APERTURE LIST*
G04 APERTURE END LIST*
D103*
G04 next file*
G04 Gerber Fmt 4.6, Leading zero omitted, Abs format (unit mm)*
G04 Created by KiCad (PCBNEW 4.0.7) date 11/19/17 12:57:03*
G01G01*
G04 APERTURE LIST*
G04 APERTURE END LIST*
D104*
D105*
X0003228880Y0003413886D02*
X0003231695Y0003411076D01*
X0003234512Y0003405454D01*
X0003234524Y0003391394D01*
X0003231717Y0003385767D01*
X0003228907Y0003382952D01*
X0003223285Y0003380135D01*
X0003217661Y0003380130D01*
X0003209222Y0003382935D01*
X0003175447Y0003416652D01*
X0003175479Y0003380094D01*
X0003234551Y0003360460D02*
X0003234583Y0003323902D01*
X0003212069Y0003343568D01*
X0003212076Y0003335131D01*
X0003209269Y0003329504D01*
X0003206459Y0003326690D01*
X0003200837Y0003323873D01*
X0003186776Y0003323861D01*
X0003181150Y0003326668D01*
X0003178335Y0003329478D01*
X0003175518Y0003335099D01*
X0003175503Y0003351972D01*
X0003178311Y0003357599D01*
X0003181120Y0003360414D01*
X0003181174Y0003298546D02*
X0003178364Y0003295732D01*
X0003175550Y0003298542D01*
X0003178359Y0003301356D01*
X0003181174Y0003298546D01*
X0003175550Y0003298542D01*
X0003234639Y0003259223D02*
X0003234644Y0003253598D01*
X0003231837Y0003247972D01*
X0003229027Y0003245157D01*
X0003223405Y0003242340D01*
X0003212159Y0003239518D01*
X0003198098Y0003239506D01*
X0003186847Y0003242308D01*
X0003181220Y0003245116D01*
X0003178406Y0003247925D01*
X0003175589Y0003253547D01*
X0003175584Y0003259171D01*
X0003178391Y0003264798D01*
X0003181201Y0003267613D01*
X0003186823Y0003270430D01*
X0003198069Y0003273252D01*
X0003212130Y0003273264D01*
X0003223381Y0003270462D01*
X0003229007Y0003267654D01*
X0003231822Y0003264845D01*
X0003234639Y0003259223D01*
X0003234688Y0003202980D02*
X0003234693Y0003197356D01*
X0003231886Y0003191729D01*
X0003229076Y0003188914D01*
X0003223454Y0003186097D01*
X0003212208Y0003183275D01*
X0003198147Y0003183263D01*
X0003186896Y0003186065D01*
X0003181269Y0003188873D01*
X0003178455Y0003191682D01*
X0003175638Y0003197304D01*
X0003175633Y0003202929D01*
X0003178440Y0003208555D01*
X0003181250Y0003211370D01*
X0003186872Y0003214187D01*
X0003198118Y0003217009D01*
X0003212179Y0003217021D01*
X0003223430Y0003214219D01*
X0003229056Y0003211411D01*
X0003231871Y0003208602D01*
X0003234688Y0003202980D01*
X0003234737Y0003146737D02*
X0003234742Y0003141113D01*
X0003231935Y0003135486D01*
X0003229125Y0003132671D01*
X0003223503Y0003129854D01*
X0003212257Y0003127032D01*
X0003198196Y0003127020D01*
X0003186945Y0003129822D01*
X0003181318Y0003132630D01*
X0003178504Y0003135439D01*
X0003175687Y0003141061D01*
X0003175682Y0003146686D01*
X0003178489Y0003152312D01*
X0003181299Y0003155127D01*
X0003186921Y0003157944D01*
X0003198167Y0003160766D01*
X0003212227Y0003160778D01*
X0003223478Y0003157976D01*
X0003229105Y0003155168D01*
X0003231920Y0003152359D01*
X0003234737Y0003146737D01*
X0003175760Y0003056697D02*
X0003215130Y0003056731D01*
X0003209506Y0003056726D02*
X0003212320Y0003053917D01*
X0003215137Y0003048295D01*
X0003215145Y0003039858D01*
X0003212337Y0003034232D01*
X0003206716Y0003031414D01*
X0003175782Y0003031388D01*
X0003206716Y0003031414D02*
X0003212342Y0003028607D01*
X0003215159Y0003022985D01*
X0003215167Y0003014549D01*
X0003212360Y0003008922D01*
X0003206738Y0003006105D01*
X0003175804Y0003006078D01*
X0003175829Y0002977957D02*
X0003215199Y0002977991D01*
X0003209574Y0002977986D02*
X0003212389Y0002975176D01*
X0003215206Y0002969555D01*
X0003215213Y0002961118D01*
X0003212406Y0002955491D01*
X0003206784Y0002952674D01*
X0003175851Y0002952647D01*
X0003206784Y0002952674D02*
X0003212411Y0002949867D01*
X0003215228Y0002944245D01*
X0003215235Y0002935809D01*
X0003212428Y0002930182D01*
X0003206806Y0002927365D01*
X0003175873Y0002927338D01*
X0003255134Y0003622008D02*
X0003255921Y0002716496D01*
X0003299606Y0003622047D02*
X0003148834Y0003621916D01*
X0003300393Y0002716535D02*
X0003149622Y0002716404D01*
X0003255921Y0002716496D02*
X0003232795Y0002760827D01*
X0003255921Y0002716496D02*
X0003278970Y0002760867D01*
X0003255134Y0003622008D02*
X0003232085Y0003577637D01*
X0003255134Y0003622008D02*
X0003278260Y0003577678D01*
X0003403733Y0003684573D02*
X0003369988Y0003684615D01*
X0003386861Y0003684594D02*
X0003386934Y0003743649D01*
X0003381300Y0003735220D01*
X0003375668Y0003729603D01*
X0003370040Y0003726798D01*
X0003454426Y0003743565D02*
X0003443177Y0003743579D01*
X0003437550Y0003740774D01*
X0003434734Y0003737965D01*
X0003429099Y0003729536D01*
X0003426273Y0003718291D01*
X0003426245Y0003695794D01*
X0003429050Y0003690166D01*
X0003431858Y0003687350D01*
X0003437479Y0003684531D01*
X0003448728Y0003684517D01*
X0003454356Y0003687322D01*
X0003457171Y0003690131D01*
X0003459990Y0003695751D01*
X0003460008Y0003709812D01*
X0003457203Y0003715440D01*
X0003454394Y0003718256D01*
X0003448773Y0003721075D01*
X0003437525Y0003721089D01*
X0003431897Y0003718284D01*
X0003429081Y0003715475D01*
X0003426262Y0003709854D01*
X0003485293Y0003690096D02*
X0003488101Y0003687280D01*
X0003485286Y0003684471D01*
X0003482477Y0003687287D01*
X0003485293Y0003690096D01*
X0003485286Y0003684471D01*
X0003524730Y0003743477D02*
X0003530354Y0003743470D01*
X0003535975Y0003740651D01*
X0003538783Y0003737835D01*
X0003541588Y0003732207D01*
X0003544386Y0003720955D01*
X0003544369Y0003706895D01*
X0003541543Y0003695650D01*
X0003538723Y0003690029D01*
X0003535908Y0003687220D01*
X0003530280Y0003684415D01*
X0003524656Y0003684422D01*
X0003519035Y0003687241D01*
X0003516226Y0003690057D01*
X0003513421Y0003695685D01*
X0003510623Y0003706937D01*
X0003510641Y0003720997D01*
X0003513467Y0003732243D01*
X0003516286Y0003737863D01*
X0003519102Y0003740672D01*
X0003524730Y0003743477D01*
X0003580972Y0003743407D02*
X0003586597Y0003743400D01*
X0003592217Y0003740581D01*
X0003595026Y0003737765D01*
X0003597831Y0003732137D01*
X0003600629Y0003720885D01*
X0003600612Y0003706824D01*
X0003597786Y0003695579D01*
X0003594966Y0003689958D01*
X0003592151Y0003687150D01*
X0003586523Y0003684345D01*
X0003580899Y0003684352D01*
X0003575278Y0003687171D01*
X0003572469Y0003689987D01*
X0003569664Y0003695614D01*
X0003566866Y0003706866D01*
X0003566884Y0003720927D01*
X0003569710Y0003732172D01*
X0003572529Y0003737793D01*
X0003575345Y0003740602D01*
X0003580972Y0003743407D01*
X0003637215Y0003743337D02*
X0003642840Y0003743330D01*
X0003648460Y0003740510D01*
X0003651269Y0003737695D01*
X0003654074Y0003732067D01*
X0003656872Y0003720815D01*
X0003656855Y0003706754D01*
X0003654028Y0003695509D01*
X0003651209Y0003689888D01*
X0003648394Y0003687080D01*
X0003642766Y0003684274D01*
X0003637142Y0003684281D01*
X0003631521Y0003687101D01*
X0003628712Y0003689916D01*
X0003625907Y0003695544D01*
X0003623109Y0003706796D01*
X0003623126Y0003720857D01*
X0003625953Y0003732102D01*
X0003628772Y0003737723D01*
X0003631588Y0003740531D01*
X0003637215Y0003743337D01*
X0003727130Y0003684169D02*
X0003727179Y0003723539D01*
X0003727172Y0003717915D02*
X0003729988Y0003720723D01*
X0003735616Y0003723528D01*
X0003744052Y0003723518D01*
X0003749673Y0003720699D01*
X0003752478Y0003715071D01*
X0003752440Y0003684137D01*
X0003752478Y0003715071D02*
X0003755297Y0003720692D01*
X0003760925Y0003723497D01*
X0003769362Y0003723486D01*
X0003774982Y0003720667D01*
X0003777787Y0003715039D01*
X0003777749Y0003684106D01*
X0003805870Y0003684071D02*
X0003805920Y0003723441D01*
X0003805912Y0003717816D02*
X0003808728Y0003720625D01*
X0003814356Y0003723430D01*
X0003822792Y0003723420D01*
X0003828413Y0003720600D01*
X0003831218Y0003714972D01*
X0003831180Y0003684039D01*
X0003831218Y0003714972D02*
X0003834037Y0003720593D01*
X0003839665Y0003723398D01*
X0003848102Y0003723388D01*
X0003853722Y0003720569D01*
X0003856528Y0003714941D01*
X0003856489Y0003684007D01*
X0003299651Y0003658269D02*
X0003929572Y0003657482D01*
X0003299606Y0003622440D02*
X0003299784Y0003764568D01*
X0003929527Y0003621653D02*
X0003929705Y0003763781D01*
X0003929572Y0003657482D02*
X0003885193Y0003634450D01*
X0003929572Y0003657482D02*
X0003885250Y0003680625D01*
X0003299651Y0003658269D02*
X0003343972Y0003635126D01*
X0003299651Y0003658269D02*
X0003344030Y0003681301D01*
G04 next file*
G04 Gerber Fmt 4.6, Leading zero omitted, Abs format (unit mm)*
G04 Created by KiCad (PCBNEW 4.0.7) date 11/19/17 12:57:03*
G01G01*
G04 APERTURE LIST*
G04 APERTURE END LIST*
D106*
G04 next file*
G04 Gerber Fmt 4.6, Leading zero omitted, Abs format (unit mm)*
G04 Created by KiCad (PCBNEW 4.0.7) date 11/19/17 12:57:03*
G01G01*
G04 APERTURE LIST*
G04 APERTURE END LIST*
D107*
G04 next file*
G04 Gerber Fmt 4.6, Leading zero omitted, Abs format (unit mm)*
G04 Created by KiCad (PCBNEW 4.0.7) date 11/19/17 12:57:03*
G01G01*
G04 APERTURE LIST*
G04 APERTURE END LIST*
D108*
G04 next file*
G04 Gerber Fmt 4.6, Leading zero omitted, Abs format (unit mm)*
G04 Created by KiCad (PCBNEW 4.0.7) date 11/19/17 12:57:03*
G01G01*
G04 APERTURE LIST*
G04 APERTURE END LIST*
D109*
D110*
X0003935039Y0001622047D02*
X0003293307Y0001622047D01*
X0003293307Y0001622047D02*
X0003293307Y0001763779D01*
X0003293307Y0001763779D02*
X0003935039Y0001763779D01*
X0003935039Y0001763779D02*
X0003935039Y0001622047D01*
G04 next file*
G04 Gerber Fmt 4.6, Leading zero omitted, Abs format (unit mm)*
G04 Created by KiCad (PCBNEW 4.0.7) date 11/19/17 12:57:03*
G01G01*
G04 APERTURE LIST*
G04 APERTURE END LIST*
D111*
G04 next file*
G04 Gerber Fmt 4.6, Leading zero omitted, Abs format (unit mm)*
G04 Created by KiCad (PCBNEW 4.0.7) date 11/19/17 12:57:03*
G01G01*
G04 APERTURE LIST*
G04 APERTURE END LIST*
D112*
G04 next file*
G04 Gerber Fmt 4.6, Leading zero omitted, Abs format (unit mm)*
G04 Created by KiCad (PCBNEW 4.0.7) date 11/19/17 12:57:03*
G01G01*
G04 APERTURE LIST*
G04 APERTURE END LIST*
D113*
D114*
X0003228880Y0001602862D02*
X0003231695Y0001600053D01*
X0003234512Y0001594431D01*
X0003234524Y0001580370D01*
X0003231717Y0001574743D01*
X0003228907Y0001571929D01*
X0003223285Y0001569112D01*
X0003217661Y0001569107D01*
X0003209222Y0001571912D01*
X0003175447Y0001605628D01*
X0003175479Y0001569070D01*
X0003234551Y0001549436D02*
X0003234583Y0001512879D01*
X0003212069Y0001532544D01*
X0003212076Y0001524108D01*
X0003209269Y0001518481D01*
X0003206459Y0001515666D01*
X0003200837Y0001512849D01*
X0003186776Y0001512837D01*
X0003181150Y0001515644D01*
X0003178335Y0001518454D01*
X0003175518Y0001524076D01*
X0003175503Y0001540949D01*
X0003178311Y0001546575D01*
X0003181120Y0001549390D01*
X0003181174Y0001487523D02*
X0003178364Y0001484708D01*
X0003175550Y0001487518D01*
X0003178359Y0001490332D01*
X0003181174Y0001487523D01*
X0003175550Y0001487518D01*
X0003234639Y0001448199D02*
X0003234644Y0001442575D01*
X0003231837Y0001436948D01*
X0003229027Y0001434134D01*
X0003223405Y0001431316D01*
X0003212159Y0001428495D01*
X0003198098Y0001428482D01*
X0003186847Y0001431285D01*
X0003181220Y0001434092D01*
X0003178406Y0001436902D01*
X0003175589Y0001442524D01*
X0003175584Y0001448148D01*
X0003178391Y0001453775D01*
X0003181201Y0001456589D01*
X0003186823Y0001459406D01*
X0003198069Y0001462228D01*
X0003212130Y0001462240D01*
X0003223381Y0001459438D01*
X0003229007Y0001456631D01*
X0003231822Y0001453821D01*
X0003234639Y0001448199D01*
X0003234688Y0001391956D02*
X0003234693Y0001386332D01*
X0003231886Y0001380705D01*
X0003229076Y0001377891D01*
X0003223454Y0001375074D01*
X0003212208Y0001372252D01*
X0003198147Y0001372239D01*
X0003186896Y0001375042D01*
X0003181269Y0001377849D01*
X0003178455Y0001380659D01*
X0003175638Y0001386281D01*
X0003175633Y0001391905D01*
X0003178440Y0001397532D01*
X0003181250Y0001400346D01*
X0003186872Y0001403163D01*
X0003198118Y0001405985D01*
X0003212179Y0001405997D01*
X0003223430Y0001403195D01*
X0003229056Y0001400388D01*
X0003231871Y0001397578D01*
X0003234688Y0001391956D01*
X0003234737Y0001335713D02*
X0003234742Y0001330089D01*
X0003231935Y0001324462D01*
X0003229125Y0001321648D01*
X0003223503Y0001318831D01*
X0003212257Y0001316009D01*
X0003198196Y0001315996D01*
X0003186945Y0001318799D01*
X0003181318Y0001321606D01*
X0003178504Y0001324416D01*
X0003175687Y0001330038D01*
X0003175682Y0001335662D01*
X0003178489Y0001341289D01*
X0003181299Y0001344103D01*
X0003186921Y0001346920D01*
X0003198167Y0001349742D01*
X0003212227Y0001349754D01*
X0003223478Y0001346952D01*
X0003229105Y0001344145D01*
X0003231920Y0001341335D01*
X0003234737Y0001335713D01*
X0003175760Y0001245673D02*
X0003215130Y0001245707D01*
X0003209506Y0001245703D02*
X0003212320Y0001242893D01*
X0003215137Y0001237271D01*
X0003215145Y0001228835D01*
X0003212337Y0001223208D01*
X0003206716Y0001220391D01*
X0003175782Y0001220364D01*
X0003206716Y0001220391D02*
X0003212342Y0001217584D01*
X0003215159Y0001211962D01*
X0003215167Y0001203525D01*
X0003212360Y0001197898D01*
X0003206738Y0001195082D01*
X0003175804Y0001195055D01*
X0003175829Y0001166933D02*
X0003215199Y0001166967D01*
X0003209574Y0001166962D02*
X0003212389Y0001164153D01*
X0003215206Y0001158531D01*
X0003215213Y0001150095D01*
X0003212406Y0001144468D01*
X0003206784Y0001141651D01*
X0003175851Y0001141624D01*
X0003206784Y0001141651D02*
X0003212411Y0001138843D01*
X0003215228Y0001133222D01*
X0003215235Y0001124785D01*
X0003212428Y0001119158D01*
X0003206806Y0001116341D01*
X0003175873Y0001116314D01*
X0003255134Y0001810984D02*
X0003255921Y0000905473D01*
X0003299606Y0001811023D02*
X0003148834Y0001810892D01*
X0003300393Y0000905511D02*
X0003149622Y0000905380D01*
X0003255921Y0000905473D02*
X0003232795Y0000949803D01*
X0003255921Y0000905473D02*
X0003278970Y0000949843D01*
X0003255134Y0001810984D02*
X0003232085Y0001766614D01*
X0003255134Y0001810984D02*
X0003278260Y0001766654D01*
X0003403733Y0001873550D02*
X0003369988Y0001873592D01*
X0003386861Y0001873571D02*
X0003386934Y0001932626D01*
X0003381300Y0001924196D01*
X0003375668Y0001918579D01*
X0003370040Y0001915774D01*
X0003454426Y0001932541D02*
X0003443177Y0001932555D01*
X0003437550Y0001929750D01*
X0003434734Y0001926942D01*
X0003429099Y0001918512D01*
X0003426273Y0001907267D01*
X0003426245Y0001884770D01*
X0003429050Y0001879142D01*
X0003431858Y0001876327D01*
X0003437479Y0001873507D01*
X0003448728Y0001873493D01*
X0003454356Y0001876298D01*
X0003457171Y0001879107D01*
X0003459990Y0001884728D01*
X0003460008Y0001898789D01*
X0003457203Y0001904416D01*
X0003454394Y0001907232D01*
X0003448773Y0001910051D01*
X0003437525Y0001910065D01*
X0003431897Y0001907260D01*
X0003429081Y0001904452D01*
X0003426262Y0001898831D01*
X0003485293Y0001879072D02*
X0003488101Y0001876256D01*
X0003485286Y0001873448D01*
X0003482477Y0001876263D01*
X0003485293Y0001879072D01*
X0003485286Y0001873448D01*
X0003524730Y0001932453D02*
X0003530354Y0001932446D01*
X0003535975Y0001929627D01*
X0003538783Y0001926812D01*
X0003541588Y0001921184D01*
X0003544386Y0001909932D01*
X0003544369Y0001895871D01*
X0003541543Y0001884626D01*
X0003538723Y0001879005D01*
X0003535908Y0001876196D01*
X0003530280Y0001873391D01*
X0003524656Y0001873398D01*
X0003519035Y0001876218D01*
X0003516226Y0001879033D01*
X0003513421Y0001884661D01*
X0003510623Y0001895913D01*
X0003510641Y0001909974D01*
X0003513467Y0001921219D01*
X0003516286Y0001926840D01*
X0003519102Y0001929648D01*
X0003524730Y0001932453D01*
X0003580972Y0001932383D02*
X0003586597Y0001932376D01*
X0003592217Y0001929557D01*
X0003595026Y0001926741D01*
X0003597831Y0001921113D01*
X0003600629Y0001909861D01*
X0003600612Y0001895801D01*
X0003597786Y0001884556D01*
X0003594966Y0001878935D01*
X0003592151Y0001876126D01*
X0003586523Y0001873321D01*
X0003580899Y0001873328D01*
X0003575278Y0001876147D01*
X0003572469Y0001878963D01*
X0003569664Y0001884591D01*
X0003566866Y0001895843D01*
X0003566884Y0001909904D01*
X0003569710Y0001921149D01*
X0003572529Y0001926769D01*
X0003575345Y0001929578D01*
X0003580972Y0001932383D01*
X0003637215Y0001932313D02*
X0003642840Y0001932306D01*
X0003648460Y0001929487D01*
X0003651269Y0001926671D01*
X0003654074Y0001921043D01*
X0003656872Y0001909791D01*
X0003656855Y0001895730D01*
X0003654028Y0001884485D01*
X0003651209Y0001878865D01*
X0003648394Y0001876056D01*
X0003642766Y0001873251D01*
X0003637142Y0001873258D01*
X0003631521Y0001876077D01*
X0003628712Y0001878893D01*
X0003625907Y0001884520D01*
X0003623109Y0001895773D01*
X0003623126Y0001909833D01*
X0003625953Y0001921078D01*
X0003628772Y0001926699D01*
X0003631588Y0001929508D01*
X0003637215Y0001932313D01*
X0003727130Y0001873145D02*
X0003727179Y0001912515D01*
X0003727172Y0001906891D02*
X0003729988Y0001909700D01*
X0003735616Y0001912505D01*
X0003744052Y0001912494D01*
X0003749673Y0001909675D01*
X0003752478Y0001904047D01*
X0003752440Y0001873114D01*
X0003752478Y0001904047D02*
X0003755297Y0001909668D01*
X0003760925Y0001912473D01*
X0003769362Y0001912463D01*
X0003774982Y0001909643D01*
X0003777787Y0001904016D01*
X0003777749Y0001873082D01*
X0003805870Y0001873047D02*
X0003805920Y0001912417D01*
X0003805912Y0001906793D02*
X0003808728Y0001909601D01*
X0003814356Y0001912406D01*
X0003822792Y0001912396D01*
X0003828413Y0001909577D01*
X0003831218Y0001903949D01*
X0003831180Y0001873015D01*
X0003831218Y0001903949D02*
X0003834037Y0001909570D01*
X0003839665Y0001912375D01*
X0003848102Y0001912364D01*
X0003853722Y0001909545D01*
X0003856528Y0001903917D01*
X0003856489Y0001872984D01*
X0003299651Y0001847245D02*
X0003929572Y0001846458D01*
X0003299606Y0001811417D02*
X0003299784Y0001953545D01*
X0003929527Y0001810629D02*
X0003929705Y0001952757D01*
X0003929572Y0001846458D02*
X0003885193Y0001823426D01*
X0003929572Y0001846458D02*
X0003885250Y0001869601D01*
X0003299651Y0001847245D02*
X0003343972Y0001824103D01*
X0003299651Y0001847245D02*
X0003344030Y0001870277D01*
G04 next file*
G04 Gerber Fmt 4.6, Leading zero omitted, Abs format (unit mm)*
G04 Created by KiCad (PCBNEW 4.0.7) date 11/19/17 12:57:03*
G01G01*
G04 APERTURE LIST*
G04 APERTURE END LIST*
D115*
G04 next file*
G04 Gerber Fmt 4.6, Leading zero omitted, Abs format (unit mm)*
G04 Created by KiCad (PCBNEW 4.0.7) date 11/19/17 12:57:03*
G01G01*
G04 APERTURE LIST*
G04 APERTURE END LIST*
D116*
G04 next file*
G04 Gerber Fmt 4.6, Leading zero omitted, Abs format (unit mm)*
G04 Created by KiCad (PCBNEW 4.0.7) date 11/19/17 12:57:03*
G01G01*
G04 APERTURE LIST*
G04 APERTURE END LIST*
D117*
G04 next file*
G04 Gerber Fmt 4.6, Leading zero omitted, Abs format (unit mm)*
G04 Created by KiCad (PCBNEW 4.0.7) date 11/19/17 12:57:03*
G01G01*
G04 APERTURE LIST*
G04 APERTURE END LIST*
D118*
D119*
X0003935039Y0000716535D02*
X0003293307Y0000716535D01*
X0003293307Y0000716535D02*
X0003293307Y0000858267D01*
X0003293307Y0000858267D02*
X0003935039Y0000858267D01*
X0003935039Y0000858267D02*
X0003935039Y0000716535D01*
G04 next file*
G04 Gerber Fmt 4.6, Leading zero omitted, Abs format (unit mm)*
G04 Created by KiCad (PCBNEW 4.0.7) date 11/19/17 12:57:03*
G01G01*
G04 APERTURE LIST*
G04 APERTURE END LIST*
D120*
G04 next file*
G04 Gerber Fmt 4.6, Leading zero omitted, Abs format (unit mm)*
G04 Created by KiCad (PCBNEW 4.0.7) date 11/19/17 12:57:03*
G01G01*
G04 APERTURE LIST*
G04 APERTURE END LIST*
D121*
G04 next file*
G04 Gerber Fmt 4.6, Leading zero omitted, Abs format (unit mm)*
G04 Created by KiCad (PCBNEW 4.0.7) date 11/19/17 12:57:03*
G01G01*
G04 APERTURE LIST*
G04 APERTURE END LIST*
D122*
D123*
X0003228880Y0000697351D02*
X0003231695Y0000694541D01*
X0003234512Y0000688919D01*
X0003234524Y0000674858D01*
X0003231717Y0000669232D01*
X0003228907Y0000666417D01*
X0003223285Y0000663600D01*
X0003217661Y0000663595D01*
X0003209222Y0000666400D01*
X0003175447Y0000700116D01*
X0003175479Y0000663558D01*
X0003234551Y0000643925D02*
X0003234583Y0000607367D01*
X0003212069Y0000627032D01*
X0003212076Y0000618596D01*
X0003209269Y0000612969D01*
X0003206459Y0000610154D01*
X0003200837Y0000607337D01*
X0003186776Y0000607325D01*
X0003181150Y0000610132D01*
X0003178335Y0000612942D01*
X0003175518Y0000618564D01*
X0003175503Y0000635437D01*
X0003178311Y0000641064D01*
X0003181120Y0000643878D01*
X0003181174Y0000582011D02*
X0003178364Y0000579196D01*
X0003175550Y0000582006D01*
X0003178359Y0000584821D01*
X0003181174Y0000582011D01*
X0003175550Y0000582006D01*
X0003234639Y0000542687D02*
X0003234644Y0000537063D01*
X0003231837Y0000531436D01*
X0003229027Y0000528622D01*
X0003223405Y0000525805D01*
X0003212159Y0000522983D01*
X0003198098Y0000522971D01*
X0003186847Y0000525773D01*
X0003181220Y0000528580D01*
X0003178406Y0000531390D01*
X0003175589Y0000537012D01*
X0003175584Y0000542636D01*
X0003178391Y0000548263D01*
X0003181201Y0000551077D01*
X0003186823Y0000553894D01*
X0003198069Y0000556716D01*
X0003212130Y0000556729D01*
X0003223381Y0000553926D01*
X0003229007Y0000551119D01*
X0003231822Y0000548309D01*
X0003234639Y0000542687D01*
X0003234688Y0000486444D02*
X0003234693Y0000480820D01*
X0003231886Y0000475193D01*
X0003229076Y0000472379D01*
X0003223454Y0000469562D01*
X0003212208Y0000466740D01*
X0003198147Y0000466728D01*
X0003186896Y0000469530D01*
X0003181269Y0000472337D01*
X0003178455Y0000475147D01*
X0003175638Y0000480769D01*
X0003175633Y0000486393D01*
X0003178440Y0000492020D01*
X0003181250Y0000494834D01*
X0003186872Y0000497651D01*
X0003198118Y0000500473D01*
X0003212179Y0000500486D01*
X0003223430Y0000497683D01*
X0003229056Y0000494876D01*
X0003231871Y0000492066D01*
X0003234688Y0000486444D01*
X0003234737Y0000430202D02*
X0003234742Y0000424577D01*
X0003231935Y0000418950D01*
X0003229125Y0000416136D01*
X0003223503Y0000413319D01*
X0003212257Y0000410497D01*
X0003198196Y0000410485D01*
X0003186945Y0000413287D01*
X0003181318Y0000416094D01*
X0003178504Y0000418904D01*
X0003175687Y0000424526D01*
X0003175682Y0000430150D01*
X0003178489Y0000435777D01*
X0003181299Y0000438591D01*
X0003186921Y0000441408D01*
X0003198167Y0000444230D01*
X0003212227Y0000444243D01*
X0003223478Y0000441440D01*
X0003229105Y0000438633D01*
X0003231920Y0000435823D01*
X0003234737Y0000430202D01*
X0003175760Y0000340161D02*
X0003215130Y0000340196D01*
X0003209506Y0000340191D02*
X0003212320Y0000337381D01*
X0003215137Y0000331759D01*
X0003215145Y0000323323D01*
X0003212337Y0000317696D01*
X0003206716Y0000314879D01*
X0003175782Y0000314852D01*
X0003206716Y0000314879D02*
X0003212342Y0000312072D01*
X0003215159Y0000306450D01*
X0003215167Y0000298013D01*
X0003212360Y0000292387D01*
X0003206738Y0000289570D01*
X0003175804Y0000289543D01*
X0003175829Y0000261421D02*
X0003215199Y0000261455D01*
X0003209574Y0000261451D02*
X0003212389Y0000258641D01*
X0003215206Y0000253019D01*
X0003215213Y0000244583D01*
X0003212406Y0000238956D01*
X0003206784Y0000236139D01*
X0003175851Y0000236112D01*
X0003206784Y0000236139D02*
X0003212411Y0000233332D01*
X0003215228Y0000227710D01*
X0003215235Y0000219273D01*
X0003212428Y0000213647D01*
X0003206806Y0000210830D01*
X0003175873Y0000210803D01*
X0003255134Y0000905473D02*
X0003255921Y-0000000038D01*
X0003299606Y0000905511D02*
X0003148834Y0000905380D01*
X0003300393Y0000000000D02*
X0003149622Y-0000000131D01*
X0003255921Y-0000000038D02*
X0003232795Y0000044291D01*
X0003255921Y-0000000038D02*
X0003278970Y0000044331D01*
X0003255134Y0000905473D02*
X0003232085Y0000861102D01*
X0003255134Y0000905473D02*
X0003278260Y0000861142D01*
X0003403733Y0000968038D02*
X0003369988Y0000968080D01*
X0003386861Y0000968059D02*
X0003386934Y0001027114D01*
X0003381300Y0001018685D01*
X0003375668Y0001013067D01*
X0003370040Y0001010262D01*
X0003454426Y0001027030D02*
X0003443177Y0001027044D01*
X0003437550Y0001024238D01*
X0003434734Y0001021430D01*
X0003429099Y0001013000D01*
X0003426273Y0001001755D01*
X0003426245Y0000979258D01*
X0003429050Y0000973630D01*
X0003431858Y0000970815D01*
X0003437479Y0000967996D01*
X0003448728Y0000967982D01*
X0003454356Y0000970787D01*
X0003457171Y0000973595D01*
X0003459990Y0000979216D01*
X0003460008Y0000993277D01*
X0003457203Y0000998905D01*
X0003454394Y0001001720D01*
X0003448773Y0001004539D01*
X0003437525Y0001004553D01*
X0003431897Y0001001748D01*
X0003429081Y0000998940D01*
X0003426262Y0000993319D01*
X0003485293Y0000973560D02*
X0003488101Y0000970744D01*
X0003485286Y0000967936D01*
X0003482477Y0000970751D01*
X0003485293Y0000973560D01*
X0003485286Y0000967936D01*
X0003524730Y0001026942D02*
X0003530354Y0001026935D01*
X0003535975Y0001024115D01*
X0003538783Y0001021300D01*
X0003541588Y0001015672D01*
X0003544386Y0001004420D01*
X0003544369Y0000990359D01*
X0003541543Y0000979114D01*
X0003538723Y0000973493D01*
X0003535908Y0000970685D01*
X0003530280Y0000967880D01*
X0003524656Y0000967887D01*
X0003519035Y0000970706D01*
X0003516226Y0000973521D01*
X0003513421Y0000979149D01*
X0003510623Y0000990401D01*
X0003510641Y0001004462D01*
X0003513467Y0001015707D01*
X0003516286Y0001021328D01*
X0003519102Y0001024137D01*
X0003524730Y0001026942D01*
X0003580972Y0001026871D02*
X0003586597Y0001026864D01*
X0003592217Y0001024045D01*
X0003595026Y0001021229D01*
X0003597831Y0001015602D01*
X0003600629Y0001004350D01*
X0003600612Y0000990289D01*
X0003597786Y0000979044D01*
X0003594966Y0000973423D01*
X0003592151Y0000970614D01*
X0003586523Y0000967809D01*
X0003580899Y0000967816D01*
X0003575278Y0000970635D01*
X0003572469Y0000973451D01*
X0003569664Y0000979079D01*
X0003566866Y0000990331D01*
X0003566884Y0001004392D01*
X0003569710Y0001015637D01*
X0003572529Y0001021258D01*
X0003575345Y0001024066D01*
X0003580972Y0001026871D01*
X0003637215Y0001026801D02*
X0003642840Y0001026794D01*
X0003648460Y0001023975D01*
X0003651269Y0001021159D01*
X0003654074Y0001015531D01*
X0003656872Y0001004279D01*
X0003656855Y0000990219D01*
X0003654028Y0000978973D01*
X0003651209Y0000973353D01*
X0003648394Y0000970544D01*
X0003642766Y0000967739D01*
X0003637142Y0000967746D01*
X0003631521Y0000970565D01*
X0003628712Y0000973381D01*
X0003625907Y0000979009D01*
X0003623109Y0000990261D01*
X0003623126Y0001004321D01*
X0003625953Y0001015567D01*
X0003628772Y0001021187D01*
X0003631588Y0001023996D01*
X0003637215Y0001026801D01*
X0003727130Y0000967634D02*
X0003727179Y0001007004D01*
X0003727172Y0001001379D02*
X0003729988Y0001004188D01*
X0003735616Y0001006993D01*
X0003744052Y0001006982D01*
X0003749673Y0001004163D01*
X0003752478Y0000998535D01*
X0003752440Y0000967602D01*
X0003752478Y0000998535D02*
X0003755297Y0001004156D01*
X0003760925Y0001006961D01*
X0003769362Y0001006951D01*
X0003774982Y0001004132D01*
X0003777787Y0000998504D01*
X0003777749Y0000967570D01*
X0003805870Y0000967535D02*
X0003805920Y0001006905D01*
X0003805912Y0001001281D02*
X0003808728Y0001004089D01*
X0003814356Y0001006895D01*
X0003822792Y0001006884D01*
X0003828413Y0001004065D01*
X0003831218Y0000998437D01*
X0003831180Y0000967503D01*
X0003831218Y0000998437D02*
X0003834037Y0001004058D01*
X0003839665Y0001006863D01*
X0003848102Y0001006852D01*
X0003853722Y0001004033D01*
X0003856528Y0000998405D01*
X0003856489Y0000967472D01*
X0003299651Y0000941734D02*
X0003929572Y0000940946D01*
X0003299606Y0000905905D02*
X0003299784Y0001048033D01*
X0003929527Y0000905118D02*
X0003929705Y0001047245D01*
X0003929572Y0000940946D02*
X0003885193Y0000917914D01*
X0003929572Y0000940946D02*
X0003885250Y0000964089D01*
X0003299651Y0000941734D02*
X0003343972Y0000918591D01*
X0003299651Y0000941734D02*
X0003344030Y0000964766D01*
G04 next file*
G04 Gerber Fmt 4.6, Leading zero omitted, Abs format (unit mm)*
G04 Created by KiCad (PCBNEW 4.0.7) date 11/19/17 12:57:03*
G01G01*
G04 APERTURE LIST*
G04 APERTURE END LIST*
D124*
G04 next file*
G04 Gerber Fmt 4.6, Leading zero omitted, Abs format (unit mm)*
G04 Created by KiCad (PCBNEW 4.0.7) date 11/19/17 12:57:03*
G01G01*
G04 APERTURE LIST*
G04 APERTURE END LIST*
D125*
G04 next file*
G04 Gerber Fmt 4.6, Leading zero omitted, Abs format (unit mm)*
G04 Created by KiCad (PCBNEW 4.0.7) date 11/19/17 12:57:03*
G01G01*
G04 APERTURE LIST*
G04 APERTURE END LIST*
D126*
G04 next file*
G04 Gerber Fmt 4.6, Leading zero omitted, Abs format (unit mm)*
G04 Created by KiCad (PCBNEW 4.0.7) date 11/19/17 12:57:03*
G01G01*
G04 APERTURE LIST*
G04 APERTURE END LIST*
D127*
D128*
X0003935039Y0002527559D02*
X0003293307Y0002527559D01*
X0003293307Y0002527559D02*
X0003293307Y0002669291D01*
X0003293307Y0002669291D02*
X0003935039Y0002669291D01*
X0003935039Y0002669291D02*
X0003935039Y0002527559D01*
G04 next file*
G04 Gerber Fmt 4.6, Leading zero omitted, Abs format (unit mm)*
G04 Created by KiCad (PCBNEW 4.0.7) date 11/19/17 12:57:03*
G01G01*
G04 APERTURE LIST*
G04 APERTURE END LIST*
D129*
G04 next file*
G04 Gerber Fmt 4.6, Leading zero omitted, Abs format (unit mm)*
G04 Created by KiCad (PCBNEW 4.0.7) date 11/19/17 12:57:03*
G01G01*
G04 APERTURE LIST*
G04 APERTURE END LIST*
D130*
G04 next file*
G04 Gerber Fmt 4.6, Leading zero omitted, Abs format (unit mm)*
G04 Created by KiCad (PCBNEW 4.0.7) date 11/19/17 12:57:03*
G01G01*
G04 APERTURE LIST*
G04 APERTURE END LIST*
D131*
D132*
X0003228880Y0002508374D02*
X0003231695Y0002505564D01*
X0003234512Y0002499943D01*
X0003234524Y0002485882D01*
X0003231717Y0002480255D01*
X0003228907Y0002477441D01*
X0003223285Y0002474624D01*
X0003217661Y0002474619D01*
X0003209222Y0002477423D01*
X0003175447Y0002511140D01*
X0003175479Y0002474582D01*
X0003234551Y0002454948D02*
X0003234583Y0002418390D01*
X0003212069Y0002438056D01*
X0003212076Y0002429619D01*
X0003209269Y0002423993D01*
X0003206459Y0002421178D01*
X0003200837Y0002418361D01*
X0003186776Y0002418349D01*
X0003181150Y0002421156D01*
X0003178335Y0002423966D01*
X0003175518Y0002429588D01*
X0003175503Y0002446460D01*
X0003178311Y0002452087D01*
X0003181120Y0002454902D01*
X0003181174Y0002393035D02*
X0003178364Y0002390220D01*
X0003175550Y0002393030D01*
X0003178359Y0002395844D01*
X0003181174Y0002393035D01*
X0003175550Y0002393030D01*
X0003234639Y0002353711D02*
X0003234644Y0002348087D01*
X0003231837Y0002342460D01*
X0003229027Y0002339645D01*
X0003223405Y0002336828D01*
X0003212159Y0002334006D01*
X0003198098Y0002333994D01*
X0003186847Y0002336797D01*
X0003181220Y0002339604D01*
X0003178406Y0002342413D01*
X0003175589Y0002348035D01*
X0003175584Y0002353660D01*
X0003178391Y0002359286D01*
X0003181201Y0002362101D01*
X0003186823Y0002364918D01*
X0003198069Y0002367740D01*
X0003212130Y0002367752D01*
X0003223381Y0002364950D01*
X0003229007Y0002362143D01*
X0003231822Y0002359333D01*
X0003234639Y0002353711D01*
X0003234688Y0002297468D02*
X0003234693Y0002291844D01*
X0003231886Y0002286217D01*
X0003229076Y0002283402D01*
X0003223454Y0002280585D01*
X0003212208Y0002277763D01*
X0003198147Y0002277751D01*
X0003186896Y0002280554D01*
X0003181269Y0002283361D01*
X0003178455Y0002286171D01*
X0003175638Y0002291792D01*
X0003175633Y0002297417D01*
X0003178440Y0002303043D01*
X0003181250Y0002305858D01*
X0003186872Y0002308675D01*
X0003198118Y0002311497D01*
X0003212179Y0002311509D01*
X0003223430Y0002308707D01*
X0003229056Y0002305900D01*
X0003231871Y0002303090D01*
X0003234688Y0002297468D01*
X0003234737Y0002241225D02*
X0003234742Y0002235601D01*
X0003231935Y0002229974D01*
X0003229125Y0002227159D01*
X0003223503Y0002224342D01*
X0003212257Y0002221521D01*
X0003198196Y0002221508D01*
X0003186945Y0002224311D01*
X0003181318Y0002227118D01*
X0003178504Y0002229928D01*
X0003175687Y0002235549D01*
X0003175682Y0002241174D01*
X0003178489Y0002246800D01*
X0003181299Y0002249615D01*
X0003186921Y0002252432D01*
X0003198167Y0002255254D01*
X0003212227Y0002255266D01*
X0003223478Y0002252464D01*
X0003229105Y0002249657D01*
X0003231920Y0002246847D01*
X0003234737Y0002241225D01*
X0003175760Y0002151185D02*
X0003215130Y0002151219D01*
X0003209506Y0002151214D02*
X0003212320Y0002148405D01*
X0003215137Y0002142783D01*
X0003215145Y0002134346D01*
X0003212337Y0002128720D01*
X0003206716Y0002125903D01*
X0003175782Y0002125876D01*
X0003206716Y0002125903D02*
X0003212342Y0002123095D01*
X0003215159Y0002117474D01*
X0003215167Y0002109037D01*
X0003212360Y0002103410D01*
X0003206738Y0002100593D01*
X0003175804Y0002100566D01*
X0003175829Y0002072445D02*
X0003215199Y0002072479D01*
X0003209574Y0002072474D02*
X0003212389Y0002069665D01*
X0003215206Y0002064043D01*
X0003215213Y0002055606D01*
X0003212406Y0002049980D01*
X0003206784Y0002047162D01*
X0003175851Y0002047136D01*
X0003206784Y0002047162D02*
X0003212411Y0002044355D01*
X0003215228Y0002038733D01*
X0003215235Y0002030297D01*
X0003212428Y0002024670D01*
X0003206806Y0002021853D01*
X0003175873Y0002021826D01*
X0003255134Y0002716496D02*
X0003255921Y0001810984D01*
X0003299606Y0002716535D02*
X0003148834Y0002716404D01*
X0003300393Y0001811023D02*
X0003149622Y0001810892D01*
X0003255921Y0001810984D02*
X0003232795Y0001855315D01*
X0003255921Y0001810984D02*
X0003278970Y0001855355D01*
X0003255134Y0002716496D02*
X0003232085Y0002672126D01*
X0003255134Y0002716496D02*
X0003278260Y0002672166D01*
X0003403733Y0002779061D02*
X0003369988Y0002779104D01*
X0003386861Y0002779082D02*
X0003386934Y0002838138D01*
X0003381300Y0002829708D01*
X0003375668Y0002824091D01*
X0003370040Y0002821286D01*
X0003454426Y0002838053D02*
X0003443177Y0002838067D01*
X0003437550Y0002835262D01*
X0003434734Y0002832453D01*
X0003429099Y0002824024D01*
X0003426273Y0002812779D01*
X0003426245Y0002790282D01*
X0003429050Y0002784654D01*
X0003431858Y0002781838D01*
X0003437479Y0002779019D01*
X0003448728Y0002779005D01*
X0003454356Y0002781810D01*
X0003457171Y0002784619D01*
X0003459990Y0002790240D01*
X0003460008Y0002804300D01*
X0003457203Y0002809928D01*
X0003454394Y0002812744D01*
X0003448773Y0002815563D01*
X0003437525Y0002815577D01*
X0003431897Y0002812772D01*
X0003429081Y0002809963D01*
X0003426262Y0002804343D01*
X0003485293Y0002784584D02*
X0003488101Y0002781768D01*
X0003485286Y0002778959D01*
X0003482477Y0002781775D01*
X0003485293Y0002784584D01*
X0003485286Y0002778959D01*
X0003524730Y0002837965D02*
X0003530354Y0002837958D01*
X0003535975Y0002835139D01*
X0003538783Y0002832323D01*
X0003541588Y0002826696D01*
X0003544386Y0002815444D01*
X0003544369Y0002801383D01*
X0003541543Y0002790138D01*
X0003538723Y0002784517D01*
X0003535908Y0002781708D01*
X0003530280Y0002778903D01*
X0003524656Y0002778910D01*
X0003519035Y0002781729D01*
X0003516226Y0002784545D01*
X0003513421Y0002790173D01*
X0003510623Y0002801425D01*
X0003510641Y0002815486D01*
X0003513467Y0002826731D01*
X0003516286Y0002832352D01*
X0003519102Y0002835160D01*
X0003524730Y0002837965D01*
X0003580972Y0002837895D02*
X0003586597Y0002837888D01*
X0003592217Y0002835069D01*
X0003595026Y0002832253D01*
X0003597831Y0002826625D01*
X0003600629Y0002815373D01*
X0003600612Y0002801312D01*
X0003597786Y0002790067D01*
X0003594966Y0002784447D01*
X0003592151Y0002781638D01*
X0003586523Y0002778833D01*
X0003580899Y0002778840D01*
X0003575278Y0002781659D01*
X0003572469Y0002784475D01*
X0003569664Y0002790103D01*
X0003566866Y0002801355D01*
X0003566884Y0002815415D01*
X0003569710Y0002826660D01*
X0003572529Y0002832281D01*
X0003575345Y0002835090D01*
X0003580972Y0002837895D01*
X0003637215Y0002837825D02*
X0003642840Y0002837818D01*
X0003648460Y0002834998D01*
X0003651269Y0002832183D01*
X0003654074Y0002826555D01*
X0003656872Y0002815303D01*
X0003656855Y0002801242D01*
X0003654028Y0002789997D01*
X0003651209Y0002784376D01*
X0003648394Y0002781568D01*
X0003642766Y0002778763D01*
X0003637142Y0002778770D01*
X0003631521Y0002781589D01*
X0003628712Y0002784404D01*
X0003625907Y0002790032D01*
X0003623109Y0002801284D01*
X0003623126Y0002815345D01*
X0003625953Y0002826590D01*
X0003628772Y0002832211D01*
X0003631588Y0002835020D01*
X0003637215Y0002837825D01*
X0003727130Y0002778657D02*
X0003727179Y0002818027D01*
X0003727172Y0002812403D02*
X0003729988Y0002815212D01*
X0003735616Y0002818017D01*
X0003744052Y0002818006D01*
X0003749673Y0002815187D01*
X0003752478Y0002809559D01*
X0003752440Y0002778626D01*
X0003752478Y0002809559D02*
X0003755297Y0002815180D01*
X0003760925Y0002817985D01*
X0003769362Y0002817974D01*
X0003774982Y0002815155D01*
X0003777787Y0002809527D01*
X0003777749Y0002778594D01*
X0003805870Y0002778559D02*
X0003805920Y0002817929D01*
X0003805912Y0002812304D02*
X0003808728Y0002815113D01*
X0003814356Y0002817918D01*
X0003822792Y0002817908D01*
X0003828413Y0002815088D01*
X0003831218Y0002809461D01*
X0003831180Y0002778527D01*
X0003831218Y0002809461D02*
X0003834037Y0002815081D01*
X0003839665Y0002817887D01*
X0003848102Y0002817876D01*
X0003853722Y0002815057D01*
X0003856528Y0002809429D01*
X0003856489Y0002778495D01*
X0003299651Y0002752757D02*
X0003929572Y0002751970D01*
X0003299606Y0002716929D02*
X0003299784Y0002859056D01*
X0003929527Y0002716141D02*
X0003929705Y0002858269D01*
X0003929572Y0002751970D02*
X0003885193Y0002728938D01*
X0003929572Y0002751970D02*
X0003885250Y0002775113D01*
X0003299651Y0002752757D02*
X0003343972Y0002729614D01*
X0003299651Y0002752757D02*
X0003344030Y0002775789D01*
G04 next file*
G04 Gerber Fmt 4.6, Leading zero omitted, Abs format (unit mm)*
G04 Created by KiCad (PCBNEW 4.0.7) date 11/19/17 12:57:03*
G01G01*
G04 APERTURE LIST*
G04 APERTURE END LIST*
D133*
G04 next file*
G04 Gerber Fmt 4.6, Leading zero omitted, Abs format (unit mm)*
G04 Created by KiCad (PCBNEW 4.0.7) date 11/19/17 12:57:03*
G01G01*
G04 APERTURE LIST*
G04 APERTURE END LIST*
D134*
G04 next file*
G04 Gerber Fmt 4.6, Leading zero omitted, Abs format (unit mm)*
G04 Created by KiCad (PCBNEW 4.0.7) date 11/19/17 12:57:03*
G01G01*
G04 APERTURE LIST*
G04 APERTURE END LIST*
D135*
M02*