%
M48
METRIC,000.000
T01C0.30
T02C0.80
T03C1.00
T04C0.45
T10C2.40
%
T01
X069198Y004725
X069425Y018125
X069875Y001824
X070400Y019250
X071500Y012300
X071510Y006719
X071675Y010800
X073425Y003149
X074470Y017090
X075410Y014762
X075568Y016358
X075831Y005000
X076750Y004225
X077578Y020964
X077875Y015578
X078550Y020275
X079060Y010725
X080161Y012352
X080590Y008830
X080890Y006039
X080975Y018225
X081126Y012378
X081344Y013128
X081377Y014742
X081518Y008332
X081974Y013725
X082710Y013998
X082752Y004465
X082769Y017323
X083387Y017095
X083911Y004658
X084047Y017543
X084199Y006103
X084377Y002853
X085450Y012330
X086714Y017178
X087090Y004556
X087320Y002859
X088030Y002449
X088467Y017177
X089108Y005359
X089125Y002570
X089506Y017448
X089549Y016791
X090387Y015091
X090510Y004320
X090702Y015676
X091179Y014289
X091894Y013135
X092048Y014283
X092320Y007800
X092420Y011450
X092559Y005707
X092590Y002929
X092800Y008260
X092825Y010511
X092975Y014350
X093110Y012410
X093170Y017410
X093288Y008750
X093650Y011653
X093761Y013388
X093836Y015959
X093900Y011050
X093906Y008182
X094357Y013647
X094490Y006850
X094663Y010283
X094867Y004834
X094880Y003230
X094900Y008950
X095000Y013550
X095560Y004579
X095670Y012720
X095748Y008832
X095799Y016634
X069198Y027725
X069425Y041125
X069875Y024825
X070400Y042250
X071500Y035300
X071510Y029720
X071675Y033800
X073425Y026150
X074470Y040090
X075410Y037762
X075568Y039358
X075831Y028000
X076750Y027225
X077578Y043964
X077875Y038578
X078550Y043275
X079060Y033725
X080161Y035352
X080590Y031830
X080890Y029040
X080975Y041225
X081126Y035378
X081344Y036128
X081377Y037742
X081518Y031332
X081974Y036725
X082710Y036998
X082752Y027465
X082769Y040323
X083387Y040095
X083911Y027659
X084047Y040543
X084199Y029104
X084377Y025853
X085450Y035330
X086714Y040178
X087090Y027557
X087320Y025860
X088030Y025450
X088467Y040177
X089108Y028360
X089125Y025570
X089506Y040448
X089549Y039791
X090387Y038091
X090510Y027320
X090702Y038676
X091179Y037289
X091894Y036135
X092048Y037283
X092320Y030800
X092420Y034450
X092559Y028707
X092590Y025930
X092800Y031259
X092825Y033510
X092975Y037350
X093110Y035410
X093170Y040410
X093288Y031750
X093650Y034653
X093761Y036388
X093836Y038959
X093900Y034050
X093906Y031182
X094357Y036647
X094490Y029851
X094663Y033283
X094867Y027834
X094880Y026230
X094900Y031950
X095000Y036550
X095560Y027580
X095670Y035720
X095748Y031832
X095799Y039635
X069198Y050725
X069425Y064125
X069875Y047825
X070400Y065250
X071500Y058300
X071510Y052720
X071675Y056800
X073425Y049150
X074470Y063090
X075410Y060762
X075568Y062358
X075831Y051000
X076750Y050225
X077578Y066964
X077875Y061578
X078550Y066275
X079060Y056725
X080161Y058352
X080590Y054830
X080890Y052040
X080975Y064224
X081126Y058378
X081344Y059128
X081377Y060742
X081518Y054332
X081974Y059725
X082710Y059998
X082752Y050465
X082769Y063323
X083387Y063095
X083911Y050659
X084047Y063543
X084199Y052104
X084377Y048853
X085450Y058330
X086714Y063178
X087090Y050557
X087320Y048860
X088030Y048450
X088467Y063177
X089108Y051360
X089125Y048570
X089506Y063448
X089549Y062791
X090387Y061091
X090510Y050320
X090702Y061676
X091179Y060289
X091894Y059135
X092048Y060283
X092320Y053800
X092420Y057450
X092559Y051707
X092590Y048930
X092800Y054260
X092825Y056510
X092975Y060350
X093110Y058410
X093170Y063410
X093288Y054750
X093650Y057653
X093761Y059388
X093836Y061959
X093900Y057050
X093906Y054182
X094357Y059647
X094490Y052851
X094663Y056283
X094867Y050834
X094880Y049230
X094900Y054950
X095000Y059550
X095560Y050580
X095670Y058720
X095748Y054832
X095799Y062635
X069198Y073725
X069425Y087125
X069875Y070825
X070400Y088250
X071500Y081300
X071510Y075720
X071675Y079800
X073425Y072150
X074470Y086090
X075410Y083762
X075568Y085358
X075831Y074000
X076750Y073225
X077578Y089964
X077875Y084578
X078550Y089275
X079060Y079725
X080161Y081352
X080590Y077830
X080890Y075039
X080975Y087225
X081126Y081378
X081344Y082128
X081377Y083742
X081518Y077332
X081974Y082725
X082710Y082998
X082752Y073465
X082769Y086323
X083387Y086095
X083911Y073658
X084047Y086543
X084199Y075104
X084377Y071853
X085450Y081330
X086714Y086178
X087090Y073557
X087320Y071860
X088030Y071450
X088467Y086176
X089108Y074360
X089125Y071570
X089506Y086448
X089549Y085791
X090387Y084091
X090510Y073320
X090702Y084676
X091179Y083289
X091894Y082135
X092048Y083283
X092320Y076800
X092420Y080450
X092559Y074707
X092590Y071930
X092800Y077260
X092825Y079511
X092975Y083350
X093110Y081410
X093170Y086410
X093288Y077750
X093650Y080653
X093761Y082388
X093836Y084959
X093900Y080050
X093906Y077182
X094357Y082647
X094490Y075851
X094663Y079283
X094867Y073834
X094880Y072230
X094900Y077950
X095000Y082550
X095560Y073580
X095670Y081720
X095748Y077832
X095799Y085635
X001372Y029188
X003582Y033885
X004979Y029025
X006340Y035580
X006502Y040618
X006570Y030750
X006670Y033787
X007002Y035037
X007079Y034326
X009360Y038730
X010302Y035180
X010772Y024788
X010792Y026211
X010812Y028528
X011492Y038598
X015028Y036962
X015360Y040769
X016242Y028418
X016954Y034947
X017404Y035420
X017452Y036798
X017502Y038558
X017510Y034190
X017682Y029849
X018976Y029284
X019702Y028694
X020572Y039868
X020838Y029011
X020872Y026143
X021462Y036288
X022270Y040220
X022632Y034968
X022830Y025517
X023082Y034703
X023320Y040130
X023572Y035028
X024039Y028731
X024877Y028793
X025252Y028168
X026044Y039451
X026589Y039091
X027800Y039091
X028671Y038904
X028687Y038241
X029016Y032582
X029030Y033730
X029202Y039358
X029922Y031508
X029932Y029868
X030302Y034928
X032241Y037878
X033870Y033440
X038412Y037438
X038440Y036740
X039416Y040058
X040284Y040066
X041270Y032800
X041470Y036519
X042062Y040328
X044272Y034068
X049204Y038255
X049860Y040910
X049870Y038290
X001372Y052188
X003582Y056885
X004979Y052025
X006340Y058580
X006502Y063618
X006570Y053750
X006670Y056787
X007002Y058037
X007079Y057326
X009360Y061730
X010302Y058180
X010772Y047788
X010792Y049211
X010812Y051528
X011492Y061598
X015028Y059962
X015360Y063769
X016242Y051418
X016954Y057947
X017404Y058420
X017452Y059798
X017502Y061558
X017510Y057190
X017682Y052849
X018976Y052284
X019702Y051694
X020572Y062868
X020838Y052010
X020872Y049143
X021462Y059288
X022270Y063220
X022632Y057968
X022830Y048516
X023082Y057703
X023320Y063130
X023572Y058028
X024039Y051731
X024877Y051793
X025252Y051168
X026044Y062451
X026589Y062091
X027800Y062091
X028671Y061904
X028687Y061241
X029016Y055582
X029030Y056730
X029202Y062358
X029922Y054507
X029932Y052867
X030302Y057928
X032241Y060878
X033870Y056440
X038412Y060438
X038440Y059740
X039416Y063058
X040284Y063066
X041270Y055800
X041470Y059519
X042062Y063328
X044272Y057068
X049204Y061255
X049860Y063910
X049870Y061290
X001372Y006187
X003582Y010885
X004979Y006024
X006340Y012580
X006502Y017618
X006570Y007750
X006670Y010787
X007002Y012037
X007079Y011326
X009360Y015730
X010302Y012180
X010772Y001788
X010792Y003210
X010812Y005527
X011492Y015597
X015028Y013962
X015360Y017770
X016242Y005417
X016954Y011947
X017404Y012420
X017452Y013798
X017502Y015558
X017510Y011190
X017682Y006849
X018976Y006283
X019702Y005693
X020572Y016868
X020838Y006010
X020872Y003143
X021462Y013288
X022270Y017220
X022632Y011968
X022830Y002516
X023082Y011703
X023320Y017130
X023572Y012028
X024039Y005731
X024877Y005792
X025252Y005167
X026044Y016451
X026589Y016091
X027800Y016091
X028671Y015904
X028687Y015241
X029016Y009582
X029030Y010730
X029202Y016358
X029922Y008508
X029932Y006867
X030302Y011928
X032241Y014878
X033870Y010440
X038412Y014438
X038440Y013740
X039416Y017058
X040284Y017066
X041270Y009800
X041470Y013520
X042062Y017328
X044272Y011068
X049204Y015254
X049860Y017910
X049870Y015290
X001372Y075188
X003582Y079885
X004979Y075025
X006340Y081580
X006502Y086618
X006570Y076750
X006670Y079787
X007002Y081037
X007079Y080326
X009360Y084730
X010302Y081180
X010772Y070788
X010792Y072211
X010812Y074527
X011492Y084598
X015028Y082962
X015360Y086770
X016242Y074418
X016954Y080947
X017404Y081420
X017452Y082798
X017502Y084558
X017510Y080190
X017682Y075849
X018976Y075283
X019702Y074694
X020572Y085868
X020838Y075011
X020872Y072143
X021462Y082288
X022270Y086220
X022632Y080968
X022830Y071517
X023082Y080703
X023320Y086130
X023572Y081028
X024039Y074731
X024877Y074793
X025252Y074168
X026044Y085451
X026589Y085091
X027800Y085091
X028671Y084904
X028687Y084241
X029016Y078582
X029030Y079730
X029202Y085358
X029922Y077508
X029932Y075868
X030302Y080928
X032241Y083878
X033870Y079440
X038412Y083438
X038440Y082740
X039416Y086058
X040284Y086066
X041270Y078800
X041470Y082520
X042062Y086328
X044272Y080068
X049204Y084255
X049860Y086910
X049870Y084290
X054370Y005070
X054700Y010700
X058580Y017650
X058730Y005309
X063630Y006859
X065019Y011570
X065760Y003410
X054370Y028070
X054700Y033700
X058580Y040650
X058730Y028310
X063630Y029860
X065019Y034570
X065760Y026410
X054370Y051070
X054700Y056700
X058580Y063650
X058730Y051310
X063630Y052860
X065019Y057570
X065760Y049410
X054370Y074070
X054700Y079700
X058580Y086650
X058730Y074310
X063630Y075860
X065019Y080570
X065760Y072410
T02
X077799Y013118
X077799Y008238
X077799Y036118
X077799Y031238
X077799Y059118
X077799Y054238
X077799Y082118
X077799Y077238
X032142Y036658
X032142Y031778
X032142Y059658
X032142Y054778
X032142Y013658
X032142Y008778
X032142Y082658
X032142Y077778
X057410Y010190
X058425Y012730
X059440Y010190
X060455Y012730
X061470Y010190
X062485Y012730
X057410Y033190
X058425Y035730
X059440Y033190
X060455Y035730
X061470Y033190
X062485Y035730
X057410Y056190
X058425Y058730
X059440Y056190
X060455Y058730
X061470Y056190
X062485Y058730
X057410Y079190
X058425Y081730
X059440Y079190
X060455Y081730
X061470Y079190
X062485Y081730
T03
X080135Y019972
X082675Y019972
X085215Y019972
X087755Y019972
X090295Y019972
X092835Y019972
X080135Y042972
X082675Y042972
X085215Y042972
X087755Y042972
X090295Y042972
X092835Y042972
X080135Y065972
X082675Y065972
X085215Y065972
X087755Y065972
X090295Y065972
X092835Y065972
X080135Y088972
X082675Y088972
X085215Y088972
X087755Y088972
X090295Y088972
X092835Y088972
X001892Y042318
X001892Y026818
X004432Y042318
X004432Y026818
X006972Y042318
X006972Y026818
X009030Y032920
X009030Y030380
X009512Y042318
X009512Y026818
X011570Y032920
X011570Y030380
X012052Y042318
X012052Y026818
X014110Y032920
X014110Y030380
X014592Y042318
X014592Y026818
X017132Y042318
X017132Y026818
X019672Y042318
X019672Y026818
X022212Y042318
X022212Y026818
X024752Y042318
X024752Y026818
X027292Y042318
X027292Y026818
X029832Y042318
X029832Y026818
X032372Y042318
X032372Y026818
X034912Y042318
X034912Y026818
X037452Y042318
X037452Y026818
X039992Y042318
X039992Y026818
X042532Y042318
X042532Y026818
X045072Y042318
X045072Y026818
X047612Y042318
X047612Y026818
X047772Y039518
X047772Y036978
X047772Y034438
X047772Y031898
X047772Y029358
X050152Y042318
X050152Y026818
X001892Y065318
X001892Y049818
X004432Y065318
X004432Y049818
X006972Y065318
X006972Y049818
X009030Y055920
X009030Y053380
X009512Y065318
X009512Y049818
X011570Y055920
X011570Y053380
X012052Y065318
X012052Y049818
X014110Y055920
X014110Y053380
X014592Y065318
X014592Y049818
X017132Y065318
X017132Y049818
X019672Y065318
X019672Y049818
X022212Y065318
X022212Y049818
X024752Y065318
X024752Y049818
X027292Y065318
X027292Y049818
X029832Y065318
X029832Y049818
X032372Y065318
X032372Y049818
X034912Y065318
X034912Y049818
X037452Y065318
X037452Y049818
X039992Y065318
X039992Y049818
X042532Y065318
X042532Y049818
X045072Y065318
X045072Y049818
X047612Y065318
X047612Y049818
X047772Y062518
X047772Y059978
X047772Y057438
X047772Y054897
X047772Y052358
X050152Y065318
X050152Y049818
X001892Y019318
X001892Y003818
X004432Y019318
X004432Y003818
X006972Y019318
X006972Y003818
X009030Y009920
X009030Y007380
X009512Y019318
X009512Y003818
X011570Y009920
X011570Y007380
X012052Y019318
X012052Y003818
X014110Y009920
X014110Y007380
X014592Y019318
X014592Y003818
X017132Y019318
X017132Y003818
X019672Y019318
X019672Y003818
X022212Y019318
X022212Y003818
X024752Y019318
X024752Y003818
X027292Y019318
X027292Y003818
X029832Y019318
X029832Y003818
X032372Y019318
X032372Y003818
X034912Y019318
X034912Y003818
X037452Y019318
X037452Y003818
X039992Y019318
X039992Y003818
X042532Y019318
X042532Y003818
X045072Y019318
X045072Y003818
X047612Y019318
X047612Y003818
X047772Y016518
X047772Y013978
X047772Y011438
X047772Y008898
X047772Y006358
X050152Y019318
X050152Y003818
X001892Y088318
X001892Y072818
X004432Y088318
X004432Y072818
X006972Y088318
X006972Y072818
X009030Y078920
X009030Y076380
X009512Y088318
X009512Y072818
X011570Y078920
X011570Y076380
X012052Y088318
X012052Y072818
X014110Y078920
X014110Y076380
X014592Y088318
X014592Y072818
X017132Y088318
X017132Y072818
X019672Y088318
X019672Y072818
X022212Y088318
X022212Y072818
X024752Y088318
X024752Y072818
X027292Y088318
X027292Y072818
X029832Y088318
X029832Y072818
X032372Y088318
X032372Y072818
X034912Y088318
X034912Y072818
X037452Y088318
X037452Y072818
X039992Y088318
X039992Y072818
X042532Y088318
X042532Y072818
X045072Y088318
X045072Y072818
X047612Y088318
X047612Y072818
X047772Y085518
X047772Y082978
X047772Y080438
X047772Y077898
X047772Y075358
X050152Y088318
X050152Y072818
X053650Y020000
X056190Y020000
X058730Y020000
X061269Y020000
X063810Y020000
X066350Y020000
X053650Y043000
X056190Y043000
X058730Y043000
X061269Y043000
X063810Y043000
X066350Y043000
X053650Y066000
X056190Y066000
X058730Y066000
X061269Y066000
X063810Y066000
X066350Y066000
X053650Y089000
X056190Y089000
X058730Y089000
X061269Y089000
X063810Y089000
X066350Y089000
T04
X072210Y013585
X072210Y009585
X072210Y036585
X072210Y032585
X072210Y059585
X072210Y055585
X072210Y082585
X072210Y078585
X004272Y036553
X004272Y032552
X004272Y059553
X004272Y055553
X004272Y013553
X004272Y009553
X004272Y082553
X004272Y078553
T10
X053950Y007890
X065950Y007890
X053950Y030890
X065950Y030890
X053950Y053890
X065950Y053890
X053950Y076890
X065950Y076890
M30