%MOIN*%
%OFA0B0*%
%FSLAX44Y44*%
%IPPOS*%
%LPD*%
%ADD10C,0*%
D10*
X00020484Y00027161D02*
X00020484Y00027161D01*
X00026787Y00027161D01*
X00026775Y00036220D01*
X00020472Y00036220D01*
X00020484Y00027161D01*
X00020472Y00009055D02*
X00020472Y00009055D01*
X00020472Y00018110D01*
X00000000Y00018110D01*
X00000000Y00009055D01*
X00020472Y00009055D01*
X00039291Y00000000D02*
X00039291Y00000000D01*
X00039291Y00009055D01*
X00026771Y00009055D01*
X00026771Y00000000D01*
X00039291Y00000000D01*
X00000000Y00027165D02*
X00020484Y-00000003D01*
X00026787Y-00000003D01*
X00026775Y00009055D01*
X00020484Y00009051D01*
X00026787Y00009051D01*
X00026775Y00018110D01*
X00020484Y00018106D01*
X00026787Y00018106D01*
X00026775Y00027165D01*
X00020472Y00027165D01*
X00020472Y00036220D01*
X00000000Y00036220D01*
X00000000Y00027165D01*
X00020472Y00009055D02*
X00000000Y00009055D01*
X00000000Y00000000D01*
X00020472Y00000000D01*
X00020472Y00009055D01*
X00000000Y00018110D02*
X00020472Y00018110D01*
X00020472Y00027165D01*
X00000000Y00027165D01*
X00000000Y00018110D01*
X00026771Y00027165D02*
X00039291Y00027165D01*
X00039291Y00036220D01*
X00026771Y00036220D01*
X00026771Y00027165D01*
X00026771Y00018110D02*
X00039291Y00018110D01*
X00039291Y00027165D01*
X00026771Y00027165D01*
X00026771Y00018110D01*
X00026771Y00009055D02*
X00039291Y00009055D01*
X00039291Y00018110D01*
X00026771Y00018110D01*
X00026771Y00009055D01*
M02*