%
M48
METRIC,000.000
T01C0.50
T02C1.00
T03C0.50
T10C0.30
T11C0.60
T12C0.80
T13C0.85
%
T01
X005410Y010200
X006425Y012740
X007440Y010200
X008455Y012740
X009470Y010200
X010485Y012740
X005410Y033190
X006425Y035730
X007440Y033190
X008455Y035730
X009470Y033190
X010485Y035730
X001950Y030890
X013950Y030890
X005410Y056190
X006425Y058730
X007440Y056190
X008455Y058730
X009470Y056190
X010485Y058730
X001950Y053890
X013950Y053890
X005410Y079190
X006425Y081730
X007440Y079190
X008455Y081730
X009470Y079190
X010485Y081730
X001950Y076890
X013950Y076890
T02
X001650Y020010
X004190Y020010
X006730Y020010
X009270Y020010
X011810Y020010
X014350Y020010
X017892Y019318
X017892Y003818
X020432Y019318
X020432Y003818
X022972Y019318
X022972Y003818
X025030Y009920
X025030Y007380
X025512Y019318
X025512Y003818
X027570Y009920
X027570Y007380
X028052Y019318
X028052Y003818
X030110Y009920
X030110Y007380
X030592Y019318
X030592Y003818
X033132Y019318
X033132Y003818
X035672Y019318
X035672Y003818
X038212Y019318
X038212Y003818
X040751Y019318
X040751Y003818
X043292Y019318
X043292Y003818
X045832Y019318
X045832Y003818
X048372Y019318
X048372Y003818
X050912Y019318
X050912Y003818
X053452Y019318
X053452Y003818
X055992Y019318
X055992Y003818
X058532Y019318
X058532Y003818
X061072Y019318
X061072Y003818
X063612Y019318
X063612Y003818
X063772Y016518
X063772Y013978
X063772Y011438
X063772Y008898
X063772Y006358
X066152Y019318
X066152Y003818
X080135Y019972
X082675Y019972
X085215Y019972
X087755Y019972
X090295Y019972
X092835Y019972
X001650Y043000
X004190Y043000
X006730Y043000
X009270Y043000
X011810Y043000
X014350Y043000
X001650Y066000
X004190Y066000
X006730Y066000
X009270Y066000
X011810Y066000
X014350Y066000
X001650Y089000
X004190Y089000
X006730Y089000
X009270Y089000
X011810Y089000
X014350Y089000
X017892Y042318
X017892Y026818
X020432Y042318
X020432Y026818
X022972Y042318
X022972Y026818
X025030Y032920
X025030Y030380
X025512Y042318
X025512Y026818
X027570Y032920
X027570Y030380
X028052Y042318
X028052Y026818
X030110Y032920
X030110Y030380
X030592Y042318
X030592Y026818
X033132Y042318
X033132Y026818
X035672Y042318
X035672Y026818
X038212Y042318
X038212Y026818
X040751Y042318
X040751Y026818
X043292Y042318
X043292Y026818
X045832Y042318
X045832Y026818
X048372Y042318
X048372Y026818
X050912Y042318
X050912Y026818
X053452Y042318
X053452Y026818
X055992Y042318
X055992Y026818
X058532Y042318
X058532Y026818
X061072Y042318
X061072Y026818
X063612Y042318
X063612Y026818
X063772Y039518
X063772Y036978
X063772Y034438
X063772Y031898
X063772Y029358
X066152Y042318
X066152Y026818
X017892Y065318
X017892Y049818
X020432Y065318
X020432Y049818
X022972Y065318
X022972Y049818
X025030Y055920
X025030Y053380
X025512Y065318
X025512Y049818
X027570Y055920
X027570Y053380
X028052Y065318
X028052Y049818
X030110Y055920
X030110Y053380
X030592Y065318
X030592Y049818
X033132Y065318
X033132Y049818
X035672Y065318
X035672Y049818
X038212Y065318
X038212Y049818
X040751Y065318
X040751Y049818
X043292Y065318
X043292Y049818
X045832Y065318
X045832Y049818
X048372Y065318
X048372Y049818
X050912Y065318
X050912Y049818
X053452Y065318
X053452Y049818
X055992Y065318
X055992Y049818
X058532Y065318
X058532Y049818
X061072Y065318
X061072Y049818
X063612Y065318
X063612Y049818
X063772Y062518
X063772Y059978
X063772Y057438
X063772Y054897
X063772Y052358
X066152Y065318
X066152Y049818
X017892Y088318
X017892Y072818
X020432Y088318
X020432Y072818
X022972Y088318
X022972Y072818
X025030Y078920
X025030Y076380
X025512Y088318
X025512Y072818
X027570Y078920
X027570Y076380
X028052Y088318
X028052Y072818
X030110Y078920
X030110Y076380
X030592Y088318
X030592Y072818
X033132Y088318
X033132Y072818
X035672Y088318
X035672Y072818
X038212Y088318
X038212Y072818
X040751Y088318
X040751Y072818
X043292Y088318
X043292Y072818
X045832Y088318
X045832Y072818
X048372Y088318
X048372Y072818
X050912Y088318
X050912Y072818
X053452Y088318
X053452Y072818
X055992Y088318
X055992Y072818
X058532Y088318
X058532Y072818
X061072Y088318
X061072Y072818
X063612Y088318
X063612Y072818
X063772Y085518
X063772Y082978
X063772Y080438
X063772Y077898
X063772Y075358
X066152Y088318
X066152Y072818
X080135Y042972
X082675Y042972
X085215Y042972
X087755Y042972
X090295Y042972
X092835Y042972
X080135Y065972
X082675Y065972
X085215Y065972
X087755Y065972
X090295Y065972
X092835Y065972
X080135Y088972
X082675Y088972
X085215Y088972
X087755Y088972
X090295Y088972
X092835Y088972
T03
X001950Y007900
X013950Y007900
T10
X017312Y006007
X019612Y010718
X020771Y005917
X022062Y012738
X022502Y017618
X022612Y010398
X022822Y007738
X022983Y011311
X023002Y012028
X026072Y015678
X026302Y012138
X026792Y003091
X026811Y005527
X026832Y001751
X027175Y015668
X031022Y017738
X031028Y013962
X032241Y005417
X032954Y011947
X033404Y012420
X033452Y013798
X033501Y015558
X033682Y006849
X033861Y011278
X034976Y006283
X035702Y005693
X036572Y016868
X036832Y006018
X036872Y003108
X037462Y013288
X038242Y017487
X038632Y011968
X038812Y002384
X039082Y011703
X039111Y016828
X039572Y012028
X040039Y005731
X040876Y005792
X041251Y005167
X042022Y016538
X042569Y016085
X043802Y016067
X044671Y015904
X044687Y015241
X045016Y009582
X045202Y016358
X045295Y010742
X045922Y008508
X045932Y006867
X046302Y011928
X048242Y014878
X049982Y010298
X054400Y013785
X054412Y014438
X055416Y017058
X056284Y017066
X057398Y008265
X057482Y013628
X058062Y017328
X060732Y009168
X065221Y015258
X065834Y017857
X065852Y016628
X070400Y019250
X071440Y005539
X071500Y011450
X071538Y012171
X071564Y012974
X073440Y002570
X074470Y017090
X075410Y014762
X075568Y016358
X075817Y004986
X077600Y020950
X077875Y015578
X078180Y002725
X079060Y010725
X080161Y012352
X080285Y017337
X080590Y008830
X080890Y006039
X081126Y012378
X081344Y013128
X081362Y014742
X081690Y008700
X081974Y013725
X082710Y013998
X082752Y017305
X082752Y004465
X083387Y017095
X083911Y004658
X084047Y017543
X084199Y006103
X084377Y002853
X086714Y017178
X087090Y004556
X087320Y002859
X088030Y002449
X088467Y017177
X089108Y005359
X089125Y002570
X089506Y017448
X089549Y016791
X090387Y015091
X090510Y004320
X090702Y015676
X091179Y014289
X091894Y013135
X092048Y014283
X092320Y007800
X092420Y011450
X092559Y005707
X092590Y002929
X092800Y008260
X092865Y010525
X092975Y014350
X093110Y012410
X093170Y017410
X093288Y008750
X093680Y011580
X093815Y013411
X093839Y015962
X093906Y008182
X094039Y010957
X094425Y013637
X094490Y006789
X094663Y010283
X094867Y004834
X094880Y003230
X094987Y013017
X095050Y008260
X095560Y004579
X095640Y008800
X095670Y012720
X095799Y016634
X017312Y029008
X019612Y033718
X020771Y028917
X022062Y035738
X022502Y040618
X022612Y033397
X022822Y030738
X022983Y034311
X023002Y035028
X026072Y038678
X026302Y035138
X026792Y026091
X026811Y028528
X026832Y024752
X027175Y038668
X031022Y040738
X031028Y036962
X032241Y028418
X032954Y034947
X033404Y035420
X033452Y036798
X033501Y038558
X033682Y029849
X033861Y034278
X034976Y029284
X035702Y028694
X036572Y039868
X036832Y029018
X036872Y026108
X037462Y036288
X038242Y040487
X038632Y034968
X038812Y025384
X039082Y034703
X039111Y039828
X039572Y035028
X040039Y028731
X040876Y028793
X041251Y028168
X042022Y039538
X042569Y039085
X043802Y039068
X044671Y038904
X044687Y038241
X045016Y032582
X045202Y039358
X045295Y033742
X045922Y031508
X045932Y029868
X046302Y034928
X048242Y037878
X049982Y033298
X054400Y036785
X054412Y037438
X055416Y040058
X056284Y040066
X057398Y031265
X057482Y036628
X058062Y040328
X060732Y032168
X065221Y038258
X065834Y040857
X065852Y039628
X017312Y052007
X019612Y056718
X020771Y051917
X022062Y058738
X022502Y063618
X022612Y056397
X022822Y053738
X022983Y057311
X023002Y058028
X026072Y061678
X026302Y058138
X026792Y049091
X026811Y051528
X026832Y047751
X027175Y061668
X031022Y063738
X031028Y059962
X032241Y051418
X032954Y057947
X033404Y058420
X033452Y059798
X033501Y061558
X033682Y052849
X033861Y057278
X034976Y052284
X035702Y051694
X036572Y062868
X036832Y052018
X036872Y049108
X037462Y059288
X038242Y063487
X038632Y057968
X038812Y048384
X039082Y057703
X039111Y062828
X039572Y058028
X040039Y051731
X040876Y051793
X041251Y051168
X042022Y062538
X042569Y062085
X043802Y062068
X044671Y061904
X044687Y061241
X045016Y055582
X045202Y062358
X045295Y056742
X045922Y054507
X045932Y052867
X046302Y057928
X048242Y060878
X049982Y056298
X054400Y059785
X054412Y060438
X055416Y063058
X056284Y063066
X057398Y054265
X057482Y059628
X058062Y063328
X060732Y055168
X065221Y061258
X065834Y063857
X065852Y062628
X017312Y075008
X019612Y079718
X020771Y074917
X022062Y081738
X022502Y086618
X022612Y079398
X022822Y076738
X022983Y080311
X023002Y081028
X026072Y084678
X026302Y081138
X026792Y072091
X026811Y074527
X026832Y070752
X027175Y084668
X031022Y086738
X031028Y082962
X032241Y074418
X032954Y080947
X033404Y081420
X033452Y082798
X033501Y084558
X033682Y075849
X033861Y080278
X034976Y075283
X035702Y074694
X036572Y085868
X036832Y075018
X036872Y072108
X037462Y082288
X038242Y086487
X038632Y080968
X038812Y071384
X039082Y080703
X039111Y085828
X039572Y081028
X040039Y074731
X040876Y074793
X041251Y074168
X042022Y085538
X042569Y085085
X043802Y085068
X044671Y084904
X044687Y084241
X045016Y078582
X045202Y085358
X045295Y079742
X045922Y077508
X045932Y075868
X046302Y080928
X048242Y083878
X049982Y079298
X054400Y082785
X054412Y083438
X055416Y086058
X056284Y086066
X057398Y077265
X057482Y082628
X058062Y086328
X060732Y078168
X065221Y084258
X065834Y086857
X065852Y085628
X070400Y042250
X071440Y028540
X071500Y034450
X071538Y035171
X071564Y035974
X073440Y025570
X074470Y040090
X075410Y037762
X075568Y039358
X075817Y027986
X077600Y043950
X077875Y038578
X078180Y025726
X079060Y033725
X080161Y035352
X080285Y040337
X080590Y031830
X080890Y029040
X081126Y035378
X081344Y036128
X081362Y037742
X081690Y031700
X081974Y036725
X082710Y036998
X082752Y040305
X082752Y027465
X083387Y040095
X083911Y027659
X084047Y040543
X084199Y029104
X084377Y025853
X086714Y040178
X087090Y027557
X087320Y025860
X088030Y025450
X088467Y040177
X089108Y028360
X089125Y025570
X089506Y040448
X089549Y039791
X090387Y038091
X090510Y027320
X090702Y038676
X091179Y037289
X091894Y036135
X092048Y037283
X092320Y030800
X092420Y034450
X092559Y028707
X092590Y025930
X092800Y031259
X092865Y033525
X092975Y037350
X093110Y035410
X093170Y040410
X093288Y031750
X093680Y034580
X093815Y036411
X093839Y038962
X093906Y031182
X094039Y033957
X094425Y036637
X094490Y029790
X094663Y033283
X094867Y027834
X094880Y026230
X094987Y036016
X095050Y031259
X095560Y027580
X095640Y031800
X095670Y035720
X095799Y039635
X070400Y065250
X071440Y051540
X071500Y057450
X071538Y058171
X071564Y058974
X073440Y048570
X074470Y063090
X075410Y060762
X075568Y062358
X075817Y050986
X077600Y066950
X077875Y061578
X078180Y048726
X079060Y056725
X080161Y058352
X080285Y063337
X080590Y054830
X080890Y052040
X081126Y058378
X081344Y059128
X081362Y060742
X081690Y054700
X081974Y059725
X082710Y059998
X082752Y063305
X082752Y050465
X083387Y063095
X083911Y050659
X084047Y063543
X084199Y052104
X084377Y048853
X086714Y063178
X087090Y050557
X087320Y048860
X088030Y048450
X088467Y063177
X089108Y051360
X089125Y048570
X089506Y063448
X089549Y062791
X090387Y061091
X090510Y050320
X090702Y061676
X091179Y060289
X091894Y059135
X092048Y060283
X092320Y053800
X092420Y057450
X092559Y051707
X092590Y048930
X092800Y054260
X092865Y056525
X092975Y060350
X093110Y058410
X093170Y063410
X093288Y054750
X093680Y057580
X093815Y059411
X093839Y061962
X093906Y054182
X094039Y056957
X094425Y059637
X094490Y052790
X094663Y056283
X094867Y050834
X094880Y049230
X094987Y059016
X095050Y054260
X095560Y050580
X095640Y054800
X095670Y058720
X095799Y062635
X070400Y088250
X071440Y074539
X071500Y080450
X071538Y081170
X071564Y081974
X073440Y071570
X074470Y086090
X075410Y083762
X075568Y085358
X075817Y073986
X077600Y089950
X077875Y084578
X078180Y071726
X079060Y079725
X080161Y081352
X080285Y086337
X080590Y077830
X080890Y075039
X081126Y081378
X081344Y082128
X081362Y083742
X081690Y077700
X081974Y082725
X082710Y082998
X082752Y086305
X082752Y073465
X083387Y086095
X083911Y073658
X084047Y086543
X084199Y075104
X084377Y071853
X086714Y086178
X087090Y073557
X087320Y071860
X088030Y071450
X088467Y086176
X089108Y074360
X089125Y071570
X089506Y086448
X089549Y085791
X090387Y084091
X090510Y073320
X090702Y084676
X091179Y083289
X091894Y082135
X092048Y083283
X092320Y076800
X092420Y080450
X092559Y074707
X092590Y071930
X092800Y077260
X092865Y079525
X092975Y083350
X093110Y081410
X093170Y086410
X093288Y077750
X093680Y080580
X093815Y082411
X093839Y084962
X093906Y077182
X094039Y079957
X094425Y082637
X094490Y075789
X094663Y079283
X094867Y073834
X094880Y072230
X094987Y082017
X095050Y077260
X095560Y073580
X095640Y077800
X095670Y081720
X095799Y085635
T11
X016001Y022992G85X016001Y022992
X016001Y022985G85X016001Y022985
X068001Y022993G85X068002Y022993
X068002Y022986G85X068001Y022986
X016001Y045992G85X016001Y045992
X016001Y045985G85X016001Y045985
X016001Y068992G85X016001Y068992
X016001Y068985G85X016001Y068985
X016001Y091992G85X016001Y091992
X016001Y091985G85X016001Y091985
X068001Y045993G85X068002Y045993
X068002Y045986G85X068001Y045986
X068001Y068993G85X068002Y068993
X068002Y068986G85X068001Y068986
X068001Y091993G85X068002Y091993
X068002Y091986G85X068001Y091986
T12
X048142Y013658
X048142Y008778
X077799Y013118
X077799Y008238
X048142Y036658
X048142Y031778
X048142Y059658
X048142Y054778
X048142Y082658
X048142Y077778
X077799Y036118
X077799Y031238
X077799Y059118
X077799Y054238
X077799Y082118
X077799Y077238
T13
X020802Y013848
X020802Y008848
X072820Y014050
X072820Y009050
X020802Y036848
X020802Y031848
X020802Y059848
X020802Y054848
X020802Y082848
X020802Y077848
X072820Y037050
X072820Y032049
X072820Y060050
X072820Y055050
X072820Y083050
X072820Y078050
M30