%MOIN*%
%OFA0B0*%
%FSLAX46Y46*%
%IPPOS*%
%LPD*%
%ADD10C,0.0039370078740157488*%
%ADD21C,0.0039370078740157488*%
%ADD22R,0.029527559055118113X0.031496062992125991*%
%ADD23R,0.035433070866141732X0.01968503937007874*%
%ADD24R,0.01968503937007874X0.035433070866141732*%
%ADD25R,0.041732283464566935X0.025590551181102365*%
%ADD26R,0.031496062992125991X0.029527559055118113*%
%ADD27C,0.0039370078740157488*%
%ADD28R,0.035433070866141732X0.01968503937007874*%
%ADD29R,0.029527559055118113X0.031496062992125991*%
%ADD30R,0.041732283464566935X0.025590551181102365*%
%ADD31R,0.01968503937007874X0.035433070866141732*%
%ADD32R,0.035433070866141732X0.031496062992125991*%
%ADD33R,0.031496062992125991X0.029527559055118113*%
%ADD34C,0.0039370078740157488*%
%ADD35C,0.0039370078740157488*%
%ADD36C,0.0039370078740157488*%
%ADD37C,0.0039370078740157488*%
%ADD38R,0.029527559055118113X0.031496062992125991*%
%ADD39R,0.035433070866141732X0.01968503937007874*%
%ADD40R,0.01968503937007874X0.035433070866141732*%
%ADD41R,0.041732283464566935X0.025590551181102365*%
%ADD42R,0.031496062992125991X0.029527559055118113*%
%ADD43C,0.0039370078740157488*%
%ADD44R,0.029527559055118113X0.031496062992125991*%
%ADD45R,0.035433070866141732X0.01968503937007874*%
%ADD46R,0.01968503937007874X0.035433070866141732*%
%ADD47R,0.041732283464566935X0.025590551181102365*%
%ADD48R,0.031496062992125991X0.029527559055118113*%
%ADD49C,0.0039370078740157488*%
%ADD50R,0.029527559055118113X0.031496062992125991*%
%ADD51R,0.035433070866141732X0.01968503937007874*%
%ADD52R,0.01968503937007874X0.035433070866141732*%
%ADD53R,0.041732283464566935X0.025590551181102365*%
%ADD54R,0.031496062992125991X0.029527559055118113*%
%ADD55C,0.0039370078740157488*%
%ADD56R,0.035433070866141732X0.01968503937007874*%
%ADD57R,0.029527559055118113X0.031496062992125991*%
%ADD58R,0.041732283464566935X0.025590551181102365*%
%ADD59R,0.01968503937007874X0.035433070866141732*%
%ADD60R,0.035433070866141732X0.031496062992125991*%
%ADD61R,0.031496062992125991X0.029527559055118113*%
%ADD62C,0.0039370078740157488*%
%ADD63R,0.035433070866141732X0.01968503937007874*%
%ADD64R,0.029527559055118113X0.031496062992125991*%
%ADD65R,0.041732283464566935X0.025590551181102365*%
%ADD66R,0.01968503937007874X0.035433070866141732*%
%ADD67R,0.035433070866141732X0.031496062992125991*%
%ADD68R,0.031496062992125991X0.029527559055118113*%
%ADD69C,0.0039370078740157488*%
%ADD70R,0.035433070866141732X0.01968503937007874*%
%ADD71R,0.029527559055118113X0.031496062992125991*%
%ADD72R,0.041732283464566935X0.025590551181102365*%
%ADD73R,0.01968503937007874X0.035433070866141732*%
%ADD74R,0.035433070866141732X0.031496062992125991*%
%ADD75R,0.031496062992125991X0.029527559055118113*%
G01G01*
D10*
G04 next file*
G04 Gerber Fmt 4.6, Leading zero omitted, Abs format (unit mm)*
G04 Created by KiCad (PCBNEW 4.0.7) date 11/15/17 20:03:37*
G01G01*
G04 APERTURE LIST*
G04 APERTURE END LIST*
D21*
D22*
X0000629921Y0000905511D02*
X0002179606Y0000508976D03*
X0002179606Y0000568031D03*
D23*
X0000715433Y0000478661D03*
X0000715433Y0000419606D03*
D24*
X0001002047Y0000581023D03*
X0000942992Y0000581023D03*
X0001002047Y0000505826D03*
X0000942992Y0000505826D03*
D25*
X0001176456Y0000572362D03*
X0001176456Y0000534960D03*
X0001176456Y0000497559D03*
X0001089842Y0000497559D03*
X0001089842Y0000572362D03*
X0001089842Y0000534960D03*
D24*
X0001157952Y0000649133D03*
X0001098897Y0000649133D03*
D23*
X0001368976Y0000570000D03*
X0001368976Y0000510944D03*
D22*
X0001582755Y0000510551D03*
X0001582755Y0000569606D03*
X0001508740Y0000509370D03*
X0001508740Y0000568425D03*
X0001649291Y0000510157D03*
X0001649291Y0000569212D03*
X0001440629Y0000510157D03*
X0001440629Y0000569212D03*
X0001723307Y0000509763D03*
X0001723307Y0000568818D03*
D23*
X0001814251Y0000508188D03*
X0001814251Y0000567244D03*
D22*
X0001963464Y0000568818D03*
X0001963464Y0000509763D03*
X0002031574Y0000568818D03*
X0002031574Y0000509763D03*
X0002106377Y0000508976D03*
X0002106377Y0000568031D03*
D23*
X0002253622Y0000566850D03*
X0002253622Y0000507795D03*
D22*
X0002345354Y0000301889D03*
X0002345354Y0000360944D03*
D23*
X0002212283Y0000361732D03*
X0002212283Y0000302677D03*
X0001811496Y0000364094D03*
X0001811496Y0000305039D03*
D22*
X0001733149Y0000364881D03*
X0001733149Y0000305826D03*
X0001664645Y0000365275D03*
X0001664645Y0000306220D03*
D25*
X0001496141Y0000299921D03*
X0001496141Y0000337322D03*
X0001496141Y0000374724D03*
X0001582755Y0000374724D03*
X0001582755Y0000299921D03*
D22*
X0001426456Y0000364094D03*
X0001426456Y0000305039D03*
X0001361889Y0000305433D03*
X0001361889Y0000364488D03*
D23*
X0001295748Y0000364094D03*
X0001295748Y0000305039D03*
D26*
X0001258346Y0000648346D03*
X0001317401Y0000648346D03*
X0000885118Y0000650708D03*
X0000826062Y0000650708D03*
D22*
X0002428031Y0000300708D03*
X0002428031Y0000359763D03*
X0001989842Y0000362519D03*
X0001989842Y0000303464D03*
D26*
X0001866220Y0000422755D03*
X0001925275Y0000422755D03*
D24*
X0000716614Y0000237322D03*
X0000775669Y0000237322D03*
G04 next file*
G04 Gerber Fmt 4.6, Leading zero omitted, Abs format (unit mm)*
G04 Created by KiCad (PCBNEW 4.0.7) date 11/15/17 17:48:19*
G01G01*
G04 APERTURE LIST*
G04 APERTURE END LIST*
D27*
D28*
X0002677165Y0000905511D02*
X0003242716Y0000319291D03*
X0003242716Y0000260236D03*
X0003574803Y0000267322D03*
X0003574803Y0000326377D03*
X0003465354Y0000322047D03*
X0003465354Y0000262992D03*
X0003345275Y0000643700D03*
X0003345275Y0000702755D03*
X0003307937Y0000392125D03*
X0003307937Y0000451181D03*
D29*
X0003370866Y0000205905D03*
X0003370866Y0000146850D03*
X0003596937Y0000392125D03*
X0003596937Y0000451181D03*
X0003480314Y0000643700D03*
X0003480314Y0000702755D03*
X0003235937Y0000389787D03*
X0003235937Y0000448842D03*
D28*
X0003022440Y0000137795D03*
X0003022440Y0000196850D03*
X0003688224Y0000191096D03*
X0003688224Y0000132041D03*
X0003603291Y0000130826D03*
X0003603291Y0000189881D03*
D30*
X0002857086Y0000150787D03*
X0002857086Y0000188188D03*
X0002857086Y0000225590D03*
X0002943700Y0000225590D03*
X0002943700Y0000150787D03*
X0002943700Y0000188188D03*
D28*
X0003412992Y0000702755D03*
X0003412992Y0000643700D03*
X0003375937Y0000451181D03*
X0003375937Y0000392125D03*
X0003440937Y0000392125D03*
X0003440937Y0000451181D03*
X0003532677Y0000451181D03*
X0003532677Y0000392125D03*
X0003017173Y0000794748D03*
X0003017173Y0000735692D03*
X0003274409Y0000705511D03*
X0003274409Y0000646456D03*
X0002885173Y0000735692D03*
X0002885173Y0000794748D03*
X0002951173Y0000794748D03*
X0002951173Y0000735692D03*
X0002767937Y0000517370D03*
X0002767937Y0000458314D03*
D31*
X0002718133Y0000177196D03*
X0002777188Y0000177196D03*
X0002776244Y0000241196D03*
X0002717188Y0000241196D03*
X0002718133Y0000111196D03*
X0002777188Y0000111196D03*
D28*
X0003242716Y0000208251D03*
X0003242716Y0000149196D03*
X0003305716Y0000208251D03*
X0003305716Y0000149196D03*
X0003180716Y0000207251D03*
X0003180716Y0000148196D03*
D32*
X0002814960Y0000795275D03*
X0002814960Y0000720472D03*
X0002736220Y0000757874D03*
D29*
X0003168897Y0000389370D03*
X0003168897Y0000448425D03*
D33*
X0003027267Y0000675685D03*
X0002968212Y0000675685D03*
D29*
X0003114566Y0000448818D03*
X0003114566Y0000389763D03*
X0003001968Y0000389370D03*
X0003001968Y0000448425D03*
X0003114716Y0000149196D03*
X0003114716Y0000208251D03*
X0003434645Y0000205905D03*
X0003434645Y0000146850D03*
D33*
X0003027267Y0000612685D03*
X0002968212Y0000612685D03*
D30*
X0003105511Y0000611023D03*
X0003105511Y0000648425D03*
X0003105511Y0000685826D03*
X0003192125Y0000685826D03*
X0003192125Y0000611023D03*
G04 next file*
G04 Gerber Fmt 4.6, Leading zero omitted, Abs format (unit mm)*
G04 Created by KiCad (PCBNEW 4.0.7) date 11/15/17 17:31:17*
G01G01*
G04 APERTURE LIST*
G04 APERTURE END LIST*
D34*
G04 next file*
G04 Gerber Fmt 4.6, Leading zero omitted, Abs format (unit mm)*
G04 Created by KiCad (PCBNEW 4.0.7) date 11/15/17 17:31:17*
G01G01*
G04 APERTURE LIST*
G04 APERTURE END LIST*
D35*
G04 next file*
G04 Gerber Fmt 4.6, Leading zero omitted, Abs format (unit mm)*
G04 Created by KiCad (PCBNEW 4.0.7) date 11/15/17 17:31:17*
G01G01*
G04 APERTURE LIST*
G04 APERTURE END LIST*
D36*
G04 next file*
G04 Gerber Fmt 4.6, Leading zero omitted, Abs format (unit mm)*
G04 Created by KiCad (PCBNEW 4.0.7) date 11/15/17 20:03:37*
G01G01*
G04 APERTURE LIST*
G04 APERTURE END LIST*
D37*
D38*
X0000629921Y0001811023D02*
X0002179606Y0001414488D03*
X0002179606Y0001473543D03*
D39*
X0000715433Y0001384173D03*
X0000715433Y0001325118D03*
D40*
X0001002047Y0001486535D03*
X0000942992Y0001486535D03*
X0001002047Y0001411338D03*
X0000942992Y0001411338D03*
D41*
X0001176456Y0001477874D03*
X0001176456Y0001440472D03*
X0001176456Y0001403070D03*
X0001089842Y0001403070D03*
X0001089842Y0001477874D03*
X0001089842Y0001440472D03*
D40*
X0001157952Y0001554645D03*
X0001098897Y0001554645D03*
D39*
X0001368976Y0001475511D03*
X0001368976Y0001416456D03*
D38*
X0001582755Y0001416062D03*
X0001582755Y0001475118D03*
X0001508740Y0001414881D03*
X0001508740Y0001473937D03*
X0001649291Y0001415669D03*
X0001649291Y0001474724D03*
X0001440629Y0001415669D03*
X0001440629Y0001474724D03*
X0001723307Y0001415275D03*
X0001723307Y0001474330D03*
D39*
X0001814251Y0001413700D03*
X0001814251Y0001472755D03*
D38*
X0001963464Y0001474330D03*
X0001963464Y0001415275D03*
X0002031574Y0001474330D03*
X0002031574Y0001415275D03*
X0002106377Y0001414488D03*
X0002106377Y0001473543D03*
D39*
X0002253622Y0001472362D03*
X0002253622Y0001413307D03*
D38*
X0002345354Y0001207401D03*
X0002345354Y0001266456D03*
D39*
X0002212283Y0001267244D03*
X0002212283Y0001208188D03*
X0001811496Y0001269606D03*
X0001811496Y0001210551D03*
D38*
X0001733149Y0001270393D03*
X0001733149Y0001211338D03*
X0001664645Y0001270787D03*
X0001664645Y0001211732D03*
D41*
X0001496141Y0001205433D03*
X0001496141Y0001242834D03*
X0001496141Y0001280236D03*
X0001582755Y0001280236D03*
X0001582755Y0001205433D03*
D38*
X0001426456Y0001269606D03*
X0001426456Y0001210551D03*
X0001361889Y0001210944D03*
X0001361889Y0001269999D03*
D39*
X0001295748Y0001269606D03*
X0001295748Y0001210551D03*
D42*
X0001258346Y0001553858D03*
X0001317401Y0001553858D03*
X0000885118Y0001556220D03*
X0000826062Y0001556220D03*
D38*
X0002428031Y0001206220D03*
X0002428031Y0001265275D03*
X0001989842Y0001268031D03*
X0001989842Y0001208976D03*
D42*
X0001866220Y0001328267D03*
X0001925275Y0001328267D03*
D40*
X0000716614Y0001142834D03*
X0000775669Y0001142834D03*
G04 next file*
G04 Gerber Fmt 4.6, Leading zero omitted, Abs format (unit mm)*
G04 Created by KiCad (PCBNEW 4.0.7) date 11/15/17 20:03:37*
G01G01*
G04 APERTURE LIST*
G04 APERTURE END LIST*
D43*
D44*
X0000629921Y0002716535D02*
X0002179606Y0002320000D03*
X0002179606Y0002379055D03*
D45*
X0000715433Y0002289685D03*
X0000715433Y0002230629D03*
D46*
X0001002047Y0002392047D03*
X0000942992Y0002392047D03*
X0001002047Y0002316850D03*
X0000942992Y0002316850D03*
D47*
X0001176456Y0002383385D03*
X0001176456Y0002345984D03*
X0001176456Y0002308582D03*
X0001089842Y0002308582D03*
X0001089842Y0002383385D03*
X0001089842Y0002345984D03*
D46*
X0001157952Y0002460157D03*
X0001098897Y0002460157D03*
D45*
X0001368976Y0002381023D03*
X0001368976Y0002321968D03*
D44*
X0001582755Y0002321574D03*
X0001582755Y0002380629D03*
X0001508740Y0002320393D03*
X0001508740Y0002379448D03*
X0001649291Y0002321181D03*
X0001649291Y0002380236D03*
X0001440629Y0002321181D03*
X0001440629Y0002380236D03*
X0001723307Y0002320787D03*
X0001723307Y0002379842D03*
D45*
X0001814251Y0002319212D03*
X0001814251Y0002378267D03*
D44*
X0001963464Y0002379842D03*
X0001963464Y0002320787D03*
X0002031574Y0002379842D03*
X0002031574Y0002320787D03*
X0002106377Y0002320000D03*
X0002106377Y0002379055D03*
D45*
X0002253622Y0002377873D03*
X0002253622Y0002318818D03*
D44*
X0002345354Y0002112913D03*
X0002345354Y0002171968D03*
D45*
X0002212283Y0002172755D03*
X0002212283Y0002113700D03*
X0001811496Y0002175118D03*
X0001811496Y0002116062D03*
D44*
X0001733149Y0002175905D03*
X0001733149Y0002116850D03*
X0001664645Y0002176299D03*
X0001664645Y0002117244D03*
D47*
X0001496141Y0002110944D03*
X0001496141Y0002148346D03*
X0001496141Y0002185748D03*
X0001582755Y0002185748D03*
X0001582755Y0002110944D03*
D44*
X0001426456Y0002175118D03*
X0001426456Y0002116062D03*
X0001361889Y0002116456D03*
X0001361889Y0002175511D03*
D45*
X0001295748Y0002175118D03*
X0001295748Y0002116062D03*
D48*
X0001258346Y0002459370D03*
X0001317401Y0002459370D03*
X0000885118Y0002461732D03*
X0000826062Y0002461732D03*
D44*
X0002428031Y0002111732D03*
X0002428031Y0002170787D03*
X0001989842Y0002173543D03*
X0001989842Y0002114488D03*
D48*
X0001866220Y0002233779D03*
X0001925275Y0002233779D03*
D46*
X0000716614Y0002048346D03*
X0000775669Y0002048346D03*
G04 next file*
G04 Gerber Fmt 4.6, Leading zero omitted, Abs format (unit mm)*
G04 Created by KiCad (PCBNEW 4.0.7) date 11/15/17 20:03:37*
G01G01*
G04 APERTURE LIST*
G04 APERTURE END LIST*
D49*
D50*
X0000629921Y0003622047D02*
X0002179606Y0003225511D03*
X0002179606Y0003284566D03*
D51*
X0000715433Y0003195196D03*
X0000715433Y0003136141D03*
D52*
X0001002047Y0003297559D03*
X0000942992Y0003297559D03*
X0001002047Y0003222362D03*
X0000942992Y0003222362D03*
D53*
X0001176456Y0003288897D03*
X0001176456Y0003251496D03*
X0001176456Y0003214094D03*
X0001089842Y0003214094D03*
X0001089842Y0003288897D03*
X0001089842Y0003251496D03*
D52*
X0001157952Y0003365669D03*
X0001098897Y0003365669D03*
D51*
X0001368976Y0003286535D03*
X0001368976Y0003227480D03*
D50*
X0001582755Y0003227086D03*
X0001582755Y0003286141D03*
X0001508740Y0003225905D03*
X0001508740Y0003284960D03*
X0001649291Y0003226692D03*
X0001649291Y0003285748D03*
X0001440629Y0003226692D03*
X0001440629Y0003285748D03*
X0001723307Y0003226299D03*
X0001723307Y0003285354D03*
D51*
X0001814251Y0003224724D03*
X0001814251Y0003283779D03*
D50*
X0001963464Y0003285354D03*
X0001963464Y0003226299D03*
X0002031574Y0003285354D03*
X0002031574Y0003226299D03*
X0002106377Y0003225511D03*
X0002106377Y0003284566D03*
D51*
X0002253622Y0003283385D03*
X0002253622Y0003224330D03*
D50*
X0002345354Y0003018425D03*
X0002345354Y0003077480D03*
D51*
X0002212283Y0003078267D03*
X0002212283Y0003019212D03*
X0001811496Y0003080629D03*
X0001811496Y0003021574D03*
D50*
X0001733149Y0003081417D03*
X0001733149Y0003022362D03*
X0001664645Y0003081811D03*
X0001664645Y0003022755D03*
D53*
X0001496141Y0003016456D03*
X0001496141Y0003053858D03*
X0001496141Y0003091259D03*
X0001582755Y0003091259D03*
X0001582755Y0003016456D03*
D50*
X0001426456Y0003080629D03*
X0001426456Y0003021574D03*
X0001361889Y0003021968D03*
X0001361889Y0003081023D03*
D51*
X0001295748Y0003080629D03*
X0001295748Y0003021574D03*
D54*
X0001258346Y0003364881D03*
X0001317401Y0003364881D03*
X0000885118Y0003367244D03*
X0000826062Y0003367244D03*
D50*
X0002428031Y0003017244D03*
X0002428031Y0003076299D03*
X0001989842Y0003079055D03*
X0001989842Y0003020000D03*
D54*
X0001866220Y0003139291D03*
X0001925275Y0003139291D03*
D52*
X0000716614Y0002953858D03*
X0000775669Y0002953858D03*
G04 next file*
G04 Gerber Fmt 4.6, Leading zero omitted, Abs format (unit mm)*
G04 Created by KiCad (PCBNEW 4.0.7) date 11/15/17 17:48:19*
G01G01*
G04 APERTURE LIST*
G04 APERTURE END LIST*
D55*
D56*
X0002677165Y0001811023D02*
X0003242716Y0001224803D03*
X0003242716Y0001165748D03*
X0003574803Y0001172834D03*
X0003574803Y0001231889D03*
X0003465354Y0001227559D03*
X0003465354Y0001168503D03*
X0003345275Y0001549212D03*
X0003345275Y0001608267D03*
X0003307937Y0001297637D03*
X0003307937Y0001356692D03*
D57*
X0003370866Y0001111417D03*
X0003370866Y0001052362D03*
X0003596937Y0001297637D03*
X0003596937Y0001356692D03*
X0003480314Y0001549212D03*
X0003480314Y0001608267D03*
X0003235937Y0001295299D03*
X0003235937Y0001354354D03*
D56*
X0003022440Y0001043307D03*
X0003022440Y0001102362D03*
X0003688224Y0001096608D03*
X0003688224Y0001037553D03*
X0003603291Y0001036338D03*
X0003603291Y0001095393D03*
D58*
X0002857086Y0001056299D03*
X0002857086Y0001093700D03*
X0002857086Y0001131102D03*
X0002943700Y0001131102D03*
X0002943700Y0001056299D03*
X0002943700Y0001093700D03*
D56*
X0003412992Y0001608267D03*
X0003412992Y0001549212D03*
X0003375937Y0001356692D03*
X0003375937Y0001297637D03*
X0003440937Y0001297637D03*
X0003440937Y0001356692D03*
X0003532677Y0001356692D03*
X0003532677Y0001297637D03*
X0003017173Y0001700259D03*
X0003017173Y0001641204D03*
X0003274409Y0001611023D03*
X0003274409Y0001551968D03*
X0002885173Y0001641204D03*
X0002885173Y0001700259D03*
X0002951173Y0001700259D03*
X0002951173Y0001641204D03*
X0002767937Y0001422881D03*
X0002767937Y0001363826D03*
D59*
X0002718133Y0001082708D03*
X0002777188Y0001082708D03*
X0002776244Y0001146708D03*
X0002717188Y0001146708D03*
X0002718133Y0001016708D03*
X0002777188Y0001016708D03*
D56*
X0003242716Y0001113763D03*
X0003242716Y0001054708D03*
X0003305716Y0001113763D03*
X0003305716Y0001054708D03*
X0003180716Y0001112763D03*
X0003180716Y0001053708D03*
D60*
X0002814960Y0001700787D03*
X0002814960Y0001625984D03*
X0002736220Y0001663385D03*
D57*
X0003168897Y0001294881D03*
X0003168897Y0001353937D03*
D61*
X0003027267Y0001581196D03*
X0002968212Y0001581196D03*
D57*
X0003114566Y0001354330D03*
X0003114566Y0001295275D03*
X0003001968Y0001294881D03*
X0003001968Y0001353937D03*
X0003114716Y0001054708D03*
X0003114716Y0001113763D03*
X0003434645Y0001111417D03*
X0003434645Y0001052362D03*
D61*
X0003027267Y0001518196D03*
X0002968212Y0001518196D03*
D58*
X0003105511Y0001516535D03*
X0003105511Y0001553937D03*
X0003105511Y0001591338D03*
X0003192125Y0001591338D03*
X0003192125Y0001516535D03*
G04 next file*
G04 Gerber Fmt 4.6, Leading zero omitted, Abs format (unit mm)*
G04 Created by KiCad (PCBNEW 4.0.7) date 11/15/17 17:48:19*
G01G01*
G04 APERTURE LIST*
G04 APERTURE END LIST*
D62*
D63*
X0002677165Y0002716535D02*
X0003242716Y0002130314D03*
X0003242716Y0002071259D03*
X0003574803Y0002078346D03*
X0003574803Y0002137401D03*
X0003465354Y0002133070D03*
X0003465354Y0002074015D03*
X0003345275Y0002454724D03*
X0003345275Y0002513779D03*
X0003307937Y0002203149D03*
X0003307937Y0002262204D03*
D64*
X0003370866Y0002016929D03*
X0003370866Y0001957874D03*
X0003596937Y0002203149D03*
X0003596937Y0002262204D03*
X0003480314Y0002454724D03*
X0003480314Y0002513779D03*
X0003235937Y0002200811D03*
X0003235937Y0002259866D03*
D63*
X0003022440Y0001948818D03*
X0003022440Y0002007874D03*
X0003688224Y0002002120D03*
X0003688224Y0001943064D03*
X0003603291Y0001941850D03*
X0003603291Y0002000905D03*
D65*
X0002857086Y0001961811D03*
X0002857086Y0001999212D03*
X0002857086Y0002036614D03*
X0002943700Y0002036614D03*
X0002943700Y0001961811D03*
X0002943700Y0001999212D03*
D63*
X0003412992Y0002513779D03*
X0003412992Y0002454724D03*
X0003375937Y0002262204D03*
X0003375937Y0002203149D03*
X0003440937Y0002203149D03*
X0003440937Y0002262204D03*
X0003532677Y0002262204D03*
X0003532677Y0002203149D03*
X0003017173Y0002605771D03*
X0003017173Y0002546716D03*
X0003274409Y0002516535D03*
X0003274409Y0002457480D03*
X0002885173Y0002546716D03*
X0002885173Y0002605771D03*
X0002951173Y0002605771D03*
X0002951173Y0002546716D03*
X0002767937Y0002328393D03*
X0002767937Y0002269338D03*
D66*
X0002718133Y0001988220D03*
X0002777188Y0001988220D03*
X0002776244Y0002052220D03*
X0002717188Y0002052220D03*
X0002718133Y0001922220D03*
X0002777188Y0001922220D03*
D63*
X0003242716Y0002019275D03*
X0003242716Y0001960220D03*
X0003305716Y0002019275D03*
X0003305716Y0001960220D03*
X0003180716Y0002018275D03*
X0003180716Y0001959220D03*
D67*
X0002814960Y0002606299D03*
X0002814960Y0002531496D03*
X0002736220Y0002568897D03*
D64*
X0003168897Y0002200393D03*
X0003168897Y0002259448D03*
D68*
X0003027267Y0002486708D03*
X0002968212Y0002486708D03*
D64*
X0003114566Y0002259842D03*
X0003114566Y0002200787D03*
X0003001968Y0002200393D03*
X0003001968Y0002259448D03*
X0003114716Y0001960220D03*
X0003114716Y0002019275D03*
X0003434645Y0002016929D03*
X0003434645Y0001957874D03*
D68*
X0003027267Y0002423708D03*
X0002968212Y0002423708D03*
D65*
X0003105511Y0002422047D03*
X0003105511Y0002459448D03*
X0003105511Y0002496850D03*
X0003192125Y0002496850D03*
X0003192125Y0002422047D03*
G04 next file*
G04 Gerber Fmt 4.6, Leading zero omitted, Abs format (unit mm)*
G04 Created by KiCad (PCBNEW 4.0.7) date 11/15/17 17:48:19*
G01G01*
G04 APERTURE LIST*
G04 APERTURE END LIST*
D69*
D70*
X0002677165Y0003622047D02*
X0003242716Y0003035826D03*
X0003242716Y0002976771D03*
X0003574803Y0002983858D03*
X0003574803Y0003042913D03*
X0003465354Y0003038582D03*
X0003465354Y0002979527D03*
X0003345275Y0003360236D03*
X0003345275Y0003419291D03*
X0003307937Y0003108661D03*
X0003307937Y0003167716D03*
D71*
X0003370866Y0002922440D03*
X0003370866Y0002863385D03*
X0003596937Y0003108661D03*
X0003596937Y0003167716D03*
X0003480314Y0003360236D03*
X0003480314Y0003419291D03*
X0003235937Y0003106322D03*
X0003235937Y0003165377D03*
D70*
X0003022440Y0002854330D03*
X0003022440Y0002913385D03*
X0003688224Y0002907631D03*
X0003688224Y0002848576D03*
X0003603291Y0002847362D03*
X0003603291Y0002906417D03*
D72*
X0002857086Y0002867322D03*
X0002857086Y0002904724D03*
X0002857086Y0002942125D03*
X0002943700Y0002942125D03*
X0002943700Y0002867322D03*
X0002943700Y0002904724D03*
D70*
X0003412992Y0003419291D03*
X0003412992Y0003360236D03*
X0003375937Y0003167716D03*
X0003375937Y0003108661D03*
X0003440937Y0003108661D03*
X0003440937Y0003167716D03*
X0003532677Y0003167716D03*
X0003532677Y0003108661D03*
X0003017173Y0003511283D03*
X0003017173Y0003452228D03*
X0003274409Y0003422047D03*
X0003274409Y0003362992D03*
X0002885173Y0003452228D03*
X0002885173Y0003511283D03*
X0002951173Y0003511283D03*
X0002951173Y0003452228D03*
X0002767937Y0003233905D03*
X0002767937Y0003174850D03*
D73*
X0002718133Y0002893732D03*
X0002777188Y0002893732D03*
X0002776244Y0002957732D03*
X0002717188Y0002957732D03*
X0002718133Y0002827732D03*
X0002777188Y0002827732D03*
D70*
X0003242716Y0002924787D03*
X0003242716Y0002865732D03*
X0003305716Y0002924787D03*
X0003305716Y0002865732D03*
X0003180716Y0002923787D03*
X0003180716Y0002864732D03*
D74*
X0002814960Y0003511811D03*
X0002814960Y0003437007D03*
X0002736220Y0003474409D03*
D71*
X0003168897Y0003105905D03*
X0003168897Y0003164960D03*
D75*
X0003027267Y0003392220D03*
X0002968212Y0003392220D03*
D71*
X0003114566Y0003165354D03*
X0003114566Y0003106299D03*
X0003001968Y0003105905D03*
X0003001968Y0003164960D03*
X0003114716Y0002865732D03*
X0003114716Y0002924787D03*
X0003434645Y0002922440D03*
X0003434645Y0002863385D03*
D75*
X0003027267Y0003329220D03*
X0002968212Y0003329220D03*
D72*
X0003105511Y0003327559D03*
X0003105511Y0003364960D03*
X0003105511Y0003402362D03*
X0003192125Y0003402362D03*
X0003192125Y0003327559D03*
M02*