%MOIN*%
%OFA0B0*%
%FSLAX46Y46*%
%IPPOS*%
%LPD*%
%ADD10C,0.0039370078740157488*%
%ADD11C,0.086614173228346469*%
%ADD12C,0.055118110236220472*%
%ADD13R,0.066929133858267723X0.066929133858267723*%
%ADD14O,0.066929133858267723X0.066929133858267723*%
%ADD25C,0.0039370078740157488*%
%ADD26R,0.0452755905511811X0.047244094488188976*%
%ADD27R,0.082677165354330714X0.082677165354330714*%
%ADD28O,0.082677165354330714X0.082677165354330714*%
%ADD29C,0.072834645669291348*%
%ADD30O,0.0905511811023622X0.062992125984251982*%
%ADD31R,0.051181102362204731X0.035433070866141732*%
%ADD32R,0.035433070866141732X0.051181102362204731*%
%ADD33R,0.05748031496062992X0.041338582677165357*%
%ADD34C,0.074803149606299218*%
%ADD35R,0.047244094488188976X0.0452755905511811*%
%ADD36C,0.0039370078740157488*%
%ADD37R,0.051181102362204731X0.035433070866141732*%
%ADD38C,0.072834645669291348*%
%ADD39O,0.0905511811023622X0.062992125984251982*%
%ADD40R,0.082677165354330714X0.082677165354330714*%
%ADD41O,0.082677165354330714X0.082677165354330714*%
%ADD42R,0.0452755905511811X0.047244094488188976*%
%ADD43R,0.05748031496062992X0.041338582677165357*%
%ADD44R,0.035433070866141732X0.051181102362204731*%
%ADD45R,0.051181102362204731X0.047244094488188976*%
%ADD46R,0.047244094488188976X0.0452755905511811*%
%ADD47C,0.074803149606299218*%
%ADD48C,0.0039370078740157488*%
%ADD49C,0.086614173228346469*%
%ADD50C,0.055118110236220472*%
%ADD51R,0.066929133858267723X0.066929133858267723*%
%ADD52O,0.066929133858267723X0.066929133858267723*%
%ADD53C,0.0039370078740157488*%
%ADD54C,0.086614173228346469*%
%ADD55C,0.055118110236220472*%
%ADD56R,0.066929133858267723X0.066929133858267723*%
%ADD57O,0.066929133858267723X0.066929133858267723*%
%ADD58C,0.0039370078740157488*%
%ADD59C,0.086614173228346469*%
%ADD60C,0.055118110236220472*%
%ADD61R,0.066929133858267723X0.066929133858267723*%
%ADD62O,0.066929133858267723X0.066929133858267723*%
%ADD63C,0.0039370078740157488*%
%ADD64R,0.0452755905511811X0.047244094488188976*%
%ADD65R,0.082677165354330714X0.082677165354330714*%
%ADD66O,0.082677165354330714X0.082677165354330714*%
%ADD67C,0.072834645669291348*%
%ADD68O,0.0905511811023622X0.062992125984251982*%
%ADD69R,0.051181102362204731X0.035433070866141732*%
%ADD70R,0.035433070866141732X0.051181102362204731*%
%ADD71R,0.05748031496062992X0.041338582677165357*%
%ADD72C,0.074803149606299218*%
%ADD73R,0.047244094488188976X0.0452755905511811*%
%ADD74C,0.0039370078740157488*%
%ADD75R,0.0452755905511811X0.047244094488188976*%
%ADD76R,0.082677165354330714X0.082677165354330714*%
%ADD77O,0.082677165354330714X0.082677165354330714*%
%ADD78C,0.072834645669291348*%
%ADD79O,0.0905511811023622X0.062992125984251982*%
%ADD80R,0.051181102362204731X0.035433070866141732*%
%ADD81R,0.035433070866141732X0.051181102362204731*%
%ADD82R,0.05748031496062992X0.041338582677165357*%
%ADD83C,0.074803149606299218*%
%ADD84R,0.047244094488188976X0.0452755905511811*%
%ADD85C,0.0039370078740157488*%
%ADD86R,0.0452755905511811X0.047244094488188976*%
%ADD87R,0.082677165354330714X0.082677165354330714*%
%ADD88O,0.082677165354330714X0.082677165354330714*%
%ADD89C,0.072834645669291348*%
%ADD90O,0.0905511811023622X0.062992125984251982*%
%ADD91R,0.051181102362204731X0.035433070866141732*%
%ADD92R,0.035433070866141732X0.051181102362204731*%
%ADD93R,0.05748031496062992X0.041338582677165357*%
%ADD94C,0.074803149606299218*%
%ADD95R,0.047244094488188976X0.0452755905511811*%
%ADD96C,0.0039370078740157488*%
%ADD97R,0.051181102362204731X0.035433070866141732*%
%ADD98C,0.072834645669291348*%
%ADD99O,0.0905511811023622X0.062992125984251982*%
%ADD100R,0.082677165354330714X0.082677165354330714*%
%ADD101O,0.082677165354330714X0.082677165354330714*%
%ADD102R,0.0452755905511811X0.047244094488188976*%
%ADD103R,0.05748031496062992X0.041338582677165357*%
%ADD104R,0.035433070866141732X0.051181102362204731*%
%ADD105R,0.051181102362204731X0.047244094488188976*%
%ADD106R,0.047244094488188976X0.0452755905511811*%
%ADD107C,0.074803149606299218*%
%ADD108C,0.0039370078740157488*%
%ADD109R,0.051181102362204731X0.035433070866141732*%
%ADD110C,0.072834645669291348*%
%ADD111O,0.0905511811023622X0.062992125984251982*%
%ADD112R,0.082677165354330714X0.082677165354330714*%
%ADD113O,0.082677165354330714X0.082677165354330714*%
%ADD114R,0.0452755905511811X0.047244094488188976*%
%ADD115R,0.05748031496062992X0.041338582677165357*%
%ADD116R,0.035433070866141732X0.051181102362204731*%
%ADD117R,0.051181102362204731X0.047244094488188976*%
%ADD118R,0.047244094488188976X0.0452755905511811*%
%ADD119C,0.074803149606299218*%
%ADD120C,0.0039370078740157488*%
%ADD121R,0.051181102362204731X0.035433070866141732*%
%ADD122C,0.072834645669291348*%
%ADD123O,0.0905511811023622X0.062992125984251982*%
%ADD124R,0.082677165354330714X0.082677165354330714*%
%ADD125O,0.082677165354330714X0.082677165354330714*%
%ADD126R,0.0452755905511811X0.047244094488188976*%
%ADD127R,0.05748031496062992X0.041338582677165357*%
%ADD128R,0.035433070866141732X0.051181102362204731*%
%ADD129R,0.051181102362204731X0.047244094488188976*%
%ADD130R,0.047244094488188976X0.0452755905511811*%
%ADD131C,0.074803149606299218*%
G01G01*
D10*
D11*
X0000000000Y0000905905D02*
X0000076771Y0000311023D03*
X0000549212Y0000311023D03*
D12*
X0000212992Y0000401574D03*
X0000252952Y0000501574D03*
X0000292913Y0000401574D03*
X0000332874Y0000501574D03*
X0000372834Y0000401574D03*
X0000412795Y0000501574D03*
D13*
X0000564960Y0000787795D03*
D14*
X0000464960Y0000787795D03*
X0000364960Y0000787795D03*
X0000264960Y0000787795D03*
X0000164960Y0000787795D03*
X0000064960Y0000787795D03*
G04 next file*
G04 Gerber Fmt 4.6, Leading zero omitted, Abs format (unit mm)*
G04 Created by KiCad (PCBNEW 4.0.7) date 11/15/17 20:03:37*
G01G01*
G04 APERTURE LIST*
G04 APERTURE END LIST*
D25*
D26*
X0000629921Y0000905511D02*
X0002179606Y0000508976D03*
X0002179606Y0000568031D03*
D27*
X0001185433Y0000390551D03*
D28*
X0001185433Y0000290551D03*
X0001085433Y0000390551D03*
X0001085433Y0000290551D03*
X0000985433Y0000390551D03*
X0000985433Y0000290551D03*
D27*
X0002604409Y0000760551D03*
D28*
X0002504409Y0000760551D03*
X0002404409Y0000760551D03*
X0002304409Y0000760551D03*
X0002204409Y0000760551D03*
X0002104409Y0000760551D03*
X0002004409Y0000760551D03*
X0001904409Y0000760551D03*
X0001804409Y0000760551D03*
X0001704409Y0000760551D03*
X0001604409Y0000760551D03*
X0001504409Y0000760551D03*
X0001404409Y0000760551D03*
X0001304409Y0000760551D03*
X0001204409Y0000760551D03*
X0001104409Y0000760551D03*
X0001004409Y0000760551D03*
X0000904409Y0000760551D03*
X0000804409Y0000760551D03*
X0000704409Y0000760551D03*
D27*
X0002604409Y0000150314D03*
D28*
X0002504409Y0000150314D03*
X0002404409Y0000150314D03*
X0002304409Y0000150314D03*
X0002204409Y0000150314D03*
X0002104409Y0000150314D03*
X0002004409Y0000150314D03*
X0001904409Y0000150314D03*
X0001804409Y0000150314D03*
X0001704409Y0000150314D03*
X0001604409Y0000150314D03*
X0001504409Y0000150314D03*
X0001404409Y0000150314D03*
X0001304409Y0000150314D03*
X0001204409Y0000150314D03*
X0001104409Y0000150314D03*
X0001004409Y0000150314D03*
X0000904409Y0000150314D03*
X0000804409Y0000150314D03*
X0000704409Y0000150314D03*
D29*
X0000818976Y0000545196D03*
X0000818976Y0000348346D03*
D30*
X0000712677Y0000584566D03*
X0000712677Y0000308976D03*
D27*
X0002510708Y0000650314D03*
D28*
X0002510708Y0000550314D03*
X0002510708Y0000450314D03*
X0002510708Y0000350314D03*
X0002510708Y0000250314D03*
D31*
X0000715433Y0000478661D03*
X0000715433Y0000419606D03*
D32*
X0001002047Y0000581023D03*
X0000942992Y0000581023D03*
X0001002047Y0000505826D03*
X0000942992Y0000505826D03*
D33*
X0001176456Y0000572362D03*
X0001176456Y0000534960D03*
X0001176456Y0000497559D03*
X0001089842Y0000497559D03*
X0001089842Y0000572362D03*
X0001089842Y0000534960D03*
D32*
X0001157952Y0000649133D03*
X0001098897Y0000649133D03*
D31*
X0001368976Y0000570000D03*
X0001368976Y0000510944D03*
D26*
X0001582755Y0000510551D03*
X0001582755Y0000569606D03*
X0001508740Y0000509370D03*
X0001508740Y0000568425D03*
X0001649291Y0000510157D03*
X0001649291Y0000569212D03*
X0001440629Y0000510157D03*
X0001440629Y0000569212D03*
X0001723307Y0000509763D03*
X0001723307Y0000568818D03*
D31*
X0001814251Y0000508188D03*
X0001814251Y0000567244D03*
D26*
X0001963464Y0000568818D03*
X0001963464Y0000509763D03*
X0002031574Y0000568818D03*
X0002031574Y0000509763D03*
X0002106377Y0000508976D03*
X0002106377Y0000568031D03*
D31*
X0002253622Y0000566850D03*
X0002253622Y0000507795D03*
D26*
X0002345354Y0000301889D03*
X0002345354Y0000360944D03*
D31*
X0002212283Y0000361732D03*
X0002212283Y0000302677D03*
X0001811496Y0000364094D03*
X0001811496Y0000305039D03*
D26*
X0001733149Y0000364881D03*
X0001733149Y0000305826D03*
X0001664645Y0000365275D03*
X0001664645Y0000306220D03*
D33*
X0001496141Y0000299921D03*
X0001496141Y0000337322D03*
X0001496141Y0000374724D03*
X0001582755Y0000374724D03*
X0001582755Y0000299921D03*
D26*
X0001426456Y0000364094D03*
X0001426456Y0000305039D03*
X0001361889Y0000305433D03*
X0001361889Y0000364488D03*
D31*
X0001295748Y0000364094D03*
X0001295748Y0000305039D03*
D34*
X0001895354Y0000345590D03*
X0001895354Y0000537716D03*
D35*
X0001258346Y0000648346D03*
X0001317401Y0000648346D03*
X0000885118Y0000650708D03*
X0000826062Y0000650708D03*
D26*
X0002428031Y0000300708D03*
X0002428031Y0000359763D03*
X0001989842Y0000362519D03*
X0001989842Y0000303464D03*
D35*
X0001866220Y0000422755D03*
X0001925275Y0000422755D03*
D32*
X0000716614Y0000237322D03*
X0000775669Y0000237322D03*
G04 next file*
G04 Gerber Fmt 4.6, Leading zero omitted, Abs format (unit mm)*
G04 Created by KiCad (PCBNEW 4.0.7) date 11/15/17 17:48:19*
G01G01*
G04 APERTURE LIST*
G04 APERTURE END LIST*
D36*
D37*
X0002677165Y0000905511D02*
X0003242716Y0000319291D03*
X0003242716Y0000260236D03*
X0003574803Y0000267322D03*
X0003574803Y0000326377D03*
X0003465354Y0000322047D03*
X0003465354Y0000262992D03*
D38*
X0002866937Y0000553149D03*
X0002866937Y0000356299D03*
D39*
X0002760637Y0000592519D03*
X0002760637Y0000316929D03*
D36*
G36*
X0003913385Y0000843700D02*
X0003913385Y0000757086D01*
X0003779527Y0000757086D01*
X0003779527Y0000843700D01*
X0003913385Y0000843700D01*
X0003913385Y0000843700D01*
G37*
G36*
X0003913385Y0000743700D02*
X0003913385Y0000657086D01*
X0003779527Y0000657086D01*
X0003779527Y0000743700D01*
X0003913385Y0000743700D01*
X0003913385Y0000743700D01*
G37*
G36*
X0003913385Y0000643700D02*
X0003913385Y0000557086D01*
X0003779527Y0000557086D01*
X0003779527Y0000643700D01*
X0003913385Y0000643700D01*
X0003913385Y0000643700D01*
G37*
G36*
X0003913385Y0000543700D02*
X0003913385Y0000457086D01*
X0003779527Y0000457086D01*
X0003779527Y0000543700D01*
X0003913385Y0000543700D01*
X0003913385Y0000543700D01*
G37*
G36*
X0003913385Y0000443700D02*
X0003913385Y0000357086D01*
X0003779527Y0000357086D01*
X0003779527Y0000443700D01*
X0003913385Y0000443700D01*
X0003913385Y0000443700D01*
G37*
G36*
X0003913385Y0000343700D02*
X0003913385Y0000257086D01*
X0003779527Y0000257086D01*
X0003779527Y0000343700D01*
X0003913385Y0000343700D01*
X0003913385Y0000343700D01*
G37*
G36*
X0003913385Y0000243700D02*
X0003913385Y0000157086D01*
X0003779527Y0000157086D01*
X0003779527Y0000243700D01*
X0003913385Y0000243700D01*
X0003913385Y0000243700D01*
G37*
G36*
X0003913385Y0000143700D02*
X0003913385Y0000057086D01*
X0003779527Y0000057086D01*
X0003779527Y0000143700D01*
X0003913385Y0000143700D01*
X0003913385Y0000143700D01*
G37*
D40*
X0003654937Y0000786314D03*
D41*
X0003554937Y0000786314D03*
X0003454937Y0000786314D03*
X0003354937Y0000786314D03*
X0003254937Y0000786314D03*
X0003154937Y0000786314D03*
D37*
X0003345275Y0000643700D03*
X0003345275Y0000702755D03*
X0003307937Y0000392125D03*
X0003307937Y0000451181D03*
D42*
X0003370866Y0000205905D03*
X0003370866Y0000146850D03*
X0003596937Y0000392125D03*
X0003596937Y0000451181D03*
X0003480314Y0000643700D03*
X0003480314Y0000702755D03*
X0003235937Y0000389787D03*
X0003235937Y0000448842D03*
D37*
X0003022440Y0000137795D03*
X0003022440Y0000196850D03*
X0003688224Y0000191096D03*
X0003688224Y0000132041D03*
X0003603291Y0000130826D03*
X0003603291Y0000189881D03*
D43*
X0002857086Y0000150787D03*
X0002857086Y0000188188D03*
X0002857086Y0000225590D03*
X0002943700Y0000225590D03*
X0002943700Y0000150787D03*
X0002943700Y0000188188D03*
D37*
X0003412992Y0000702755D03*
X0003412992Y0000643700D03*
X0003375937Y0000451181D03*
X0003375937Y0000392125D03*
X0003440937Y0000392125D03*
X0003440937Y0000451181D03*
X0003532677Y0000451181D03*
X0003532677Y0000392125D03*
X0003017173Y0000794748D03*
X0003017173Y0000735692D03*
X0003274409Y0000705511D03*
X0003274409Y0000646456D03*
X0002885173Y0000735692D03*
X0002885173Y0000794748D03*
X0002951173Y0000794748D03*
X0002951173Y0000735692D03*
X0002767937Y0000517370D03*
X0002767937Y0000458314D03*
D44*
X0002718133Y0000177196D03*
X0002777188Y0000177196D03*
X0002776244Y0000241196D03*
X0002717188Y0000241196D03*
X0002718133Y0000111196D03*
X0002777188Y0000111196D03*
D37*
X0003242716Y0000208251D03*
X0003242716Y0000149196D03*
X0003305716Y0000208251D03*
X0003305716Y0000149196D03*
X0003180716Y0000207251D03*
X0003180716Y0000148196D03*
D45*
X0002814960Y0000795275D03*
X0002814960Y0000720472D03*
X0002736220Y0000757874D03*
D42*
X0003168897Y0000389370D03*
X0003168897Y0000448425D03*
D46*
X0003027267Y0000675685D03*
X0002968212Y0000675685D03*
D42*
X0003114566Y0000448818D03*
X0003114566Y0000389763D03*
X0003001968Y0000389370D03*
X0003001968Y0000448425D03*
X0003114716Y0000149196D03*
X0003114716Y0000208251D03*
X0003434645Y0000205905D03*
X0003434645Y0000146850D03*
D47*
X0003062937Y0000324314D03*
X0003062937Y0000516440D03*
D46*
X0003027267Y0000612685D03*
X0002968212Y0000612685D03*
D43*
X0003105511Y0000611023D03*
X0003105511Y0000648425D03*
X0003105511Y0000685826D03*
X0003192125Y0000685826D03*
X0003192125Y0000611023D03*
G04 next file*
G04 Gerber Fmt 4.6, Leading zero omitted, Abs format (unit mm)*
G04 Created by KiCad (PCBNEW 4.0.7) date 11/15/17 17:31:17*
G01G01*
G04 APERTURE LIST*
G04 APERTURE END LIST*
D48*
D49*
X0000000000Y0001811023D02*
X0000076771Y0001216141D03*
X0000549212Y0001216141D03*
D50*
X0000212992Y0001306692D03*
X0000252952Y0001406692D03*
X0000292913Y0001306692D03*
X0000332874Y0001406692D03*
X0000372834Y0001306692D03*
X0000412795Y0001406692D03*
D51*
X0000564960Y0001692913D03*
D52*
X0000464960Y0001692913D03*
X0000364960Y0001692913D03*
X0000264960Y0001692913D03*
X0000164960Y0001692913D03*
X0000064960Y0001692913D03*
G04 next file*
G04 Gerber Fmt 4.6, Leading zero omitted, Abs format (unit mm)*
G04 Created by KiCad (PCBNEW 4.0.7) date 11/15/17 17:31:17*
G01G01*
G04 APERTURE LIST*
G04 APERTURE END LIST*
D53*
D54*
X0000000000Y0002716535D02*
X0000076771Y0002121653D03*
X0000549212Y0002121653D03*
D55*
X0000212992Y0002212204D03*
X0000252952Y0002312204D03*
X0000292913Y0002212204D03*
X0000332874Y0002312204D03*
X0000372834Y0002212204D03*
X0000412795Y0002312204D03*
D56*
X0000564960Y0002598425D03*
D57*
X0000464960Y0002598425D03*
X0000364960Y0002598425D03*
X0000264960Y0002598425D03*
X0000164960Y0002598425D03*
X0000064960Y0002598425D03*
G04 next file*
G04 Gerber Fmt 4.6, Leading zero omitted, Abs format (unit mm)*
G04 Created by KiCad (PCBNEW 4.0.7) date 11/15/17 17:31:17*
G01G01*
G04 APERTURE LIST*
G04 APERTURE END LIST*
D58*
D59*
X0000000000Y0003622047D02*
X0000076771Y0003027165D03*
X0000549212Y0003027165D03*
D60*
X0000212992Y0003117716D03*
X0000252952Y0003217716D03*
X0000292913Y0003117716D03*
X0000332874Y0003217716D03*
X0000372834Y0003117716D03*
X0000412795Y0003217716D03*
D61*
X0000564960Y0003503937D03*
D62*
X0000464960Y0003503937D03*
X0000364960Y0003503937D03*
X0000264960Y0003503937D03*
X0000164960Y0003503937D03*
X0000064960Y0003503937D03*
G04 next file*
G04 Gerber Fmt 4.6, Leading zero omitted, Abs format (unit mm)*
G04 Created by KiCad (PCBNEW 4.0.7) date 11/15/17 20:03:37*
G01G01*
G04 APERTURE LIST*
G04 APERTURE END LIST*
D63*
D64*
X0000629921Y0001811023D02*
X0002179606Y0001414488D03*
X0002179606Y0001473543D03*
D65*
X0001185433Y0001296062D03*
D66*
X0001185433Y0001196062D03*
X0001085433Y0001296062D03*
X0001085433Y0001196062D03*
X0000985433Y0001296062D03*
X0000985433Y0001196062D03*
D65*
X0002604409Y0001666062D03*
D66*
X0002504409Y0001666062D03*
X0002404409Y0001666062D03*
X0002304409Y0001666062D03*
X0002204409Y0001666062D03*
X0002104409Y0001666062D03*
X0002004409Y0001666062D03*
X0001904409Y0001666062D03*
X0001804409Y0001666062D03*
X0001704409Y0001666062D03*
X0001604409Y0001666062D03*
X0001504409Y0001666062D03*
X0001404409Y0001666062D03*
X0001304409Y0001666062D03*
X0001204409Y0001666062D03*
X0001104409Y0001666062D03*
X0001004409Y0001666062D03*
X0000904409Y0001666062D03*
X0000804409Y0001666062D03*
X0000704409Y0001666062D03*
D65*
X0002604409Y0001055826D03*
D66*
X0002504409Y0001055826D03*
X0002404409Y0001055826D03*
X0002304409Y0001055826D03*
X0002204409Y0001055826D03*
X0002104409Y0001055826D03*
X0002004409Y0001055826D03*
X0001904409Y0001055826D03*
X0001804409Y0001055826D03*
X0001704409Y0001055826D03*
X0001604409Y0001055826D03*
X0001504409Y0001055826D03*
X0001404409Y0001055826D03*
X0001304409Y0001055826D03*
X0001204409Y0001055826D03*
X0001104409Y0001055826D03*
X0001004409Y0001055826D03*
X0000904409Y0001055826D03*
X0000804409Y0001055826D03*
X0000704409Y0001055826D03*
D67*
X0000818976Y0001450708D03*
X0000818976Y0001253858D03*
D68*
X0000712677Y0001490078D03*
X0000712677Y0001214488D03*
D65*
X0002510708Y0001555826D03*
D66*
X0002510708Y0001455826D03*
X0002510708Y0001355826D03*
X0002510708Y0001255826D03*
X0002510708Y0001155826D03*
D69*
X0000715433Y0001384173D03*
X0000715433Y0001325118D03*
D70*
X0001002047Y0001486535D03*
X0000942992Y0001486535D03*
X0001002047Y0001411338D03*
X0000942992Y0001411338D03*
D71*
X0001176456Y0001477874D03*
X0001176456Y0001440472D03*
X0001176456Y0001403070D03*
X0001089842Y0001403070D03*
X0001089842Y0001477874D03*
X0001089842Y0001440472D03*
D70*
X0001157952Y0001554645D03*
X0001098897Y0001554645D03*
D69*
X0001368976Y0001475511D03*
X0001368976Y0001416456D03*
D64*
X0001582755Y0001416062D03*
X0001582755Y0001475118D03*
X0001508740Y0001414881D03*
X0001508740Y0001473937D03*
X0001649291Y0001415669D03*
X0001649291Y0001474724D03*
X0001440629Y0001415669D03*
X0001440629Y0001474724D03*
X0001723307Y0001415275D03*
X0001723307Y0001474330D03*
D69*
X0001814251Y0001413700D03*
X0001814251Y0001472755D03*
D64*
X0001963464Y0001474330D03*
X0001963464Y0001415275D03*
X0002031574Y0001474330D03*
X0002031574Y0001415275D03*
X0002106377Y0001414488D03*
X0002106377Y0001473543D03*
D69*
X0002253622Y0001472362D03*
X0002253622Y0001413307D03*
D64*
X0002345354Y0001207401D03*
X0002345354Y0001266456D03*
D69*
X0002212283Y0001267244D03*
X0002212283Y0001208188D03*
X0001811496Y0001269606D03*
X0001811496Y0001210551D03*
D64*
X0001733149Y0001270393D03*
X0001733149Y0001211338D03*
X0001664645Y0001270787D03*
X0001664645Y0001211732D03*
D71*
X0001496141Y0001205433D03*
X0001496141Y0001242834D03*
X0001496141Y0001280236D03*
X0001582755Y0001280236D03*
X0001582755Y0001205433D03*
D64*
X0001426456Y0001269606D03*
X0001426456Y0001210551D03*
X0001361889Y0001210944D03*
X0001361889Y0001269999D03*
D69*
X0001295748Y0001269606D03*
X0001295748Y0001210551D03*
D72*
X0001895354Y0001251102D03*
X0001895354Y0001443228D03*
D73*
X0001258346Y0001553858D03*
X0001317401Y0001553858D03*
X0000885118Y0001556220D03*
X0000826062Y0001556220D03*
D64*
X0002428031Y0001206220D03*
X0002428031Y0001265275D03*
X0001989842Y0001268031D03*
X0001989842Y0001208976D03*
D73*
X0001866220Y0001328267D03*
X0001925275Y0001328267D03*
D70*
X0000716614Y0001142834D03*
X0000775669Y0001142834D03*
G04 next file*
G04 Gerber Fmt 4.6, Leading zero omitted, Abs format (unit mm)*
G04 Created by KiCad (PCBNEW 4.0.7) date 11/15/17 20:03:37*
G01G01*
G04 APERTURE LIST*
G04 APERTURE END LIST*
D74*
D75*
X0000629921Y0002716535D02*
X0002179606Y0002320000D03*
X0002179606Y0002379055D03*
D76*
X0001185433Y0002201574D03*
D77*
X0001185433Y0002101574D03*
X0001085433Y0002201574D03*
X0001085433Y0002101574D03*
X0000985433Y0002201574D03*
X0000985433Y0002101574D03*
D76*
X0002604409Y0002571574D03*
D77*
X0002504409Y0002571574D03*
X0002404409Y0002571574D03*
X0002304409Y0002571574D03*
X0002204409Y0002571574D03*
X0002104409Y0002571574D03*
X0002004409Y0002571574D03*
X0001904409Y0002571574D03*
X0001804409Y0002571574D03*
X0001704409Y0002571574D03*
X0001604409Y0002571574D03*
X0001504409Y0002571574D03*
X0001404409Y0002571574D03*
X0001304409Y0002571574D03*
X0001204409Y0002571574D03*
X0001104409Y0002571574D03*
X0001004409Y0002571574D03*
X0000904409Y0002571574D03*
X0000804409Y0002571574D03*
X0000704409Y0002571574D03*
D76*
X0002604409Y0001961338D03*
D77*
X0002504409Y0001961338D03*
X0002404409Y0001961338D03*
X0002304409Y0001961338D03*
X0002204409Y0001961338D03*
X0002104409Y0001961338D03*
X0002004409Y0001961338D03*
X0001904409Y0001961338D03*
X0001804409Y0001961338D03*
X0001704409Y0001961338D03*
X0001604409Y0001961338D03*
X0001504409Y0001961338D03*
X0001404409Y0001961338D03*
X0001304409Y0001961338D03*
X0001204409Y0001961338D03*
X0001104409Y0001961338D03*
X0001004409Y0001961338D03*
X0000904409Y0001961338D03*
X0000804409Y0001961338D03*
X0000704409Y0001961338D03*
D78*
X0000818976Y0002356220D03*
X0000818976Y0002159370D03*
D79*
X0000712677Y0002395590D03*
X0000712677Y0002120000D03*
D76*
X0002510708Y0002461338D03*
D77*
X0002510708Y0002361338D03*
X0002510708Y0002261338D03*
X0002510708Y0002161338D03*
X0002510708Y0002061338D03*
D80*
X0000715433Y0002289685D03*
X0000715433Y0002230629D03*
D81*
X0001002047Y0002392047D03*
X0000942992Y0002392047D03*
X0001002047Y0002316850D03*
X0000942992Y0002316850D03*
D82*
X0001176456Y0002383385D03*
X0001176456Y0002345984D03*
X0001176456Y0002308582D03*
X0001089842Y0002308582D03*
X0001089842Y0002383385D03*
X0001089842Y0002345984D03*
D81*
X0001157952Y0002460157D03*
X0001098897Y0002460157D03*
D80*
X0001368976Y0002381023D03*
X0001368976Y0002321968D03*
D75*
X0001582755Y0002321574D03*
X0001582755Y0002380629D03*
X0001508740Y0002320393D03*
X0001508740Y0002379448D03*
X0001649291Y0002321181D03*
X0001649291Y0002380236D03*
X0001440629Y0002321181D03*
X0001440629Y0002380236D03*
X0001723307Y0002320787D03*
X0001723307Y0002379842D03*
D80*
X0001814251Y0002319212D03*
X0001814251Y0002378267D03*
D75*
X0001963464Y0002379842D03*
X0001963464Y0002320787D03*
X0002031574Y0002379842D03*
X0002031574Y0002320787D03*
X0002106377Y0002320000D03*
X0002106377Y0002379055D03*
D80*
X0002253622Y0002377873D03*
X0002253622Y0002318818D03*
D75*
X0002345354Y0002112913D03*
X0002345354Y0002171968D03*
D80*
X0002212283Y0002172755D03*
X0002212283Y0002113700D03*
X0001811496Y0002175118D03*
X0001811496Y0002116062D03*
D75*
X0001733149Y0002175905D03*
X0001733149Y0002116850D03*
X0001664645Y0002176299D03*
X0001664645Y0002117244D03*
D82*
X0001496141Y0002110944D03*
X0001496141Y0002148346D03*
X0001496141Y0002185748D03*
X0001582755Y0002185748D03*
X0001582755Y0002110944D03*
D75*
X0001426456Y0002175118D03*
X0001426456Y0002116062D03*
X0001361889Y0002116456D03*
X0001361889Y0002175511D03*
D80*
X0001295748Y0002175118D03*
X0001295748Y0002116062D03*
D83*
X0001895354Y0002156614D03*
X0001895354Y0002348740D03*
D84*
X0001258346Y0002459370D03*
X0001317401Y0002459370D03*
X0000885118Y0002461732D03*
X0000826062Y0002461732D03*
D75*
X0002428031Y0002111732D03*
X0002428031Y0002170787D03*
X0001989842Y0002173543D03*
X0001989842Y0002114488D03*
D84*
X0001866220Y0002233779D03*
X0001925275Y0002233779D03*
D81*
X0000716614Y0002048346D03*
X0000775669Y0002048346D03*
G04 next file*
G04 Gerber Fmt 4.6, Leading zero omitted, Abs format (unit mm)*
G04 Created by KiCad (PCBNEW 4.0.7) date 11/15/17 20:03:37*
G01G01*
G04 APERTURE LIST*
G04 APERTURE END LIST*
D85*
D86*
X0000629921Y0003622047D02*
X0002179606Y0003225511D03*
X0002179606Y0003284566D03*
D87*
X0001185433Y0003107086D03*
D88*
X0001185433Y0003007086D03*
X0001085433Y0003107086D03*
X0001085433Y0003007086D03*
X0000985433Y0003107086D03*
X0000985433Y0003007086D03*
D87*
X0002604409Y0003477086D03*
D88*
X0002504409Y0003477086D03*
X0002404409Y0003477086D03*
X0002304409Y0003477086D03*
X0002204409Y0003477086D03*
X0002104409Y0003477086D03*
X0002004409Y0003477086D03*
X0001904409Y0003477086D03*
X0001804409Y0003477086D03*
X0001704409Y0003477086D03*
X0001604409Y0003477086D03*
X0001504409Y0003477086D03*
X0001404409Y0003477086D03*
X0001304409Y0003477086D03*
X0001204409Y0003477086D03*
X0001104409Y0003477086D03*
X0001004409Y0003477086D03*
X0000904409Y0003477086D03*
X0000804409Y0003477086D03*
X0000704409Y0003477086D03*
D87*
X0002604409Y0002866850D03*
D88*
X0002504409Y0002866850D03*
X0002404409Y0002866850D03*
X0002304409Y0002866850D03*
X0002204409Y0002866850D03*
X0002104409Y0002866850D03*
X0002004409Y0002866850D03*
X0001904409Y0002866850D03*
X0001804409Y0002866850D03*
X0001704409Y0002866850D03*
X0001604409Y0002866850D03*
X0001504409Y0002866850D03*
X0001404409Y0002866850D03*
X0001304409Y0002866850D03*
X0001204409Y0002866850D03*
X0001104409Y0002866850D03*
X0001004409Y0002866850D03*
X0000904409Y0002866850D03*
X0000804409Y0002866850D03*
X0000704409Y0002866850D03*
D89*
X0000818976Y0003261732D03*
X0000818976Y0003064881D03*
D90*
X0000712677Y0003301102D03*
X0000712677Y0003025511D03*
D87*
X0002510708Y0003366850D03*
D88*
X0002510708Y0003266850D03*
X0002510708Y0003166850D03*
X0002510708Y0003066850D03*
X0002510708Y0002966850D03*
D91*
X0000715433Y0003195196D03*
X0000715433Y0003136141D03*
D92*
X0001002047Y0003297559D03*
X0000942992Y0003297559D03*
X0001002047Y0003222362D03*
X0000942992Y0003222362D03*
D93*
X0001176456Y0003288897D03*
X0001176456Y0003251496D03*
X0001176456Y0003214094D03*
X0001089842Y0003214094D03*
X0001089842Y0003288897D03*
X0001089842Y0003251496D03*
D92*
X0001157952Y0003365669D03*
X0001098897Y0003365669D03*
D91*
X0001368976Y0003286535D03*
X0001368976Y0003227480D03*
D86*
X0001582755Y0003227086D03*
X0001582755Y0003286141D03*
X0001508740Y0003225905D03*
X0001508740Y0003284960D03*
X0001649291Y0003226692D03*
X0001649291Y0003285748D03*
X0001440629Y0003226692D03*
X0001440629Y0003285748D03*
X0001723307Y0003226299D03*
X0001723307Y0003285354D03*
D91*
X0001814251Y0003224724D03*
X0001814251Y0003283779D03*
D86*
X0001963464Y0003285354D03*
X0001963464Y0003226299D03*
X0002031574Y0003285354D03*
X0002031574Y0003226299D03*
X0002106377Y0003225511D03*
X0002106377Y0003284566D03*
D91*
X0002253622Y0003283385D03*
X0002253622Y0003224330D03*
D86*
X0002345354Y0003018425D03*
X0002345354Y0003077480D03*
D91*
X0002212283Y0003078267D03*
X0002212283Y0003019212D03*
X0001811496Y0003080629D03*
X0001811496Y0003021574D03*
D86*
X0001733149Y0003081417D03*
X0001733149Y0003022362D03*
X0001664645Y0003081811D03*
X0001664645Y0003022755D03*
D93*
X0001496141Y0003016456D03*
X0001496141Y0003053858D03*
X0001496141Y0003091259D03*
X0001582755Y0003091259D03*
X0001582755Y0003016456D03*
D86*
X0001426456Y0003080629D03*
X0001426456Y0003021574D03*
X0001361889Y0003021968D03*
X0001361889Y0003081023D03*
D91*
X0001295748Y0003080629D03*
X0001295748Y0003021574D03*
D94*
X0001895354Y0003062125D03*
X0001895354Y0003254251D03*
D95*
X0001258346Y0003364881D03*
X0001317401Y0003364881D03*
X0000885118Y0003367244D03*
X0000826062Y0003367244D03*
D86*
X0002428031Y0003017244D03*
X0002428031Y0003076299D03*
X0001989842Y0003079055D03*
X0001989842Y0003020000D03*
D95*
X0001866220Y0003139291D03*
X0001925275Y0003139291D03*
D92*
X0000716614Y0002953858D03*
X0000775669Y0002953858D03*
G04 next file*
G04 Gerber Fmt 4.6, Leading zero omitted, Abs format (unit mm)*
G04 Created by KiCad (PCBNEW 4.0.7) date 11/15/17 17:48:19*
G01G01*
G04 APERTURE LIST*
G04 APERTURE END LIST*
D96*
D97*
X0002677165Y0001811023D02*
X0003242716Y0001224803D03*
X0003242716Y0001165748D03*
X0003574803Y0001172834D03*
X0003574803Y0001231889D03*
X0003465354Y0001227559D03*
X0003465354Y0001168503D03*
D98*
X0002866937Y0001458661D03*
X0002866937Y0001261810D03*
D99*
X0002760637Y0001498031D03*
X0002760637Y0001222440D03*
D96*
G36*
X0003913385Y0001749212D02*
X0003913385Y0001662598D01*
X0003779527Y0001662598D01*
X0003779527Y0001749212D01*
X0003913385Y0001749212D01*
X0003913385Y0001749212D01*
G37*
G36*
X0003913385Y0001649212D02*
X0003913385Y0001562598D01*
X0003779527Y0001562598D01*
X0003779527Y0001649212D01*
X0003913385Y0001649212D01*
X0003913385Y0001649212D01*
G37*
G36*
X0003913385Y0001549212D02*
X0003913385Y0001462598D01*
X0003779527Y0001462598D01*
X0003779527Y0001549212D01*
X0003913385Y0001549212D01*
X0003913385Y0001549212D01*
G37*
G36*
X0003913385Y0001449212D02*
X0003913385Y0001362598D01*
X0003779527Y0001362598D01*
X0003779527Y0001449212D01*
X0003913385Y0001449212D01*
X0003913385Y0001449212D01*
G37*
G36*
X0003913385Y0001349212D02*
X0003913385Y0001262598D01*
X0003779527Y0001262598D01*
X0003779527Y0001349212D01*
X0003913385Y0001349212D01*
X0003913385Y0001349212D01*
G37*
G36*
X0003913385Y0001249212D02*
X0003913385Y0001162598D01*
X0003779527Y0001162598D01*
X0003779527Y0001249212D01*
X0003913385Y0001249212D01*
X0003913385Y0001249212D01*
G37*
G36*
X0003913385Y0001149212D02*
X0003913385Y0001062598D01*
X0003779527Y0001062598D01*
X0003779527Y0001149212D01*
X0003913385Y0001149212D01*
X0003913385Y0001149212D01*
G37*
G36*
X0003913385Y0001049212D02*
X0003913385Y0000962598D01*
X0003779527Y0000962598D01*
X0003779527Y0001049212D01*
X0003913385Y0001049212D01*
X0003913385Y0001049212D01*
G37*
D100*
X0003654937Y0001691826D03*
D101*
X0003554937Y0001691826D03*
X0003454937Y0001691826D03*
X0003354937Y0001691826D03*
X0003254937Y0001691826D03*
X0003154937Y0001691826D03*
D97*
X0003345275Y0001549212D03*
X0003345275Y0001608267D03*
X0003307937Y0001297637D03*
X0003307937Y0001356692D03*
D102*
X0003370866Y0001111417D03*
X0003370866Y0001052362D03*
X0003596937Y0001297637D03*
X0003596937Y0001356692D03*
X0003480314Y0001549212D03*
X0003480314Y0001608267D03*
X0003235937Y0001295299D03*
X0003235937Y0001354354D03*
D97*
X0003022440Y0001043307D03*
X0003022440Y0001102362D03*
X0003688224Y0001096608D03*
X0003688224Y0001037553D03*
X0003603291Y0001036338D03*
X0003603291Y0001095393D03*
D103*
X0002857086Y0001056299D03*
X0002857086Y0001093700D03*
X0002857086Y0001131102D03*
X0002943700Y0001131102D03*
X0002943700Y0001056299D03*
X0002943700Y0001093700D03*
D97*
X0003412992Y0001608267D03*
X0003412992Y0001549212D03*
X0003375937Y0001356692D03*
X0003375937Y0001297637D03*
X0003440937Y0001297637D03*
X0003440937Y0001356692D03*
X0003532677Y0001356692D03*
X0003532677Y0001297637D03*
X0003017173Y0001700259D03*
X0003017173Y0001641204D03*
X0003274409Y0001611023D03*
X0003274409Y0001551968D03*
X0002885173Y0001641204D03*
X0002885173Y0001700259D03*
X0002951173Y0001700259D03*
X0002951173Y0001641204D03*
X0002767937Y0001422881D03*
X0002767937Y0001363826D03*
D104*
X0002718133Y0001082708D03*
X0002777188Y0001082708D03*
X0002776244Y0001146708D03*
X0002717188Y0001146708D03*
X0002718133Y0001016708D03*
X0002777188Y0001016708D03*
D97*
X0003242716Y0001113763D03*
X0003242716Y0001054708D03*
X0003305716Y0001113763D03*
X0003305716Y0001054708D03*
X0003180716Y0001112763D03*
X0003180716Y0001053708D03*
D105*
X0002814960Y0001700787D03*
X0002814960Y0001625984D03*
X0002736220Y0001663385D03*
D102*
X0003168897Y0001294881D03*
X0003168897Y0001353937D03*
D106*
X0003027267Y0001581196D03*
X0002968212Y0001581196D03*
D102*
X0003114566Y0001354330D03*
X0003114566Y0001295275D03*
X0003001968Y0001294881D03*
X0003001968Y0001353937D03*
X0003114716Y0001054708D03*
X0003114716Y0001113763D03*
X0003434645Y0001111417D03*
X0003434645Y0001052362D03*
D107*
X0003062937Y0001229826D03*
X0003062937Y0001421952D03*
D106*
X0003027267Y0001518196D03*
X0002968212Y0001518196D03*
D103*
X0003105511Y0001516535D03*
X0003105511Y0001553937D03*
X0003105511Y0001591338D03*
X0003192125Y0001591338D03*
X0003192125Y0001516535D03*
G04 next file*
G04 Gerber Fmt 4.6, Leading zero omitted, Abs format (unit mm)*
G04 Created by KiCad (PCBNEW 4.0.7) date 11/15/17 17:48:19*
G01G01*
G04 APERTURE LIST*
G04 APERTURE END LIST*
D108*
D109*
X0002677165Y0002716535D02*
X0003242716Y0002130314D03*
X0003242716Y0002071259D03*
X0003574803Y0002078346D03*
X0003574803Y0002137401D03*
X0003465354Y0002133070D03*
X0003465354Y0002074015D03*
D110*
X0002866937Y0002364173D03*
X0002866937Y0002167322D03*
D111*
X0002760637Y0002403543D03*
X0002760637Y0002127952D03*
D108*
G36*
X0003913385Y0002654724D02*
X0003913385Y0002568110D01*
X0003779527Y0002568110D01*
X0003779527Y0002654724D01*
X0003913385Y0002654724D01*
X0003913385Y0002654724D01*
G37*
G36*
X0003913385Y0002554724D02*
X0003913385Y0002468110D01*
X0003779527Y0002468110D01*
X0003779527Y0002554724D01*
X0003913385Y0002554724D01*
X0003913385Y0002554724D01*
G37*
G36*
X0003913385Y0002454724D02*
X0003913385Y0002368110D01*
X0003779527Y0002368110D01*
X0003779527Y0002454724D01*
X0003913385Y0002454724D01*
X0003913385Y0002454724D01*
G37*
G36*
X0003913385Y0002354724D02*
X0003913385Y0002268110D01*
X0003779527Y0002268110D01*
X0003779527Y0002354724D01*
X0003913385Y0002354724D01*
X0003913385Y0002354724D01*
G37*
G36*
X0003913385Y0002254724D02*
X0003913385Y0002168110D01*
X0003779527Y0002168110D01*
X0003779527Y0002254724D01*
X0003913385Y0002254724D01*
X0003913385Y0002254724D01*
G37*
G36*
X0003913385Y0002154724D02*
X0003913385Y0002068110D01*
X0003779527Y0002068110D01*
X0003779527Y0002154724D01*
X0003913385Y0002154724D01*
X0003913385Y0002154724D01*
G37*
G36*
X0003913385Y0002054724D02*
X0003913385Y0001968110D01*
X0003779527Y0001968110D01*
X0003779527Y0002054724D01*
X0003913385Y0002054724D01*
X0003913385Y0002054724D01*
G37*
G36*
X0003913385Y0001954724D02*
X0003913385Y0001868110D01*
X0003779527Y0001868110D01*
X0003779527Y0001954724D01*
X0003913385Y0001954724D01*
X0003913385Y0001954724D01*
G37*
D112*
X0003654937Y0002597338D03*
D113*
X0003554937Y0002597338D03*
X0003454937Y0002597338D03*
X0003354937Y0002597338D03*
X0003254937Y0002597338D03*
X0003154937Y0002597338D03*
D109*
X0003345275Y0002454724D03*
X0003345275Y0002513779D03*
X0003307937Y0002203149D03*
X0003307937Y0002262204D03*
D114*
X0003370866Y0002016929D03*
X0003370866Y0001957874D03*
X0003596937Y0002203149D03*
X0003596937Y0002262204D03*
X0003480314Y0002454724D03*
X0003480314Y0002513779D03*
X0003235937Y0002200811D03*
X0003235937Y0002259866D03*
D109*
X0003022440Y0001948818D03*
X0003022440Y0002007874D03*
X0003688224Y0002002120D03*
X0003688224Y0001943064D03*
X0003603291Y0001941850D03*
X0003603291Y0002000905D03*
D115*
X0002857086Y0001961811D03*
X0002857086Y0001999212D03*
X0002857086Y0002036614D03*
X0002943700Y0002036614D03*
X0002943700Y0001961811D03*
X0002943700Y0001999212D03*
D109*
X0003412992Y0002513779D03*
X0003412992Y0002454724D03*
X0003375937Y0002262204D03*
X0003375937Y0002203149D03*
X0003440937Y0002203149D03*
X0003440937Y0002262204D03*
X0003532677Y0002262204D03*
X0003532677Y0002203149D03*
X0003017173Y0002605771D03*
X0003017173Y0002546716D03*
X0003274409Y0002516535D03*
X0003274409Y0002457480D03*
X0002885173Y0002546716D03*
X0002885173Y0002605771D03*
X0002951173Y0002605771D03*
X0002951173Y0002546716D03*
X0002767937Y0002328393D03*
X0002767937Y0002269338D03*
D116*
X0002718133Y0001988220D03*
X0002777188Y0001988220D03*
X0002776244Y0002052220D03*
X0002717188Y0002052220D03*
X0002718133Y0001922220D03*
X0002777188Y0001922220D03*
D109*
X0003242716Y0002019275D03*
X0003242716Y0001960220D03*
X0003305716Y0002019275D03*
X0003305716Y0001960220D03*
X0003180716Y0002018275D03*
X0003180716Y0001959220D03*
D117*
X0002814960Y0002606299D03*
X0002814960Y0002531496D03*
X0002736220Y0002568897D03*
D114*
X0003168897Y0002200393D03*
X0003168897Y0002259448D03*
D118*
X0003027267Y0002486708D03*
X0002968212Y0002486708D03*
D114*
X0003114566Y0002259842D03*
X0003114566Y0002200787D03*
X0003001968Y0002200393D03*
X0003001968Y0002259448D03*
X0003114716Y0001960220D03*
X0003114716Y0002019275D03*
X0003434645Y0002016929D03*
X0003434645Y0001957874D03*
D119*
X0003062937Y0002135338D03*
X0003062937Y0002327464D03*
D118*
X0003027267Y0002423708D03*
X0002968212Y0002423708D03*
D115*
X0003105511Y0002422047D03*
X0003105511Y0002459448D03*
X0003105511Y0002496850D03*
X0003192125Y0002496850D03*
X0003192125Y0002422047D03*
G04 next file*
G04 Gerber Fmt 4.6, Leading zero omitted, Abs format (unit mm)*
G04 Created by KiCad (PCBNEW 4.0.7) date 11/15/17 17:48:19*
G01G01*
G04 APERTURE LIST*
G04 APERTURE END LIST*
D120*
D121*
X0002677165Y0003622047D02*
X0003242716Y0003035826D03*
X0003242716Y0002976771D03*
X0003574803Y0002983858D03*
X0003574803Y0003042913D03*
X0003465354Y0003038582D03*
X0003465354Y0002979527D03*
D122*
X0002866937Y0003269685D03*
X0002866937Y0003072834D03*
D123*
X0002760637Y0003309055D03*
X0002760637Y0003033464D03*
D120*
G36*
X0003913385Y0003560236D02*
X0003913385Y0003473622D01*
X0003779527Y0003473622D01*
X0003779527Y0003560236D01*
X0003913385Y0003560236D01*
X0003913385Y0003560236D01*
G37*
G36*
X0003913385Y0003460236D02*
X0003913385Y0003373622D01*
X0003779527Y0003373622D01*
X0003779527Y0003460236D01*
X0003913385Y0003460236D01*
X0003913385Y0003460236D01*
G37*
G36*
X0003913385Y0003360236D02*
X0003913385Y0003273622D01*
X0003779527Y0003273622D01*
X0003779527Y0003360236D01*
X0003913385Y0003360236D01*
X0003913385Y0003360236D01*
G37*
G36*
X0003913385Y0003260236D02*
X0003913385Y0003173622D01*
X0003779527Y0003173622D01*
X0003779527Y0003260236D01*
X0003913385Y0003260236D01*
X0003913385Y0003260236D01*
G37*
G36*
X0003913385Y0003160236D02*
X0003913385Y0003073622D01*
X0003779527Y0003073622D01*
X0003779527Y0003160236D01*
X0003913385Y0003160236D01*
X0003913385Y0003160236D01*
G37*
G36*
X0003913385Y0003060236D02*
X0003913385Y0002973622D01*
X0003779527Y0002973622D01*
X0003779527Y0003060236D01*
X0003913385Y0003060236D01*
X0003913385Y0003060236D01*
G37*
G36*
X0003913385Y0002960236D02*
X0003913385Y0002873622D01*
X0003779527Y0002873622D01*
X0003779527Y0002960236D01*
X0003913385Y0002960236D01*
X0003913385Y0002960236D01*
G37*
G36*
X0003913385Y0002860236D02*
X0003913385Y0002773622D01*
X0003779527Y0002773622D01*
X0003779527Y0002860236D01*
X0003913385Y0002860236D01*
X0003913385Y0002860236D01*
G37*
D124*
X0003654937Y0003502850D03*
D125*
X0003554937Y0003502850D03*
X0003454937Y0003502850D03*
X0003354937Y0003502850D03*
X0003254937Y0003502850D03*
X0003154937Y0003502850D03*
D121*
X0003345275Y0003360236D03*
X0003345275Y0003419291D03*
X0003307937Y0003108661D03*
X0003307937Y0003167716D03*
D126*
X0003370866Y0002922440D03*
X0003370866Y0002863385D03*
X0003596937Y0003108661D03*
X0003596937Y0003167716D03*
X0003480314Y0003360236D03*
X0003480314Y0003419291D03*
X0003235937Y0003106322D03*
X0003235937Y0003165377D03*
D121*
X0003022440Y0002854330D03*
X0003022440Y0002913385D03*
X0003688224Y0002907631D03*
X0003688224Y0002848576D03*
X0003603291Y0002847362D03*
X0003603291Y0002906417D03*
D127*
X0002857086Y0002867322D03*
X0002857086Y0002904724D03*
X0002857086Y0002942125D03*
X0002943700Y0002942125D03*
X0002943700Y0002867322D03*
X0002943700Y0002904724D03*
D121*
X0003412992Y0003419291D03*
X0003412992Y0003360236D03*
X0003375937Y0003167716D03*
X0003375937Y0003108661D03*
X0003440937Y0003108661D03*
X0003440937Y0003167716D03*
X0003532677Y0003167716D03*
X0003532677Y0003108661D03*
X0003017173Y0003511283D03*
X0003017173Y0003452228D03*
X0003274409Y0003422047D03*
X0003274409Y0003362992D03*
X0002885173Y0003452228D03*
X0002885173Y0003511283D03*
X0002951173Y0003511283D03*
X0002951173Y0003452228D03*
X0002767937Y0003233905D03*
X0002767937Y0003174850D03*
D128*
X0002718133Y0002893732D03*
X0002777188Y0002893732D03*
X0002776244Y0002957732D03*
X0002717188Y0002957732D03*
X0002718133Y0002827732D03*
X0002777188Y0002827732D03*
D121*
X0003242716Y0002924787D03*
X0003242716Y0002865732D03*
X0003305716Y0002924787D03*
X0003305716Y0002865732D03*
X0003180716Y0002923787D03*
X0003180716Y0002864732D03*
D129*
X0002814960Y0003511811D03*
X0002814960Y0003437007D03*
X0002736220Y0003474409D03*
D126*
X0003168897Y0003105905D03*
X0003168897Y0003164960D03*
D130*
X0003027267Y0003392220D03*
X0002968212Y0003392220D03*
D126*
X0003114566Y0003165354D03*
X0003114566Y0003106299D03*
X0003001968Y0003105905D03*
X0003001968Y0003164960D03*
X0003114716Y0002865732D03*
X0003114716Y0002924787D03*
X0003434645Y0002922440D03*
X0003434645Y0002863385D03*
D131*
X0003062937Y0003040850D03*
X0003062937Y0003232976D03*
D130*
X0003027267Y0003329220D03*
X0002968212Y0003329220D03*
D127*
X0003105511Y0003327559D03*
X0003105511Y0003364960D03*
X0003105511Y0003402362D03*
X0003192125Y0003402362D03*
X0003192125Y0003327559D03*
M02*