%MOIN*%
%OFA0B0*%
%FSLAX46Y46*%
%IPPOS*%
%LPD*%
%ADD10C,0.0039370078740157488*%
%ADD11C,0.0019685039370078744*%
%ADD22C,0.0039370078740157488*%
%ADD23C,0.0039370078740157488*%
%ADD24C,0.0039370078740157488*%
%ADD25C,0.011811023622047244*%
%ADD26C,0.0039370078740157488*%
%ADD27C,0.0039370078740157488*%
%ADD28C,0.0039370078740157488*%
%ADD29C,0.0039370078740157488*%
%ADD30C,0.0019685039370078744*%
%ADD31C,0.0039370078740157488*%
%ADD32C,0.0039370078740157488*%
%ADD33C,0.0039370078740157488*%
%ADD34C,0.011811023622047244*%
%ADD35C,0.0039370078740157488*%
%ADD36C,0.0039370078740157488*%
%ADD37C,0.0019685039370078744*%
%ADD38C,0.0039370078740157488*%
%ADD39C,0.0039370078740157488*%
%ADD40C,0.0019685039370078744*%
%ADD41C,0.0039370078740157488*%
%ADD42C,0.0039370078740157488*%
%ADD43C,0.0060236220472440951*%
%ADD44C,0.0039370078740157488*%
%ADD45C,0.011811023622047244*%
%ADD46C,0.0039370078740157488*%
%ADD47C,0.0039370078740157488*%
%ADD48C,0.0019685039370078744*%
%ADD49C,0.0039370078740157488*%
%ADD50C,0.0039370078740157488*%
%ADD51C,0.0019685039370078744*%
%ADD52C,0.0039370078740157488*%
%ADD53C,0.0039370078740157488*%
%ADD54C,0.0039370078740157488*%
%ADD55C,0.011811023622047244*%
%ADD56C,0.0039370078740157488*%
%ADD57C,0.0039370078740157488*%
%ADD58C,0.0039370078740157488*%
%ADD59C,0.0039370078740157488*%
%ADD60C,0.0019685039370078744*%
%ADD61C,0.0039370078740157488*%
%ADD62C,0.0039370078740157488*%
%ADD63C,0.0039370078740157488*%
%ADD64C,0.011811023622047244*%
%ADD65C,0.0039370078740157488*%
%ADD66C,0.0039370078740157488*%
%ADD67C,0.0039370078740157488*%
%ADD68C,0.0039370078740157488*%
%ADD69C,0.0019685039370078744*%
%ADD70C,0.0039370078740157488*%
%ADD71C,0.0039370078740157488*%
%ADD72C,0.0039370078740157488*%
%ADD73C,0.011811023622047244*%
%ADD74C,0.0039370078740157488*%
%ADD75C,0.0039370078740157488*%
%ADD76C,0.0039370078740157488*%
%ADD77C,0.0039370078740157488*%
%ADD78C,0.0019685039370078744*%
%ADD79C,0.0039370078740157488*%
%ADD80C,0.0039370078740157488*%
%ADD81C,0.0039370078740157488*%
%ADD82C,0.011811023622047244*%
%ADD83C,0.0039370078740157488*%
%ADD84C,0.0039370078740157488*%
%ADD85C,0.0019685039370078744*%
%ADD86C,0.0039370078740157488*%
%ADD87C,0.0039370078740157488*%
%ADD88C,0.0019685039370078744*%
%ADD89C,0.0039370078740157488*%
%ADD90C,0.0039370078740157488*%
%ADD91C,0.0039370078740157488*%
%ADD92C,0.011811023622047244*%
%ADD93C,0.0039370078740157488*%
%ADD94C,0.0039370078740157488*%
%ADD95C,0.0019685039370078744*%
%ADD96C,0.0039370078740157488*%
%ADD97C,0.0039370078740157488*%
%ADD98C,0.0019685039370078744*%
%ADD99C,0.0039370078740157488*%
%ADD100C,0.0039370078740157488*%
%ADD101C,0.0039370078740157488*%
%ADD102C,0.011811023622047244*%
%ADD103C,0.0039370078740157488*%
%ADD104C,0.0039370078740157488*%
%ADD105C,0.0019685039370078744*%
%ADD106C,0.0039370078740157488*%
%ADD107C,0.0039370078740157488*%
%ADD108C,0.0019685039370078744*%
%ADD109C,0.0039370078740157488*%
%ADD110C,0.0039370078740157488*%
%ADD111C,0.0060236220472440951*%
%ADD112C,0.0039370078740157488*%
%ADD113C,0.011811023622047244*%
%ADD114C,0.0039370078740157488*%
%ADD115C,0.0039370078740157488*%
%ADD116C,0.0019685039370078744*%
%ADD117C,0.0039370078740157488*%
%ADD118C,0.0039370078740157488*%
%ADD119C,0.0019685039370078744*%
%ADD120C,0.0039370078740157488*%
%ADD121C,0.0039370078740157488*%
%ADD122C,0.0060236220472440951*%
%ADD123C,0.0039370078740157488*%
%ADD124C,0.011811023622047244*%
%ADD125C,0.0039370078740157488*%
%ADD126C,0.0039370078740157488*%
%ADD127C,0.0019685039370078744*%
%ADD128C,0.0039370078740157488*%
%ADD129C,0.0039370078740157488*%
%ADD130C,0.0019685039370078744*%
%ADD131C,0.0039370078740157488*%
%ADD132C,0.0039370078740157488*%
%ADD133C,0.0060236220472440951*%
%ADD134C,0.0039370078740157488*%
%ADD135C,0.011811023622047244*%
%ADD136C,0.0039370078740157488*%
%ADD137C,0.0039370078740157488*%
%ADD138C,0.0019685039370078744*%
%ADD139C,0.0039370078740157488*%
G01G01*
D10*
D11*
X0000635826Y0000716929D02*
X-0000005905Y0000716929D01*
X-0000005905Y0000716929D02*
X-0000005905Y0000858661D01*
X-0000005905Y0000858661D02*
X0000635826Y0000858661D01*
X0000635826Y0000858661D02*
X0000635826Y0000716929D01*
G04 next file*
G04 Gerber Fmt 4.6, Leading zero omitted, Abs format (unit mm)*
G04 Created by KiCad (PCBNEW 4.0.7) date 11/15/17 17:31:17*
G01G01*
G04 APERTURE LIST*
G04 APERTURE END LIST*
D22*
G04 next file*
G04 Gerber Fmt 4.6, Leading zero omitted, Abs format (unit mm)*
G04 Created by KiCad (PCBNEW 4.0.7) date 11/15/17 17:31:17*
G01G01*
G04 APERTURE LIST*
G04 APERTURE END LIST*
D23*
G04 next file*
G04 Gerber Fmt 4.6, Leading zero omitted, Abs format (unit mm)*
G04 Created by KiCad (PCBNEW 4.0.7) date 11/15/17 17:31:17*
G01G01*
G04 APERTURE LIST*
G04 APERTURE END LIST*
D24*
D25*
X-0000070331Y0000697744D02*
X-0000067517Y0000694935D01*
X-0000064700Y0000689313D01*
X-0000064688Y0000675252D01*
X-0000067495Y0000669625D01*
X-0000070305Y0000666811D01*
X-0000075926Y0000663994D01*
X-0000081551Y0000663989D01*
X-0000089990Y0000666793D01*
X-0000123765Y0000700510D01*
X-0000123733Y0000663952D01*
X-0000064661Y0000644318D02*
X-0000064629Y0000607760D01*
X-0000087143Y0000627426D01*
X-0000087136Y0000618989D01*
X-0000089943Y0000613363D01*
X-0000092753Y0000610548D01*
X-0000098375Y0000607731D01*
X-0000112435Y0000607719D01*
X-0000118062Y0000610526D01*
X-0000120877Y0000613336D01*
X-0000123694Y0000618958D01*
X-0000123708Y0000635831D01*
X-0000120901Y0000641457D01*
X-0000118091Y0000644272D01*
X-0000118038Y0000582405D02*
X-0000120847Y0000579590D01*
X-0000123662Y0000582400D01*
X-0000120852Y0000585214D01*
X-0000118038Y0000582405D01*
X-0000123662Y0000582400D01*
X-0000064573Y0000543081D02*
X-0000064568Y0000537457D01*
X-0000067375Y0000531830D01*
X-0000070185Y0000529015D01*
X-0000075807Y0000526198D01*
X-0000087053Y0000523376D01*
X-0000101113Y0000523364D01*
X-0000112364Y0000526167D01*
X-0000117991Y0000528974D01*
X-0000120806Y0000531784D01*
X-0000123623Y0000537405D01*
X-0000123628Y0000543030D01*
X-0000120821Y0000548656D01*
X-0000118011Y0000551471D01*
X-0000112389Y0000554288D01*
X-0000101143Y0000557110D01*
X-0000087082Y0000557122D01*
X-0000075831Y0000554320D01*
X-0000070204Y0000551513D01*
X-0000067390Y0000548703D01*
X-0000064573Y0000543081D01*
X-0000064524Y0000486838D02*
X-0000064519Y0000481214D01*
X-0000067326Y0000475587D01*
X-0000070136Y0000472772D01*
X-0000075758Y0000469955D01*
X-0000087004Y0000467134D01*
X-0000101065Y0000467121D01*
X-0000112316Y0000469924D01*
X-0000117942Y0000472731D01*
X-0000120757Y0000475541D01*
X-0000123574Y0000481162D01*
X-0000123579Y0000486787D01*
X-0000120772Y0000492414D01*
X-0000117962Y0000495228D01*
X-0000112340Y0000498045D01*
X-0000101094Y0000500867D01*
X-0000087033Y0000500879D01*
X-0000075782Y0000498077D01*
X-0000070155Y0000495270D01*
X-0000067341Y0000492460D01*
X-0000064524Y0000486838D01*
X-0000064475Y0000430595D02*
X-0000064470Y0000424971D01*
X-0000067277Y0000419344D01*
X-0000070087Y0000416530D01*
X-0000075709Y0000413712D01*
X-0000086955Y0000410891D01*
X-0000101016Y0000410878D01*
X-0000112267Y0000413681D01*
X-0000117893Y0000416488D01*
X-0000120708Y0000419298D01*
X-0000123525Y0000424920D01*
X-0000123530Y0000430544D01*
X-0000120723Y0000436171D01*
X-0000117913Y0000438985D01*
X-0000112291Y0000441802D01*
X-0000101045Y0000444624D01*
X-0000086984Y0000444636D01*
X-0000075733Y0000441834D01*
X-0000070107Y0000439027D01*
X-0000067292Y0000436217D01*
X-0000064475Y0000430595D01*
X-0000123452Y0000340555D02*
X-0000084082Y0000340589D01*
X-0000089706Y0000340584D02*
X-0000086891Y0000337775D01*
X-0000084074Y0000332153D01*
X-0000084067Y0000323717D01*
X-0000086874Y0000318090D01*
X-0000092496Y0000315273D01*
X-0000123430Y0000315246D01*
X-0000092496Y0000315273D02*
X-0000086869Y0000312465D01*
X-0000084052Y0000306844D01*
X-0000084045Y0000298407D01*
X-0000086852Y0000292780D01*
X-0000092474Y0000289963D01*
X-0000123408Y0000289937D01*
X-0000123383Y0000261815D02*
X-0000084013Y0000261849D01*
X-0000089637Y0000261844D02*
X-0000086823Y0000259035D01*
X-0000084006Y0000253413D01*
X-0000083998Y0000244976D01*
X-0000086806Y0000239350D01*
X-0000092428Y0000236533D01*
X-0000123361Y0000236506D01*
X-0000092428Y0000236533D02*
X-0000086801Y0000233725D01*
X-0000083984Y0000228103D01*
X-0000083976Y0000219667D01*
X-0000086784Y0000214040D01*
X-0000092406Y0000211223D01*
X-0000123339Y0000211196D01*
X-0000044078Y0000905866D02*
X-0000043291Y0000000355D01*
X0000000393Y0000905905D02*
X-0000150377Y0000905774D01*
X0000001181Y0000000393D02*
X-0000149590Y0000000262D01*
X-0000043291Y0000000355D02*
X-0000066417Y0000044685D01*
X-0000043291Y0000000355D02*
X-0000020242Y0000044725D01*
X-0000044078Y0000905866D02*
X-0000067127Y0000861496D01*
X-0000044078Y0000905866D02*
X-0000020952Y0000861536D01*
X0000104521Y0000968431D02*
X0000070775Y0000968474D01*
X0000087648Y0000968453D02*
X0000087722Y0001027508D01*
X0000082087Y0001019078D01*
X0000076455Y0001013461D01*
X0000070828Y0001010656D01*
X0000155213Y0001027423D02*
X0000143965Y0001027437D01*
X0000138337Y0001024632D01*
X0000135521Y0001021824D01*
X0000129886Y0001013394D01*
X0000127060Y0001002149D01*
X0000127032Y0000979652D01*
X0000129837Y0000974024D01*
X0000132646Y0000971208D01*
X0000138266Y0000968389D01*
X0000149515Y0000968375D01*
X0000155143Y0000971180D01*
X0000157958Y0000973989D01*
X0000160778Y0000979610D01*
X0000160795Y0000993670D01*
X0000157990Y0000999298D01*
X0000155182Y0001002114D01*
X0000149561Y0001004933D01*
X0000138312Y0001004947D01*
X0000132684Y0001002142D01*
X0000129869Y0000999333D01*
X0000127050Y0000993713D01*
X0000186080Y0000973954D02*
X0000188889Y0000971138D01*
X0000186073Y0000968330D01*
X0000183264Y0000971145D01*
X0000186080Y0000973954D01*
X0000186073Y0000968330D01*
X0000225517Y0001027335D02*
X0000231141Y0001027328D01*
X0000236762Y0001024509D01*
X0000239571Y0001021693D01*
X0000242376Y0001016066D01*
X0000245174Y0001004814D01*
X0000245156Y0000990753D01*
X0000242330Y0000979508D01*
X0000239511Y0000973887D01*
X0000236695Y0000971078D01*
X0000231067Y0000968273D01*
X0000225443Y0000968280D01*
X0000219822Y0000971099D01*
X0000217014Y0000973915D01*
X0000214208Y0000979543D01*
X0000211410Y0000990795D01*
X0000211428Y0001004856D01*
X0000214254Y0001016101D01*
X0000217073Y0001021722D01*
X0000219889Y0001024530D01*
X0000225517Y0001027335D01*
X0000281760Y0001027265D02*
X0000287384Y0001027258D01*
X0000293005Y0001024439D01*
X0000295813Y0001021623D01*
X0000298619Y0001015995D01*
X0000301417Y0001004743D01*
X0000301399Y0000990683D01*
X0000298573Y0000979437D01*
X0000295754Y0000973817D01*
X0000292938Y0000971008D01*
X0000287310Y0000968203D01*
X0000281686Y0000968210D01*
X0000276065Y0000971029D01*
X0000273256Y0000973845D01*
X0000270451Y0000979473D01*
X0000267653Y0000990725D01*
X0000267671Y0001004785D01*
X0000270497Y0001016031D01*
X0000273316Y0001021651D01*
X0000276132Y0001024460D01*
X0000281760Y0001027265D01*
X0000338003Y0001027195D02*
X0000343627Y0001027188D01*
X0000349248Y0001024369D01*
X0000352056Y0001021553D01*
X0000354861Y0001015925D01*
X0000357660Y0001004673D01*
X0000357642Y0000990612D01*
X0000354816Y0000979367D01*
X0000351997Y0000973746D01*
X0000349181Y0000970938D01*
X0000343553Y0000968133D01*
X0000337929Y0000968140D01*
X0000332308Y0000970959D01*
X0000329499Y0000973775D01*
X0000326694Y0000979402D01*
X0000323896Y0000990654D01*
X0000323914Y0001004715D01*
X0000326740Y0001015960D01*
X0000329559Y0001021581D01*
X0000332375Y0001024390D01*
X0000338003Y0001027195D01*
X0000427917Y0000968027D02*
X0000427967Y0001007397D01*
X0000427960Y0001001773D02*
X0000430775Y0001004582D01*
X0000436403Y0001007387D01*
X0000444840Y0001007376D01*
X0000450460Y0001004557D01*
X0000453265Y0000998929D01*
X0000453227Y0000967996D01*
X0000453265Y0000998929D02*
X0000456085Y0001004550D01*
X0000461712Y0001007355D01*
X0000470149Y0001007345D01*
X0000475770Y0001004525D01*
X0000478575Y0000998898D01*
X0000478536Y0000967964D01*
X0000506658Y0000967929D02*
X0000506707Y0001007299D01*
X0000506700Y0001001675D02*
X0000509515Y0001004483D01*
X0000515143Y0001007288D01*
X0000523580Y0001007278D01*
X0000529200Y0001004459D01*
X0000532006Y0000998831D01*
X0000531967Y0000967897D01*
X0000532006Y0000998831D02*
X0000534825Y0001004452D01*
X0000540453Y0001007257D01*
X0000548889Y0001007246D01*
X0000554510Y0001004427D01*
X0000557315Y0000998799D01*
X0000557276Y0000967866D01*
X0000000438Y0000942127D02*
X0000630359Y0000941340D01*
X0000000393Y0000906299D02*
X0000000571Y0001048426D01*
X0000630314Y0000905511D02*
X0000630492Y0001047639D01*
X0000630359Y0000941340D02*
X0000585980Y0000918308D01*
X0000630359Y0000941340D02*
X0000586038Y0000964483D01*
X0000000438Y0000942127D02*
X0000044760Y0000918985D01*
X0000000438Y0000942127D02*
X0000044817Y0000965159D01*
G04 next file*
G04 Gerber Fmt 4.6, Leading zero omitted, Abs format (unit mm)*
G04 Created by KiCad (PCBNEW 4.0.7) date 11/15/17 17:31:17*
G01G01*
G04 APERTURE LIST*
G04 APERTURE END LIST*
D26*
G04 next file*
G04 Gerber Fmt 4.6, Leading zero omitted, Abs format (unit mm)*
G04 Created by KiCad (PCBNEW 4.0.7) date 11/15/17 17:31:17*
G01G01*
G04 APERTURE LIST*
G04 APERTURE END LIST*
D27*
G04 next file*
G04 Gerber Fmt 4.6, Leading zero omitted, Abs format (unit mm)*
G04 Created by KiCad (PCBNEW 4.0.7) date 11/15/17 17:31:17*
G01G01*
G04 APERTURE LIST*
G04 APERTURE END LIST*
D28*
G04 next file*
G04 Gerber Fmt 4.6, Leading zero omitted, Abs format (unit mm)*
G04 Created by KiCad (PCBNEW 4.0.7) date 11/15/17 20:03:37*
G01G01*
G04 APERTURE LIST*
G04 APERTURE END LIST*
D29*
D30*
X0002205196Y0000483385D02*
X0002205196Y0000593622D01*
X0002205196Y0000483385D02*
X0002154015Y0000483385D01*
X0002154015Y0000593622D02*
X0002205196Y0000593622D01*
X0002154015Y0000593622D02*
X0002154015Y0000483385D01*
X0002675275Y0000689685D02*
X0000633937Y0000689685D01*
X0000633937Y0000689685D02*
X0000633937Y0000831417D01*
X0000633937Y0000831417D02*
X0002675275Y0000831417D01*
X0002675275Y0000831417D02*
X0002675275Y0000689685D01*
X0002675275Y0000079448D02*
X0000633937Y0000079448D01*
X0000633937Y0000079448D02*
X0000633937Y0000221181D01*
X0000633937Y0000221181D02*
X0002675275Y0000221181D01*
X0002675275Y0000221181D02*
X0002675275Y0000079448D01*
X0000687874Y0000498346D02*
X0000687874Y0000399921D01*
X0000687874Y0000498346D02*
X0000742992Y0000498346D01*
X0000742992Y0000399921D02*
X0000687874Y0000399921D01*
X0000742992Y0000399921D02*
X0000742992Y0000498346D01*
X0001021732Y0000608582D02*
X0000923307Y0000608582D01*
X0001021732Y0000608582D02*
X0001021732Y0000553464D01*
X0000923307Y0000553464D02*
X0000923307Y0000608582D01*
X0000923307Y0000553464D02*
X0001021732Y0000553464D01*
X0001021732Y0000533385D02*
X0000923307Y0000533385D01*
X0001021732Y0000533385D02*
X0001021732Y0000478267D01*
X0000923307Y0000478267D02*
X0000923307Y0000533385D01*
X0000923307Y0000478267D02*
X0001021732Y0000478267D01*
X0001058346Y0000605826D02*
X0001207952Y0000605826D01*
X0001058346Y0000464094D02*
X0001058346Y0000605826D01*
X0001207952Y0000464094D02*
X0001058346Y0000464094D01*
X0001207952Y0000605826D02*
X0001207952Y0000464094D01*
X0001177637Y0000676692D02*
X0001079212Y0000676692D01*
X0001177637Y0000676692D02*
X0001177637Y0000621574D01*
X0001079212Y0000621574D02*
X0001079212Y0000676692D01*
X0001079212Y0000621574D02*
X0001177637Y0000621574D01*
X0001341417Y0000589685D02*
X0001341417Y0000491259D01*
X0001341417Y0000589685D02*
X0001396535Y0000589685D01*
X0001396535Y0000491259D02*
X0001341417Y0000491259D01*
X0001396535Y0000491259D02*
X0001396535Y0000589685D01*
X0001608346Y0000484960D02*
X0001608346Y0000595196D01*
X0001608346Y0000484960D02*
X0001557165Y0000484960D01*
X0001557165Y0000595196D02*
X0001608346Y0000595196D01*
X0001557165Y0000595196D02*
X0001557165Y0000484960D01*
X0001534330Y0000483779D02*
X0001534330Y0000594015D01*
X0001534330Y0000483779D02*
X0001483149Y0000483779D01*
X0001483149Y0000594015D02*
X0001534330Y0000594015D01*
X0001483149Y0000594015D02*
X0001483149Y0000483779D01*
X0001674881Y0000484566D02*
X0001674881Y0000594803D01*
X0001674881Y0000484566D02*
X0001623700Y0000484566D01*
X0001623700Y0000594803D02*
X0001674881Y0000594803D01*
X0001623700Y0000594803D02*
X0001623700Y0000484566D01*
X0001466220Y0000484566D02*
X0001466220Y0000594803D01*
X0001466220Y0000484566D02*
X0001415039Y0000484566D01*
X0001415039Y0000594803D02*
X0001466220Y0000594803D01*
X0001415039Y0000594803D02*
X0001415039Y0000484566D01*
X0001748897Y0000484173D02*
X0001748897Y0000594409D01*
X0001748897Y0000484173D02*
X0001697716Y0000484173D01*
X0001697716Y0000594409D02*
X0001748897Y0000594409D01*
X0001697716Y0000594409D02*
X0001697716Y0000484173D01*
X0001841811Y0000488503D02*
X0001841811Y0000586929D01*
X0001841811Y0000488503D02*
X0001786692Y0000488503D01*
X0001786692Y0000586929D02*
X0001841811Y0000586929D01*
X0001786692Y0000586929D02*
X0001786692Y0000488503D01*
X0001937874Y0000594409D02*
X0001937874Y0000484173D01*
X0001937874Y0000594409D02*
X0001989055Y0000594409D01*
X0001989055Y0000484173D02*
X0001937874Y0000484173D01*
X0001989055Y0000484173D02*
X0001989055Y0000594409D01*
X0002005984Y0000594409D02*
X0002005984Y0000484173D01*
X0002005984Y0000594409D02*
X0002057165Y0000594409D01*
X0002057165Y0000484173D02*
X0002005984Y0000484173D01*
X0002057165Y0000484173D02*
X0002057165Y0000594409D01*
X0002131968Y0000483385D02*
X0002131968Y0000593622D01*
X0002131968Y0000483385D02*
X0002080787Y0000483385D01*
X0002080787Y0000593622D02*
X0002131968Y0000593622D01*
X0002080787Y0000593622D02*
X0002080787Y0000483385D01*
X0002226062Y0000586535D02*
X0002226062Y0000488110D01*
X0002226062Y0000586535D02*
X0002281181Y0000586535D01*
X0002281181Y0000488110D02*
X0002226062Y0000488110D01*
X0002281181Y0000488110D02*
X0002281181Y0000586535D01*
X0002370944Y0000276299D02*
X0002370944Y0000386535D01*
X0002370944Y0000276299D02*
X0002319763Y0000276299D01*
X0002319763Y0000386535D02*
X0002370944Y0000386535D01*
X0002319763Y0000386535D02*
X0002319763Y0000276299D01*
X0002184724Y0000381417D02*
X0002184724Y0000282992D01*
X0002184724Y0000381417D02*
X0002239842Y0000381417D01*
X0002239842Y0000282992D02*
X0002184724Y0000282992D01*
X0002239842Y0000282992D02*
X0002239842Y0000381417D01*
X0001783937Y0000383779D02*
X0001783937Y0000285354D01*
X0001783937Y0000383779D02*
X0001839055Y0000383779D01*
X0001839055Y0000285354D02*
X0001783937Y0000285354D01*
X0001839055Y0000285354D02*
X0001839055Y0000383779D01*
X0001707559Y0000390472D02*
X0001707559Y0000280236D01*
X0001707559Y0000390472D02*
X0001758740Y0000390472D01*
X0001758740Y0000280236D02*
X0001707559Y0000280236D01*
X0001758740Y0000280236D02*
X0001758740Y0000390472D01*
X0001639055Y0000390866D02*
X0001639055Y0000280629D01*
X0001639055Y0000390866D02*
X0001690236Y0000390866D01*
X0001690236Y0000280629D02*
X0001639055Y0000280629D01*
X0001690236Y0000280629D02*
X0001690236Y0000390866D01*
X0001464645Y0000266456D02*
X0001614251Y0000266456D01*
X0001614251Y0000266456D02*
X0001614251Y0000408188D01*
X0001614251Y0000408188D02*
X0001464645Y0000408188D01*
X0001464645Y0000408188D02*
X0001464645Y0000266456D01*
X0001400866Y0000389685D02*
X0001400866Y0000279448D01*
X0001400866Y0000389685D02*
X0001452047Y0000389685D01*
X0001452047Y0000279448D02*
X0001400866Y0000279448D01*
X0001452047Y0000279448D02*
X0001452047Y0000389685D01*
X0001387480Y0000279842D02*
X0001387480Y0000390078D01*
X0001387480Y0000279842D02*
X0001336299Y0000279842D01*
X0001336299Y0000390078D02*
X0001387480Y0000390078D01*
X0001336299Y0000390078D02*
X0001336299Y0000279842D01*
X0001268188Y0000383779D02*
X0001268188Y0000285354D01*
X0001268188Y0000383779D02*
X0001323307Y0000383779D01*
X0001323307Y0000285354D02*
X0001268188Y0000285354D01*
X0001323307Y0000285354D02*
X0001323307Y0000383779D01*
X0001232755Y0000622755D02*
X0001342992Y0000622755D01*
X0001232755Y0000622755D02*
X0001232755Y0000673937D01*
X0001342992Y0000673937D02*
X0001342992Y0000622755D01*
X0001342992Y0000673937D02*
X0001232755Y0000673937D01*
X0000910708Y0000676299D02*
X0000800472Y0000676299D01*
X0000910708Y0000676299D02*
X0000910708Y0000625118D01*
X0000800472Y0000625118D02*
X0000800472Y0000676299D01*
X0000800472Y0000625118D02*
X0000910708Y0000625118D01*
X0002453622Y0000275118D02*
X0002453622Y0000385354D01*
X0002453622Y0000275118D02*
X0002402440Y0000275118D01*
X0002402440Y0000385354D02*
X0002453622Y0000385354D01*
X0002402440Y0000385354D02*
X0002402440Y0000275118D01*
X0001964251Y0000388110D02*
X0001964251Y0000277874D01*
X0001964251Y0000388110D02*
X0002015433Y0000388110D01*
X0002015433Y0000277874D02*
X0001964251Y0000277874D01*
X0002015433Y0000277874D02*
X0002015433Y0000388110D01*
X0001840629Y0000397165D02*
X0001950866Y0000397165D01*
X0001840629Y0000397165D02*
X0001840629Y0000448346D01*
X0001950866Y0000448346D02*
X0001950866Y0000397165D01*
X0001950866Y0000448346D02*
X0001840629Y0000448346D01*
X0000696929Y0000209763D02*
X0000795354Y0000209763D01*
X0000696929Y0000209763D02*
X0000696929Y0000264881D01*
X0000795354Y0000264881D02*
X0000795354Y0000209763D01*
X0000795354Y0000264881D02*
X0000696929Y0000264881D01*
G04 next file*
G04 Gerber Fmt 4.6, Leading zero omitted, Abs format (unit mm)*
G04 Created by KiCad (PCBNEW 4.0.7) date 11/15/17 20:03:37*
G01G01*
G04 APERTURE LIST*
G04 APERTURE END LIST*
D31*
G04 next file*
G04 Gerber Fmt 4.6, Leading zero omitted, Abs format (unit mm)*
G04 Created by KiCad (PCBNEW 4.0.7) date 11/15/17 20:03:37*
G01G01*
G04 APERTURE LIST*
G04 APERTURE END LIST*
D32*
G04 next file*
G04 Gerber Fmt 4.6, Leading zero omitted, Abs format (unit mm)*
G04 Created by KiCad (PCBNEW 4.0.7) date 11/15/17 20:03:37*
G01G01*
G04 APERTURE LIST*
G04 APERTURE END LIST*
D33*
D34*
X0000532620Y0000697609D02*
X0000535433Y0000694797D01*
X0000538245Y0000689173D01*
X0000538245Y0000675112D01*
X0000535433Y0000669488D01*
X0000532620Y0000666675D01*
X0000526996Y0000663863D01*
X0000521372Y0000663863D01*
X0000512935Y0000666675D01*
X0000479190Y0000700421D01*
X0000479190Y0000663863D01*
X0000532620Y0000641366D02*
X0000535433Y0000638554D01*
X0000538245Y0000632930D01*
X0000538245Y0000618869D01*
X0000535433Y0000613245D01*
X0000532620Y0000610433D01*
X0000526996Y0000607620D01*
X0000521372Y0000607620D01*
X0000512935Y0000610433D01*
X0000479190Y0000644178D01*
X0000479190Y0000607620D01*
X0000484814Y0000582311D02*
X0000482002Y0000579499D01*
X0000479190Y0000582311D01*
X0000482002Y0000585123D01*
X0000484814Y0000582311D01*
X0000479190Y0000582311D01*
X0000479190Y0000551377D02*
X0000479190Y0000540129D01*
X0000482002Y0000534505D01*
X0000484814Y0000531692D01*
X0000493250Y0000526068D01*
X0000504499Y0000523256D01*
X0000526996Y0000523256D01*
X0000532620Y0000526068D01*
X0000535433Y0000528880D01*
X0000538245Y0000534505D01*
X0000538245Y0000545753D01*
X0000535433Y0000551377D01*
X0000532620Y0000554190D01*
X0000526996Y0000557002D01*
X0000512935Y0000557002D01*
X0000507311Y0000554190D01*
X0000504499Y0000551377D01*
X0000501687Y0000545753D01*
X0000501687Y0000534505D01*
X0000504499Y0000528880D01*
X0000507311Y0000526068D01*
X0000512935Y0000523256D01*
X0000479190Y0000495135D02*
X0000479190Y0000483886D01*
X0000482002Y0000478262D01*
X0000484814Y0000475449D01*
X0000493250Y0000469825D01*
X0000504499Y0000467013D01*
X0000526996Y0000467013D01*
X0000532620Y0000469825D01*
X0000535433Y0000472637D01*
X0000538245Y0000478262D01*
X0000538245Y0000489510D01*
X0000535433Y0000495135D01*
X0000532620Y0000497947D01*
X0000526996Y0000500759D01*
X0000512935Y0000500759D01*
X0000507311Y0000497947D01*
X0000504499Y0000495135D01*
X0000501687Y0000489510D01*
X0000501687Y0000478262D01*
X0000504499Y0000472637D01*
X0000507311Y0000469825D01*
X0000512935Y0000467013D01*
X0000538245Y0000430455D02*
X0000538245Y0000424831D01*
X0000535433Y0000419207D01*
X0000532620Y0000416394D01*
X0000526996Y0000413582D01*
X0000515748Y0000410770D01*
X0000501687Y0000410770D01*
X0000490438Y0000413582D01*
X0000484814Y0000416394D01*
X0000482002Y0000419207D01*
X0000479190Y0000424831D01*
X0000479190Y0000430455D01*
X0000482002Y0000436079D01*
X0000484814Y0000438892D01*
X0000490438Y0000441704D01*
X0000501687Y0000444516D01*
X0000515748Y0000444516D01*
X0000526996Y0000441704D01*
X0000532620Y0000438892D01*
X0000535433Y0000436079D01*
X0000538245Y0000430455D01*
X0000479190Y0000340466D02*
X0000518560Y0000340466D01*
X0000512935Y0000340466D02*
X0000515748Y0000337654D01*
X0000518560Y0000332030D01*
X0000518560Y0000323593D01*
X0000515748Y0000317969D01*
X0000510123Y0000315157D01*
X0000479190Y0000315157D01*
X0000510123Y0000315157D02*
X0000515748Y0000312345D01*
X0000518560Y0000306721D01*
X0000518560Y0000298284D01*
X0000515748Y0000292660D01*
X0000510123Y0000289848D01*
X0000479190Y0000289848D01*
X0000479190Y0000261726D02*
X0000518560Y0000261726D01*
X0000512935Y0000261726D02*
X0000515748Y0000258914D01*
X0000518560Y0000253290D01*
X0000518560Y0000244853D01*
X0000515748Y0000239229D01*
X0000510123Y0000236417D01*
X0000479190Y0000236417D01*
X0000510123Y0000236417D02*
X0000515748Y0000233605D01*
X0000518560Y0000227980D01*
X0000518560Y0000219544D01*
X0000515748Y0000213920D01*
X0000510123Y0000211108D01*
X0000479190Y0000211108D01*
X0000559055Y0000905511D02*
X0000559055Y0000000393D01*
X0000630314Y0000905511D02*
X0000452755Y0000905511D01*
X0000630314Y0000000393D02*
X0000452755Y0000000393D01*
X0000559055Y0000000393D02*
X0000535967Y0000044744D01*
X0000559055Y0000000393D02*
X0000582142Y0000044744D01*
X0000559055Y0000905511D02*
X0000535967Y0000861161D01*
X0000559055Y0000905511D02*
X0000582142Y0000861161D01*
X0001439731Y0001058087D02*
X0001411610Y0001058092D01*
X0001408792Y0001029971D01*
X0001411605Y0001032783D01*
X0001417230Y0001035594D01*
X0001431290Y0001035591D01*
X0001436914Y0001032778D01*
X0001439726Y0001029965D01*
X0001442537Y0001024341D01*
X0001442534Y0001010280D01*
X0001439721Y0001004656D01*
X0001436908Y0001001845D01*
X0001431283Y0000999033D01*
X0001417223Y0000999036D01*
X0001411599Y0001001849D01*
X0001408787Y0001004662D01*
X0001498775Y0000999021D02*
X0001465029Y0000999027D01*
X0001481902Y0000999024D02*
X0001481913Y0001058079D01*
X0001476288Y0001049644D01*
X0001470662Y0001044020D01*
X0001465037Y0001041209D01*
X0001524085Y0001004640D02*
X0001526897Y0001001827D01*
X0001524084Y0000999016D01*
X0001521273Y0001001828D01*
X0001524085Y0001004640D01*
X0001524084Y0000999016D01*
X0001555018Y0000999010D02*
X0001566267Y0000999008D01*
X0001571891Y0001001819D01*
X0001574704Y0001004630D01*
X0001580330Y0001013066D01*
X0001583144Y0001024314D01*
X0001583149Y0001046811D01*
X0001580338Y0001052436D01*
X0001577526Y0001055248D01*
X0001571902Y0001058062D01*
X0001560654Y0001058064D01*
X0001555029Y0001055253D01*
X0001552216Y0001052441D01*
X0001549403Y0001046817D01*
X0001549400Y0001032757D01*
X0001552211Y0001027132D01*
X0001555023Y0001024319D01*
X0001560647Y0001021506D01*
X0001571895Y0001021504D01*
X0001577520Y0001024315D01*
X0001580333Y0001027126D01*
X0001583146Y0001032750D01*
X0001611261Y0000998999D02*
X0001622510Y0000998997D01*
X0001628134Y0001001808D01*
X0001630947Y0001004619D01*
X0001636573Y0001013055D01*
X0001639387Y0001024303D01*
X0001639392Y0001046800D01*
X0001636581Y0001052425D01*
X0001633769Y0001055237D01*
X0001628145Y0001058051D01*
X0001616897Y0001058053D01*
X0001611272Y0001055242D01*
X0001608459Y0001052430D01*
X0001605646Y0001046806D01*
X0001605643Y0001032746D01*
X0001608454Y0001027121D01*
X0001611266Y0001024308D01*
X0001616890Y0001021495D01*
X0001628138Y0001021493D01*
X0001633763Y0001024304D01*
X0001636576Y0001027115D01*
X0001639389Y0001032739D01*
X0001675952Y0001058042D02*
X0001681576Y0001058040D01*
X0001687200Y0001055227D01*
X0001690011Y0001052415D01*
X0001692822Y0001046790D01*
X0001695632Y0001035541D01*
X0001695630Y0001021480D01*
X0001692815Y0001010232D01*
X0001690002Y0001004608D01*
X0001687189Y0001001796D01*
X0001681565Y0000998985D01*
X0001675940Y0000998986D01*
X0001670317Y0001001800D01*
X0001667505Y0001004612D01*
X0001664694Y0001010237D01*
X0001661884Y0001021486D01*
X0001661887Y0001035547D01*
X0001664701Y0001046795D01*
X0001667514Y0001052419D01*
X0001670327Y0001055230D01*
X0001675952Y0001058042D01*
X0001765929Y0000998969D02*
X0001765937Y0001038339D01*
X0001765936Y0001032715D02*
X0001768748Y0001035527D01*
X0001774373Y0001038338D01*
X0001782809Y0001038336D01*
X0001788433Y0001035523D01*
X0001791244Y0001029898D01*
X0001791238Y0000998964D01*
X0001791244Y0001029898D02*
X0001794058Y0001035522D01*
X0001799682Y0001038333D01*
X0001808119Y0001038331D01*
X0001813743Y0001035518D01*
X0001816554Y0001029893D01*
X0001816548Y0000998959D01*
X0001844669Y0000998954D02*
X0001844677Y0001038324D01*
X0001844676Y0001032700D02*
X0001847488Y0001035511D01*
X0001853113Y0001038322D01*
X0001861550Y0001038321D01*
X0001867173Y0001035508D01*
X0001869985Y0001029883D01*
X0001869979Y0000998949D01*
X0001869985Y0001029883D02*
X0001872798Y0001035506D01*
X0001878423Y0001038318D01*
X0001886859Y0001038316D01*
X0001892483Y0001035503D01*
X0001895294Y0001029878D01*
X0001895288Y0000998944D01*
X0000630013Y0000972753D02*
X0002676863Y0000972360D01*
X0000629999Y0000903070D02*
X0000630033Y0001079053D01*
X0002676850Y0000902677D02*
X0002676884Y0001078659D01*
X0002676863Y0000972360D02*
X0002632508Y0000949281D01*
X0002676863Y0000972360D02*
X0002632517Y0000995456D01*
X0000630013Y0000972753D02*
X0000674359Y0000949657D01*
X0000630013Y0000972753D02*
X0000674368Y0000995832D01*
G04 next file*
G04 Gerber Fmt 4.6, Leading zero omitted, Abs format (unit mm)*
G04 Created by KiCad (PCBNEW 4.0.7) date 11/15/17 20:03:37*
G01G01*
G04 APERTURE LIST*
G04 APERTURE END LIST*
D35*
G04 next file*
G04 Gerber Fmt 4.6, Leading zero omitted, Abs format (unit mm)*
G04 Created by KiCad (PCBNEW 4.0.7) date 11/15/17 20:03:37*
G01G01*
G04 APERTURE LIST*
G04 APERTURE END LIST*
D36*
D37*
X0001256299Y0000461417D02*
X0000915747Y0000461417D01*
X0000915747Y0000461417D02*
X0000915747Y0000219291D01*
X0000915747Y0000219291D02*
X0001256299Y0000219291D01*
X0001256299Y0000219291D02*
X0001256299Y0000461417D01*
X0000618188Y0000620000D02*
X0000618188Y0000273543D01*
X0000858346Y0000273543D02*
X0000618188Y0000273543D01*
X0000858346Y0000620000D02*
X0000858346Y0000273543D01*
X0000618188Y0000620000D02*
X0000858346Y0000620000D01*
X0000920157Y0000699527D02*
X0001254803Y0000699527D01*
X0001254803Y0000699527D02*
X0001254803Y0000463307D01*
X0001254803Y0000463307D02*
X0000920157Y0000463307D01*
X0000920157Y0000463307D02*
X0000920157Y0000699527D01*
X0002439842Y0000721181D02*
X0002439842Y0000179842D01*
X0002439842Y0000179842D02*
X0002926062Y0000179842D01*
X0002926062Y0000179842D02*
X0002926062Y0000721181D01*
X0002926062Y0000721181D02*
X0002439842Y0000721181D01*
X0002312677Y0000650708D02*
X0002379606Y0000650708D01*
X0002379606Y0000650708D02*
X0002379606Y0000497165D01*
X0002379606Y0000497165D02*
X0002312677Y0000497165D01*
X0002312677Y0000497165D02*
X0002312677Y0000650708D01*
X0002312677Y0000420787D02*
X0002379606Y0000420787D01*
X0002379606Y0000420787D02*
X0002379606Y0000267244D01*
X0002379606Y0000267244D02*
X0002312677Y0000267244D01*
X0002312677Y0000267244D02*
X0002312677Y0000420787D01*
X0001785118Y0000203858D02*
X0002005590Y0000203858D01*
X0002005590Y0000203858D02*
X0002005590Y0000680236D01*
X0002005590Y0000680236D02*
X0001785118Y0000680236D01*
X0001785118Y0000680236D02*
X0001785118Y0000203858D01*
X0002252834Y0000600708D02*
X0002032362Y0000600708D01*
X0002032362Y0000600708D02*
X0002032362Y0000262125D01*
X0002032362Y0000262125D02*
X0002252834Y0000262125D01*
X0002252834Y0000262125D02*
X0002252834Y0000600708D01*
G04 next file*
G04 Gerber Fmt 4.6, Leading zero omitted, Abs format (unit mm)*
G04 Created by KiCad (PCBNEW 4.0.7) date 11/15/17 20:03:37*
G01G01*
G04 APERTURE LIST*
G04 APERTURE END LIST*
D38*
G04 next file*
G04 Gerber Fmt 4.6, Leading zero omitted, Abs format (unit mm)*
G04 Created by KiCad (PCBNEW 4.0.7) date 11/15/17 17:48:19*
G01G01*
G04 APERTURE LIST*
G04 APERTURE END LIST*
D39*
D40*
X0003215157Y0000338976D02*
X0003215157Y0000240551D01*
X0003215157Y0000338976D02*
X0003270275Y0000338976D01*
X0003270275Y0000240551D02*
X0003215157Y0000240551D01*
X0003270275Y0000240551D02*
X0003270275Y0000338976D01*
X0003602362Y0000247637D02*
X0003602362Y0000346062D01*
X0003602362Y0000247637D02*
X0003547244Y0000247637D01*
X0003547244Y0000346062D02*
X0003602362Y0000346062D01*
X0003547244Y0000346062D02*
X0003547244Y0000247637D01*
X0003437795Y0000341732D02*
X0003437795Y0000243307D01*
X0003437795Y0000341732D02*
X0003492913Y0000341732D01*
X0003492913Y0000243307D02*
X0003437795Y0000243307D01*
X0003492913Y0000243307D02*
X0003492913Y0000341732D01*
X0003372834Y0000624015D02*
X0003372834Y0000722440D01*
X0003372834Y0000624015D02*
X0003317716Y0000624015D01*
X0003317716Y0000722440D02*
X0003372834Y0000722440D01*
X0003317716Y0000722440D02*
X0003317716Y0000624015D01*
X0003335496Y0000372440D02*
X0003335496Y0000470866D01*
X0003335496Y0000372440D02*
X0003280377Y0000372440D01*
X0003280377Y0000470866D02*
X0003335496Y0000470866D01*
X0003280377Y0000470866D02*
X0003280377Y0000372440D01*
X0003345275Y0000231496D02*
X0003345275Y0000121259D01*
X0003345275Y0000231496D02*
X0003396456Y0000231496D01*
X0003396456Y0000121259D02*
X0003345275Y0000121259D01*
X0003396456Y0000121259D02*
X0003396456Y0000231496D01*
X0003622527Y0000366535D02*
X0003622527Y0000476771D01*
X0003622527Y0000366535D02*
X0003571346Y0000366535D01*
X0003571346Y0000476771D02*
X0003622527Y0000476771D01*
X0003571346Y0000476771D02*
X0003571346Y0000366535D01*
X0003505905Y0000618110D02*
X0003505905Y0000728346D01*
X0003505905Y0000618110D02*
X0003454724Y0000618110D01*
X0003454724Y0000728346D02*
X0003505905Y0000728346D01*
X0003454724Y0000728346D02*
X0003454724Y0000618110D01*
X0003261527Y0000364196D02*
X0003261527Y0000474433D01*
X0003261527Y0000364196D02*
X0003210346Y0000364196D01*
X0003210346Y0000474433D02*
X0003261527Y0000474433D01*
X0003210346Y0000474433D02*
X0003210346Y0000364196D01*
X0003050000Y0000118110D02*
X0003050000Y0000216535D01*
X0003050000Y0000118110D02*
X0002994881Y0000118110D01*
X0002994881Y0000216535D02*
X0003050000Y0000216535D01*
X0002994881Y0000216535D02*
X0002994881Y0000118110D01*
X0003660665Y0000210781D02*
X0003660665Y0000112356D01*
X0003660665Y0000210781D02*
X0003715783Y0000210781D01*
X0003715783Y0000112356D02*
X0003660665Y0000112356D01*
X0003715783Y0000112356D02*
X0003715783Y0000210781D01*
X0003630850Y0000111141D02*
X0003630850Y0000209566D01*
X0003630850Y0000111141D02*
X0003575732Y0000111141D01*
X0003575732Y0000209566D02*
X0003630850Y0000209566D01*
X0003575732Y0000209566D02*
X0003575732Y0000111141D01*
X0002975196Y0000117322D02*
X0002825590Y0000117322D01*
X0002975196Y0000259055D02*
X0002975196Y0000117322D01*
X0002825590Y0000259055D02*
X0002975196Y0000259055D01*
X0002825590Y0000117322D02*
X0002825590Y0000259055D01*
X0003385433Y0000722440D02*
X0003385433Y0000624015D01*
X0003385433Y0000722440D02*
X0003440551Y0000722440D01*
X0003440551Y0000624015D02*
X0003385433Y0000624015D01*
X0003440551Y0000624015D02*
X0003440551Y0000722440D01*
X0003348377Y0000470866D02*
X0003348377Y0000372440D01*
X0003348377Y0000470866D02*
X0003403496Y0000470866D01*
X0003403496Y0000372440D02*
X0003348377Y0000372440D01*
X0003403496Y0000372440D02*
X0003403496Y0000470866D01*
X0003468496Y0000372440D02*
X0003468496Y0000470866D01*
X0003468496Y0000372440D02*
X0003413377Y0000372440D01*
X0003413377Y0000470866D02*
X0003468496Y0000470866D01*
X0003413377Y0000470866D02*
X0003413377Y0000372440D01*
X0003505118Y0000470866D02*
X0003505118Y0000372440D01*
X0003505118Y0000470866D02*
X0003560236Y0000470866D01*
X0003560236Y0000372440D02*
X0003505118Y0000372440D01*
X0003560236Y0000372440D02*
X0003560236Y0000470866D01*
X0002989614Y0000814433D02*
X0002989614Y0000716007D01*
X0002989614Y0000814433D02*
X0003044732Y0000814433D01*
X0003044732Y0000716007D02*
X0002989614Y0000716007D01*
X0003044732Y0000716007D02*
X0003044732Y0000814433D01*
X0003246850Y0000725196D02*
X0003246850Y0000626771D01*
X0003246850Y0000725196D02*
X0003301968Y0000725196D01*
X0003301968Y0000626771D02*
X0003246850Y0000626771D01*
X0003301968Y0000626771D02*
X0003301968Y0000725196D01*
X0002912732Y0000716007D02*
X0002912732Y0000814433D01*
X0002912732Y0000716007D02*
X0002857614Y0000716007D01*
X0002857614Y0000814433D02*
X0002912732Y0000814433D01*
X0002857614Y0000814433D02*
X0002857614Y0000716007D01*
X0002923614Y0000814433D02*
X0002923614Y0000716007D01*
X0002923614Y0000814433D02*
X0002978732Y0000814433D01*
X0002978732Y0000716007D02*
X0002923614Y0000716007D01*
X0002978732Y0000716007D02*
X0002978732Y0000814433D01*
X0002740377Y0000537055D02*
X0002740377Y0000438629D01*
X0002740377Y0000537055D02*
X0002795496Y0000537055D01*
X0002795496Y0000438629D02*
X0002740377Y0000438629D01*
X0002795496Y0000438629D02*
X0002795496Y0000537055D01*
X0002698448Y0000149637D02*
X0002796874Y0000149637D01*
X0002698448Y0000149637D02*
X0002698448Y0000204755D01*
X0002796874Y0000204755D02*
X0002796874Y0000149637D01*
X0002796874Y0000204755D02*
X0002698448Y0000204755D01*
X0002795929Y0000268755D02*
X0002697503Y0000268755D01*
X0002795929Y0000268755D02*
X0002795929Y0000213637D01*
X0002697503Y0000213637D02*
X0002697503Y0000268755D01*
X0002697503Y0000213637D02*
X0002795929Y0000213637D01*
X0002698448Y0000083637D02*
X0002796874Y0000083637D01*
X0002698448Y0000083637D02*
X0002698448Y0000138755D01*
X0002796874Y0000138755D02*
X0002796874Y0000083637D01*
X0002796874Y0000138755D02*
X0002698448Y0000138755D01*
X0003215157Y0000227937D02*
X0003215157Y0000129511D01*
X0003215157Y0000227937D02*
X0003270275Y0000227937D01*
X0003270275Y0000129511D02*
X0003215157Y0000129511D01*
X0003270275Y0000129511D02*
X0003270275Y0000227937D01*
X0003278157Y0000227937D02*
X0003278157Y0000129511D01*
X0003278157Y0000227937D02*
X0003333275Y0000227937D01*
X0003333275Y0000129511D02*
X0003278157Y0000129511D01*
X0003333275Y0000129511D02*
X0003333275Y0000227937D01*
X0003153157Y0000226936D02*
X0003153157Y0000128511D01*
X0003153157Y0000226936D02*
X0003208275Y0000226936D01*
X0003208275Y0000128511D02*
X0003153157Y0000128511D01*
X0003208275Y0000128511D02*
X0003208275Y0000226936D01*
X0002842519Y0000826771D02*
X0002708661Y0000826771D01*
X0002708661Y0000826771D02*
X0002708661Y0000688976D01*
X0002708661Y0000688976D02*
X0002842519Y0000688976D01*
X0002842519Y0000688976D02*
X0002842519Y0000826771D01*
X0003194488Y0000363779D02*
X0003194488Y0000474015D01*
X0003194488Y0000363779D02*
X0003143307Y0000363779D01*
X0003143307Y0000474015D02*
X0003194488Y0000474015D01*
X0003143307Y0000474015D02*
X0003143307Y0000363779D01*
X0003052858Y0000701275D02*
X0002942622Y0000701275D01*
X0003052858Y0000701275D02*
X0003052858Y0000650094D01*
X0002942622Y0000650094D02*
X0002942622Y0000701275D01*
X0002942622Y0000650094D02*
X0003052858Y0000650094D01*
X0003088976Y0000474409D02*
X0003088976Y0000364173D01*
X0003088976Y0000474409D02*
X0003140157Y0000474409D01*
X0003140157Y0000364173D02*
X0003088976Y0000364173D01*
X0003140157Y0000364173D02*
X0003140157Y0000474409D01*
X0003027559Y0000363779D02*
X0003027559Y0000474015D01*
X0003027559Y0000363779D02*
X0002976377Y0000363779D01*
X0002976377Y0000474015D02*
X0003027559Y0000474015D01*
X0002976377Y0000474015D02*
X0002976377Y0000363779D01*
X0003140307Y0000123606D02*
X0003140307Y0000233842D01*
X0003140307Y0000123606D02*
X0003089125Y0000123606D01*
X0003089125Y0000233842D02*
X0003140307Y0000233842D01*
X0003089125Y0000233842D02*
X0003089125Y0000123606D01*
X0003409055Y0000231496D02*
X0003409055Y0000121259D01*
X0003409055Y0000231496D02*
X0003460236Y0000231496D01*
X0003460236Y0000121259D02*
X0003409055Y0000121259D01*
X0003460236Y0000121259D02*
X0003460236Y0000231496D01*
X0003052858Y0000638275D02*
X0002942622Y0000638275D01*
X0003052858Y0000638275D02*
X0003052858Y0000587094D01*
X0002942622Y0000587094D02*
X0002942622Y0000638275D01*
X0002942622Y0000587094D02*
X0003052858Y0000587094D01*
X0003074015Y0000577559D02*
X0003223622Y0000577559D01*
X0003223622Y0000577559D02*
X0003223622Y0000719291D01*
X0003223622Y0000719291D02*
X0003074015Y0000719291D01*
X0003074015Y0000719291D02*
X0003074015Y0000577559D01*
G04 next file*
G04 Gerber Fmt 4.6, Leading zero omitted, Abs format (unit mm)*
G04 Created by KiCad (PCBNEW 4.0.7) date 11/15/17 17:48:19*
G01G01*
G04 APERTURE LIST*
G04 APERTURE END LIST*
D41*
G04 next file*
G04 Gerber Fmt 4.6, Leading zero omitted, Abs format (unit mm)*
G04 Created by KiCad (PCBNEW 4.0.7) date 11/15/17 17:48:19*
G01G01*
G04 APERTURE LIST*
G04 APERTURE END LIST*
D42*
D43*
X0002721361Y0000346737D02*
X0002681991Y0000346737D01*
X0002681991Y0000358736D01*
X0002683866Y0000361736D01*
X0002685740Y0000363235D01*
X0002689490Y0000364735D01*
X0002695114Y0000364735D01*
X0002698864Y0000363235D01*
X0002700739Y0000361736D01*
X0002702613Y0000358736D01*
X0002702613Y0000346737D01*
X0002717611Y0000396231D02*
X0002719486Y0000394731D01*
X0002721361Y0000390232D01*
X0002721361Y0000387232D01*
X0002719486Y0000382733D01*
X0002715737Y0000379733D01*
X0002711987Y0000378233D01*
X0002704488Y0000376734D01*
X0002698864Y0000376734D01*
X0002691365Y0000378233D01*
X0002687615Y0000379733D01*
X0002683866Y0000382733D01*
X0002681991Y0000387232D01*
X0002681991Y0000390232D01*
X0002683866Y0000394731D01*
X0002685740Y0000396231D01*
X0002700739Y0000420228D02*
X0002702613Y0000424728D01*
X0002704488Y0000426227D01*
X0002708238Y0000427727D01*
X0002713862Y0000427727D01*
X0002717611Y0000426227D01*
X0002719486Y0000424728D01*
X0002721361Y0000421728D01*
X0002721361Y0000409730D01*
X0002681991Y0000409730D01*
X0002681991Y0000420228D01*
X0002683866Y0000423228D01*
X0002685740Y0000424728D01*
X0002689490Y0000426227D01*
X0002693239Y0000426227D01*
X0002696989Y0000424728D01*
X0002698864Y0000423228D01*
X0002700739Y0000420228D01*
X0002700739Y0000409730D01*
X0002700739Y0000465223D02*
X0002700739Y0000475721D01*
X0002721361Y0000480221D02*
X0002721361Y0000465223D01*
X0002681991Y0000465223D01*
X0002681991Y0000480221D01*
X0002721361Y0000507217D02*
X0002681991Y0000507217D01*
X0002719486Y0000507217D02*
X0002721361Y0000504218D01*
X0002721361Y0000498218D01*
X0002719486Y0000495219D01*
X0002717611Y0000493719D01*
X0002713862Y0000492219D01*
X0002702613Y0000492219D01*
X0002698864Y0000493719D01*
X0002696989Y0000495219D01*
X0002695114Y0000498218D01*
X0002695114Y0000504218D01*
X0002696989Y0000507217D01*
X0002695114Y0000535714D02*
X0002726985Y0000535714D01*
X0002730735Y0000534214D01*
X0002732610Y0000532714D01*
X0002734484Y0000529715D01*
X0002734484Y0000525215D01*
X0002732610Y0000522215D01*
X0002719486Y0000535714D02*
X0002721361Y0000532714D01*
X0002721361Y0000526715D01*
X0002719486Y0000523715D01*
X0002717611Y0000522215D01*
X0002713862Y0000520716D01*
X0002702613Y0000520716D01*
X0002698864Y0000522215D01*
X0002696989Y0000523715D01*
X0002695114Y0000526715D01*
X0002695114Y0000532714D01*
X0002696989Y0000535714D01*
X0002719486Y0000562710D02*
X0002721361Y0000559711D01*
X0002721361Y0000553712D01*
X0002719486Y0000550712D01*
X0002715737Y0000549212D01*
X0002700739Y0000549212D01*
X0002696989Y0000550712D01*
X0002695114Y0000553712D01*
X0002695114Y0000559711D01*
X0002696989Y0000562710D01*
X0002700739Y0000564210D01*
X0002704488Y0000564210D01*
X0002708238Y0000549212D01*
G04 next file*
G04 Gerber Fmt 4.6, Leading zero omitted, Abs format (unit mm)*
G04 Created by KiCad (PCBNEW 4.0.7) date 11/15/17 17:48:19*
G01G01*
G04 APERTURE LIST*
G04 APERTURE END LIST*
D44*
D45*
X0002633014Y0000697412D02*
X0002635826Y0000694600D01*
X0002638638Y0000688976D01*
X0002638638Y0000674915D01*
X0002635826Y0000669291D01*
X0002633014Y0000666479D01*
X0002627390Y0000663667D01*
X0002621765Y0000663667D01*
X0002613329Y0000666479D01*
X0002579583Y0000700224D01*
X0002579583Y0000663667D01*
X0002638638Y0000643981D02*
X0002638638Y0000607424D01*
X0002616141Y0000627109D01*
X0002616141Y0000618672D01*
X0002613329Y0000613048D01*
X0002610517Y0000610236D01*
X0002604893Y0000607424D01*
X0002590832Y0000607424D01*
X0002585208Y0000610236D01*
X0002582395Y0000613048D01*
X0002579583Y0000618672D01*
X0002579583Y0000635545D01*
X0002582395Y0000641169D01*
X0002585208Y0000643981D01*
X0002585208Y0000582114D02*
X0002582395Y0000579302D01*
X0002579583Y0000582114D01*
X0002582395Y0000584926D01*
X0002585208Y0000582114D01*
X0002579583Y0000582114D01*
X0002638638Y0000542744D02*
X0002638638Y0000537120D01*
X0002635826Y0000531496D01*
X0002633014Y0000528683D01*
X0002627390Y0000525871D01*
X0002616141Y0000523059D01*
X0002602080Y0000523059D01*
X0002590832Y0000525871D01*
X0002585208Y0000528683D01*
X0002582395Y0000531496D01*
X0002579583Y0000537120D01*
X0002579583Y0000542744D01*
X0002582395Y0000548368D01*
X0002585208Y0000551181D01*
X0002590832Y0000553993D01*
X0002602080Y0000556805D01*
X0002616141Y0000556805D01*
X0002627390Y0000553993D01*
X0002633014Y0000551181D01*
X0002635826Y0000548368D01*
X0002638638Y0000542744D01*
X0002638638Y0000486501D02*
X0002638638Y0000480877D01*
X0002635826Y0000475253D01*
X0002633014Y0000472440D01*
X0002627390Y0000469628D01*
X0002616141Y0000466816D01*
X0002602080Y0000466816D01*
X0002590832Y0000469628D01*
X0002585208Y0000472440D01*
X0002582395Y0000475253D01*
X0002579583Y0000480877D01*
X0002579583Y0000486501D01*
X0002582395Y0000492125D01*
X0002585208Y0000494938D01*
X0002590832Y0000497750D01*
X0002602080Y0000500562D01*
X0002616141Y0000500562D01*
X0002627390Y0000497750D01*
X0002633014Y0000494938D01*
X0002635826Y0000492125D01*
X0002638638Y0000486501D01*
X0002638638Y0000430258D02*
X0002638638Y0000424634D01*
X0002635826Y0000419010D01*
X0002633014Y0000416197D01*
X0002627390Y0000413385D01*
X0002616141Y0000410573D01*
X0002602080Y0000410573D01*
X0002590832Y0000413385D01*
X0002585208Y0000416197D01*
X0002582395Y0000419010D01*
X0002579583Y0000424634D01*
X0002579583Y0000430258D01*
X0002582395Y0000435883D01*
X0002585208Y0000438695D01*
X0002590832Y0000441507D01*
X0002602080Y0000444319D01*
X0002616141Y0000444319D01*
X0002627390Y0000441507D01*
X0002633014Y0000438695D01*
X0002635826Y0000435883D01*
X0002638638Y0000430258D01*
X0002579583Y0000340270D02*
X0002618953Y0000340270D01*
X0002613329Y0000340270D02*
X0002616141Y0000337457D01*
X0002618953Y0000331833D01*
X0002618953Y0000323397D01*
X0002616141Y0000317772D01*
X0002610517Y0000314960D01*
X0002579583Y0000314960D01*
X0002610517Y0000314960D02*
X0002616141Y0000312148D01*
X0002618953Y0000306524D01*
X0002618953Y0000298087D01*
X0002616141Y0000292463D01*
X0002610517Y0000289651D01*
X0002579583Y0000289651D01*
X0002579583Y0000261529D02*
X0002618953Y0000261529D01*
X0002613329Y0000261529D02*
X0002616141Y0000258717D01*
X0002618953Y0000253093D01*
X0002618953Y0000244656D01*
X0002616141Y0000239032D01*
X0002610517Y0000236220D01*
X0002579583Y0000236220D01*
X0002610517Y0000236220D02*
X0002616141Y0000233408D01*
X0002618953Y0000227784D01*
X0002618953Y0000219347D01*
X0002616141Y0000213723D01*
X0002610517Y0000210911D01*
X0002579583Y0000210911D01*
X0002659448Y0000905511D02*
X0002659448Y0000000000D01*
X0002677165Y0000905511D02*
X0002553149Y0000905511D01*
X0002677165Y0000000000D02*
X0002553149Y0000000000D01*
X0002659448Y0000000000D02*
X0002636361Y0000044350D01*
X0002659448Y0000000000D02*
X0002682536Y0000044350D01*
X0002659448Y0000905511D02*
X0002636361Y0000861161D01*
X0002659448Y0000905511D02*
X0002682536Y0000861161D01*
X0003055680Y0001053993D02*
X0003092238Y0001053993D01*
X0003072553Y0001031496D01*
X0003080989Y0001031496D01*
X0003086614Y0001028683D01*
X0003089426Y0001025871D01*
X0003092238Y0001020247D01*
X0003092238Y0001006186D01*
X0003089426Y0001000562D01*
X0003086614Y0000997750D01*
X0003080989Y0000994938D01*
X0003064117Y0000994938D01*
X0003058492Y0000997750D01*
X0003055680Y0001000562D01*
X0003148481Y0000994938D02*
X0003114735Y0000994938D01*
X0003131608Y0000994938D02*
X0003131608Y0001053993D01*
X0003125984Y0001045556D01*
X0003120359Y0001039932D01*
X0003114735Y0001037120D01*
X0003173790Y0001000562D02*
X0003176602Y0000997750D01*
X0003173790Y0000994938D01*
X0003170978Y0000997750D01*
X0003173790Y0001000562D01*
X0003173790Y0000994938D01*
X0003210348Y0001028683D02*
X0003204724Y0001031496D01*
X0003201912Y0001034308D01*
X0003199100Y0001039932D01*
X0003199100Y0001042744D01*
X0003201912Y0001048368D01*
X0003204724Y0001051181D01*
X0003210348Y0001053993D01*
X0003221597Y0001053993D01*
X0003227221Y0001051181D01*
X0003230033Y0001048368D01*
X0003232845Y0001042744D01*
X0003232845Y0001039932D01*
X0003230033Y0001034308D01*
X0003227221Y0001031496D01*
X0003221597Y0001028683D01*
X0003210348Y0001028683D01*
X0003204724Y0001025871D01*
X0003201912Y0001023059D01*
X0003199100Y0001017435D01*
X0003199100Y0001006186D01*
X0003201912Y0001000562D01*
X0003204724Y0000997750D01*
X0003210348Y0000994938D01*
X0003221597Y0000994938D01*
X0003227221Y0000997750D01*
X0003230033Y0001000562D01*
X0003232845Y0001006186D01*
X0003232845Y0001017435D01*
X0003230033Y0001023059D01*
X0003227221Y0001025871D01*
X0003221597Y0001028683D01*
X0003269403Y0001053993D02*
X0003275028Y0001053993D01*
X0003280652Y0001051181D01*
X0003283464Y0001048368D01*
X0003286276Y0001042744D01*
X0003289088Y0001031496D01*
X0003289088Y0001017435D01*
X0003286276Y0001006186D01*
X0003283464Y0001000562D01*
X0003280652Y0000997750D01*
X0003275028Y0000994938D01*
X0003269403Y0000994938D01*
X0003263779Y0000997750D01*
X0003260967Y0001000562D01*
X0003258155Y0001006186D01*
X0003255343Y0001017435D01*
X0003255343Y0001031496D01*
X0003258155Y0001042744D01*
X0003260967Y0001048368D01*
X0003263779Y0001051181D01*
X0003269403Y0001053993D01*
X0003325646Y0001053993D02*
X0003331271Y0001053993D01*
X0003336895Y0001051181D01*
X0003339707Y0001048368D01*
X0003342519Y0001042744D01*
X0003345331Y0001031496D01*
X0003345331Y0001017435D01*
X0003342519Y0001006186D01*
X0003339707Y0001000562D01*
X0003336895Y0000997750D01*
X0003331271Y0000994938D01*
X0003325646Y0000994938D01*
X0003320022Y0000997750D01*
X0003317210Y0001000562D01*
X0003314398Y0001006186D01*
X0003311586Y0001017435D01*
X0003311586Y0001031496D01*
X0003314398Y0001042744D01*
X0003317210Y0001048368D01*
X0003320022Y0001051181D01*
X0003325646Y0001053993D01*
X0003415635Y0000994938D02*
X0003415635Y0001034308D01*
X0003415635Y0001028683D02*
X0003418447Y0001031496D01*
X0003424071Y0001034308D01*
X0003432508Y0001034308D01*
X0003438132Y0001031496D01*
X0003440944Y0001025871D01*
X0003440944Y0000994938D01*
X0003440944Y0001025871D02*
X0003443757Y0001031496D01*
X0003449381Y0001034308D01*
X0003457817Y0001034308D01*
X0003463442Y0001031496D01*
X0003466254Y0001025871D01*
X0003466254Y0000994938D01*
X0003494375Y0000994938D02*
X0003494375Y0001034308D01*
X0003494375Y0001028683D02*
X0003497187Y0001031496D01*
X0003502812Y0001034308D01*
X0003511248Y0001034308D01*
X0003516872Y0001031496D01*
X0003519685Y0001025871D01*
X0003519685Y0000994938D01*
X0003519685Y0001025871D02*
X0003522497Y0001031496D01*
X0003528121Y0001034308D01*
X0003536557Y0001034308D01*
X0003542182Y0001031496D01*
X0003544994Y0001025871D01*
X0003544994Y0000994938D01*
X0002677165Y0000968503D02*
X0003929133Y0000968503D01*
X0002677165Y0000905511D02*
X0002677165Y0001074803D01*
X0003929133Y0000905511D02*
X0003929133Y0001074803D01*
X0003929133Y0000968503D02*
X0003884783Y0000945416D01*
X0003929133Y0000968503D02*
X0003884783Y0000991591D01*
X0002677165Y0000968503D02*
X0002721515Y0000945416D01*
X0002677165Y0000968503D02*
X0002721515Y0000991591D01*
G04 next file*
G04 Gerber Fmt 4.6, Leading zero omitted, Abs format (unit mm)*
G04 Created by KiCad (PCBNEW 4.0.7) date 11/15/17 17:48:19*
G01G01*
G04 APERTURE LIST*
G04 APERTURE END LIST*
D46*
G04 next file*
G04 Gerber Fmt 4.6, Leading zero omitted, Abs format (unit mm)*
G04 Created by KiCad (PCBNEW 4.0.7) date 11/15/17 17:48:19*
G01G01*
G04 APERTURE LIST*
G04 APERTURE END LIST*
D47*
D48*
X0002666149Y0000627952D02*
X0002666149Y0000281496D01*
X0002906307Y0000281496D02*
X0002666149Y0000281496D01*
X0002906307Y0000627952D02*
X0002906307Y0000281496D01*
X0002666149Y0000627952D02*
X0002906307Y0000627952D01*
X0003725803Y0000857181D02*
X0003084070Y0000857181D01*
X0003084070Y0000857181D02*
X0003084070Y0000715448D01*
X0003084070Y0000715448D02*
X0003725803Y0000715448D01*
X0003725803Y0000715448D02*
X0003725803Y0000857181D01*
X0002952700Y0000182582D02*
X0003173173Y0000182582D01*
X0003173173Y0000182582D02*
X0003173173Y0000658960D01*
X0003173173Y0000658960D02*
X0002952700Y0000658960D01*
X0002952700Y0000658960D02*
X0002952700Y0000182582D01*
X0003060708Y0000154779D02*
X0003060708Y0000087850D01*
X0003060708Y0000087850D02*
X0002907165Y0000087850D01*
X0002907165Y0000087850D02*
X0002907165Y0000154779D01*
X0002907165Y0000154779D02*
X0003060708Y0000154779D01*
X0003721689Y0000084403D02*
X0003654760Y0000084403D01*
X0003654760Y0000084403D02*
X0003654760Y0000237946D01*
X0003654760Y0000237946D02*
X0003721689Y0000237946D01*
X0003721689Y0000237946D02*
X0003721689Y0000084403D01*
X0003636755Y0000083582D02*
X0003569826Y0000083582D01*
X0003569826Y0000083582D02*
X0003569826Y0000237125D01*
X0003569826Y0000237125D02*
X0003636755Y0000237125D01*
X0003636755Y0000237125D02*
X0003636755Y0000083582D01*
G04 next file*
G04 Gerber Fmt 4.6, Leading zero omitted, Abs format (unit mm)*
G04 Created by KiCad (PCBNEW 4.0.7) date 11/15/17 17:48:19*
G01G01*
G04 APERTURE LIST*
G04 APERTURE END LIST*
D49*
G04 next file*
G04 Gerber Fmt 4.6, Leading zero omitted, Abs format (unit mm)*
G04 Created by KiCad (PCBNEW 4.0.7) date 11/15/17 17:31:17*
G01G01*
G04 APERTURE LIST*
G04 APERTURE END LIST*
D50*
D51*
X0000635826Y0001622047D02*
X-0000005905Y0001622047D01*
X-0000005905Y0001622047D02*
X-0000005905Y0001763779D01*
X-0000005905Y0001763779D02*
X0000635826Y0001763779D01*
X0000635826Y0001763779D02*
X0000635826Y0001622047D01*
G04 next file*
G04 Gerber Fmt 4.6, Leading zero omitted, Abs format (unit mm)*
G04 Created by KiCad (PCBNEW 4.0.7) date 11/15/17 17:31:17*
G01G01*
G04 APERTURE LIST*
G04 APERTURE END LIST*
D52*
G04 next file*
G04 Gerber Fmt 4.6, Leading zero omitted, Abs format (unit mm)*
G04 Created by KiCad (PCBNEW 4.0.7) date 11/15/17 17:31:17*
G01G01*
G04 APERTURE LIST*
G04 APERTURE END LIST*
D53*
G04 next file*
G04 Gerber Fmt 4.6, Leading zero omitted, Abs format (unit mm)*
G04 Created by KiCad (PCBNEW 4.0.7) date 11/15/17 17:31:17*
G01G01*
G04 APERTURE LIST*
G04 APERTURE END LIST*
D54*
D55*
X-0000070331Y0001602862D02*
X-0000067517Y0001600053D01*
X-0000064700Y0001594431D01*
X-0000064688Y0001580370D01*
X-0000067495Y0001574743D01*
X-0000070305Y0001571929D01*
X-0000075926Y0001569112D01*
X-0000081551Y0001569107D01*
X-0000089990Y0001571912D01*
X-0000123765Y0001605628D01*
X-0000123733Y0001569070D01*
X-0000064661Y0001549436D02*
X-0000064629Y0001512879D01*
X-0000087143Y0001532544D01*
X-0000087136Y0001524108D01*
X-0000089943Y0001518481D01*
X-0000092753Y0001515666D01*
X-0000098375Y0001512849D01*
X-0000112435Y0001512837D01*
X-0000118062Y0001515644D01*
X-0000120877Y0001518454D01*
X-0000123694Y0001524076D01*
X-0000123708Y0001540949D01*
X-0000120901Y0001546575D01*
X-0000118091Y0001549390D01*
X-0000118038Y0001487523D02*
X-0000120847Y0001484708D01*
X-0000123662Y0001487518D01*
X-0000120852Y0001490332D01*
X-0000118038Y0001487523D01*
X-0000123662Y0001487518D01*
X-0000064573Y0001448199D02*
X-0000064568Y0001442575D01*
X-0000067375Y0001436948D01*
X-0000070185Y0001434134D01*
X-0000075807Y0001431316D01*
X-0000087053Y0001428495D01*
X-0000101113Y0001428482D01*
X-0000112364Y0001431285D01*
X-0000117991Y0001434092D01*
X-0000120806Y0001436902D01*
X-0000123623Y0001442524D01*
X-0000123628Y0001448148D01*
X-0000120821Y0001453775D01*
X-0000118011Y0001456589D01*
X-0000112389Y0001459406D01*
X-0000101143Y0001462228D01*
X-0000087082Y0001462240D01*
X-0000075831Y0001459438D01*
X-0000070204Y0001456631D01*
X-0000067390Y0001453821D01*
X-0000064573Y0001448199D01*
X-0000064524Y0001391956D02*
X-0000064519Y0001386332D01*
X-0000067326Y0001380705D01*
X-0000070136Y0001377891D01*
X-0000075758Y0001375074D01*
X-0000087004Y0001372252D01*
X-0000101065Y0001372239D01*
X-0000112316Y0001375042D01*
X-0000117942Y0001377849D01*
X-0000120757Y0001380659D01*
X-0000123574Y0001386281D01*
X-0000123579Y0001391905D01*
X-0000120772Y0001397532D01*
X-0000117962Y0001400346D01*
X-0000112340Y0001403163D01*
X-0000101094Y0001405985D01*
X-0000087033Y0001405997D01*
X-0000075782Y0001403195D01*
X-0000070155Y0001400388D01*
X-0000067341Y0001397578D01*
X-0000064524Y0001391956D01*
X-0000064475Y0001335713D02*
X-0000064470Y0001330089D01*
X-0000067277Y0001324462D01*
X-0000070087Y0001321648D01*
X-0000075709Y0001318831D01*
X-0000086955Y0001316009D01*
X-0000101016Y0001315996D01*
X-0000112267Y0001318799D01*
X-0000117893Y0001321606D01*
X-0000120708Y0001324416D01*
X-0000123525Y0001330038D01*
X-0000123530Y0001335662D01*
X-0000120723Y0001341289D01*
X-0000117913Y0001344103D01*
X-0000112291Y0001346920D01*
X-0000101045Y0001349742D01*
X-0000086984Y0001349754D01*
X-0000075733Y0001346952D01*
X-0000070107Y0001344145D01*
X-0000067292Y0001341335D01*
X-0000064475Y0001335713D01*
X-0000123452Y0001245673D02*
X-0000084082Y0001245707D01*
X-0000089706Y0001245703D02*
X-0000086891Y0001242893D01*
X-0000084074Y0001237271D01*
X-0000084067Y0001228835D01*
X-0000086874Y0001223208D01*
X-0000092496Y0001220391D01*
X-0000123430Y0001220364D01*
X-0000092496Y0001220391D02*
X-0000086869Y0001217584D01*
X-0000084052Y0001211962D01*
X-0000084045Y0001203525D01*
X-0000086852Y0001197898D01*
X-0000092474Y0001195082D01*
X-0000123408Y0001195055D01*
X-0000123383Y0001166933D02*
X-0000084013Y0001166967D01*
X-0000089637Y0001166962D02*
X-0000086823Y0001164153D01*
X-0000084006Y0001158531D01*
X-0000083998Y0001150095D01*
X-0000086806Y0001144468D01*
X-0000092428Y0001141651D01*
X-0000123361Y0001141624D01*
X-0000092428Y0001141651D02*
X-0000086801Y0001138843D01*
X-0000083984Y0001133222D01*
X-0000083976Y0001124785D01*
X-0000086784Y0001119158D01*
X-0000092406Y0001116341D01*
X-0000123339Y0001116314D01*
X-0000044078Y0001810984D02*
X-0000043291Y0000905473D01*
X0000000393Y0001811023D02*
X-0000150377Y0001810892D01*
X0000001181Y0000905511D02*
X-0000149590Y0000905380D01*
X-0000043291Y0000905473D02*
X-0000066417Y0000949803D01*
X-0000043291Y0000905473D02*
X-0000020242Y0000949843D01*
X-0000044078Y0001810984D02*
X-0000067127Y0001766614D01*
X-0000044078Y0001810984D02*
X-0000020952Y0001766654D01*
X0000104521Y0001873550D02*
X0000070775Y0001873592D01*
X0000087648Y0001873571D02*
X0000087722Y0001932626D01*
X0000082087Y0001924196D01*
X0000076455Y0001918579D01*
X0000070828Y0001915774D01*
X0000155213Y0001932541D02*
X0000143965Y0001932555D01*
X0000138337Y0001929750D01*
X0000135521Y0001926942D01*
X0000129886Y0001918512D01*
X0000127060Y0001907267D01*
X0000127032Y0001884770D01*
X0000129837Y0001879142D01*
X0000132646Y0001876327D01*
X0000138266Y0001873507D01*
X0000149515Y0001873493D01*
X0000155143Y0001876298D01*
X0000157958Y0001879107D01*
X0000160778Y0001884728D01*
X0000160795Y0001898789D01*
X0000157990Y0001904416D01*
X0000155182Y0001907232D01*
X0000149561Y0001910051D01*
X0000138312Y0001910065D01*
X0000132684Y0001907260D01*
X0000129869Y0001904452D01*
X0000127050Y0001898831D01*
X0000186080Y0001879072D02*
X0000188889Y0001876256D01*
X0000186073Y0001873448D01*
X0000183264Y0001876263D01*
X0000186080Y0001879072D01*
X0000186073Y0001873448D01*
X0000225517Y0001932453D02*
X0000231141Y0001932446D01*
X0000236762Y0001929627D01*
X0000239571Y0001926812D01*
X0000242376Y0001921184D01*
X0000245174Y0001909932D01*
X0000245156Y0001895871D01*
X0000242330Y0001884626D01*
X0000239511Y0001879005D01*
X0000236695Y0001876196D01*
X0000231067Y0001873391D01*
X0000225443Y0001873398D01*
X0000219822Y0001876218D01*
X0000217014Y0001879033D01*
X0000214208Y0001884661D01*
X0000211410Y0001895913D01*
X0000211428Y0001909974D01*
X0000214254Y0001921219D01*
X0000217073Y0001926840D01*
X0000219889Y0001929648D01*
X0000225517Y0001932453D01*
X0000281760Y0001932383D02*
X0000287384Y0001932376D01*
X0000293005Y0001929557D01*
X0000295813Y0001926741D01*
X0000298619Y0001921113D01*
X0000301417Y0001909861D01*
X0000301399Y0001895801D01*
X0000298573Y0001884556D01*
X0000295754Y0001878935D01*
X0000292938Y0001876126D01*
X0000287310Y0001873321D01*
X0000281686Y0001873328D01*
X0000276065Y0001876147D01*
X0000273256Y0001878963D01*
X0000270451Y0001884591D01*
X0000267653Y0001895843D01*
X0000267671Y0001909904D01*
X0000270497Y0001921149D01*
X0000273316Y0001926769D01*
X0000276132Y0001929578D01*
X0000281760Y0001932383D01*
X0000338003Y0001932313D02*
X0000343627Y0001932306D01*
X0000349248Y0001929487D01*
X0000352056Y0001926671D01*
X0000354861Y0001921043D01*
X0000357660Y0001909791D01*
X0000357642Y0001895730D01*
X0000354816Y0001884485D01*
X0000351997Y0001878865D01*
X0000349181Y0001876056D01*
X0000343553Y0001873251D01*
X0000337929Y0001873258D01*
X0000332308Y0001876077D01*
X0000329499Y0001878893D01*
X0000326694Y0001884520D01*
X0000323896Y0001895773D01*
X0000323914Y0001909833D01*
X0000326740Y0001921078D01*
X0000329559Y0001926699D01*
X0000332375Y0001929508D01*
X0000338003Y0001932313D01*
X0000427917Y0001873145D02*
X0000427967Y0001912515D01*
X0000427960Y0001906891D02*
X0000430775Y0001909700D01*
X0000436403Y0001912505D01*
X0000444840Y0001912494D01*
X0000450460Y0001909675D01*
X0000453265Y0001904047D01*
X0000453227Y0001873114D01*
X0000453265Y0001904047D02*
X0000456085Y0001909668D01*
X0000461712Y0001912473D01*
X0000470149Y0001912463D01*
X0000475770Y0001909643D01*
X0000478575Y0001904016D01*
X0000478536Y0001873082D01*
X0000506658Y0001873047D02*
X0000506707Y0001912417D01*
X0000506700Y0001906793D02*
X0000509515Y0001909601D01*
X0000515143Y0001912406D01*
X0000523580Y0001912396D01*
X0000529200Y0001909577D01*
X0000532006Y0001903949D01*
X0000531967Y0001873015D01*
X0000532006Y0001903949D02*
X0000534825Y0001909570D01*
X0000540453Y0001912375D01*
X0000548889Y0001912364D01*
X0000554510Y0001909545D01*
X0000557315Y0001903917D01*
X0000557276Y0001872984D01*
X0000000438Y0001847245D02*
X0000630359Y0001846458D01*
X0000000393Y0001811417D02*
X0000000571Y0001953545D01*
X0000630314Y0001810629D02*
X0000630492Y0001952757D01*
X0000630359Y0001846458D02*
X0000585980Y0001823426D01*
X0000630359Y0001846458D02*
X0000586038Y0001869601D01*
X0000000438Y0001847245D02*
X0000044760Y0001824103D01*
X0000000438Y0001847245D02*
X0000044817Y0001870277D01*
G04 next file*
G04 Gerber Fmt 4.6, Leading zero omitted, Abs format (unit mm)*
G04 Created by KiCad (PCBNEW 4.0.7) date 11/15/17 17:31:17*
G01G01*
G04 APERTURE LIST*
G04 APERTURE END LIST*
D56*
G04 next file*
G04 Gerber Fmt 4.6, Leading zero omitted, Abs format (unit mm)*
G04 Created by KiCad (PCBNEW 4.0.7) date 11/15/17 17:31:17*
G01G01*
G04 APERTURE LIST*
G04 APERTURE END LIST*
D57*
G04 next file*
G04 Gerber Fmt 4.6, Leading zero omitted, Abs format (unit mm)*
G04 Created by KiCad (PCBNEW 4.0.7) date 11/15/17 17:31:17*
G01G01*
G04 APERTURE LIST*
G04 APERTURE END LIST*
D58*
G04 next file*
G04 Gerber Fmt 4.6, Leading zero omitted, Abs format (unit mm)*
G04 Created by KiCad (PCBNEW 4.0.7) date 11/15/17 17:31:17*
G01G01*
G04 APERTURE LIST*
G04 APERTURE END LIST*
D59*
D60*
X0000635826Y0002527559D02*
X-0000005905Y0002527559D01*
X-0000005905Y0002527559D02*
X-0000005905Y0002669291D01*
X-0000005905Y0002669291D02*
X0000635826Y0002669291D01*
X0000635826Y0002669291D02*
X0000635826Y0002527559D01*
G04 next file*
G04 Gerber Fmt 4.6, Leading zero omitted, Abs format (unit mm)*
G04 Created by KiCad (PCBNEW 4.0.7) date 11/15/17 17:31:17*
G01G01*
G04 APERTURE LIST*
G04 APERTURE END LIST*
D61*
G04 next file*
G04 Gerber Fmt 4.6, Leading zero omitted, Abs format (unit mm)*
G04 Created by KiCad (PCBNEW 4.0.7) date 11/15/17 17:31:17*
G01G01*
G04 APERTURE LIST*
G04 APERTURE END LIST*
D62*
G04 next file*
G04 Gerber Fmt 4.6, Leading zero omitted, Abs format (unit mm)*
G04 Created by KiCad (PCBNEW 4.0.7) date 11/15/17 17:31:17*
G01G01*
G04 APERTURE LIST*
G04 APERTURE END LIST*
D63*
D64*
X-0000070331Y0002508374D02*
X-0000067517Y0002505564D01*
X-0000064700Y0002499943D01*
X-0000064688Y0002485882D01*
X-0000067495Y0002480255D01*
X-0000070305Y0002477441D01*
X-0000075926Y0002474624D01*
X-0000081551Y0002474619D01*
X-0000089990Y0002477423D01*
X-0000123765Y0002511140D01*
X-0000123733Y0002474582D01*
X-0000064661Y0002454948D02*
X-0000064629Y0002418390D01*
X-0000087143Y0002438056D01*
X-0000087136Y0002429619D01*
X-0000089943Y0002423993D01*
X-0000092753Y0002421178D01*
X-0000098375Y0002418361D01*
X-0000112435Y0002418349D01*
X-0000118062Y0002421156D01*
X-0000120877Y0002423966D01*
X-0000123694Y0002429588D01*
X-0000123708Y0002446460D01*
X-0000120901Y0002452087D01*
X-0000118091Y0002454902D01*
X-0000118038Y0002393035D02*
X-0000120847Y0002390220D01*
X-0000123662Y0002393030D01*
X-0000120852Y0002395844D01*
X-0000118038Y0002393035D01*
X-0000123662Y0002393030D01*
X-0000064573Y0002353711D02*
X-0000064568Y0002348087D01*
X-0000067375Y0002342460D01*
X-0000070185Y0002339645D01*
X-0000075807Y0002336828D01*
X-0000087053Y0002334006D01*
X-0000101113Y0002333994D01*
X-0000112364Y0002336797D01*
X-0000117991Y0002339604D01*
X-0000120806Y0002342413D01*
X-0000123623Y0002348035D01*
X-0000123628Y0002353660D01*
X-0000120821Y0002359286D01*
X-0000118011Y0002362101D01*
X-0000112389Y0002364918D01*
X-0000101143Y0002367740D01*
X-0000087082Y0002367752D01*
X-0000075831Y0002364950D01*
X-0000070204Y0002362143D01*
X-0000067390Y0002359333D01*
X-0000064573Y0002353711D01*
X-0000064524Y0002297468D02*
X-0000064519Y0002291844D01*
X-0000067326Y0002286217D01*
X-0000070136Y0002283402D01*
X-0000075758Y0002280585D01*
X-0000087004Y0002277763D01*
X-0000101065Y0002277751D01*
X-0000112316Y0002280554D01*
X-0000117942Y0002283361D01*
X-0000120757Y0002286171D01*
X-0000123574Y0002291792D01*
X-0000123579Y0002297417D01*
X-0000120772Y0002303043D01*
X-0000117962Y0002305858D01*
X-0000112340Y0002308675D01*
X-0000101094Y0002311497D01*
X-0000087033Y0002311509D01*
X-0000075782Y0002308707D01*
X-0000070155Y0002305900D01*
X-0000067341Y0002303090D01*
X-0000064524Y0002297468D01*
X-0000064475Y0002241225D02*
X-0000064470Y0002235601D01*
X-0000067277Y0002229974D01*
X-0000070087Y0002227159D01*
X-0000075709Y0002224342D01*
X-0000086955Y0002221521D01*
X-0000101016Y0002221508D01*
X-0000112267Y0002224311D01*
X-0000117893Y0002227118D01*
X-0000120708Y0002229928D01*
X-0000123525Y0002235549D01*
X-0000123530Y0002241174D01*
X-0000120723Y0002246800D01*
X-0000117913Y0002249615D01*
X-0000112291Y0002252432D01*
X-0000101045Y0002255254D01*
X-0000086984Y0002255266D01*
X-0000075733Y0002252464D01*
X-0000070107Y0002249657D01*
X-0000067292Y0002246847D01*
X-0000064475Y0002241225D01*
X-0000123452Y0002151185D02*
X-0000084082Y0002151219D01*
X-0000089706Y0002151214D02*
X-0000086891Y0002148405D01*
X-0000084074Y0002142783D01*
X-0000084067Y0002134346D01*
X-0000086874Y0002128720D01*
X-0000092496Y0002125903D01*
X-0000123430Y0002125876D01*
X-0000092496Y0002125903D02*
X-0000086869Y0002123095D01*
X-0000084052Y0002117474D01*
X-0000084045Y0002109037D01*
X-0000086852Y0002103410D01*
X-0000092474Y0002100593D01*
X-0000123408Y0002100566D01*
X-0000123383Y0002072445D02*
X-0000084013Y0002072479D01*
X-0000089637Y0002072474D02*
X-0000086823Y0002069665D01*
X-0000084006Y0002064043D01*
X-0000083998Y0002055606D01*
X-0000086806Y0002049980D01*
X-0000092428Y0002047162D01*
X-0000123361Y0002047136D01*
X-0000092428Y0002047162D02*
X-0000086801Y0002044355D01*
X-0000083984Y0002038733D01*
X-0000083976Y0002030297D01*
X-0000086784Y0002024670D01*
X-0000092406Y0002021853D01*
X-0000123339Y0002021826D01*
X-0000044078Y0002716496D02*
X-0000043291Y0001810984D01*
X0000000393Y0002716535D02*
X-0000150377Y0002716404D01*
X0000001181Y0001811023D02*
X-0000149590Y0001810892D01*
X-0000043291Y0001810984D02*
X-0000066417Y0001855315D01*
X-0000043291Y0001810984D02*
X-0000020242Y0001855355D01*
X-0000044078Y0002716496D02*
X-0000067127Y0002672126D01*
X-0000044078Y0002716496D02*
X-0000020952Y0002672166D01*
X0000104521Y0002779061D02*
X0000070775Y0002779104D01*
X0000087648Y0002779082D02*
X0000087722Y0002838138D01*
X0000082087Y0002829708D01*
X0000076455Y0002824091D01*
X0000070828Y0002821286D01*
X0000155213Y0002838053D02*
X0000143965Y0002838067D01*
X0000138337Y0002835262D01*
X0000135521Y0002832453D01*
X0000129886Y0002824024D01*
X0000127060Y0002812779D01*
X0000127032Y0002790282D01*
X0000129837Y0002784654D01*
X0000132646Y0002781838D01*
X0000138266Y0002779019D01*
X0000149515Y0002779005D01*
X0000155143Y0002781810D01*
X0000157958Y0002784619D01*
X0000160778Y0002790240D01*
X0000160795Y0002804300D01*
X0000157990Y0002809928D01*
X0000155182Y0002812744D01*
X0000149561Y0002815563D01*
X0000138312Y0002815577D01*
X0000132684Y0002812772D01*
X0000129869Y0002809963D01*
X0000127050Y0002804343D01*
X0000186080Y0002784584D02*
X0000188889Y0002781768D01*
X0000186073Y0002778959D01*
X0000183264Y0002781775D01*
X0000186080Y0002784584D01*
X0000186073Y0002778959D01*
X0000225517Y0002837965D02*
X0000231141Y0002837958D01*
X0000236762Y0002835139D01*
X0000239571Y0002832323D01*
X0000242376Y0002826696D01*
X0000245174Y0002815444D01*
X0000245156Y0002801383D01*
X0000242330Y0002790138D01*
X0000239511Y0002784517D01*
X0000236695Y0002781708D01*
X0000231067Y0002778903D01*
X0000225443Y0002778910D01*
X0000219822Y0002781729D01*
X0000217014Y0002784545D01*
X0000214208Y0002790173D01*
X0000211410Y0002801425D01*
X0000211428Y0002815486D01*
X0000214254Y0002826731D01*
X0000217073Y0002832352D01*
X0000219889Y0002835160D01*
X0000225517Y0002837965D01*
X0000281760Y0002837895D02*
X0000287384Y0002837888D01*
X0000293005Y0002835069D01*
X0000295813Y0002832253D01*
X0000298619Y0002826625D01*
X0000301417Y0002815373D01*
X0000301399Y0002801312D01*
X0000298573Y0002790067D01*
X0000295754Y0002784447D01*
X0000292938Y0002781638D01*
X0000287310Y0002778833D01*
X0000281686Y0002778840D01*
X0000276065Y0002781659D01*
X0000273256Y0002784475D01*
X0000270451Y0002790103D01*
X0000267653Y0002801355D01*
X0000267671Y0002815415D01*
X0000270497Y0002826660D01*
X0000273316Y0002832281D01*
X0000276132Y0002835090D01*
X0000281760Y0002837895D01*
X0000338003Y0002837825D02*
X0000343627Y0002837818D01*
X0000349248Y0002834998D01*
X0000352056Y0002832183D01*
X0000354861Y0002826555D01*
X0000357660Y0002815303D01*
X0000357642Y0002801242D01*
X0000354816Y0002789997D01*
X0000351997Y0002784376D01*
X0000349181Y0002781568D01*
X0000343553Y0002778763D01*
X0000337929Y0002778770D01*
X0000332308Y0002781589D01*
X0000329499Y0002784404D01*
X0000326694Y0002790032D01*
X0000323896Y0002801284D01*
X0000323914Y0002815345D01*
X0000326740Y0002826590D01*
X0000329559Y0002832211D01*
X0000332375Y0002835020D01*
X0000338003Y0002837825D01*
X0000427917Y0002778657D02*
X0000427967Y0002818027D01*
X0000427960Y0002812403D02*
X0000430775Y0002815212D01*
X0000436403Y0002818017D01*
X0000444840Y0002818006D01*
X0000450460Y0002815187D01*
X0000453265Y0002809559D01*
X0000453227Y0002778626D01*
X0000453265Y0002809559D02*
X0000456085Y0002815180D01*
X0000461712Y0002817985D01*
X0000470149Y0002817974D01*
X0000475770Y0002815155D01*
X0000478575Y0002809527D01*
X0000478536Y0002778594D01*
X0000506658Y0002778559D02*
X0000506707Y0002817929D01*
X0000506700Y0002812304D02*
X0000509515Y0002815113D01*
X0000515143Y0002817918D01*
X0000523580Y0002817908D01*
X0000529200Y0002815088D01*
X0000532006Y0002809461D01*
X0000531967Y0002778527D01*
X0000532006Y0002809461D02*
X0000534825Y0002815081D01*
X0000540453Y0002817887D01*
X0000548889Y0002817876D01*
X0000554510Y0002815057D01*
X0000557315Y0002809429D01*
X0000557276Y0002778495D01*
X0000000438Y0002752757D02*
X0000630359Y0002751970D01*
X0000000393Y0002716929D02*
X0000000571Y0002859056D01*
X0000630314Y0002716141D02*
X0000630492Y0002858269D01*
X0000630359Y0002751970D02*
X0000585980Y0002728938D01*
X0000630359Y0002751970D02*
X0000586038Y0002775113D01*
X0000000438Y0002752757D02*
X0000044760Y0002729614D01*
X0000000438Y0002752757D02*
X0000044817Y0002775789D01*
G04 next file*
G04 Gerber Fmt 4.6, Leading zero omitted, Abs format (unit mm)*
G04 Created by KiCad (PCBNEW 4.0.7) date 11/15/17 17:31:17*
G01G01*
G04 APERTURE LIST*
G04 APERTURE END LIST*
D65*
G04 next file*
G04 Gerber Fmt 4.6, Leading zero omitted, Abs format (unit mm)*
G04 Created by KiCad (PCBNEW 4.0.7) date 11/15/17 17:31:17*
G01G01*
G04 APERTURE LIST*
G04 APERTURE END LIST*
D66*
G04 next file*
G04 Gerber Fmt 4.6, Leading zero omitted, Abs format (unit mm)*
G04 Created by KiCad (PCBNEW 4.0.7) date 11/15/17 17:31:17*
G01G01*
G04 APERTURE LIST*
G04 APERTURE END LIST*
D67*
G04 next file*
G04 Gerber Fmt 4.6, Leading zero omitted, Abs format (unit mm)*
G04 Created by KiCad (PCBNEW 4.0.7) date 11/15/17 17:31:17*
G01G01*
G04 APERTURE LIST*
G04 APERTURE END LIST*
D68*
D69*
X0000635826Y0003433070D02*
X-0000005905Y0003433070D01*
X-0000005905Y0003433070D02*
X-0000005905Y0003574803D01*
X-0000005905Y0003574803D02*
X0000635826Y0003574803D01*
X0000635826Y0003574803D02*
X0000635826Y0003433070D01*
G04 next file*
G04 Gerber Fmt 4.6, Leading zero omitted, Abs format (unit mm)*
G04 Created by KiCad (PCBNEW 4.0.7) date 11/15/17 17:31:17*
G01G01*
G04 APERTURE LIST*
G04 APERTURE END LIST*
D70*
G04 next file*
G04 Gerber Fmt 4.6, Leading zero omitted, Abs format (unit mm)*
G04 Created by KiCad (PCBNEW 4.0.7) date 11/15/17 17:31:17*
G01G01*
G04 APERTURE LIST*
G04 APERTURE END LIST*
D71*
G04 next file*
G04 Gerber Fmt 4.6, Leading zero omitted, Abs format (unit mm)*
G04 Created by KiCad (PCBNEW 4.0.7) date 11/15/17 17:31:17*
G01G01*
G04 APERTURE LIST*
G04 APERTURE END LIST*
D72*
D73*
X-0000070331Y0003413886D02*
X-0000067517Y0003411076D01*
X-0000064700Y0003405454D01*
X-0000064688Y0003391394D01*
X-0000067495Y0003385767D01*
X-0000070305Y0003382952D01*
X-0000075926Y0003380135D01*
X-0000081551Y0003380130D01*
X-0000089990Y0003382935D01*
X-0000123765Y0003416652D01*
X-0000123733Y0003380094D01*
X-0000064661Y0003360460D02*
X-0000064629Y0003323902D01*
X-0000087143Y0003343568D01*
X-0000087136Y0003335131D01*
X-0000089943Y0003329504D01*
X-0000092753Y0003326690D01*
X-0000098375Y0003323873D01*
X-0000112435Y0003323861D01*
X-0000118062Y0003326668D01*
X-0000120877Y0003329478D01*
X-0000123694Y0003335099D01*
X-0000123708Y0003351972D01*
X-0000120901Y0003357599D01*
X-0000118091Y0003360414D01*
X-0000118038Y0003298546D02*
X-0000120847Y0003295732D01*
X-0000123662Y0003298542D01*
X-0000120852Y0003301356D01*
X-0000118038Y0003298546D01*
X-0000123662Y0003298542D01*
X-0000064573Y0003259223D02*
X-0000064568Y0003253598D01*
X-0000067375Y0003247972D01*
X-0000070185Y0003245157D01*
X-0000075807Y0003242340D01*
X-0000087053Y0003239518D01*
X-0000101113Y0003239506D01*
X-0000112364Y0003242308D01*
X-0000117991Y0003245116D01*
X-0000120806Y0003247925D01*
X-0000123623Y0003253547D01*
X-0000123628Y0003259171D01*
X-0000120821Y0003264798D01*
X-0000118011Y0003267613D01*
X-0000112389Y0003270430D01*
X-0000101143Y0003273252D01*
X-0000087082Y0003273264D01*
X-0000075831Y0003270462D01*
X-0000070204Y0003267654D01*
X-0000067390Y0003264845D01*
X-0000064573Y0003259223D01*
X-0000064524Y0003202980D02*
X-0000064519Y0003197356D01*
X-0000067326Y0003191729D01*
X-0000070136Y0003188914D01*
X-0000075758Y0003186097D01*
X-0000087004Y0003183275D01*
X-0000101065Y0003183263D01*
X-0000112316Y0003186065D01*
X-0000117942Y0003188873D01*
X-0000120757Y0003191682D01*
X-0000123574Y0003197304D01*
X-0000123579Y0003202929D01*
X-0000120772Y0003208555D01*
X-0000117962Y0003211370D01*
X-0000112340Y0003214187D01*
X-0000101094Y0003217009D01*
X-0000087033Y0003217021D01*
X-0000075782Y0003214219D01*
X-0000070155Y0003211411D01*
X-0000067341Y0003208602D01*
X-0000064524Y0003202980D01*
X-0000064475Y0003146737D02*
X-0000064470Y0003141113D01*
X-0000067277Y0003135486D01*
X-0000070087Y0003132671D01*
X-0000075709Y0003129854D01*
X-0000086955Y0003127032D01*
X-0000101016Y0003127020D01*
X-0000112267Y0003129822D01*
X-0000117893Y0003132630D01*
X-0000120708Y0003135439D01*
X-0000123525Y0003141061D01*
X-0000123530Y0003146686D01*
X-0000120723Y0003152312D01*
X-0000117913Y0003155127D01*
X-0000112291Y0003157944D01*
X-0000101045Y0003160766D01*
X-0000086984Y0003160778D01*
X-0000075733Y0003157976D01*
X-0000070107Y0003155168D01*
X-0000067292Y0003152359D01*
X-0000064475Y0003146737D01*
X-0000123452Y0003056697D02*
X-0000084082Y0003056731D01*
X-0000089706Y0003056726D02*
X-0000086891Y0003053917D01*
X-0000084074Y0003048295D01*
X-0000084067Y0003039858D01*
X-0000086874Y0003034232D01*
X-0000092496Y0003031414D01*
X-0000123430Y0003031388D01*
X-0000092496Y0003031414D02*
X-0000086869Y0003028607D01*
X-0000084052Y0003022985D01*
X-0000084045Y0003014549D01*
X-0000086852Y0003008922D01*
X-0000092474Y0003006105D01*
X-0000123408Y0003006078D01*
X-0000123383Y0002977957D02*
X-0000084013Y0002977991D01*
X-0000089637Y0002977986D02*
X-0000086823Y0002975176D01*
X-0000084006Y0002969555D01*
X-0000083998Y0002961118D01*
X-0000086806Y0002955491D01*
X-0000092428Y0002952674D01*
X-0000123361Y0002952647D01*
X-0000092428Y0002952674D02*
X-0000086801Y0002949867D01*
X-0000083984Y0002944245D01*
X-0000083976Y0002935809D01*
X-0000086784Y0002930182D01*
X-0000092406Y0002927365D01*
X-0000123339Y0002927338D01*
X-0000044078Y0003622008D02*
X-0000043291Y0002716496D01*
X0000000393Y0003622047D02*
X-0000150377Y0003621916D01*
X0000001181Y0002716535D02*
X-0000149590Y0002716404D01*
X-0000043291Y0002716496D02*
X-0000066417Y0002760827D01*
X-0000043291Y0002716496D02*
X-0000020242Y0002760867D01*
X-0000044078Y0003622008D02*
X-0000067127Y0003577637D01*
X-0000044078Y0003622008D02*
X-0000020952Y0003577678D01*
X0000104521Y0003684573D02*
X0000070775Y0003684615D01*
X0000087648Y0003684594D02*
X0000087722Y0003743649D01*
X0000082087Y0003735220D01*
X0000076455Y0003729603D01*
X0000070828Y0003726798D01*
X0000155213Y0003743565D02*
X0000143965Y0003743579D01*
X0000138337Y0003740774D01*
X0000135521Y0003737965D01*
X0000129886Y0003729536D01*
X0000127060Y0003718291D01*
X0000127032Y0003695794D01*
X0000129837Y0003690166D01*
X0000132646Y0003687350D01*
X0000138266Y0003684531D01*
X0000149515Y0003684517D01*
X0000155143Y0003687322D01*
X0000157958Y0003690131D01*
X0000160778Y0003695751D01*
X0000160795Y0003709812D01*
X0000157990Y0003715440D01*
X0000155182Y0003718256D01*
X0000149561Y0003721075D01*
X0000138312Y0003721089D01*
X0000132684Y0003718284D01*
X0000129869Y0003715475D01*
X0000127050Y0003709854D01*
X0000186080Y0003690096D02*
X0000188889Y0003687280D01*
X0000186073Y0003684471D01*
X0000183264Y0003687287D01*
X0000186080Y0003690096D01*
X0000186073Y0003684471D01*
X0000225517Y0003743477D02*
X0000231141Y0003743470D01*
X0000236762Y0003740651D01*
X0000239571Y0003737835D01*
X0000242376Y0003732207D01*
X0000245174Y0003720955D01*
X0000245156Y0003706895D01*
X0000242330Y0003695650D01*
X0000239511Y0003690029D01*
X0000236695Y0003687220D01*
X0000231067Y0003684415D01*
X0000225443Y0003684422D01*
X0000219822Y0003687241D01*
X0000217014Y0003690057D01*
X0000214208Y0003695685D01*
X0000211410Y0003706937D01*
X0000211428Y0003720997D01*
X0000214254Y0003732243D01*
X0000217073Y0003737863D01*
X0000219889Y0003740672D01*
X0000225517Y0003743477D01*
X0000281760Y0003743407D02*
X0000287384Y0003743400D01*
X0000293005Y0003740581D01*
X0000295813Y0003737765D01*
X0000298619Y0003732137D01*
X0000301417Y0003720885D01*
X0000301399Y0003706824D01*
X0000298573Y0003695579D01*
X0000295754Y0003689958D01*
X0000292938Y0003687150D01*
X0000287310Y0003684345D01*
X0000281686Y0003684352D01*
X0000276065Y0003687171D01*
X0000273256Y0003689987D01*
X0000270451Y0003695614D01*
X0000267653Y0003706866D01*
X0000267671Y0003720927D01*
X0000270497Y0003732172D01*
X0000273316Y0003737793D01*
X0000276132Y0003740602D01*
X0000281760Y0003743407D01*
X0000338003Y0003743337D02*
X0000343627Y0003743330D01*
X0000349248Y0003740510D01*
X0000352056Y0003737695D01*
X0000354861Y0003732067D01*
X0000357660Y0003720815D01*
X0000357642Y0003706754D01*
X0000354816Y0003695509D01*
X0000351997Y0003689888D01*
X0000349181Y0003687080D01*
X0000343553Y0003684274D01*
X0000337929Y0003684281D01*
X0000332308Y0003687101D01*
X0000329499Y0003689916D01*
X0000326694Y0003695544D01*
X0000323896Y0003706796D01*
X0000323914Y0003720857D01*
X0000326740Y0003732102D01*
X0000329559Y0003737723D01*
X0000332375Y0003740531D01*
X0000338003Y0003743337D01*
X0000427917Y0003684169D02*
X0000427967Y0003723539D01*
X0000427960Y0003717915D02*
X0000430775Y0003720723D01*
X0000436403Y0003723528D01*
X0000444840Y0003723518D01*
X0000450460Y0003720699D01*
X0000453265Y0003715071D01*
X0000453227Y0003684137D01*
X0000453265Y0003715071D02*
X0000456085Y0003720692D01*
X0000461712Y0003723497D01*
X0000470149Y0003723486D01*
X0000475770Y0003720667D01*
X0000478575Y0003715039D01*
X0000478536Y0003684106D01*
X0000506658Y0003684071D02*
X0000506707Y0003723441D01*
X0000506700Y0003717816D02*
X0000509515Y0003720625D01*
X0000515143Y0003723430D01*
X0000523580Y0003723420D01*
X0000529200Y0003720600D01*
X0000532006Y0003714972D01*
X0000531967Y0003684039D01*
X0000532006Y0003714972D02*
X0000534825Y0003720593D01*
X0000540453Y0003723398D01*
X0000548889Y0003723388D01*
X0000554510Y0003720569D01*
X0000557315Y0003714941D01*
X0000557276Y0003684007D01*
X0000000438Y0003658269D02*
X0000630359Y0003657482D01*
X0000000393Y0003622440D02*
X0000000571Y0003764568D01*
X0000630314Y0003621653D02*
X0000630492Y0003763781D01*
X0000630359Y0003657482D02*
X0000585980Y0003634450D01*
X0000630359Y0003657482D02*
X0000586038Y0003680625D01*
X0000000438Y0003658269D02*
X0000044760Y0003635126D01*
X0000000438Y0003658269D02*
X0000044817Y0003681301D01*
G04 next file*
G04 Gerber Fmt 4.6, Leading zero omitted, Abs format (unit mm)*
G04 Created by KiCad (PCBNEW 4.0.7) date 11/15/17 17:31:17*
G01G01*
G04 APERTURE LIST*
G04 APERTURE END LIST*
D74*
G04 next file*
G04 Gerber Fmt 4.6, Leading zero omitted, Abs format (unit mm)*
G04 Created by KiCad (PCBNEW 4.0.7) date 11/15/17 17:31:17*
G01G01*
G04 APERTURE LIST*
G04 APERTURE END LIST*
D75*
G04 next file*
G04 Gerber Fmt 4.6, Leading zero omitted, Abs format (unit mm)*
G04 Created by KiCad (PCBNEW 4.0.7) date 11/15/17 17:31:17*
G01G01*
G04 APERTURE LIST*
G04 APERTURE END LIST*
D76*
G04 next file*
G04 Gerber Fmt 4.6, Leading zero omitted, Abs format (unit mm)*
G04 Created by KiCad (PCBNEW 4.0.7) date 11/15/17 20:03:37*
G01G01*
G04 APERTURE LIST*
G04 APERTURE END LIST*
D77*
D78*
X0002205196Y0001388897D02*
X0002205196Y0001499133D01*
X0002205196Y0001388897D02*
X0002154015Y0001388897D01*
X0002154015Y0001499133D02*
X0002205196Y0001499133D01*
X0002154015Y0001499133D02*
X0002154015Y0001388897D01*
X0002675275Y0001595196D02*
X0000633937Y0001595196D01*
X0000633937Y0001595196D02*
X0000633937Y0001736929D01*
X0000633937Y0001736929D02*
X0002675275Y0001736929D01*
X0002675275Y0001736929D02*
X0002675275Y0001595196D01*
X0002675275Y0000984960D02*
X0000633937Y0000984960D01*
X0000633937Y0000984960D02*
X0000633937Y0001126692D01*
X0000633937Y0001126692D02*
X0002675275Y0001126692D01*
X0002675275Y0001126692D02*
X0002675275Y0000984960D01*
X0000687874Y0001403858D02*
X0000687874Y0001305433D01*
X0000687874Y0001403858D02*
X0000742992Y0001403858D01*
X0000742992Y0001305433D02*
X0000687874Y0001305433D01*
X0000742992Y0001305433D02*
X0000742992Y0001403858D01*
X0001021732Y0001514094D02*
X0000923307Y0001514094D01*
X0001021732Y0001514094D02*
X0001021732Y0001458976D01*
X0000923307Y0001458976D02*
X0000923307Y0001514094D01*
X0000923307Y0001458976D02*
X0001021732Y0001458976D01*
X0001021732Y0001438897D02*
X0000923307Y0001438897D01*
X0001021732Y0001438897D02*
X0001021732Y0001383779D01*
X0000923307Y0001383779D02*
X0000923307Y0001438897D01*
X0000923307Y0001383779D02*
X0001021732Y0001383779D01*
X0001058346Y0001511338D02*
X0001207952Y0001511338D01*
X0001058346Y0001369606D02*
X0001058346Y0001511338D01*
X0001207952Y0001369606D02*
X0001058346Y0001369606D01*
X0001207952Y0001511338D02*
X0001207952Y0001369606D01*
X0001177637Y0001582204D02*
X0001079212Y0001582204D01*
X0001177637Y0001582204D02*
X0001177637Y0001527086D01*
X0001079212Y0001527086D02*
X0001079212Y0001582204D01*
X0001079212Y0001527086D02*
X0001177637Y0001527086D01*
X0001341417Y0001495196D02*
X0001341417Y0001396771D01*
X0001341417Y0001495196D02*
X0001396535Y0001495196D01*
X0001396535Y0001396771D02*
X0001341417Y0001396771D01*
X0001396535Y0001396771D02*
X0001396535Y0001495196D01*
X0001608346Y0001390472D02*
X0001608346Y0001500708D01*
X0001608346Y0001390472D02*
X0001557165Y0001390472D01*
X0001557165Y0001500708D02*
X0001608346Y0001500708D01*
X0001557165Y0001500708D02*
X0001557165Y0001390472D01*
X0001534330Y0001389291D02*
X0001534330Y0001499527D01*
X0001534330Y0001389291D02*
X0001483149Y0001389291D01*
X0001483149Y0001499527D02*
X0001534330Y0001499527D01*
X0001483149Y0001499527D02*
X0001483149Y0001389291D01*
X0001674881Y0001390078D02*
X0001674881Y0001500314D01*
X0001674881Y0001390078D02*
X0001623700Y0001390078D01*
X0001623700Y0001500314D02*
X0001674881Y0001500314D01*
X0001623700Y0001500314D02*
X0001623700Y0001390078D01*
X0001466220Y0001390078D02*
X0001466220Y0001500314D01*
X0001466220Y0001390078D02*
X0001415039Y0001390078D01*
X0001415039Y0001500314D02*
X0001466220Y0001500314D01*
X0001415039Y0001500314D02*
X0001415039Y0001390078D01*
X0001748897Y0001389685D02*
X0001748897Y0001499921D01*
X0001748897Y0001389685D02*
X0001697716Y0001389685D01*
X0001697716Y0001499921D02*
X0001748897Y0001499921D01*
X0001697716Y0001499921D02*
X0001697716Y0001389685D01*
X0001841811Y0001394015D02*
X0001841811Y0001492440D01*
X0001841811Y0001394015D02*
X0001786692Y0001394015D01*
X0001786692Y0001492440D02*
X0001841811Y0001492440D01*
X0001786692Y0001492440D02*
X0001786692Y0001394015D01*
X0001937874Y0001499921D02*
X0001937874Y0001389685D01*
X0001937874Y0001499921D02*
X0001989055Y0001499921D01*
X0001989055Y0001389685D02*
X0001937874Y0001389685D01*
X0001989055Y0001389685D02*
X0001989055Y0001499921D01*
X0002005984Y0001499921D02*
X0002005984Y0001389685D01*
X0002005984Y0001499921D02*
X0002057165Y0001499921D01*
X0002057165Y0001389685D02*
X0002005984Y0001389685D01*
X0002057165Y0001389685D02*
X0002057165Y0001499921D01*
X0002131968Y0001388897D02*
X0002131968Y0001499133D01*
X0002131968Y0001388897D02*
X0002080787Y0001388897D01*
X0002080787Y0001499133D02*
X0002131968Y0001499133D01*
X0002080787Y0001499133D02*
X0002080787Y0001388897D01*
X0002226062Y0001492047D02*
X0002226062Y0001393622D01*
X0002226062Y0001492047D02*
X0002281181Y0001492047D01*
X0002281181Y0001393622D02*
X0002226062Y0001393622D01*
X0002281181Y0001393622D02*
X0002281181Y0001492047D01*
X0002370944Y0001181811D02*
X0002370944Y0001292047D01*
X0002370944Y0001181811D02*
X0002319763Y0001181811D01*
X0002319763Y0001292047D02*
X0002370944Y0001292047D01*
X0002319763Y0001292047D02*
X0002319763Y0001181811D01*
X0002184724Y0001286929D02*
X0002184724Y0001188503D01*
X0002184724Y0001286929D02*
X0002239842Y0001286929D01*
X0002239842Y0001188503D02*
X0002184724Y0001188503D01*
X0002239842Y0001188503D02*
X0002239842Y0001286929D01*
X0001783937Y0001289291D02*
X0001783937Y0001190866D01*
X0001783937Y0001289291D02*
X0001839055Y0001289291D01*
X0001839055Y0001190866D02*
X0001783937Y0001190866D01*
X0001839055Y0001190866D02*
X0001839055Y0001289291D01*
X0001707559Y0001295984D02*
X0001707559Y0001185748D01*
X0001707559Y0001295984D02*
X0001758740Y0001295984D01*
X0001758740Y0001185748D02*
X0001707559Y0001185748D01*
X0001758740Y0001185748D02*
X0001758740Y0001295984D01*
X0001639055Y0001296377D02*
X0001639055Y0001186141D01*
X0001639055Y0001296377D02*
X0001690236Y0001296377D01*
X0001690236Y0001186141D02*
X0001639055Y0001186141D01*
X0001690236Y0001186141D02*
X0001690236Y0001296377D01*
X0001464645Y0001171968D02*
X0001614251Y0001171968D01*
X0001614251Y0001171968D02*
X0001614251Y0001313700D01*
X0001614251Y0001313700D02*
X0001464645Y0001313700D01*
X0001464645Y0001313700D02*
X0001464645Y0001171968D01*
X0001400866Y0001295196D02*
X0001400866Y0001184960D01*
X0001400866Y0001295196D02*
X0001452047Y0001295196D01*
X0001452047Y0001184960D02*
X0001400866Y0001184960D01*
X0001452047Y0001184960D02*
X0001452047Y0001295196D01*
X0001387480Y0001185354D02*
X0001387480Y0001295590D01*
X0001387480Y0001185354D02*
X0001336299Y0001185354D01*
X0001336299Y0001295590D02*
X0001387480Y0001295590D01*
X0001336299Y0001295590D02*
X0001336299Y0001185354D01*
X0001268188Y0001289291D02*
X0001268188Y0001190866D01*
X0001268188Y0001289291D02*
X0001323307Y0001289291D01*
X0001323307Y0001190866D02*
X0001268188Y0001190866D01*
X0001323307Y0001190866D02*
X0001323307Y0001289291D01*
X0001232755Y0001528267D02*
X0001342992Y0001528267D01*
X0001232755Y0001528267D02*
X0001232755Y0001579448D01*
X0001342992Y0001579448D02*
X0001342992Y0001528267D01*
X0001342992Y0001579448D02*
X0001232755Y0001579448D01*
X0000910708Y0001581811D02*
X0000800472Y0001581811D01*
X0000910708Y0001581811D02*
X0000910708Y0001530629D01*
X0000800472Y0001530629D02*
X0000800472Y0001581811D01*
X0000800472Y0001530629D02*
X0000910708Y0001530629D01*
X0002453622Y0001180629D02*
X0002453622Y0001290866D01*
X0002453622Y0001180629D02*
X0002402440Y0001180629D01*
X0002402440Y0001290866D02*
X0002453622Y0001290866D01*
X0002402440Y0001290866D02*
X0002402440Y0001180629D01*
X0001964251Y0001293622D02*
X0001964251Y0001183385D01*
X0001964251Y0001293622D02*
X0002015433Y0001293622D01*
X0002015433Y0001183385D02*
X0001964251Y0001183385D01*
X0002015433Y0001183385D02*
X0002015433Y0001293622D01*
X0001840629Y0001302677D02*
X0001950866Y0001302677D01*
X0001840629Y0001302677D02*
X0001840629Y0001353858D01*
X0001950866Y0001353858D02*
X0001950866Y0001302677D01*
X0001950866Y0001353858D02*
X0001840629Y0001353858D01*
X0000696929Y0001115275D02*
X0000795354Y0001115275D01*
X0000696929Y0001115275D02*
X0000696929Y0001170393D01*
X0000795354Y0001170393D02*
X0000795354Y0001115275D01*
X0000795354Y0001170393D02*
X0000696929Y0001170393D01*
G04 next file*
G04 Gerber Fmt 4.6, Leading zero omitted, Abs format (unit mm)*
G04 Created by KiCad (PCBNEW 4.0.7) date 11/15/17 20:03:37*
G01G01*
G04 APERTURE LIST*
G04 APERTURE END LIST*
D79*
G04 next file*
G04 Gerber Fmt 4.6, Leading zero omitted, Abs format (unit mm)*
G04 Created by KiCad (PCBNEW 4.0.7) date 11/15/17 20:03:37*
G01G01*
G04 APERTURE LIST*
G04 APERTURE END LIST*
D80*
G04 next file*
G04 Gerber Fmt 4.6, Leading zero omitted, Abs format (unit mm)*
G04 Created by KiCad (PCBNEW 4.0.7) date 11/15/17 20:03:37*
G01G01*
G04 APERTURE LIST*
G04 APERTURE END LIST*
D81*
D82*
X0000532620Y0001603121D02*
X0000535433Y0001600309D01*
X0000538245Y0001594685D01*
X0000538245Y0001580624D01*
X0000535433Y0001574999D01*
X0000532620Y0001572187D01*
X0000526996Y0001569375D01*
X0000521372Y0001569375D01*
X0000512935Y0001572187D01*
X0000479190Y0001605933D01*
X0000479190Y0001569375D01*
X0000532620Y0001546878D02*
X0000535433Y0001544066D01*
X0000538245Y0001538442D01*
X0000538245Y0001524381D01*
X0000535433Y0001518757D01*
X0000532620Y0001515944D01*
X0000526996Y0001513132D01*
X0000521372Y0001513132D01*
X0000512935Y0001515944D01*
X0000479190Y0001549690D01*
X0000479190Y0001513132D01*
X0000484814Y0001487823D02*
X0000482002Y0001485011D01*
X0000479190Y0001487823D01*
X0000482002Y0001490635D01*
X0000484814Y0001487823D01*
X0000479190Y0001487823D01*
X0000479190Y0001456889D02*
X0000479190Y0001445641D01*
X0000482002Y0001440016D01*
X0000484814Y0001437204D01*
X0000493250Y0001431580D01*
X0000504499Y0001428768D01*
X0000526996Y0001428768D01*
X0000532620Y0001431580D01*
X0000535433Y0001434392D01*
X0000538245Y0001440016D01*
X0000538245Y0001451265D01*
X0000535433Y0001456889D01*
X0000532620Y0001459701D01*
X0000526996Y0001462514D01*
X0000512935Y0001462514D01*
X0000507311Y0001459701D01*
X0000504499Y0001456889D01*
X0000501687Y0001451265D01*
X0000501687Y0001440016D01*
X0000504499Y0001434392D01*
X0000507311Y0001431580D01*
X0000512935Y0001428768D01*
X0000479190Y0001400646D02*
X0000479190Y0001389398D01*
X0000482002Y0001383773D01*
X0000484814Y0001380961D01*
X0000493250Y0001375337D01*
X0000504499Y0001372525D01*
X0000526996Y0001372525D01*
X0000532620Y0001375337D01*
X0000535433Y0001378149D01*
X0000538245Y0001383773D01*
X0000538245Y0001395022D01*
X0000535433Y0001400646D01*
X0000532620Y0001403458D01*
X0000526996Y0001406271D01*
X0000512935Y0001406271D01*
X0000507311Y0001403458D01*
X0000504499Y0001400646D01*
X0000501687Y0001395022D01*
X0000501687Y0001383773D01*
X0000504499Y0001378149D01*
X0000507311Y0001375337D01*
X0000512935Y0001372525D01*
X0000538245Y0001335967D02*
X0000538245Y0001330343D01*
X0000535433Y0001324718D01*
X0000532620Y0001321906D01*
X0000526996Y0001319094D01*
X0000515748Y0001316282D01*
X0000501687Y0001316282D01*
X0000490438Y0001319094D01*
X0000484814Y0001321906D01*
X0000482002Y0001324718D01*
X0000479190Y0001330343D01*
X0000479190Y0001335967D01*
X0000482002Y0001341591D01*
X0000484814Y0001344403D01*
X0000490438Y0001347215D01*
X0000501687Y0001350028D01*
X0000515748Y0001350028D01*
X0000526996Y0001347215D01*
X0000532620Y0001344403D01*
X0000535433Y0001341591D01*
X0000538245Y0001335967D01*
X0000479190Y0001245978D02*
X0000518560Y0001245978D01*
X0000512935Y0001245978D02*
X0000515748Y0001243166D01*
X0000518560Y0001237542D01*
X0000518560Y0001229105D01*
X0000515748Y0001223481D01*
X0000510123Y0001220669D01*
X0000479190Y0001220669D01*
X0000510123Y0001220669D02*
X0000515748Y0001217857D01*
X0000518560Y0001212232D01*
X0000518560Y0001203796D01*
X0000515748Y0001198172D01*
X0000510123Y0001195360D01*
X0000479190Y0001195360D01*
X0000479190Y0001167238D02*
X0000518560Y0001167238D01*
X0000512935Y0001167238D02*
X0000515748Y0001164426D01*
X0000518560Y0001158802D01*
X0000518560Y0001150365D01*
X0000515748Y0001144741D01*
X0000510123Y0001141929D01*
X0000479190Y0001141929D01*
X0000510123Y0001141929D02*
X0000515748Y0001139117D01*
X0000518560Y0001133492D01*
X0000518560Y0001125056D01*
X0000515748Y0001119431D01*
X0000510123Y0001116619D01*
X0000479190Y0001116619D01*
X0000559055Y0001811023D02*
X0000559055Y0000905905D01*
X0000630314Y0001811023D02*
X0000452755Y0001811023D01*
X0000630314Y0000905905D02*
X0000452755Y0000905905D01*
X0000559055Y0000905905D02*
X0000535967Y0000950256D01*
X0000559055Y0000905905D02*
X0000582142Y0000950256D01*
X0000559055Y0001811023D02*
X0000535967Y0001766673D01*
X0000559055Y0001811023D02*
X0000582142Y0001766673D01*
X0001439731Y0001963599D02*
X0001411610Y0001963604D01*
X0001408792Y0001935483D01*
X0001411605Y0001938295D01*
X0001417230Y0001941106D01*
X0001431290Y0001941103D01*
X0001436914Y0001938290D01*
X0001439726Y0001935477D01*
X0001442537Y0001929852D01*
X0001442534Y0001915792D01*
X0001439721Y0001910168D01*
X0001436908Y0001907356D01*
X0001431283Y0001904545D01*
X0001417223Y0001904548D01*
X0001411599Y0001907361D01*
X0001408787Y0001910174D01*
X0001498775Y0001904532D02*
X0001465029Y0001904539D01*
X0001481902Y0001904536D02*
X0001481913Y0001963591D01*
X0001476288Y0001955155D01*
X0001470662Y0001949532D01*
X0001465037Y0001946721D01*
X0001524085Y0001910152D02*
X0001526897Y0001907339D01*
X0001524084Y0001904527D01*
X0001521273Y0001907340D01*
X0001524085Y0001910152D01*
X0001524084Y0001904527D01*
X0001555018Y0001904522D02*
X0001566267Y0001904519D01*
X0001571891Y0001907330D01*
X0001574704Y0001910142D01*
X0001580330Y0001918577D01*
X0001583144Y0001929825D01*
X0001583149Y0001952323D01*
X0001580338Y0001957947D01*
X0001577526Y0001960760D01*
X0001571902Y0001963573D01*
X0001560654Y0001963576D01*
X0001555029Y0001960764D01*
X0001552216Y0001957953D01*
X0001549403Y0001952329D01*
X0001549400Y0001938268D01*
X0001552211Y0001932644D01*
X0001555023Y0001929831D01*
X0001560647Y0001927018D01*
X0001571895Y0001927015D01*
X0001577520Y0001929827D01*
X0001580333Y0001932638D01*
X0001583146Y0001938262D01*
X0001611261Y0001904511D02*
X0001622510Y0001904509D01*
X0001628134Y0001907320D01*
X0001630947Y0001910131D01*
X0001636573Y0001918567D01*
X0001639387Y0001929815D01*
X0001639392Y0001952312D01*
X0001636581Y0001957937D01*
X0001633769Y0001960749D01*
X0001628145Y0001963563D01*
X0001616897Y0001963565D01*
X0001611272Y0001960754D01*
X0001608459Y0001957942D01*
X0001605646Y0001952318D01*
X0001605643Y0001938258D01*
X0001608454Y0001932633D01*
X0001611266Y0001929820D01*
X0001616890Y0001927007D01*
X0001628138Y0001927005D01*
X0001633763Y0001929816D01*
X0001636576Y0001932627D01*
X0001639389Y0001938251D01*
X0001675952Y0001963553D02*
X0001681576Y0001963552D01*
X0001687200Y0001960739D01*
X0001690011Y0001957926D01*
X0001692822Y0001952302D01*
X0001695632Y0001941052D01*
X0001695630Y0001926992D01*
X0001692815Y0001915744D01*
X0001690002Y0001910120D01*
X0001687189Y0001907308D01*
X0001681565Y0001904497D01*
X0001675940Y0001904498D01*
X0001670317Y0001907311D01*
X0001667505Y0001910124D01*
X0001664694Y0001915749D01*
X0001661884Y0001926998D01*
X0001661887Y0001941059D01*
X0001664701Y0001952307D01*
X0001667514Y0001957931D01*
X0001670327Y0001960742D01*
X0001675952Y0001963553D01*
X0001765929Y0001904481D02*
X0001765937Y0001943851D01*
X0001765936Y0001938227D02*
X0001768748Y0001941038D01*
X0001774373Y0001943849D01*
X0001782809Y0001943848D01*
X0001788433Y0001941035D01*
X0001791244Y0001935410D01*
X0001791238Y0001904476D01*
X0001791244Y0001935410D02*
X0001794058Y0001941033D01*
X0001799682Y0001943845D01*
X0001808119Y0001943843D01*
X0001813743Y0001941030D01*
X0001816554Y0001935405D01*
X0001816548Y0001904471D01*
X0001844669Y0001904466D02*
X0001844677Y0001943836D01*
X0001844676Y0001938212D02*
X0001847488Y0001941023D01*
X0001853113Y0001943834D01*
X0001861550Y0001943833D01*
X0001867173Y0001941019D01*
X0001869985Y0001935395D01*
X0001869979Y0001904461D01*
X0001869985Y0001935395D02*
X0001872798Y0001941018D01*
X0001878423Y0001943829D01*
X0001886859Y0001943828D01*
X0001892483Y0001941015D01*
X0001895294Y0001935390D01*
X0001895288Y0001904456D01*
X0000630013Y0001878265D02*
X0002676863Y0001877872D01*
X0000629999Y0001808582D02*
X0000630033Y0001984564D01*
X0002676850Y0001808188D02*
X0002676884Y0001984171D01*
X0002676863Y0001877872D02*
X0002632508Y0001854793D01*
X0002676863Y0001877872D02*
X0002632517Y0001900967D01*
X0000630013Y0001878265D02*
X0000674359Y0001855169D01*
X0000630013Y0001878265D02*
X0000674368Y0001901344D01*
G04 next file*
G04 Gerber Fmt 4.6, Leading zero omitted, Abs format (unit mm)*
G04 Created by KiCad (PCBNEW 4.0.7) date 11/15/17 20:03:37*
G01G01*
G04 APERTURE LIST*
G04 APERTURE END LIST*
D83*
G04 next file*
G04 Gerber Fmt 4.6, Leading zero omitted, Abs format (unit mm)*
G04 Created by KiCad (PCBNEW 4.0.7) date 11/15/17 20:03:37*
G01G01*
G04 APERTURE LIST*
G04 APERTURE END LIST*
D84*
D85*
X0001256299Y0001366929D02*
X0000915747Y0001366929D01*
X0000915747Y0001366929D02*
X0000915747Y0001124803D01*
X0000915747Y0001124803D02*
X0001256299Y0001124803D01*
X0001256299Y0001124803D02*
X0001256299Y0001366929D01*
X0000618188Y0001525511D02*
X0000618188Y0001179055D01*
X0000858346Y0001179055D02*
X0000618188Y0001179055D01*
X0000858346Y0001525511D02*
X0000858346Y0001179055D01*
X0000618188Y0001525511D02*
X0000858346Y0001525511D01*
X0000920157Y0001605039D02*
X0001254803Y0001605039D01*
X0001254803Y0001605039D02*
X0001254803Y0001368818D01*
X0001254803Y0001368818D02*
X0000920157Y0001368818D01*
X0000920157Y0001368818D02*
X0000920157Y0001605039D01*
X0002439842Y0001626692D02*
X0002439842Y0001085354D01*
X0002439842Y0001085354D02*
X0002926062Y0001085354D01*
X0002926062Y0001085354D02*
X0002926062Y0001626692D01*
X0002926062Y0001626692D02*
X0002439842Y0001626692D01*
X0002312677Y0001556220D02*
X0002379606Y0001556220D01*
X0002379606Y0001556220D02*
X0002379606Y0001402677D01*
X0002379606Y0001402677D02*
X0002312677Y0001402677D01*
X0002312677Y0001402677D02*
X0002312677Y0001556220D01*
X0002312677Y0001326299D02*
X0002379606Y0001326299D01*
X0002379606Y0001326299D02*
X0002379606Y0001172755D01*
X0002379606Y0001172755D02*
X0002312677Y0001172755D01*
X0002312677Y0001172755D02*
X0002312677Y0001326299D01*
X0001785118Y0001109370D02*
X0002005590Y0001109370D01*
X0002005590Y0001109370D02*
X0002005590Y0001585748D01*
X0002005590Y0001585748D02*
X0001785118Y0001585748D01*
X0001785118Y0001585748D02*
X0001785118Y0001109370D01*
X0002252834Y0001506220D02*
X0002032362Y0001506220D01*
X0002032362Y0001506220D02*
X0002032362Y0001167637D01*
X0002032362Y0001167637D02*
X0002252834Y0001167637D01*
X0002252834Y0001167637D02*
X0002252834Y0001506220D01*
G04 next file*
G04 Gerber Fmt 4.6, Leading zero omitted, Abs format (unit mm)*
G04 Created by KiCad (PCBNEW 4.0.7) date 11/15/17 20:03:37*
G01G01*
G04 APERTURE LIST*
G04 APERTURE END LIST*
D86*
G04 next file*
G04 Gerber Fmt 4.6, Leading zero omitted, Abs format (unit mm)*
G04 Created by KiCad (PCBNEW 4.0.7) date 11/15/17 20:03:37*
G01G01*
G04 APERTURE LIST*
G04 APERTURE END LIST*
D87*
D88*
X0002205196Y0002294409D02*
X0002205196Y0002404645D01*
X0002205196Y0002294409D02*
X0002154015Y0002294409D01*
X0002154015Y0002404645D02*
X0002205196Y0002404645D01*
X0002154015Y0002404645D02*
X0002154015Y0002294409D01*
X0002675275Y0002500708D02*
X0000633937Y0002500708D01*
X0000633937Y0002500708D02*
X0000633937Y0002642440D01*
X0000633937Y0002642440D02*
X0002675275Y0002642440D01*
X0002675275Y0002642440D02*
X0002675275Y0002500708D01*
X0002675275Y0001890472D02*
X0000633937Y0001890472D01*
X0000633937Y0001890472D02*
X0000633937Y0002032204D01*
X0000633937Y0002032204D02*
X0002675275Y0002032204D01*
X0002675275Y0002032204D02*
X0002675275Y0001890472D01*
X0000687874Y0002309370D02*
X0000687874Y0002210944D01*
X0000687874Y0002309370D02*
X0000742992Y0002309370D01*
X0000742992Y0002210944D02*
X0000687874Y0002210944D01*
X0000742992Y0002210944D02*
X0000742992Y0002309370D01*
X0001021732Y0002419606D02*
X0000923307Y0002419606D01*
X0001021732Y0002419606D02*
X0001021732Y0002364488D01*
X0000923307Y0002364488D02*
X0000923307Y0002419606D01*
X0000923307Y0002364488D02*
X0001021732Y0002364488D01*
X0001021732Y0002344409D02*
X0000923307Y0002344409D01*
X0001021732Y0002344409D02*
X0001021732Y0002289291D01*
X0000923307Y0002289291D02*
X0000923307Y0002344409D01*
X0000923307Y0002289291D02*
X0001021732Y0002289291D01*
X0001058346Y0002416850D02*
X0001207952Y0002416850D01*
X0001058346Y0002275118D02*
X0001058346Y0002416850D01*
X0001207952Y0002275118D02*
X0001058346Y0002275118D01*
X0001207952Y0002416850D02*
X0001207952Y0002275118D01*
X0001177637Y0002487716D02*
X0001079212Y0002487716D01*
X0001177637Y0002487716D02*
X0001177637Y0002432598D01*
X0001079212Y0002432598D02*
X0001079212Y0002487716D01*
X0001079212Y0002432598D02*
X0001177637Y0002432598D01*
X0001341417Y0002400708D02*
X0001341417Y0002302283D01*
X0001341417Y0002400708D02*
X0001396535Y0002400708D01*
X0001396535Y0002302283D02*
X0001341417Y0002302283D01*
X0001396535Y0002302283D02*
X0001396535Y0002400708D01*
X0001608346Y0002295984D02*
X0001608346Y0002406220D01*
X0001608346Y0002295984D02*
X0001557165Y0002295984D01*
X0001557165Y0002406220D02*
X0001608346Y0002406220D01*
X0001557165Y0002406220D02*
X0001557165Y0002295984D01*
X0001534330Y0002294803D02*
X0001534330Y0002405039D01*
X0001534330Y0002294803D02*
X0001483149Y0002294803D01*
X0001483149Y0002405039D02*
X0001534330Y0002405039D01*
X0001483149Y0002405039D02*
X0001483149Y0002294803D01*
X0001674881Y0002295590D02*
X0001674881Y0002405826D01*
X0001674881Y0002295590D02*
X0001623700Y0002295590D01*
X0001623700Y0002405826D02*
X0001674881Y0002405826D01*
X0001623700Y0002405826D02*
X0001623700Y0002295590D01*
X0001466220Y0002295590D02*
X0001466220Y0002405826D01*
X0001466220Y0002295590D02*
X0001415039Y0002295590D01*
X0001415039Y0002405826D02*
X0001466220Y0002405826D01*
X0001415039Y0002405826D02*
X0001415039Y0002295590D01*
X0001748897Y0002295196D02*
X0001748897Y0002405433D01*
X0001748897Y0002295196D02*
X0001697716Y0002295196D01*
X0001697716Y0002405433D02*
X0001748897Y0002405433D01*
X0001697716Y0002405433D02*
X0001697716Y0002295196D01*
X0001841811Y0002299527D02*
X0001841811Y0002397952D01*
X0001841811Y0002299527D02*
X0001786692Y0002299527D01*
X0001786692Y0002397952D02*
X0001841811Y0002397952D01*
X0001786692Y0002397952D02*
X0001786692Y0002299527D01*
X0001937874Y0002405433D02*
X0001937874Y0002295196D01*
X0001937874Y0002405433D02*
X0001989055Y0002405433D01*
X0001989055Y0002295196D02*
X0001937874Y0002295196D01*
X0001989055Y0002295196D02*
X0001989055Y0002405433D01*
X0002005984Y0002405433D02*
X0002005984Y0002295196D01*
X0002005984Y0002405433D02*
X0002057165Y0002405433D01*
X0002057165Y0002295196D02*
X0002005984Y0002295196D01*
X0002057165Y0002295196D02*
X0002057165Y0002405433D01*
X0002131968Y0002294409D02*
X0002131968Y0002404645D01*
X0002131968Y0002294409D02*
X0002080787Y0002294409D01*
X0002080787Y0002404645D02*
X0002131968Y0002404645D01*
X0002080787Y0002404645D02*
X0002080787Y0002294409D01*
X0002226062Y0002397559D02*
X0002226062Y0002299133D01*
X0002226062Y0002397559D02*
X0002281181Y0002397559D01*
X0002281181Y0002299133D02*
X0002226062Y0002299133D01*
X0002281181Y0002299133D02*
X0002281181Y0002397559D01*
X0002370944Y0002087322D02*
X0002370944Y0002197559D01*
X0002370944Y0002087322D02*
X0002319763Y0002087322D01*
X0002319763Y0002197559D02*
X0002370944Y0002197559D01*
X0002319763Y0002197559D02*
X0002319763Y0002087322D01*
X0002184724Y0002192440D02*
X0002184724Y0002094015D01*
X0002184724Y0002192440D02*
X0002239842Y0002192440D01*
X0002239842Y0002094015D02*
X0002184724Y0002094015D01*
X0002239842Y0002094015D02*
X0002239842Y0002192440D01*
X0001783937Y0002194803D02*
X0001783937Y0002096377D01*
X0001783937Y0002194803D02*
X0001839055Y0002194803D01*
X0001839055Y0002096377D02*
X0001783937Y0002096377D01*
X0001839055Y0002096377D02*
X0001839055Y0002194803D01*
X0001707559Y0002201496D02*
X0001707559Y0002091259D01*
X0001707559Y0002201496D02*
X0001758740Y0002201496D01*
X0001758740Y0002091259D02*
X0001707559Y0002091259D01*
X0001758740Y0002091259D02*
X0001758740Y0002201496D01*
X0001639055Y0002201889D02*
X0001639055Y0002091653D01*
X0001639055Y0002201889D02*
X0001690236Y0002201889D01*
X0001690236Y0002091653D02*
X0001639055Y0002091653D01*
X0001690236Y0002091653D02*
X0001690236Y0002201889D01*
X0001464645Y0002077480D02*
X0001614251Y0002077480D01*
X0001614251Y0002077480D02*
X0001614251Y0002219212D01*
X0001614251Y0002219212D02*
X0001464645Y0002219212D01*
X0001464645Y0002219212D02*
X0001464645Y0002077480D01*
X0001400866Y0002200708D02*
X0001400866Y0002090472D01*
X0001400866Y0002200708D02*
X0001452047Y0002200708D01*
X0001452047Y0002090472D02*
X0001400866Y0002090472D01*
X0001452047Y0002090472D02*
X0001452047Y0002200708D01*
X0001387480Y0002090866D02*
X0001387480Y0002201102D01*
X0001387480Y0002090866D02*
X0001336299Y0002090866D01*
X0001336299Y0002201102D02*
X0001387480Y0002201102D01*
X0001336299Y0002201102D02*
X0001336299Y0002090866D01*
X0001268188Y0002194803D02*
X0001268188Y0002096377D01*
X0001268188Y0002194803D02*
X0001323307Y0002194803D01*
X0001323307Y0002096377D02*
X0001268188Y0002096377D01*
X0001323307Y0002096377D02*
X0001323307Y0002194803D01*
X0001232755Y0002433779D02*
X0001342992Y0002433779D01*
X0001232755Y0002433779D02*
X0001232755Y0002484960D01*
X0001342992Y0002484960D02*
X0001342992Y0002433779D01*
X0001342992Y0002484960D02*
X0001232755Y0002484960D01*
X0000910708Y0002487322D02*
X0000800472Y0002487322D01*
X0000910708Y0002487322D02*
X0000910708Y0002436141D01*
X0000800472Y0002436141D02*
X0000800472Y0002487322D01*
X0000800472Y0002436141D02*
X0000910708Y0002436141D01*
X0002453622Y0002086141D02*
X0002453622Y0002196377D01*
X0002453622Y0002086141D02*
X0002402440Y0002086141D01*
X0002402440Y0002196377D02*
X0002453622Y0002196377D01*
X0002402440Y0002196377D02*
X0002402440Y0002086141D01*
X0001964251Y0002199133D02*
X0001964251Y0002088897D01*
X0001964251Y0002199133D02*
X0002015433Y0002199133D01*
X0002015433Y0002088897D02*
X0001964251Y0002088897D01*
X0002015433Y0002088897D02*
X0002015433Y0002199133D01*
X0001840629Y0002208188D02*
X0001950866Y0002208188D01*
X0001840629Y0002208188D02*
X0001840629Y0002259370D01*
X0001950866Y0002259370D02*
X0001950866Y0002208188D01*
X0001950866Y0002259370D02*
X0001840629Y0002259370D01*
X0000696929Y0002020787D02*
X0000795354Y0002020787D01*
X0000696929Y0002020787D02*
X0000696929Y0002075905D01*
X0000795354Y0002075905D02*
X0000795354Y0002020787D01*
X0000795354Y0002075905D02*
X0000696929Y0002075905D01*
G04 next file*
G04 Gerber Fmt 4.6, Leading zero omitted, Abs format (unit mm)*
G04 Created by KiCad (PCBNEW 4.0.7) date 11/15/17 20:03:37*
G01G01*
G04 APERTURE LIST*
G04 APERTURE END LIST*
D89*
G04 next file*
G04 Gerber Fmt 4.6, Leading zero omitted, Abs format (unit mm)*
G04 Created by KiCad (PCBNEW 4.0.7) date 11/15/17 20:03:37*
G01G01*
G04 APERTURE LIST*
G04 APERTURE END LIST*
D90*
G04 next file*
G04 Gerber Fmt 4.6, Leading zero omitted, Abs format (unit mm)*
G04 Created by KiCad (PCBNEW 4.0.7) date 11/15/17 20:03:37*
G01G01*
G04 APERTURE LIST*
G04 APERTURE END LIST*
D91*
D92*
X0000532620Y0002508633D02*
X0000535433Y0002505821D01*
X0000538245Y0002500196D01*
X0000538245Y0002486136D01*
X0000535433Y0002480511D01*
X0000532620Y0002477699D01*
X0000526996Y0002474887D01*
X0000521372Y0002474887D01*
X0000512935Y0002477699D01*
X0000479190Y0002511445D01*
X0000479190Y0002474887D01*
X0000532620Y0002452390D02*
X0000535433Y0002449578D01*
X0000538245Y0002443953D01*
X0000538245Y0002429893D01*
X0000535433Y0002424268D01*
X0000532620Y0002421456D01*
X0000526996Y0002418644D01*
X0000521372Y0002418644D01*
X0000512935Y0002421456D01*
X0000479190Y0002455202D01*
X0000479190Y0002418644D01*
X0000484814Y0002393335D02*
X0000482002Y0002390523D01*
X0000479190Y0002393335D01*
X0000482002Y0002396147D01*
X0000484814Y0002393335D01*
X0000479190Y0002393335D01*
X0000479190Y0002362401D02*
X0000479190Y0002351152D01*
X0000482002Y0002345528D01*
X0000484814Y0002342716D01*
X0000493250Y0002337092D01*
X0000504499Y0002334280D01*
X0000526996Y0002334280D01*
X0000532620Y0002337092D01*
X0000535433Y0002339904D01*
X0000538245Y0002345528D01*
X0000538245Y0002356777D01*
X0000535433Y0002362401D01*
X0000532620Y0002365213D01*
X0000526996Y0002368025D01*
X0000512935Y0002368025D01*
X0000507311Y0002365213D01*
X0000504499Y0002362401D01*
X0000501687Y0002356777D01*
X0000501687Y0002345528D01*
X0000504499Y0002339904D01*
X0000507311Y0002337092D01*
X0000512935Y0002334280D01*
X0000479190Y0002306158D02*
X0000479190Y0002294910D01*
X0000482002Y0002289285D01*
X0000484814Y0002286473D01*
X0000493250Y0002280849D01*
X0000504499Y0002278037D01*
X0000526996Y0002278037D01*
X0000532620Y0002280849D01*
X0000535433Y0002283661D01*
X0000538245Y0002289285D01*
X0000538245Y0002300534D01*
X0000535433Y0002306158D01*
X0000532620Y0002308970D01*
X0000526996Y0002311782D01*
X0000512935Y0002311782D01*
X0000507311Y0002308970D01*
X0000504499Y0002306158D01*
X0000501687Y0002300534D01*
X0000501687Y0002289285D01*
X0000504499Y0002283661D01*
X0000507311Y0002280849D01*
X0000512935Y0002278037D01*
X0000538245Y0002241479D02*
X0000538245Y0002235854D01*
X0000535433Y0002230230D01*
X0000532620Y0002227418D01*
X0000526996Y0002224606D01*
X0000515748Y0002221794D01*
X0000501687Y0002221794D01*
X0000490438Y0002224606D01*
X0000484814Y0002227418D01*
X0000482002Y0002230230D01*
X0000479190Y0002235854D01*
X0000479190Y0002241479D01*
X0000482002Y0002247103D01*
X0000484814Y0002249915D01*
X0000490438Y0002252727D01*
X0000501687Y0002255539D01*
X0000515748Y0002255539D01*
X0000526996Y0002252727D01*
X0000532620Y0002249915D01*
X0000535433Y0002247103D01*
X0000538245Y0002241479D01*
X0000479190Y0002151490D02*
X0000518560Y0002151490D01*
X0000512935Y0002151490D02*
X0000515748Y0002148678D01*
X0000518560Y0002143054D01*
X0000518560Y0002134617D01*
X0000515748Y0002128993D01*
X0000510123Y0002126181D01*
X0000479190Y0002126181D01*
X0000510123Y0002126181D02*
X0000515748Y0002123368D01*
X0000518560Y0002117744D01*
X0000518560Y0002109308D01*
X0000515748Y0002103683D01*
X0000510123Y0002100871D01*
X0000479190Y0002100871D01*
X0000479190Y0002072750D02*
X0000518560Y0002072750D01*
X0000512935Y0002072750D02*
X0000515748Y0002069938D01*
X0000518560Y0002064313D01*
X0000518560Y0002055877D01*
X0000515748Y0002050253D01*
X0000510123Y0002047440D01*
X0000479190Y0002047440D01*
X0000510123Y0002047440D02*
X0000515748Y0002044628D01*
X0000518560Y0002039004D01*
X0000518560Y0002030568D01*
X0000515748Y0002024943D01*
X0000510123Y0002022131D01*
X0000479190Y0002022131D01*
X0000559055Y0002716535D02*
X0000559055Y0001811417D01*
X0000630314Y0002716535D02*
X0000452755Y0002716535D01*
X0000630314Y0001811417D02*
X0000452755Y0001811417D01*
X0000559055Y0001811417D02*
X0000535967Y0001855767D01*
X0000559055Y0001811417D02*
X0000582142Y0001855767D01*
X0000559055Y0002716535D02*
X0000535967Y0002672184D01*
X0000559055Y0002716535D02*
X0000582142Y0002672184D01*
X0001439731Y0002869111D02*
X0001411610Y0002869116D01*
X0001408792Y0002840995D01*
X0001411605Y0002843807D01*
X0001417230Y0002846618D01*
X0001431290Y0002846615D01*
X0001436914Y0002843802D01*
X0001439726Y0002840989D01*
X0001442537Y0002835364D01*
X0001442534Y0002821304D01*
X0001439721Y0002815680D01*
X0001436908Y0002812868D01*
X0001431283Y0002810057D01*
X0001417223Y0002810060D01*
X0001411599Y0002812873D01*
X0001408787Y0002815686D01*
X0001498775Y0002810044D02*
X0001465029Y0002810051D01*
X0001481902Y0002810047D02*
X0001481913Y0002869102D01*
X0001476288Y0002860667D01*
X0001470662Y0002855044D01*
X0001465037Y0002852233D01*
X0001524085Y0002815664D02*
X0001526897Y0002812851D01*
X0001524084Y0002810039D01*
X0001521273Y0002812852D01*
X0001524085Y0002815664D01*
X0001524084Y0002810039D01*
X0001555018Y0002810033D02*
X0001566267Y0002810031D01*
X0001571891Y0002812842D01*
X0001574704Y0002815654D01*
X0001580330Y0002824089D01*
X0001583144Y0002835337D01*
X0001583149Y0002857834D01*
X0001580338Y0002863459D01*
X0001577526Y0002866272D01*
X0001571902Y0002869085D01*
X0001560654Y0002869087D01*
X0001555029Y0002866276D01*
X0001552216Y0002863465D01*
X0001549403Y0002857841D01*
X0001549400Y0002843780D01*
X0001552211Y0002838155D01*
X0001555023Y0002835343D01*
X0001560647Y0002832529D01*
X0001571895Y0002832527D01*
X0001577520Y0002835338D01*
X0001580333Y0002838150D01*
X0001583146Y0002843774D01*
X0001611261Y0002810022D02*
X0001622510Y0002810020D01*
X0001628134Y0002812831D01*
X0001630947Y0002815643D01*
X0001636573Y0002824078D01*
X0001639387Y0002835326D01*
X0001639392Y0002857824D01*
X0001636581Y0002863448D01*
X0001633769Y0002866261D01*
X0001628145Y0002869074D01*
X0001616897Y0002869077D01*
X0001611272Y0002866265D01*
X0001608459Y0002863454D01*
X0001605646Y0002857830D01*
X0001605643Y0002843769D01*
X0001608454Y0002838145D01*
X0001611266Y0002835332D01*
X0001616890Y0002832519D01*
X0001628138Y0002832516D01*
X0001633763Y0002835327D01*
X0001636576Y0002838139D01*
X0001639389Y0002843763D01*
X0001675952Y0002869065D02*
X0001681576Y0002869064D01*
X0001687200Y0002866251D01*
X0001690011Y0002863438D01*
X0001692822Y0002857813D01*
X0001695632Y0002846564D01*
X0001695630Y0002832503D01*
X0001692815Y0002821255D01*
X0001690002Y0002815632D01*
X0001687189Y0002812820D01*
X0001681565Y0002810009D01*
X0001675940Y0002810010D01*
X0001670317Y0002812823D01*
X0001667505Y0002815636D01*
X0001664694Y0002821261D01*
X0001661884Y0002832510D01*
X0001661887Y0002846571D01*
X0001664701Y0002857819D01*
X0001667514Y0002863442D01*
X0001670327Y0002866254D01*
X0001675952Y0002869065D01*
X0001765929Y0002809993D02*
X0001765937Y0002849363D01*
X0001765936Y0002843738D02*
X0001768748Y0002846550D01*
X0001774373Y0002849361D01*
X0001782809Y0002849360D01*
X0001788433Y0002846546D01*
X0001791244Y0002840922D01*
X0001791238Y0002809988D01*
X0001791244Y0002840922D02*
X0001794058Y0002846545D01*
X0001799682Y0002849356D01*
X0001808119Y0002849355D01*
X0001813743Y0002846541D01*
X0001816554Y0002840917D01*
X0001816548Y0002809983D01*
X0001844669Y0002809978D02*
X0001844677Y0002849348D01*
X0001844676Y0002843723D02*
X0001847488Y0002846535D01*
X0001853113Y0002849346D01*
X0001861550Y0002849344D01*
X0001867173Y0002846531D01*
X0001869985Y0002840906D01*
X0001869979Y0002809973D01*
X0001869985Y0002840906D02*
X0001872798Y0002846530D01*
X0001878423Y0002849341D01*
X0001886859Y0002849340D01*
X0001892483Y0002846526D01*
X0001895294Y0002840901D01*
X0001895288Y0002809968D01*
X0000630013Y0002783777D02*
X0002676863Y0002783383D01*
X0000629999Y0002714094D02*
X0000630033Y0002890076D01*
X0002676850Y0002713700D02*
X0002676884Y0002889683D01*
X0002676863Y0002783383D02*
X0002632508Y0002760304D01*
X0002676863Y0002783383D02*
X0002632517Y0002806479D01*
X0000630013Y0002783777D02*
X0000674359Y0002760681D01*
X0000630013Y0002783777D02*
X0000674368Y0002806856D01*
G04 next file*
G04 Gerber Fmt 4.6, Leading zero omitted, Abs format (unit mm)*
G04 Created by KiCad (PCBNEW 4.0.7) date 11/15/17 20:03:37*
G01G01*
G04 APERTURE LIST*
G04 APERTURE END LIST*
D93*
G04 next file*
G04 Gerber Fmt 4.6, Leading zero omitted, Abs format (unit mm)*
G04 Created by KiCad (PCBNEW 4.0.7) date 11/15/17 20:03:37*
G01G01*
G04 APERTURE LIST*
G04 APERTURE END LIST*
D94*
D95*
X0001256299Y0002272440D02*
X0000915747Y0002272440D01*
X0000915747Y0002272440D02*
X0000915747Y0002030314D01*
X0000915747Y0002030314D02*
X0001256299Y0002030314D01*
X0001256299Y0002030314D02*
X0001256299Y0002272440D01*
X0000618188Y0002431023D02*
X0000618188Y0002084566D01*
X0000858346Y0002084566D02*
X0000618188Y0002084566D01*
X0000858346Y0002431023D02*
X0000858346Y0002084566D01*
X0000618188Y0002431023D02*
X0000858346Y0002431023D01*
X0000920157Y0002510551D02*
X0001254803Y0002510551D01*
X0001254803Y0002510551D02*
X0001254803Y0002274330D01*
X0001254803Y0002274330D02*
X0000920157Y0002274330D01*
X0000920157Y0002274330D02*
X0000920157Y0002510551D01*
X0002439842Y0002532204D02*
X0002439842Y0001990866D01*
X0002439842Y0001990866D02*
X0002926062Y0001990866D01*
X0002926062Y0001990866D02*
X0002926062Y0002532204D01*
X0002926062Y0002532204D02*
X0002439842Y0002532204D01*
X0002312677Y0002461732D02*
X0002379606Y0002461732D01*
X0002379606Y0002461732D02*
X0002379606Y0002308188D01*
X0002379606Y0002308188D02*
X0002312677Y0002308188D01*
X0002312677Y0002308188D02*
X0002312677Y0002461732D01*
X0002312677Y0002231811D02*
X0002379606Y0002231811D01*
X0002379606Y0002231811D02*
X0002379606Y0002078267D01*
X0002379606Y0002078267D02*
X0002312677Y0002078267D01*
X0002312677Y0002078267D02*
X0002312677Y0002231811D01*
X0001785118Y0002014881D02*
X0002005590Y0002014881D01*
X0002005590Y0002014881D02*
X0002005590Y0002491259D01*
X0002005590Y0002491259D02*
X0001785118Y0002491259D01*
X0001785118Y0002491259D02*
X0001785118Y0002014881D01*
X0002252834Y0002411732D02*
X0002032362Y0002411732D01*
X0002032362Y0002411732D02*
X0002032362Y0002073149D01*
X0002032362Y0002073149D02*
X0002252834Y0002073149D01*
X0002252834Y0002073149D02*
X0002252834Y0002411732D01*
G04 next file*
G04 Gerber Fmt 4.6, Leading zero omitted, Abs format (unit mm)*
G04 Created by KiCad (PCBNEW 4.0.7) date 11/15/17 20:03:37*
G01G01*
G04 APERTURE LIST*
G04 APERTURE END LIST*
D96*
G04 next file*
G04 Gerber Fmt 4.6, Leading zero omitted, Abs format (unit mm)*
G04 Created by KiCad (PCBNEW 4.0.7) date 11/15/17 20:03:37*
G01G01*
G04 APERTURE LIST*
G04 APERTURE END LIST*
D97*
D98*
X0002205196Y0003199921D02*
X0002205196Y0003310157D01*
X0002205196Y0003199921D02*
X0002154015Y0003199921D01*
X0002154015Y0003310157D02*
X0002205196Y0003310157D01*
X0002154015Y0003310157D02*
X0002154015Y0003199921D01*
X0002675275Y0003406220D02*
X0000633937Y0003406220D01*
X0000633937Y0003406220D02*
X0000633937Y0003547952D01*
X0000633937Y0003547952D02*
X0002675275Y0003547952D01*
X0002675275Y0003547952D02*
X0002675275Y0003406220D01*
X0002675275Y0002795984D02*
X0000633937Y0002795984D01*
X0000633937Y0002795984D02*
X0000633937Y0002937716D01*
X0000633937Y0002937716D02*
X0002675275Y0002937716D01*
X0002675275Y0002937716D02*
X0002675275Y0002795984D01*
X0000687874Y0003214881D02*
X0000687874Y0003116456D01*
X0000687874Y0003214881D02*
X0000742992Y0003214881D01*
X0000742992Y0003116456D02*
X0000687874Y0003116456D01*
X0000742992Y0003116456D02*
X0000742992Y0003214881D01*
X0001021732Y0003325118D02*
X0000923307Y0003325118D01*
X0001021732Y0003325118D02*
X0001021732Y0003270000D01*
X0000923307Y0003270000D02*
X0000923307Y0003325118D01*
X0000923307Y0003270000D02*
X0001021732Y0003270000D01*
X0001021732Y0003249921D02*
X0000923307Y0003249921D01*
X0001021732Y0003249921D02*
X0001021732Y0003194803D01*
X0000923307Y0003194803D02*
X0000923307Y0003249921D01*
X0000923307Y0003194803D02*
X0001021732Y0003194803D01*
X0001058346Y0003322362D02*
X0001207952Y0003322362D01*
X0001058346Y0003180629D02*
X0001058346Y0003322362D01*
X0001207952Y0003180629D02*
X0001058346Y0003180629D01*
X0001207952Y0003322362D02*
X0001207952Y0003180629D01*
X0001177637Y0003393228D02*
X0001079212Y0003393228D01*
X0001177637Y0003393228D02*
X0001177637Y0003338110D01*
X0001079212Y0003338110D02*
X0001079212Y0003393228D01*
X0001079212Y0003338110D02*
X0001177637Y0003338110D01*
X0001341417Y0003306220D02*
X0001341417Y0003207795D01*
X0001341417Y0003306220D02*
X0001396535Y0003306220D01*
X0001396535Y0003207795D02*
X0001341417Y0003207795D01*
X0001396535Y0003207795D02*
X0001396535Y0003306220D01*
X0001608346Y0003201496D02*
X0001608346Y0003311732D01*
X0001608346Y0003201496D02*
X0001557165Y0003201496D01*
X0001557165Y0003311732D02*
X0001608346Y0003311732D01*
X0001557165Y0003311732D02*
X0001557165Y0003201496D01*
X0001534330Y0003200314D02*
X0001534330Y0003310551D01*
X0001534330Y0003200314D02*
X0001483149Y0003200314D01*
X0001483149Y0003310551D02*
X0001534330Y0003310551D01*
X0001483149Y0003310551D02*
X0001483149Y0003200314D01*
X0001674881Y0003201102D02*
X0001674881Y0003311338D01*
X0001674881Y0003201102D02*
X0001623700Y0003201102D01*
X0001623700Y0003311338D02*
X0001674881Y0003311338D01*
X0001623700Y0003311338D02*
X0001623700Y0003201102D01*
X0001466220Y0003201102D02*
X0001466220Y0003311338D01*
X0001466220Y0003201102D02*
X0001415039Y0003201102D01*
X0001415039Y0003311338D02*
X0001466220Y0003311338D01*
X0001415039Y0003311338D02*
X0001415039Y0003201102D01*
X0001748897Y0003200708D02*
X0001748897Y0003310944D01*
X0001748897Y0003200708D02*
X0001697716Y0003200708D01*
X0001697716Y0003310944D02*
X0001748897Y0003310944D01*
X0001697716Y0003310944D02*
X0001697716Y0003200708D01*
X0001841811Y0003205039D02*
X0001841811Y0003303464D01*
X0001841811Y0003205039D02*
X0001786692Y0003205039D01*
X0001786692Y0003303464D02*
X0001841811Y0003303464D01*
X0001786692Y0003303464D02*
X0001786692Y0003205039D01*
X0001937874Y0003310944D02*
X0001937874Y0003200708D01*
X0001937874Y0003310944D02*
X0001989055Y0003310944D01*
X0001989055Y0003200708D02*
X0001937874Y0003200708D01*
X0001989055Y0003200708D02*
X0001989055Y0003310944D01*
X0002005984Y0003310944D02*
X0002005984Y0003200708D01*
X0002005984Y0003310944D02*
X0002057165Y0003310944D01*
X0002057165Y0003200708D02*
X0002005984Y0003200708D01*
X0002057165Y0003200708D02*
X0002057165Y0003310944D01*
X0002131968Y0003199921D02*
X0002131968Y0003310157D01*
X0002131968Y0003199921D02*
X0002080787Y0003199921D01*
X0002080787Y0003310157D02*
X0002131968Y0003310157D01*
X0002080787Y0003310157D02*
X0002080787Y0003199921D01*
X0002226062Y0003303070D02*
X0002226062Y0003204645D01*
X0002226062Y0003303070D02*
X0002281181Y0003303070D01*
X0002281181Y0003204645D02*
X0002226062Y0003204645D01*
X0002281181Y0003204645D02*
X0002281181Y0003303070D01*
X0002370944Y0002992834D02*
X0002370944Y0003103070D01*
X0002370944Y0002992834D02*
X0002319763Y0002992834D01*
X0002319763Y0003103070D02*
X0002370944Y0003103070D01*
X0002319763Y0003103070D02*
X0002319763Y0002992834D01*
X0002184724Y0003097952D02*
X0002184724Y0002999527D01*
X0002184724Y0003097952D02*
X0002239842Y0003097952D01*
X0002239842Y0002999527D02*
X0002184724Y0002999527D01*
X0002239842Y0002999527D02*
X0002239842Y0003097952D01*
X0001783937Y0003100314D02*
X0001783937Y0003001889D01*
X0001783937Y0003100314D02*
X0001839055Y0003100314D01*
X0001839055Y0003001889D02*
X0001783937Y0003001889D01*
X0001839055Y0003001889D02*
X0001839055Y0003100314D01*
X0001707559Y0003107007D02*
X0001707559Y0002996771D01*
X0001707559Y0003107007D02*
X0001758740Y0003107007D01*
X0001758740Y0002996771D02*
X0001707559Y0002996771D01*
X0001758740Y0002996771D02*
X0001758740Y0003107007D01*
X0001639055Y0003107401D02*
X0001639055Y0002997165D01*
X0001639055Y0003107401D02*
X0001690236Y0003107401D01*
X0001690236Y0002997165D02*
X0001639055Y0002997165D01*
X0001690236Y0002997165D02*
X0001690236Y0003107401D01*
X0001464645Y0002982992D02*
X0001614251Y0002982992D01*
X0001614251Y0002982992D02*
X0001614251Y0003124724D01*
X0001614251Y0003124724D02*
X0001464645Y0003124724D01*
X0001464645Y0003124724D02*
X0001464645Y0002982992D01*
X0001400866Y0003106220D02*
X0001400866Y0002995984D01*
X0001400866Y0003106220D02*
X0001452047Y0003106220D01*
X0001452047Y0002995984D02*
X0001400866Y0002995984D01*
X0001452047Y0002995984D02*
X0001452047Y0003106220D01*
X0001387480Y0002996377D02*
X0001387480Y0003106614D01*
X0001387480Y0002996377D02*
X0001336299Y0002996377D01*
X0001336299Y0003106614D02*
X0001387480Y0003106614D01*
X0001336299Y0003106614D02*
X0001336299Y0002996377D01*
X0001268188Y0003100314D02*
X0001268188Y0003001889D01*
X0001268188Y0003100314D02*
X0001323307Y0003100314D01*
X0001323307Y0003001889D02*
X0001268188Y0003001889D01*
X0001323307Y0003001889D02*
X0001323307Y0003100314D01*
X0001232755Y0003339291D02*
X0001342992Y0003339291D01*
X0001232755Y0003339291D02*
X0001232755Y0003390472D01*
X0001342992Y0003390472D02*
X0001342992Y0003339291D01*
X0001342992Y0003390472D02*
X0001232755Y0003390472D01*
X0000910708Y0003392834D02*
X0000800472Y0003392834D01*
X0000910708Y0003392834D02*
X0000910708Y0003341653D01*
X0000800472Y0003341653D02*
X0000800472Y0003392834D01*
X0000800472Y0003341653D02*
X0000910708Y0003341653D01*
X0002453622Y0002991653D02*
X0002453622Y0003101889D01*
X0002453622Y0002991653D02*
X0002402440Y0002991653D01*
X0002402440Y0003101889D02*
X0002453622Y0003101889D01*
X0002402440Y0003101889D02*
X0002402440Y0002991653D01*
X0001964251Y0003104645D02*
X0001964251Y0002994409D01*
X0001964251Y0003104645D02*
X0002015433Y0003104645D01*
X0002015433Y0002994409D02*
X0001964251Y0002994409D01*
X0002015433Y0002994409D02*
X0002015433Y0003104645D01*
X0001840629Y0003113700D02*
X0001950866Y0003113700D01*
X0001840629Y0003113700D02*
X0001840629Y0003164881D01*
X0001950866Y0003164881D02*
X0001950866Y0003113700D01*
X0001950866Y0003164881D02*
X0001840629Y0003164881D01*
X0000696929Y0002926299D02*
X0000795354Y0002926299D01*
X0000696929Y0002926299D02*
X0000696929Y0002981417D01*
X0000795354Y0002981417D02*
X0000795354Y0002926299D01*
X0000795354Y0002981417D02*
X0000696929Y0002981417D01*
G04 next file*
G04 Gerber Fmt 4.6, Leading zero omitted, Abs format (unit mm)*
G04 Created by KiCad (PCBNEW 4.0.7) date 11/15/17 20:03:37*
G01G01*
G04 APERTURE LIST*
G04 APERTURE END LIST*
D99*
G04 next file*
G04 Gerber Fmt 4.6, Leading zero omitted, Abs format (unit mm)*
G04 Created by KiCad (PCBNEW 4.0.7) date 11/15/17 20:03:37*
G01G01*
G04 APERTURE LIST*
G04 APERTURE END LIST*
D100*
G04 next file*
G04 Gerber Fmt 4.6, Leading zero omitted, Abs format (unit mm)*
G04 Created by KiCad (PCBNEW 4.0.7) date 11/15/17 20:03:37*
G01G01*
G04 APERTURE LIST*
G04 APERTURE END LIST*
D101*
D102*
X0000532620Y0003414145D02*
X0000535433Y0003411332D01*
X0000538245Y0003405708D01*
X0000538245Y0003391647D01*
X0000535433Y0003386023D01*
X0000532620Y0003383211D01*
X0000526996Y0003380399D01*
X0000521372Y0003380399D01*
X0000512935Y0003383211D01*
X0000479190Y0003416957D01*
X0000479190Y0003380399D01*
X0000532620Y0003357902D02*
X0000535433Y0003355089D01*
X0000538245Y0003349465D01*
X0000538245Y0003335404D01*
X0000535433Y0003329780D01*
X0000532620Y0003326968D01*
X0000526996Y0003324156D01*
X0000521372Y0003324156D01*
X0000512935Y0003326968D01*
X0000479190Y0003360714D01*
X0000479190Y0003324156D01*
X0000484814Y0003298847D02*
X0000482002Y0003296034D01*
X0000479190Y0003298847D01*
X0000482002Y0003301659D01*
X0000484814Y0003298847D01*
X0000479190Y0003298847D01*
X0000479190Y0003267913D02*
X0000479190Y0003256664D01*
X0000482002Y0003251040D01*
X0000484814Y0003248228D01*
X0000493250Y0003242604D01*
X0000504499Y0003239791D01*
X0000526996Y0003239791D01*
X0000532620Y0003242604D01*
X0000535433Y0003245416D01*
X0000538245Y0003251040D01*
X0000538245Y0003262289D01*
X0000535433Y0003267913D01*
X0000532620Y0003270725D01*
X0000526996Y0003273537D01*
X0000512935Y0003273537D01*
X0000507311Y0003270725D01*
X0000504499Y0003267913D01*
X0000501687Y0003262289D01*
X0000501687Y0003251040D01*
X0000504499Y0003245416D01*
X0000507311Y0003242604D01*
X0000512935Y0003239791D01*
X0000479190Y0003211670D02*
X0000479190Y0003200421D01*
X0000482002Y0003194797D01*
X0000484814Y0003191985D01*
X0000493250Y0003186361D01*
X0000504499Y0003183548D01*
X0000526996Y0003183548D01*
X0000532620Y0003186361D01*
X0000535433Y0003189173D01*
X0000538245Y0003194797D01*
X0000538245Y0003206046D01*
X0000535433Y0003211670D01*
X0000532620Y0003214482D01*
X0000526996Y0003217294D01*
X0000512935Y0003217294D01*
X0000507311Y0003214482D01*
X0000504499Y0003211670D01*
X0000501687Y0003206046D01*
X0000501687Y0003194797D01*
X0000504499Y0003189173D01*
X0000507311Y0003186361D01*
X0000512935Y0003183548D01*
X0000538245Y0003146991D02*
X0000538245Y0003141366D01*
X0000535433Y0003135742D01*
X0000532620Y0003132930D01*
X0000526996Y0003130118D01*
X0000515748Y0003127305D01*
X0000501687Y0003127305D01*
X0000490438Y0003130118D01*
X0000484814Y0003132930D01*
X0000482002Y0003135742D01*
X0000479190Y0003141366D01*
X0000479190Y0003146991D01*
X0000482002Y0003152615D01*
X0000484814Y0003155427D01*
X0000490438Y0003158239D01*
X0000501687Y0003161051D01*
X0000515748Y0003161051D01*
X0000526996Y0003158239D01*
X0000532620Y0003155427D01*
X0000535433Y0003152615D01*
X0000538245Y0003146991D01*
X0000479190Y0003057002D02*
X0000518560Y0003057002D01*
X0000512935Y0003057002D02*
X0000515748Y0003054190D01*
X0000518560Y0003048565D01*
X0000518560Y0003040129D01*
X0000515748Y0003034505D01*
X0000510123Y0003031692D01*
X0000479190Y0003031692D01*
X0000510123Y0003031692D02*
X0000515748Y0003028880D01*
X0000518560Y0003023256D01*
X0000518560Y0003014820D01*
X0000515748Y0003009195D01*
X0000510123Y0003006383D01*
X0000479190Y0003006383D01*
X0000479190Y0002978262D02*
X0000518560Y0002978262D01*
X0000512935Y0002978262D02*
X0000515748Y0002975450D01*
X0000518560Y0002969825D01*
X0000518560Y0002961389D01*
X0000515748Y0002955764D01*
X0000510123Y0002952952D01*
X0000479190Y0002952952D01*
X0000510123Y0002952952D02*
X0000515748Y0002950140D01*
X0000518560Y0002944516D01*
X0000518560Y0002936079D01*
X0000515748Y0002930455D01*
X0000510123Y0002927643D01*
X0000479190Y0002927643D01*
X0000559055Y0003622047D02*
X0000559055Y0002716929D01*
X0000630314Y0003622047D02*
X0000452755Y0003622047D01*
X0000630314Y0002716929D02*
X0000452755Y0002716929D01*
X0000559055Y0002716929D02*
X0000535967Y0002761279D01*
X0000559055Y0002716929D02*
X0000582142Y0002761279D01*
X0000559055Y0003622047D02*
X0000535967Y0003577696D01*
X0000559055Y0003622047D02*
X0000582142Y0003577696D01*
X0001439731Y0003774622D02*
X0001411610Y0003774628D01*
X0001408792Y0003746507D01*
X0001411605Y0003749318D01*
X0001417230Y0003752130D01*
X0001431290Y0003752127D01*
X0001436914Y0003749314D01*
X0001439726Y0003746501D01*
X0001442537Y0003740876D01*
X0001442534Y0003726815D01*
X0001439721Y0003721192D01*
X0001436908Y0003718380D01*
X0001431283Y0003715569D01*
X0001417223Y0003715572D01*
X0001411599Y0003718385D01*
X0001408787Y0003721198D01*
X0001498775Y0003715556D02*
X0001465029Y0003715562D01*
X0001481902Y0003715559D02*
X0001481913Y0003774614D01*
X0001476288Y0003766179D01*
X0001470662Y0003760556D01*
X0001465037Y0003757745D01*
X0001524085Y0003721175D02*
X0001526897Y0003718363D01*
X0001524084Y0003715551D01*
X0001521273Y0003718364D01*
X0001524085Y0003721175D01*
X0001524084Y0003715551D01*
X0001555018Y0003715545D02*
X0001566267Y0003715543D01*
X0001571891Y0003718354D01*
X0001574704Y0003721166D01*
X0001580330Y0003729601D01*
X0001583144Y0003740849D01*
X0001583149Y0003763346D01*
X0001580338Y0003768971D01*
X0001577526Y0003771784D01*
X0001571902Y0003774597D01*
X0001560654Y0003774599D01*
X0001555029Y0003771788D01*
X0001552216Y0003768976D01*
X0001549403Y0003763353D01*
X0001549400Y0003749292D01*
X0001552211Y0003743667D01*
X0001555023Y0003740854D01*
X0001560647Y0003738041D01*
X0001571895Y0003738039D01*
X0001577520Y0003740850D01*
X0001580333Y0003743662D01*
X0001583146Y0003749285D01*
X0001611261Y0003715534D02*
X0001622510Y0003715532D01*
X0001628134Y0003718343D01*
X0001630947Y0003721155D01*
X0001636573Y0003729590D01*
X0001639387Y0003740838D01*
X0001639392Y0003763335D01*
X0001636581Y0003768960D01*
X0001633769Y0003771773D01*
X0001628145Y0003774586D01*
X0001616897Y0003774588D01*
X0001611272Y0003771777D01*
X0001608459Y0003768966D01*
X0001605646Y0003763342D01*
X0001605643Y0003749281D01*
X0001608454Y0003743656D01*
X0001611266Y0003740844D01*
X0001616890Y0003738030D01*
X0001628138Y0003738028D01*
X0001633763Y0003740839D01*
X0001636576Y0003743651D01*
X0001639389Y0003749275D01*
X0001675952Y0003774577D02*
X0001681576Y0003774576D01*
X0001687200Y0003771763D01*
X0001690011Y0003768950D01*
X0001692822Y0003763325D01*
X0001695632Y0003752076D01*
X0001695630Y0003738015D01*
X0001692815Y0003726767D01*
X0001690002Y0003721143D01*
X0001687189Y0003718332D01*
X0001681565Y0003715521D01*
X0001675940Y0003715522D01*
X0001670317Y0003718335D01*
X0001667505Y0003721148D01*
X0001664694Y0003726773D01*
X0001661884Y0003738022D01*
X0001661887Y0003752082D01*
X0001664701Y0003763331D01*
X0001667514Y0003768954D01*
X0001670327Y0003771766D01*
X0001675952Y0003774577D01*
X0001765929Y0003715505D02*
X0001765937Y0003754875D01*
X0001765936Y0003749250D02*
X0001768748Y0003752062D01*
X0001774373Y0003754873D01*
X0001782809Y0003754871D01*
X0001788433Y0003752058D01*
X0001791244Y0003746433D01*
X0001791238Y0003715500D01*
X0001791244Y0003746433D02*
X0001794058Y0003752057D01*
X0001799682Y0003754868D01*
X0001808119Y0003754867D01*
X0001813743Y0003752053D01*
X0001816554Y0003746428D01*
X0001816548Y0003715495D01*
X0001844669Y0003715489D02*
X0001844677Y0003754860D01*
X0001844676Y0003749235D02*
X0001847488Y0003752047D01*
X0001853113Y0003754858D01*
X0001861550Y0003754856D01*
X0001867173Y0003752043D01*
X0001869985Y0003746418D01*
X0001869979Y0003715485D01*
X0001869985Y0003746418D02*
X0001872798Y0003752042D01*
X0001878423Y0003754853D01*
X0001886859Y0003754851D01*
X0001892483Y0003752038D01*
X0001895294Y0003746413D01*
X0001895288Y0003715480D01*
X0000630013Y0003689289D02*
X0002676863Y0003688895D01*
X0000629999Y0003619606D02*
X0000630033Y0003795588D01*
X0002676850Y0003619212D02*
X0002676884Y0003795194D01*
X0002676863Y0003688895D02*
X0002632508Y0003665816D01*
X0002676863Y0003688895D02*
X0002632517Y0003711991D01*
X0000630013Y0003689289D02*
X0000674359Y0003666193D01*
X0000630013Y0003689289D02*
X0000674368Y0003712368D01*
G04 next file*
G04 Gerber Fmt 4.6, Leading zero omitted, Abs format (unit mm)*
G04 Created by KiCad (PCBNEW 4.0.7) date 11/15/17 20:03:37*
G01G01*
G04 APERTURE LIST*
G04 APERTURE END LIST*
D103*
G04 next file*
G04 Gerber Fmt 4.6, Leading zero omitted, Abs format (unit mm)*
G04 Created by KiCad (PCBNEW 4.0.7) date 11/15/17 20:03:37*
G01G01*
G04 APERTURE LIST*
G04 APERTURE END LIST*
D104*
D105*
X0001256299Y0003177952D02*
X0000915747Y0003177952D01*
X0000915747Y0003177952D02*
X0000915747Y0002935826D01*
X0000915747Y0002935826D02*
X0001256299Y0002935826D01*
X0001256299Y0002935826D02*
X0001256299Y0003177952D01*
X0000618188Y0003336535D02*
X0000618188Y0002990078D01*
X0000858346Y0002990078D02*
X0000618188Y0002990078D01*
X0000858346Y0003336535D02*
X0000858346Y0002990078D01*
X0000618188Y0003336535D02*
X0000858346Y0003336535D01*
X0000920157Y0003416062D02*
X0001254803Y0003416062D01*
X0001254803Y0003416062D02*
X0001254803Y0003179842D01*
X0001254803Y0003179842D02*
X0000920157Y0003179842D01*
X0000920157Y0003179842D02*
X0000920157Y0003416062D01*
X0002439842Y0003437716D02*
X0002439842Y0002896377D01*
X0002439842Y0002896377D02*
X0002926062Y0002896377D01*
X0002926062Y0002896377D02*
X0002926062Y0003437716D01*
X0002926062Y0003437716D02*
X0002439842Y0003437716D01*
X0002312677Y0003367244D02*
X0002379606Y0003367244D01*
X0002379606Y0003367244D02*
X0002379606Y0003213700D01*
X0002379606Y0003213700D02*
X0002312677Y0003213700D01*
X0002312677Y0003213700D02*
X0002312677Y0003367244D01*
X0002312677Y0003137322D02*
X0002379606Y0003137322D01*
X0002379606Y0003137322D02*
X0002379606Y0002983779D01*
X0002379606Y0002983779D02*
X0002312677Y0002983779D01*
X0002312677Y0002983779D02*
X0002312677Y0003137322D01*
X0001785118Y0002920393D02*
X0002005590Y0002920393D01*
X0002005590Y0002920393D02*
X0002005590Y0003396771D01*
X0002005590Y0003396771D02*
X0001785118Y0003396771D01*
X0001785118Y0003396771D02*
X0001785118Y0002920393D01*
X0002252834Y0003317244D02*
X0002032362Y0003317244D01*
X0002032362Y0003317244D02*
X0002032362Y0002978661D01*
X0002032362Y0002978661D02*
X0002252834Y0002978661D01*
X0002252834Y0002978661D02*
X0002252834Y0003317244D01*
G04 next file*
G04 Gerber Fmt 4.6, Leading zero omitted, Abs format (unit mm)*
G04 Created by KiCad (PCBNEW 4.0.7) date 11/15/17 20:03:37*
G01G01*
G04 APERTURE LIST*
G04 APERTURE END LIST*
D106*
G04 next file*
G04 Gerber Fmt 4.6, Leading zero omitted, Abs format (unit mm)*
G04 Created by KiCad (PCBNEW 4.0.7) date 11/15/17 17:48:19*
G01G01*
G04 APERTURE LIST*
G04 APERTURE END LIST*
D107*
D108*
X0003215157Y0001244488D02*
X0003215157Y0001146062D01*
X0003215157Y0001244488D02*
X0003270275Y0001244488D01*
X0003270275Y0001146062D02*
X0003215157Y0001146062D01*
X0003270275Y0001146062D02*
X0003270275Y0001244488D01*
X0003602362Y0001153149D02*
X0003602362Y0001251574D01*
X0003602362Y0001153149D02*
X0003547244Y0001153149D01*
X0003547244Y0001251574D02*
X0003602362Y0001251574D01*
X0003547244Y0001251574D02*
X0003547244Y0001153149D01*
X0003437795Y0001247244D02*
X0003437795Y0001148818D01*
X0003437795Y0001247244D02*
X0003492913Y0001247244D01*
X0003492913Y0001148818D02*
X0003437795Y0001148818D01*
X0003492913Y0001148818D02*
X0003492913Y0001247244D01*
X0003372834Y0001529527D02*
X0003372834Y0001627952D01*
X0003372834Y0001529527D02*
X0003317716Y0001529527D01*
X0003317716Y0001627952D02*
X0003372834Y0001627952D01*
X0003317716Y0001627952D02*
X0003317716Y0001529527D01*
X0003335496Y0001277952D02*
X0003335496Y0001376377D01*
X0003335496Y0001277952D02*
X0003280377Y0001277952D01*
X0003280377Y0001376377D02*
X0003335496Y0001376377D01*
X0003280377Y0001376377D02*
X0003280377Y0001277952D01*
X0003345275Y0001137007D02*
X0003345275Y0001026771D01*
X0003345275Y0001137007D02*
X0003396456Y0001137007D01*
X0003396456Y0001026771D02*
X0003345275Y0001026771D01*
X0003396456Y0001026771D02*
X0003396456Y0001137007D01*
X0003622527Y0001272047D02*
X0003622527Y0001382283D01*
X0003622527Y0001272047D02*
X0003571346Y0001272047D01*
X0003571346Y0001382283D02*
X0003622527Y0001382283D01*
X0003571346Y0001382283D02*
X0003571346Y0001272047D01*
X0003505905Y0001523622D02*
X0003505905Y0001633858D01*
X0003505905Y0001523622D02*
X0003454724Y0001523622D01*
X0003454724Y0001633858D02*
X0003505905Y0001633858D01*
X0003454724Y0001633858D02*
X0003454724Y0001523622D01*
X0003261527Y0001269708D02*
X0003261527Y0001379944D01*
X0003261527Y0001269708D02*
X0003210346Y0001269708D01*
X0003210346Y0001379944D02*
X0003261527Y0001379944D01*
X0003210346Y0001379944D02*
X0003210346Y0001269708D01*
X0003050000Y0001023622D02*
X0003050000Y0001122047D01*
X0003050000Y0001023622D02*
X0002994881Y0001023622D01*
X0002994881Y0001122047D02*
X0003050000Y0001122047D01*
X0002994881Y0001122047D02*
X0002994881Y0001023622D01*
X0003660665Y0001116293D02*
X0003660665Y0001017868D01*
X0003660665Y0001116293D02*
X0003715783Y0001116293D01*
X0003715783Y0001017868D02*
X0003660665Y0001017868D01*
X0003715783Y0001017868D02*
X0003715783Y0001116293D01*
X0003630850Y0001016653D02*
X0003630850Y0001115078D01*
X0003630850Y0001016653D02*
X0003575732Y0001016653D01*
X0003575732Y0001115078D02*
X0003630850Y0001115078D01*
X0003575732Y0001115078D02*
X0003575732Y0001016653D01*
X0002975196Y0001022834D02*
X0002825590Y0001022834D01*
X0002975196Y0001164566D02*
X0002975196Y0001022834D01*
X0002825590Y0001164566D02*
X0002975196Y0001164566D01*
X0002825590Y0001022834D02*
X0002825590Y0001164566D01*
X0003385433Y0001627952D02*
X0003385433Y0001529527D01*
X0003385433Y0001627952D02*
X0003440551Y0001627952D01*
X0003440551Y0001529527D02*
X0003385433Y0001529527D01*
X0003440551Y0001529527D02*
X0003440551Y0001627952D01*
X0003348377Y0001376377D02*
X0003348377Y0001277952D01*
X0003348377Y0001376377D02*
X0003403496Y0001376377D01*
X0003403496Y0001277952D02*
X0003348377Y0001277952D01*
X0003403496Y0001277952D02*
X0003403496Y0001376377D01*
X0003468496Y0001277952D02*
X0003468496Y0001376377D01*
X0003468496Y0001277952D02*
X0003413377Y0001277952D01*
X0003413377Y0001376377D02*
X0003468496Y0001376377D01*
X0003413377Y0001376377D02*
X0003413377Y0001277952D01*
X0003505118Y0001376377D02*
X0003505118Y0001277952D01*
X0003505118Y0001376377D02*
X0003560236Y0001376377D01*
X0003560236Y0001277952D02*
X0003505118Y0001277952D01*
X0003560236Y0001277952D02*
X0003560236Y0001376377D01*
X0002989614Y0001719944D02*
X0002989614Y0001621519D01*
X0002989614Y0001719944D02*
X0003044732Y0001719944D01*
X0003044732Y0001621519D02*
X0002989614Y0001621519D01*
X0003044732Y0001621519D02*
X0003044732Y0001719944D01*
X0003246850Y0001630708D02*
X0003246850Y0001532283D01*
X0003246850Y0001630708D02*
X0003301968Y0001630708D01*
X0003301968Y0001532283D02*
X0003246850Y0001532283D01*
X0003301968Y0001532283D02*
X0003301968Y0001630708D01*
X0002912732Y0001621519D02*
X0002912732Y0001719944D01*
X0002912732Y0001621519D02*
X0002857614Y0001621519D01*
X0002857614Y0001719944D02*
X0002912732Y0001719944D01*
X0002857614Y0001719944D02*
X0002857614Y0001621519D01*
X0002923614Y0001719944D02*
X0002923614Y0001621519D01*
X0002923614Y0001719944D02*
X0002978732Y0001719944D01*
X0002978732Y0001621519D02*
X0002923614Y0001621519D01*
X0002978732Y0001621519D02*
X0002978732Y0001719944D01*
X0002740377Y0001442566D02*
X0002740377Y0001344141D01*
X0002740377Y0001442566D02*
X0002795496Y0001442566D01*
X0002795496Y0001344141D02*
X0002740377Y0001344141D01*
X0002795496Y0001344141D02*
X0002795496Y0001442566D01*
X0002698448Y0001055149D02*
X0002796874Y0001055149D01*
X0002698448Y0001055149D02*
X0002698448Y0001110267D01*
X0002796874Y0001110267D02*
X0002796874Y0001055149D01*
X0002796874Y0001110267D02*
X0002698448Y0001110267D01*
X0002795929Y0001174267D02*
X0002697503Y0001174267D01*
X0002795929Y0001174267D02*
X0002795929Y0001119149D01*
X0002697503Y0001119149D02*
X0002697503Y0001174267D01*
X0002697503Y0001119149D02*
X0002795929Y0001119149D01*
X0002698448Y0000989149D02*
X0002796874Y0000989149D01*
X0002698448Y0000989149D02*
X0002698448Y0001044267D01*
X0002796874Y0001044267D02*
X0002796874Y0000989149D01*
X0002796874Y0001044267D02*
X0002698448Y0001044267D01*
X0003215157Y0001133448D02*
X0003215157Y0001035023D01*
X0003215157Y0001133448D02*
X0003270275Y0001133448D01*
X0003270275Y0001035023D02*
X0003215157Y0001035023D01*
X0003270275Y0001035023D02*
X0003270275Y0001133448D01*
X0003278157Y0001133448D02*
X0003278157Y0001035023D01*
X0003278157Y0001133448D02*
X0003333275Y0001133448D01*
X0003333275Y0001035023D02*
X0003278157Y0001035023D01*
X0003333275Y0001035023D02*
X0003333275Y0001133448D01*
X0003153157Y0001132448D02*
X0003153157Y0001034023D01*
X0003153157Y0001132448D02*
X0003208275Y0001132448D01*
X0003208275Y0001034023D02*
X0003153157Y0001034023D01*
X0003208275Y0001034023D02*
X0003208275Y0001132448D01*
X0002842519Y0001732283D02*
X0002708661Y0001732283D01*
X0002708661Y0001732283D02*
X0002708661Y0001594488D01*
X0002708661Y0001594488D02*
X0002842519Y0001594488D01*
X0002842519Y0001594488D02*
X0002842519Y0001732283D01*
X0003194488Y0001269291D02*
X0003194488Y0001379527D01*
X0003194488Y0001269291D02*
X0003143307Y0001269291D01*
X0003143307Y0001379527D02*
X0003194488Y0001379527D01*
X0003143307Y0001379527D02*
X0003143307Y0001269291D01*
X0003052858Y0001606787D02*
X0002942622Y0001606787D01*
X0003052858Y0001606787D02*
X0003052858Y0001555606D01*
X0002942622Y0001555606D02*
X0002942622Y0001606787D01*
X0002942622Y0001555606D02*
X0003052858Y0001555606D01*
X0003088976Y0001379921D02*
X0003088976Y0001269685D01*
X0003088976Y0001379921D02*
X0003140157Y0001379921D01*
X0003140157Y0001269685D02*
X0003088976Y0001269685D01*
X0003140157Y0001269685D02*
X0003140157Y0001379921D01*
X0003027559Y0001269291D02*
X0003027559Y0001379527D01*
X0003027559Y0001269291D02*
X0002976377Y0001269291D01*
X0002976377Y0001379527D02*
X0003027559Y0001379527D01*
X0002976377Y0001379527D02*
X0002976377Y0001269291D01*
X0003140307Y0001029118D02*
X0003140307Y0001139354D01*
X0003140307Y0001029118D02*
X0003089125Y0001029118D01*
X0003089125Y0001139354D02*
X0003140307Y0001139354D01*
X0003089125Y0001139354D02*
X0003089125Y0001029118D01*
X0003409055Y0001137007D02*
X0003409055Y0001026771D01*
X0003409055Y0001137007D02*
X0003460236Y0001137007D01*
X0003460236Y0001026771D02*
X0003409055Y0001026771D01*
X0003460236Y0001026771D02*
X0003460236Y0001137007D01*
X0003052858Y0001543787D02*
X0002942622Y0001543787D01*
X0003052858Y0001543787D02*
X0003052858Y0001492606D01*
X0002942622Y0001492606D02*
X0002942622Y0001543787D01*
X0002942622Y0001492606D02*
X0003052858Y0001492606D01*
X0003074015Y0001483070D02*
X0003223622Y0001483070D01*
X0003223622Y0001483070D02*
X0003223622Y0001624803D01*
X0003223622Y0001624803D02*
X0003074015Y0001624803D01*
X0003074015Y0001624803D02*
X0003074015Y0001483070D01*
G04 next file*
G04 Gerber Fmt 4.6, Leading zero omitted, Abs format (unit mm)*
G04 Created by KiCad (PCBNEW 4.0.7) date 11/15/17 17:48:19*
G01G01*
G04 APERTURE LIST*
G04 APERTURE END LIST*
D109*
G04 next file*
G04 Gerber Fmt 4.6, Leading zero omitted, Abs format (unit mm)*
G04 Created by KiCad (PCBNEW 4.0.7) date 11/15/17 17:48:19*
G01G01*
G04 APERTURE LIST*
G04 APERTURE END LIST*
D110*
D111*
X0002721361Y0001252249D02*
X0002681991Y0001252249D01*
X0002681991Y0001264248D01*
X0002683866Y0001267247D01*
X0002685740Y0001268747D01*
X0002689490Y0001270247D01*
X0002695114Y0001270247D01*
X0002698864Y0001268747D01*
X0002700739Y0001267247D01*
X0002702613Y0001264248D01*
X0002702613Y0001252249D01*
X0002717611Y0001301743D02*
X0002719486Y0001300243D01*
X0002721361Y0001295744D01*
X0002721361Y0001292744D01*
X0002719486Y0001288245D01*
X0002715737Y0001285245D01*
X0002711987Y0001283745D01*
X0002704488Y0001282245D01*
X0002698864Y0001282245D01*
X0002691365Y0001283745D01*
X0002687615Y0001285245D01*
X0002683866Y0001288245D01*
X0002681991Y0001292744D01*
X0002681991Y0001295744D01*
X0002683866Y0001300243D01*
X0002685740Y0001301743D01*
X0002700739Y0001325740D02*
X0002702613Y0001330239D01*
X0002704488Y0001331739D01*
X0002708238Y0001333239D01*
X0002713862Y0001333239D01*
X0002717611Y0001331739D01*
X0002719486Y0001330239D01*
X0002721361Y0001327240D01*
X0002721361Y0001315241D01*
X0002681991Y0001315241D01*
X0002681991Y0001325740D01*
X0002683866Y0001328740D01*
X0002685740Y0001330239D01*
X0002689490Y0001331739D01*
X0002693239Y0001331739D01*
X0002696989Y0001330239D01*
X0002698864Y0001328740D01*
X0002700739Y0001325740D01*
X0002700739Y0001315241D01*
X0002700739Y0001370734D02*
X0002700739Y0001381233D01*
X0002721361Y0001385733D02*
X0002721361Y0001370734D01*
X0002681991Y0001370734D01*
X0002681991Y0001385733D01*
X0002721361Y0001412729D02*
X0002681991Y0001412729D01*
X0002719486Y0001412729D02*
X0002721361Y0001409730D01*
X0002721361Y0001403730D01*
X0002719486Y0001400731D01*
X0002717611Y0001399231D01*
X0002713862Y0001397731D01*
X0002702613Y0001397731D01*
X0002698864Y0001399231D01*
X0002696989Y0001400731D01*
X0002695114Y0001403730D01*
X0002695114Y0001409730D01*
X0002696989Y0001412729D01*
X0002695114Y0001441226D02*
X0002726985Y0001441226D01*
X0002730735Y0001439726D01*
X0002732610Y0001438226D01*
X0002734484Y0001435226D01*
X0002734484Y0001430727D01*
X0002732610Y0001427727D01*
X0002719486Y0001441226D02*
X0002721361Y0001438226D01*
X0002721361Y0001432227D01*
X0002719486Y0001429227D01*
X0002717611Y0001427727D01*
X0002713862Y0001426227D01*
X0002702613Y0001426227D01*
X0002698864Y0001427727D01*
X0002696989Y0001429227D01*
X0002695114Y0001432227D01*
X0002695114Y0001438226D01*
X0002696989Y0001441226D01*
X0002719486Y0001468222D02*
X0002721361Y0001465223D01*
X0002721361Y0001459223D01*
X0002719486Y0001456224D01*
X0002715737Y0001454724D01*
X0002700739Y0001454724D01*
X0002696989Y0001456224D01*
X0002695114Y0001459223D01*
X0002695114Y0001465223D01*
X0002696989Y0001468222D01*
X0002700739Y0001469722D01*
X0002704488Y0001469722D01*
X0002708238Y0001454724D01*
G04 next file*
G04 Gerber Fmt 4.6, Leading zero omitted, Abs format (unit mm)*
G04 Created by KiCad (PCBNEW 4.0.7) date 11/15/17 17:48:19*
G01G01*
G04 APERTURE LIST*
G04 APERTURE END LIST*
D112*
D113*
X0002633014Y0001602924D02*
X0002635826Y0001600112D01*
X0002638638Y0001594488D01*
X0002638638Y0001580427D01*
X0002635826Y0001574803D01*
X0002633014Y0001571990D01*
X0002627390Y0001569178D01*
X0002621765Y0001569178D01*
X0002613329Y0001571990D01*
X0002579583Y0001605736D01*
X0002579583Y0001569178D01*
X0002638638Y0001549493D02*
X0002638638Y0001512935D01*
X0002616141Y0001532620D01*
X0002616141Y0001524184D01*
X0002613329Y0001518560D01*
X0002610517Y0001515747D01*
X0002604893Y0001512935D01*
X0002590832Y0001512935D01*
X0002585208Y0001515747D01*
X0002582395Y0001518560D01*
X0002579583Y0001524184D01*
X0002579583Y0001541057D01*
X0002582395Y0001546681D01*
X0002585208Y0001549493D01*
X0002585208Y0001487626D02*
X0002582395Y0001484814D01*
X0002579583Y0001487626D01*
X0002582395Y0001490438D01*
X0002585208Y0001487626D01*
X0002579583Y0001487626D01*
X0002638638Y0001448256D02*
X0002638638Y0001442632D01*
X0002635826Y0001437007D01*
X0002633014Y0001434195D01*
X0002627390Y0001431383D01*
X0002616141Y0001428571D01*
X0002602080Y0001428571D01*
X0002590832Y0001431383D01*
X0002585208Y0001434195D01*
X0002582395Y0001437007D01*
X0002579583Y0001442632D01*
X0002579583Y0001448256D01*
X0002582395Y0001453880D01*
X0002585208Y0001456692D01*
X0002590832Y0001459505D01*
X0002602080Y0001462317D01*
X0002616141Y0001462317D01*
X0002627390Y0001459505D01*
X0002633014Y0001456692D01*
X0002635826Y0001453880D01*
X0002638638Y0001448256D01*
X0002638638Y0001392013D02*
X0002638638Y0001386389D01*
X0002635826Y0001380764D01*
X0002633014Y0001377952D01*
X0002627390Y0001375140D01*
X0002616141Y0001372328D01*
X0002602080Y0001372328D01*
X0002590832Y0001375140D01*
X0002585208Y0001377952D01*
X0002582395Y0001380764D01*
X0002579583Y0001386389D01*
X0002579583Y0001392013D01*
X0002582395Y0001397637D01*
X0002585208Y0001400449D01*
X0002590832Y0001403262D01*
X0002602080Y0001406074D01*
X0002616141Y0001406074D01*
X0002627390Y0001403262D01*
X0002633014Y0001400449D01*
X0002635826Y0001397637D01*
X0002638638Y0001392013D01*
X0002638638Y0001335770D02*
X0002638638Y0001330146D01*
X0002635826Y0001324521D01*
X0002633014Y0001321709D01*
X0002627390Y0001318897D01*
X0002616141Y0001316085D01*
X0002602080Y0001316085D01*
X0002590832Y0001318897D01*
X0002585208Y0001321709D01*
X0002582395Y0001324521D01*
X0002579583Y0001330146D01*
X0002579583Y0001335770D01*
X0002582395Y0001341394D01*
X0002585208Y0001344207D01*
X0002590832Y0001347019D01*
X0002602080Y0001349831D01*
X0002616141Y0001349831D01*
X0002627390Y0001347019D01*
X0002633014Y0001344207D01*
X0002635826Y0001341394D01*
X0002638638Y0001335770D01*
X0002579583Y0001245781D02*
X0002618953Y0001245781D01*
X0002613329Y0001245781D02*
X0002616141Y0001242969D01*
X0002618953Y0001237345D01*
X0002618953Y0001228908D01*
X0002616141Y0001223284D01*
X0002610517Y0001220472D01*
X0002579583Y0001220472D01*
X0002610517Y0001220472D02*
X0002616141Y0001217660D01*
X0002618953Y0001212036D01*
X0002618953Y0001203599D01*
X0002616141Y0001197975D01*
X0002610517Y0001195163D01*
X0002579583Y0001195163D01*
X0002579583Y0001167041D02*
X0002618953Y0001167041D01*
X0002613329Y0001167041D02*
X0002616141Y0001164229D01*
X0002618953Y0001158605D01*
X0002618953Y0001150168D01*
X0002616141Y0001144544D01*
X0002610517Y0001141732D01*
X0002579583Y0001141732D01*
X0002610517Y0001141732D02*
X0002616141Y0001138920D01*
X0002618953Y0001133295D01*
X0002618953Y0001124859D01*
X0002616141Y0001119235D01*
X0002610517Y0001116422D01*
X0002579583Y0001116422D01*
X0002659448Y0001811023D02*
X0002659448Y0000905511D01*
X0002677165Y0001811023D02*
X0002553149Y0001811023D01*
X0002677165Y0000905511D02*
X0002553149Y0000905511D01*
X0002659448Y0000905511D02*
X0002636361Y0000949862D01*
X0002659448Y0000905511D02*
X0002682536Y0000949862D01*
X0002659448Y0001811023D02*
X0002636361Y0001766673D01*
X0002659448Y0001811023D02*
X0002682536Y0001766673D01*
X0003055680Y0001959505D02*
X0003092238Y0001959505D01*
X0003072553Y0001937007D01*
X0003080989Y0001937007D01*
X0003086614Y0001934195D01*
X0003089426Y0001931383D01*
X0003092238Y0001925759D01*
X0003092238Y0001911698D01*
X0003089426Y0001906074D01*
X0003086614Y0001903262D01*
X0003080989Y0001900449D01*
X0003064117Y0001900449D01*
X0003058492Y0001903262D01*
X0003055680Y0001906074D01*
X0003148481Y0001900449D02*
X0003114735Y0001900449D01*
X0003131608Y0001900449D02*
X0003131608Y0001959505D01*
X0003125984Y0001951068D01*
X0003120359Y0001945444D01*
X0003114735Y0001942632D01*
X0003173790Y0001906074D02*
X0003176602Y0001903262D01*
X0003173790Y0001900449D01*
X0003170978Y0001903262D01*
X0003173790Y0001906074D01*
X0003173790Y0001900449D01*
X0003210348Y0001934195D02*
X0003204724Y0001937007D01*
X0003201912Y0001939820D01*
X0003199100Y0001945444D01*
X0003199100Y0001948256D01*
X0003201912Y0001953880D01*
X0003204724Y0001956692D01*
X0003210348Y0001959505D01*
X0003221597Y0001959505D01*
X0003227221Y0001956692D01*
X0003230033Y0001953880D01*
X0003232845Y0001948256D01*
X0003232845Y0001945444D01*
X0003230033Y0001939820D01*
X0003227221Y0001937007D01*
X0003221597Y0001934195D01*
X0003210348Y0001934195D01*
X0003204724Y0001931383D01*
X0003201912Y0001928571D01*
X0003199100Y0001922947D01*
X0003199100Y0001911698D01*
X0003201912Y0001906074D01*
X0003204724Y0001903262D01*
X0003210348Y0001900449D01*
X0003221597Y0001900449D01*
X0003227221Y0001903262D01*
X0003230033Y0001906074D01*
X0003232845Y0001911698D01*
X0003232845Y0001922947D01*
X0003230033Y0001928571D01*
X0003227221Y0001931383D01*
X0003221597Y0001934195D01*
X0003269403Y0001959505D02*
X0003275028Y0001959505D01*
X0003280652Y0001956692D01*
X0003283464Y0001953880D01*
X0003286276Y0001948256D01*
X0003289088Y0001937007D01*
X0003289088Y0001922947D01*
X0003286276Y0001911698D01*
X0003283464Y0001906074D01*
X0003280652Y0001903262D01*
X0003275028Y0001900449D01*
X0003269403Y0001900449D01*
X0003263779Y0001903262D01*
X0003260967Y0001906074D01*
X0003258155Y0001911698D01*
X0003255343Y0001922947D01*
X0003255343Y0001937007D01*
X0003258155Y0001948256D01*
X0003260967Y0001953880D01*
X0003263779Y0001956692D01*
X0003269403Y0001959505D01*
X0003325646Y0001959505D02*
X0003331271Y0001959505D01*
X0003336895Y0001956692D01*
X0003339707Y0001953880D01*
X0003342519Y0001948256D01*
X0003345331Y0001937007D01*
X0003345331Y0001922947D01*
X0003342519Y0001911698D01*
X0003339707Y0001906074D01*
X0003336895Y0001903262D01*
X0003331271Y0001900449D01*
X0003325646Y0001900449D01*
X0003320022Y0001903262D01*
X0003317210Y0001906074D01*
X0003314398Y0001911698D01*
X0003311586Y0001922947D01*
X0003311586Y0001937007D01*
X0003314398Y0001948256D01*
X0003317210Y0001953880D01*
X0003320022Y0001956692D01*
X0003325646Y0001959505D01*
X0003415635Y0001900449D02*
X0003415635Y0001939820D01*
X0003415635Y0001934195D02*
X0003418447Y0001937007D01*
X0003424071Y0001939820D01*
X0003432508Y0001939820D01*
X0003438132Y0001937007D01*
X0003440944Y0001931383D01*
X0003440944Y0001900449D01*
X0003440944Y0001931383D02*
X0003443757Y0001937007D01*
X0003449381Y0001939820D01*
X0003457817Y0001939820D01*
X0003463442Y0001937007D01*
X0003466254Y0001931383D01*
X0003466254Y0001900449D01*
X0003494375Y0001900449D02*
X0003494375Y0001939820D01*
X0003494375Y0001934195D02*
X0003497187Y0001937007D01*
X0003502812Y0001939820D01*
X0003511248Y0001939820D01*
X0003516872Y0001937007D01*
X0003519685Y0001931383D01*
X0003519685Y0001900449D01*
X0003519685Y0001931383D02*
X0003522497Y0001937007D01*
X0003528121Y0001939820D01*
X0003536557Y0001939820D01*
X0003542182Y0001937007D01*
X0003544994Y0001931383D01*
X0003544994Y0001900449D01*
X0002677165Y0001874015D02*
X0003929133Y0001874015D01*
X0002677165Y0001811023D02*
X0002677165Y0001980314D01*
X0003929133Y0001811023D02*
X0003929133Y0001980314D01*
X0003929133Y0001874015D02*
X0003884783Y0001850928D01*
X0003929133Y0001874015D02*
X0003884783Y0001897103D01*
X0002677165Y0001874015D02*
X0002721515Y0001850928D01*
X0002677165Y0001874015D02*
X0002721515Y0001897103D01*
G04 next file*
G04 Gerber Fmt 4.6, Leading zero omitted, Abs format (unit mm)*
G04 Created by KiCad (PCBNEW 4.0.7) date 11/15/17 17:48:19*
G01G01*
G04 APERTURE LIST*
G04 APERTURE END LIST*
D114*
G04 next file*
G04 Gerber Fmt 4.6, Leading zero omitted, Abs format (unit mm)*
G04 Created by KiCad (PCBNEW 4.0.7) date 11/15/17 17:48:19*
G01G01*
G04 APERTURE LIST*
G04 APERTURE END LIST*
D115*
D116*
X0002666149Y0001533464D02*
X0002666149Y0001187007D01*
X0002906307Y0001187007D02*
X0002666149Y0001187007D01*
X0002906307Y0001533464D02*
X0002906307Y0001187007D01*
X0002666149Y0001533464D02*
X0002906307Y0001533464D01*
X0003725803Y0001762692D02*
X0003084070Y0001762692D01*
X0003084070Y0001762692D02*
X0003084070Y0001620960D01*
X0003084070Y0001620960D02*
X0003725803Y0001620960D01*
X0003725803Y0001620960D02*
X0003725803Y0001762692D01*
X0002952700Y0001088094D02*
X0003173173Y0001088094D01*
X0003173173Y0001088094D02*
X0003173173Y0001564472D01*
X0003173173Y0001564472D02*
X0002952700Y0001564472D01*
X0002952700Y0001564472D02*
X0002952700Y0001088094D01*
X0003060708Y0001060291D02*
X0003060708Y0000993362D01*
X0003060708Y0000993362D02*
X0002907165Y0000993362D01*
X0002907165Y0000993362D02*
X0002907165Y0001060291D01*
X0002907165Y0001060291D02*
X0003060708Y0001060291D01*
X0003721689Y0000989915D02*
X0003654760Y0000989915D01*
X0003654760Y0000989915D02*
X0003654760Y0001143458D01*
X0003654760Y0001143458D02*
X0003721689Y0001143458D01*
X0003721689Y0001143458D02*
X0003721689Y0000989915D01*
X0003636755Y0000989094D02*
X0003569826Y0000989094D01*
X0003569826Y0000989094D02*
X0003569826Y0001142637D01*
X0003569826Y0001142637D02*
X0003636755Y0001142637D01*
X0003636755Y0001142637D02*
X0003636755Y0000989094D01*
G04 next file*
G04 Gerber Fmt 4.6, Leading zero omitted, Abs format (unit mm)*
G04 Created by KiCad (PCBNEW 4.0.7) date 11/15/17 17:48:19*
G01G01*
G04 APERTURE LIST*
G04 APERTURE END LIST*
D117*
G04 next file*
G04 Gerber Fmt 4.6, Leading zero omitted, Abs format (unit mm)*
G04 Created by KiCad (PCBNEW 4.0.7) date 11/15/17 17:48:19*
G01G01*
G04 APERTURE LIST*
G04 APERTURE END LIST*
D118*
D119*
X0003215157Y0002150000D02*
X0003215157Y0002051574D01*
X0003215157Y0002150000D02*
X0003270275Y0002150000D01*
X0003270275Y0002051574D02*
X0003215157Y0002051574D01*
X0003270275Y0002051574D02*
X0003270275Y0002150000D01*
X0003602362Y0002058661D02*
X0003602362Y0002157086D01*
X0003602362Y0002058661D02*
X0003547244Y0002058661D01*
X0003547244Y0002157086D02*
X0003602362Y0002157086D01*
X0003547244Y0002157086D02*
X0003547244Y0002058661D01*
X0003437795Y0002152755D02*
X0003437795Y0002054330D01*
X0003437795Y0002152755D02*
X0003492913Y0002152755D01*
X0003492913Y0002054330D02*
X0003437795Y0002054330D01*
X0003492913Y0002054330D02*
X0003492913Y0002152755D01*
X0003372834Y0002435039D02*
X0003372834Y0002533464D01*
X0003372834Y0002435039D02*
X0003317716Y0002435039D01*
X0003317716Y0002533464D02*
X0003372834Y0002533464D01*
X0003317716Y0002533464D02*
X0003317716Y0002435039D01*
X0003335496Y0002183464D02*
X0003335496Y0002281889D01*
X0003335496Y0002183464D02*
X0003280377Y0002183464D01*
X0003280377Y0002281889D02*
X0003335496Y0002281889D01*
X0003280377Y0002281889D02*
X0003280377Y0002183464D01*
X0003345275Y0002042519D02*
X0003345275Y0001932283D01*
X0003345275Y0002042519D02*
X0003396456Y0002042519D01*
X0003396456Y0001932283D02*
X0003345275Y0001932283D01*
X0003396456Y0001932283D02*
X0003396456Y0002042519D01*
X0003622527Y0002177559D02*
X0003622527Y0002287795D01*
X0003622527Y0002177559D02*
X0003571346Y0002177559D01*
X0003571346Y0002287795D02*
X0003622527Y0002287795D01*
X0003571346Y0002287795D02*
X0003571346Y0002177559D01*
X0003505905Y0002429133D02*
X0003505905Y0002539370D01*
X0003505905Y0002429133D02*
X0003454724Y0002429133D01*
X0003454724Y0002539370D02*
X0003505905Y0002539370D01*
X0003454724Y0002539370D02*
X0003454724Y0002429133D01*
X0003261527Y0002175220D02*
X0003261527Y0002285456D01*
X0003261527Y0002175220D02*
X0003210346Y0002175220D01*
X0003210346Y0002285456D02*
X0003261527Y0002285456D01*
X0003210346Y0002285456D02*
X0003210346Y0002175220D01*
X0003050000Y0001929133D02*
X0003050000Y0002027559D01*
X0003050000Y0001929133D02*
X0002994881Y0001929133D01*
X0002994881Y0002027559D02*
X0003050000Y0002027559D01*
X0002994881Y0002027559D02*
X0002994881Y0001929133D01*
X0003660665Y0002021805D02*
X0003660665Y0001923379D01*
X0003660665Y0002021805D02*
X0003715783Y0002021805D01*
X0003715783Y0001923379D02*
X0003660665Y0001923379D01*
X0003715783Y0001923379D02*
X0003715783Y0002021805D01*
X0003630850Y0001922165D02*
X0003630850Y0002020590D01*
X0003630850Y0001922165D02*
X0003575732Y0001922165D01*
X0003575732Y0002020590D02*
X0003630850Y0002020590D01*
X0003575732Y0002020590D02*
X0003575732Y0001922165D01*
X0002975196Y0001928346D02*
X0002825590Y0001928346D01*
X0002975196Y0002070078D02*
X0002975196Y0001928346D01*
X0002825590Y0002070078D02*
X0002975196Y0002070078D01*
X0002825590Y0001928346D02*
X0002825590Y0002070078D01*
X0003385433Y0002533464D02*
X0003385433Y0002435039D01*
X0003385433Y0002533464D02*
X0003440551Y0002533464D01*
X0003440551Y0002435039D02*
X0003385433Y0002435039D01*
X0003440551Y0002435039D02*
X0003440551Y0002533464D01*
X0003348377Y0002281889D02*
X0003348377Y0002183464D01*
X0003348377Y0002281889D02*
X0003403496Y0002281889D01*
X0003403496Y0002183464D02*
X0003348377Y0002183464D01*
X0003403496Y0002183464D02*
X0003403496Y0002281889D01*
X0003468496Y0002183464D02*
X0003468496Y0002281889D01*
X0003468496Y0002183464D02*
X0003413377Y0002183464D01*
X0003413377Y0002281889D02*
X0003468496Y0002281889D01*
X0003413377Y0002281889D02*
X0003413377Y0002183464D01*
X0003505118Y0002281889D02*
X0003505118Y0002183464D01*
X0003505118Y0002281889D02*
X0003560236Y0002281889D01*
X0003560236Y0002183464D02*
X0003505118Y0002183464D01*
X0003560236Y0002183464D02*
X0003560236Y0002281889D01*
X0002989614Y0002625456D02*
X0002989614Y0002527031D01*
X0002989614Y0002625456D02*
X0003044732Y0002625456D01*
X0003044732Y0002527031D02*
X0002989614Y0002527031D01*
X0003044732Y0002527031D02*
X0003044732Y0002625456D01*
X0003246850Y0002536220D02*
X0003246850Y0002437795D01*
X0003246850Y0002536220D02*
X0003301968Y0002536220D01*
X0003301968Y0002437795D02*
X0003246850Y0002437795D01*
X0003301968Y0002437795D02*
X0003301968Y0002536220D01*
X0002912732Y0002527031D02*
X0002912732Y0002625456D01*
X0002912732Y0002527031D02*
X0002857614Y0002527031D01*
X0002857614Y0002625456D02*
X0002912732Y0002625456D01*
X0002857614Y0002625456D02*
X0002857614Y0002527031D01*
X0002923614Y0002625456D02*
X0002923614Y0002527031D01*
X0002923614Y0002625456D02*
X0002978732Y0002625456D01*
X0002978732Y0002527031D02*
X0002923614Y0002527031D01*
X0002978732Y0002527031D02*
X0002978732Y0002625456D01*
X0002740377Y0002348078D02*
X0002740377Y0002249653D01*
X0002740377Y0002348078D02*
X0002795496Y0002348078D01*
X0002795496Y0002249653D02*
X0002740377Y0002249653D01*
X0002795496Y0002249653D02*
X0002795496Y0002348078D01*
X0002698448Y0001960661D02*
X0002796874Y0001960661D01*
X0002698448Y0001960661D02*
X0002698448Y0002015779D01*
X0002796874Y0002015779D02*
X0002796874Y0001960661D01*
X0002796874Y0002015779D02*
X0002698448Y0002015779D01*
X0002795929Y0002079779D02*
X0002697503Y0002079779D01*
X0002795929Y0002079779D02*
X0002795929Y0002024661D01*
X0002697503Y0002024661D02*
X0002697503Y0002079779D01*
X0002697503Y0002024661D02*
X0002795929Y0002024661D01*
X0002698448Y0001894661D02*
X0002796874Y0001894661D01*
X0002698448Y0001894661D02*
X0002698448Y0001949779D01*
X0002796874Y0001949779D02*
X0002796874Y0001894661D01*
X0002796874Y0001949779D02*
X0002698448Y0001949779D01*
X0003215157Y0002038960D02*
X0003215157Y0001940535D01*
X0003215157Y0002038960D02*
X0003270275Y0002038960D01*
X0003270275Y0001940535D02*
X0003215157Y0001940535D01*
X0003270275Y0001940535D02*
X0003270275Y0002038960D01*
X0003278157Y0002038960D02*
X0003278157Y0001940535D01*
X0003278157Y0002038960D02*
X0003333275Y0002038960D01*
X0003333275Y0001940535D02*
X0003278157Y0001940535D01*
X0003333275Y0001940535D02*
X0003333275Y0002038960D01*
X0003153157Y0002037960D02*
X0003153157Y0001939535D01*
X0003153157Y0002037960D02*
X0003208275Y0002037960D01*
X0003208275Y0001939535D02*
X0003153157Y0001939535D01*
X0003208275Y0001939535D02*
X0003208275Y0002037960D01*
X0002842519Y0002637795D02*
X0002708661Y0002637795D01*
X0002708661Y0002637795D02*
X0002708661Y0002500000D01*
X0002708661Y0002500000D02*
X0002842519Y0002500000D01*
X0002842519Y0002500000D02*
X0002842519Y0002637795D01*
X0003194488Y0002174803D02*
X0003194488Y0002285039D01*
X0003194488Y0002174803D02*
X0003143307Y0002174803D01*
X0003143307Y0002285039D02*
X0003194488Y0002285039D01*
X0003143307Y0002285039D02*
X0003143307Y0002174803D01*
X0003052858Y0002512299D02*
X0002942622Y0002512299D01*
X0003052858Y0002512299D02*
X0003052858Y0002461118D01*
X0002942622Y0002461118D02*
X0002942622Y0002512299D01*
X0002942622Y0002461118D02*
X0003052858Y0002461118D01*
X0003088976Y0002285433D02*
X0003088976Y0002175196D01*
X0003088976Y0002285433D02*
X0003140157Y0002285433D01*
X0003140157Y0002175196D02*
X0003088976Y0002175196D01*
X0003140157Y0002175196D02*
X0003140157Y0002285433D01*
X0003027559Y0002174803D02*
X0003027559Y0002285039D01*
X0003027559Y0002174803D02*
X0002976377Y0002174803D01*
X0002976377Y0002285039D02*
X0003027559Y0002285039D01*
X0002976377Y0002285039D02*
X0002976377Y0002174803D01*
X0003140307Y0001934629D02*
X0003140307Y0002044866D01*
X0003140307Y0001934629D02*
X0003089125Y0001934629D01*
X0003089125Y0002044866D02*
X0003140307Y0002044866D01*
X0003089125Y0002044866D02*
X0003089125Y0001934629D01*
X0003409055Y0002042519D02*
X0003409055Y0001932283D01*
X0003409055Y0002042519D02*
X0003460236Y0002042519D01*
X0003460236Y0001932283D02*
X0003409055Y0001932283D01*
X0003460236Y0001932283D02*
X0003460236Y0002042519D01*
X0003052858Y0002449299D02*
X0002942622Y0002449299D01*
X0003052858Y0002449299D02*
X0003052858Y0002398118D01*
X0002942622Y0002398118D02*
X0002942622Y0002449299D01*
X0002942622Y0002398118D02*
X0003052858Y0002398118D01*
X0003074015Y0002388582D02*
X0003223622Y0002388582D01*
X0003223622Y0002388582D02*
X0003223622Y0002530314D01*
X0003223622Y0002530314D02*
X0003074015Y0002530314D01*
X0003074015Y0002530314D02*
X0003074015Y0002388582D01*
G04 next file*
G04 Gerber Fmt 4.6, Leading zero omitted, Abs format (unit mm)*
G04 Created by KiCad (PCBNEW 4.0.7) date 11/15/17 17:48:19*
G01G01*
G04 APERTURE LIST*
G04 APERTURE END LIST*
D120*
G04 next file*
G04 Gerber Fmt 4.6, Leading zero omitted, Abs format (unit mm)*
G04 Created by KiCad (PCBNEW 4.0.7) date 11/15/17 17:48:19*
G01G01*
G04 APERTURE LIST*
G04 APERTURE END LIST*
D121*
D122*
X0002721361Y0002157761D02*
X0002681991Y0002157761D01*
X0002681991Y0002169759D01*
X0002683866Y0002172759D01*
X0002685740Y0002174259D01*
X0002689490Y0002175759D01*
X0002695114Y0002175759D01*
X0002698864Y0002174259D01*
X0002700739Y0002172759D01*
X0002702613Y0002169759D01*
X0002702613Y0002157761D01*
X0002717611Y0002207255D02*
X0002719486Y0002205755D01*
X0002721361Y0002201256D01*
X0002721361Y0002198256D01*
X0002719486Y0002193757D01*
X0002715737Y0002190757D01*
X0002711987Y0002189257D01*
X0002704488Y0002187757D01*
X0002698864Y0002187757D01*
X0002691365Y0002189257D01*
X0002687615Y0002190757D01*
X0002683866Y0002193757D01*
X0002681991Y0002198256D01*
X0002681991Y0002201256D01*
X0002683866Y0002205755D01*
X0002685740Y0002207255D01*
X0002700739Y0002231252D02*
X0002702613Y0002235751D01*
X0002704488Y0002237251D01*
X0002708238Y0002238751D01*
X0002713862Y0002238751D01*
X0002717611Y0002237251D01*
X0002719486Y0002235751D01*
X0002721361Y0002232752D01*
X0002721361Y0002220753D01*
X0002681991Y0002220753D01*
X0002681991Y0002231252D01*
X0002683866Y0002234251D01*
X0002685740Y0002235751D01*
X0002689490Y0002237251D01*
X0002693239Y0002237251D01*
X0002696989Y0002235751D01*
X0002698864Y0002234251D01*
X0002700739Y0002231252D01*
X0002700739Y0002220753D01*
X0002700739Y0002276246D02*
X0002700739Y0002286745D01*
X0002721361Y0002291244D02*
X0002721361Y0002276246D01*
X0002681991Y0002276246D01*
X0002681991Y0002291244D01*
X0002721361Y0002318241D02*
X0002681991Y0002318241D01*
X0002719486Y0002318241D02*
X0002721361Y0002315241D01*
X0002721361Y0002309242D01*
X0002719486Y0002306242D01*
X0002717611Y0002304743D01*
X0002713862Y0002303243D01*
X0002702613Y0002303243D01*
X0002698864Y0002304743D01*
X0002696989Y0002306242D01*
X0002695114Y0002309242D01*
X0002695114Y0002315241D01*
X0002696989Y0002318241D01*
X0002695114Y0002346737D02*
X0002726985Y0002346737D01*
X0002730735Y0002345238D01*
X0002732610Y0002343738D01*
X0002734484Y0002340738D01*
X0002734484Y0002336239D01*
X0002732610Y0002333239D01*
X0002719486Y0002346737D02*
X0002721361Y0002343738D01*
X0002721361Y0002337739D01*
X0002719486Y0002334739D01*
X0002717611Y0002333239D01*
X0002713862Y0002331739D01*
X0002702613Y0002331739D01*
X0002698864Y0002333239D01*
X0002696989Y0002334739D01*
X0002695114Y0002337739D01*
X0002695114Y0002343738D01*
X0002696989Y0002346737D01*
X0002719486Y0002373734D02*
X0002721361Y0002370734D01*
X0002721361Y0002364735D01*
X0002719486Y0002361736D01*
X0002715737Y0002360236D01*
X0002700739Y0002360236D01*
X0002696989Y0002361736D01*
X0002695114Y0002364735D01*
X0002695114Y0002370734D01*
X0002696989Y0002373734D01*
X0002700739Y0002375234D01*
X0002704488Y0002375234D01*
X0002708238Y0002360236D01*
G04 next file*
G04 Gerber Fmt 4.6, Leading zero omitted, Abs format (unit mm)*
G04 Created by KiCad (PCBNEW 4.0.7) date 11/15/17 17:48:19*
G01G01*
G04 APERTURE LIST*
G04 APERTURE END LIST*
D123*
D124*
X0002633014Y0002508436D02*
X0002635826Y0002505624D01*
X0002638638Y0002499999D01*
X0002638638Y0002485939D01*
X0002635826Y0002480314D01*
X0002633014Y0002477502D01*
X0002627390Y0002474690D01*
X0002621765Y0002474690D01*
X0002613329Y0002477502D01*
X0002579583Y0002511248D01*
X0002579583Y0002474690D01*
X0002638638Y0002455005D02*
X0002638638Y0002418447D01*
X0002616141Y0002438132D01*
X0002616141Y0002429696D01*
X0002613329Y0002424071D01*
X0002610517Y0002421259D01*
X0002604893Y0002418447D01*
X0002590832Y0002418447D01*
X0002585208Y0002421259D01*
X0002582395Y0002424071D01*
X0002579583Y0002429696D01*
X0002579583Y0002446569D01*
X0002582395Y0002452193D01*
X0002585208Y0002455005D01*
X0002585208Y0002393138D02*
X0002582395Y0002390326D01*
X0002579583Y0002393138D01*
X0002582395Y0002395950D01*
X0002585208Y0002393138D01*
X0002579583Y0002393138D01*
X0002638638Y0002353768D02*
X0002638638Y0002348143D01*
X0002635826Y0002342519D01*
X0002633014Y0002339707D01*
X0002627390Y0002336895D01*
X0002616141Y0002334083D01*
X0002602080Y0002334083D01*
X0002590832Y0002336895D01*
X0002585208Y0002339707D01*
X0002582395Y0002342519D01*
X0002579583Y0002348143D01*
X0002579583Y0002353768D01*
X0002582395Y0002359392D01*
X0002585208Y0002362204D01*
X0002590832Y0002365016D01*
X0002602080Y0002367829D01*
X0002616141Y0002367829D01*
X0002627390Y0002365016D01*
X0002633014Y0002362204D01*
X0002635826Y0002359392D01*
X0002638638Y0002353768D01*
X0002638638Y0002297525D02*
X0002638638Y0002291901D01*
X0002635826Y0002286276D01*
X0002633014Y0002283464D01*
X0002627390Y0002280652D01*
X0002616141Y0002277840D01*
X0002602080Y0002277840D01*
X0002590832Y0002280652D01*
X0002585208Y0002283464D01*
X0002582395Y0002286276D01*
X0002579583Y0002291901D01*
X0002579583Y0002297525D01*
X0002582395Y0002303149D01*
X0002585208Y0002305961D01*
X0002590832Y0002308773D01*
X0002602080Y0002311586D01*
X0002616141Y0002311586D01*
X0002627390Y0002308773D01*
X0002633014Y0002305961D01*
X0002635826Y0002303149D01*
X0002638638Y0002297525D01*
X0002638638Y0002241282D02*
X0002638638Y0002235658D01*
X0002635826Y0002230033D01*
X0002633014Y0002227221D01*
X0002627390Y0002224409D01*
X0002616141Y0002221597D01*
X0002602080Y0002221597D01*
X0002590832Y0002224409D01*
X0002585208Y0002227221D01*
X0002582395Y0002230033D01*
X0002579583Y0002235658D01*
X0002579583Y0002241282D01*
X0002582395Y0002246906D01*
X0002585208Y0002249718D01*
X0002590832Y0002252530D01*
X0002602080Y0002255343D01*
X0002616141Y0002255343D01*
X0002627390Y0002252530D01*
X0002633014Y0002249718D01*
X0002635826Y0002246906D01*
X0002638638Y0002241282D01*
X0002579583Y0002151293D02*
X0002618953Y0002151293D01*
X0002613329Y0002151293D02*
X0002616141Y0002148481D01*
X0002618953Y0002142857D01*
X0002618953Y0002134420D01*
X0002616141Y0002128796D01*
X0002610517Y0002125984D01*
X0002579583Y0002125984D01*
X0002610517Y0002125984D02*
X0002616141Y0002123172D01*
X0002618953Y0002117547D01*
X0002618953Y0002109111D01*
X0002616141Y0002103487D01*
X0002610517Y0002100674D01*
X0002579583Y0002100674D01*
X0002579583Y0002072553D02*
X0002618953Y0002072553D01*
X0002613329Y0002072553D02*
X0002616141Y0002069741D01*
X0002618953Y0002064117D01*
X0002618953Y0002055680D01*
X0002616141Y0002050056D01*
X0002610517Y0002047244D01*
X0002579583Y0002047244D01*
X0002610517Y0002047244D02*
X0002616141Y0002044431D01*
X0002618953Y0002038807D01*
X0002618953Y0002030371D01*
X0002616141Y0002024746D01*
X0002610517Y0002021934D01*
X0002579583Y0002021934D01*
X0002659448Y0002716535D02*
X0002659448Y0001811023D01*
X0002677165Y0002716535D02*
X0002553149Y0002716535D01*
X0002677165Y0001811023D02*
X0002553149Y0001811023D01*
X0002659448Y0001811023D02*
X0002636361Y0001855374D01*
X0002659448Y0001811023D02*
X0002682536Y0001855374D01*
X0002659448Y0002716535D02*
X0002636361Y0002672184D01*
X0002659448Y0002716535D02*
X0002682536Y0002672184D01*
X0003055680Y0002865016D02*
X0003092238Y0002865016D01*
X0003072553Y0002842519D01*
X0003080989Y0002842519D01*
X0003086614Y0002839707D01*
X0003089426Y0002836895D01*
X0003092238Y0002831271D01*
X0003092238Y0002817210D01*
X0003089426Y0002811586D01*
X0003086614Y0002808773D01*
X0003080989Y0002805961D01*
X0003064117Y0002805961D01*
X0003058492Y0002808773D01*
X0003055680Y0002811586D01*
X0003148481Y0002805961D02*
X0003114735Y0002805961D01*
X0003131608Y0002805961D02*
X0003131608Y0002865016D01*
X0003125984Y0002856580D01*
X0003120359Y0002850956D01*
X0003114735Y0002848143D01*
X0003173790Y0002811586D02*
X0003176602Y0002808773D01*
X0003173790Y0002805961D01*
X0003170978Y0002808773D01*
X0003173790Y0002811586D01*
X0003173790Y0002805961D01*
X0003210348Y0002839707D02*
X0003204724Y0002842519D01*
X0003201912Y0002845331D01*
X0003199100Y0002850956D01*
X0003199100Y0002853768D01*
X0003201912Y0002859392D01*
X0003204724Y0002862204D01*
X0003210348Y0002865016D01*
X0003221597Y0002865016D01*
X0003227221Y0002862204D01*
X0003230033Y0002859392D01*
X0003232845Y0002853768D01*
X0003232845Y0002850956D01*
X0003230033Y0002845331D01*
X0003227221Y0002842519D01*
X0003221597Y0002839707D01*
X0003210348Y0002839707D01*
X0003204724Y0002836895D01*
X0003201912Y0002834083D01*
X0003199100Y0002828458D01*
X0003199100Y0002817210D01*
X0003201912Y0002811586D01*
X0003204724Y0002808773D01*
X0003210348Y0002805961D01*
X0003221597Y0002805961D01*
X0003227221Y0002808773D01*
X0003230033Y0002811586D01*
X0003232845Y0002817210D01*
X0003232845Y0002828458D01*
X0003230033Y0002834083D01*
X0003227221Y0002836895D01*
X0003221597Y0002839707D01*
X0003269403Y0002865016D02*
X0003275028Y0002865016D01*
X0003280652Y0002862204D01*
X0003283464Y0002859392D01*
X0003286276Y0002853768D01*
X0003289088Y0002842519D01*
X0003289088Y0002828458D01*
X0003286276Y0002817210D01*
X0003283464Y0002811586D01*
X0003280652Y0002808773D01*
X0003275028Y0002805961D01*
X0003269403Y0002805961D01*
X0003263779Y0002808773D01*
X0003260967Y0002811586D01*
X0003258155Y0002817210D01*
X0003255343Y0002828458D01*
X0003255343Y0002842519D01*
X0003258155Y0002853768D01*
X0003260967Y0002859392D01*
X0003263779Y0002862204D01*
X0003269403Y0002865016D01*
X0003325646Y0002865016D02*
X0003331271Y0002865016D01*
X0003336895Y0002862204D01*
X0003339707Y0002859392D01*
X0003342519Y0002853768D01*
X0003345331Y0002842519D01*
X0003345331Y0002828458D01*
X0003342519Y0002817210D01*
X0003339707Y0002811586D01*
X0003336895Y0002808773D01*
X0003331271Y0002805961D01*
X0003325646Y0002805961D01*
X0003320022Y0002808773D01*
X0003317210Y0002811586D01*
X0003314398Y0002817210D01*
X0003311586Y0002828458D01*
X0003311586Y0002842519D01*
X0003314398Y0002853768D01*
X0003317210Y0002859392D01*
X0003320022Y0002862204D01*
X0003325646Y0002865016D01*
X0003415635Y0002805961D02*
X0003415635Y0002845331D01*
X0003415635Y0002839707D02*
X0003418447Y0002842519D01*
X0003424071Y0002845331D01*
X0003432508Y0002845331D01*
X0003438132Y0002842519D01*
X0003440944Y0002836895D01*
X0003440944Y0002805961D01*
X0003440944Y0002836895D02*
X0003443757Y0002842519D01*
X0003449381Y0002845331D01*
X0003457817Y0002845331D01*
X0003463442Y0002842519D01*
X0003466254Y0002836895D01*
X0003466254Y0002805961D01*
X0003494375Y0002805961D02*
X0003494375Y0002845331D01*
X0003494375Y0002839707D02*
X0003497187Y0002842519D01*
X0003502812Y0002845331D01*
X0003511248Y0002845331D01*
X0003516872Y0002842519D01*
X0003519685Y0002836895D01*
X0003519685Y0002805961D01*
X0003519685Y0002836895D02*
X0003522497Y0002842519D01*
X0003528121Y0002845331D01*
X0003536557Y0002845331D01*
X0003542182Y0002842519D01*
X0003544994Y0002836895D01*
X0003544994Y0002805961D01*
X0002677165Y0002779527D02*
X0003929133Y0002779527D01*
X0002677165Y0002716535D02*
X0002677165Y0002885826D01*
X0003929133Y0002716535D02*
X0003929133Y0002885826D01*
X0003929133Y0002779527D02*
X0003884783Y0002756440D01*
X0003929133Y0002779527D02*
X0003884783Y0002802615D01*
X0002677165Y0002779527D02*
X0002721515Y0002756440D01*
X0002677165Y0002779527D02*
X0002721515Y0002802615D01*
G04 next file*
G04 Gerber Fmt 4.6, Leading zero omitted, Abs format (unit mm)*
G04 Created by KiCad (PCBNEW 4.0.7) date 11/15/17 17:48:19*
G01G01*
G04 APERTURE LIST*
G04 APERTURE END LIST*
D125*
G04 next file*
G04 Gerber Fmt 4.6, Leading zero omitted, Abs format (unit mm)*
G04 Created by KiCad (PCBNEW 4.0.7) date 11/15/17 17:48:19*
G01G01*
G04 APERTURE LIST*
G04 APERTURE END LIST*
D126*
D127*
X0002666149Y0002438976D02*
X0002666149Y0002092519D01*
X0002906307Y0002092519D02*
X0002666149Y0002092519D01*
X0002906307Y0002438976D02*
X0002906307Y0002092519D01*
X0002666149Y0002438976D02*
X0002906307Y0002438976D01*
X0003725803Y0002668204D02*
X0003084070Y0002668204D01*
X0003084070Y0002668204D02*
X0003084070Y0002526472D01*
X0003084070Y0002526472D02*
X0003725803Y0002526472D01*
X0003725803Y0002526472D02*
X0003725803Y0002668204D01*
X0002952700Y0001993606D02*
X0003173173Y0001993606D01*
X0003173173Y0001993606D02*
X0003173173Y0002469984D01*
X0003173173Y0002469984D02*
X0002952700Y0002469984D01*
X0002952700Y0002469984D02*
X0002952700Y0001993606D01*
X0003060708Y0001965803D02*
X0003060708Y0001898874D01*
X0003060708Y0001898874D02*
X0002907165Y0001898874D01*
X0002907165Y0001898874D02*
X0002907165Y0001965803D01*
X0002907165Y0001965803D02*
X0003060708Y0001965803D01*
X0003721689Y0001895427D02*
X0003654760Y0001895427D01*
X0003654760Y0001895427D02*
X0003654760Y0002048970D01*
X0003654760Y0002048970D02*
X0003721689Y0002048970D01*
X0003721689Y0002048970D02*
X0003721689Y0001895427D01*
X0003636755Y0001894606D02*
X0003569826Y0001894606D01*
X0003569826Y0001894606D02*
X0003569826Y0002048149D01*
X0003569826Y0002048149D02*
X0003636755Y0002048149D01*
X0003636755Y0002048149D02*
X0003636755Y0001894606D01*
G04 next file*
G04 Gerber Fmt 4.6, Leading zero omitted, Abs format (unit mm)*
G04 Created by KiCad (PCBNEW 4.0.7) date 11/15/17 17:48:19*
G01G01*
G04 APERTURE LIST*
G04 APERTURE END LIST*
D128*
G04 next file*
G04 Gerber Fmt 4.6, Leading zero omitted, Abs format (unit mm)*
G04 Created by KiCad (PCBNEW 4.0.7) date 11/15/17 17:48:19*
G01G01*
G04 APERTURE LIST*
G04 APERTURE END LIST*
D129*
D130*
X0003215157Y0003055511D02*
X0003215157Y0002957086D01*
X0003215157Y0003055511D02*
X0003270275Y0003055511D01*
X0003270275Y0002957086D02*
X0003215157Y0002957086D01*
X0003270275Y0002957086D02*
X0003270275Y0003055511D01*
X0003602362Y0002964173D02*
X0003602362Y0003062598D01*
X0003602362Y0002964173D02*
X0003547244Y0002964173D01*
X0003547244Y0003062598D02*
X0003602362Y0003062598D01*
X0003547244Y0003062598D02*
X0003547244Y0002964173D01*
X0003437795Y0003058267D02*
X0003437795Y0002959842D01*
X0003437795Y0003058267D02*
X0003492913Y0003058267D01*
X0003492913Y0002959842D02*
X0003437795Y0002959842D01*
X0003492913Y0002959842D02*
X0003492913Y0003058267D01*
X0003372834Y0003340551D02*
X0003372834Y0003438976D01*
X0003372834Y0003340551D02*
X0003317716Y0003340551D01*
X0003317716Y0003438976D02*
X0003372834Y0003438976D01*
X0003317716Y0003438976D02*
X0003317716Y0003340551D01*
X0003335496Y0003088976D02*
X0003335496Y0003187401D01*
X0003335496Y0003088976D02*
X0003280377Y0003088976D01*
X0003280377Y0003187401D02*
X0003335496Y0003187401D01*
X0003280377Y0003187401D02*
X0003280377Y0003088976D01*
X0003345275Y0002948031D02*
X0003345275Y0002837795D01*
X0003345275Y0002948031D02*
X0003396456Y0002948031D01*
X0003396456Y0002837795D02*
X0003345275Y0002837795D01*
X0003396456Y0002837795D02*
X0003396456Y0002948031D01*
X0003622527Y0003083070D02*
X0003622527Y0003193307D01*
X0003622527Y0003083070D02*
X0003571346Y0003083070D01*
X0003571346Y0003193307D02*
X0003622527Y0003193307D01*
X0003571346Y0003193307D02*
X0003571346Y0003083070D01*
X0003505905Y0003334645D02*
X0003505905Y0003444881D01*
X0003505905Y0003334645D02*
X0003454724Y0003334645D01*
X0003454724Y0003444881D02*
X0003505905Y0003444881D01*
X0003454724Y0003444881D02*
X0003454724Y0003334645D01*
X0003261527Y0003080732D02*
X0003261527Y0003190968D01*
X0003261527Y0003080732D02*
X0003210346Y0003080732D01*
X0003210346Y0003190968D02*
X0003261527Y0003190968D01*
X0003210346Y0003190968D02*
X0003210346Y0003080732D01*
X0003050000Y0002834645D02*
X0003050000Y0002933070D01*
X0003050000Y0002834645D02*
X0002994881Y0002834645D01*
X0002994881Y0002933070D02*
X0003050000Y0002933070D01*
X0002994881Y0002933070D02*
X0002994881Y0002834645D01*
X0003660665Y0002927316D02*
X0003660665Y0002828891D01*
X0003660665Y0002927316D02*
X0003715783Y0002927316D01*
X0003715783Y0002828891D02*
X0003660665Y0002828891D01*
X0003715783Y0002828891D02*
X0003715783Y0002927316D01*
X0003630850Y0002827677D02*
X0003630850Y0002926102D01*
X0003630850Y0002827677D02*
X0003575732Y0002827677D01*
X0003575732Y0002926102D02*
X0003630850Y0002926102D01*
X0003575732Y0002926102D02*
X0003575732Y0002827677D01*
X0002975196Y0002833858D02*
X0002825590Y0002833858D01*
X0002975196Y0002975590D02*
X0002975196Y0002833858D01*
X0002825590Y0002975590D02*
X0002975196Y0002975590D01*
X0002825590Y0002833858D02*
X0002825590Y0002975590D01*
X0003385433Y0003438976D02*
X0003385433Y0003340551D01*
X0003385433Y0003438976D02*
X0003440551Y0003438976D01*
X0003440551Y0003340551D02*
X0003385433Y0003340551D01*
X0003440551Y0003340551D02*
X0003440551Y0003438976D01*
X0003348377Y0003187401D02*
X0003348377Y0003088976D01*
X0003348377Y0003187401D02*
X0003403496Y0003187401D01*
X0003403496Y0003088976D02*
X0003348377Y0003088976D01*
X0003403496Y0003088976D02*
X0003403496Y0003187401D01*
X0003468496Y0003088976D02*
X0003468496Y0003187401D01*
X0003468496Y0003088976D02*
X0003413377Y0003088976D01*
X0003413377Y0003187401D02*
X0003468496Y0003187401D01*
X0003413377Y0003187401D02*
X0003413377Y0003088976D01*
X0003505118Y0003187401D02*
X0003505118Y0003088976D01*
X0003505118Y0003187401D02*
X0003560236Y0003187401D01*
X0003560236Y0003088976D02*
X0003505118Y0003088976D01*
X0003560236Y0003088976D02*
X0003560236Y0003187401D01*
X0002989614Y0003530968D02*
X0002989614Y0003432543D01*
X0002989614Y0003530968D02*
X0003044732Y0003530968D01*
X0003044732Y0003432543D02*
X0002989614Y0003432543D01*
X0003044732Y0003432543D02*
X0003044732Y0003530968D01*
X0003246850Y0003441732D02*
X0003246850Y0003343307D01*
X0003246850Y0003441732D02*
X0003301968Y0003441732D01*
X0003301968Y0003343307D02*
X0003246850Y0003343307D01*
X0003301968Y0003343307D02*
X0003301968Y0003441732D01*
X0002912732Y0003432543D02*
X0002912732Y0003530968D01*
X0002912732Y0003432543D02*
X0002857614Y0003432543D01*
X0002857614Y0003530968D02*
X0002912732Y0003530968D01*
X0002857614Y0003530968D02*
X0002857614Y0003432543D01*
X0002923614Y0003530968D02*
X0002923614Y0003432543D01*
X0002923614Y0003530968D02*
X0002978732Y0003530968D01*
X0002978732Y0003432543D02*
X0002923614Y0003432543D01*
X0002978732Y0003432543D02*
X0002978732Y0003530968D01*
X0002740377Y0003253590D02*
X0002740377Y0003155165D01*
X0002740377Y0003253590D02*
X0002795496Y0003253590D01*
X0002795496Y0003155165D02*
X0002740377Y0003155165D01*
X0002795496Y0003155165D02*
X0002795496Y0003253590D01*
X0002698448Y0002866173D02*
X0002796874Y0002866173D01*
X0002698448Y0002866173D02*
X0002698448Y0002921291D01*
X0002796874Y0002921291D02*
X0002796874Y0002866173D01*
X0002796874Y0002921291D02*
X0002698448Y0002921291D01*
X0002795929Y0002985291D02*
X0002697503Y0002985291D01*
X0002795929Y0002985291D02*
X0002795929Y0002930173D01*
X0002697503Y0002930173D02*
X0002697503Y0002985291D01*
X0002697503Y0002930173D02*
X0002795929Y0002930173D01*
X0002698448Y0002800173D02*
X0002796874Y0002800173D01*
X0002698448Y0002800173D02*
X0002698448Y0002855291D01*
X0002796874Y0002855291D02*
X0002796874Y0002800173D01*
X0002796874Y0002855291D02*
X0002698448Y0002855291D01*
X0003215157Y0002944472D02*
X0003215157Y0002846047D01*
X0003215157Y0002944472D02*
X0003270275Y0002944472D01*
X0003270275Y0002846047D02*
X0003215157Y0002846047D01*
X0003270275Y0002846047D02*
X0003270275Y0002944472D01*
X0003278157Y0002944472D02*
X0003278157Y0002846047D01*
X0003278157Y0002944472D02*
X0003333275Y0002944472D01*
X0003333275Y0002846047D02*
X0003278157Y0002846047D01*
X0003333275Y0002846047D02*
X0003333275Y0002944472D01*
X0003153157Y0002943472D02*
X0003153157Y0002845047D01*
X0003153157Y0002943472D02*
X0003208275Y0002943472D01*
X0003208275Y0002845047D02*
X0003153157Y0002845047D01*
X0003208275Y0002845047D02*
X0003208275Y0002943472D01*
X0002842519Y0003543307D02*
X0002708661Y0003543307D01*
X0002708661Y0003543307D02*
X0002708661Y0003405511D01*
X0002708661Y0003405511D02*
X0002842519Y0003405511D01*
X0002842519Y0003405511D02*
X0002842519Y0003543307D01*
X0003194488Y0003080314D02*
X0003194488Y0003190551D01*
X0003194488Y0003080314D02*
X0003143307Y0003080314D01*
X0003143307Y0003190551D02*
X0003194488Y0003190551D01*
X0003143307Y0003190551D02*
X0003143307Y0003080314D01*
X0003052858Y0003417811D02*
X0002942622Y0003417811D01*
X0003052858Y0003417811D02*
X0003052858Y0003366629D01*
X0002942622Y0003366629D02*
X0002942622Y0003417811D01*
X0002942622Y0003366629D02*
X0003052858Y0003366629D01*
X0003088976Y0003190944D02*
X0003088976Y0003080708D01*
X0003088976Y0003190944D02*
X0003140157Y0003190944D01*
X0003140157Y0003080708D02*
X0003088976Y0003080708D01*
X0003140157Y0003080708D02*
X0003140157Y0003190944D01*
X0003027559Y0003080314D02*
X0003027559Y0003190551D01*
X0003027559Y0003080314D02*
X0002976377Y0003080314D01*
X0002976377Y0003190551D02*
X0003027559Y0003190551D01*
X0002976377Y0003190551D02*
X0002976377Y0003080314D01*
X0003140307Y0002840141D02*
X0003140307Y0002950377D01*
X0003140307Y0002840141D02*
X0003089125Y0002840141D01*
X0003089125Y0002950377D02*
X0003140307Y0002950377D01*
X0003089125Y0002950377D02*
X0003089125Y0002840141D01*
X0003409055Y0002948031D02*
X0003409055Y0002837795D01*
X0003409055Y0002948031D02*
X0003460236Y0002948031D01*
X0003460236Y0002837795D02*
X0003409055Y0002837795D01*
X0003460236Y0002837795D02*
X0003460236Y0002948031D01*
X0003052858Y0003354811D02*
X0002942622Y0003354811D01*
X0003052858Y0003354811D02*
X0003052858Y0003303629D01*
X0002942622Y0003303629D02*
X0002942622Y0003354811D01*
X0002942622Y0003303629D02*
X0003052858Y0003303629D01*
X0003074015Y0003294094D02*
X0003223622Y0003294094D01*
X0003223622Y0003294094D02*
X0003223622Y0003435826D01*
X0003223622Y0003435826D02*
X0003074015Y0003435826D01*
X0003074015Y0003435826D02*
X0003074015Y0003294094D01*
G04 next file*
G04 Gerber Fmt 4.6, Leading zero omitted, Abs format (unit mm)*
G04 Created by KiCad (PCBNEW 4.0.7) date 11/15/17 17:48:19*
G01G01*
G04 APERTURE LIST*
G04 APERTURE END LIST*
D131*
G04 next file*
G04 Gerber Fmt 4.6, Leading zero omitted, Abs format (unit mm)*
G04 Created by KiCad (PCBNEW 4.0.7) date 11/15/17 17:48:19*
G01G01*
G04 APERTURE LIST*
G04 APERTURE END LIST*
D132*
D133*
X0002721361Y0003063273D02*
X0002681991Y0003063273D01*
X0002681991Y0003075271D01*
X0002683866Y0003078271D01*
X0002685740Y0003079771D01*
X0002689490Y0003081271D01*
X0002695114Y0003081271D01*
X0002698864Y0003079771D01*
X0002700739Y0003078271D01*
X0002702613Y0003075271D01*
X0002702613Y0003063273D01*
X0002717611Y0003112767D02*
X0002719486Y0003111267D01*
X0002721361Y0003106767D01*
X0002721361Y0003103768D01*
X0002719486Y0003099268D01*
X0002715737Y0003096269D01*
X0002711987Y0003094769D01*
X0002704488Y0003093269D01*
X0002698864Y0003093269D01*
X0002691365Y0003094769D01*
X0002687615Y0003096269D01*
X0002683866Y0003099268D01*
X0002681991Y0003103768D01*
X0002681991Y0003106767D01*
X0002683866Y0003111267D01*
X0002685740Y0003112767D01*
X0002700739Y0003136764D02*
X0002702613Y0003141263D01*
X0002704488Y0003142763D01*
X0002708238Y0003144263D01*
X0002713862Y0003144263D01*
X0002717611Y0003142763D01*
X0002719486Y0003141263D01*
X0002721361Y0003138263D01*
X0002721361Y0003126265D01*
X0002681991Y0003126265D01*
X0002681991Y0003136764D01*
X0002683866Y0003139763D01*
X0002685740Y0003141263D01*
X0002689490Y0003142763D01*
X0002693239Y0003142763D01*
X0002696989Y0003141263D01*
X0002698864Y0003139763D01*
X0002700739Y0003136764D01*
X0002700739Y0003126265D01*
X0002700739Y0003181758D02*
X0002700739Y0003192257D01*
X0002721361Y0003196756D02*
X0002721361Y0003181758D01*
X0002681991Y0003181758D01*
X0002681991Y0003196756D01*
X0002721361Y0003223753D02*
X0002681991Y0003223753D01*
X0002719486Y0003223753D02*
X0002721361Y0003220753D01*
X0002721361Y0003214754D01*
X0002719486Y0003211754D01*
X0002717611Y0003210254D01*
X0002713862Y0003208755D01*
X0002702613Y0003208755D01*
X0002698864Y0003210254D01*
X0002696989Y0003211754D01*
X0002695114Y0003214754D01*
X0002695114Y0003220753D01*
X0002696989Y0003223753D01*
X0002695114Y0003252249D02*
X0002726985Y0003252249D01*
X0002730735Y0003250749D01*
X0002732610Y0003249250D01*
X0002734484Y0003246250D01*
X0002734484Y0003241751D01*
X0002732610Y0003238751D01*
X0002719486Y0003252249D02*
X0002721361Y0003249250D01*
X0002721361Y0003243250D01*
X0002719486Y0003240251D01*
X0002717611Y0003238751D01*
X0002713862Y0003237251D01*
X0002702613Y0003237251D01*
X0002698864Y0003238751D01*
X0002696989Y0003240251D01*
X0002695114Y0003243250D01*
X0002695114Y0003249250D01*
X0002696989Y0003252249D01*
X0002719486Y0003279246D02*
X0002721361Y0003276246D01*
X0002721361Y0003270247D01*
X0002719486Y0003267247D01*
X0002715737Y0003265748D01*
X0002700739Y0003265748D01*
X0002696989Y0003267247D01*
X0002695114Y0003270247D01*
X0002695114Y0003276246D01*
X0002696989Y0003279246D01*
X0002700739Y0003280746D01*
X0002704488Y0003280746D01*
X0002708238Y0003265748D01*
G04 next file*
G04 Gerber Fmt 4.6, Leading zero omitted, Abs format (unit mm)*
G04 Created by KiCad (PCBNEW 4.0.7) date 11/15/17 17:48:19*
G01G01*
G04 APERTURE LIST*
G04 APERTURE END LIST*
D134*
D135*
X0002633014Y0003413948D02*
X0002635826Y0003411136D01*
X0002638638Y0003405511D01*
X0002638638Y0003391451D01*
X0002635826Y0003385826D01*
X0002633014Y0003383014D01*
X0002627390Y0003380202D01*
X0002621765Y0003380202D01*
X0002613329Y0003383014D01*
X0002579583Y0003416760D01*
X0002579583Y0003380202D01*
X0002638638Y0003360517D02*
X0002638638Y0003323959D01*
X0002616141Y0003343644D01*
X0002616141Y0003335208D01*
X0002613329Y0003329583D01*
X0002610517Y0003326771D01*
X0002604893Y0003323959D01*
X0002590832Y0003323959D01*
X0002585208Y0003326771D01*
X0002582395Y0003329583D01*
X0002579583Y0003335208D01*
X0002579583Y0003352080D01*
X0002582395Y0003357705D01*
X0002585208Y0003360517D01*
X0002585208Y0003298650D02*
X0002582395Y0003295838D01*
X0002579583Y0003298650D01*
X0002582395Y0003301462D01*
X0002585208Y0003298650D01*
X0002579583Y0003298650D01*
X0002638638Y0003259280D02*
X0002638638Y0003253655D01*
X0002635826Y0003248031D01*
X0002633014Y0003245219D01*
X0002627390Y0003242407D01*
X0002616141Y0003239595D01*
X0002602080Y0003239595D01*
X0002590832Y0003242407D01*
X0002585208Y0003245219D01*
X0002582395Y0003248031D01*
X0002579583Y0003253655D01*
X0002579583Y0003259280D01*
X0002582395Y0003264904D01*
X0002585208Y0003267716D01*
X0002590832Y0003270528D01*
X0002602080Y0003273340D01*
X0002616141Y0003273340D01*
X0002627390Y0003270528D01*
X0002633014Y0003267716D01*
X0002635826Y0003264904D01*
X0002638638Y0003259280D01*
X0002638638Y0003203037D02*
X0002638638Y0003197412D01*
X0002635826Y0003191788D01*
X0002633014Y0003188976D01*
X0002627390Y0003186164D01*
X0002616141Y0003183352D01*
X0002602080Y0003183352D01*
X0002590832Y0003186164D01*
X0002585208Y0003188976D01*
X0002582395Y0003191788D01*
X0002579583Y0003197412D01*
X0002579583Y0003203037D01*
X0002582395Y0003208661D01*
X0002585208Y0003211473D01*
X0002590832Y0003214285D01*
X0002602080Y0003217097D01*
X0002616141Y0003217097D01*
X0002627390Y0003214285D01*
X0002633014Y0003211473D01*
X0002635826Y0003208661D01*
X0002638638Y0003203037D01*
X0002638638Y0003146794D02*
X0002638638Y0003141169D01*
X0002635826Y0003135545D01*
X0002633014Y0003132733D01*
X0002627390Y0003129921D01*
X0002616141Y0003127109D01*
X0002602080Y0003127109D01*
X0002590832Y0003129921D01*
X0002585208Y0003132733D01*
X0002582395Y0003135545D01*
X0002579583Y0003141169D01*
X0002579583Y0003146794D01*
X0002582395Y0003152418D01*
X0002585208Y0003155230D01*
X0002590832Y0003158042D01*
X0002602080Y0003160854D01*
X0002616141Y0003160854D01*
X0002627390Y0003158042D01*
X0002633014Y0003155230D01*
X0002635826Y0003152418D01*
X0002638638Y0003146794D01*
X0002579583Y0003056805D02*
X0002618953Y0003056805D01*
X0002613329Y0003056805D02*
X0002616141Y0003053993D01*
X0002618953Y0003048368D01*
X0002618953Y0003039932D01*
X0002616141Y0003034308D01*
X0002610517Y0003031496D01*
X0002579583Y0003031496D01*
X0002610517Y0003031496D02*
X0002616141Y0003028683D01*
X0002618953Y0003023059D01*
X0002618953Y0003014623D01*
X0002616141Y0003008998D01*
X0002610517Y0003006186D01*
X0002579583Y0003006186D01*
X0002579583Y0002978065D02*
X0002618953Y0002978065D01*
X0002613329Y0002978065D02*
X0002616141Y0002975253D01*
X0002618953Y0002969628D01*
X0002618953Y0002961192D01*
X0002616141Y0002955568D01*
X0002610517Y0002952755D01*
X0002579583Y0002952755D01*
X0002610517Y0002952755D02*
X0002616141Y0002949943D01*
X0002618953Y0002944319D01*
X0002618953Y0002935883D01*
X0002616141Y0002930258D01*
X0002610517Y0002927446D01*
X0002579583Y0002927446D01*
X0002659448Y0003622047D02*
X0002659448Y0002716535D01*
X0002677165Y0003622047D02*
X0002553149Y0003622047D01*
X0002677165Y0002716535D02*
X0002553149Y0002716535D01*
X0002659448Y0002716535D02*
X0002636361Y0002760885D01*
X0002659448Y0002716535D02*
X0002682536Y0002760885D01*
X0002659448Y0003622047D02*
X0002636361Y0003577696D01*
X0002659448Y0003622047D02*
X0002682536Y0003577696D01*
X0003055680Y0003770528D02*
X0003092238Y0003770528D01*
X0003072553Y0003748031D01*
X0003080989Y0003748031D01*
X0003086614Y0003745219D01*
X0003089426Y0003742407D01*
X0003092238Y0003736782D01*
X0003092238Y0003722722D01*
X0003089426Y0003717097D01*
X0003086614Y0003714285D01*
X0003080989Y0003711473D01*
X0003064117Y0003711473D01*
X0003058492Y0003714285D01*
X0003055680Y0003717097D01*
X0003148481Y0003711473D02*
X0003114735Y0003711473D01*
X0003131608Y0003711473D02*
X0003131608Y0003770528D01*
X0003125984Y0003762092D01*
X0003120359Y0003756467D01*
X0003114735Y0003753655D01*
X0003173790Y0003717097D02*
X0003176602Y0003714285D01*
X0003173790Y0003711473D01*
X0003170978Y0003714285D01*
X0003173790Y0003717097D01*
X0003173790Y0003711473D01*
X0003210348Y0003745219D02*
X0003204724Y0003748031D01*
X0003201912Y0003750843D01*
X0003199100Y0003756467D01*
X0003199100Y0003759280D01*
X0003201912Y0003764904D01*
X0003204724Y0003767716D01*
X0003210348Y0003770528D01*
X0003221597Y0003770528D01*
X0003227221Y0003767716D01*
X0003230033Y0003764904D01*
X0003232845Y0003759280D01*
X0003232845Y0003756467D01*
X0003230033Y0003750843D01*
X0003227221Y0003748031D01*
X0003221597Y0003745219D01*
X0003210348Y0003745219D01*
X0003204724Y0003742407D01*
X0003201912Y0003739595D01*
X0003199100Y0003733970D01*
X0003199100Y0003722722D01*
X0003201912Y0003717097D01*
X0003204724Y0003714285D01*
X0003210348Y0003711473D01*
X0003221597Y0003711473D01*
X0003227221Y0003714285D01*
X0003230033Y0003717097D01*
X0003232845Y0003722722D01*
X0003232845Y0003733970D01*
X0003230033Y0003739595D01*
X0003227221Y0003742407D01*
X0003221597Y0003745219D01*
X0003269403Y0003770528D02*
X0003275028Y0003770528D01*
X0003280652Y0003767716D01*
X0003283464Y0003764904D01*
X0003286276Y0003759280D01*
X0003289088Y0003748031D01*
X0003289088Y0003733970D01*
X0003286276Y0003722722D01*
X0003283464Y0003717097D01*
X0003280652Y0003714285D01*
X0003275028Y0003711473D01*
X0003269403Y0003711473D01*
X0003263779Y0003714285D01*
X0003260967Y0003717097D01*
X0003258155Y0003722722D01*
X0003255343Y0003733970D01*
X0003255343Y0003748031D01*
X0003258155Y0003759280D01*
X0003260967Y0003764904D01*
X0003263779Y0003767716D01*
X0003269403Y0003770528D01*
X0003325646Y0003770528D02*
X0003331271Y0003770528D01*
X0003336895Y0003767716D01*
X0003339707Y0003764904D01*
X0003342519Y0003759280D01*
X0003345331Y0003748031D01*
X0003345331Y0003733970D01*
X0003342519Y0003722722D01*
X0003339707Y0003717097D01*
X0003336895Y0003714285D01*
X0003331271Y0003711473D01*
X0003325646Y0003711473D01*
X0003320022Y0003714285D01*
X0003317210Y0003717097D01*
X0003314398Y0003722722D01*
X0003311586Y0003733970D01*
X0003311586Y0003748031D01*
X0003314398Y0003759280D01*
X0003317210Y0003764904D01*
X0003320022Y0003767716D01*
X0003325646Y0003770528D01*
X0003415635Y0003711473D02*
X0003415635Y0003750843D01*
X0003415635Y0003745219D02*
X0003418447Y0003748031D01*
X0003424071Y0003750843D01*
X0003432508Y0003750843D01*
X0003438132Y0003748031D01*
X0003440944Y0003742407D01*
X0003440944Y0003711473D01*
X0003440944Y0003742407D02*
X0003443757Y0003748031D01*
X0003449381Y0003750843D01*
X0003457817Y0003750843D01*
X0003463442Y0003748031D01*
X0003466254Y0003742407D01*
X0003466254Y0003711473D01*
X0003494375Y0003711473D02*
X0003494375Y0003750843D01*
X0003494375Y0003745219D02*
X0003497187Y0003748031D01*
X0003502812Y0003750843D01*
X0003511248Y0003750843D01*
X0003516872Y0003748031D01*
X0003519685Y0003742407D01*
X0003519685Y0003711473D01*
X0003519685Y0003742407D02*
X0003522497Y0003748031D01*
X0003528121Y0003750843D01*
X0003536557Y0003750843D01*
X0003542182Y0003748031D01*
X0003544994Y0003742407D01*
X0003544994Y0003711473D01*
X0002677165Y0003685039D02*
X0003929133Y0003685039D01*
X0002677165Y0003622047D02*
X0002677165Y0003791338D01*
X0003929133Y0003622047D02*
X0003929133Y0003791338D01*
X0003929133Y0003685039D02*
X0003884783Y0003661951D01*
X0003929133Y0003685039D02*
X0003884783Y0003708126D01*
X0002677165Y0003685039D02*
X0002721515Y0003661951D01*
X0002677165Y0003685039D02*
X0002721515Y0003708126D01*
G04 next file*
G04 Gerber Fmt 4.6, Leading zero omitted, Abs format (unit mm)*
G04 Created by KiCad (PCBNEW 4.0.7) date 11/15/17 17:48:19*
G01G01*
G04 APERTURE LIST*
G04 APERTURE END LIST*
D136*
G04 next file*
G04 Gerber Fmt 4.6, Leading zero omitted, Abs format (unit mm)*
G04 Created by KiCad (PCBNEW 4.0.7) date 11/15/17 17:48:19*
G01G01*
G04 APERTURE LIST*
G04 APERTURE END LIST*
D137*
D138*
X0002666149Y0003344488D02*
X0002666149Y0002998031D01*
X0002906307Y0002998031D02*
X0002666149Y0002998031D01*
X0002906307Y0003344488D02*
X0002906307Y0002998031D01*
X0002666149Y0003344488D02*
X0002906307Y0003344488D01*
X0003725803Y0003573716D02*
X0003084070Y0003573716D01*
X0003084070Y0003573716D02*
X0003084070Y0003431984D01*
X0003084070Y0003431984D02*
X0003725803Y0003431984D01*
X0003725803Y0003431984D02*
X0003725803Y0003573716D01*
X0002952700Y0002899118D02*
X0003173173Y0002899118D01*
X0003173173Y0002899118D02*
X0003173173Y0003375496D01*
X0003173173Y0003375496D02*
X0002952700Y0003375496D01*
X0002952700Y0003375496D02*
X0002952700Y0002899118D01*
X0003060708Y0002871314D02*
X0003060708Y0002804385D01*
X0003060708Y0002804385D02*
X0002907165Y0002804385D01*
X0002907165Y0002804385D02*
X0002907165Y0002871314D01*
X0002907165Y0002871314D02*
X0003060708Y0002871314D01*
X0003721689Y0002800938D02*
X0003654760Y0002800938D01*
X0003654760Y0002800938D02*
X0003654760Y0002954482D01*
X0003654760Y0002954482D02*
X0003721689Y0002954482D01*
X0003721689Y0002954482D02*
X0003721689Y0002800938D01*
X0003636755Y0002800118D02*
X0003569826Y0002800118D01*
X0003569826Y0002800118D02*
X0003569826Y0002953661D01*
X0003569826Y0002953661D02*
X0003636755Y0002953661D01*
X0003636755Y0002953661D02*
X0003636755Y0002800118D01*
G04 next file*
G04 Gerber Fmt 4.6, Leading zero omitted, Abs format (unit mm)*
G04 Created by KiCad (PCBNEW 4.0.7) date 11/15/17 17:48:19*
G01G01*
G04 APERTURE LIST*
G04 APERTURE END LIST*
D139*
M02*