%MOIN*%
%OFA0B0*%
%FSLAX46Y46*%
%IPPOS*%
%LPD*%
%ADD10C,0.0039370078740157488*%
%ADD21C,0.0039370078740157488*%
%ADD22R,0.074803149606299218X0.059055118110236227*%
%ADD23R,0.053149606299212608X0.015748031496062995*%
%ADD24R,0.066929133858267723X0.03937007874015748*%
%ADD25R,0.047244094488188976X0.047244094488188976*%
%ADD26R,0.074803149606299218X0.051181102362204731*%
%ADD27C,0.0039370078740157488*%
%ADD28R,0.074803149606299218X0.059055118110236227*%
%ADD29R,0.053149606299212608X0.015748031496062995*%
%ADD30R,0.047244094488188976X0.047244094488188976*%
%ADD31C,0.0039370078740157488*%
%ADD32C,0.0039370078740157488*%
%ADD33C,0.0039370078740157488*%
%ADD34C,0.0039370078740157488*%
%ADD35R,0.074803149606299218X0.059055118110236227*%
%ADD36R,0.053149606299212608X0.015748031496062995*%
%ADD37R,0.066929133858267723X0.03937007874015748*%
%ADD38R,0.047244094488188976X0.047244094488188976*%
%ADD39R,0.074803149606299218X0.051181102362204731*%
%ADD40C,0.0039370078740157488*%
%ADD41R,0.074803149606299218X0.059055118110236227*%
%ADD42R,0.053149606299212608X0.015748031496062995*%
%ADD43R,0.066929133858267723X0.03937007874015748*%
%ADD44R,0.047244094488188976X0.047244094488188976*%
%ADD45R,0.074803149606299218X0.051181102362204731*%
%ADD46C,0.0039370078740157488*%
%ADD47R,0.074803149606299218X0.059055118110236227*%
%ADD48R,0.053149606299212608X0.015748031496062995*%
%ADD49R,0.066929133858267723X0.03937007874015748*%
%ADD50R,0.047244094488188976X0.047244094488188976*%
%ADD51R,0.074803149606299218X0.051181102362204731*%
%ADD52C,0.0039370078740157488*%
%ADD53R,0.074803149606299218X0.059055118110236227*%
%ADD54R,0.053149606299212608X0.015748031496062995*%
%ADD55R,0.047244094488188976X0.047244094488188976*%
%ADD56C,0.0039370078740157488*%
%ADD57R,0.074803149606299218X0.059055118110236227*%
%ADD58R,0.053149606299212608X0.015748031496062995*%
%ADD59R,0.047244094488188976X0.047244094488188976*%
%ADD60C,0.0039370078740157488*%
%ADD61R,0.074803149606299218X0.059055118110236227*%
%ADD62R,0.053149606299212608X0.015748031496062995*%
%ADD63R,0.047244094488188976X0.047244094488188976*%
G01G01*
D10*
G04 next file*
G04 Gerber Fmt 4.6, Leading zero omitted, Abs format (unit mm)*
G04 Created by KiCad (PCBNEW 4.0.7) date 11/15/17 20:03:37*
G01G01*
G04 APERTURE LIST*
G04 APERTURE END LIST*
D21*
D22*
X0000629921Y0000905511D02*
X0000712677Y0000407401D03*
D23*
X0000818976Y0000472362D03*
X0000818976Y0000497952D03*
X0000818976Y0000395590D03*
X0000818976Y0000421181D03*
X0000818976Y0000446771D03*
D22*
X0000712677Y0000486141D03*
D24*
X0000963464Y0000656220D03*
X0001211496Y0000656220D03*
X0000963464Y0000506614D03*
X0001211496Y0000506614D03*
D25*
X0002346141Y0000617244D03*
X0002346141Y0000530629D03*
X0002346141Y0000387322D03*
X0002346141Y0000300708D03*
D26*
X0002079606Y0000539685D03*
X0002079606Y0000323149D03*
X0002205590Y0000323149D03*
X0002205590Y0000539685D03*
D21*
G36*
X0001706631Y0000448475D02*
X0001755349Y0000399757D01*
X0001746997Y0000391406D01*
X0001698279Y0000440124D01*
X0001706631Y0000448475D01*
X0001706631Y0000448475D01*
G37*
G36*
X0001692711Y0000434556D02*
X0001741429Y0000385838D01*
X0001733078Y0000377486D01*
X0001684360Y0000426204D01*
X0001692711Y0000434556D01*
X0001692711Y0000434556D01*
G37*
G36*
X0001678792Y0000420636D02*
X0001727510Y0000371918D01*
X0001719158Y0000363567D01*
X0001670440Y0000412285D01*
X0001678792Y0000420636D01*
X0001678792Y0000420636D01*
G37*
G36*
X0001664873Y0000406717D02*
X0001713590Y0000357999D01*
X0001705239Y0000349647D01*
X0001656521Y0000398365D01*
X0001664873Y0000406717D01*
X0001664873Y0000406717D01*
G37*
G36*
X0001650953Y0000392798D02*
X0001699671Y0000344080D01*
X0001691319Y0000335728D01*
X0001642601Y0000384446D01*
X0001650953Y0000392798D01*
X0001650953Y0000392798D01*
G37*
G36*
X0001677400Y0000321809D02*
X0001628682Y0000370527D01*
X0001637034Y0000378878D01*
X0001685752Y0000330160D01*
X0001677400Y0000321809D01*
X0001677400Y0000321809D01*
G37*
G36*
X0001623114Y0000364959D02*
X0001671832Y0000316241D01*
X0001663481Y0000307889D01*
X0001614763Y0000356607D01*
X0001623114Y0000364959D01*
X0001623114Y0000364959D01*
G37*
G36*
X0001609195Y0000351039D02*
X0001657913Y0000302321D01*
X0001649561Y0000293970D01*
X0001600843Y0000342688D01*
X0001609195Y0000351039D01*
X0001609195Y0000351039D01*
G37*
G36*
X0001595275Y0000337120D02*
X0001643993Y0000288402D01*
X0001635642Y0000280050D01*
X0001586924Y0000328768D01*
X0001595275Y0000337120D01*
X0001595275Y0000337120D01*
G37*
G36*
X0001581356Y0000323200D02*
X0001630074Y0000274483D01*
X0001621722Y0000266131D01*
X0001573004Y0000314849D01*
X0001581356Y0000323200D01*
X0001581356Y0000323200D01*
G37*
G36*
X0001567437Y0000309281D02*
X0001616155Y0000260563D01*
X0001607803Y0000252211D01*
X0001559085Y0000300929D01*
X0001567437Y0000309281D01*
X0001567437Y0000309281D01*
G37*
G36*
X0001553517Y0000295362D02*
X0001602235Y0000246644D01*
X0001593883Y0000238292D01*
X0001545165Y0000287010D01*
X0001553517Y0000295362D01*
X0001553517Y0000295362D01*
G37*
G36*
X0001614763Y0000551479D02*
X0001663481Y0000600197D01*
X0001671832Y0000591845D01*
X0001623114Y0000543127D01*
X0001614763Y0000551479D01*
X0001614763Y0000551479D01*
G37*
G36*
X0001628682Y0000537560D02*
X0001677400Y0000586278D01*
X0001685752Y0000577926D01*
X0001637034Y0000529208D01*
X0001628682Y0000537560D01*
X0001628682Y0000537560D01*
G37*
G36*
X0001642601Y0000523640D02*
X0001691319Y0000572358D01*
X0001699671Y0000564007D01*
X0001650953Y0000515289D01*
X0001642601Y0000523640D01*
X0001642601Y0000523640D01*
G37*
G36*
X0001656521Y0000509721D02*
X0001705239Y0000558439D01*
X0001713590Y0000550087D01*
X0001664873Y0000501369D01*
X0001656521Y0000509721D01*
X0001656521Y0000509721D01*
G37*
G36*
X0001670440Y0000495801D02*
X0001719158Y0000544519D01*
X0001727510Y0000536168D01*
X0001678792Y0000487450D01*
X0001670440Y0000495801D01*
X0001670440Y0000495801D01*
G37*
G36*
X0001684360Y0000481882D02*
X0001733078Y0000530600D01*
X0001741429Y0000522248D01*
X0001692711Y0000473530D01*
X0001684360Y0000481882D01*
X0001684360Y0000481882D01*
G37*
G36*
X0001600843Y0000565399D02*
X0001649561Y0000614116D01*
X0001657913Y0000605765D01*
X0001609195Y0000557047D01*
X0001600843Y0000565399D01*
X0001600843Y0000565399D01*
G37*
G36*
X0001698279Y0000467963D02*
X0001746997Y0000516680D01*
X0001755349Y0000508329D01*
X0001706631Y0000459611D01*
X0001698279Y0000467963D01*
X0001698279Y0000467963D01*
G37*
G36*
X0001586924Y0000579318D02*
X0001635642Y0000628036D01*
X0001643993Y0000619684D01*
X0001595275Y0000570966D01*
X0001586924Y0000579318D01*
X0001586924Y0000579318D01*
G37*
G36*
X0001573004Y0000593237D02*
X0001621722Y0000641955D01*
X0001630074Y0000633604D01*
X0001581356Y0000584886D01*
X0001573004Y0000593237D01*
X0001573004Y0000593237D01*
G37*
G36*
X0001559085Y0000607157D02*
X0001607803Y0000655875D01*
X0001616155Y0000647523D01*
X0001567437Y0000598805D01*
X0001559085Y0000607157D01*
X0001559085Y0000607157D01*
G37*
G36*
X0001545165Y0000621076D02*
X0001593883Y0000669794D01*
X0001602235Y0000661442D01*
X0001553517Y0000612725D01*
X0001545165Y0000621076D01*
X0001545165Y0000621076D01*
G37*
G36*
X0001401795Y0000586278D02*
X0001450513Y0000537560D01*
X0001442162Y0000529208D01*
X0001393444Y0000577926D01*
X0001401795Y0000586278D01*
X0001401795Y0000586278D01*
G37*
G36*
X0001415715Y0000600197D02*
X0001464433Y0000551479D01*
X0001456081Y0000543127D01*
X0001407363Y0000591845D01*
X0001415715Y0000600197D01*
X0001415715Y0000600197D01*
G37*
G36*
X0001429634Y0000614116D02*
X0001478352Y0000565399D01*
X0001470001Y0000557047D01*
X0001421283Y0000605765D01*
X0001429634Y0000614116D01*
X0001429634Y0000614116D01*
G37*
G36*
X0001443554Y0000628036D02*
X0001492272Y0000579318D01*
X0001483920Y0000570966D01*
X0001435202Y0000619684D01*
X0001443554Y0000628036D01*
X0001443554Y0000628036D01*
G37*
G36*
X0001457473Y0000641955D02*
X0001506191Y0000593237D01*
X0001497839Y0000584886D01*
X0001449121Y0000633604D01*
X0001457473Y0000641955D01*
X0001457473Y0000641955D01*
G37*
G36*
X0001471393Y0000655875D02*
X0001520110Y0000607157D01*
X0001511759Y0000598805D01*
X0001463041Y0000647523D01*
X0001471393Y0000655875D01*
X0001471393Y0000655875D01*
G37*
G36*
X0001485312Y0000669794D02*
X0001534030Y0000621076D01*
X0001525678Y0000612725D01*
X0001476960Y0000661442D01*
X0001485312Y0000669794D01*
X0001485312Y0000669794D01*
G37*
G36*
X0001387876Y0000572358D02*
X0001436594Y0000523640D01*
X0001428242Y0000515289D01*
X0001379524Y0000564007D01*
X0001387876Y0000572358D01*
X0001387876Y0000572358D01*
G37*
G36*
X0001373957Y0000558439D02*
X0001422675Y0000509721D01*
X0001414323Y0000501369D01*
X0001365605Y0000550087D01*
X0001373957Y0000558439D01*
X0001373957Y0000558439D01*
G37*
G36*
X0001360037Y0000544519D02*
X0001408755Y0000495801D01*
X0001400403Y0000487450D01*
X0001351685Y0000536168D01*
X0001360037Y0000544519D01*
X0001360037Y0000544519D01*
G37*
G36*
X0001346118Y0000530600D02*
X0001394836Y0000481882D01*
X0001386484Y0000473530D01*
X0001337766Y0000522248D01*
X0001346118Y0000530600D01*
X0001346118Y0000530600D01*
G37*
G36*
X0001332198Y0000516680D02*
X0001380916Y0000467963D01*
X0001372565Y0000459611D01*
X0001323847Y0000508329D01*
X0001332198Y0000516680D01*
X0001332198Y0000516680D01*
G37*
G36*
X0001407363Y0000316241D02*
X0001456081Y0000364959D01*
X0001464433Y0000356607D01*
X0001415715Y0000307889D01*
X0001407363Y0000316241D01*
X0001407363Y0000316241D01*
G37*
G36*
X0001393444Y0000330160D02*
X0001442162Y0000378878D01*
X0001450513Y0000370527D01*
X0001401795Y0000321809D01*
X0001393444Y0000330160D01*
X0001393444Y0000330160D01*
G37*
G36*
X0001421283Y0000302321D02*
X0001470001Y0000351039D01*
X0001478352Y0000342688D01*
X0001429634Y0000293970D01*
X0001421283Y0000302321D01*
X0001421283Y0000302321D01*
G37*
G36*
X0001435202Y0000288402D02*
X0001483920Y0000337120D01*
X0001492272Y0000328768D01*
X0001443554Y0000280050D01*
X0001435202Y0000288402D01*
X0001435202Y0000288402D01*
G37*
G36*
X0001449121Y0000274483D02*
X0001497839Y0000323200D01*
X0001506191Y0000314849D01*
X0001457473Y0000266131D01*
X0001449121Y0000274483D01*
X0001449121Y0000274483D01*
G37*
G36*
X0001463041Y0000260563D02*
X0001511759Y0000309281D01*
X0001520110Y0000300929D01*
X0001471393Y0000252211D01*
X0001463041Y0000260563D01*
X0001463041Y0000260563D01*
G37*
G36*
X0001476960Y0000246644D02*
X0001525678Y0000295362D01*
X0001534030Y0000287010D01*
X0001485312Y0000238292D01*
X0001476960Y0000246644D01*
X0001476960Y0000246644D01*
G37*
G36*
X0001379524Y0000344080D02*
X0001428242Y0000392798D01*
X0001436594Y0000384446D01*
X0001387876Y0000335728D01*
X0001379524Y0000344080D01*
X0001379524Y0000344080D01*
G37*
G36*
X0001365605Y0000357999D02*
X0001414323Y0000406717D01*
X0001422675Y0000398365D01*
X0001373957Y0000349647D01*
X0001365605Y0000357999D01*
X0001365605Y0000357999D01*
G37*
G36*
X0001351685Y0000371918D02*
X0001400403Y0000420636D01*
X0001408755Y0000412285D01*
X0001360037Y0000363567D01*
X0001351685Y0000371918D01*
X0001351685Y0000371918D01*
G37*
G36*
X0001337766Y0000385838D02*
X0001386484Y0000434556D01*
X0001394836Y0000426204D01*
X0001346118Y0000377486D01*
X0001337766Y0000385838D01*
X0001337766Y0000385838D01*
G37*
G36*
X0001323847Y0000399757D02*
X0001372565Y0000448475D01*
X0001380916Y0000440124D01*
X0001332198Y0000391406D01*
X0001323847Y0000399757D01*
X0001323847Y0000399757D01*
G37*
G36*
X0001625898Y0000514175D02*
X0001686030Y0000454043D01*
X0001625898Y0000393911D01*
X0001565766Y0000454043D01*
X0001625898Y0000514175D01*
X0001625898Y0000514175D01*
G37*
G36*
X0001453297Y0000514175D02*
X0001513429Y0000454043D01*
X0001453297Y0000393911D01*
X0001393165Y0000454043D01*
X0001453297Y0000514175D01*
X0001453297Y0000514175D01*
G37*
G36*
X0001539598Y0000427875D02*
X0001599730Y0000367743D01*
X0001539598Y0000307611D01*
X0001479466Y0000367743D01*
X0001539598Y0000427875D01*
X0001539598Y0000427875D01*
G37*
G36*
X0001539598Y0000600475D02*
X0001599730Y0000540344D01*
X0001539598Y0000480212D01*
X0001479466Y0000540344D01*
X0001539598Y0000600475D01*
X0001539598Y0000600475D01*
G37*
G04 next file*
G04 Gerber Fmt 4.6, Leading zero omitted, Abs format (unit mm)*
G04 Created by KiCad (PCBNEW 4.0.7) date 11/15/17 17:48:19*
G01G01*
G04 APERTURE LIST*
G04 APERTURE END LIST*
D27*
G36*
X0003258801Y0000428099D02*
X0003210083Y0000476816D01*
X0003218435Y0000485168D01*
X0003267152Y0000436450D01*
X0003258801Y0000428099D01*
X0003258801Y0000428099D01*
G37*
G36*
X0003272720Y0000442018D02*
X0003224002Y0000490736D01*
X0003232354Y0000499088D01*
X0003281072Y0000450370D01*
X0003272720Y0000442018D01*
X0003272720Y0000442018D01*
G37*
G36*
X0003286640Y0000455937D02*
X0003237922Y0000504655D01*
X0003246273Y0000513007D01*
X0003294991Y0000464289D01*
X0003286640Y0000455937D01*
X0003286640Y0000455937D01*
G37*
G36*
X0003300559Y0000469857D02*
X0003251841Y0000518575D01*
X0003260193Y0000526926D01*
X0003308911Y0000478208D01*
X0003300559Y0000469857D01*
X0003300559Y0000469857D01*
G37*
G36*
X0003314478Y0000483776D02*
X0003265761Y0000532494D01*
X0003274112Y0000540846D01*
X0003322830Y0000492128D01*
X0003314478Y0000483776D01*
X0003314478Y0000483776D01*
G37*
G36*
X0003288032Y0000554765D02*
X0003336750Y0000506047D01*
X0003328398Y0000497696D01*
X0003279680Y0000546414D01*
X0003288032Y0000554765D01*
X0003288032Y0000554765D01*
G37*
G36*
X0003342317Y0000511615D02*
X0003293599Y0000560333D01*
X0003301951Y0000568685D01*
X0003350669Y0000519967D01*
X0003342317Y0000511615D01*
X0003342317Y0000511615D01*
G37*
G36*
X0003356237Y0000525535D02*
X0003307519Y0000574252D01*
X0003315870Y0000582604D01*
X0003364588Y0000533886D01*
X0003356237Y0000525535D01*
X0003356237Y0000525535D01*
G37*
G36*
X0003370156Y0000539454D02*
X0003321438Y0000588172D01*
X0003329790Y0000596524D01*
X0003378508Y0000547806D01*
X0003370156Y0000539454D01*
X0003370156Y0000539454D01*
G37*
G36*
X0003384076Y0000553373D02*
X0003335358Y0000602091D01*
X0003343709Y0000610443D01*
X0003392427Y0000561725D01*
X0003384076Y0000553373D01*
X0003384076Y0000553373D01*
G37*
G36*
X0003397995Y0000567293D02*
X0003349277Y0000616011D01*
X0003357629Y0000624362D01*
X0003406347Y0000575644D01*
X0003397995Y0000567293D01*
X0003397995Y0000567293D01*
G37*
G36*
X0003411914Y0000581212D02*
X0003363197Y0000629930D01*
X0003371548Y0000638282D01*
X0003420266Y0000589564D01*
X0003411914Y0000581212D01*
X0003411914Y0000581212D01*
G37*
G36*
X0003350669Y0000325095D02*
X0003301951Y0000276377D01*
X0003293599Y0000284728D01*
X0003342317Y0000333446D01*
X0003350669Y0000325095D01*
X0003350669Y0000325095D01*
G37*
G36*
X0003336750Y0000339014D02*
X0003288032Y0000290296D01*
X0003279680Y0000298648D01*
X0003328398Y0000347366D01*
X0003336750Y0000339014D01*
X0003336750Y0000339014D01*
G37*
G36*
X0003322830Y0000352934D02*
X0003274112Y0000304216D01*
X0003265761Y0000312567D01*
X0003314478Y0000361285D01*
X0003322830Y0000352934D01*
X0003322830Y0000352934D01*
G37*
G36*
X0003308911Y0000366853D02*
X0003260193Y0000318135D01*
X0003251841Y0000326487D01*
X0003300559Y0000375205D01*
X0003308911Y0000366853D01*
X0003308911Y0000366853D01*
G37*
G36*
X0003294991Y0000380772D02*
X0003246273Y0000332054D01*
X0003237922Y0000340406D01*
X0003286640Y0000389124D01*
X0003294991Y0000380772D01*
X0003294991Y0000380772D01*
G37*
G36*
X0003281072Y0000394692D02*
X0003232354Y0000345974D01*
X0003224002Y0000354326D01*
X0003272720Y0000403044D01*
X0003281072Y0000394692D01*
X0003281072Y0000394692D01*
G37*
G36*
X0003364588Y0000311175D02*
X0003315870Y0000262457D01*
X0003307519Y0000270809D01*
X0003356237Y0000319527D01*
X0003364588Y0000311175D01*
X0003364588Y0000311175D01*
G37*
G36*
X0003267152Y0000408611D02*
X0003218435Y0000359893D01*
X0003210083Y0000368245D01*
X0003258801Y0000416963D01*
X0003267152Y0000408611D01*
X0003267152Y0000408611D01*
G37*
G36*
X0003378508Y0000297256D02*
X0003329790Y0000248538D01*
X0003321438Y0000256890D01*
X0003370156Y0000305608D01*
X0003378508Y0000297256D01*
X0003378508Y0000297256D01*
G37*
G36*
X0003392427Y0000283336D02*
X0003343709Y0000234619D01*
X0003335358Y0000242970D01*
X0003384076Y0000291688D01*
X0003392427Y0000283336D01*
X0003392427Y0000283336D01*
G37*
G36*
X0003406347Y0000269417D02*
X0003357629Y0000220699D01*
X0003349277Y0000229051D01*
X0003397995Y0000277769D01*
X0003406347Y0000269417D01*
X0003406347Y0000269417D01*
G37*
G36*
X0003420266Y0000255498D02*
X0003371548Y0000206780D01*
X0003363197Y0000215131D01*
X0003411914Y0000263849D01*
X0003420266Y0000255498D01*
X0003420266Y0000255498D01*
G37*
G36*
X0003563636Y0000290296D02*
X0003514918Y0000339014D01*
X0003523270Y0000347366D01*
X0003571988Y0000298648D01*
X0003563636Y0000290296D01*
X0003563636Y0000290296D01*
G37*
G36*
X0003549717Y0000276377D02*
X0003500999Y0000325095D01*
X0003509350Y0000333446D01*
X0003558068Y0000284728D01*
X0003549717Y0000276377D01*
X0003549717Y0000276377D01*
G37*
G36*
X0003535797Y0000262457D02*
X0003487079Y0000311175D01*
X0003495431Y0000319527D01*
X0003544149Y0000270809D01*
X0003535797Y0000262457D01*
X0003535797Y0000262457D01*
G37*
G36*
X0003521878Y0000248538D02*
X0003473160Y0000297256D01*
X0003481512Y0000305608D01*
X0003530230Y0000256890D01*
X0003521878Y0000248538D01*
X0003521878Y0000248538D01*
G37*
G36*
X0003507959Y0000234619D02*
X0003459241Y0000283336D01*
X0003467592Y0000291688D01*
X0003516310Y0000242970D01*
X0003507959Y0000234619D01*
X0003507959Y0000234619D01*
G37*
G36*
X0003494039Y0000220699D02*
X0003445321Y0000269417D01*
X0003453673Y0000277769D01*
X0003502391Y0000229051D01*
X0003494039Y0000220699D01*
X0003494039Y0000220699D01*
G37*
G36*
X0003480120Y0000206780D02*
X0003431402Y0000255498D01*
X0003439753Y0000263849D01*
X0003488471Y0000215131D01*
X0003480120Y0000206780D01*
X0003480120Y0000206780D01*
G37*
G36*
X0003577556Y0000304216D02*
X0003528838Y0000352934D01*
X0003537189Y0000361285D01*
X0003585907Y0000312567D01*
X0003577556Y0000304216D01*
X0003577556Y0000304216D01*
G37*
G36*
X0003591475Y0000318135D02*
X0003542757Y0000366853D01*
X0003551109Y0000375205D01*
X0003599827Y0000326487D01*
X0003591475Y0000318135D01*
X0003591475Y0000318135D01*
G37*
G36*
X0003605394Y0000332054D02*
X0003556677Y0000380772D01*
X0003565028Y0000389124D01*
X0003613746Y0000340406D01*
X0003605394Y0000332054D01*
X0003605394Y0000332054D01*
G37*
G36*
X0003619314Y0000345974D02*
X0003570596Y0000394692D01*
X0003578948Y0000403044D01*
X0003627666Y0000354326D01*
X0003619314Y0000345974D01*
X0003619314Y0000345974D01*
G37*
G36*
X0003633233Y0000359893D02*
X0003584515Y0000408611D01*
X0003592867Y0000416963D01*
X0003641585Y0000368245D01*
X0003633233Y0000359893D01*
X0003633233Y0000359893D01*
G37*
G36*
X0003558068Y0000560333D02*
X0003509350Y0000511615D01*
X0003500999Y0000519967D01*
X0003549717Y0000568685D01*
X0003558068Y0000560333D01*
X0003558068Y0000560333D01*
G37*
G36*
X0003571988Y0000546414D02*
X0003523270Y0000497696D01*
X0003514918Y0000506047D01*
X0003563636Y0000554765D01*
X0003571988Y0000546414D01*
X0003571988Y0000546414D01*
G37*
G36*
X0003544149Y0000574252D02*
X0003495431Y0000525535D01*
X0003487079Y0000533886D01*
X0003535797Y0000582604D01*
X0003544149Y0000574252D01*
X0003544149Y0000574252D01*
G37*
G36*
X0003530230Y0000588172D02*
X0003481512Y0000539454D01*
X0003473160Y0000547806D01*
X0003521878Y0000596524D01*
X0003530230Y0000588172D01*
X0003530230Y0000588172D01*
G37*
G36*
X0003516310Y0000602091D02*
X0003467592Y0000553373D01*
X0003459241Y0000561725D01*
X0003507959Y0000610443D01*
X0003516310Y0000602091D01*
X0003516310Y0000602091D01*
G37*
G36*
X0003502391Y0000616011D02*
X0003453673Y0000567293D01*
X0003445321Y0000575644D01*
X0003494039Y0000624362D01*
X0003502391Y0000616011D01*
X0003502391Y0000616011D01*
G37*
G36*
X0003488471Y0000629930D02*
X0003439753Y0000581212D01*
X0003431402Y0000589564D01*
X0003480120Y0000638282D01*
X0003488471Y0000629930D01*
X0003488471Y0000629930D01*
G37*
G36*
X0003585907Y0000532494D02*
X0003537189Y0000483776D01*
X0003528838Y0000492128D01*
X0003577556Y0000540846D01*
X0003585907Y0000532494D01*
X0003585907Y0000532494D01*
G37*
G36*
X0003599827Y0000518575D02*
X0003551109Y0000469857D01*
X0003542757Y0000478208D01*
X0003591475Y0000526926D01*
X0003599827Y0000518575D01*
X0003599827Y0000518575D01*
G37*
G36*
X0003613746Y0000504655D02*
X0003565028Y0000455937D01*
X0003556677Y0000464289D01*
X0003605394Y0000513007D01*
X0003613746Y0000504655D01*
X0003613746Y0000504655D01*
G37*
G36*
X0003627666Y0000490736D02*
X0003578948Y0000442018D01*
X0003570596Y0000450370D01*
X0003619314Y0000499088D01*
X0003627666Y0000490736D01*
X0003627666Y0000490736D01*
G37*
G36*
X0003641585Y0000476816D02*
X0003592867Y0000428099D01*
X0003584515Y0000436450D01*
X0003633233Y0000485168D01*
X0003641585Y0000476816D01*
X0003641585Y0000476816D01*
G37*
G36*
X0003339533Y0000362399D02*
X0003279402Y0000422531D01*
X0003339533Y0000482663D01*
X0003399665Y0000422531D01*
X0003339533Y0000362399D01*
X0003339533Y0000362399D01*
G37*
G36*
X0003512134Y0000362399D02*
X0003452002Y0000422531D01*
X0003512134Y0000482663D01*
X0003572266Y0000422531D01*
X0003512134Y0000362399D01*
X0003512134Y0000362399D01*
G37*
G36*
X0003425834Y0000448699D02*
X0003365702Y0000508831D01*
X0003425834Y0000568963D01*
X0003485966Y0000508831D01*
X0003425834Y0000448699D01*
X0003425834Y0000448699D01*
G37*
G36*
X0003425834Y0000276098D02*
X0003365702Y0000336230D01*
X0003425834Y0000396362D01*
X0003485966Y0000336230D01*
X0003425834Y0000276098D01*
X0003425834Y0000276098D01*
G37*
D28*
X0002760637Y0000415354D03*
D29*
X0002866937Y0000480314D03*
X0002866937Y0000505905D03*
X0002866937Y0000403543D03*
X0002866937Y0000429133D03*
X0002866937Y0000454724D03*
D28*
X0002760637Y0000494094D03*
D30*
X0003027244Y0000121314D03*
X0002940629Y0000121314D03*
X0003688224Y0000117868D03*
X0003688224Y0000204482D03*
X0003603291Y0000117047D03*
X0003603291Y0000203661D03*
G04 next file*
G04 Gerber Fmt 4.6, Leading zero omitted, Abs format (unit mm)*
G04 Created by KiCad (PCBNEW 4.0.7) date 11/15/17 17:31:17*
G01G01*
G04 APERTURE LIST*
G04 APERTURE END LIST*
D31*
G04 next file*
G04 Gerber Fmt 4.6, Leading zero omitted, Abs format (unit mm)*
G04 Created by KiCad (PCBNEW 4.0.7) date 11/15/17 17:31:17*
G01G01*
G04 APERTURE LIST*
G04 APERTURE END LIST*
D32*
G04 next file*
G04 Gerber Fmt 4.6, Leading zero omitted, Abs format (unit mm)*
G04 Created by KiCad (PCBNEW 4.0.7) date 11/15/17 17:31:17*
G01G01*
G04 APERTURE LIST*
G04 APERTURE END LIST*
D33*
G04 next file*
G04 Gerber Fmt 4.6, Leading zero omitted, Abs format (unit mm)*
G04 Created by KiCad (PCBNEW 4.0.7) date 11/15/17 20:03:37*
G01G01*
G04 APERTURE LIST*
G04 APERTURE END LIST*
D34*
D35*
X0000629921Y0001811023D02*
X0000712677Y0001312913D03*
D36*
X0000818976Y0001377874D03*
X0000818976Y0001403464D03*
X0000818976Y0001301102D03*
X0000818976Y0001326692D03*
X0000818976Y0001352283D03*
D35*
X0000712677Y0001391653D03*
D37*
X0000963464Y0001561732D03*
X0001211496Y0001561732D03*
X0000963464Y0001412125D03*
X0001211496Y0001412125D03*
D38*
X0002346141Y0001522755D03*
X0002346141Y0001436141D03*
X0002346141Y0001292834D03*
X0002346141Y0001206220D03*
D39*
X0002079606Y0001445196D03*
X0002079606Y0001228661D03*
X0002205590Y0001228661D03*
X0002205590Y0001445196D03*
D34*
G36*
X0001706631Y0001353987D02*
X0001755349Y0001305269D01*
X0001746997Y0001296917D01*
X0001698279Y0001345635D01*
X0001706631Y0001353987D01*
X0001706631Y0001353987D01*
G37*
G36*
X0001692711Y0001340068D02*
X0001741429Y0001291350D01*
X0001733078Y0001282998D01*
X0001684360Y0001331716D01*
X0001692711Y0001340068D01*
X0001692711Y0001340068D01*
G37*
G36*
X0001678792Y0001326148D02*
X0001727510Y0001277430D01*
X0001719158Y0001269079D01*
X0001670440Y0001317797D01*
X0001678792Y0001326148D01*
X0001678792Y0001326148D01*
G37*
G36*
X0001664873Y0001312229D02*
X0001713590Y0001263511D01*
X0001705239Y0001255159D01*
X0001656521Y0001303877D01*
X0001664873Y0001312229D01*
X0001664873Y0001312229D01*
G37*
G36*
X0001650953Y0001298309D02*
X0001699671Y0001249591D01*
X0001691319Y0001241240D01*
X0001642601Y0001289958D01*
X0001650953Y0001298309D01*
X0001650953Y0001298309D01*
G37*
G36*
X0001677400Y0001227320D02*
X0001628682Y0001276038D01*
X0001637034Y0001284390D01*
X0001685752Y0001235672D01*
X0001677400Y0001227320D01*
X0001677400Y0001227320D01*
G37*
G36*
X0001623114Y0001270471D02*
X0001671832Y0001221753D01*
X0001663481Y0001213401D01*
X0001614763Y0001262119D01*
X0001623114Y0001270471D01*
X0001623114Y0001270471D01*
G37*
G36*
X0001609195Y0001256551D02*
X0001657913Y0001207833D01*
X0001649561Y0001199482D01*
X0001600843Y0001248199D01*
X0001609195Y0001256551D01*
X0001609195Y0001256551D01*
G37*
G36*
X0001595275Y0001242632D02*
X0001643993Y0001193914D01*
X0001635642Y0001185562D01*
X0001586924Y0001234280D01*
X0001595275Y0001242632D01*
X0001595275Y0001242632D01*
G37*
G36*
X0001581356Y0001228712D02*
X0001630074Y0001179994D01*
X0001621722Y0001171643D01*
X0001573004Y0001220361D01*
X0001581356Y0001228712D01*
X0001581356Y0001228712D01*
G37*
G36*
X0001567437Y0001214793D02*
X0001616155Y0001166075D01*
X0001607803Y0001157723D01*
X0001559085Y0001206441D01*
X0001567437Y0001214793D01*
X0001567437Y0001214793D01*
G37*
G36*
X0001553517Y0001200873D02*
X0001602235Y0001152155D01*
X0001593883Y0001143804D01*
X0001545165Y0001192522D01*
X0001553517Y0001200873D01*
X0001553517Y0001200873D01*
G37*
G36*
X0001614763Y0001456991D02*
X0001663481Y0001505709D01*
X0001671832Y0001497357D01*
X0001623114Y0001448639D01*
X0001614763Y0001456991D01*
X0001614763Y0001456991D01*
G37*
G36*
X0001628682Y0001443071D02*
X0001677400Y0001491789D01*
X0001685752Y0001483438D01*
X0001637034Y0001434720D01*
X0001628682Y0001443071D01*
X0001628682Y0001443071D01*
G37*
G36*
X0001642601Y0001429152D02*
X0001691319Y0001477870D01*
X0001699671Y0001469518D01*
X0001650953Y0001420800D01*
X0001642601Y0001429152D01*
X0001642601Y0001429152D01*
G37*
G36*
X0001656521Y0001415233D02*
X0001705239Y0001463951D01*
X0001713590Y0001455599D01*
X0001664873Y0001406881D01*
X0001656521Y0001415233D01*
X0001656521Y0001415233D01*
G37*
G36*
X0001670440Y0001401313D02*
X0001719158Y0001450031D01*
X0001727510Y0001441679D01*
X0001678792Y0001392962D01*
X0001670440Y0001401313D01*
X0001670440Y0001401313D01*
G37*
G36*
X0001684360Y0001387394D02*
X0001733078Y0001436112D01*
X0001741429Y0001427760D01*
X0001692711Y0001379042D01*
X0001684360Y0001387394D01*
X0001684360Y0001387394D01*
G37*
G36*
X0001600843Y0001470910D02*
X0001649561Y0001519628D01*
X0001657913Y0001511277D01*
X0001609195Y0001462559D01*
X0001600843Y0001470910D01*
X0001600843Y0001470910D01*
G37*
G36*
X0001698279Y0001373474D02*
X0001746997Y0001422192D01*
X0001755349Y0001413841D01*
X0001706631Y0001365123D01*
X0001698279Y0001373474D01*
X0001698279Y0001373474D01*
G37*
G36*
X0001586924Y0001484830D02*
X0001635642Y0001533548D01*
X0001643993Y0001525196D01*
X0001595275Y0001476478D01*
X0001586924Y0001484830D01*
X0001586924Y0001484830D01*
G37*
G36*
X0001573004Y0001498749D02*
X0001621722Y0001547467D01*
X0001630074Y0001539115D01*
X0001581356Y0001490397D01*
X0001573004Y0001498749D01*
X0001573004Y0001498749D01*
G37*
G36*
X0001559085Y0001512669D02*
X0001607803Y0001561387D01*
X0001616155Y0001553035D01*
X0001567437Y0001504317D01*
X0001559085Y0001512669D01*
X0001559085Y0001512669D01*
G37*
G36*
X0001545165Y0001526588D02*
X0001593883Y0001575306D01*
X0001602235Y0001566954D01*
X0001553517Y0001518236D01*
X0001545165Y0001526588D01*
X0001545165Y0001526588D01*
G37*
G36*
X0001401795Y0001491789D02*
X0001450513Y0001443071D01*
X0001442162Y0001434720D01*
X0001393444Y0001483438D01*
X0001401795Y0001491789D01*
X0001401795Y0001491789D01*
G37*
G36*
X0001415715Y0001505709D02*
X0001464433Y0001456991D01*
X0001456081Y0001448639D01*
X0001407363Y0001497357D01*
X0001415715Y0001505709D01*
X0001415715Y0001505709D01*
G37*
G36*
X0001429634Y0001519628D02*
X0001478352Y0001470910D01*
X0001470001Y0001462559D01*
X0001421283Y0001511277D01*
X0001429634Y0001519628D01*
X0001429634Y0001519628D01*
G37*
G36*
X0001443554Y0001533548D02*
X0001492272Y0001484830D01*
X0001483920Y0001476478D01*
X0001435202Y0001525196D01*
X0001443554Y0001533548D01*
X0001443554Y0001533548D01*
G37*
G36*
X0001457473Y0001547467D02*
X0001506191Y0001498749D01*
X0001497839Y0001490397D01*
X0001449121Y0001539115D01*
X0001457473Y0001547467D01*
X0001457473Y0001547467D01*
G37*
G36*
X0001471393Y0001561387D02*
X0001520110Y0001512669D01*
X0001511759Y0001504317D01*
X0001463041Y0001553035D01*
X0001471393Y0001561387D01*
X0001471393Y0001561387D01*
G37*
G36*
X0001485312Y0001575306D02*
X0001534030Y0001526588D01*
X0001525678Y0001518236D01*
X0001476960Y0001566954D01*
X0001485312Y0001575306D01*
X0001485312Y0001575306D01*
G37*
G36*
X0001387876Y0001477870D02*
X0001436594Y0001429152D01*
X0001428242Y0001420800D01*
X0001379524Y0001469518D01*
X0001387876Y0001477870D01*
X0001387876Y0001477870D01*
G37*
G36*
X0001373957Y0001463951D02*
X0001422675Y0001415233D01*
X0001414323Y0001406881D01*
X0001365605Y0001455599D01*
X0001373957Y0001463951D01*
X0001373957Y0001463951D01*
G37*
G36*
X0001360037Y0001450031D02*
X0001408755Y0001401313D01*
X0001400403Y0001392962D01*
X0001351685Y0001441679D01*
X0001360037Y0001450031D01*
X0001360037Y0001450031D01*
G37*
G36*
X0001346118Y0001436112D02*
X0001394836Y0001387394D01*
X0001386484Y0001379042D01*
X0001337766Y0001427760D01*
X0001346118Y0001436112D01*
X0001346118Y0001436112D01*
G37*
G36*
X0001332198Y0001422192D02*
X0001380916Y0001373474D01*
X0001372565Y0001365123D01*
X0001323847Y0001413841D01*
X0001332198Y0001422192D01*
X0001332198Y0001422192D01*
G37*
G36*
X0001407363Y0001221753D02*
X0001456081Y0001270471D01*
X0001464433Y0001262119D01*
X0001415715Y0001213401D01*
X0001407363Y0001221753D01*
X0001407363Y0001221753D01*
G37*
G36*
X0001393444Y0001235672D02*
X0001442162Y0001284390D01*
X0001450513Y0001276038D01*
X0001401795Y0001227320D01*
X0001393444Y0001235672D01*
X0001393444Y0001235672D01*
G37*
G36*
X0001421283Y0001207833D02*
X0001470001Y0001256551D01*
X0001478352Y0001248199D01*
X0001429634Y0001199482D01*
X0001421283Y0001207833D01*
X0001421283Y0001207833D01*
G37*
G36*
X0001435202Y0001193914D02*
X0001483920Y0001242632D01*
X0001492272Y0001234280D01*
X0001443554Y0001185562D01*
X0001435202Y0001193914D01*
X0001435202Y0001193914D01*
G37*
G36*
X0001449121Y0001179994D02*
X0001497839Y0001228712D01*
X0001506191Y0001220361D01*
X0001457473Y0001171643D01*
X0001449121Y0001179994D01*
X0001449121Y0001179994D01*
G37*
G36*
X0001463041Y0001166075D02*
X0001511759Y0001214793D01*
X0001520110Y0001206441D01*
X0001471393Y0001157723D01*
X0001463041Y0001166075D01*
X0001463041Y0001166075D01*
G37*
G36*
X0001476960Y0001152155D02*
X0001525678Y0001200873D01*
X0001534030Y0001192522D01*
X0001485312Y0001143804D01*
X0001476960Y0001152155D01*
X0001476960Y0001152155D01*
G37*
G36*
X0001379524Y0001249591D02*
X0001428242Y0001298309D01*
X0001436594Y0001289958D01*
X0001387876Y0001241240D01*
X0001379524Y0001249591D01*
X0001379524Y0001249591D01*
G37*
G36*
X0001365605Y0001263511D02*
X0001414323Y0001312229D01*
X0001422675Y0001303877D01*
X0001373957Y0001255159D01*
X0001365605Y0001263511D01*
X0001365605Y0001263511D01*
G37*
G36*
X0001351685Y0001277430D02*
X0001400403Y0001326148D01*
X0001408755Y0001317797D01*
X0001360037Y0001269079D01*
X0001351685Y0001277430D01*
X0001351685Y0001277430D01*
G37*
G36*
X0001337766Y0001291350D02*
X0001386484Y0001340068D01*
X0001394836Y0001331716D01*
X0001346118Y0001282998D01*
X0001337766Y0001291350D01*
X0001337766Y0001291350D01*
G37*
G36*
X0001323847Y0001305269D02*
X0001372565Y0001353987D01*
X0001380916Y0001345635D01*
X0001332198Y0001296917D01*
X0001323847Y0001305269D01*
X0001323847Y0001305269D01*
G37*
G36*
X0001625898Y0001419687D02*
X0001686030Y0001359555D01*
X0001625898Y0001299423D01*
X0001565766Y0001359555D01*
X0001625898Y0001419687D01*
X0001625898Y0001419687D01*
G37*
G36*
X0001453297Y0001419687D02*
X0001513429Y0001359555D01*
X0001453297Y0001299423D01*
X0001393165Y0001359555D01*
X0001453297Y0001419687D01*
X0001453297Y0001419687D01*
G37*
G36*
X0001539598Y0001333386D02*
X0001599730Y0001273254D01*
X0001539598Y0001213123D01*
X0001479466Y0001273254D01*
X0001539598Y0001333386D01*
X0001539598Y0001333386D01*
G37*
G36*
X0001539598Y0001505987D02*
X0001599730Y0001445855D01*
X0001539598Y0001385723D01*
X0001479466Y0001445855D01*
X0001539598Y0001505987D01*
X0001539598Y0001505987D01*
G37*
G04 next file*
G04 Gerber Fmt 4.6, Leading zero omitted, Abs format (unit mm)*
G04 Created by KiCad (PCBNEW 4.0.7) date 11/15/17 20:03:37*
G01G01*
G04 APERTURE LIST*
G04 APERTURE END LIST*
D40*
D41*
X0000629921Y0002716535D02*
X0000712677Y0002218425D03*
D42*
X0000818976Y0002283385D03*
X0000818976Y0002308976D03*
X0000818976Y0002206614D03*
X0000818976Y0002232204D03*
X0000818976Y0002257795D03*
D41*
X0000712677Y0002297165D03*
D43*
X0000963464Y0002467244D03*
X0001211496Y0002467244D03*
X0000963464Y0002317637D03*
X0001211496Y0002317637D03*
D44*
X0002346141Y0002428267D03*
X0002346141Y0002341653D03*
X0002346141Y0002198346D03*
X0002346141Y0002111732D03*
D45*
X0002079606Y0002350708D03*
X0002079606Y0002134173D03*
X0002205590Y0002134173D03*
X0002205590Y0002350708D03*
D40*
G36*
X0001706631Y0002259499D02*
X0001755349Y0002210781D01*
X0001746997Y0002202429D01*
X0001698279Y0002251147D01*
X0001706631Y0002259499D01*
X0001706631Y0002259499D01*
G37*
G36*
X0001692711Y0002245580D02*
X0001741429Y0002196862D01*
X0001733078Y0002188510D01*
X0001684360Y0002237228D01*
X0001692711Y0002245580D01*
X0001692711Y0002245580D01*
G37*
G36*
X0001678792Y0002231660D02*
X0001727510Y0002182942D01*
X0001719158Y0002174590D01*
X0001670440Y0002223308D01*
X0001678792Y0002231660D01*
X0001678792Y0002231660D01*
G37*
G36*
X0001664873Y0002217741D02*
X0001713590Y0002169023D01*
X0001705239Y0002160671D01*
X0001656521Y0002209389D01*
X0001664873Y0002217741D01*
X0001664873Y0002217741D01*
G37*
G36*
X0001650953Y0002203821D02*
X0001699671Y0002155103D01*
X0001691319Y0002146752D01*
X0001642601Y0002195470D01*
X0001650953Y0002203821D01*
X0001650953Y0002203821D01*
G37*
G36*
X0001677400Y0002132832D02*
X0001628682Y0002181550D01*
X0001637034Y0002189902D01*
X0001685752Y0002141184D01*
X0001677400Y0002132832D01*
X0001677400Y0002132832D01*
G37*
G36*
X0001623114Y0002175982D02*
X0001671832Y0002127264D01*
X0001663481Y0002118913D01*
X0001614763Y0002167631D01*
X0001623114Y0002175982D01*
X0001623114Y0002175982D01*
G37*
G36*
X0001609195Y0002162063D02*
X0001657913Y0002113345D01*
X0001649561Y0002104993D01*
X0001600843Y0002153711D01*
X0001609195Y0002162063D01*
X0001609195Y0002162063D01*
G37*
G36*
X0001595275Y0002148144D02*
X0001643993Y0002099426D01*
X0001635642Y0002091074D01*
X0001586924Y0002139792D01*
X0001595275Y0002148144D01*
X0001595275Y0002148144D01*
G37*
G36*
X0001581356Y0002134224D02*
X0001630074Y0002085506D01*
X0001621722Y0002077155D01*
X0001573004Y0002125872D01*
X0001581356Y0002134224D01*
X0001581356Y0002134224D01*
G37*
G36*
X0001567437Y0002120305D02*
X0001616155Y0002071587D01*
X0001607803Y0002063235D01*
X0001559085Y0002111953D01*
X0001567437Y0002120305D01*
X0001567437Y0002120305D01*
G37*
G36*
X0001553517Y0002106385D02*
X0001602235Y0002057667D01*
X0001593883Y0002049316D01*
X0001545165Y0002098034D01*
X0001553517Y0002106385D01*
X0001553517Y0002106385D01*
G37*
G36*
X0001614763Y0002362503D02*
X0001663481Y0002411221D01*
X0001671832Y0002402869D01*
X0001623114Y0002354151D01*
X0001614763Y0002362503D01*
X0001614763Y0002362503D01*
G37*
G36*
X0001628682Y0002348583D02*
X0001677400Y0002397301D01*
X0001685752Y0002388950D01*
X0001637034Y0002340232D01*
X0001628682Y0002348583D01*
X0001628682Y0002348583D01*
G37*
G36*
X0001642601Y0002334664D02*
X0001691319Y0002383382D01*
X0001699671Y0002375030D01*
X0001650953Y0002326312D01*
X0001642601Y0002334664D01*
X0001642601Y0002334664D01*
G37*
G36*
X0001656521Y0002320744D02*
X0001705239Y0002369462D01*
X0001713590Y0002361111D01*
X0001664873Y0002312393D01*
X0001656521Y0002320744D01*
X0001656521Y0002320744D01*
G37*
G36*
X0001670440Y0002306825D02*
X0001719158Y0002355543D01*
X0001727510Y0002347191D01*
X0001678792Y0002298473D01*
X0001670440Y0002306825D01*
X0001670440Y0002306825D01*
G37*
G36*
X0001684360Y0002292906D02*
X0001733078Y0002341624D01*
X0001741429Y0002333272D01*
X0001692711Y0002284554D01*
X0001684360Y0002292906D01*
X0001684360Y0002292906D01*
G37*
G36*
X0001600843Y0002376422D02*
X0001649561Y0002425140D01*
X0001657913Y0002416788D01*
X0001609195Y0002368070D01*
X0001600843Y0002376422D01*
X0001600843Y0002376422D01*
G37*
G36*
X0001698279Y0002278986D02*
X0001746997Y0002327704D01*
X0001755349Y0002319352D01*
X0001706631Y0002270635D01*
X0001698279Y0002278986D01*
X0001698279Y0002278986D01*
G37*
G36*
X0001586924Y0002390342D02*
X0001635642Y0002439060D01*
X0001643993Y0002430708D01*
X0001595275Y0002381990D01*
X0001586924Y0002390342D01*
X0001586924Y0002390342D01*
G37*
G36*
X0001573004Y0002404261D02*
X0001621722Y0002452979D01*
X0001630074Y0002444627D01*
X0001581356Y0002395909D01*
X0001573004Y0002404261D01*
X0001573004Y0002404261D01*
G37*
G36*
X0001559085Y0002418180D02*
X0001607803Y0002466898D01*
X0001616155Y0002458547D01*
X0001567437Y0002409829D01*
X0001559085Y0002418180D01*
X0001559085Y0002418180D01*
G37*
G36*
X0001545165Y0002432100D02*
X0001593883Y0002480818D01*
X0001602235Y0002472466D01*
X0001553517Y0002423748D01*
X0001545165Y0002432100D01*
X0001545165Y0002432100D01*
G37*
G36*
X0001401795Y0002397301D02*
X0001450513Y0002348583D01*
X0001442162Y0002340232D01*
X0001393444Y0002388950D01*
X0001401795Y0002397301D01*
X0001401795Y0002397301D01*
G37*
G36*
X0001415715Y0002411221D02*
X0001464433Y0002362503D01*
X0001456081Y0002354151D01*
X0001407363Y0002402869D01*
X0001415715Y0002411221D01*
X0001415715Y0002411221D01*
G37*
G36*
X0001429634Y0002425140D02*
X0001478352Y0002376422D01*
X0001470001Y0002368070D01*
X0001421283Y0002416788D01*
X0001429634Y0002425140D01*
X0001429634Y0002425140D01*
G37*
G36*
X0001443554Y0002439060D02*
X0001492272Y0002390342D01*
X0001483920Y0002381990D01*
X0001435202Y0002430708D01*
X0001443554Y0002439060D01*
X0001443554Y0002439060D01*
G37*
G36*
X0001457473Y0002452979D02*
X0001506191Y0002404261D01*
X0001497839Y0002395909D01*
X0001449121Y0002444627D01*
X0001457473Y0002452979D01*
X0001457473Y0002452979D01*
G37*
G36*
X0001471393Y0002466898D02*
X0001520110Y0002418180D01*
X0001511759Y0002409829D01*
X0001463041Y0002458547D01*
X0001471393Y0002466898D01*
X0001471393Y0002466898D01*
G37*
G36*
X0001485312Y0002480818D02*
X0001534030Y0002432100D01*
X0001525678Y0002423748D01*
X0001476960Y0002472466D01*
X0001485312Y0002480818D01*
X0001485312Y0002480818D01*
G37*
G36*
X0001387876Y0002383382D02*
X0001436594Y0002334664D01*
X0001428242Y0002326312D01*
X0001379524Y0002375030D01*
X0001387876Y0002383382D01*
X0001387876Y0002383382D01*
G37*
G36*
X0001373957Y0002369462D02*
X0001422675Y0002320744D01*
X0001414323Y0002312393D01*
X0001365605Y0002361111D01*
X0001373957Y0002369462D01*
X0001373957Y0002369462D01*
G37*
G36*
X0001360037Y0002355543D02*
X0001408755Y0002306825D01*
X0001400403Y0002298473D01*
X0001351685Y0002347191D01*
X0001360037Y0002355543D01*
X0001360037Y0002355543D01*
G37*
G36*
X0001346118Y0002341624D02*
X0001394836Y0002292906D01*
X0001386484Y0002284554D01*
X0001337766Y0002333272D01*
X0001346118Y0002341624D01*
X0001346118Y0002341624D01*
G37*
G36*
X0001332198Y0002327704D02*
X0001380916Y0002278986D01*
X0001372565Y0002270635D01*
X0001323847Y0002319352D01*
X0001332198Y0002327704D01*
X0001332198Y0002327704D01*
G37*
G36*
X0001407363Y0002127264D02*
X0001456081Y0002175982D01*
X0001464433Y0002167631D01*
X0001415715Y0002118913D01*
X0001407363Y0002127264D01*
X0001407363Y0002127264D01*
G37*
G36*
X0001393444Y0002141184D02*
X0001442162Y0002189902D01*
X0001450513Y0002181550D01*
X0001401795Y0002132832D01*
X0001393444Y0002141184D01*
X0001393444Y0002141184D01*
G37*
G36*
X0001421283Y0002113345D02*
X0001470001Y0002162063D01*
X0001478352Y0002153711D01*
X0001429634Y0002104993D01*
X0001421283Y0002113345D01*
X0001421283Y0002113345D01*
G37*
G36*
X0001435202Y0002099426D02*
X0001483920Y0002148144D01*
X0001492272Y0002139792D01*
X0001443554Y0002091074D01*
X0001435202Y0002099426D01*
X0001435202Y0002099426D01*
G37*
G36*
X0001449121Y0002085506D02*
X0001497839Y0002134224D01*
X0001506191Y0002125872D01*
X0001457473Y0002077155D01*
X0001449121Y0002085506D01*
X0001449121Y0002085506D01*
G37*
G36*
X0001463041Y0002071587D02*
X0001511759Y0002120305D01*
X0001520110Y0002111953D01*
X0001471393Y0002063235D01*
X0001463041Y0002071587D01*
X0001463041Y0002071587D01*
G37*
G36*
X0001476960Y0002057667D02*
X0001525678Y0002106385D01*
X0001534030Y0002098034D01*
X0001485312Y0002049316D01*
X0001476960Y0002057667D01*
X0001476960Y0002057667D01*
G37*
G36*
X0001379524Y0002155103D02*
X0001428242Y0002203821D01*
X0001436594Y0002195470D01*
X0001387876Y0002146752D01*
X0001379524Y0002155103D01*
X0001379524Y0002155103D01*
G37*
G36*
X0001365605Y0002169023D02*
X0001414323Y0002217741D01*
X0001422675Y0002209389D01*
X0001373957Y0002160671D01*
X0001365605Y0002169023D01*
X0001365605Y0002169023D01*
G37*
G36*
X0001351685Y0002182942D02*
X0001400403Y0002231660D01*
X0001408755Y0002223308D01*
X0001360037Y0002174590D01*
X0001351685Y0002182942D01*
X0001351685Y0002182942D01*
G37*
G36*
X0001337766Y0002196862D02*
X0001386484Y0002245580D01*
X0001394836Y0002237228D01*
X0001346118Y0002188510D01*
X0001337766Y0002196862D01*
X0001337766Y0002196862D01*
G37*
G36*
X0001323847Y0002210781D02*
X0001372565Y0002259499D01*
X0001380916Y0002251147D01*
X0001332198Y0002202429D01*
X0001323847Y0002210781D01*
X0001323847Y0002210781D01*
G37*
G36*
X0001625898Y0002325199D02*
X0001686030Y0002265067D01*
X0001625898Y0002204935D01*
X0001565766Y0002265067D01*
X0001625898Y0002325199D01*
X0001625898Y0002325199D01*
G37*
G36*
X0001453297Y0002325199D02*
X0001513429Y0002265067D01*
X0001453297Y0002204935D01*
X0001393165Y0002265067D01*
X0001453297Y0002325199D01*
X0001453297Y0002325199D01*
G37*
G36*
X0001539598Y0002238898D02*
X0001599730Y0002178766D01*
X0001539598Y0002118634D01*
X0001479466Y0002178766D01*
X0001539598Y0002238898D01*
X0001539598Y0002238898D01*
G37*
G36*
X0001539598Y0002411499D02*
X0001599730Y0002351367D01*
X0001539598Y0002291235D01*
X0001479466Y0002351367D01*
X0001539598Y0002411499D01*
X0001539598Y0002411499D01*
G37*
G04 next file*
G04 Gerber Fmt 4.6, Leading zero omitted, Abs format (unit mm)*
G04 Created by KiCad (PCBNEW 4.0.7) date 11/15/17 20:03:37*
G01G01*
G04 APERTURE LIST*
G04 APERTURE END LIST*
D46*
D47*
X0000629921Y0003622047D02*
X0000712677Y0003123937D03*
D48*
X0000818976Y0003188897D03*
X0000818976Y0003214488D03*
X0000818976Y0003112125D03*
X0000818976Y0003137716D03*
X0000818976Y0003163307D03*
D47*
X0000712677Y0003202677D03*
D49*
X0000963464Y0003372755D03*
X0001211496Y0003372755D03*
X0000963464Y0003223149D03*
X0001211496Y0003223149D03*
D50*
X0002346141Y0003333779D03*
X0002346141Y0003247165D03*
X0002346141Y0003103858D03*
X0002346141Y0003017244D03*
D51*
X0002079606Y0003256220D03*
X0002079606Y0003039685D03*
X0002205590Y0003039685D03*
X0002205590Y0003256220D03*
D46*
G36*
X0001706631Y0003165011D02*
X0001755349Y0003116293D01*
X0001746997Y0003107941D01*
X0001698279Y0003156659D01*
X0001706631Y0003165011D01*
X0001706631Y0003165011D01*
G37*
G36*
X0001692711Y0003151091D02*
X0001741429Y0003102373D01*
X0001733078Y0003094022D01*
X0001684360Y0003142740D01*
X0001692711Y0003151091D01*
X0001692711Y0003151091D01*
G37*
G36*
X0001678792Y0003137172D02*
X0001727510Y0003088454D01*
X0001719158Y0003080102D01*
X0001670440Y0003128820D01*
X0001678792Y0003137172D01*
X0001678792Y0003137172D01*
G37*
G36*
X0001664873Y0003123252D02*
X0001713590Y0003074535D01*
X0001705239Y0003066183D01*
X0001656521Y0003114901D01*
X0001664873Y0003123252D01*
X0001664873Y0003123252D01*
G37*
G36*
X0001650953Y0003109333D02*
X0001699671Y0003060615D01*
X0001691319Y0003052263D01*
X0001642601Y0003100981D01*
X0001650953Y0003109333D01*
X0001650953Y0003109333D01*
G37*
G36*
X0001677400Y0003038344D02*
X0001628682Y0003087062D01*
X0001637034Y0003095414D01*
X0001685752Y0003046696D01*
X0001677400Y0003038344D01*
X0001677400Y0003038344D01*
G37*
G36*
X0001623114Y0003081494D02*
X0001671832Y0003032776D01*
X0001663481Y0003024425D01*
X0001614763Y0003073143D01*
X0001623114Y0003081494D01*
X0001623114Y0003081494D01*
G37*
G36*
X0001609195Y0003067575D02*
X0001657913Y0003018857D01*
X0001649561Y0003010505D01*
X0001600843Y0003059223D01*
X0001609195Y0003067575D01*
X0001609195Y0003067575D01*
G37*
G36*
X0001595275Y0003053655D02*
X0001643993Y0003004937D01*
X0001635642Y0002996586D01*
X0001586924Y0003045304D01*
X0001595275Y0003053655D01*
X0001595275Y0003053655D01*
G37*
G36*
X0001581356Y0003039736D02*
X0001630074Y0002991018D01*
X0001621722Y0002982666D01*
X0001573004Y0003031384D01*
X0001581356Y0003039736D01*
X0001581356Y0003039736D01*
G37*
G36*
X0001567437Y0003025816D02*
X0001616155Y0002977099D01*
X0001607803Y0002968747D01*
X0001559085Y0003017465D01*
X0001567437Y0003025816D01*
X0001567437Y0003025816D01*
G37*
G36*
X0001553517Y0003011897D02*
X0001602235Y0002963179D01*
X0001593883Y0002954827D01*
X0001545165Y0003003545D01*
X0001553517Y0003011897D01*
X0001553517Y0003011897D01*
G37*
G36*
X0001614763Y0003268015D02*
X0001663481Y0003316732D01*
X0001671832Y0003308381D01*
X0001623114Y0003259663D01*
X0001614763Y0003268015D01*
X0001614763Y0003268015D01*
G37*
G36*
X0001628682Y0003254095D02*
X0001677400Y0003302813D01*
X0001685752Y0003294461D01*
X0001637034Y0003245743D01*
X0001628682Y0003254095D01*
X0001628682Y0003254095D01*
G37*
G36*
X0001642601Y0003240176D02*
X0001691319Y0003288894D01*
X0001699671Y0003280542D01*
X0001650953Y0003231824D01*
X0001642601Y0003240176D01*
X0001642601Y0003240176D01*
G37*
G36*
X0001656521Y0003226256D02*
X0001705239Y0003274974D01*
X0001713590Y0003266623D01*
X0001664873Y0003217905D01*
X0001656521Y0003226256D01*
X0001656521Y0003226256D01*
G37*
G36*
X0001670440Y0003212337D02*
X0001719158Y0003261055D01*
X0001727510Y0003252703D01*
X0001678792Y0003203985D01*
X0001670440Y0003212337D01*
X0001670440Y0003212337D01*
G37*
G36*
X0001684360Y0003198417D02*
X0001733078Y0003247135D01*
X0001741429Y0003238784D01*
X0001692711Y0003190066D01*
X0001684360Y0003198417D01*
X0001684360Y0003198417D01*
G37*
G36*
X0001600843Y0003281934D02*
X0001649561Y0003330652D01*
X0001657913Y0003322300D01*
X0001609195Y0003273582D01*
X0001600843Y0003281934D01*
X0001600843Y0003281934D01*
G37*
G36*
X0001698279Y0003184498D02*
X0001746997Y0003233216D01*
X0001755349Y0003224864D01*
X0001706631Y0003176146D01*
X0001698279Y0003184498D01*
X0001698279Y0003184498D01*
G37*
G36*
X0001586924Y0003295853D02*
X0001635642Y0003344571D01*
X0001643993Y0003336220D01*
X0001595275Y0003287502D01*
X0001586924Y0003295853D01*
X0001586924Y0003295853D01*
G37*
G36*
X0001573004Y0003309773D02*
X0001621722Y0003358491D01*
X0001630074Y0003350139D01*
X0001581356Y0003301421D01*
X0001573004Y0003309773D01*
X0001573004Y0003309773D01*
G37*
G36*
X0001559085Y0003323692D02*
X0001607803Y0003372410D01*
X0001616155Y0003364059D01*
X0001567437Y0003315341D01*
X0001559085Y0003323692D01*
X0001559085Y0003323692D01*
G37*
G36*
X0001545165Y0003337612D02*
X0001593883Y0003386330D01*
X0001602235Y0003377978D01*
X0001553517Y0003329260D01*
X0001545165Y0003337612D01*
X0001545165Y0003337612D01*
G37*
G36*
X0001401795Y0003302813D02*
X0001450513Y0003254095D01*
X0001442162Y0003245743D01*
X0001393444Y0003294461D01*
X0001401795Y0003302813D01*
X0001401795Y0003302813D01*
G37*
G36*
X0001415715Y0003316732D02*
X0001464433Y0003268015D01*
X0001456081Y0003259663D01*
X0001407363Y0003308381D01*
X0001415715Y0003316732D01*
X0001415715Y0003316732D01*
G37*
G36*
X0001429634Y0003330652D02*
X0001478352Y0003281934D01*
X0001470001Y0003273582D01*
X0001421283Y0003322300D01*
X0001429634Y0003330652D01*
X0001429634Y0003330652D01*
G37*
G36*
X0001443554Y0003344571D02*
X0001492272Y0003295853D01*
X0001483920Y0003287502D01*
X0001435202Y0003336220D01*
X0001443554Y0003344571D01*
X0001443554Y0003344571D01*
G37*
G36*
X0001457473Y0003358491D02*
X0001506191Y0003309773D01*
X0001497839Y0003301421D01*
X0001449121Y0003350139D01*
X0001457473Y0003358491D01*
X0001457473Y0003358491D01*
G37*
G36*
X0001471393Y0003372410D02*
X0001520110Y0003323692D01*
X0001511759Y0003315341D01*
X0001463041Y0003364059D01*
X0001471393Y0003372410D01*
X0001471393Y0003372410D01*
G37*
G36*
X0001485312Y0003386330D02*
X0001534030Y0003337612D01*
X0001525678Y0003329260D01*
X0001476960Y0003377978D01*
X0001485312Y0003386330D01*
X0001485312Y0003386330D01*
G37*
G36*
X0001387876Y0003288894D02*
X0001436594Y0003240176D01*
X0001428242Y0003231824D01*
X0001379524Y0003280542D01*
X0001387876Y0003288894D01*
X0001387876Y0003288894D01*
G37*
G36*
X0001373957Y0003274974D02*
X0001422675Y0003226256D01*
X0001414323Y0003217905D01*
X0001365605Y0003266623D01*
X0001373957Y0003274974D01*
X0001373957Y0003274974D01*
G37*
G36*
X0001360037Y0003261055D02*
X0001408755Y0003212337D01*
X0001400403Y0003203985D01*
X0001351685Y0003252703D01*
X0001360037Y0003261055D01*
X0001360037Y0003261055D01*
G37*
G36*
X0001346118Y0003247135D02*
X0001394836Y0003198417D01*
X0001386484Y0003190066D01*
X0001337766Y0003238784D01*
X0001346118Y0003247135D01*
X0001346118Y0003247135D01*
G37*
G36*
X0001332198Y0003233216D02*
X0001380916Y0003184498D01*
X0001372565Y0003176146D01*
X0001323847Y0003224864D01*
X0001332198Y0003233216D01*
X0001332198Y0003233216D01*
G37*
G36*
X0001407363Y0003032776D02*
X0001456081Y0003081494D01*
X0001464433Y0003073143D01*
X0001415715Y0003024425D01*
X0001407363Y0003032776D01*
X0001407363Y0003032776D01*
G37*
G36*
X0001393444Y0003046696D02*
X0001442162Y0003095414D01*
X0001450513Y0003087062D01*
X0001401795Y0003038344D01*
X0001393444Y0003046696D01*
X0001393444Y0003046696D01*
G37*
G36*
X0001421283Y0003018857D02*
X0001470001Y0003067575D01*
X0001478352Y0003059223D01*
X0001429634Y0003010505D01*
X0001421283Y0003018857D01*
X0001421283Y0003018857D01*
G37*
G36*
X0001435202Y0003004937D02*
X0001483920Y0003053655D01*
X0001492272Y0003045304D01*
X0001443554Y0002996586D01*
X0001435202Y0003004937D01*
X0001435202Y0003004937D01*
G37*
G36*
X0001449121Y0002991018D02*
X0001497839Y0003039736D01*
X0001506191Y0003031384D01*
X0001457473Y0002982666D01*
X0001449121Y0002991018D01*
X0001449121Y0002991018D01*
G37*
G36*
X0001463041Y0002977099D02*
X0001511759Y0003025816D01*
X0001520110Y0003017465D01*
X0001471393Y0002968747D01*
X0001463041Y0002977099D01*
X0001463041Y0002977099D01*
G37*
G36*
X0001476960Y0002963179D02*
X0001525678Y0003011897D01*
X0001534030Y0003003545D01*
X0001485312Y0002954827D01*
X0001476960Y0002963179D01*
X0001476960Y0002963179D01*
G37*
G36*
X0001379524Y0003060615D02*
X0001428242Y0003109333D01*
X0001436594Y0003100981D01*
X0001387876Y0003052263D01*
X0001379524Y0003060615D01*
X0001379524Y0003060615D01*
G37*
G36*
X0001365605Y0003074535D02*
X0001414323Y0003123252D01*
X0001422675Y0003114901D01*
X0001373957Y0003066183D01*
X0001365605Y0003074535D01*
X0001365605Y0003074535D01*
G37*
G36*
X0001351685Y0003088454D02*
X0001400403Y0003137172D01*
X0001408755Y0003128820D01*
X0001360037Y0003080102D01*
X0001351685Y0003088454D01*
X0001351685Y0003088454D01*
G37*
G36*
X0001337766Y0003102373D02*
X0001386484Y0003151091D01*
X0001394836Y0003142740D01*
X0001346118Y0003094022D01*
X0001337766Y0003102373D01*
X0001337766Y0003102373D01*
G37*
G36*
X0001323847Y0003116293D02*
X0001372565Y0003165011D01*
X0001380916Y0003156659D01*
X0001332198Y0003107941D01*
X0001323847Y0003116293D01*
X0001323847Y0003116293D01*
G37*
G36*
X0001625898Y0003230710D02*
X0001686030Y0003170579D01*
X0001625898Y0003110447D01*
X0001565766Y0003170579D01*
X0001625898Y0003230710D01*
X0001625898Y0003230710D01*
G37*
G36*
X0001453297Y0003230710D02*
X0001513429Y0003170579D01*
X0001453297Y0003110447D01*
X0001393165Y0003170579D01*
X0001453297Y0003230710D01*
X0001453297Y0003230710D01*
G37*
G36*
X0001539598Y0003144410D02*
X0001599730Y0003084278D01*
X0001539598Y0003024146D01*
X0001479466Y0003084278D01*
X0001539598Y0003144410D01*
X0001539598Y0003144410D01*
G37*
G36*
X0001539598Y0003317011D02*
X0001599730Y0003256879D01*
X0001539598Y0003196747D01*
X0001479466Y0003256879D01*
X0001539598Y0003317011D01*
X0001539598Y0003317011D01*
G37*
G04 next file*
G04 Gerber Fmt 4.6, Leading zero omitted, Abs format (unit mm)*
G04 Created by KiCad (PCBNEW 4.0.7) date 11/15/17 17:48:19*
G01G01*
G04 APERTURE LIST*
G04 APERTURE END LIST*
D52*
G36*
X0003258801Y0001333610D02*
X0003210083Y0001382328D01*
X0003218435Y0001390680D01*
X0003267152Y0001341962D01*
X0003258801Y0001333610D01*
X0003258801Y0001333610D01*
G37*
G36*
X0003272720Y0001347530D02*
X0003224002Y0001396248D01*
X0003232354Y0001404599D01*
X0003281072Y0001355881D01*
X0003272720Y0001347530D01*
X0003272720Y0001347530D01*
G37*
G36*
X0003286640Y0001361449D02*
X0003237922Y0001410167D01*
X0003246273Y0001418519D01*
X0003294991Y0001369801D01*
X0003286640Y0001361449D01*
X0003286640Y0001361449D01*
G37*
G36*
X0003300559Y0001375369D02*
X0003251841Y0001424087D01*
X0003260193Y0001432438D01*
X0003308911Y0001383720D01*
X0003300559Y0001375369D01*
X0003300559Y0001375369D01*
G37*
G36*
X0003314478Y0001389288D02*
X0003265761Y0001438006D01*
X0003274112Y0001446358D01*
X0003322830Y0001397640D01*
X0003314478Y0001389288D01*
X0003314478Y0001389288D01*
G37*
G36*
X0003288032Y0001460277D02*
X0003336750Y0001411559D01*
X0003328398Y0001403207D01*
X0003279680Y0001451925D01*
X0003288032Y0001460277D01*
X0003288032Y0001460277D01*
G37*
G36*
X0003342317Y0001417127D02*
X0003293599Y0001465845D01*
X0003301951Y0001474196D01*
X0003350669Y0001425479D01*
X0003342317Y0001417127D01*
X0003342317Y0001417127D01*
G37*
G36*
X0003356237Y0001431046D02*
X0003307519Y0001479764D01*
X0003315870Y0001488116D01*
X0003364588Y0001439398D01*
X0003356237Y0001431046D01*
X0003356237Y0001431046D01*
G37*
G36*
X0003370156Y0001444966D02*
X0003321438Y0001493684D01*
X0003329790Y0001502035D01*
X0003378508Y0001453317D01*
X0003370156Y0001444966D01*
X0003370156Y0001444966D01*
G37*
G36*
X0003384076Y0001458885D02*
X0003335358Y0001507603D01*
X0003343709Y0001515955D01*
X0003392427Y0001467237D01*
X0003384076Y0001458885D01*
X0003384076Y0001458885D01*
G37*
G36*
X0003397995Y0001472805D02*
X0003349277Y0001521523D01*
X0003357629Y0001529874D01*
X0003406347Y0001481156D01*
X0003397995Y0001472805D01*
X0003397995Y0001472805D01*
G37*
G36*
X0003411914Y0001486724D02*
X0003363197Y0001535442D01*
X0003371548Y0001543794D01*
X0003420266Y0001495076D01*
X0003411914Y0001486724D01*
X0003411914Y0001486724D01*
G37*
G36*
X0003350669Y0001230607D02*
X0003301951Y0001181889D01*
X0003293599Y0001190240D01*
X0003342317Y0001238958D01*
X0003350669Y0001230607D01*
X0003350669Y0001230607D01*
G37*
G36*
X0003336750Y0001244526D02*
X0003288032Y0001195808D01*
X0003279680Y0001204160D01*
X0003328398Y0001252878D01*
X0003336750Y0001244526D01*
X0003336750Y0001244526D01*
G37*
G36*
X0003322830Y0001258445D02*
X0003274112Y0001209727D01*
X0003265761Y0001218079D01*
X0003314478Y0001266797D01*
X0003322830Y0001258445D01*
X0003322830Y0001258445D01*
G37*
G36*
X0003308911Y0001272365D02*
X0003260193Y0001223647D01*
X0003251841Y0001231999D01*
X0003300559Y0001280716D01*
X0003308911Y0001272365D01*
X0003308911Y0001272365D01*
G37*
G36*
X0003294991Y0001286284D02*
X0003246273Y0001237566D01*
X0003237922Y0001245918D01*
X0003286640Y0001294636D01*
X0003294991Y0001286284D01*
X0003294991Y0001286284D01*
G37*
G36*
X0003281072Y0001300204D02*
X0003232354Y0001251486D01*
X0003224002Y0001259837D01*
X0003272720Y0001308555D01*
X0003281072Y0001300204D01*
X0003281072Y0001300204D01*
G37*
G36*
X0003364588Y0001216687D02*
X0003315870Y0001167969D01*
X0003307519Y0001176321D01*
X0003356237Y0001225039D01*
X0003364588Y0001216687D01*
X0003364588Y0001216687D01*
G37*
G36*
X0003267152Y0001314123D02*
X0003218435Y0001265405D01*
X0003210083Y0001273757D01*
X0003258801Y0001322475D01*
X0003267152Y0001314123D01*
X0003267152Y0001314123D01*
G37*
G36*
X0003378508Y0001202768D02*
X0003329790Y0001154050D01*
X0003321438Y0001162401D01*
X0003370156Y0001211119D01*
X0003378508Y0001202768D01*
X0003378508Y0001202768D01*
G37*
G36*
X0003392427Y0001188848D02*
X0003343709Y0001140130D01*
X0003335358Y0001148482D01*
X0003384076Y0001197200D01*
X0003392427Y0001188848D01*
X0003392427Y0001188848D01*
G37*
G36*
X0003406347Y0001174929D02*
X0003357629Y0001126211D01*
X0003349277Y0001134563D01*
X0003397995Y0001183280D01*
X0003406347Y0001174929D01*
X0003406347Y0001174929D01*
G37*
G36*
X0003420266Y0001161009D02*
X0003371548Y0001112291D01*
X0003363197Y0001120643D01*
X0003411914Y0001169361D01*
X0003420266Y0001161009D01*
X0003420266Y0001161009D01*
G37*
G36*
X0003563636Y0001195808D02*
X0003514918Y0001244526D01*
X0003523270Y0001252878D01*
X0003571988Y0001204160D01*
X0003563636Y0001195808D01*
X0003563636Y0001195808D01*
G37*
G36*
X0003549717Y0001181889D02*
X0003500999Y0001230607D01*
X0003509350Y0001238958D01*
X0003558068Y0001190240D01*
X0003549717Y0001181889D01*
X0003549717Y0001181889D01*
G37*
G36*
X0003535797Y0001167969D02*
X0003487079Y0001216687D01*
X0003495431Y0001225039D01*
X0003544149Y0001176321D01*
X0003535797Y0001167969D01*
X0003535797Y0001167969D01*
G37*
G36*
X0003521878Y0001154050D02*
X0003473160Y0001202768D01*
X0003481512Y0001211119D01*
X0003530230Y0001162401D01*
X0003521878Y0001154050D01*
X0003521878Y0001154050D01*
G37*
G36*
X0003507959Y0001140130D02*
X0003459241Y0001188848D01*
X0003467592Y0001197200D01*
X0003516310Y0001148482D01*
X0003507959Y0001140130D01*
X0003507959Y0001140130D01*
G37*
G36*
X0003494039Y0001126211D02*
X0003445321Y0001174929D01*
X0003453673Y0001183280D01*
X0003502391Y0001134563D01*
X0003494039Y0001126211D01*
X0003494039Y0001126211D01*
G37*
G36*
X0003480120Y0001112291D02*
X0003431402Y0001161009D01*
X0003439753Y0001169361D01*
X0003488471Y0001120643D01*
X0003480120Y0001112291D01*
X0003480120Y0001112291D01*
G37*
G36*
X0003577556Y0001209727D02*
X0003528838Y0001258445D01*
X0003537189Y0001266797D01*
X0003585907Y0001218079D01*
X0003577556Y0001209727D01*
X0003577556Y0001209727D01*
G37*
G36*
X0003591475Y0001223647D02*
X0003542757Y0001272365D01*
X0003551109Y0001280716D01*
X0003599827Y0001231999D01*
X0003591475Y0001223647D01*
X0003591475Y0001223647D01*
G37*
G36*
X0003605394Y0001237566D02*
X0003556677Y0001286284D01*
X0003565028Y0001294636D01*
X0003613746Y0001245918D01*
X0003605394Y0001237566D01*
X0003605394Y0001237566D01*
G37*
G36*
X0003619314Y0001251486D02*
X0003570596Y0001300204D01*
X0003578948Y0001308555D01*
X0003627666Y0001259837D01*
X0003619314Y0001251486D01*
X0003619314Y0001251486D01*
G37*
G36*
X0003633233Y0001265405D02*
X0003584515Y0001314123D01*
X0003592867Y0001322475D01*
X0003641585Y0001273757D01*
X0003633233Y0001265405D01*
X0003633233Y0001265405D01*
G37*
G36*
X0003558068Y0001465845D02*
X0003509350Y0001417127D01*
X0003500999Y0001425479D01*
X0003549717Y0001474196D01*
X0003558068Y0001465845D01*
X0003558068Y0001465845D01*
G37*
G36*
X0003571988Y0001451925D02*
X0003523270Y0001403207D01*
X0003514918Y0001411559D01*
X0003563636Y0001460277D01*
X0003571988Y0001451925D01*
X0003571988Y0001451925D01*
G37*
G36*
X0003544149Y0001479764D02*
X0003495431Y0001431046D01*
X0003487079Y0001439398D01*
X0003535797Y0001488116D01*
X0003544149Y0001479764D01*
X0003544149Y0001479764D01*
G37*
G36*
X0003530230Y0001493684D02*
X0003481512Y0001444966D01*
X0003473160Y0001453317D01*
X0003521878Y0001502035D01*
X0003530230Y0001493684D01*
X0003530230Y0001493684D01*
G37*
G36*
X0003516310Y0001507603D02*
X0003467592Y0001458885D01*
X0003459241Y0001467237D01*
X0003507959Y0001515955D01*
X0003516310Y0001507603D01*
X0003516310Y0001507603D01*
G37*
G36*
X0003502391Y0001521523D02*
X0003453673Y0001472805D01*
X0003445321Y0001481156D01*
X0003494039Y0001529874D01*
X0003502391Y0001521523D01*
X0003502391Y0001521523D01*
G37*
G36*
X0003488471Y0001535442D02*
X0003439753Y0001486724D01*
X0003431402Y0001495076D01*
X0003480120Y0001543794D01*
X0003488471Y0001535442D01*
X0003488471Y0001535442D01*
G37*
G36*
X0003585907Y0001438006D02*
X0003537189Y0001389288D01*
X0003528838Y0001397640D01*
X0003577556Y0001446358D01*
X0003585907Y0001438006D01*
X0003585907Y0001438006D01*
G37*
G36*
X0003599827Y0001424087D02*
X0003551109Y0001375369D01*
X0003542757Y0001383720D01*
X0003591475Y0001432438D01*
X0003599827Y0001424087D01*
X0003599827Y0001424087D01*
G37*
G36*
X0003613746Y0001410167D02*
X0003565028Y0001361449D01*
X0003556677Y0001369801D01*
X0003605394Y0001418519D01*
X0003613746Y0001410167D01*
X0003613746Y0001410167D01*
G37*
G36*
X0003627666Y0001396248D02*
X0003578948Y0001347530D01*
X0003570596Y0001355881D01*
X0003619314Y0001404599D01*
X0003627666Y0001396248D01*
X0003627666Y0001396248D01*
G37*
G36*
X0003641585Y0001382328D02*
X0003592867Y0001333610D01*
X0003584515Y0001341962D01*
X0003633233Y0001390680D01*
X0003641585Y0001382328D01*
X0003641585Y0001382328D01*
G37*
G36*
X0003339533Y0001267911D02*
X0003279402Y0001328043D01*
X0003339533Y0001388174D01*
X0003399665Y0001328043D01*
X0003339533Y0001267911D01*
X0003339533Y0001267911D01*
G37*
G36*
X0003512134Y0001267911D02*
X0003452002Y0001328043D01*
X0003512134Y0001388174D01*
X0003572266Y0001328043D01*
X0003512134Y0001267911D01*
X0003512134Y0001267911D01*
G37*
G36*
X0003425834Y0001354211D02*
X0003365702Y0001414343D01*
X0003425834Y0001474475D01*
X0003485966Y0001414343D01*
X0003425834Y0001354211D01*
X0003425834Y0001354211D01*
G37*
G36*
X0003425834Y0001181610D02*
X0003365702Y0001241742D01*
X0003425834Y0001301874D01*
X0003485966Y0001241742D01*
X0003425834Y0001181610D01*
X0003425834Y0001181610D01*
G37*
D53*
X0002760637Y0001320866D03*
D54*
X0002866937Y0001385826D03*
X0002866937Y0001411417D03*
X0002866937Y0001309055D03*
X0002866937Y0001334645D03*
X0002866937Y0001360236D03*
D53*
X0002760637Y0001399606D03*
D55*
X0003027244Y0001026826D03*
X0002940629Y0001026826D03*
X0003688224Y0001023379D03*
X0003688224Y0001109994D03*
X0003603291Y0001022559D03*
X0003603291Y0001109173D03*
G04 next file*
G04 Gerber Fmt 4.6, Leading zero omitted, Abs format (unit mm)*
G04 Created by KiCad (PCBNEW 4.0.7) date 11/15/17 17:48:19*
G01G01*
G04 APERTURE LIST*
G04 APERTURE END LIST*
D56*
G36*
X0003258801Y0002239122D02*
X0003210083Y0002287840D01*
X0003218435Y0002296192D01*
X0003267152Y0002247474D01*
X0003258801Y0002239122D01*
X0003258801Y0002239122D01*
G37*
G36*
X0003272720Y0002253042D02*
X0003224002Y0002301760D01*
X0003232354Y0002310111D01*
X0003281072Y0002261393D01*
X0003272720Y0002253042D01*
X0003272720Y0002253042D01*
G37*
G36*
X0003286640Y0002266961D02*
X0003237922Y0002315679D01*
X0003246273Y0002324031D01*
X0003294991Y0002275313D01*
X0003286640Y0002266961D01*
X0003286640Y0002266961D01*
G37*
G36*
X0003300559Y0002280880D02*
X0003251841Y0002329598D01*
X0003260193Y0002337950D01*
X0003308911Y0002289232D01*
X0003300559Y0002280880D01*
X0003300559Y0002280880D01*
G37*
G36*
X0003314478Y0002294800D02*
X0003265761Y0002343518D01*
X0003274112Y0002351869D01*
X0003322830Y0002303151D01*
X0003314478Y0002294800D01*
X0003314478Y0002294800D01*
G37*
G36*
X0003288032Y0002365789D02*
X0003336750Y0002317071D01*
X0003328398Y0002308719D01*
X0003279680Y0002357437D01*
X0003288032Y0002365789D01*
X0003288032Y0002365789D01*
G37*
G36*
X0003342317Y0002322639D02*
X0003293599Y0002371357D01*
X0003301951Y0002379708D01*
X0003350669Y0002330990D01*
X0003342317Y0002322639D01*
X0003342317Y0002322639D01*
G37*
G36*
X0003356237Y0002336558D02*
X0003307519Y0002385276D01*
X0003315870Y0002393628D01*
X0003364588Y0002344910D01*
X0003356237Y0002336558D01*
X0003356237Y0002336558D01*
G37*
G36*
X0003370156Y0002350478D02*
X0003321438Y0002399195D01*
X0003329790Y0002407547D01*
X0003378508Y0002358829D01*
X0003370156Y0002350478D01*
X0003370156Y0002350478D01*
G37*
G36*
X0003384076Y0002364397D02*
X0003335358Y0002413115D01*
X0003343709Y0002421467D01*
X0003392427Y0002372749D01*
X0003384076Y0002364397D01*
X0003384076Y0002364397D01*
G37*
G36*
X0003397995Y0002378316D02*
X0003349277Y0002427034D01*
X0003357629Y0002435386D01*
X0003406347Y0002386668D01*
X0003397995Y0002378316D01*
X0003397995Y0002378316D01*
G37*
G36*
X0003411914Y0002392236D02*
X0003363197Y0002440954D01*
X0003371548Y0002449305D01*
X0003420266Y0002400587D01*
X0003411914Y0002392236D01*
X0003411914Y0002392236D01*
G37*
G36*
X0003350669Y0002136118D02*
X0003301951Y0002087400D01*
X0003293599Y0002095752D01*
X0003342317Y0002144470D01*
X0003350669Y0002136118D01*
X0003350669Y0002136118D01*
G37*
G36*
X0003336750Y0002150038D02*
X0003288032Y0002101320D01*
X0003279680Y0002109671D01*
X0003328398Y0002158389D01*
X0003336750Y0002150038D01*
X0003336750Y0002150038D01*
G37*
G36*
X0003322830Y0002163957D02*
X0003274112Y0002115239D01*
X0003265761Y0002123591D01*
X0003314478Y0002172309D01*
X0003322830Y0002163957D01*
X0003322830Y0002163957D01*
G37*
G36*
X0003308911Y0002177877D02*
X0003260193Y0002129159D01*
X0003251841Y0002137510D01*
X0003300559Y0002186228D01*
X0003308911Y0002177877D01*
X0003308911Y0002177877D01*
G37*
G36*
X0003294991Y0002191796D02*
X0003246273Y0002143078D01*
X0003237922Y0002151430D01*
X0003286640Y0002200148D01*
X0003294991Y0002191796D01*
X0003294991Y0002191796D01*
G37*
G36*
X0003281072Y0002205715D02*
X0003232354Y0002156998D01*
X0003224002Y0002165349D01*
X0003272720Y0002214067D01*
X0003281072Y0002205715D01*
X0003281072Y0002205715D01*
G37*
G36*
X0003364588Y0002122199D02*
X0003315870Y0002073481D01*
X0003307519Y0002081833D01*
X0003356237Y0002130551D01*
X0003364588Y0002122199D01*
X0003364588Y0002122199D01*
G37*
G36*
X0003267152Y0002219635D02*
X0003218435Y0002170917D01*
X0003210083Y0002179269D01*
X0003258801Y0002227987D01*
X0003267152Y0002219635D01*
X0003267152Y0002219635D01*
G37*
G36*
X0003378508Y0002108280D02*
X0003329790Y0002059562D01*
X0003321438Y0002067913D01*
X0003370156Y0002116631D01*
X0003378508Y0002108280D01*
X0003378508Y0002108280D01*
G37*
G36*
X0003392427Y0002094360D02*
X0003343709Y0002045642D01*
X0003335358Y0002053994D01*
X0003384076Y0002102712D01*
X0003392427Y0002094360D01*
X0003392427Y0002094360D01*
G37*
G36*
X0003406347Y0002080441D02*
X0003357629Y0002031723D01*
X0003349277Y0002040074D01*
X0003397995Y0002088792D01*
X0003406347Y0002080441D01*
X0003406347Y0002080441D01*
G37*
G36*
X0003420266Y0002066521D02*
X0003371548Y0002017803D01*
X0003363197Y0002026155D01*
X0003411914Y0002074873D01*
X0003420266Y0002066521D01*
X0003420266Y0002066521D01*
G37*
G36*
X0003563636Y0002101320D02*
X0003514918Y0002150038D01*
X0003523270Y0002158389D01*
X0003571988Y0002109671D01*
X0003563636Y0002101320D01*
X0003563636Y0002101320D01*
G37*
G36*
X0003549717Y0002087400D02*
X0003500999Y0002136118D01*
X0003509350Y0002144470D01*
X0003558068Y0002095752D01*
X0003549717Y0002087400D01*
X0003549717Y0002087400D01*
G37*
G36*
X0003535797Y0002073481D02*
X0003487079Y0002122199D01*
X0003495431Y0002130551D01*
X0003544149Y0002081833D01*
X0003535797Y0002073481D01*
X0003535797Y0002073481D01*
G37*
G36*
X0003521878Y0002059562D02*
X0003473160Y0002108280D01*
X0003481512Y0002116631D01*
X0003530230Y0002067913D01*
X0003521878Y0002059562D01*
X0003521878Y0002059562D01*
G37*
G36*
X0003507959Y0002045642D02*
X0003459241Y0002094360D01*
X0003467592Y0002102712D01*
X0003516310Y0002053994D01*
X0003507959Y0002045642D01*
X0003507959Y0002045642D01*
G37*
G36*
X0003494039Y0002031723D02*
X0003445321Y0002080441D01*
X0003453673Y0002088792D01*
X0003502391Y0002040074D01*
X0003494039Y0002031723D01*
X0003494039Y0002031723D01*
G37*
G36*
X0003480120Y0002017803D02*
X0003431402Y0002066521D01*
X0003439753Y0002074873D01*
X0003488471Y0002026155D01*
X0003480120Y0002017803D01*
X0003480120Y0002017803D01*
G37*
G36*
X0003577556Y0002115239D02*
X0003528838Y0002163957D01*
X0003537189Y0002172309D01*
X0003585907Y0002123591D01*
X0003577556Y0002115239D01*
X0003577556Y0002115239D01*
G37*
G36*
X0003591475Y0002129159D02*
X0003542757Y0002177877D01*
X0003551109Y0002186228D01*
X0003599827Y0002137510D01*
X0003591475Y0002129159D01*
X0003591475Y0002129159D01*
G37*
G36*
X0003605394Y0002143078D02*
X0003556677Y0002191796D01*
X0003565028Y0002200148D01*
X0003613746Y0002151430D01*
X0003605394Y0002143078D01*
X0003605394Y0002143078D01*
G37*
G36*
X0003619314Y0002156998D02*
X0003570596Y0002205715D01*
X0003578948Y0002214067D01*
X0003627666Y0002165349D01*
X0003619314Y0002156998D01*
X0003619314Y0002156998D01*
G37*
G36*
X0003633233Y0002170917D02*
X0003584515Y0002219635D01*
X0003592867Y0002227987D01*
X0003641585Y0002179269D01*
X0003633233Y0002170917D01*
X0003633233Y0002170917D01*
G37*
G36*
X0003558068Y0002371357D02*
X0003509350Y0002322639D01*
X0003500999Y0002330990D01*
X0003549717Y0002379708D01*
X0003558068Y0002371357D01*
X0003558068Y0002371357D01*
G37*
G36*
X0003571988Y0002357437D02*
X0003523270Y0002308719D01*
X0003514918Y0002317071D01*
X0003563636Y0002365789D01*
X0003571988Y0002357437D01*
X0003571988Y0002357437D01*
G37*
G36*
X0003544149Y0002385276D02*
X0003495431Y0002336558D01*
X0003487079Y0002344910D01*
X0003535797Y0002393628D01*
X0003544149Y0002385276D01*
X0003544149Y0002385276D01*
G37*
G36*
X0003530230Y0002399195D02*
X0003481512Y0002350478D01*
X0003473160Y0002358829D01*
X0003521878Y0002407547D01*
X0003530230Y0002399195D01*
X0003530230Y0002399195D01*
G37*
G36*
X0003516310Y0002413115D02*
X0003467592Y0002364397D01*
X0003459241Y0002372749D01*
X0003507959Y0002421467D01*
X0003516310Y0002413115D01*
X0003516310Y0002413115D01*
G37*
G36*
X0003502391Y0002427034D02*
X0003453673Y0002378316D01*
X0003445321Y0002386668D01*
X0003494039Y0002435386D01*
X0003502391Y0002427034D01*
X0003502391Y0002427034D01*
G37*
G36*
X0003488471Y0002440954D02*
X0003439753Y0002392236D01*
X0003431402Y0002400587D01*
X0003480120Y0002449305D01*
X0003488471Y0002440954D01*
X0003488471Y0002440954D01*
G37*
G36*
X0003585907Y0002343518D02*
X0003537189Y0002294800D01*
X0003528838Y0002303151D01*
X0003577556Y0002351869D01*
X0003585907Y0002343518D01*
X0003585907Y0002343518D01*
G37*
G36*
X0003599827Y0002329598D02*
X0003551109Y0002280880D01*
X0003542757Y0002289232D01*
X0003591475Y0002337950D01*
X0003599827Y0002329598D01*
X0003599827Y0002329598D01*
G37*
G36*
X0003613746Y0002315679D02*
X0003565028Y0002266961D01*
X0003556677Y0002275313D01*
X0003605394Y0002324031D01*
X0003613746Y0002315679D01*
X0003613746Y0002315679D01*
G37*
G36*
X0003627666Y0002301760D02*
X0003578948Y0002253042D01*
X0003570596Y0002261393D01*
X0003619314Y0002310111D01*
X0003627666Y0002301760D01*
X0003627666Y0002301760D01*
G37*
G36*
X0003641585Y0002287840D02*
X0003592867Y0002239122D01*
X0003584515Y0002247474D01*
X0003633233Y0002296192D01*
X0003641585Y0002287840D01*
X0003641585Y0002287840D01*
G37*
G36*
X0003339533Y0002173422D02*
X0003279402Y0002233554D01*
X0003339533Y0002293686D01*
X0003399665Y0002233554D01*
X0003339533Y0002173422D01*
X0003339533Y0002173422D01*
G37*
G36*
X0003512134Y0002173422D02*
X0003452002Y0002233554D01*
X0003512134Y0002293686D01*
X0003572266Y0002233554D01*
X0003512134Y0002173422D01*
X0003512134Y0002173422D01*
G37*
G36*
X0003425834Y0002259723D02*
X0003365702Y0002319855D01*
X0003425834Y0002379987D01*
X0003485966Y0002319855D01*
X0003425834Y0002259723D01*
X0003425834Y0002259723D01*
G37*
G36*
X0003425834Y0002087122D02*
X0003365702Y0002147254D01*
X0003425834Y0002207386D01*
X0003485966Y0002147254D01*
X0003425834Y0002087122D01*
X0003425834Y0002087122D01*
G37*
D57*
X0002760637Y0002226377D03*
D58*
X0002866937Y0002291338D03*
X0002866937Y0002316929D03*
X0002866937Y0002214566D03*
X0002866937Y0002240157D03*
X0002866937Y0002265748D03*
D57*
X0002760637Y0002305118D03*
D59*
X0003027244Y0001932338D03*
X0002940629Y0001932338D03*
X0003688224Y0001928891D03*
X0003688224Y0002015505D03*
X0003603291Y0001928070D03*
X0003603291Y0002014685D03*
G04 next file*
G04 Gerber Fmt 4.6, Leading zero omitted, Abs format (unit mm)*
G04 Created by KiCad (PCBNEW 4.0.7) date 11/15/17 17:48:19*
G01G01*
G04 APERTURE LIST*
G04 APERTURE END LIST*
D60*
G36*
X0003258801Y0003144634D02*
X0003210083Y0003193352D01*
X0003218435Y0003201704D01*
X0003267152Y0003152986D01*
X0003258801Y0003144634D01*
X0003258801Y0003144634D01*
G37*
G36*
X0003272720Y0003158553D02*
X0003224002Y0003207271D01*
X0003232354Y0003215623D01*
X0003281072Y0003166905D01*
X0003272720Y0003158553D01*
X0003272720Y0003158553D01*
G37*
G36*
X0003286640Y0003172473D02*
X0003237922Y0003221191D01*
X0003246273Y0003229542D01*
X0003294991Y0003180824D01*
X0003286640Y0003172473D01*
X0003286640Y0003172473D01*
G37*
G36*
X0003300559Y0003186392D02*
X0003251841Y0003235110D01*
X0003260193Y0003243462D01*
X0003308911Y0003194744D01*
X0003300559Y0003186392D01*
X0003300559Y0003186392D01*
G37*
G36*
X0003314478Y0003200312D02*
X0003265761Y0003249030D01*
X0003274112Y0003257381D01*
X0003322830Y0003208663D01*
X0003314478Y0003200312D01*
X0003314478Y0003200312D01*
G37*
G36*
X0003288032Y0003271301D02*
X0003336750Y0003222583D01*
X0003328398Y0003214231D01*
X0003279680Y0003262949D01*
X0003288032Y0003271301D01*
X0003288032Y0003271301D01*
G37*
G36*
X0003342317Y0003228150D02*
X0003293599Y0003276868D01*
X0003301951Y0003285220D01*
X0003350669Y0003236502D01*
X0003342317Y0003228150D01*
X0003342317Y0003228150D01*
G37*
G36*
X0003356237Y0003242070D02*
X0003307519Y0003290788D01*
X0003315870Y0003299140D01*
X0003364588Y0003250422D01*
X0003356237Y0003242070D01*
X0003356237Y0003242070D01*
G37*
G36*
X0003370156Y0003255989D02*
X0003321438Y0003304707D01*
X0003329790Y0003313059D01*
X0003378508Y0003264341D01*
X0003370156Y0003255989D01*
X0003370156Y0003255989D01*
G37*
G36*
X0003384076Y0003269909D02*
X0003335358Y0003318627D01*
X0003343709Y0003326978D01*
X0003392427Y0003278260D01*
X0003384076Y0003269909D01*
X0003384076Y0003269909D01*
G37*
G36*
X0003397995Y0003283828D02*
X0003349277Y0003332546D01*
X0003357629Y0003340898D01*
X0003406347Y0003292180D01*
X0003397995Y0003283828D01*
X0003397995Y0003283828D01*
G37*
G36*
X0003411914Y0003297748D02*
X0003363197Y0003346466D01*
X0003371548Y0003354817D01*
X0003420266Y0003306099D01*
X0003411914Y0003297748D01*
X0003411914Y0003297748D01*
G37*
G36*
X0003350669Y0003041630D02*
X0003301951Y0002992912D01*
X0003293599Y0003001264D01*
X0003342317Y0003049982D01*
X0003350669Y0003041630D01*
X0003350669Y0003041630D01*
G37*
G36*
X0003336750Y0003055550D02*
X0003288032Y0003006832D01*
X0003279680Y0003015183D01*
X0003328398Y0003063901D01*
X0003336750Y0003055550D01*
X0003336750Y0003055550D01*
G37*
G36*
X0003322830Y0003069469D02*
X0003274112Y0003020751D01*
X0003265761Y0003029103D01*
X0003314478Y0003077821D01*
X0003322830Y0003069469D01*
X0003322830Y0003069469D01*
G37*
G36*
X0003308911Y0003083388D02*
X0003260193Y0003034670D01*
X0003251841Y0003043022D01*
X0003300559Y0003091740D01*
X0003308911Y0003083388D01*
X0003308911Y0003083388D01*
G37*
G36*
X0003294991Y0003097308D02*
X0003246273Y0003048590D01*
X0003237922Y0003056942D01*
X0003286640Y0003105660D01*
X0003294991Y0003097308D01*
X0003294991Y0003097308D01*
G37*
G36*
X0003281072Y0003111227D02*
X0003232354Y0003062509D01*
X0003224002Y0003070861D01*
X0003272720Y0003119579D01*
X0003281072Y0003111227D01*
X0003281072Y0003111227D01*
G37*
G36*
X0003364588Y0003027711D02*
X0003315870Y0002978993D01*
X0003307519Y0002987344D01*
X0003356237Y0003036062D01*
X0003364588Y0003027711D01*
X0003364588Y0003027711D01*
G37*
G36*
X0003267152Y0003125147D02*
X0003218435Y0003076429D01*
X0003210083Y0003084780D01*
X0003258801Y0003133498D01*
X0003267152Y0003125147D01*
X0003267152Y0003125147D01*
G37*
G36*
X0003378508Y0003013791D02*
X0003329790Y0002965073D01*
X0003321438Y0002973425D01*
X0003370156Y0003022143D01*
X0003378508Y0003013791D01*
X0003378508Y0003013791D01*
G37*
G36*
X0003392427Y0002999872D02*
X0003343709Y0002951154D01*
X0003335358Y0002959506D01*
X0003384076Y0003008224D01*
X0003392427Y0002999872D01*
X0003392427Y0002999872D01*
G37*
G36*
X0003406347Y0002985952D02*
X0003357629Y0002937235D01*
X0003349277Y0002945586D01*
X0003397995Y0002994304D01*
X0003406347Y0002985952D01*
X0003406347Y0002985952D01*
G37*
G36*
X0003420266Y0002972033D02*
X0003371548Y0002923315D01*
X0003363197Y0002931667D01*
X0003411914Y0002980385D01*
X0003420266Y0002972033D01*
X0003420266Y0002972033D01*
G37*
G36*
X0003563636Y0003006832D02*
X0003514918Y0003055550D01*
X0003523270Y0003063901D01*
X0003571988Y0003015183D01*
X0003563636Y0003006832D01*
X0003563636Y0003006832D01*
G37*
G36*
X0003549717Y0002992912D02*
X0003500999Y0003041630D01*
X0003509350Y0003049982D01*
X0003558068Y0003001264D01*
X0003549717Y0002992912D01*
X0003549717Y0002992912D01*
G37*
G36*
X0003535797Y0002978993D02*
X0003487079Y0003027711D01*
X0003495431Y0003036062D01*
X0003544149Y0002987344D01*
X0003535797Y0002978993D01*
X0003535797Y0002978993D01*
G37*
G36*
X0003521878Y0002965073D02*
X0003473160Y0003013791D01*
X0003481512Y0003022143D01*
X0003530230Y0002973425D01*
X0003521878Y0002965073D01*
X0003521878Y0002965073D01*
G37*
G36*
X0003507959Y0002951154D02*
X0003459241Y0002999872D01*
X0003467592Y0003008224D01*
X0003516310Y0002959506D01*
X0003507959Y0002951154D01*
X0003507959Y0002951154D01*
G37*
G36*
X0003494039Y0002937235D02*
X0003445321Y0002985952D01*
X0003453673Y0002994304D01*
X0003502391Y0002945586D01*
X0003494039Y0002937235D01*
X0003494039Y0002937235D01*
G37*
G36*
X0003480120Y0002923315D02*
X0003431402Y0002972033D01*
X0003439753Y0002980385D01*
X0003488471Y0002931667D01*
X0003480120Y0002923315D01*
X0003480120Y0002923315D01*
G37*
G36*
X0003577556Y0003020751D02*
X0003528838Y0003069469D01*
X0003537189Y0003077821D01*
X0003585907Y0003029103D01*
X0003577556Y0003020751D01*
X0003577556Y0003020751D01*
G37*
G36*
X0003591475Y0003034670D02*
X0003542757Y0003083388D01*
X0003551109Y0003091740D01*
X0003599827Y0003043022D01*
X0003591475Y0003034670D01*
X0003591475Y0003034670D01*
G37*
G36*
X0003605394Y0003048590D02*
X0003556677Y0003097308D01*
X0003565028Y0003105660D01*
X0003613746Y0003056942D01*
X0003605394Y0003048590D01*
X0003605394Y0003048590D01*
G37*
G36*
X0003619314Y0003062509D02*
X0003570596Y0003111227D01*
X0003578948Y0003119579D01*
X0003627666Y0003070861D01*
X0003619314Y0003062509D01*
X0003619314Y0003062509D01*
G37*
G36*
X0003633233Y0003076429D02*
X0003584515Y0003125147D01*
X0003592867Y0003133498D01*
X0003641585Y0003084780D01*
X0003633233Y0003076429D01*
X0003633233Y0003076429D01*
G37*
G36*
X0003558068Y0003276868D02*
X0003509350Y0003228150D01*
X0003500999Y0003236502D01*
X0003549717Y0003285220D01*
X0003558068Y0003276868D01*
X0003558068Y0003276868D01*
G37*
G36*
X0003571988Y0003262949D02*
X0003523270Y0003214231D01*
X0003514918Y0003222583D01*
X0003563636Y0003271301D01*
X0003571988Y0003262949D01*
X0003571988Y0003262949D01*
G37*
G36*
X0003544149Y0003290788D02*
X0003495431Y0003242070D01*
X0003487079Y0003250422D01*
X0003535797Y0003299140D01*
X0003544149Y0003290788D01*
X0003544149Y0003290788D01*
G37*
G36*
X0003530230Y0003304707D02*
X0003481512Y0003255989D01*
X0003473160Y0003264341D01*
X0003521878Y0003313059D01*
X0003530230Y0003304707D01*
X0003530230Y0003304707D01*
G37*
G36*
X0003516310Y0003318627D02*
X0003467592Y0003269909D01*
X0003459241Y0003278260D01*
X0003507959Y0003326978D01*
X0003516310Y0003318627D01*
X0003516310Y0003318627D01*
G37*
G36*
X0003502391Y0003332546D02*
X0003453673Y0003283828D01*
X0003445321Y0003292180D01*
X0003494039Y0003340898D01*
X0003502391Y0003332546D01*
X0003502391Y0003332546D01*
G37*
G36*
X0003488471Y0003346466D02*
X0003439753Y0003297748D01*
X0003431402Y0003306099D01*
X0003480120Y0003354817D01*
X0003488471Y0003346466D01*
X0003488471Y0003346466D01*
G37*
G36*
X0003585907Y0003249030D02*
X0003537189Y0003200312D01*
X0003528838Y0003208663D01*
X0003577556Y0003257381D01*
X0003585907Y0003249030D01*
X0003585907Y0003249030D01*
G37*
G36*
X0003599827Y0003235110D02*
X0003551109Y0003186392D01*
X0003542757Y0003194744D01*
X0003591475Y0003243462D01*
X0003599827Y0003235110D01*
X0003599827Y0003235110D01*
G37*
G36*
X0003613746Y0003221191D02*
X0003565028Y0003172473D01*
X0003556677Y0003180824D01*
X0003605394Y0003229542D01*
X0003613746Y0003221191D01*
X0003613746Y0003221191D01*
G37*
G36*
X0003627666Y0003207271D02*
X0003578948Y0003158553D01*
X0003570596Y0003166905D01*
X0003619314Y0003215623D01*
X0003627666Y0003207271D01*
X0003627666Y0003207271D01*
G37*
G36*
X0003641585Y0003193352D02*
X0003592867Y0003144634D01*
X0003584515Y0003152986D01*
X0003633233Y0003201704D01*
X0003641585Y0003193352D01*
X0003641585Y0003193352D01*
G37*
G36*
X0003339533Y0003078934D02*
X0003279402Y0003139066D01*
X0003339533Y0003199198D01*
X0003399665Y0003139066D01*
X0003339533Y0003078934D01*
X0003339533Y0003078934D01*
G37*
G36*
X0003512134Y0003078934D02*
X0003452002Y0003139066D01*
X0003512134Y0003199198D01*
X0003572266Y0003139066D01*
X0003512134Y0003078934D01*
X0003512134Y0003078934D01*
G37*
G36*
X0003425834Y0003165235D02*
X0003365702Y0003225367D01*
X0003425834Y0003285499D01*
X0003485966Y0003225367D01*
X0003425834Y0003165235D01*
X0003425834Y0003165235D01*
G37*
G36*
X0003425834Y0002992634D02*
X0003365702Y0003052766D01*
X0003425834Y0003112898D01*
X0003485966Y0003052766D01*
X0003425834Y0002992634D01*
X0003425834Y0002992634D01*
G37*
D61*
X0002760637Y0003131889D03*
D62*
X0002866937Y0003196850D03*
X0002866937Y0003222440D03*
X0002866937Y0003120078D03*
X0002866937Y0003145669D03*
X0002866937Y0003171259D03*
D61*
X0002760637Y0003210629D03*
D63*
X0003027244Y0002837850D03*
X0002940629Y0002837850D03*
X0003688224Y0002834403D03*
X0003688224Y0002921017D03*
X0003603291Y0002833582D03*
X0003603291Y0002920196D03*
M02*