%
M48
METRIC,000.000
T01C0.30
T02C0.60
T03C0.80
T04C0.85
T05C1.00
T10C2.40
%
T01
X070400Y042250
X071440Y028540
X071500Y034450
X071538Y035171
X071564Y035974
X073440Y025570
X074470Y040090
X075410Y037762
X075568Y039358
X075817Y027986
X077600Y043950
X077875Y038578
X078180Y025726
X079060Y033725
X080161Y035352
X080285Y040337
X080590Y031830
X080890Y029040
X081126Y035378
X081344Y036128
X081362Y037742
X081690Y031700
X081974Y036725
X082710Y036998
X082752Y040305
X082752Y027465
X083387Y040095
X083911Y027659
X084047Y040543
X084199Y029104
X084377Y025853
X086714Y040178
X087090Y027557
X087320Y025860
X088030Y025450
X088467Y040177
X089108Y028360
X089125Y025570
X089506Y040448
X089549Y039791
X090387Y038091
X090510Y027320
X090702Y038676
X091179Y037289
X091894Y036135
X092048Y037283
X092320Y030800
X092420Y034450
X092559Y028707
X092590Y025930
X092800Y031259
X092865Y033525
X092975Y037350
X093110Y035410
X093170Y040410
X093288Y031750
X093680Y034580
X093815Y036411
X093839Y038962
X093906Y031182
X094039Y033957
X094425Y036637
X094490Y029790
X094663Y033283
X094867Y027834
X094880Y026230
X094987Y036016
X095050Y031259
X095560Y027580
X095640Y031800
X095670Y035720
X095799Y039635
X070400Y065250
X071440Y051540
X071500Y057450
X071538Y058171
X071564Y058974
X073440Y048570
X074470Y063090
X075410Y060762
X075568Y062358
X075817Y050986
X077600Y066950
X077875Y061578
X078180Y048726
X079060Y056725
X080161Y058352
X080285Y063337
X080590Y054830
X080890Y052040
X081126Y058378
X081344Y059128
X081362Y060742
X081690Y054700
X081974Y059725
X082710Y059998
X082752Y063305
X082752Y050465
X083387Y063095
X083911Y050659
X084047Y063543
X084199Y052104
X084377Y048853
X086714Y063178
X087090Y050557
X087320Y048860
X088030Y048450
X088467Y063177
X089108Y051360
X089125Y048570
X089506Y063448
X089549Y062791
X090387Y061091
X090510Y050320
X090702Y061676
X091179Y060289
X091894Y059135
X092048Y060283
X092320Y053800
X092420Y057450
X092559Y051707
X092590Y048930
X092800Y054260
X092865Y056525
X092975Y060350
X093110Y058410
X093170Y063410
X093288Y054750
X093680Y057580
X093815Y059411
X093839Y061962
X093906Y054182
X094039Y056957
X094425Y059637
X094490Y052790
X094663Y056283
X094867Y050834
X094880Y049230
X094987Y059016
X095050Y054260
X095560Y050580
X095640Y054800
X095670Y058720
X095799Y062635
X070400Y088250
X071440Y074539
X071500Y080450
X071538Y081170
X071564Y081974
X073440Y071570
X074470Y086090
X075410Y083762
X075568Y085358
X075817Y073986
X077600Y089950
X077875Y084578
X078180Y071726
X079060Y079725
X080161Y081352
X080285Y086337
X080590Y077830
X080890Y075039
X081126Y081378
X081344Y082128
X081362Y083742
X081690Y077700
X081974Y082725
X082710Y082998
X082752Y086305
X082752Y073465
X083387Y086095
X083911Y073658
X084047Y086543
X084199Y075104
X084377Y071853
X086714Y086178
X087090Y073557
X087320Y071860
X088030Y071450
X088467Y086176
X089108Y074360
X089125Y071570
X089506Y086448
X089549Y085791
X090387Y084091
X090510Y073320
X090702Y084676
X091179Y083289
X091894Y082135
X092048Y083283
X092320Y076800
X092420Y080450
X092559Y074707
X092590Y071930
X092800Y077260
X092865Y079525
X092975Y083350
X093110Y081410
X093170Y086410
X093288Y077750
X093680Y080580
X093815Y082411
X093839Y084962
X093906Y077182
X094039Y079957
X094425Y082637
X094490Y075789
X094663Y079283
X094867Y073834
X094880Y072230
X094987Y082017
X095050Y077260
X095560Y073580
X095640Y077800
X095670Y081720
X095799Y085635
X001312Y006007
X003612Y010718
X004771Y005917
X006062Y012738
X006502Y017618
X006612Y010398
X006822Y007738
X006983Y011311
X007002Y012028
X010072Y015678
X010302Y012138
X010792Y003091
X010812Y005527
X010832Y001751
X011175Y015668
X015022Y017738
X015028Y013962
X016242Y005417
X016954Y011947
X017404Y012420
X017452Y013798
X017502Y015558
X017682Y006849
X017862Y011278
X018976Y006283
X019702Y005693
X020572Y016868
X020832Y006018
X020872Y003108
X021462Y013288
X022242Y017487
X022632Y011968
X022812Y002384
X023082Y011703
X023112Y016828
X023572Y012028
X024039Y005731
X024877Y005792
X025252Y005167
X026023Y016538
X026569Y016085
X027802Y016067
X028671Y015904
X028687Y015241
X029016Y009582
X029202Y016358
X029295Y010742
X029922Y008508
X029932Y006867
X030302Y011928
X032241Y014878
X033982Y010298
X038400Y013785
X038412Y014438
X039416Y017058
X040284Y017066
X041398Y008265
X041482Y013628
X042062Y017328
X044732Y009168
X049222Y015258
X049834Y017857
X049852Y016628
X001312Y029008
X003612Y033718
X004771Y028917
X006062Y035738
X006502Y040618
X006612Y033397
X006822Y030738
X006983Y034311
X007002Y035028
X010072Y038678
X010302Y035138
X010792Y026091
X010812Y028528
X010832Y024752
X011175Y038668
X015022Y040738
X015028Y036962
X016242Y028418
X016954Y034947
X017404Y035420
X017452Y036798
X017502Y038558
X017682Y029849
X017862Y034278
X018976Y029284
X019702Y028694
X020572Y039868
X020832Y029018
X020872Y026108
X021462Y036288
X022242Y040487
X022632Y034968
X022812Y025384
X023082Y034703
X023112Y039828
X023572Y035028
X024039Y028731
X024877Y028793
X025252Y028168
X026023Y039538
X026569Y039085
X027802Y039068
X028671Y038904
X028687Y038241
X029016Y032582
X029202Y039358
X029295Y033742
X029922Y031508
X029932Y029868
X030302Y034928
X032241Y037878
X033982Y033298
X038400Y036785
X038412Y037438
X039416Y040058
X040284Y040066
X041398Y031265
X041482Y036628
X042062Y040328
X044732Y032168
X049222Y038258
X049834Y040857
X049852Y039628
X001312Y052007
X003612Y056718
X004771Y051917
X006062Y058738
X006502Y063618
X006612Y056397
X006822Y053738
X006983Y057311
X007002Y058028
X010072Y061678
X010302Y058138
X010792Y049091
X010812Y051528
X010832Y047751
X011175Y061668
X015022Y063738
X015028Y059962
X016242Y051418
X016954Y057947
X017404Y058420
X017452Y059798
X017502Y061558
X017682Y052849
X017862Y057278
X018976Y052284
X019702Y051694
X020572Y062868
X020832Y052018
X020872Y049108
X021462Y059288
X022242Y063487
X022632Y057968
X022812Y048384
X023082Y057703
X023112Y062828
X023572Y058028
X024039Y051731
X024877Y051793
X025252Y051168
X026023Y062538
X026569Y062085
X027802Y062068
X028671Y061904
X028687Y061241
X029016Y055582
X029202Y062358
X029295Y056742
X029922Y054507
X029932Y052867
X030302Y057928
X032241Y060878
X033982Y056298
X038400Y059785
X038412Y060438
X039416Y063058
X040284Y063066
X041398Y054265
X041482Y059628
X042062Y063328
X044732Y055168
X049222Y061258
X049834Y063857
X049852Y062628
X001312Y075008
X003612Y079718
X004771Y074917
X006062Y081738
X006502Y086618
X006612Y079398
X006822Y076738
X006983Y080311
X007002Y081028
X010072Y084678
X010302Y081138
X010792Y072091
X010812Y074527
X010832Y070752
X011175Y084668
X015022Y086738
X015028Y082962
X016242Y074418
X016954Y080947
X017404Y081420
X017452Y082798
X017502Y084558
X017682Y075849
X017862Y080278
X018976Y075283
X019702Y074694
X020572Y085868
X020832Y075018
X020872Y072108
X021462Y082288
X022242Y086487
X022632Y080968
X022812Y071384
X023082Y080703
X023112Y085828
X023572Y081028
X024039Y074731
X024877Y074793
X025252Y074168
X026023Y085538
X026569Y085085
X027802Y085068
X028671Y084904
X028687Y084241
X029016Y078582
X029202Y085358
X029295Y079742
X029922Y077508
X029932Y075868
X030302Y080928
X032241Y083878
X033982Y079298
X038400Y082785
X038412Y083438
X039416Y086058
X040284Y086066
X041398Y077265
X041482Y082628
X042062Y086328
X044732Y078168
X049222Y084258
X049834Y086857
X049852Y085628
X070400Y019250
X071440Y005539
X071500Y011450
X071538Y012171
X071564Y012974
X073440Y002570
X074470Y017090
X075410Y014762
X075568Y016358
X075817Y004986
X077600Y020950
X077875Y015578
X078180Y002725
X079060Y010725
X080161Y012352
X080285Y017337
X080590Y008830
X080890Y006039
X081126Y012378
X081344Y013128
X081362Y014742
X081690Y008700
X081974Y013725
X082710Y013998
X082752Y017305
X082752Y004465
X083387Y017095
X083911Y004658
X084047Y017543
X084199Y006103
X084377Y002853
X086714Y017178
X087090Y004556
X087320Y002859
X088030Y002449
X088467Y017177
X089108Y005359
X089125Y002570
X089506Y017448
X089549Y016791
X090387Y015091
X090510Y004320
X090702Y015676
X091179Y014289
X091894Y013135
X092048Y014283
X092320Y007800
X092420Y011450
X092559Y005707
X092590Y002929
X092800Y008260
X092865Y010525
X092975Y014350
X093110Y012410
X093170Y017410
X093288Y008750
X093680Y011580
X093815Y013411
X093839Y015962
X093906Y008182
X094039Y010957
X094425Y013637
X094490Y006789
X094663Y010283
X094867Y004834
X094880Y003230
X094987Y013017
X095050Y008260
X095560Y004579
X095640Y008800
X095670Y012720
X095799Y016634
T02
X068001Y045993G85X068002Y045993
X068002Y045986G85X068001Y045986
X068001Y068993G85X068002Y068993
X068002Y068986G85X068001Y068986
X068001Y091993G85X068002Y091993
X068002Y091986G85X068001Y091986
X000001Y022992G85X000002Y022992
X000002Y022985G85X000001Y022985
X000001Y045992G85X000002Y045992
X000002Y045985G85X000001Y045985
X000001Y068992G85X000002Y068992
X000002Y068985G85X000001Y068985
X000001Y091992G85X000002Y091992
X000002Y091985G85X000001Y091985
X068001Y022993G85X068002Y022993
X068002Y022986G85X068001Y022986
T03
X077799Y036118
X077799Y031238
X077799Y059118
X077799Y054238
X077799Y082118
X077799Y077238
X032142Y013658
X032142Y008778
X032142Y036658
X032142Y031778
X032142Y059658
X032142Y054778
X032142Y082658
X032142Y077778
X077799Y013118
X077799Y008238
X057410Y079190
X058425Y081730
X059440Y079190
X060455Y081730
X061470Y079190
X062485Y081730
X057410Y056190
X058425Y058730
X059440Y056190
X060455Y058730
X061470Y056190
X062485Y058730
X057410Y033190
X058425Y035730
X059440Y033190
X060455Y035730
X061470Y033190
X062485Y035730
X057410Y010190
X058425Y012730
X059440Y010190
X060455Y012730
X061470Y010190
X062485Y012730
T04
X072820Y037050
X072820Y032049
X072820Y060050
X072820Y055050
X072820Y083050
X072820Y078050
X004802Y013848
X004802Y008848
X004802Y036848
X004802Y031848
X004802Y059848
X004802Y054848
X004802Y082848
X004802Y077848
X072820Y014050
X072820Y009050
T05
X080135Y042972
X082675Y042972
X085215Y042972
X087755Y042972
X090295Y042972
X092835Y042972
X080135Y065972
X082675Y065972
X085215Y065972
X087755Y065972
X090295Y065972
X092835Y065972
X080135Y088972
X082675Y088972
X085215Y088972
X087755Y088972
X090295Y088972
X092835Y088972
X001892Y019318
X001892Y003818
X004432Y019318
X004432Y003818
X006972Y019318
X006972Y003818
X009030Y009920
X009030Y007380
X009512Y019318
X009512Y003818
X011570Y009920
X011570Y007380
X012052Y019318
X012052Y003818
X014110Y009920
X014110Y007380
X014592Y019318
X014592Y003818
X017132Y019318
X017132Y003818
X019672Y019318
X019672Y003818
X022212Y019318
X022212Y003818
X024752Y019318
X024752Y003818
X027292Y019318
X027292Y003818
X029832Y019318
X029832Y003818
X032372Y019318
X032372Y003818
X034912Y019318
X034912Y003818
X037452Y019318
X037452Y003818
X039992Y019318
X039992Y003818
X042532Y019318
X042532Y003818
X045072Y019318
X045072Y003818
X047612Y019318
X047612Y003818
X047772Y016518
X047772Y013978
X047772Y011438
X047772Y008898
X047772Y006358
X050152Y019318
X050152Y003818
X001892Y042318
X001892Y026818
X004432Y042318
X004432Y026818
X006972Y042318
X006972Y026818
X009030Y032920
X009030Y030380
X009512Y042318
X009512Y026818
X011570Y032920
X011570Y030380
X012052Y042318
X012052Y026818
X014110Y032920
X014110Y030380
X014592Y042318
X014592Y026818
X017132Y042318
X017132Y026818
X019672Y042318
X019672Y026818
X022212Y042318
X022212Y026818
X024752Y042318
X024752Y026818
X027292Y042318
X027292Y026818
X029832Y042318
X029832Y026818
X032372Y042318
X032372Y026818
X034912Y042318
X034912Y026818
X037452Y042318
X037452Y026818
X039992Y042318
X039992Y026818
X042532Y042318
X042532Y026818
X045072Y042318
X045072Y026818
X047612Y042318
X047612Y026818
X047772Y039518
X047772Y036978
X047772Y034438
X047772Y031898
X047772Y029358
X050152Y042318
X050152Y026818
X001892Y065318
X001892Y049818
X004432Y065318
X004432Y049818
X006972Y065318
X006972Y049818
X009030Y055920
X009030Y053380
X009512Y065318
X009512Y049818
X011570Y055920
X011570Y053380
X012052Y065318
X012052Y049818
X014110Y055920
X014110Y053380
X014592Y065318
X014592Y049818
X017132Y065318
X017132Y049818
X019672Y065318
X019672Y049818
X022212Y065318
X022212Y049818
X024752Y065318
X024752Y049818
X027292Y065318
X027292Y049818
X029832Y065318
X029832Y049818
X032372Y065318
X032372Y049818
X034912Y065318
X034912Y049818
X037452Y065318
X037452Y049818
X039992Y065318
X039992Y049818
X042532Y065318
X042532Y049818
X045072Y065318
X045072Y049818
X047612Y065318
X047612Y049818
X047772Y062518
X047772Y059978
X047772Y057438
X047772Y054897
X047772Y052358
X050152Y065318
X050152Y049818
X001892Y088318
X001892Y072818
X004432Y088318
X004432Y072818
X006972Y088318
X006972Y072818
X009030Y078920
X009030Y076380
X009512Y088318
X009512Y072818
X011570Y078920
X011570Y076380
X012052Y088318
X012052Y072818
X014110Y078920
X014110Y076380
X014592Y088318
X014592Y072818
X017132Y088318
X017132Y072818
X019672Y088318
X019672Y072818
X022212Y088318
X022212Y072818
X024752Y088318
X024752Y072818
X027292Y088318
X027292Y072818
X029832Y088318
X029832Y072818
X032372Y088318
X032372Y072818
X034912Y088318
X034912Y072818
X037452Y088318
X037452Y072818
X039992Y088318
X039992Y072818
X042532Y088318
X042532Y072818
X045072Y088318
X045072Y072818
X047612Y088318
X047612Y072818
X047772Y085518
X047772Y082978
X047772Y080438
X047772Y077898
X047772Y075358
X050152Y088318
X050152Y072818
X080135Y019972
X082675Y019972
X085215Y019972
X087755Y019972
X090295Y019972
X092835Y019972
X053650Y089000
X056190Y089000
X058730Y089000
X061269Y089000
X063810Y089000
X066350Y089000
X053650Y066000
X056190Y066000
X058730Y066000
X061269Y066000
X063810Y066000
X066350Y066000
X053650Y043000
X056190Y043000
X058730Y043000
X061269Y043000
X063810Y043000
X066350Y043000
X053650Y020000
X056190Y020000
X058730Y020000
X061269Y020000
X063810Y020000
X066350Y020000
T10
X053950Y076890
X065950Y076890
X053950Y053890
X065950Y053890
X053950Y030890
X065950Y030890
X053950Y007890
X065950Y007890
M30