M48
;DRILL file {KiCad 4.0.7} date 10/16/17 02:09:21
;FORMAT={-:-/ absolute / metric / decimal}
FMAT,2
METRIC,TZ
T1C0.300
T2C0.600
T3C0.800
T4C0.850
T5C1.000
%
G90
G05
M71
T1
X-49.19Y11.95
X-48.01Y13.91
X-46.53Y6.98
X-44.158Y6.906
X-44.158Y6.906
X-43.962Y7.473
X-43.922Y8.072
X-42.34Y-1.47
X-40.07Y10.28
X-39.964Y8.784
X-38.11Y10.05
X-37.329Y2.721
X-35.28Y10.3
X-34.573Y9.501
X-33.81Y8.22
X-33.77Y9.48
X-33.635Y13.327
X-33.39Y7.04
X-33.159Y10.369
X-31.98Y-0.88
X-31.6Y2.37
X-30.81Y2.01
X-29.875Y13.535
X-29.54Y2.39
X-28.27Y13.84
X-28.27Y2.02
X-27.55Y13.31
X-26.52Y1.97
X-26.03Y1.27
X-25.808Y1.86
X-24.514Y12.694
X-23.882Y12.6
X-23.25Y12.665
X-22.65Y12.665
X-22.05Y12.935
X-21.91Y11.69
X-21.56Y5.97
X-21.35Y8.43
X-21.305Y7.28
X-20.78Y4.91
X-20.56Y3.31
X-20.427Y8.45
X-18.64Y11.315
X-13.8Y7.06
X-13.Y6.035
X-10.65Y7.47
X-8.44Y3.17
X-8.27Y9.11
X-5.08Y11.02
X-4.77Y14.22
X-1.99Y9.06
X-0.7Y14.37
X-0.67Y13.22
T3
X-18.44Y10.04
X-18.44Y5.16
T4
X-45.326Y10.06
X-45.326Y5.06
T5
X-48.69Y15.73
X-48.69Y-0.02
X-46.15Y15.73
X-46.15Y-0.02
X-43.61Y15.73
X-43.61Y-0.02
X-41.552Y6.302
X-41.552Y3.762
X-41.07Y15.73
X-41.07Y-0.02
X-39.012Y6.302
X-39.012Y3.762
X-38.53Y15.73
X-38.53Y-0.02
X-36.472Y6.302
X-36.472Y3.762
X-35.99Y15.73
X-35.99Y-0.02
X-33.45Y15.73
X-33.45Y-0.02
X-30.91Y15.73
X-30.91Y-0.02
X-28.37Y15.73
X-28.37Y-0.02
X-25.83Y15.73
X-25.83Y-0.02
X-23.29Y15.73
X-23.29Y-0.02
X-20.75Y15.73
X-20.75Y-0.02
X-18.21Y15.73
X-18.21Y-0.02
X-15.67Y15.73
X-15.67Y-0.02
X-13.13Y15.73
X-13.13Y-0.02
X-10.59Y15.73
X-10.59Y-0.02
X-8.05Y15.73
X-8.05Y-0.02
X-5.51Y15.73
X-5.51Y-0.02
X-2.97Y15.73
X-2.97Y-0.02
X-2.81Y12.9
X-2.81Y10.36
X-2.81Y7.82
X-2.81Y5.28
X-2.81Y2.74
X-0.43Y15.73
X-0.43Y-0.02
T2
X-48.376Y11.06G85X-47.676Y11.06
G05
X-47.676Y4.06G85X-48.376Y4.06
G05
T0
M30
