%TF.GenerationSoftware,KiCad,Pcbnew,4.0.7*%
%TF.CreationDate,2017-10-16T02:09:04+08:00*%
%TF.ProjectId,STM32F401CCT6,53544D333246343031434354362E6B69,rev?*%
%TF.FileFunction,Copper,L2,Bot,Signal*%
%FSLAX46Y46*%
G04 Gerber Fmt 4.6, Leading zero omitted, Abs format (unit mm)*
G04 Created by KiCad (PCBNEW 4.0.7) date 10/16/17 02:09:04*
%MOMM*%
%LPD*%
G01*
G04 APERTURE LIST*
%ADD10C,0.100000*%
%ADD11R,1.700000X1.700000*%
%ADD12O,1.700000X1.700000*%
%ADD13C,1.450000*%
%ADD14O,1.900000X1.200000*%
%ADD15R,0.500000X0.900000*%
%ADD16R,0.900000X0.500000*%
%ADD17R,1.060000X0.650000*%
%ADD18R,0.750000X0.800000*%
%ADD19C,1.500000*%
%ADD20C,0.400000*%
%ADD21C,0.250000*%
%ADD22C,0.254000*%
G04 APERTURE END LIST*
D10*
D11*
X-430000Y15730000D03*
D12*
X-2970000Y15730000D03*
X-5510000Y15730000D03*
X-8050000Y15730000D03*
X-10590000Y15730000D03*
X-13130000Y15730000D03*
X-15670000Y15730000D03*
X-18210000Y15730000D03*
X-20750000Y15730000D03*
X-23290000Y15730000D03*
X-25830000Y15730000D03*
X-28370000Y15730000D03*
X-30910000Y15730000D03*
X-33450000Y15730000D03*
X-35990000Y15730000D03*
X-38530000Y15730000D03*
X-41070000Y15730000D03*
X-43610000Y15730000D03*
X-46150000Y15730000D03*
X-48690000Y15730000D03*
D11*
X-430000Y-20000D03*
D12*
X-2970000Y-20000D03*
X-5510000Y-20000D03*
X-8050000Y-20000D03*
X-10590000Y-20000D03*
X-13130000Y-20000D03*
X-15670000Y-20000D03*
X-18210000Y-20000D03*
X-20750000Y-20000D03*
X-23290000Y-20000D03*
X-25830000Y-20000D03*
X-28370000Y-20000D03*
X-30910000Y-20000D03*
X-33450000Y-20000D03*
X-35990000Y-20000D03*
X-38530000Y-20000D03*
X-41070000Y-20000D03*
X-43610000Y-20000D03*
X-46150000Y-20000D03*
X-48690000Y-20000D03*
D11*
X-36472000Y6302000D03*
D12*
X-36472000Y3762000D03*
X-39012000Y6302000D03*
X-39012000Y3762000D03*
X-41552000Y6302000D03*
X-41552000Y3762000D03*
D13*
X-45326000Y10060000D03*
X-45326000Y5060000D03*
D14*
X-48026000Y11060000D03*
X-48026000Y4060000D03*
D11*
X-2810000Y12900000D03*
D12*
X-2810000Y10360000D03*
X-2810000Y7820000D03*
X-2810000Y5280000D03*
X-2810000Y2740000D03*
D15*
X-47550000Y12960000D03*
X-46050000Y12960000D03*
D16*
X-43350000Y10990000D03*
X-43350000Y9490000D03*
X-41440000Y10990000D03*
X-41440000Y9490000D03*
D17*
X-38900000Y9020000D03*
X-38900000Y9970000D03*
X-38900000Y10920000D03*
X-36700000Y10920000D03*
X-36700000Y9020000D03*
X-36700000Y9970000D03*
D15*
X-38670000Y12870000D03*
X-37170000Y12870000D03*
D16*
X-31810000Y10860000D03*
X-31810000Y9360000D03*
D18*
X-29980000Y9330000D03*
X-29980000Y10830000D03*
X-28260000Y9320000D03*
X-28260000Y10820000D03*
X-26460000Y9320000D03*
X-26460000Y10820000D03*
X-24700000Y9330000D03*
X-24700000Y10830000D03*
X-22810000Y9330000D03*
X-22810000Y10830000D03*
D16*
X-20500000Y9290000D03*
X-20500000Y10790000D03*
D18*
X-16710000Y10830000D03*
X-16710000Y9330000D03*
X-14980000Y10830000D03*
X-14980000Y9330000D03*
X-13200000Y10830000D03*
X-13200000Y9330000D03*
X-11370000Y10830000D03*
X-11370000Y9330000D03*
D16*
X-9420000Y10790000D03*
X-9420000Y9290000D03*
D18*
X-7010000Y5510000D03*
X-7010000Y4010000D03*
D16*
X-9290000Y5540000D03*
X-9290000Y4040000D03*
X-20570000Y5630000D03*
X-20570000Y4130000D03*
D18*
X-22560000Y5650000D03*
X-22560000Y4150000D03*
X-24300000Y5660000D03*
X-24300000Y4160000D03*
D17*
X-28580000Y4000000D03*
X-28580000Y4950000D03*
X-28580000Y5900000D03*
X-26380000Y5900000D03*
X-26380000Y4000000D03*
D18*
X-30510000Y4130000D03*
X-30510000Y5630000D03*
X-32360000Y4130000D03*
X-32360000Y5630000D03*
D16*
X-34210000Y5670000D03*
X-34210000Y4170000D03*
D19*
X-18440000Y5160000D03*
X-18440000Y10040000D03*
D20*
X-31980000Y-880000D03*
X-49190000Y11950000D03*
X-33159390Y10368842D03*
X-21305000Y7280009D03*
X-21350000Y8430000D03*
X-20427474Y8449991D03*
X-28270000Y2020000D03*
X-21560000Y5970000D03*
X-23881944Y12600236D03*
X-29540000Y2390000D03*
X-38110000Y10050000D03*
X-44158309Y6905668D03*
X-44158309Y6905667D03*
X-18640000Y11314994D03*
X-48010000Y13910000D03*
X-23249903Y12664997D03*
X-670000Y13220000D03*
X-700000Y14370000D03*
X-35280000Y10300000D03*
X-1990000Y9060000D03*
X-42340000Y-1470000D03*
X-26520000Y1970000D03*
X-24514491Y12693637D03*
X-22049899Y12935000D03*
X-20780000Y4910000D03*
X-37328768Y2721232D03*
X-10650000Y7470000D03*
X-13800000Y7060000D03*
X-21910000Y11690000D03*
X-22649900Y12664997D03*
X-8270000Y9110000D03*
X-8440000Y3170000D03*
X-4770000Y14220000D03*
X-27550000Y13310000D03*
X-28270000Y13840000D03*
X-29874953Y13535065D03*
X-5080000Y11020000D03*
X-25808317Y1859522D03*
X-12999998Y6035000D03*
X-26030000Y1270000D03*
X-30810000Y2010000D03*
X-34573374Y9500538D03*
X-31600000Y2370000D03*
X-33390000Y7040000D03*
X-39963768Y8783768D03*
X-40069998Y10280000D03*
X-20559998Y3310000D03*
X-33770000Y9480000D03*
X-33634999Y13327499D03*
X-33810000Y8220000D03*
X-43922000Y8072000D03*
X-46530000Y6980000D03*
X-43962345Y7472766D03*
D21*
X-32650000Y1219991D02*
X-42324993Y1219991D01*
X-42324993Y1219991D02*
X-44025001Y2919999D01*
X-44025001Y2919999D02*
X-44025001Y5415001D01*
X-44025001Y5415001D02*
X-45064999Y6454999D01*
X-45064999Y6454999D02*
X-46782001Y6454999D01*
X-49379999Y11760001D02*
X-49190000Y11950000D01*
X-46782001Y6454999D02*
X-49379999Y9052997D01*
X-49379999Y9052997D02*
X-49379999Y11760001D01*
X-32179999Y749990D02*
X-32179999Y-680001D01*
X-32179999Y-680001D02*
X-31980000Y-880000D01*
X-32650000Y1219991D02*
X-32179999Y749990D01*
X-32180000Y1219991D02*
X-32650000Y1219991D01*
X-31890000Y1219991D02*
X-32180000Y1219991D01*
X-29953020Y1219991D02*
X-31890000Y1219991D01*
X-28580000Y2593011D02*
X-29953020Y1219991D01*
X-28580000Y4000000D02*
X-28580000Y2593011D01*
X-30510000Y5630000D02*
X-29885000Y5630000D01*
X-29885000Y5630000D02*
X-29615000Y5900000D01*
X-29615000Y5900000D02*
X-28580000Y5900000D01*
X-28580000Y5900000D02*
X-27800000Y5900000D01*
X-27800000Y4000000D02*
X-28580000Y4000000D01*
X-27800000Y5900000D02*
X-27700000Y5800000D01*
X-27700000Y5800000D02*
X-27700000Y4100000D01*
X-27700000Y4100000D02*
X-27800000Y4000000D01*
X-32941781Y10151233D02*
X-32959391Y10168843D01*
X-30605000Y9330000D02*
X-31426233Y10151233D01*
X-31426233Y10151233D02*
X-32941781Y10151233D01*
X-29980000Y9330000D02*
X-30605000Y9330000D01*
X-32959391Y10168843D02*
X-33159390Y10368842D01*
X-21549999Y8629999D02*
X-21350000Y8430000D01*
X-22240000Y9320000D02*
X-21549999Y8629999D01*
X-22910000Y9320000D02*
X-22240000Y9320000D01*
X-20427474Y8449991D02*
X-21305000Y7572465D01*
X-21305000Y7562851D02*
X-21305000Y7280009D01*
X-21305000Y7572465D02*
X-21305000Y7562851D01*
X-48010000Y13910000D02*
X-48010000Y13900000D01*
X-48010000Y13900000D02*
X-47550000Y13440000D01*
X-47550000Y13440000D02*
X-47550000Y12960000D01*
X-23881944Y12600236D02*
X-23881944Y12792865D01*
X-17560000Y16990000D02*
X-44890000Y16990000D01*
X-23881944Y12792865D02*
X-23214817Y13459992D01*
X-23214817Y13459992D02*
X-18234008Y13459992D01*
X-18234008Y13459992D02*
X-16970000Y14724000D01*
X-16970000Y14724000D02*
X-16970000Y16400000D01*
X-16970000Y16400000D02*
X-17560000Y16990000D01*
X-44890000Y16990000D02*
X-46150000Y15730000D01*
X-24700000Y9330000D02*
X-24700000Y9460000D01*
X-24700000Y9460000D02*
X-23881944Y10278056D01*
X-23881944Y10278056D02*
X-23881944Y12317394D01*
X-23881944Y12317394D02*
X-23881944Y12600236D01*
X-24300000Y5660000D02*
X-23195000Y5660000D01*
X-23195000Y5660000D02*
X-23185000Y5650000D01*
X-28270000Y2020000D02*
X-27240001Y3049999D01*
X-27240001Y3049999D02*
X-27240001Y4613999D01*
X-27240001Y4613999D02*
X-26914000Y4940000D01*
X-26914000Y4940000D02*
X-25645000Y4940000D01*
X-25645000Y4940000D02*
X-24925000Y5660000D01*
X-24925000Y5660000D02*
X-24300000Y5660000D01*
X-48690000Y15730000D02*
X-46150000Y15730000D01*
X-9420000Y10790000D02*
X-9350000Y10860000D01*
X-8518990Y16999998D02*
X-4459998Y16999998D01*
X-9350000Y10860000D02*
X-9350000Y16168988D01*
X-4459998Y16999998D02*
X-4220000Y16760000D01*
X-4220000Y16760000D02*
X-4220000Y14310000D01*
X-9350000Y16168988D02*
X-8518990Y16999998D01*
X-4220000Y14310000D02*
X-2810000Y12900000D01*
X-4270000Y1270000D02*
X-5940000Y1270000D01*
X-4270000Y1270000D02*
X-4260000Y1270000D01*
X-4260000Y1270000D02*
X-2970000Y-20000D01*
X-22560000Y5650000D02*
X-23185000Y5650000D01*
X-21880000Y5650000D02*
X-21759999Y5770001D01*
X-22560000Y5650000D02*
X-21880000Y5650000D01*
X-21759999Y5770001D02*
X-21560000Y5970000D01*
X-44158309Y6905668D02*
X-43554641Y6302000D01*
X-43390641Y6302000D02*
X-41552000Y6302000D01*
X-43554641Y6302000D02*
X-43390641Y6302000D01*
X-23869958Y12569958D02*
X-23869958Y12588250D01*
X-23869958Y12588250D02*
X-23881944Y12600236D01*
X-29739999Y2589999D02*
X-29540000Y2390000D01*
X-30510000Y3360000D02*
X-29739999Y2589999D01*
X-30510000Y4130000D02*
X-30510000Y3360000D01*
X-5940000Y1270000D02*
X-7850000Y3180000D01*
X-7850000Y3180000D02*
X-7850000Y4645000D01*
X-7850000Y4645000D02*
X-7010000Y5485000D01*
X-7010000Y5485000D02*
X-7010000Y5510000D01*
X-28580000Y4950000D02*
X-29690000Y4950000D01*
X-29690000Y4950000D02*
X-30510000Y4130000D01*
X-32360000Y4130000D02*
X-30510000Y4130000D01*
X-7010000Y5510000D02*
X-7010000Y5535000D01*
X-7010000Y5535000D02*
X-4090000Y8455000D01*
X-4090000Y8455000D02*
X-4090000Y11530000D01*
X-11370000Y10830000D02*
X-9460000Y10830000D01*
X-9460000Y10830000D02*
X-9420000Y10790000D01*
X-11370000Y10830000D02*
X-13200000Y10830000D01*
X-14990000Y10820000D02*
X-13210000Y10820000D01*
X-13210000Y10820000D02*
X-13200000Y10830000D01*
X-16710000Y10830000D02*
X-15000000Y10830000D01*
X-15000000Y10830000D02*
X-14990000Y10820000D01*
X-18640000Y11314994D02*
X-17244994Y11314994D01*
X-17244994Y11314994D02*
X-16750000Y10820000D01*
X-24700000Y9330000D02*
X-26450000Y9330000D01*
X-26450000Y9330000D02*
X-26460000Y9320000D01*
X-26460000Y9320000D02*
X-28260000Y9320000D01*
X-29980000Y9330000D02*
X-28270000Y9330000D01*
X-28270000Y9330000D02*
X-28260000Y9320000D01*
X-38392842Y10050000D02*
X-38110000Y10050000D01*
X-39170000Y10050000D02*
X-38392842Y10050000D01*
X-39170000Y10050000D02*
X-39440000Y10050000D01*
X-39440000Y10050000D02*
X-41570000Y7920000D01*
X-41570000Y7920000D02*
X-41570000Y7550000D01*
X-41552000Y6302000D02*
X-41552000Y5099919D01*
X-41552000Y5099919D02*
X-41552000Y3762000D01*
X-41570000Y7550000D02*
X-41552000Y7532000D01*
X-41552000Y7532000D02*
X-41552000Y6302000D01*
X-4090000Y11530000D02*
X-2880000Y12740000D01*
X-41570000Y7550000D02*
X-41570000Y7422081D01*
X-48040000Y13880000D02*
X-48010000Y13910000D01*
X-38140000Y10050000D02*
X-39170000Y10050000D01*
X-2809000Y-16000D02*
X-2532000Y-16000D01*
X-32420000Y6055000D02*
X-32420000Y5690000D01*
X-32420000Y5690000D02*
X-32360000Y5630000D01*
X-32420000Y6055000D02*
X-31385000Y7090000D01*
X-31385000Y7090000D02*
X-26900000Y7090000D01*
X-26900000Y7090000D02*
X-26380000Y6570000D01*
X-26380000Y6570000D02*
X-26380000Y5900000D01*
X-33702000Y10168988D02*
X-32893012Y9360000D01*
X-39820011Y14480011D02*
X-33940011Y14480011D01*
X-33080000Y11930000D02*
X-33702000Y11308000D01*
X-33080000Y13620000D02*
X-33080000Y11930000D01*
X-32510000Y9360000D02*
X-31810000Y9360000D01*
X-33940011Y14480011D02*
X-33080000Y13620000D01*
X-32893012Y9360000D02*
X-32510000Y9360000D01*
X-33702000Y11308000D02*
X-33702000Y10168988D01*
X-41070000Y15730000D02*
X-39820011Y14480011D01*
X-31810000Y9360000D02*
X-31610000Y9360000D01*
X-31610000Y9360000D02*
X-30410011Y8160011D01*
X-30410011Y8160011D02*
X-24270000Y8160011D01*
X-24270000Y8160011D02*
X-23790000Y8640011D01*
X-23790000Y8640011D02*
X-23790000Y9730000D01*
X-23790000Y9730000D02*
X-22810000Y10710000D01*
X-22810000Y10710000D02*
X-22810000Y10830000D01*
X-22910000Y10795000D02*
X-22910000Y10820000D01*
X-22910000Y10820000D02*
X-22910000Y11470000D01*
X-22910000Y11470000D02*
X-23249903Y11809903D01*
X-23249903Y11809903D02*
X-23249903Y12664997D01*
X-700000Y14370000D02*
X-700000Y13250000D01*
X-700000Y13250000D02*
X-670000Y13220000D01*
X-35610000Y9970000D02*
X-35479999Y10100001D01*
X-36670000Y12870000D02*
X-35280000Y11480000D01*
X-35479999Y10100001D02*
X-35280000Y10300000D01*
X-37170000Y12870000D02*
X-36670000Y12870000D01*
X-35280000Y11480000D02*
X-35280000Y10582842D01*
X-36700000Y9970000D02*
X-35610000Y9970000D01*
X-35280000Y10582842D02*
X-35280000Y10300000D01*
X-2090000Y2740000D02*
X-430000Y1080000D01*
X-430000Y1080000D02*
X-430000Y-20000D01*
X-22019899Y12905000D02*
X-22049899Y12935000D01*
X-18152604Y12905000D02*
X-22019899Y12905000D01*
X-16977604Y14080000D02*
X-18152604Y12905000D01*
X-11840000Y14820000D02*
X-12580000Y14080000D01*
X-11840000Y16218988D02*
X-11840000Y14820000D01*
X-12580000Y14080000D02*
X-16977604Y14080000D01*
X-11090000Y16968988D02*
X-11840000Y16218988D01*
X-11090000Y16970000D02*
X-11090000Y16968988D01*
X-10610001Y17449999D02*
X-11090000Y16970000D01*
X-2779999Y17449999D02*
X-10610001Y17449999D01*
X-1720000Y16390000D02*
X-2779999Y17449999D01*
X-1720000Y14360000D02*
X-1720000Y16390000D01*
X-1290000Y13930000D02*
X-1720000Y14360000D01*
X-1290000Y8880000D02*
X-1290000Y13930000D01*
X-1290000Y4260000D02*
X-1290000Y8880000D01*
X-2810000Y2740000D02*
X-1290000Y4260000D01*
X-1290000Y8880000D02*
X-1470000Y9060000D01*
X-41970000Y-1475001D02*
X-44024999Y-1475001D01*
X-44024999Y-1475001D02*
X-44860000Y-640000D01*
X-44860000Y2950000D02*
X-49830000Y7920000D01*
X-44860000Y-640000D02*
X-44860000Y2950000D01*
X-49830000Y7920000D02*
X-49830000Y13812002D01*
X-49830000Y13812002D02*
X-49177000Y14465002D01*
X-49177000Y14465002D02*
X-44874998Y14465002D01*
X-44874998Y14465002D02*
X-44780000Y14560000D01*
X-44780000Y14560000D02*
X-43610000Y15730000D01*
X-43610000Y15730000D02*
X-41910000Y14030000D01*
X-41910000Y14030000D02*
X-37630000Y14030000D01*
X-37630000Y14030000D02*
X-37170000Y13570000D01*
X-37170000Y13570000D02*
X-37170000Y12870000D01*
X-1707158Y9060000D02*
X-1990000Y9060000D01*
X-1470000Y9060000D02*
X-1707158Y9060000D01*
X-2090000Y2740000D02*
X-2810000Y2740000D01*
X-430000Y-20000D02*
X-430000Y-100000D01*
X-430000Y-100000D02*
X-1800000Y-1470000D01*
X-1800000Y-1470000D02*
X-1800000Y-1475001D01*
X-1800000Y-1475001D02*
X-27420000Y-1475001D01*
X-27420000Y-1475001D02*
X-27110000Y-1165001D01*
X-27110000Y1380000D02*
X-26719999Y1770001D01*
X-27110000Y-1165001D02*
X-27110000Y1380000D01*
X-26719999Y1770001D02*
X-26520000Y1970000D01*
X-41970000Y-1475001D02*
X-27651999Y-1475001D01*
X-27651999Y-1475001D02*
X-27420000Y-1475001D01*
X-41970000Y-1475001D02*
X-41975001Y-1470000D01*
X-41975001Y-1470000D02*
X-42340000Y-1470000D01*
X-26380000Y2110000D02*
X-26520000Y1970000D01*
X-26380000Y4000000D02*
X-26380000Y2110000D01*
X-24580597Y12759743D02*
X-24514491Y12693637D01*
X-24595106Y12759743D02*
X-24580597Y12759743D01*
X-24700000Y10830000D02*
X-24700000Y12508128D01*
X-24700000Y12508128D02*
X-24514491Y12693637D01*
X-24598000Y12756849D02*
X-24595106Y12759743D01*
X-24620000Y12734849D02*
X-24595106Y12759743D01*
X-26380000Y4000000D02*
X-24460000Y4000000D01*
X-24460000Y4000000D02*
X-24300000Y4160000D01*
X-24190000Y4160000D02*
X-22570000Y4160000D01*
X-22570000Y4160000D02*
X-22560000Y4150000D01*
X-22560000Y4150000D02*
X-21800000Y4910000D01*
X-21800000Y4910000D02*
X-20780000Y4910000D01*
X-7010000Y4010000D02*
X-4080000Y4010000D01*
X-4080000Y4010000D02*
X-2810000Y2740000D01*
X-26460000Y10820000D02*
X-24710000Y10820000D01*
X-24710000Y10820000D02*
X-24700000Y10830000D01*
X-28260000Y10820000D02*
X-26460000Y10820000D01*
X-29980000Y10830000D02*
X-28270000Y10830000D01*
X-28270000Y10830000D02*
X-28260000Y10820000D01*
X-31810000Y10860000D02*
X-30010000Y10860000D01*
X-30010000Y10860000D02*
X-29980000Y10830000D01*
X-36490000Y3680000D02*
X-36490000Y3560000D01*
X-36490000Y3560000D02*
X-37328768Y2721232D01*
X-354000Y-16000D02*
X8000Y-16000D01*
X-3425000Y2400000D02*
X-2770000Y2400000D01*
X-36490000Y6220000D02*
X-36490000Y5120000D01*
X-36490000Y5120000D02*
X-36490000Y3680000D01*
X-43190000Y15714000D02*
X-43172000Y15732000D01*
X-6090000Y10440000D02*
X-6090000Y15150000D01*
X-10650000Y7470000D02*
X-9060000Y7470000D01*
X-9060000Y7470000D02*
X-6090000Y10440000D01*
X-6090000Y15150000D02*
X-5510000Y15730000D01*
X-11370000Y8190000D02*
X-10849999Y7669999D01*
X-11370000Y9330000D02*
X-11370000Y8190000D01*
X-10849999Y7669999D02*
X-10650000Y7470000D01*
X-5098000Y15732000D02*
X-5072000Y15732000D01*
X-8050000Y15730000D02*
X-8050000Y10660000D01*
X-8050000Y10660000D02*
X-8630000Y10080000D01*
X-8630000Y10080000D02*
X-12475000Y10080000D01*
X-12475000Y10080000D02*
X-13200000Y9355000D01*
X-13200000Y9355000D02*
X-13200000Y9330000D01*
X-13200000Y9330000D02*
X-13200000Y7660000D01*
X-13600001Y7259999D02*
X-13800000Y7060000D01*
X-13200000Y7660000D02*
X-13600001Y7259999D01*
X-7614000Y15730000D02*
X-7612000Y15732000D01*
X-8320000Y15730000D02*
X-7614000Y15730000D01*
X-21910000Y11690000D02*
X-21440000Y11220000D01*
X-21440000Y11220000D02*
X-21440000Y10020000D01*
X-21440000Y10020000D02*
X-20710000Y9290000D01*
X-20710000Y9290000D02*
X-19450000Y9290000D01*
X-19450000Y9290000D02*
X-18410000Y8250000D01*
X-18410000Y8250000D02*
X-18410000Y8260000D01*
X-18410000Y8260000D02*
X-18420000Y8270000D01*
X-18420000Y8270000D02*
X-18440000Y8250000D01*
X-18440000Y8250000D02*
X-18440000Y5160000D01*
X-18410000Y8250000D02*
X-16035000Y8250000D01*
X-16035000Y8250000D02*
X-14980000Y9305000D01*
X-14980000Y9305000D02*
X-14980000Y9330000D01*
X-14990000Y9320000D02*
X-14990000Y9295000D01*
X-14990000Y9295000D02*
X-16035000Y8250000D01*
X-22649900Y12664997D02*
X-22622055Y12637152D01*
X-22622055Y12637152D02*
X-22622055Y12410000D01*
X-22622055Y12410000D02*
X-21630000Y12410000D01*
X-20510000Y11290000D02*
X-20510000Y10790000D01*
X-21630000Y12410000D02*
X-20510000Y11290000D01*
X-20510000Y10790000D02*
X-19189999Y10789999D01*
X-19189999Y10789999D02*
X-18440000Y10040000D01*
X-17770000Y9320000D02*
X-17770000Y9370000D01*
X-17770000Y9370000D02*
X-18440000Y10040000D01*
X-16750000Y9320000D02*
X-17770000Y9320000D01*
X-17770000Y9320000D02*
X-18510000Y10060000D01*
X-9420000Y9290000D02*
X-9240000Y9110000D01*
X-9240000Y9110000D02*
X-8270000Y9110000D01*
X-9290000Y4040000D02*
X-9290000Y4030000D01*
X-9290000Y4030000D02*
X-8440000Y3180000D01*
X-8440000Y3180000D02*
X-8440000Y3170000D01*
X-20560000Y5690000D02*
X-20560000Y5736989D01*
X-35560000Y7810000D02*
X-37440000Y7810000D01*
X-20560000Y5736989D02*
X-22533011Y7710000D01*
X-37440000Y7810000D02*
X-38180001Y7069999D01*
X-22533011Y7710000D02*
X-32552998Y7710000D01*
X-33607997Y8764999D02*
X-34605001Y8764999D01*
X-32552998Y7710000D02*
X-33607997Y8764999D01*
X-34605001Y8764999D02*
X-35560000Y7810000D01*
X-38180001Y7069999D02*
X-39030000Y6220000D01*
X-35730000Y2150000D02*
X-37500000Y2150000D01*
X-37500000Y2150000D02*
X-39030000Y3680000D01*
X-34210000Y4170000D02*
X-34210000Y3670000D01*
X-34210000Y3670000D02*
X-35730000Y2150000D01*
X-35730000Y2150000D02*
X-35840000Y2150000D01*
X-9290000Y5540000D02*
X-9090000Y5540000D01*
X-9090000Y5540000D02*
X-4550002Y10079998D01*
X-4550002Y10079998D02*
X-4550002Y14000002D01*
X-4550002Y14000002D02*
X-4570001Y14020001D01*
X-4570001Y14020001D02*
X-4770000Y14220000D01*
X-27550000Y13310000D02*
X-24001206Y13310000D01*
X-24001206Y13310000D02*
X-23401213Y13909993D01*
X-23401213Y13909993D02*
X-20030007Y13909993D01*
X-20030007Y13909993D02*
X-18210000Y15730000D01*
X-28270000Y13840000D02*
X-24107603Y13840000D01*
X-24107603Y13840000D02*
X-23537603Y14410000D01*
X-23537603Y14410000D02*
X-22050000Y14410000D01*
X-22050000Y14410000D02*
X-22050000Y14430000D01*
X-22050000Y14430000D02*
X-20750000Y15730000D01*
X-29874953Y13535065D02*
X-29030018Y14380000D01*
X-24640000Y14380000D02*
X-23290000Y15730000D01*
X-29030018Y14380000D02*
X-24640000Y14380000D01*
X-9257158Y6560000D02*
X-5080000Y10737158D01*
X-13523012Y6560000D02*
X-9257158Y6560000D01*
X-5080000Y10737158D02*
X-5080000Y11020000D01*
X-25808317Y1859522D02*
X-18223490Y1859522D01*
X-18223490Y1859522D02*
X-13523012Y6560000D01*
X-14220000Y4860000D02*
X-14174998Y4860000D01*
X-13199997Y5835001D02*
X-12999998Y6035000D01*
X-14174998Y4860000D02*
X-13199997Y5835001D01*
X-25747158Y1270000D02*
X-26030000Y1270000D01*
X-17810000Y1270000D02*
X-25747158Y1270000D01*
X-14220000Y4860000D02*
X-17810000Y1270000D01*
X-14220000Y4860000D02*
X-14369999Y4710001D01*
X-36700000Y10920000D02*
X-37480000Y10920000D01*
X-38960001Y1700001D02*
X-31119999Y1700001D01*
X-37480000Y10920000D02*
X-37585009Y10814991D01*
X-37585009Y10814991D02*
X-37585009Y8574991D01*
X-37585009Y8574991D02*
X-38370000Y7790000D01*
X-38370000Y7790000D02*
X-39540000Y7790000D01*
X-39540000Y7790000D02*
X-40310000Y7020000D01*
X-31009999Y1810001D02*
X-30810000Y2010000D01*
X-40310000Y7020000D02*
X-40310000Y3050000D01*
X-31119999Y1700001D02*
X-31009999Y1810001D01*
X-40310000Y3050000D02*
X-38960001Y1700001D01*
X-36700000Y9020000D02*
X-35053912Y9020000D01*
X-34773373Y9300539D02*
X-34573374Y9500538D01*
X-35053912Y9020000D02*
X-34773373Y9300539D01*
X-33390000Y7040000D02*
X-33270000Y6920000D01*
X-33270000Y6920000D02*
X-33270000Y3450000D01*
X-33270000Y3450000D02*
X-32190000Y2370000D01*
X-32190000Y2370000D02*
X-31600000Y2370000D01*
X-38900000Y9020000D02*
X-39727536Y9020000D01*
X-39727536Y9020000D02*
X-39963768Y8783768D01*
X-43350000Y10990000D02*
X-43350000Y10490000D01*
X-43350000Y10490000D02*
X-43140000Y10280000D01*
X-43140000Y10280000D02*
X-40080000Y10280000D01*
X-40080000Y10280000D02*
X-40069998Y10280000D01*
X-38670000Y12870000D02*
X-38670000Y11150000D01*
X-38670000Y11150000D02*
X-38900000Y10920000D01*
X-38670000Y12870000D02*
X-39680000Y12870000D01*
X-39680000Y12870000D02*
X-41550000Y11000000D01*
X-41550000Y11000000D02*
X-41550000Y10990000D01*
X-20559998Y3592842D02*
X-20559998Y3310000D01*
X-20560000Y4190000D02*
X-20559998Y4189998D01*
X-20559998Y4189998D02*
X-20559998Y3592842D01*
X-34510011Y12452487D02*
X-34510011Y10220011D01*
X-33634999Y13327499D02*
X-34510011Y12452487D01*
X-34510011Y10220011D02*
X-33969999Y9679999D01*
X-33969999Y9679999D02*
X-33770000Y9480000D01*
X-34210000Y5670000D02*
X-34210000Y7820000D01*
X-34210000Y7820000D02*
X-33810000Y8220000D01*
X-34009999Y8020001D02*
X-33810000Y8220000D01*
X-43350000Y9490000D02*
X-43350000Y8644000D01*
X-43350000Y8644000D02*
X-43922000Y8072000D01*
X-46530000Y6980000D02*
X-46530000Y10830000D01*
X-46530000Y10830000D02*
X-46050000Y11310000D01*
X-46050000Y11310000D02*
X-46050000Y12960000D01*
X-43962345Y7472766D02*
X-43197234Y7472766D01*
X-41440000Y9230000D02*
X-41440000Y9490000D01*
X-43197234Y7472766D02*
X-41440000Y9230000D01*
D22*
G36*
X-2843000Y107000D02*
X-2823000Y107000D01*
X-2823000Y-147000D01*
X-2843000Y-147000D01*
X-2843000Y-167000D01*
X-3097000Y-167000D01*
X-3097000Y-147000D01*
X-3117000Y-147000D01*
X-3117000Y107000D01*
X-3097000Y107000D01*
X-3097000Y127000D01*
X-2843000Y127000D01*
X-2843000Y107000D01*
X-2843000Y107000D01*
G37*
X-2843000Y107000D02*
X-2823000Y107000D01*
X-2823000Y-147000D01*
X-2843000Y-147000D01*
X-2843000Y-167000D01*
X-3097000Y-167000D01*
X-3097000Y-147000D01*
X-3117000Y-147000D01*
X-3117000Y107000D01*
X-3097000Y107000D01*
X-3097000Y127000D01*
X-2843000Y127000D01*
X-2843000Y107000D01*
G36*
X-10387440Y5790000D02*
X-10387440Y5290000D01*
X-10343162Y5054683D01*
X-10204090Y4838559D01*
X-10134289Y4790866D01*
X-10191441Y4754090D01*
X-10336431Y4541890D01*
X-10387440Y4290000D01*
X-10387440Y3790000D01*
X-10343162Y3554683D01*
X-10204090Y3338559D01*
X-9991890Y3193569D01*
X-9740000Y3142560D01*
X-9477362Y3142560D01*
X-9229874Y2895072D01*
X-9148292Y2697628D01*
X-8913607Y2462534D01*
X-8606821Y2335145D01*
X-8274637Y2334855D01*
X-7967628Y2461708D01*
X-7732534Y2696393D01*
X-7605145Y3003179D01*
X-7605142Y3007140D01*
X-7385000Y2962560D01*
X-6635000Y2962560D01*
X-6399683Y3006838D01*
X-6183559Y3145910D01*
X-6112437Y3250000D01*
X-4394802Y3250000D01*
X-4251210Y3106408D01*
X-4324093Y2740000D01*
X-4211054Y2171715D01*
X-3889147Y1689946D01*
X-3425948Y1380447D01*
X-3736924Y1251645D01*
X-4165183Y861358D01*
X-4232298Y718447D01*
X-4459946Y1059147D01*
X-4941715Y1381054D01*
X-5510000Y1494093D01*
X-6078285Y1381054D01*
X-6560054Y1059147D01*
X-6780000Y729974D01*
X-6999946Y1059147D01*
X-7481715Y1381054D01*
X-8050000Y1494093D01*
X-8618285Y1381054D01*
X-9100054Y1059147D01*
X-9320000Y729974D01*
X-9539946Y1059147D01*
X-10021715Y1381054D01*
X-10590000Y1494093D01*
X-11158285Y1381054D01*
X-11640054Y1059147D01*
X-11860000Y729974D01*
X-12079946Y1059147D01*
X-12561715Y1381054D01*
X-13130000Y1494093D01*
X-13698285Y1381054D01*
X-14180054Y1059147D01*
X-14400000Y729974D01*
X-14619946Y1059147D01*
X-15101715Y1381054D01*
X-15670000Y1494093D01*
X-16238285Y1381054D01*
X-16720054Y1059147D01*
X-16940000Y729974D01*
X-17074272Y930926D01*
X-13773217Y4231981D01*
X-13637597Y4322599D01*
X-12708028Y5252168D01*
X-12527626Y5326708D01*
X-12292532Y5561393D01*
X-12193453Y5800000D01*
X-10385415Y5800000D01*
X-10387440Y5790000D01*
X-10387440Y5790000D01*
G37*
X-10387440Y5790000D02*
X-10387440Y5290000D01*
X-10343162Y5054683D01*
X-10204090Y4838559D01*
X-10134289Y4790866D01*
X-10191441Y4754090D01*
X-10336431Y4541890D01*
X-10387440Y4290000D01*
X-10387440Y3790000D01*
X-10343162Y3554683D01*
X-10204090Y3338559D01*
X-9991890Y3193569D01*
X-9740000Y3142560D01*
X-9477362Y3142560D01*
X-9229874Y2895072D01*
X-9148292Y2697628D01*
X-8913607Y2462534D01*
X-8606821Y2335145D01*
X-8274637Y2334855D01*
X-7967628Y2461708D01*
X-7732534Y2696393D01*
X-7605145Y3003179D01*
X-7605142Y3007140D01*
X-7385000Y2962560D01*
X-6635000Y2962560D01*
X-6399683Y3006838D01*
X-6183559Y3145910D01*
X-6112437Y3250000D01*
X-4394802Y3250000D01*
X-4251210Y3106408D01*
X-4324093Y2740000D01*
X-4211054Y2171715D01*
X-3889147Y1689946D01*
X-3425948Y1380447D01*
X-3736924Y1251645D01*
X-4165183Y861358D01*
X-4232298Y718447D01*
X-4459946Y1059147D01*
X-4941715Y1381054D01*
X-5510000Y1494093D01*
X-6078285Y1381054D01*
X-6560054Y1059147D01*
X-6780000Y729974D01*
X-6999946Y1059147D01*
X-7481715Y1381054D01*
X-8050000Y1494093D01*
X-8618285Y1381054D01*
X-9100054Y1059147D01*
X-9320000Y729974D01*
X-9539946Y1059147D01*
X-10021715Y1381054D01*
X-10590000Y1494093D01*
X-11158285Y1381054D01*
X-11640054Y1059147D01*
X-11860000Y729974D01*
X-12079946Y1059147D01*
X-12561715Y1381054D01*
X-13130000Y1494093D01*
X-13698285Y1381054D01*
X-14180054Y1059147D01*
X-14400000Y729974D01*
X-14619946Y1059147D01*
X-15101715Y1381054D01*
X-15670000Y1494093D01*
X-16238285Y1381054D01*
X-16720054Y1059147D01*
X-16940000Y729974D01*
X-17074272Y930926D01*
X-13773217Y4231981D01*
X-13637597Y4322599D01*
X-12708028Y5252168D01*
X-12527626Y5326708D01*
X-12292532Y5561393D01*
X-12193453Y5800000D01*
X-10385415Y5800000D01*
X-10387440Y5790000D01*
G36*
X-27374090Y3223559D02*
X-27161890Y3078569D01*
X-27140000Y3074136D01*
X-27140000Y2530921D01*
X-27227466Y2443607D01*
X-27302929Y2261873D01*
X-27647401Y1917401D01*
X-27812148Y1670839D01*
X-27867199Y1394080D01*
X-28370000Y1494093D01*
X-28662247Y1435961D01*
X-28042598Y2055610D01*
X-27877852Y2302172D01*
X-27820000Y2593011D01*
X-27820000Y3070838D01*
X-27814683Y3071838D01*
X-27598559Y3210910D01*
X-27543872Y3290948D01*
X-27509161Y3297852D01*
X-27448135Y3338628D01*
X-27374090Y3223559D01*
X-27374090Y3223559D01*
G37*
X-27374090Y3223559D02*
X-27161890Y3078569D01*
X-27140000Y3074136D01*
X-27140000Y2530921D01*
X-27227466Y2443607D01*
X-27302929Y2261873D01*
X-27647401Y1917401D01*
X-27812148Y1670839D01*
X-27867199Y1394080D01*
X-28370000Y1494093D01*
X-28662247Y1435961D01*
X-28042598Y2055610D01*
X-27877852Y2302172D01*
X-27820000Y2593011D01*
X-27820000Y3070838D01*
X-27814683Y3071838D01*
X-27598559Y3210910D01*
X-27543872Y3290948D01*
X-27509161Y3297852D01*
X-27448135Y3338628D01*
X-27374090Y3223559D01*
G36*
X-40798913Y8618405D02*
X-40672060Y8311396D01*
X-40437375Y8076302D01*
X-40360444Y8044358D01*
X-40817661Y7587141D01*
X-41195110Y7743476D01*
X-41425000Y7622155D01*
X-41425000Y6429000D01*
X-41405000Y6429000D01*
X-41405000Y6175000D01*
X-41425000Y6175000D01*
X-41425000Y3889000D01*
X-41405000Y3889000D01*
X-41405000Y3635000D01*
X-41425000Y3635000D01*
X-41425000Y2441845D01*
X-41195110Y2320524D01*
X-40813418Y2478616D01*
X-40314793Y1979991D01*
X-42010191Y1979991D01*
X-43265001Y3234801D01*
X-43265001Y3405108D01*
X-42993486Y3405108D01*
X-42747183Y2880642D01*
X-42318924Y2490355D01*
X-41908890Y2320524D01*
X-41679000Y2441845D01*
X-41679000Y3635000D01*
X-42872819Y3635000D01*
X-42993486Y3405108D01*
X-43265001Y3405108D01*
X-43265001Y5415001D01*
X-43285409Y5517599D01*
X-43322853Y5705841D01*
X-43482726Y5945108D01*
X-42993486Y5945108D01*
X-42747183Y5420642D01*
X-42320729Y5032000D01*
X-42747183Y4643358D01*
X-42993486Y4118892D01*
X-42872819Y3889000D01*
X-41679000Y3889000D01*
X-41679000Y6175000D01*
X-42872819Y6175000D01*
X-42993486Y5945108D01*
X-43482726Y5945108D01*
X-43487600Y5952402D01*
X-44204313Y6669115D01*
X-44129166Y6637911D01*
X-43796982Y6637621D01*
X-43615116Y6712766D01*
X-43197234Y6712766D01*
X-42944584Y6763022D01*
X-42993486Y6658892D01*
X-42872819Y6429000D01*
X-41679000Y6429000D01*
X-41679000Y7622155D01*
X-41871470Y7723728D01*
X-41002638Y8592560D01*
X-40990000Y8592560D01*
X-40798904Y8628517D01*
X-40798913Y8618405D01*
X-40798913Y8618405D01*
G37*
X-40798913Y8618405D02*
X-40672060Y8311396D01*
X-40437375Y8076302D01*
X-40360444Y8044358D01*
X-40817661Y7587141D01*
X-41195110Y7743476D01*
X-41425000Y7622155D01*
X-41425000Y6429000D01*
X-41405000Y6429000D01*
X-41405000Y6175000D01*
X-41425000Y6175000D01*
X-41425000Y3889000D01*
X-41405000Y3889000D01*
X-41405000Y3635000D01*
X-41425000Y3635000D01*
X-41425000Y2441845D01*
X-41195110Y2320524D01*
X-40813418Y2478616D01*
X-40314793Y1979991D01*
X-42010191Y1979991D01*
X-43265001Y3234801D01*
X-43265001Y3405108D01*
X-42993486Y3405108D01*
X-42747183Y2880642D01*
X-42318924Y2490355D01*
X-41908890Y2320524D01*
X-41679000Y2441845D01*
X-41679000Y3635000D01*
X-42872819Y3635000D01*
X-42993486Y3405108D01*
X-43265001Y3405108D01*
X-43265001Y5415001D01*
X-43285409Y5517599D01*
X-43322853Y5705841D01*
X-43482726Y5945108D01*
X-42993486Y5945108D01*
X-42747183Y5420642D01*
X-42320729Y5032000D01*
X-42747183Y4643358D01*
X-42993486Y4118892D01*
X-42872819Y3889000D01*
X-41679000Y3889000D01*
X-41679000Y6175000D01*
X-42872819Y6175000D01*
X-42993486Y5945108D01*
X-43482726Y5945108D01*
X-43487600Y5952402D01*
X-44204313Y6669115D01*
X-44129166Y6637911D01*
X-43796982Y6637621D01*
X-43615116Y6712766D01*
X-43197234Y6712766D01*
X-42944584Y6763022D01*
X-42993486Y6658892D01*
X-42872819Y6429000D01*
X-41679000Y6429000D01*
X-41679000Y7622155D01*
X-41871470Y7723728D01*
X-41002638Y8592560D01*
X-40990000Y8592560D01*
X-40798904Y8628517D01*
X-40798913Y8618405D01*
G36*
X-31361250Y4257000D02*
X-30637000Y4257000D01*
X-30637000Y4277000D01*
X-30383000Y4277000D01*
X-30383000Y4257000D01*
X-30363000Y4257000D01*
X-30363000Y4003000D01*
X-30383000Y4003000D01*
X-30383000Y3253750D01*
X-30224250Y3095000D01*
X-30008690Y3095000D01*
X-29775301Y3191673D01*
X-29640387Y3326588D01*
X-29574090Y3223559D01*
X-29361890Y3078569D01*
X-29340000Y3074136D01*
X-29340000Y2907814D01*
X-30003390Y2244423D01*
X-30101708Y2482372D01*
X-30336393Y2717466D01*
X-30643179Y2844855D01*
X-30894406Y2845074D01*
X-31126393Y3077466D01*
X-31433179Y3204855D01*
X-31611963Y3205011D01*
X-31446673Y3370302D01*
X-31435000Y3398483D01*
X-31423327Y3370302D01*
X-31244699Y3191673D01*
X-31011310Y3095000D01*
X-30795750Y3095000D01*
X-30637000Y3253750D01*
X-30637000Y4003000D01*
X-31361250Y4003000D01*
X-31435000Y3929250D01*
X-31508750Y4003000D01*
X-32233000Y4003000D01*
X-32233000Y3983000D01*
X-32487000Y3983000D01*
X-32487000Y4003000D01*
X-32507000Y4003000D01*
X-32507000Y4257000D01*
X-32487000Y4257000D01*
X-32487000Y4277000D01*
X-32233000Y4277000D01*
X-32233000Y4257000D01*
X-31508750Y4257000D01*
X-31435000Y4330750D01*
X-31361250Y4257000D01*
X-31361250Y4257000D01*
G37*
X-31361250Y4257000D02*
X-30637000Y4257000D01*
X-30637000Y4277000D01*
X-30383000Y4277000D01*
X-30383000Y4257000D01*
X-30363000Y4257000D01*
X-30363000Y4003000D01*
X-30383000Y4003000D01*
X-30383000Y3253750D01*
X-30224250Y3095000D01*
X-30008690Y3095000D01*
X-29775301Y3191673D01*
X-29640387Y3326588D01*
X-29574090Y3223559D01*
X-29361890Y3078569D01*
X-29340000Y3074136D01*
X-29340000Y2907814D01*
X-30003390Y2244423D01*
X-30101708Y2482372D01*
X-30336393Y2717466D01*
X-30643179Y2844855D01*
X-30894406Y2845074D01*
X-31126393Y3077466D01*
X-31433179Y3204855D01*
X-31611963Y3205011D01*
X-31446673Y3370302D01*
X-31435000Y3398483D01*
X-31423327Y3370302D01*
X-31244699Y3191673D01*
X-31011310Y3095000D01*
X-30795750Y3095000D01*
X-30637000Y3253750D01*
X-30637000Y4003000D01*
X-31361250Y4003000D01*
X-31435000Y3929250D01*
X-31508750Y4003000D01*
X-32233000Y4003000D01*
X-32233000Y3983000D01*
X-32487000Y3983000D01*
X-32487000Y4003000D01*
X-32507000Y4003000D01*
X-32507000Y4257000D01*
X-32487000Y4257000D01*
X-32487000Y4277000D01*
X-32233000Y4277000D01*
X-32233000Y4257000D01*
X-31508750Y4257000D01*
X-31435000Y4330750D01*
X-31361250Y4257000D01*
G36*
X-3889147Y9309946D02*
X-3559974Y9090000D01*
X-3889147Y8870054D01*
X-4211054Y8388285D01*
X-4324093Y7820000D01*
X-4211054Y7251715D01*
X-3889147Y6769946D01*
X-3559974Y6550000D01*
X-3889147Y6330054D01*
X-4211054Y5848285D01*
X-4324093Y5280000D01*
X-4222648Y4770000D01*
X-6088514Y4770000D01*
X-6000000Y4983691D01*
X-6000000Y5224250D01*
X-6158750Y5383000D01*
X-6883000Y5383000D01*
X-6883000Y5363000D01*
X-7137000Y5363000D01*
X-7137000Y5383000D01*
X-7861250Y5383000D01*
X-8020000Y5224250D01*
X-8020000Y4983691D01*
X-7923327Y4750302D01*
X-7921957Y4748932D01*
X-7981431Y4661890D01*
X-8032440Y4410000D01*
X-8032440Y3904891D01*
X-8131026Y3945828D01*
X-8192560Y4007362D01*
X-8192560Y4290000D01*
X-8236838Y4525317D01*
X-8375910Y4741441D01*
X-8445711Y4789134D01*
X-8388559Y4825910D01*
X-8243569Y5038110D01*
X-8192560Y5290000D01*
X-8192560Y5362638D01*
X-7889724Y5665474D01*
X-7861250Y5637000D01*
X-7137000Y5637000D01*
X-7137000Y6386250D01*
X-6883000Y6386250D01*
X-6883000Y5637000D01*
X-6158750Y5637000D01*
X-6000000Y5795750D01*
X-6000000Y6036309D01*
X-6096673Y6269698D01*
X-6275301Y6448327D01*
X-6508690Y6545000D01*
X-6724250Y6545000D01*
X-6883000Y6386250D01*
X-7137000Y6386250D01*
X-7152974Y6402224D01*
X-4031782Y9523416D01*
X-3889147Y9309946D01*
X-3889147Y9309946D01*
G37*
X-3889147Y9309946D02*
X-3559974Y9090000D01*
X-3889147Y8870054D01*
X-4211054Y8388285D01*
X-4324093Y7820000D01*
X-4211054Y7251715D01*
X-3889147Y6769946D01*
X-3559974Y6550000D01*
X-3889147Y6330054D01*
X-4211054Y5848285D01*
X-4324093Y5280000D01*
X-4222648Y4770000D01*
X-6088514Y4770000D01*
X-6000000Y4983691D01*
X-6000000Y5224250D01*
X-6158750Y5383000D01*
X-6883000Y5383000D01*
X-6883000Y5363000D01*
X-7137000Y5363000D01*
X-7137000Y5383000D01*
X-7861250Y5383000D01*
X-8020000Y5224250D01*
X-8020000Y4983691D01*
X-7923327Y4750302D01*
X-7921957Y4748932D01*
X-7981431Y4661890D01*
X-8032440Y4410000D01*
X-8032440Y3904891D01*
X-8131026Y3945828D01*
X-8192560Y4007362D01*
X-8192560Y4290000D01*
X-8236838Y4525317D01*
X-8375910Y4741441D01*
X-8445711Y4789134D01*
X-8388559Y4825910D01*
X-8243569Y5038110D01*
X-8192560Y5290000D01*
X-8192560Y5362638D01*
X-7889724Y5665474D01*
X-7861250Y5637000D01*
X-7137000Y5637000D01*
X-7137000Y6386250D01*
X-6883000Y6386250D01*
X-6883000Y5637000D01*
X-6158750Y5637000D01*
X-6000000Y5795750D01*
X-6000000Y6036309D01*
X-6096673Y6269698D01*
X-6275301Y6448327D01*
X-6508690Y6545000D01*
X-6724250Y6545000D01*
X-6883000Y6386250D01*
X-7137000Y6386250D01*
X-7152974Y6402224D01*
X-4031782Y9523416D01*
X-3889147Y9309946D01*
G36*
X-25310000Y5133691D02*
X-25213327Y4900302D01*
X-25211957Y4898932D01*
X-25271431Y4811890D01*
X-25281939Y4760000D01*
X-25375331Y4760000D01*
X-25385910Y4776441D01*
X-25598110Y4921431D01*
X-25735120Y4949176D01*
X-25614683Y4971838D01*
X-25398559Y5110910D01*
X-25310000Y5240520D01*
X-25310000Y5133691D01*
X-25310000Y5133691D01*
G37*
X-25310000Y5133691D02*
X-25213327Y4900302D01*
X-25211957Y4898932D01*
X-25271431Y4811890D01*
X-25281939Y4760000D01*
X-25375331Y4760000D01*
X-25385910Y4776441D01*
X-25598110Y4921431D01*
X-25735120Y4949176D01*
X-25614683Y4971838D01*
X-25398559Y5110910D01*
X-25310000Y5240520D01*
X-25310000Y5133691D01*
G36*
X-22582813Y6685000D02*
X-22687002Y6685000D01*
X-22687002Y6526252D01*
X-22845750Y6685000D01*
X-23061310Y6685000D01*
X-23294699Y6588327D01*
X-23425000Y6458025D01*
X-23565301Y6598327D01*
X-23798690Y6695000D01*
X-24014250Y6695000D01*
X-24173000Y6536250D01*
X-24173000Y5787000D01*
X-23448750Y5787000D01*
X-23435000Y5800750D01*
X-23411250Y5777000D01*
X-22687000Y5777000D01*
X-22687000Y5797000D01*
X-22433000Y5797000D01*
X-22433000Y5777000D01*
X-22413000Y5777000D01*
X-22413000Y5523000D01*
X-22433000Y5523000D01*
X-22433000Y5503000D01*
X-22687000Y5503000D01*
X-22687000Y5523000D01*
X-23411250Y5523000D01*
X-23425000Y5509250D01*
X-23448750Y5533000D01*
X-24173000Y5533000D01*
X-24173000Y5513000D01*
X-24427000Y5513000D01*
X-24427000Y5533000D01*
X-24447000Y5533000D01*
X-24447000Y5787000D01*
X-24427000Y5787000D01*
X-24427000Y6536250D01*
X-24585750Y6695000D01*
X-24801310Y6695000D01*
X-25034699Y6598327D01*
X-25213327Y6419698D01*
X-25231115Y6376755D01*
X-25246838Y6460317D01*
X-25385910Y6676441D01*
X-25598110Y6821431D01*
X-25673031Y6836603D01*
X-25677852Y6860839D01*
X-25737427Y6950000D01*
X-22847813Y6950000D01*
X-22582813Y6685000D01*
X-22582813Y6685000D01*
G37*
X-22582813Y6685000D02*
X-22687002Y6685000D01*
X-22687002Y6526252D01*
X-22845750Y6685000D01*
X-23061310Y6685000D01*
X-23294699Y6588327D01*
X-23425000Y6458025D01*
X-23565301Y6598327D01*
X-23798690Y6695000D01*
X-24014250Y6695000D01*
X-24173000Y6536250D01*
X-24173000Y5787000D01*
X-23448750Y5787000D01*
X-23435000Y5800750D01*
X-23411250Y5777000D01*
X-22687000Y5777000D01*
X-22687000Y5797000D01*
X-22433000Y5797000D01*
X-22433000Y5777000D01*
X-22413000Y5777000D01*
X-22413000Y5523000D01*
X-22433000Y5523000D01*
X-22433000Y5503000D01*
X-22687000Y5503000D01*
X-22687000Y5523000D01*
X-23411250Y5523000D01*
X-23425000Y5509250D01*
X-23448750Y5533000D01*
X-24173000Y5533000D01*
X-24173000Y5513000D01*
X-24427000Y5513000D01*
X-24427000Y5533000D01*
X-24447000Y5533000D01*
X-24447000Y5787000D01*
X-24427000Y5787000D01*
X-24427000Y6536250D01*
X-24585750Y6695000D01*
X-24801310Y6695000D01*
X-25034699Y6598327D01*
X-25213327Y6419698D01*
X-25231115Y6376755D01*
X-25246838Y6460317D01*
X-25385910Y6676441D01*
X-25598110Y6821431D01*
X-25673031Y6836603D01*
X-25677852Y6860839D01*
X-25737427Y6950000D01*
X-22847813Y6950000D01*
X-22582813Y6685000D01*
G36*
X-21597440Y9102638D02*
X-21597440Y9040000D01*
X-21553162Y8804683D01*
X-21414090Y8588559D01*
X-21201890Y8443569D01*
X-20950000Y8392560D01*
X-20050000Y8392560D01*
X-19814683Y8436838D01*
X-19727646Y8492844D01*
X-19200000Y7965198D01*
X-19200000Y6344547D01*
X-19223515Y6334831D01*
X-19505227Y6053610D01*
X-19516838Y6115317D01*
X-19655910Y6331441D01*
X-19868110Y6476431D01*
X-20120000Y6527440D01*
X-20275649Y6527440D01*
X-21995610Y8247401D01*
X-22159397Y8356839D01*
X-22075301Y8391673D01*
X-21896673Y8570302D01*
X-21800000Y8803691D01*
X-21800000Y9044250D01*
X-21958748Y9202998D01*
X-21800000Y9202998D01*
X-21800000Y9305198D01*
X-21597440Y9102638D01*
X-21597440Y9102638D01*
G37*
X-21597440Y9102638D02*
X-21597440Y9040000D01*
X-21553162Y8804683D01*
X-21414090Y8588559D01*
X-21201890Y8443569D01*
X-20950000Y8392560D01*
X-20050000Y8392560D01*
X-19814683Y8436838D01*
X-19727646Y8492844D01*
X-19200000Y7965198D01*
X-19200000Y6344547D01*
X-19223515Y6334831D01*
X-19505227Y6053610D01*
X-19516838Y6115317D01*
X-19655910Y6331441D01*
X-19868110Y6476431D01*
X-20120000Y6527440D01*
X-20275649Y6527440D01*
X-21995610Y8247401D01*
X-22159397Y8356839D01*
X-22075301Y8391673D01*
X-21896673Y8570302D01*
X-21800000Y8803691D01*
X-21800000Y9044250D01*
X-21958748Y9202998D01*
X-21800000Y9202998D01*
X-21800000Y9305198D01*
X-21597440Y9102638D01*
G36*
X-27311250Y9447000D02*
X-26587000Y9447000D01*
X-26587000Y9467000D01*
X-26333000Y9467000D01*
X-26333000Y9447000D01*
X-25608750Y9447000D01*
X-25575000Y9480750D01*
X-25551250Y9457000D01*
X-24827000Y9457000D01*
X-24827000Y9477000D01*
X-24573000Y9477000D01*
X-24573000Y9457000D01*
X-24553000Y9457000D01*
X-24553000Y9203000D01*
X-24573000Y9203000D01*
X-24573000Y9183000D01*
X-24827000Y9183000D01*
X-24827000Y9203000D01*
X-25551250Y9203000D01*
X-25585000Y9169250D01*
X-25608750Y9193000D01*
X-26333000Y9193000D01*
X-26333000Y9173000D01*
X-26587000Y9173000D01*
X-26587000Y9193000D01*
X-27311250Y9193000D01*
X-27360000Y9144250D01*
X-27408750Y9193000D01*
X-28133000Y9193000D01*
X-28133000Y9173000D01*
X-28387000Y9173000D01*
X-28387000Y9193000D01*
X-29111250Y9193000D01*
X-29115000Y9189250D01*
X-29128750Y9203000D01*
X-29853000Y9203000D01*
X-29853000Y9183000D01*
X-30107000Y9183000D01*
X-30107000Y9203000D01*
X-30127000Y9203000D01*
X-30127000Y9457000D01*
X-30107000Y9457000D01*
X-30107000Y9477000D01*
X-29853000Y9477000D01*
X-29853000Y9457000D01*
X-29128750Y9457000D01*
X-29125000Y9460750D01*
X-29111250Y9447000D01*
X-28387000Y9447000D01*
X-28387000Y9467000D01*
X-28133000Y9467000D01*
X-28133000Y9447000D01*
X-27408750Y9447000D01*
X-27360000Y9495750D01*
X-27311250Y9447000D01*
X-27311250Y9447000D01*
G37*
X-27311250Y9447000D02*
X-26587000Y9447000D01*
X-26587000Y9467000D01*
X-26333000Y9467000D01*
X-26333000Y9447000D01*
X-25608750Y9447000D01*
X-25575000Y9480750D01*
X-25551250Y9457000D01*
X-24827000Y9457000D01*
X-24827000Y9477000D01*
X-24573000Y9477000D01*
X-24573000Y9457000D01*
X-24553000Y9457000D01*
X-24553000Y9203000D01*
X-24573000Y9203000D01*
X-24573000Y9183000D01*
X-24827000Y9183000D01*
X-24827000Y9203000D01*
X-25551250Y9203000D01*
X-25585000Y9169250D01*
X-25608750Y9193000D01*
X-26333000Y9193000D01*
X-26333000Y9173000D01*
X-26587000Y9173000D01*
X-26587000Y9193000D01*
X-27311250Y9193000D01*
X-27360000Y9144250D01*
X-27408750Y9193000D01*
X-28133000Y9193000D01*
X-28133000Y9173000D01*
X-28387000Y9173000D01*
X-28387000Y9193000D01*
X-29111250Y9193000D01*
X-29115000Y9189250D01*
X-29128750Y9203000D01*
X-29853000Y9203000D01*
X-29853000Y9183000D01*
X-30107000Y9183000D01*
X-30107000Y9203000D01*
X-30127000Y9203000D01*
X-30127000Y9457000D01*
X-30107000Y9457000D01*
X-30107000Y9477000D01*
X-29853000Y9477000D01*
X-29853000Y9457000D01*
X-29128750Y9457000D01*
X-29125000Y9460750D01*
X-29111250Y9447000D01*
X-28387000Y9447000D01*
X-28387000Y9467000D01*
X-28133000Y9467000D01*
X-28133000Y9447000D01*
X-27408750Y9447000D01*
X-27360000Y9495750D01*
X-27311250Y9447000D01*
G36*
X-22683000Y9457000D02*
X-22663000Y9457000D01*
X-22663000Y9203000D01*
X-22683000Y9203000D01*
X-22683000Y9183000D01*
X-22937000Y9183000D01*
X-22937000Y9203000D01*
X-22957000Y9203000D01*
X-22957000Y9457000D01*
X-22937000Y9457000D01*
X-22937000Y9477000D01*
X-22683000Y9477000D01*
X-22683000Y9457000D01*
X-22683000Y9457000D01*
G37*
X-22683000Y9457000D02*
X-22663000Y9457000D01*
X-22663000Y9203000D01*
X-22683000Y9203000D01*
X-22683000Y9183000D01*
X-22937000Y9183000D01*
X-22937000Y9203000D01*
X-22957000Y9203000D01*
X-22957000Y9457000D01*
X-22937000Y9457000D01*
X-22937000Y9477000D01*
X-22683000Y9477000D01*
X-22683000Y9457000D01*
G36*
X-9100054Y14650853D02*
X-8810000Y14457046D01*
X-8810000Y11661045D01*
X-8843690Y11675000D01*
X-9134250Y11675000D01*
X-9293000Y11516250D01*
X-9293000Y10915000D01*
X-9273000Y10915000D01*
X-9273000Y10840000D01*
X-9567000Y10840000D01*
X-9567000Y10915000D01*
X-9547000Y10915000D01*
X-9547000Y11516250D01*
X-9705750Y11675000D01*
X-9996310Y11675000D01*
X-10229699Y11578327D01*
X-10386863Y11421162D01*
X-10456673Y11589698D01*
X-10635301Y11768327D01*
X-10868690Y11865000D01*
X-11084250Y11865000D01*
X-11243000Y11706250D01*
X-11243000Y10957000D01*
X-11223000Y10957000D01*
X-11223000Y10840000D01*
X-11517000Y10840000D01*
X-11517000Y10957000D01*
X-11497000Y10957000D01*
X-11497000Y11706250D01*
X-11655750Y11865000D01*
X-11871310Y11865000D01*
X-12104699Y11768327D01*
X-12283327Y11589698D01*
X-12285000Y11585659D01*
X-12286673Y11589698D01*
X-12465301Y11768327D01*
X-12698690Y11865000D01*
X-12914250Y11865000D01*
X-13073000Y11706250D01*
X-13073000Y10957000D01*
X-13053000Y10957000D01*
X-13053000Y10703000D01*
X-13073000Y10703000D01*
X-13073000Y10683000D01*
X-13327000Y10683000D01*
X-13327000Y10703000D01*
X-14051250Y10703000D01*
X-14090000Y10664250D01*
X-14128750Y10703000D01*
X-14853000Y10703000D01*
X-14853000Y10683000D01*
X-15107000Y10683000D01*
X-15107000Y10703000D01*
X-15831250Y10703000D01*
X-15845000Y10689250D01*
X-15858750Y10703000D01*
X-16583000Y10703000D01*
X-16583000Y10683000D01*
X-16837000Y10683000D01*
X-16837000Y10703000D01*
X-16857000Y10703000D01*
X-16857000Y10957000D01*
X-16837000Y10957000D01*
X-16837000Y11706250D01*
X-16583000Y11706250D01*
X-16583000Y10957000D01*
X-15858750Y10957000D01*
X-15845000Y10970750D01*
X-15831250Y10957000D01*
X-15107000Y10957000D01*
X-15107000Y11706250D01*
X-14853000Y11706250D01*
X-14853000Y10957000D01*
X-14128750Y10957000D01*
X-14090000Y10995750D01*
X-14051250Y10957000D01*
X-13327000Y10957000D01*
X-13327000Y11706250D01*
X-13485750Y11865000D01*
X-13701310Y11865000D01*
X-13934699Y11768327D01*
X-14090000Y11613025D01*
X-14245301Y11768327D01*
X-14478690Y11865000D01*
X-14694250Y11865000D01*
X-14853000Y11706250D01*
X-15107000Y11706250D01*
X-15265750Y11865000D01*
X-15481310Y11865000D01*
X-15714699Y11768327D01*
X-15845000Y11638025D01*
X-15975301Y11768327D01*
X-16208690Y11865000D01*
X-16424250Y11865000D01*
X-16583000Y11706250D01*
X-16837000Y11706250D01*
X-16995750Y11865000D01*
X-17211310Y11865000D01*
X-17444699Y11768327D01*
X-17623327Y11589698D01*
X-17720000Y11356309D01*
X-17720000Y11240686D01*
X-18163298Y11424759D01*
X-18714285Y11425240D01*
X-18766646Y11403605D01*
X-18899159Y11492147D01*
X-19189998Y11549999D01*
X-19671613Y11549999D01*
X-19798110Y11636431D01*
X-19852334Y11647412D01*
X-19972599Y11827401D01*
X-20290198Y12145000D01*
X-18152604Y12145000D01*
X-17861765Y12202852D01*
X-17615203Y12367599D01*
X-16662802Y13320000D01*
X-12580000Y13320000D01*
X-12289161Y13377852D01*
X-12042599Y13542599D01*
X-11302599Y14282599D01*
X-11236646Y14381305D01*
X-11158285Y14328946D01*
X-10590000Y14215907D01*
X-10021715Y14328946D01*
X-9539946Y14650853D01*
X-9320000Y14980026D01*
X-9100054Y14650853D01*
X-9100054Y14650853D01*
G37*
X-9100054Y14650853D02*
X-8810000Y14457046D01*
X-8810000Y11661045D01*
X-8843690Y11675000D01*
X-9134250Y11675000D01*
X-9293000Y11516250D01*
X-9293000Y10915000D01*
X-9273000Y10915000D01*
X-9273000Y10840000D01*
X-9567000Y10840000D01*
X-9567000Y10915000D01*
X-9547000Y10915000D01*
X-9547000Y11516250D01*
X-9705750Y11675000D01*
X-9996310Y11675000D01*
X-10229699Y11578327D01*
X-10386863Y11421162D01*
X-10456673Y11589698D01*
X-10635301Y11768327D01*
X-10868690Y11865000D01*
X-11084250Y11865000D01*
X-11243000Y11706250D01*
X-11243000Y10957000D01*
X-11223000Y10957000D01*
X-11223000Y10840000D01*
X-11517000Y10840000D01*
X-11517000Y10957000D01*
X-11497000Y10957000D01*
X-11497000Y11706250D01*
X-11655750Y11865000D01*
X-11871310Y11865000D01*
X-12104699Y11768327D01*
X-12283327Y11589698D01*
X-12285000Y11585659D01*
X-12286673Y11589698D01*
X-12465301Y11768327D01*
X-12698690Y11865000D01*
X-12914250Y11865000D01*
X-13073000Y11706250D01*
X-13073000Y10957000D01*
X-13053000Y10957000D01*
X-13053000Y10703000D01*
X-13073000Y10703000D01*
X-13073000Y10683000D01*
X-13327000Y10683000D01*
X-13327000Y10703000D01*
X-14051250Y10703000D01*
X-14090000Y10664250D01*
X-14128750Y10703000D01*
X-14853000Y10703000D01*
X-14853000Y10683000D01*
X-15107000Y10683000D01*
X-15107000Y10703000D01*
X-15831250Y10703000D01*
X-15845000Y10689250D01*
X-15858750Y10703000D01*
X-16583000Y10703000D01*
X-16583000Y10683000D01*
X-16837000Y10683000D01*
X-16837000Y10703000D01*
X-16857000Y10703000D01*
X-16857000Y10957000D01*
X-16837000Y10957000D01*
X-16837000Y11706250D01*
X-16583000Y11706250D01*
X-16583000Y10957000D01*
X-15858750Y10957000D01*
X-15845000Y10970750D01*
X-15831250Y10957000D01*
X-15107000Y10957000D01*
X-15107000Y11706250D01*
X-14853000Y11706250D01*
X-14853000Y10957000D01*
X-14128750Y10957000D01*
X-14090000Y10995750D01*
X-14051250Y10957000D01*
X-13327000Y10957000D01*
X-13327000Y11706250D01*
X-13485750Y11865000D01*
X-13701310Y11865000D01*
X-13934699Y11768327D01*
X-14090000Y11613025D01*
X-14245301Y11768327D01*
X-14478690Y11865000D01*
X-14694250Y11865000D01*
X-14853000Y11706250D01*
X-15107000Y11706250D01*
X-15265750Y11865000D01*
X-15481310Y11865000D01*
X-15714699Y11768327D01*
X-15845000Y11638025D01*
X-15975301Y11768327D01*
X-16208690Y11865000D01*
X-16424250Y11865000D01*
X-16583000Y11706250D01*
X-16837000Y11706250D01*
X-16995750Y11865000D01*
X-17211310Y11865000D01*
X-17444699Y11768327D01*
X-17623327Y11589698D01*
X-17720000Y11356309D01*
X-17720000Y11240686D01*
X-18163298Y11424759D01*
X-18714285Y11425240D01*
X-18766646Y11403605D01*
X-18899159Y11492147D01*
X-19189998Y11549999D01*
X-19671613Y11549999D01*
X-19798110Y11636431D01*
X-19852334Y11647412D01*
X-19972599Y11827401D01*
X-20290198Y12145000D01*
X-18152604Y12145000D01*
X-17861765Y12202852D01*
X-17615203Y12367599D01*
X-16662802Y13320000D01*
X-12580000Y13320000D01*
X-12289161Y13377852D01*
X-12042599Y13542599D01*
X-11302599Y14282599D01*
X-11236646Y14381305D01*
X-11158285Y14328946D01*
X-10590000Y14215907D01*
X-10021715Y14328946D01*
X-9539946Y14650853D01*
X-9320000Y14980026D01*
X-9100054Y14650853D01*
G36*
X-48435000Y13536310D02*
X-48435000Y13245750D01*
X-48276250Y13087000D01*
X-47675000Y13087000D01*
X-47675000Y13107000D01*
X-47425000Y13107000D01*
X-47425000Y13087000D01*
X-47403000Y13087000D01*
X-47403000Y12833000D01*
X-47425000Y12833000D01*
X-47425000Y12813000D01*
X-47675000Y12813000D01*
X-47675000Y12833000D01*
X-48276250Y12833000D01*
X-48435000Y12674250D01*
X-48435000Y12383690D01*
X-48398263Y12295000D01*
X-48407052Y12295000D01*
X-48427406Y12290951D01*
X-48481708Y12422372D01*
X-48716393Y12657466D01*
X-49023179Y12784855D01*
X-49070000Y12784896D01*
X-49070000Y13497200D01*
X-48862198Y13705002D01*
X-48365125Y13705002D01*
X-48435000Y13536310D01*
X-48435000Y13536310D01*
G37*
X-48435000Y13536310D02*
X-48435000Y13245750D01*
X-48276250Y13087000D01*
X-47675000Y13087000D01*
X-47675000Y13107000D01*
X-47425000Y13107000D01*
X-47425000Y13087000D01*
X-47403000Y13087000D01*
X-47403000Y12833000D01*
X-47425000Y12833000D01*
X-47425000Y12813000D01*
X-47675000Y12813000D01*
X-47675000Y12833000D01*
X-48276250Y12833000D01*
X-48435000Y12674250D01*
X-48435000Y12383690D01*
X-48398263Y12295000D01*
X-48407052Y12295000D01*
X-48427406Y12290951D01*
X-48481708Y12422372D01*
X-48716393Y12657466D01*
X-49023179Y12784855D01*
X-49070000Y12784896D01*
X-49070000Y13497200D01*
X-48862198Y13705002D01*
X-48365125Y13705002D01*
X-48435000Y13536310D01*
G36*
X-2683000Y13027000D02*
X-2663000Y13027000D01*
X-2663000Y12773000D01*
X-2683000Y12773000D01*
X-2683000Y12753000D01*
X-2937000Y12753000D01*
X-2937000Y12773000D01*
X-2957000Y12773000D01*
X-2957000Y13027000D01*
X-2937000Y13027000D01*
X-2937000Y13047000D01*
X-2683000Y13047000D01*
X-2683000Y13027000D01*
X-2683000Y13027000D01*
G37*
X-2683000Y13027000D02*
X-2663000Y13027000D01*
X-2663000Y12773000D01*
X-2683000Y12773000D01*
X-2683000Y12753000D01*
X-2937000Y12753000D01*
X-2937000Y12773000D01*
X-2957000Y12773000D01*
X-2957000Y13027000D01*
X-2937000Y13027000D01*
X-2937000Y13047000D01*
X-2683000Y13047000D01*
X-2683000Y13027000D01*
G36*
X708000Y17151758D02*
X671890Y17176431D01*
X420000Y17227440D01*
X-1280000Y17227440D01*
X-1450547Y17195349D01*
X-2242598Y17987400D01*
X-2489160Y18152147D01*
X-2779999Y18209999D01*
X-10610001Y18209999D01*
X-10900840Y18152147D01*
X-11147402Y17987400D01*
X-11627401Y17507401D01*
X-11629439Y17504351D01*
X-12226631Y16907159D01*
X-12561715Y17131054D01*
X-13130000Y17244093D01*
X-13698285Y17131054D01*
X-14180054Y16809147D01*
X-14400000Y16479974D01*
X-14619946Y16809147D01*
X-15101715Y17131054D01*
X-15670000Y17244093D01*
X-16238285Y17131054D01*
X-16720054Y16809147D01*
X-16940000Y16479974D01*
X-17159946Y16809147D01*
X-17641715Y17131054D01*
X-18210000Y17244093D01*
X-18778285Y17131054D01*
X-19260054Y16809147D01*
X-19480000Y16479974D01*
X-19699946Y16809147D01*
X-20181715Y17131054D01*
X-20750000Y17244093D01*
X-21318285Y17131054D01*
X-21800054Y16809147D01*
X-22020000Y16479974D01*
X-22239946Y16809147D01*
X-22721715Y17131054D01*
X-23290000Y17244093D01*
X-23858285Y17131054D01*
X-24340054Y16809147D01*
X-24560000Y16479974D01*
X-24779946Y16809147D01*
X-25261715Y17131054D01*
X-25830000Y17244093D01*
X-26398285Y17131054D01*
X-26880054Y16809147D01*
X-27100000Y16479974D01*
X-27319946Y16809147D01*
X-27801715Y17131054D01*
X-28370000Y17244093D01*
X-28938285Y17131054D01*
X-29420054Y16809147D01*
X-29640000Y16479974D01*
X-29859946Y16809147D01*
X-30341715Y17131054D01*
X-30910000Y17244093D01*
X-31478285Y17131054D01*
X-31960054Y16809147D01*
X-32180000Y16479974D01*
X-32399946Y16809147D01*
X-32881715Y17131054D01*
X-33450000Y17244093D01*
X-34018285Y17131054D01*
X-34500054Y16809147D01*
X-34720000Y16479974D01*
X-34939946Y16809147D01*
X-35421715Y17131054D01*
X-35990000Y17244093D01*
X-36558285Y17131054D01*
X-37040054Y16809147D01*
X-37260000Y16479974D01*
X-37479946Y16809147D01*
X-37961715Y17131054D01*
X-38530000Y17244093D01*
X-39098285Y17131054D01*
X-39580054Y16809147D01*
X-39800000Y16479974D01*
X-40019946Y16809147D01*
X-40501715Y17131054D01*
X-41070000Y17244093D01*
X-41638285Y17131054D01*
X-42120054Y16809147D01*
X-42340000Y16479974D01*
X-42559946Y16809147D01*
X-43041715Y17131054D01*
X-43610000Y17244093D01*
X-44178285Y17131054D01*
X-44660054Y16809147D01*
X-44887702Y16468447D01*
X-44954817Y16611358D01*
X-45383076Y17001645D01*
X-45793110Y17171476D01*
X-46023000Y17050155D01*
X-46023000Y15857000D01*
X-46003000Y15857000D01*
X-46003000Y15603000D01*
X-46023000Y15603000D01*
X-46023000Y15583000D01*
X-46277000Y15583000D01*
X-46277000Y15603000D01*
X-48563000Y15603000D01*
X-48563000Y15583000D01*
X-48817000Y15583000D01*
X-48817000Y15603000D01*
X-48837000Y15603000D01*
X-48837000Y15857000D01*
X-48817000Y15857000D01*
X-48817000Y17050155D01*
X-48563000Y17050155D01*
X-48563000Y15857000D01*
X-46277000Y15857000D01*
X-46277000Y17050155D01*
X-46506890Y17171476D01*
X-46916924Y17001645D01*
X-47345183Y16611358D01*
X-47420000Y16452046D01*
X-47494817Y16611358D01*
X-47923076Y17001645D01*
X-48333110Y17171476D01*
X-48563000Y17050155D01*
X-48817000Y17050155D01*
X-49046890Y17171476D01*
X-49456924Y17001645D01*
X-49872000Y16623372D01*
X-49872000Y18602000D01*
X708000Y18602000D01*
X708000Y17151758D01*
X708000Y17151758D01*
G37*
X708000Y17151758D02*
X671890Y17176431D01*
X420000Y17227440D01*
X-1280000Y17227440D01*
X-1450547Y17195349D01*
X-2242598Y17987400D01*
X-2489160Y18152147D01*
X-2779999Y18209999D01*
X-10610001Y18209999D01*
X-10900840Y18152147D01*
X-11147402Y17987400D01*
X-11627401Y17507401D01*
X-11629439Y17504351D01*
X-12226631Y16907159D01*
X-12561715Y17131054D01*
X-13130000Y17244093D01*
X-13698285Y17131054D01*
X-14180054Y16809147D01*
X-14400000Y16479974D01*
X-14619946Y16809147D01*
X-15101715Y17131054D01*
X-15670000Y17244093D01*
X-16238285Y17131054D01*
X-16720054Y16809147D01*
X-16940000Y16479974D01*
X-17159946Y16809147D01*
X-17641715Y17131054D01*
X-18210000Y17244093D01*
X-18778285Y17131054D01*
X-19260054Y16809147D01*
X-19480000Y16479974D01*
X-19699946Y16809147D01*
X-20181715Y17131054D01*
X-20750000Y17244093D01*
X-21318285Y17131054D01*
X-21800054Y16809147D01*
X-22020000Y16479974D01*
X-22239946Y16809147D01*
X-22721715Y17131054D01*
X-23290000Y17244093D01*
X-23858285Y17131054D01*
X-24340054Y16809147D01*
X-24560000Y16479974D01*
X-24779946Y16809147D01*
X-25261715Y17131054D01*
X-25830000Y17244093D01*
X-26398285Y17131054D01*
X-26880054Y16809147D01*
X-27100000Y16479974D01*
X-27319946Y16809147D01*
X-27801715Y17131054D01*
X-28370000Y17244093D01*
X-28938285Y17131054D01*
X-29420054Y16809147D01*
X-29640000Y16479974D01*
X-29859946Y16809147D01*
X-30341715Y17131054D01*
X-30910000Y17244093D01*
X-31478285Y17131054D01*
X-31960054Y16809147D01*
X-32180000Y16479974D01*
X-32399946Y16809147D01*
X-32881715Y17131054D01*
X-33450000Y17244093D01*
X-34018285Y17131054D01*
X-34500054Y16809147D01*
X-34720000Y16479974D01*
X-34939946Y16809147D01*
X-35421715Y17131054D01*
X-35990000Y17244093D01*
X-36558285Y17131054D01*
X-37040054Y16809147D01*
X-37260000Y16479974D01*
X-37479946Y16809147D01*
X-37961715Y17131054D01*
X-38530000Y17244093D01*
X-39098285Y17131054D01*
X-39580054Y16809147D01*
X-39800000Y16479974D01*
X-40019946Y16809147D01*
X-40501715Y17131054D01*
X-41070000Y17244093D01*
X-41638285Y17131054D01*
X-42120054Y16809147D01*
X-42340000Y16479974D01*
X-42559946Y16809147D01*
X-43041715Y17131054D01*
X-43610000Y17244093D01*
X-44178285Y17131054D01*
X-44660054Y16809147D01*
X-44887702Y16468447D01*
X-44954817Y16611358D01*
X-45383076Y17001645D01*
X-45793110Y17171476D01*
X-46023000Y17050155D01*
X-46023000Y15857000D01*
X-46003000Y15857000D01*
X-46003000Y15603000D01*
X-46023000Y15603000D01*
X-46023000Y15583000D01*
X-46277000Y15583000D01*
X-46277000Y15603000D01*
X-48563000Y15603000D01*
X-48563000Y15583000D01*
X-48817000Y15583000D01*
X-48817000Y15603000D01*
X-48837000Y15603000D01*
X-48837000Y15857000D01*
X-48817000Y15857000D01*
X-48817000Y17050155D01*
X-48563000Y17050155D01*
X-48563000Y15857000D01*
X-46277000Y15857000D01*
X-46277000Y17050155D01*
X-46506890Y17171476D01*
X-46916924Y17001645D01*
X-47345183Y16611358D01*
X-47420000Y16452046D01*
X-47494817Y16611358D01*
X-47923076Y17001645D01*
X-48333110Y17171476D01*
X-48563000Y17050155D01*
X-48817000Y17050155D01*
X-49046890Y17171476D01*
X-49456924Y17001645D01*
X-49872000Y16623372D01*
X-49872000Y18602000D01*
X708000Y18602000D01*
X708000Y17151758D01*
G36*
X-2843000Y107000D02*
X-2823000Y107000D01*
X-2823000Y-147000D01*
X-2843000Y-147000D01*
X-2843000Y-167000D01*
X-3097000Y-167000D01*
X-3097000Y-147000D01*
X-3117000Y-147000D01*
X-3117000Y107000D01*
X-3097000Y107000D01*
X-3097000Y127000D01*
X-2843000Y127000D01*
X-2843000Y107000D01*
X-2843000Y107000D01*
G37*
X-2843000Y107000D02*
X-2823000Y107000D01*
X-2823000Y-147000D01*
X-2843000Y-147000D01*
X-2843000Y-167000D01*
X-3097000Y-167000D01*
X-3097000Y-147000D01*
X-3117000Y-147000D01*
X-3117000Y107000D01*
X-3097000Y107000D01*
X-3097000Y127000D01*
X-2843000Y127000D01*
X-2843000Y107000D01*
G36*
X-10387440Y5790000D02*
X-10387440Y5290000D01*
X-10343162Y5054683D01*
X-10204090Y4838559D01*
X-10134289Y4790866D01*
X-10191441Y4754090D01*
X-10336431Y4541890D01*
X-10387440Y4290000D01*
X-10387440Y3790000D01*
X-10343162Y3554683D01*
X-10204090Y3338559D01*
X-9991890Y3193569D01*
X-9740000Y3142560D01*
X-9477362Y3142560D01*
X-9229874Y2895072D01*
X-9148292Y2697628D01*
X-8913607Y2462534D01*
X-8606821Y2335145D01*
X-8274637Y2334855D01*
X-7967628Y2461708D01*
X-7732534Y2696393D01*
X-7605145Y3003179D01*
X-7605142Y3007140D01*
X-7385000Y2962560D01*
X-6635000Y2962560D01*
X-6399683Y3006838D01*
X-6183559Y3145910D01*
X-6112437Y3250000D01*
X-4394802Y3250000D01*
X-4251210Y3106408D01*
X-4324093Y2740000D01*
X-4211054Y2171715D01*
X-3889147Y1689946D01*
X-3425948Y1380447D01*
X-3736924Y1251645D01*
X-4165183Y861358D01*
X-4232298Y718447D01*
X-4459946Y1059147D01*
X-4941715Y1381054D01*
X-5510000Y1494093D01*
X-6078285Y1381054D01*
X-6560054Y1059147D01*
X-6780000Y729974D01*
X-6999946Y1059147D01*
X-7481715Y1381054D01*
X-8050000Y1494093D01*
X-8618285Y1381054D01*
X-9100054Y1059147D01*
X-9320000Y729974D01*
X-9539946Y1059147D01*
X-10021715Y1381054D01*
X-10590000Y1494093D01*
X-11158285Y1381054D01*
X-11640054Y1059147D01*
X-11860000Y729974D01*
X-12079946Y1059147D01*
X-12561715Y1381054D01*
X-13130000Y1494093D01*
X-13698285Y1381054D01*
X-14180054Y1059147D01*
X-14400000Y729974D01*
X-14619946Y1059147D01*
X-15101715Y1381054D01*
X-15670000Y1494093D01*
X-16238285Y1381054D01*
X-16720054Y1059147D01*
X-16940000Y729974D01*
X-17074272Y930926D01*
X-13773217Y4231981D01*
X-13637597Y4322599D01*
X-12708028Y5252168D01*
X-12527626Y5326708D01*
X-12292532Y5561393D01*
X-12193453Y5800000D01*
X-10385415Y5800000D01*
X-10387440Y5790000D01*
X-10387440Y5790000D01*
G37*
X-10387440Y5790000D02*
X-10387440Y5290000D01*
X-10343162Y5054683D01*
X-10204090Y4838559D01*
X-10134289Y4790866D01*
X-10191441Y4754090D01*
X-10336431Y4541890D01*
X-10387440Y4290000D01*
X-10387440Y3790000D01*
X-10343162Y3554683D01*
X-10204090Y3338559D01*
X-9991890Y3193569D01*
X-9740000Y3142560D01*
X-9477362Y3142560D01*
X-9229874Y2895072D01*
X-9148292Y2697628D01*
X-8913607Y2462534D01*
X-8606821Y2335145D01*
X-8274637Y2334855D01*
X-7967628Y2461708D01*
X-7732534Y2696393D01*
X-7605145Y3003179D01*
X-7605142Y3007140D01*
X-7385000Y2962560D01*
X-6635000Y2962560D01*
X-6399683Y3006838D01*
X-6183559Y3145910D01*
X-6112437Y3250000D01*
X-4394802Y3250000D01*
X-4251210Y3106408D01*
X-4324093Y2740000D01*
X-4211054Y2171715D01*
X-3889147Y1689946D01*
X-3425948Y1380447D01*
X-3736924Y1251645D01*
X-4165183Y861358D01*
X-4232298Y718447D01*
X-4459946Y1059147D01*
X-4941715Y1381054D01*
X-5510000Y1494093D01*
X-6078285Y1381054D01*
X-6560054Y1059147D01*
X-6780000Y729974D01*
X-6999946Y1059147D01*
X-7481715Y1381054D01*
X-8050000Y1494093D01*
X-8618285Y1381054D01*
X-9100054Y1059147D01*
X-9320000Y729974D01*
X-9539946Y1059147D01*
X-10021715Y1381054D01*
X-10590000Y1494093D01*
X-11158285Y1381054D01*
X-11640054Y1059147D01*
X-11860000Y729974D01*
X-12079946Y1059147D01*
X-12561715Y1381054D01*
X-13130000Y1494093D01*
X-13698285Y1381054D01*
X-14180054Y1059147D01*
X-14400000Y729974D01*
X-14619946Y1059147D01*
X-15101715Y1381054D01*
X-15670000Y1494093D01*
X-16238285Y1381054D01*
X-16720054Y1059147D01*
X-16940000Y729974D01*
X-17074272Y930926D01*
X-13773217Y4231981D01*
X-13637597Y4322599D01*
X-12708028Y5252168D01*
X-12527626Y5326708D01*
X-12292532Y5561393D01*
X-12193453Y5800000D01*
X-10385415Y5800000D01*
X-10387440Y5790000D01*
G36*
X-27374090Y3223559D02*
X-27161890Y3078569D01*
X-27140000Y3074136D01*
X-27140000Y2530921D01*
X-27227466Y2443607D01*
X-27302929Y2261873D01*
X-27647401Y1917401D01*
X-27812148Y1670839D01*
X-27867199Y1394080D01*
X-28370000Y1494093D01*
X-28662247Y1435961D01*
X-28042598Y2055610D01*
X-27877852Y2302172D01*
X-27820000Y2593011D01*
X-27820000Y3070838D01*
X-27814683Y3071838D01*
X-27598559Y3210910D01*
X-27543872Y3290948D01*
X-27509161Y3297852D01*
X-27448135Y3338628D01*
X-27374090Y3223559D01*
X-27374090Y3223559D01*
G37*
X-27374090Y3223559D02*
X-27161890Y3078569D01*
X-27140000Y3074136D01*
X-27140000Y2530921D01*
X-27227466Y2443607D01*
X-27302929Y2261873D01*
X-27647401Y1917401D01*
X-27812148Y1670839D01*
X-27867199Y1394080D01*
X-28370000Y1494093D01*
X-28662247Y1435961D01*
X-28042598Y2055610D01*
X-27877852Y2302172D01*
X-27820000Y2593011D01*
X-27820000Y3070838D01*
X-27814683Y3071838D01*
X-27598559Y3210910D01*
X-27543872Y3290948D01*
X-27509161Y3297852D01*
X-27448135Y3338628D01*
X-27374090Y3223559D01*
G36*
X-40798913Y8618405D02*
X-40672060Y8311396D01*
X-40437375Y8076302D01*
X-40360444Y8044358D01*
X-40817661Y7587141D01*
X-41195110Y7743476D01*
X-41425000Y7622155D01*
X-41425000Y6429000D01*
X-41405000Y6429000D01*
X-41405000Y6175000D01*
X-41425000Y6175000D01*
X-41425000Y3889000D01*
X-41405000Y3889000D01*
X-41405000Y3635000D01*
X-41425000Y3635000D01*
X-41425000Y2441845D01*
X-41195110Y2320524D01*
X-40813418Y2478616D01*
X-40314793Y1979991D01*
X-42010191Y1979991D01*
X-43265001Y3234801D01*
X-43265001Y3405108D01*
X-42993486Y3405108D01*
X-42747183Y2880642D01*
X-42318924Y2490355D01*
X-41908890Y2320524D01*
X-41679000Y2441845D01*
X-41679000Y3635000D01*
X-42872819Y3635000D01*
X-42993486Y3405108D01*
X-43265001Y3405108D01*
X-43265001Y5415001D01*
X-43285409Y5517599D01*
X-43322853Y5705841D01*
X-43482726Y5945108D01*
X-42993486Y5945108D01*
X-42747183Y5420642D01*
X-42320729Y5032000D01*
X-42747183Y4643358D01*
X-42993486Y4118892D01*
X-42872819Y3889000D01*
X-41679000Y3889000D01*
X-41679000Y6175000D01*
X-42872819Y6175000D01*
X-42993486Y5945108D01*
X-43482726Y5945108D01*
X-43487600Y5952402D01*
X-44204313Y6669115D01*
X-44129166Y6637911D01*
X-43796982Y6637621D01*
X-43615116Y6712766D01*
X-43197234Y6712766D01*
X-42944584Y6763022D01*
X-42993486Y6658892D01*
X-42872819Y6429000D01*
X-41679000Y6429000D01*
X-41679000Y7622155D01*
X-41871470Y7723728D01*
X-41002638Y8592560D01*
X-40990000Y8592560D01*
X-40798904Y8628517D01*
X-40798913Y8618405D01*
X-40798913Y8618405D01*
G37*
X-40798913Y8618405D02*
X-40672060Y8311396D01*
X-40437375Y8076302D01*
X-40360444Y8044358D01*
X-40817661Y7587141D01*
X-41195110Y7743476D01*
X-41425000Y7622155D01*
X-41425000Y6429000D01*
X-41405000Y6429000D01*
X-41405000Y6175000D01*
X-41425000Y6175000D01*
X-41425000Y3889000D01*
X-41405000Y3889000D01*
X-41405000Y3635000D01*
X-41425000Y3635000D01*
X-41425000Y2441845D01*
X-41195110Y2320524D01*
X-40813418Y2478616D01*
X-40314793Y1979991D01*
X-42010191Y1979991D01*
X-43265001Y3234801D01*
X-43265001Y3405108D01*
X-42993486Y3405108D01*
X-42747183Y2880642D01*
X-42318924Y2490355D01*
X-41908890Y2320524D01*
X-41679000Y2441845D01*
X-41679000Y3635000D01*
X-42872819Y3635000D01*
X-42993486Y3405108D01*
X-43265001Y3405108D01*
X-43265001Y5415001D01*
X-43285409Y5517599D01*
X-43322853Y5705841D01*
X-43482726Y5945108D01*
X-42993486Y5945108D01*
X-42747183Y5420642D01*
X-42320729Y5032000D01*
X-42747183Y4643358D01*
X-42993486Y4118892D01*
X-42872819Y3889000D01*
X-41679000Y3889000D01*
X-41679000Y6175000D01*
X-42872819Y6175000D01*
X-42993486Y5945108D01*
X-43482726Y5945108D01*
X-43487600Y5952402D01*
X-44204313Y6669115D01*
X-44129166Y6637911D01*
X-43796982Y6637621D01*
X-43615116Y6712766D01*
X-43197234Y6712766D01*
X-42944584Y6763022D01*
X-42993486Y6658892D01*
X-42872819Y6429000D01*
X-41679000Y6429000D01*
X-41679000Y7622155D01*
X-41871470Y7723728D01*
X-41002638Y8592560D01*
X-40990000Y8592560D01*
X-40798904Y8628517D01*
X-40798913Y8618405D01*
G36*
X-31361250Y4257000D02*
X-30637000Y4257000D01*
X-30637000Y4277000D01*
X-30383000Y4277000D01*
X-30383000Y4257000D01*
X-30363000Y4257000D01*
X-30363000Y4003000D01*
X-30383000Y4003000D01*
X-30383000Y3253750D01*
X-30224250Y3095000D01*
X-30008690Y3095000D01*
X-29775301Y3191673D01*
X-29640387Y3326588D01*
X-29574090Y3223559D01*
X-29361890Y3078569D01*
X-29340000Y3074136D01*
X-29340000Y2907814D01*
X-30003390Y2244423D01*
X-30101708Y2482372D01*
X-30336393Y2717466D01*
X-30643179Y2844855D01*
X-30894406Y2845074D01*
X-31126393Y3077466D01*
X-31433179Y3204855D01*
X-31611963Y3205011D01*
X-31446673Y3370302D01*
X-31435000Y3398483D01*
X-31423327Y3370302D01*
X-31244699Y3191673D01*
X-31011310Y3095000D01*
X-30795750Y3095000D01*
X-30637000Y3253750D01*
X-30637000Y4003000D01*
X-31361250Y4003000D01*
X-31435000Y3929250D01*
X-31508750Y4003000D01*
X-32233000Y4003000D01*
X-32233000Y3983000D01*
X-32487000Y3983000D01*
X-32487000Y4003000D01*
X-32507000Y4003000D01*
X-32507000Y4257000D01*
X-32487000Y4257000D01*
X-32487000Y4277000D01*
X-32233000Y4277000D01*
X-32233000Y4257000D01*
X-31508750Y4257000D01*
X-31435000Y4330750D01*
X-31361250Y4257000D01*
X-31361250Y4257000D01*
G37*
X-31361250Y4257000D02*
X-30637000Y4257000D01*
X-30637000Y4277000D01*
X-30383000Y4277000D01*
X-30383000Y4257000D01*
X-30363000Y4257000D01*
X-30363000Y4003000D01*
X-30383000Y4003000D01*
X-30383000Y3253750D01*
X-30224250Y3095000D01*
X-30008690Y3095000D01*
X-29775301Y3191673D01*
X-29640387Y3326588D01*
X-29574090Y3223559D01*
X-29361890Y3078569D01*
X-29340000Y3074136D01*
X-29340000Y2907814D01*
X-30003390Y2244423D01*
X-30101708Y2482372D01*
X-30336393Y2717466D01*
X-30643179Y2844855D01*
X-30894406Y2845074D01*
X-31126393Y3077466D01*
X-31433179Y3204855D01*
X-31611963Y3205011D01*
X-31446673Y3370302D01*
X-31435000Y3398483D01*
X-31423327Y3370302D01*
X-31244699Y3191673D01*
X-31011310Y3095000D01*
X-30795750Y3095000D01*
X-30637000Y3253750D01*
X-30637000Y4003000D01*
X-31361250Y4003000D01*
X-31435000Y3929250D01*
X-31508750Y4003000D01*
X-32233000Y4003000D01*
X-32233000Y3983000D01*
X-32487000Y3983000D01*
X-32487000Y4003000D01*
X-32507000Y4003000D01*
X-32507000Y4257000D01*
X-32487000Y4257000D01*
X-32487000Y4277000D01*
X-32233000Y4277000D01*
X-32233000Y4257000D01*
X-31508750Y4257000D01*
X-31435000Y4330750D01*
X-31361250Y4257000D01*
G36*
X-3889147Y9309946D02*
X-3559974Y9090000D01*
X-3889147Y8870054D01*
X-4211054Y8388285D01*
X-4324093Y7820000D01*
X-4211054Y7251715D01*
X-3889147Y6769946D01*
X-3559974Y6550000D01*
X-3889147Y6330054D01*
X-4211054Y5848285D01*
X-4324093Y5280000D01*
X-4222648Y4770000D01*
X-6088514Y4770000D01*
X-6000000Y4983691D01*
X-6000000Y5224250D01*
X-6158750Y5383000D01*
X-6883000Y5383000D01*
X-6883000Y5363000D01*
X-7137000Y5363000D01*
X-7137000Y5383000D01*
X-7861250Y5383000D01*
X-8020000Y5224250D01*
X-8020000Y4983691D01*
X-7923327Y4750302D01*
X-7921957Y4748932D01*
X-7981431Y4661890D01*
X-8032440Y4410000D01*
X-8032440Y3904891D01*
X-8131026Y3945828D01*
X-8192560Y4007362D01*
X-8192560Y4290000D01*
X-8236838Y4525317D01*
X-8375910Y4741441D01*
X-8445711Y4789134D01*
X-8388559Y4825910D01*
X-8243569Y5038110D01*
X-8192560Y5290000D01*
X-8192560Y5362638D01*
X-7889724Y5665474D01*
X-7861250Y5637000D01*
X-7137000Y5637000D01*
X-7137000Y6386250D01*
X-6883000Y6386250D01*
X-6883000Y5637000D01*
X-6158750Y5637000D01*
X-6000000Y5795750D01*
X-6000000Y6036309D01*
X-6096673Y6269698D01*
X-6275301Y6448327D01*
X-6508690Y6545000D01*
X-6724250Y6545000D01*
X-6883000Y6386250D01*
X-7137000Y6386250D01*
X-7152974Y6402224D01*
X-4031782Y9523416D01*
X-3889147Y9309946D01*
X-3889147Y9309946D01*
G37*
X-3889147Y9309946D02*
X-3559974Y9090000D01*
X-3889147Y8870054D01*
X-4211054Y8388285D01*
X-4324093Y7820000D01*
X-4211054Y7251715D01*
X-3889147Y6769946D01*
X-3559974Y6550000D01*
X-3889147Y6330054D01*
X-4211054Y5848285D01*
X-4324093Y5280000D01*
X-4222648Y4770000D01*
X-6088514Y4770000D01*
X-6000000Y4983691D01*
X-6000000Y5224250D01*
X-6158750Y5383000D01*
X-6883000Y5383000D01*
X-6883000Y5363000D01*
X-7137000Y5363000D01*
X-7137000Y5383000D01*
X-7861250Y5383000D01*
X-8020000Y5224250D01*
X-8020000Y4983691D01*
X-7923327Y4750302D01*
X-7921957Y4748932D01*
X-7981431Y4661890D01*
X-8032440Y4410000D01*
X-8032440Y3904891D01*
X-8131026Y3945828D01*
X-8192560Y4007362D01*
X-8192560Y4290000D01*
X-8236838Y4525317D01*
X-8375910Y4741441D01*
X-8445711Y4789134D01*
X-8388559Y4825910D01*
X-8243569Y5038110D01*
X-8192560Y5290000D01*
X-8192560Y5362638D01*
X-7889724Y5665474D01*
X-7861250Y5637000D01*
X-7137000Y5637000D01*
X-7137000Y6386250D01*
X-6883000Y6386250D01*
X-6883000Y5637000D01*
X-6158750Y5637000D01*
X-6000000Y5795750D01*
X-6000000Y6036309D01*
X-6096673Y6269698D01*
X-6275301Y6448327D01*
X-6508690Y6545000D01*
X-6724250Y6545000D01*
X-6883000Y6386250D01*
X-7137000Y6386250D01*
X-7152974Y6402224D01*
X-4031782Y9523416D01*
X-3889147Y9309946D01*
G36*
X-25310000Y5133691D02*
X-25213327Y4900302D01*
X-25211957Y4898932D01*
X-25271431Y4811890D01*
X-25281939Y4760000D01*
X-25375331Y4760000D01*
X-25385910Y4776441D01*
X-25598110Y4921431D01*
X-25735120Y4949176D01*
X-25614683Y4971838D01*
X-25398559Y5110910D01*
X-25310000Y5240520D01*
X-25310000Y5133691D01*
X-25310000Y5133691D01*
G37*
X-25310000Y5133691D02*
X-25213327Y4900302D01*
X-25211957Y4898932D01*
X-25271431Y4811890D01*
X-25281939Y4760000D01*
X-25375331Y4760000D01*
X-25385910Y4776441D01*
X-25598110Y4921431D01*
X-25735120Y4949176D01*
X-25614683Y4971838D01*
X-25398559Y5110910D01*
X-25310000Y5240520D01*
X-25310000Y5133691D01*
G36*
X-22582813Y6685000D02*
X-22687002Y6685000D01*
X-22687002Y6526252D01*
X-22845750Y6685000D01*
X-23061310Y6685000D01*
X-23294699Y6588327D01*
X-23425000Y6458025D01*
X-23565301Y6598327D01*
X-23798690Y6695000D01*
X-24014250Y6695000D01*
X-24173000Y6536250D01*
X-24173000Y5787000D01*
X-23448750Y5787000D01*
X-23435000Y5800750D01*
X-23411250Y5777000D01*
X-22687000Y5777000D01*
X-22687000Y5797000D01*
X-22433000Y5797000D01*
X-22433000Y5777000D01*
X-22413000Y5777000D01*
X-22413000Y5523000D01*
X-22433000Y5523000D01*
X-22433000Y5503000D01*
X-22687000Y5503000D01*
X-22687000Y5523000D01*
X-23411250Y5523000D01*
X-23425000Y5509250D01*
X-23448750Y5533000D01*
X-24173000Y5533000D01*
X-24173000Y5513000D01*
X-24427000Y5513000D01*
X-24427000Y5533000D01*
X-24447000Y5533000D01*
X-24447000Y5787000D01*
X-24427000Y5787000D01*
X-24427000Y6536250D01*
X-24585750Y6695000D01*
X-24801310Y6695000D01*
X-25034699Y6598327D01*
X-25213327Y6419698D01*
X-25231115Y6376755D01*
X-25246838Y6460317D01*
X-25385910Y6676441D01*
X-25598110Y6821431D01*
X-25673031Y6836603D01*
X-25677852Y6860839D01*
X-25737427Y6950000D01*
X-22847813Y6950000D01*
X-22582813Y6685000D01*
X-22582813Y6685000D01*
G37*
X-22582813Y6685000D02*
X-22687002Y6685000D01*
X-22687002Y6526252D01*
X-22845750Y6685000D01*
X-23061310Y6685000D01*
X-23294699Y6588327D01*
X-23425000Y6458025D01*
X-23565301Y6598327D01*
X-23798690Y6695000D01*
X-24014250Y6695000D01*
X-24173000Y6536250D01*
X-24173000Y5787000D01*
X-23448750Y5787000D01*
X-23435000Y5800750D01*
X-23411250Y5777000D01*
X-22687000Y5777000D01*
X-22687000Y5797000D01*
X-22433000Y5797000D01*
X-22433000Y5777000D01*
X-22413000Y5777000D01*
X-22413000Y5523000D01*
X-22433000Y5523000D01*
X-22433000Y5503000D01*
X-22687000Y5503000D01*
X-22687000Y5523000D01*
X-23411250Y5523000D01*
X-23425000Y5509250D01*
X-23448750Y5533000D01*
X-24173000Y5533000D01*
X-24173000Y5513000D01*
X-24427000Y5513000D01*
X-24427000Y5533000D01*
X-24447000Y5533000D01*
X-24447000Y5787000D01*
X-24427000Y5787000D01*
X-24427000Y6536250D01*
X-24585750Y6695000D01*
X-24801310Y6695000D01*
X-25034699Y6598327D01*
X-25213327Y6419698D01*
X-25231115Y6376755D01*
X-25246838Y6460317D01*
X-25385910Y6676441D01*
X-25598110Y6821431D01*
X-25673031Y6836603D01*
X-25677852Y6860839D01*
X-25737427Y6950000D01*
X-22847813Y6950000D01*
X-22582813Y6685000D01*
G36*
X-21597440Y9102638D02*
X-21597440Y9040000D01*
X-21553162Y8804683D01*
X-21414090Y8588559D01*
X-21201890Y8443569D01*
X-20950000Y8392560D01*
X-20050000Y8392560D01*
X-19814683Y8436838D01*
X-19727646Y8492844D01*
X-19200000Y7965198D01*
X-19200000Y6344547D01*
X-19223515Y6334831D01*
X-19505227Y6053610D01*
X-19516838Y6115317D01*
X-19655910Y6331441D01*
X-19868110Y6476431D01*
X-20120000Y6527440D01*
X-20275649Y6527440D01*
X-21995610Y8247401D01*
X-22159397Y8356839D01*
X-22075301Y8391673D01*
X-21896673Y8570302D01*
X-21800000Y8803691D01*
X-21800000Y9044250D01*
X-21958748Y9202998D01*
X-21800000Y9202998D01*
X-21800000Y9305198D01*
X-21597440Y9102638D01*
X-21597440Y9102638D01*
G37*
X-21597440Y9102638D02*
X-21597440Y9040000D01*
X-21553162Y8804683D01*
X-21414090Y8588559D01*
X-21201890Y8443569D01*
X-20950000Y8392560D01*
X-20050000Y8392560D01*
X-19814683Y8436838D01*
X-19727646Y8492844D01*
X-19200000Y7965198D01*
X-19200000Y6344547D01*
X-19223515Y6334831D01*
X-19505227Y6053610D01*
X-19516838Y6115317D01*
X-19655910Y6331441D01*
X-19868110Y6476431D01*
X-20120000Y6527440D01*
X-20275649Y6527440D01*
X-21995610Y8247401D01*
X-22159397Y8356839D01*
X-22075301Y8391673D01*
X-21896673Y8570302D01*
X-21800000Y8803691D01*
X-21800000Y9044250D01*
X-21958748Y9202998D01*
X-21800000Y9202998D01*
X-21800000Y9305198D01*
X-21597440Y9102638D01*
G36*
X-27311250Y9447000D02*
X-26587000Y9447000D01*
X-26587000Y9467000D01*
X-26333000Y9467000D01*
X-26333000Y9447000D01*
X-25608750Y9447000D01*
X-25575000Y9480750D01*
X-25551250Y9457000D01*
X-24827000Y9457000D01*
X-24827000Y9477000D01*
X-24573000Y9477000D01*
X-24573000Y9457000D01*
X-24553000Y9457000D01*
X-24553000Y9203000D01*
X-24573000Y9203000D01*
X-24573000Y9183000D01*
X-24827000Y9183000D01*
X-24827000Y9203000D01*
X-25551250Y9203000D01*
X-25585000Y9169250D01*
X-25608750Y9193000D01*
X-26333000Y9193000D01*
X-26333000Y9173000D01*
X-26587000Y9173000D01*
X-26587000Y9193000D01*
X-27311250Y9193000D01*
X-27360000Y9144250D01*
X-27408750Y9193000D01*
X-28133000Y9193000D01*
X-28133000Y9173000D01*
X-28387000Y9173000D01*
X-28387000Y9193000D01*
X-29111250Y9193000D01*
X-29115000Y9189250D01*
X-29128750Y9203000D01*
X-29853000Y9203000D01*
X-29853000Y9183000D01*
X-30107000Y9183000D01*
X-30107000Y9203000D01*
X-30127000Y9203000D01*
X-30127000Y9457000D01*
X-30107000Y9457000D01*
X-30107000Y9477000D01*
X-29853000Y9477000D01*
X-29853000Y9457000D01*
X-29128750Y9457000D01*
X-29125000Y9460750D01*
X-29111250Y9447000D01*
X-28387000Y9447000D01*
X-28387000Y9467000D01*
X-28133000Y9467000D01*
X-28133000Y9447000D01*
X-27408750Y9447000D01*
X-27360000Y9495750D01*
X-27311250Y9447000D01*
X-27311250Y9447000D01*
G37*
X-27311250Y9447000D02*
X-26587000Y9447000D01*
X-26587000Y9467000D01*
X-26333000Y9467000D01*
X-26333000Y9447000D01*
X-25608750Y9447000D01*
X-25575000Y9480750D01*
X-25551250Y9457000D01*
X-24827000Y9457000D01*
X-24827000Y9477000D01*
X-24573000Y9477000D01*
X-24573000Y9457000D01*
X-24553000Y9457000D01*
X-24553000Y9203000D01*
X-24573000Y9203000D01*
X-24573000Y9183000D01*
X-24827000Y9183000D01*
X-24827000Y9203000D01*
X-25551250Y9203000D01*
X-25585000Y9169250D01*
X-25608750Y9193000D01*
X-26333000Y9193000D01*
X-26333000Y9173000D01*
X-26587000Y9173000D01*
X-26587000Y9193000D01*
X-27311250Y9193000D01*
X-27360000Y9144250D01*
X-27408750Y9193000D01*
X-28133000Y9193000D01*
X-28133000Y9173000D01*
X-28387000Y9173000D01*
X-28387000Y9193000D01*
X-29111250Y9193000D01*
X-29115000Y9189250D01*
X-29128750Y9203000D01*
X-29853000Y9203000D01*
X-29853000Y9183000D01*
X-30107000Y9183000D01*
X-30107000Y9203000D01*
X-30127000Y9203000D01*
X-30127000Y9457000D01*
X-30107000Y9457000D01*
X-30107000Y9477000D01*
X-29853000Y9477000D01*
X-29853000Y9457000D01*
X-29128750Y9457000D01*
X-29125000Y9460750D01*
X-29111250Y9447000D01*
X-28387000Y9447000D01*
X-28387000Y9467000D01*
X-28133000Y9467000D01*
X-28133000Y9447000D01*
X-27408750Y9447000D01*
X-27360000Y9495750D01*
X-27311250Y9447000D01*
G36*
X-22683000Y9457000D02*
X-22663000Y9457000D01*
X-22663000Y9203000D01*
X-22683000Y9203000D01*
X-22683000Y9183000D01*
X-22937000Y9183000D01*
X-22937000Y9203000D01*
X-22957000Y9203000D01*
X-22957000Y9457000D01*
X-22937000Y9457000D01*
X-22937000Y9477000D01*
X-22683000Y9477000D01*
X-22683000Y9457000D01*
X-22683000Y9457000D01*
G37*
X-22683000Y9457000D02*
X-22663000Y9457000D01*
X-22663000Y9203000D01*
X-22683000Y9203000D01*
X-22683000Y9183000D01*
X-22937000Y9183000D01*
X-22937000Y9203000D01*
X-22957000Y9203000D01*
X-22957000Y9457000D01*
X-22937000Y9457000D01*
X-22937000Y9477000D01*
X-22683000Y9477000D01*
X-22683000Y9457000D01*
G36*
X-9100054Y14650853D02*
X-8810000Y14457046D01*
X-8810000Y11661045D01*
X-8843690Y11675000D01*
X-9134250Y11675000D01*
X-9293000Y11516250D01*
X-9293000Y10915000D01*
X-9273000Y10915000D01*
X-9273000Y10840000D01*
X-9567000Y10840000D01*
X-9567000Y10915000D01*
X-9547000Y10915000D01*
X-9547000Y11516250D01*
X-9705750Y11675000D01*
X-9996310Y11675000D01*
X-10229699Y11578327D01*
X-10386863Y11421162D01*
X-10456673Y11589698D01*
X-10635301Y11768327D01*
X-10868690Y11865000D01*
X-11084250Y11865000D01*
X-11243000Y11706250D01*
X-11243000Y10957000D01*
X-11223000Y10957000D01*
X-11223000Y10840000D01*
X-11517000Y10840000D01*
X-11517000Y10957000D01*
X-11497000Y10957000D01*
X-11497000Y11706250D01*
X-11655750Y11865000D01*
X-11871310Y11865000D01*
X-12104699Y11768327D01*
X-12283327Y11589698D01*
X-12285000Y11585659D01*
X-12286673Y11589698D01*
X-12465301Y11768327D01*
X-12698690Y11865000D01*
X-12914250Y11865000D01*
X-13073000Y11706250D01*
X-13073000Y10957000D01*
X-13053000Y10957000D01*
X-13053000Y10703000D01*
X-13073000Y10703000D01*
X-13073000Y10683000D01*
X-13327000Y10683000D01*
X-13327000Y10703000D01*
X-14051250Y10703000D01*
X-14090000Y10664250D01*
X-14128750Y10703000D01*
X-14853000Y10703000D01*
X-14853000Y10683000D01*
X-15107000Y10683000D01*
X-15107000Y10703000D01*
X-15831250Y10703000D01*
X-15845000Y10689250D01*
X-15858750Y10703000D01*
X-16583000Y10703000D01*
X-16583000Y10683000D01*
X-16837000Y10683000D01*
X-16837000Y10703000D01*
X-16857000Y10703000D01*
X-16857000Y10957000D01*
X-16837000Y10957000D01*
X-16837000Y11706250D01*
X-16583000Y11706250D01*
X-16583000Y10957000D01*
X-15858750Y10957000D01*
X-15845000Y10970750D01*
X-15831250Y10957000D01*
X-15107000Y10957000D01*
X-15107000Y11706250D01*
X-14853000Y11706250D01*
X-14853000Y10957000D01*
X-14128750Y10957000D01*
X-14090000Y10995750D01*
X-14051250Y10957000D01*
X-13327000Y10957000D01*
X-13327000Y11706250D01*
X-13485750Y11865000D01*
X-13701310Y11865000D01*
X-13934699Y11768327D01*
X-14090000Y11613025D01*
X-14245301Y11768327D01*
X-14478690Y11865000D01*
X-14694250Y11865000D01*
X-14853000Y11706250D01*
X-15107000Y11706250D01*
X-15265750Y11865000D01*
X-15481310Y11865000D01*
X-15714699Y11768327D01*
X-15845000Y11638025D01*
X-15975301Y11768327D01*
X-16208690Y11865000D01*
X-16424250Y11865000D01*
X-16583000Y11706250D01*
X-16837000Y11706250D01*
X-16995750Y11865000D01*
X-17211310Y11865000D01*
X-17444699Y11768327D01*
X-17623327Y11589698D01*
X-17720000Y11356309D01*
X-17720000Y11240686D01*
X-18163298Y11424759D01*
X-18714285Y11425240D01*
X-18766646Y11403605D01*
X-18899159Y11492147D01*
X-19189998Y11549999D01*
X-19671613Y11549999D01*
X-19798110Y11636431D01*
X-19852334Y11647412D01*
X-19972599Y11827401D01*
X-20290198Y12145000D01*
X-18152604Y12145000D01*
X-17861765Y12202852D01*
X-17615203Y12367599D01*
X-16662802Y13320000D01*
X-12580000Y13320000D01*
X-12289161Y13377852D01*
X-12042599Y13542599D01*
X-11302599Y14282599D01*
X-11236646Y14381305D01*
X-11158285Y14328946D01*
X-10590000Y14215907D01*
X-10021715Y14328946D01*
X-9539946Y14650853D01*
X-9320000Y14980026D01*
X-9100054Y14650853D01*
X-9100054Y14650853D01*
G37*
X-9100054Y14650853D02*
X-8810000Y14457046D01*
X-8810000Y11661045D01*
X-8843690Y11675000D01*
X-9134250Y11675000D01*
X-9293000Y11516250D01*
X-9293000Y10915000D01*
X-9273000Y10915000D01*
X-9273000Y10840000D01*
X-9567000Y10840000D01*
X-9567000Y10915000D01*
X-9547000Y10915000D01*
X-9547000Y11516250D01*
X-9705750Y11675000D01*
X-9996310Y11675000D01*
X-10229699Y11578327D01*
X-10386863Y11421162D01*
X-10456673Y11589698D01*
X-10635301Y11768327D01*
X-10868690Y11865000D01*
X-11084250Y11865000D01*
X-11243000Y11706250D01*
X-11243000Y10957000D01*
X-11223000Y10957000D01*
X-11223000Y10840000D01*
X-11517000Y10840000D01*
X-11517000Y10957000D01*
X-11497000Y10957000D01*
X-11497000Y11706250D01*
X-11655750Y11865000D01*
X-11871310Y11865000D01*
X-12104699Y11768327D01*
X-12283327Y11589698D01*
X-12285000Y11585659D01*
X-12286673Y11589698D01*
X-12465301Y11768327D01*
X-12698690Y11865000D01*
X-12914250Y11865000D01*
X-13073000Y11706250D01*
X-13073000Y10957000D01*
X-13053000Y10957000D01*
X-13053000Y10703000D01*
X-13073000Y10703000D01*
X-13073000Y10683000D01*
X-13327000Y10683000D01*
X-13327000Y10703000D01*
X-14051250Y10703000D01*
X-14090000Y10664250D01*
X-14128750Y10703000D01*
X-14853000Y10703000D01*
X-14853000Y10683000D01*
X-15107000Y10683000D01*
X-15107000Y10703000D01*
X-15831250Y10703000D01*
X-15845000Y10689250D01*
X-15858750Y10703000D01*
X-16583000Y10703000D01*
X-16583000Y10683000D01*
X-16837000Y10683000D01*
X-16837000Y10703000D01*
X-16857000Y10703000D01*
X-16857000Y10957000D01*
X-16837000Y10957000D01*
X-16837000Y11706250D01*
X-16583000Y11706250D01*
X-16583000Y10957000D01*
X-15858750Y10957000D01*
X-15845000Y10970750D01*
X-15831250Y10957000D01*
X-15107000Y10957000D01*
X-15107000Y11706250D01*
X-14853000Y11706250D01*
X-14853000Y10957000D01*
X-14128750Y10957000D01*
X-14090000Y10995750D01*
X-14051250Y10957000D01*
X-13327000Y10957000D01*
X-13327000Y11706250D01*
X-13485750Y11865000D01*
X-13701310Y11865000D01*
X-13934699Y11768327D01*
X-14090000Y11613025D01*
X-14245301Y11768327D01*
X-14478690Y11865000D01*
X-14694250Y11865000D01*
X-14853000Y11706250D01*
X-15107000Y11706250D01*
X-15265750Y11865000D01*
X-15481310Y11865000D01*
X-15714699Y11768327D01*
X-15845000Y11638025D01*
X-15975301Y11768327D01*
X-16208690Y11865000D01*
X-16424250Y11865000D01*
X-16583000Y11706250D01*
X-16837000Y11706250D01*
X-16995750Y11865000D01*
X-17211310Y11865000D01*
X-17444699Y11768327D01*
X-17623327Y11589698D01*
X-17720000Y11356309D01*
X-17720000Y11240686D01*
X-18163298Y11424759D01*
X-18714285Y11425240D01*
X-18766646Y11403605D01*
X-18899159Y11492147D01*
X-19189998Y11549999D01*
X-19671613Y11549999D01*
X-19798110Y11636431D01*
X-19852334Y11647412D01*
X-19972599Y11827401D01*
X-20290198Y12145000D01*
X-18152604Y12145000D01*
X-17861765Y12202852D01*
X-17615203Y12367599D01*
X-16662802Y13320000D01*
X-12580000Y13320000D01*
X-12289161Y13377852D01*
X-12042599Y13542599D01*
X-11302599Y14282599D01*
X-11236646Y14381305D01*
X-11158285Y14328946D01*
X-10590000Y14215907D01*
X-10021715Y14328946D01*
X-9539946Y14650853D01*
X-9320000Y14980026D01*
X-9100054Y14650853D01*
G36*
X-48435000Y13536310D02*
X-48435000Y13245750D01*
X-48276250Y13087000D01*
X-47675000Y13087000D01*
X-47675000Y13107000D01*
X-47425000Y13107000D01*
X-47425000Y13087000D01*
X-47403000Y13087000D01*
X-47403000Y12833000D01*
X-47425000Y12833000D01*
X-47425000Y12813000D01*
X-47675000Y12813000D01*
X-47675000Y12833000D01*
X-48276250Y12833000D01*
X-48435000Y12674250D01*
X-48435000Y12383690D01*
X-48398263Y12295000D01*
X-48407052Y12295000D01*
X-48427406Y12290951D01*
X-48481708Y12422372D01*
X-48716393Y12657466D01*
X-49023179Y12784855D01*
X-49070000Y12784896D01*
X-49070000Y13497200D01*
X-48862198Y13705002D01*
X-48365125Y13705002D01*
X-48435000Y13536310D01*
X-48435000Y13536310D01*
G37*
X-48435000Y13536310D02*
X-48435000Y13245750D01*
X-48276250Y13087000D01*
X-47675000Y13087000D01*
X-47675000Y13107000D01*
X-47425000Y13107000D01*
X-47425000Y13087000D01*
X-47403000Y13087000D01*
X-47403000Y12833000D01*
X-47425000Y12833000D01*
X-47425000Y12813000D01*
X-47675000Y12813000D01*
X-47675000Y12833000D01*
X-48276250Y12833000D01*
X-48435000Y12674250D01*
X-48435000Y12383690D01*
X-48398263Y12295000D01*
X-48407052Y12295000D01*
X-48427406Y12290951D01*
X-48481708Y12422372D01*
X-48716393Y12657466D01*
X-49023179Y12784855D01*
X-49070000Y12784896D01*
X-49070000Y13497200D01*
X-48862198Y13705002D01*
X-48365125Y13705002D01*
X-48435000Y13536310D01*
G36*
X-2683000Y13027000D02*
X-2663000Y13027000D01*
X-2663000Y12773000D01*
X-2683000Y12773000D01*
X-2683000Y12753000D01*
X-2937000Y12753000D01*
X-2937000Y12773000D01*
X-2957000Y12773000D01*
X-2957000Y13027000D01*
X-2937000Y13027000D01*
X-2937000Y13047000D01*
X-2683000Y13047000D01*
X-2683000Y13027000D01*
X-2683000Y13027000D01*
G37*
X-2683000Y13027000D02*
X-2663000Y13027000D01*
X-2663000Y12773000D01*
X-2683000Y12773000D01*
X-2683000Y12753000D01*
X-2937000Y12753000D01*
X-2937000Y12773000D01*
X-2957000Y12773000D01*
X-2957000Y13027000D01*
X-2937000Y13027000D01*
X-2937000Y13047000D01*
X-2683000Y13047000D01*
X-2683000Y13027000D01*
G36*
X708000Y17151758D02*
X671890Y17176431D01*
X420000Y17227440D01*
X-1280000Y17227440D01*
X-1450547Y17195349D01*
X-2242598Y17987400D01*
X-2489160Y18152147D01*
X-2779999Y18209999D01*
X-10610001Y18209999D01*
X-10900840Y18152147D01*
X-11147402Y17987400D01*
X-11627401Y17507401D01*
X-11629439Y17504351D01*
X-12226631Y16907159D01*
X-12561715Y17131054D01*
X-13130000Y17244093D01*
X-13698285Y17131054D01*
X-14180054Y16809147D01*
X-14400000Y16479974D01*
X-14619946Y16809147D01*
X-15101715Y17131054D01*
X-15670000Y17244093D01*
X-16238285Y17131054D01*
X-16720054Y16809147D01*
X-16940000Y16479974D01*
X-17159946Y16809147D01*
X-17641715Y17131054D01*
X-18210000Y17244093D01*
X-18778285Y17131054D01*
X-19260054Y16809147D01*
X-19480000Y16479974D01*
X-19699946Y16809147D01*
X-20181715Y17131054D01*
X-20750000Y17244093D01*
X-21318285Y17131054D01*
X-21800054Y16809147D01*
X-22020000Y16479974D01*
X-22239946Y16809147D01*
X-22721715Y17131054D01*
X-23290000Y17244093D01*
X-23858285Y17131054D01*
X-24340054Y16809147D01*
X-24560000Y16479974D01*
X-24779946Y16809147D01*
X-25261715Y17131054D01*
X-25830000Y17244093D01*
X-26398285Y17131054D01*
X-26880054Y16809147D01*
X-27100000Y16479974D01*
X-27319946Y16809147D01*
X-27801715Y17131054D01*
X-28370000Y17244093D01*
X-28938285Y17131054D01*
X-29420054Y16809147D01*
X-29640000Y16479974D01*
X-29859946Y16809147D01*
X-30341715Y17131054D01*
X-30910000Y17244093D01*
X-31478285Y17131054D01*
X-31960054Y16809147D01*
X-32180000Y16479974D01*
X-32399946Y16809147D01*
X-32881715Y17131054D01*
X-33450000Y17244093D01*
X-34018285Y17131054D01*
X-34500054Y16809147D01*
X-34720000Y16479974D01*
X-34939946Y16809147D01*
X-35421715Y17131054D01*
X-35990000Y17244093D01*
X-36558285Y17131054D01*
X-37040054Y16809147D01*
X-37260000Y16479974D01*
X-37479946Y16809147D01*
X-37961715Y17131054D01*
X-38530000Y17244093D01*
X-39098285Y17131054D01*
X-39580054Y16809147D01*
X-39800000Y16479974D01*
X-40019946Y16809147D01*
X-40501715Y17131054D01*
X-41070000Y17244093D01*
X-41638285Y17131054D01*
X-42120054Y16809147D01*
X-42340000Y16479974D01*
X-42559946Y16809147D01*
X-43041715Y17131054D01*
X-43610000Y17244093D01*
X-44178285Y17131054D01*
X-44660054Y16809147D01*
X-44887702Y16468447D01*
X-44954817Y16611358D01*
X-45383076Y17001645D01*
X-45793110Y17171476D01*
X-46023000Y17050155D01*
X-46023000Y15857000D01*
X-46003000Y15857000D01*
X-46003000Y15603000D01*
X-46023000Y15603000D01*
X-46023000Y15583000D01*
X-46277000Y15583000D01*
X-46277000Y15603000D01*
X-48563000Y15603000D01*
X-48563000Y15583000D01*
X-48817000Y15583000D01*
X-48817000Y15603000D01*
X-48837000Y15603000D01*
X-48837000Y15857000D01*
X-48817000Y15857000D01*
X-48817000Y17050155D01*
X-48563000Y17050155D01*
X-48563000Y15857000D01*
X-46277000Y15857000D01*
X-46277000Y17050155D01*
X-46506890Y17171476D01*
X-46916924Y17001645D01*
X-47345183Y16611358D01*
X-47420000Y16452046D01*
X-47494817Y16611358D01*
X-47923076Y17001645D01*
X-48333110Y17171476D01*
X-48563000Y17050155D01*
X-48817000Y17050155D01*
X-49046890Y17171476D01*
X-49456924Y17001645D01*
X-49872000Y16623372D01*
X-49872000Y18602000D01*
X708000Y18602000D01*
X708000Y17151758D01*
X708000Y17151758D01*
G37*
X708000Y17151758D02*
X671890Y17176431D01*
X420000Y17227440D01*
X-1280000Y17227440D01*
X-1450547Y17195349D01*
X-2242598Y17987400D01*
X-2489160Y18152147D01*
X-2779999Y18209999D01*
X-10610001Y18209999D01*
X-10900840Y18152147D01*
X-11147402Y17987400D01*
X-11627401Y17507401D01*
X-11629439Y17504351D01*
X-12226631Y16907159D01*
X-12561715Y17131054D01*
X-13130000Y17244093D01*
X-13698285Y17131054D01*
X-14180054Y16809147D01*
X-14400000Y16479974D01*
X-14619946Y16809147D01*
X-15101715Y17131054D01*
X-15670000Y17244093D01*
X-16238285Y17131054D01*
X-16720054Y16809147D01*
X-16940000Y16479974D01*
X-17159946Y16809147D01*
X-17641715Y17131054D01*
X-18210000Y17244093D01*
X-18778285Y17131054D01*
X-19260054Y16809147D01*
X-19480000Y16479974D01*
X-19699946Y16809147D01*
X-20181715Y17131054D01*
X-20750000Y17244093D01*
X-21318285Y17131054D01*
X-21800054Y16809147D01*
X-22020000Y16479974D01*
X-22239946Y16809147D01*
X-22721715Y17131054D01*
X-23290000Y17244093D01*
X-23858285Y17131054D01*
X-24340054Y16809147D01*
X-24560000Y16479974D01*
X-24779946Y16809147D01*
X-25261715Y17131054D01*
X-25830000Y17244093D01*
X-26398285Y17131054D01*
X-26880054Y16809147D01*
X-27100000Y16479974D01*
X-27319946Y16809147D01*
X-27801715Y17131054D01*
X-28370000Y17244093D01*
X-28938285Y17131054D01*
X-29420054Y16809147D01*
X-29640000Y16479974D01*
X-29859946Y16809147D01*
X-30341715Y17131054D01*
X-30910000Y17244093D01*
X-31478285Y17131054D01*
X-31960054Y16809147D01*
X-32180000Y16479974D01*
X-32399946Y16809147D01*
X-32881715Y17131054D01*
X-33450000Y17244093D01*
X-34018285Y17131054D01*
X-34500054Y16809147D01*
X-34720000Y16479974D01*
X-34939946Y16809147D01*
X-35421715Y17131054D01*
X-35990000Y17244093D01*
X-36558285Y17131054D01*
X-37040054Y16809147D01*
X-37260000Y16479974D01*
X-37479946Y16809147D01*
X-37961715Y17131054D01*
X-38530000Y17244093D01*
X-39098285Y17131054D01*
X-39580054Y16809147D01*
X-39800000Y16479974D01*
X-40019946Y16809147D01*
X-40501715Y17131054D01*
X-41070000Y17244093D01*
X-41638285Y17131054D01*
X-42120054Y16809147D01*
X-42340000Y16479974D01*
X-42559946Y16809147D01*
X-43041715Y17131054D01*
X-43610000Y17244093D01*
X-44178285Y17131054D01*
X-44660054Y16809147D01*
X-44887702Y16468447D01*
X-44954817Y16611358D01*
X-45383076Y17001645D01*
X-45793110Y17171476D01*
X-46023000Y17050155D01*
X-46023000Y15857000D01*
X-46003000Y15857000D01*
X-46003000Y15603000D01*
X-46023000Y15603000D01*
X-46023000Y15583000D01*
X-46277000Y15583000D01*
X-46277000Y15603000D01*
X-48563000Y15603000D01*
X-48563000Y15583000D01*
X-48817000Y15583000D01*
X-48817000Y15603000D01*
X-48837000Y15603000D01*
X-48837000Y15857000D01*
X-48817000Y15857000D01*
X-48817000Y17050155D01*
X-48563000Y17050155D01*
X-48563000Y15857000D01*
X-46277000Y15857000D01*
X-46277000Y17050155D01*
X-46506890Y17171476D01*
X-46916924Y17001645D01*
X-47345183Y16611358D01*
X-47420000Y16452046D01*
X-47494817Y16611358D01*
X-47923076Y17001645D01*
X-48333110Y17171476D01*
X-48563000Y17050155D01*
X-48817000Y17050155D01*
X-49046890Y17171476D01*
X-49456924Y17001645D01*
X-49872000Y16623372D01*
X-49872000Y18602000D01*
X708000Y18602000D01*
X708000Y17151758D01*
M02*
