%TF.GenerationSoftware,KiCad,Pcbnew,4.0.7*%
%TF.CreationDate,2017-11-14T20:11:37+08:00*%
%TF.ProjectId,STM32F401CCT6,53544D333246343031434354362E6B69,rev?*%
%TF.FileFunction,Legend,Top*%
%FSLAX46Y46*%
G04 Gerber Fmt 4.6, Leading zero omitted, Abs format (unit mm)*
G04 Created by KiCad (PCBNEW 4.0.7) date 11/14/17 20:11:37*
%MOMM*%
%LPD*%
G01*
G04 APERTURE LIST*
%ADD10C,0.100000*%
%ADD11C,0.200000*%
%ADD12C,0.237500*%
%ADD13C,0.120000*%
%ADD14C,0.150000*%
%ADD15C,0.250000*%
G04 APERTURE END LIST*
D10*
D11*
X-6970000Y10790000D02*
X-6970000Y11130000D01*
X-7210000Y11130000D02*
X-6710000Y11130000D01*
X-6960000Y4960000D02*
X-6960000Y5300000D01*
X-7210000Y5300000D02*
X-6710000Y5300000D01*
X-5634228Y7914115D02*
X-5535846Y7989280D01*
X-5440608Y8154237D01*
X-5443752Y8244029D01*
X-5465943Y8300831D01*
X-5529374Y8381441D01*
X-5611853Y8429060D01*
X-5713379Y8443688D01*
X-5773666Y8434505D01*
X-5853001Y8392333D01*
X-5970431Y8284176D01*
X-6049766Y8242003D01*
X-6110052Y8232821D01*
X-6211578Y8247449D01*
X-6294057Y8295068D01*
X-6357488Y8375678D01*
X-6379680Y8432479D01*
X-6382823Y8522271D01*
X-6287585Y8687228D01*
X-6189203Y8762394D01*
X-6097109Y9017143D02*
X-5135846Y8682100D01*
X-5678245Y9171209D01*
X-4983465Y8946032D01*
X-5754252Y9610989D01*
X-4735846Y9374921D02*
X-5601871Y9874921D01*
X-5506633Y10039878D01*
X-5408251Y10115043D01*
X-5287677Y10133407D01*
X-5186151Y10118780D01*
X-5002146Y10056533D01*
X-4878427Y9985104D01*
X-4732518Y9856875D01*
X-4669087Y9776264D01*
X-4624704Y9662662D01*
X-4640608Y9539878D01*
X-4735846Y9374921D01*
X-4189753Y10511258D02*
X-4167561Y10454457D01*
X-4183465Y10331673D01*
X-4221560Y10265690D01*
X-4319942Y10190525D01*
X-4440516Y10172161D01*
X-4542042Y10186789D01*
X-4726046Y10249035D01*
X-4849765Y10320464D01*
X-4995675Y10448694D01*
X-5059106Y10529304D01*
X-5103489Y10642906D01*
X-5087585Y10765690D01*
X-5049490Y10831673D01*
X-4951108Y10906838D01*
X-4890821Y10916020D01*
X-3745369Y11090476D02*
X-3935846Y10760561D01*
X-4801871Y11260561D01*
X-3612036Y11321416D02*
X-4478061Y11821416D01*
X-3383465Y11717313D02*
X-4049765Y11706105D01*
X-4249490Y12217313D02*
X-3983189Y11535701D01*
X-42169523Y2200000D02*
X-42245714Y2242857D01*
X-42359999Y2242857D01*
X-42474285Y2200000D01*
X-42550476Y2114286D01*
X-42588571Y2028571D01*
X-42626666Y1857143D01*
X-42626666Y1728571D01*
X-42588571Y1557143D01*
X-42550476Y1471429D01*
X-42474285Y1385714D01*
X-42359999Y1342857D01*
X-42283809Y1342857D01*
X-42169523Y1385714D01*
X-42131428Y1428571D01*
X-42131428Y1728571D01*
X-42283809Y1728571D01*
X-41788571Y1342857D02*
X-41788571Y2242857D01*
X-41331428Y1342857D01*
X-41331428Y2242857D01*
X-40950476Y1342857D02*
X-40950476Y2242857D01*
X-40760000Y2242857D01*
X-40645714Y2200000D01*
X-40569523Y2114286D01*
X-40531428Y2028571D01*
X-40493333Y1857143D01*
X-40493333Y1728571D01*
X-40531428Y1557143D01*
X-40569523Y1471429D01*
X-40645714Y1385714D01*
X-40760000Y1342857D01*
X-40950476Y1342857D01*
X-34233429Y4475334D02*
X-34185810Y4589620D01*
X-34138190Y4627715D01*
X-34042952Y4665810D01*
X-33900095Y4665810D01*
X-33804857Y4627715D01*
X-33757238Y4589620D01*
X-33709619Y4513429D01*
X-33709619Y4208667D01*
X-34709619Y4208667D01*
X-34709619Y4475334D01*
X-34662000Y4551524D01*
X-34614381Y4589620D01*
X-34519143Y4627715D01*
X-34423905Y4627715D01*
X-34328667Y4589620D01*
X-34281048Y4551524D01*
X-34233429Y4475334D01*
X-34233429Y4208667D01*
X-34709619Y5161048D02*
X-34709619Y5313429D01*
X-34662000Y5389620D01*
X-34566762Y5465810D01*
X-34376286Y5503905D01*
X-34042952Y5503905D01*
X-33852476Y5465810D01*
X-33757238Y5389620D01*
X-33709619Y5313429D01*
X-33709619Y5161048D01*
X-33757238Y5084858D01*
X-33852476Y5008667D01*
X-34042952Y4970572D01*
X-34376286Y4970572D01*
X-34566762Y5008667D01*
X-34662000Y5084858D01*
X-34709619Y5161048D01*
X-34709619Y5999143D02*
X-34709619Y6151524D01*
X-34662000Y6227715D01*
X-34566762Y6303905D01*
X-34376286Y6342000D01*
X-34042952Y6342000D01*
X-33852476Y6303905D01*
X-33757238Y6227715D01*
X-33709619Y6151524D01*
X-33709619Y5999143D01*
X-33757238Y5922953D01*
X-33852476Y5846762D01*
X-34042952Y5808667D01*
X-34376286Y5808667D01*
X-34566762Y5846762D01*
X-34662000Y5922953D01*
X-34709619Y5999143D01*
X-34709619Y6570571D02*
X-34709619Y7027714D01*
X-33709619Y6799143D02*
X-34709619Y6799143D01*
X-33709619Y7713429D02*
X-33709619Y7256286D01*
X-33709619Y7484857D02*
X-34709619Y7484857D01*
X-34566762Y7408667D01*
X-34471524Y7332476D01*
X-34423905Y7256286D01*
X-43089619Y10683905D02*
X-43565810Y10417238D01*
X-43089619Y10226762D02*
X-44089619Y10226762D01*
X-44089619Y10531524D01*
X-44042000Y10607715D01*
X-43994381Y10645810D01*
X-43899143Y10683905D01*
X-43756286Y10683905D01*
X-43661048Y10645810D01*
X-43613429Y10607715D01*
X-43565810Y10531524D01*
X-43565810Y10226762D01*
X-43137238Y10988667D02*
X-43089619Y11102953D01*
X-43089619Y11293429D01*
X-43137238Y11369619D01*
X-43184857Y11407715D01*
X-43280095Y11445810D01*
X-43375333Y11445810D01*
X-43470571Y11407715D01*
X-43518190Y11369619D01*
X-43565810Y11293429D01*
X-43613429Y11141048D01*
X-43661048Y11064857D01*
X-43708667Y11026762D01*
X-43803905Y10988667D01*
X-43899143Y10988667D01*
X-43994381Y11026762D01*
X-44042000Y11064857D01*
X-44089619Y11141048D01*
X-44089619Y11331524D01*
X-44042000Y11445810D01*
X-44089619Y11674381D02*
X-44089619Y12131524D01*
X-43089619Y11902953D02*
X-44089619Y11902953D01*
X-43852000Y6112000D02*
X-43852000Y5942000D01*
X-34432000Y3112000D02*
X-34812000Y3362000D01*
X-34452000Y3632000D02*
X-34432000Y3112000D01*
X-34822000Y3322000D02*
X-34452000Y3632000D01*
X-34092000Y3362000D02*
X-34822000Y3322000D01*
X-34072000Y3992000D02*
X-34092000Y3362000D01*
X-43092000Y6432000D02*
X-43512000Y6662000D01*
X-43522000Y6192000D02*
X-43092000Y6432000D01*
X-43522000Y6652000D02*
X-43522000Y6192000D01*
X-43202000Y6462000D02*
X-43522000Y6652000D01*
X-43852000Y6452000D02*
X-43202000Y6462000D01*
X-43852000Y6122000D02*
X-43852000Y6452000D01*
X-43773429Y2505334D02*
X-43725810Y2619620D01*
X-43678190Y2657715D01*
X-43582952Y2695810D01*
X-43440095Y2695810D01*
X-43344857Y2657715D01*
X-43297238Y2619620D01*
X-43249619Y2543429D01*
X-43249619Y2238667D01*
X-44249619Y2238667D01*
X-44249619Y2505334D01*
X-44202000Y2581524D01*
X-44154381Y2619620D01*
X-44059143Y2657715D01*
X-43963905Y2657715D01*
X-43868667Y2619620D01*
X-43821048Y2581524D01*
X-43773429Y2505334D01*
X-43773429Y2238667D01*
X-44249619Y3191048D02*
X-44249619Y3343429D01*
X-44202000Y3419620D01*
X-44106762Y3495810D01*
X-43916286Y3533905D01*
X-43582952Y3533905D01*
X-43392476Y3495810D01*
X-43297238Y3419620D01*
X-43249619Y3343429D01*
X-43249619Y3191048D01*
X-43297238Y3114858D01*
X-43392476Y3038667D01*
X-43582952Y3000572D01*
X-43916286Y3000572D01*
X-44106762Y3038667D01*
X-44202000Y3114858D01*
X-44249619Y3191048D01*
X-44249619Y4029143D02*
X-44249619Y4181524D01*
X-44202000Y4257715D01*
X-44106762Y4333905D01*
X-43916286Y4372000D01*
X-43582952Y4372000D01*
X-43392476Y4333905D01*
X-43297238Y4257715D01*
X-43249619Y4181524D01*
X-43249619Y4029143D01*
X-43297238Y3952953D01*
X-43392476Y3876762D01*
X-43582952Y3838667D01*
X-43916286Y3838667D01*
X-44106762Y3876762D01*
X-44202000Y3952953D01*
X-44249619Y4029143D01*
X-44249619Y4600571D02*
X-44249619Y5057714D01*
X-43249619Y4829143D02*
X-44249619Y4829143D01*
X-44249619Y5476762D02*
X-44249619Y5552953D01*
X-44202000Y5629143D01*
X-44154381Y5667238D01*
X-44059143Y5705334D01*
X-43868667Y5743429D01*
X-43630571Y5743429D01*
X-43440095Y5705334D01*
X-43344857Y5667238D01*
X-43297238Y5629143D01*
X-43249619Y5552953D01*
X-43249619Y5476762D01*
X-43297238Y5400572D01*
X-43344857Y5362476D01*
X-43440095Y5324381D01*
X-43630571Y5286286D01*
X-43868667Y5286286D01*
X-44059143Y5324381D01*
X-44154381Y5362476D01*
X-44202000Y5400572D01*
X-44249619Y5476762D01*
X-37406667Y2212857D02*
X-37140000Y1312857D01*
X-36873333Y2212857D01*
X-36606667Y1312857D02*
X-36606667Y2212857D01*
X-36416191Y2212857D01*
X-36301905Y2170000D01*
X-36225714Y2084286D01*
X-36187619Y1998571D01*
X-36149524Y1827143D01*
X-36149524Y1698571D01*
X-36187619Y1527143D01*
X-36225714Y1441429D01*
X-36301905Y1355714D01*
X-36416191Y1312857D01*
X-36606667Y1312857D01*
X-35806667Y1312857D02*
X-35806667Y2212857D01*
X-35616191Y2212857D01*
X-35501905Y2170000D01*
X-35425714Y2084286D01*
X-35387619Y1998571D01*
X-35349524Y1827143D01*
X-35349524Y1698571D01*
X-35387619Y1527143D01*
X-35425714Y1441429D01*
X-35501905Y1355714D01*
X-35616191Y1312857D01*
X-35806667Y1312857D01*
X-5617585Y2290049D02*
X-4618227Y2020989D01*
X-5350918Y2751930D01*
X-4351560Y2482869D02*
X-5217585Y2982869D01*
X-5122347Y3147826D01*
X-5023965Y3222991D01*
X-4903391Y3241356D01*
X-4801865Y3226728D01*
X-4617861Y3164481D01*
X-4494142Y3093052D01*
X-4348232Y2964823D01*
X-4284801Y2884213D01*
X-4240418Y2770610D01*
X-4256322Y2647826D01*
X-4351560Y2482869D01*
X-3951560Y3175689D02*
X-4817585Y3675689D01*
X-4722347Y3840646D01*
X-4623965Y3915812D01*
X-4503391Y3934176D01*
X-4401865Y3919548D01*
X-4217861Y3857301D01*
X-4094142Y3785872D01*
X-3948232Y3657643D01*
X-3884801Y3577033D01*
X-3840418Y3463431D01*
X-3856322Y3340646D01*
X-3951560Y3175689D01*
X-5434149Y4358425D02*
X-4856798Y4025092D01*
X-5351670Y4310806D02*
X-5373862Y4367607D01*
X-5377006Y4457400D01*
X-5319863Y4556374D01*
X-5240528Y4598547D01*
X-5139002Y4583920D01*
X-4685370Y4322015D01*
X-4266322Y5047827D02*
X-4812049Y5054982D01*
X-4494893Y4651930D02*
X-5360918Y5151930D01*
X-5208537Y5415861D01*
X-5129203Y5458035D01*
X-5068916Y5467217D01*
X-4967390Y5452589D01*
X-4843672Y5381161D01*
X-4780241Y5300550D01*
X-4758049Y5243750D01*
X-4754906Y5153957D01*
X-4907287Y4890025D01*
X-4155180Y5335568D02*
X-4056798Y5410733D01*
X-3961560Y5575690D01*
X-3964704Y5665482D01*
X-3986895Y5722284D01*
X-4050326Y5802894D01*
X-4132805Y5850513D01*
X-4234331Y5865141D01*
X-4294618Y5855958D01*
X-4373953Y5813786D01*
X-4491383Y5705629D01*
X-4570718Y5663456D01*
X-4631004Y5654274D01*
X-4732530Y5668902D01*
X-4815009Y5716521D01*
X-4878440Y5797131D01*
X-4900632Y5853932D01*
X-4903775Y5943724D01*
X-4808537Y6108682D01*
X-4710155Y6183847D01*
X-4637109Y6405604D02*
X-4408537Y6801502D01*
X-3656798Y6103554D02*
X-4522823Y6603554D01*
X-5197085Y6059500D02*
X-5098703Y6134665D01*
X-5003465Y6299622D01*
X-5006609Y6389414D01*
X-5028800Y6446216D01*
X-5092231Y6526826D01*
X-5174710Y6574445D01*
X-5276236Y6589073D01*
X-5336523Y6579890D01*
X-5415858Y6537717D01*
X-5533288Y6429561D01*
X-5612623Y6387387D01*
X-5672909Y6378206D01*
X-5774435Y6392833D01*
X-5856914Y6440452D01*
X-5920345Y6521063D01*
X-5942537Y6577863D01*
X-5945680Y6667656D01*
X-5850442Y6832613D01*
X-5752060Y6907778D01*
X-5659966Y7162528D02*
X-4698703Y6827485D01*
X-5241102Y7316594D01*
X-4546322Y7091417D01*
X-5317109Y7756374D01*
X-4298703Y7520306D02*
X-5164728Y8020306D01*
X-5069490Y8185263D01*
X-4971108Y8260428D01*
X-4850534Y8278792D01*
X-4749008Y8264164D01*
X-4565003Y8201918D01*
X-4441284Y8130489D01*
X-4295375Y8002259D01*
X-4231944Y7921649D01*
X-4187561Y7808047D01*
X-4203465Y7685263D01*
X-4298703Y7520306D01*
X-3898703Y8213126D02*
X-4764728Y8713126D01*
X-4498061Y9175006D02*
X-4421871Y9306972D01*
X-4342536Y9349145D01*
X-4221963Y9367509D01*
X-4037958Y9305262D01*
X-3749282Y9138595D01*
X-3603373Y9010366D01*
X-3558989Y8896764D01*
X-3555846Y8806972D01*
X-3632036Y8675006D01*
X-3711370Y8632833D01*
X-3831944Y8614468D01*
X-4015949Y8676715D01*
X-4304625Y8843382D01*
X-4450534Y8971611D01*
X-4494917Y9085214D01*
X-4498061Y9175006D01*
X-5837774Y12272138D02*
X-5917109Y12229964D01*
X-5974251Y12130990D01*
X-5990155Y12008206D01*
X-5945772Y11894604D01*
X-5882341Y11813993D01*
X-5736432Y11685764D01*
X-5612713Y11614335D01*
X-5428708Y11552088D01*
X-5327182Y11537461D01*
X-5206608Y11555825D01*
X-5108226Y11630990D01*
X-5070131Y11696973D01*
X-5054227Y11819757D01*
X-5076419Y11876557D01*
X-5365094Y12043224D01*
X-5441284Y11911258D01*
X-4822512Y12125861D02*
X-5688537Y12625861D01*
X-4593941Y12521759D01*
X-5459966Y13021759D01*
X-4403465Y12851673D02*
X-5269490Y13351673D01*
X-5174252Y13516630D01*
X-5075870Y13591795D01*
X-4955296Y13610159D01*
X-4853770Y13595531D01*
X-4669765Y13533285D01*
X-4546046Y13461856D01*
X-4400137Y13333626D01*
X-4336706Y13253016D01*
X-4292323Y13139414D01*
X-4308227Y13016630D01*
X-4403465Y12851673D01*
D12*
X-50153481Y17949087D02*
X-49797605Y18829912D01*
X-49462052Y18694340D01*
X-49395111Y18618503D01*
X-49370112Y18559612D01*
X-49362061Y18458778D01*
X-49412901Y18332945D01*
X-49488738Y18266003D01*
X-49547629Y18241006D01*
X-49648464Y18232955D01*
X-49984016Y18368527D01*
X-49000668Y18507928D02*
X-49146824Y17542371D01*
X-48724850Y18103746D01*
X-48811271Y17406799D01*
X-48245675Y18202891D01*
X-48079588Y17647879D02*
X-47785980Y17529254D01*
X-47846559Y17017030D02*
X-48266000Y17186495D01*
X-47910124Y18067320D01*
X-47490683Y17897855D01*
X-46563166Y18571556D02*
X-46630108Y18647393D01*
X-46755940Y18698233D01*
X-46898718Y18707128D01*
X-47016499Y18657133D01*
X-47092337Y18590192D01*
X-47202067Y18439362D01*
X-47252906Y18313530D01*
X-47278748Y18128808D01*
X-47270697Y18027972D01*
X-47220702Y17910191D01*
X-47111816Y17817408D01*
X-47027928Y17783515D01*
X-46885149Y17774619D01*
X-46826259Y17799617D01*
X-46707633Y18093225D01*
X-46875410Y18161011D01*
X-46482656Y17563211D02*
X-46126780Y18444035D01*
X-45979327Y17359853D01*
X-45623451Y18240677D01*
X-45559888Y17190388D02*
X-45204011Y18071213D01*
X-44994291Y17986480D01*
X-44885405Y17893697D01*
X-44835410Y17775916D01*
X-44827358Y17675081D01*
X-44853201Y17490358D01*
X-44904040Y17364526D01*
X-45013770Y17213697D01*
X-45089608Y17146755D01*
X-45207389Y17096760D01*
X-45350167Y17105655D01*
X-45559888Y17190388D01*
X-44509549Y18676858D02*
X-44571816Y17677408D01*
X-43922332Y18439607D01*
X-43984600Y17440157D02*
X-43628724Y18320982D01*
X-43419003Y18236249D01*
X-43310118Y18143466D01*
X-43260123Y18025685D01*
X-43252071Y17924850D01*
X-43277913Y17740127D01*
X-43328753Y17614295D01*
X-43438482Y17463466D01*
X-43514320Y17396524D01*
X-43632101Y17346529D01*
X-43774880Y17355425D01*
X-43984600Y17440157D01*
X-43103776Y17084281D02*
X-42747899Y17965106D01*
X-42538179Y17880373D01*
X-42429293Y17787590D01*
X-42379298Y17669809D01*
X-42371246Y17568974D01*
X-42397089Y17384251D01*
X-42447928Y17258419D01*
X-42557658Y17107590D01*
X-42633496Y17040648D01*
X-42751277Y16990653D01*
X-42894055Y16999548D01*
X-43103776Y17084281D01*
X-41643348Y17636416D02*
X-41767492Y18174482D01*
X-42146677Y17839774D02*
X-41790801Y18720599D01*
X-41455248Y18585027D01*
X-41388307Y18509190D01*
X-41363309Y18450299D01*
X-41355258Y18349465D01*
X-41406097Y18223632D01*
X-41481934Y18156691D01*
X-41540825Y18131694D01*
X-41641660Y18123643D01*
X-41977212Y18259215D01*
X-41290850Y17542789D02*
X-41181964Y17450005D01*
X-40972244Y17365273D01*
X-40871410Y17373324D01*
X-40812519Y17398321D01*
X-40736681Y17465262D01*
X-40702788Y17549151D01*
X-40710840Y17649986D01*
X-40735838Y17708876D01*
X-40802779Y17784713D01*
X-40953608Y17894443D01*
X-41020550Y17970280D01*
X-41045548Y18029170D01*
X-41053599Y18130006D01*
X-41019706Y18213893D01*
X-40943869Y18280835D01*
X-40884978Y18305832D01*
X-40784143Y18313883D01*
X-40574424Y18229151D01*
X-40465537Y18136367D01*
X-40196927Y18076632D02*
X-39693599Y17873275D01*
X-40301139Y17094129D02*
X-39945263Y17974953D01*
X-38970545Y18126426D02*
X-38861660Y18033643D01*
X-38836661Y17974752D01*
X-38828610Y17873918D01*
X-38879450Y17748085D01*
X-38955287Y17681143D01*
X-39014178Y17656146D01*
X-39115013Y17648095D01*
X-39450565Y17783667D01*
X-39094689Y18664492D01*
X-38801080Y18545866D01*
X-38734139Y18470030D01*
X-38709141Y18411139D01*
X-38701089Y18310304D01*
X-38734982Y18226417D01*
X-38810820Y18159475D01*
X-38869711Y18134477D01*
X-38970545Y18126426D01*
X-39264154Y18245052D01*
X-38108355Y17241379D02*
X-38611684Y17444737D01*
X-38360020Y17343058D02*
X-38004143Y18223883D01*
X-38138871Y18131944D01*
X-38256651Y18081949D01*
X-38357487Y18073898D01*
X-37269474Y16902449D02*
X-37772804Y17105808D01*
X-37521139Y17004129D02*
X-37165263Y17884953D01*
X-37299990Y17793014D01*
X-37417771Y17743019D01*
X-37518606Y17734969D01*
X-36420545Y18116426D02*
X-36311660Y18023643D01*
X-36286661Y17964752D01*
X-36278610Y17863918D01*
X-36329450Y17738085D01*
X-36405287Y17671143D01*
X-36464178Y17646146D01*
X-36565013Y17638095D01*
X-36900565Y17773667D01*
X-36544689Y18654492D01*
X-36251080Y18535866D01*
X-36184139Y18460030D01*
X-36159141Y18401139D01*
X-36151089Y18300304D01*
X-36184982Y18216417D01*
X-36260820Y18149475D01*
X-36319711Y18124477D01*
X-36420545Y18116426D01*
X-36714154Y18235052D01*
X-35558355Y17231379D02*
X-36061684Y17434737D01*
X-35810020Y17333058D02*
X-35454143Y18213883D01*
X-35588871Y18121944D01*
X-35706651Y18071949D01*
X-35807487Y18063898D01*
X-34657207Y17891900D02*
X-34573319Y17858007D01*
X-34506377Y17782170D01*
X-34481380Y17723280D01*
X-34473329Y17622445D01*
X-34499170Y17437722D01*
X-34583902Y17228002D01*
X-34693633Y17077172D01*
X-34769470Y17010231D01*
X-34828361Y16985233D01*
X-34929195Y16977182D01*
X-35013083Y17011075D01*
X-35080024Y17086912D01*
X-35105022Y17145802D01*
X-35113074Y17246637D01*
X-35087232Y17431360D01*
X-35002499Y17641080D01*
X-34892769Y17791910D01*
X-34816931Y17858851D01*
X-34758041Y17883849D01*
X-34657207Y17891900D01*
X-33661105Y18076961D02*
X-33552219Y17984178D01*
X-33527221Y17925287D01*
X-33519170Y17824453D01*
X-33570010Y17698620D01*
X-33645847Y17631679D01*
X-33704738Y17606681D01*
X-33805572Y17598630D01*
X-34141125Y17734202D01*
X-33785248Y18615027D01*
X-33491640Y18496401D01*
X-33424698Y18420565D01*
X-33399701Y18361674D01*
X-33391649Y18260840D01*
X-33425542Y18176952D01*
X-33501380Y18110010D01*
X-33560270Y18085012D01*
X-33661105Y18076961D01*
X-33954713Y18195587D01*
X-32798915Y17191914D02*
X-33302244Y17395273D01*
X-33050579Y17293593D02*
X-32694703Y18174418D01*
X-32829430Y18082479D01*
X-32947211Y18032484D01*
X-33048046Y18024434D01*
X-31281105Y17956961D02*
X-31172219Y17864178D01*
X-31147221Y17805287D01*
X-31139170Y17704453D01*
X-31190010Y17578620D01*
X-31265847Y17511679D01*
X-31324738Y17486681D01*
X-31425572Y17478630D01*
X-31761125Y17614202D01*
X-31405248Y18495027D01*
X-31111640Y18376401D01*
X-31044698Y18300565D01*
X-31019701Y18241674D01*
X-31011649Y18140840D01*
X-31045542Y18056952D01*
X-31121380Y17990010D01*
X-31180270Y17965012D01*
X-31281105Y17956961D01*
X-31574713Y18075587D01*
X-30356647Y18071365D02*
X-30272759Y18037472D01*
X-30205818Y17961635D01*
X-30180820Y17902744D01*
X-30172769Y17801910D01*
X-30198610Y17617187D01*
X-30283343Y17407467D01*
X-30393074Y17256637D01*
X-30468911Y17189696D01*
X-30527801Y17164698D01*
X-30628635Y17156647D01*
X-30712523Y17190540D01*
X-30779465Y17266377D01*
X-30804462Y17325267D01*
X-30812514Y17426102D01*
X-30786672Y17610825D01*
X-30701940Y17820545D01*
X-30592210Y17971375D01*
X-30516372Y18038316D01*
X-30457481Y18063314D01*
X-30356647Y18071365D01*
X-29008474Y17867394D02*
X-28589033Y17697929D01*
X-29194041Y17649622D02*
X-28544556Y18411821D01*
X-28606824Y17412371D01*
X-28041228Y18208463D02*
X-27454010Y17971212D01*
X-28187383Y17242906D01*
X-26448474Y17917394D02*
X-26029033Y17747929D01*
X-26634041Y17699622D02*
X-25984556Y18461821D01*
X-26046824Y17462371D01*
X-25019843Y18072052D02*
X-25187619Y18139838D01*
X-25288453Y18131787D01*
X-25347344Y18106789D01*
X-25482072Y18014851D01*
X-25591802Y17864020D01*
X-25727374Y17528468D01*
X-25719323Y17427634D01*
X-25694325Y17368743D01*
X-25627383Y17292906D01*
X-25459607Y17225120D01*
X-25358773Y17233171D01*
X-25299883Y17258169D01*
X-25224045Y17325110D01*
X-25139312Y17534830D01*
X-25147364Y17635665D01*
X-25172362Y17694556D01*
X-25239303Y17770392D01*
X-25407079Y17838178D01*
X-25507913Y17830127D01*
X-25566805Y17805130D01*
X-25642641Y17738189D01*
X-23858474Y17917394D02*
X-23439033Y17747929D01*
X-24044041Y17699622D02*
X-23394556Y18461821D01*
X-23456824Y17462371D01*
X-22387899Y18055106D02*
X-22807340Y18224570D01*
X-23018748Y17822077D01*
X-22959858Y17847074D01*
X-22859023Y17855125D01*
X-22649303Y17770392D01*
X-22582362Y17694556D01*
X-22557364Y17635665D01*
X-22549312Y17534830D01*
X-22634045Y17325110D01*
X-22709883Y17258169D01*
X-22768773Y17233171D01*
X-22869607Y17225120D01*
X-23079327Y17309853D01*
X-23146269Y17385690D01*
X-23171267Y17444580D01*
X-21268474Y17897394D02*
X-20849033Y17727929D01*
X-21454041Y17679622D02*
X-20804556Y18441821D01*
X-20866824Y17442371D01*
X-19958469Y17758443D02*
X-20195719Y17171227D01*
X-20032616Y18178728D02*
X-20496534Y17634301D01*
X-19951261Y17413996D01*
X-18788474Y17937394D02*
X-18369033Y17767929D01*
X-18974041Y17719622D02*
X-18324556Y18481821D01*
X-18386824Y17482371D01*
X-17821228Y18278463D02*
X-17275954Y18058159D01*
X-17705135Y17841232D01*
X-17579303Y17790392D01*
X-17512362Y17714556D01*
X-17487364Y17655665D01*
X-17479312Y17554830D01*
X-17564045Y17345110D01*
X-17639883Y17278169D01*
X-17698773Y17253171D01*
X-17799607Y17245120D01*
X-18051271Y17346799D01*
X-18118213Y17422636D01*
X-18143211Y17481527D01*
X-16168474Y17937394D02*
X-15749033Y17767929D01*
X-16354041Y17719622D02*
X-15704556Y18481821D01*
X-15766824Y17482371D01*
X-15193176Y18177629D02*
X-15134286Y18202627D01*
X-15033451Y18210677D01*
X-14823731Y18125945D01*
X-14756790Y18050108D01*
X-14731792Y17991218D01*
X-14723740Y17890383D01*
X-14757633Y17806495D01*
X-14850418Y17697609D01*
X-15557104Y17397639D01*
X-15011831Y17177334D01*
X-13648474Y17887394D02*
X-13229033Y17717929D01*
X-13834041Y17669622D02*
X-13184556Y18431821D01*
X-13246824Y17432371D01*
X-12491831Y17127334D02*
X-12995160Y17330692D01*
X-12743495Y17229013D02*
X-12387619Y18109838D01*
X-12522346Y18017899D01*
X-12640127Y17967904D01*
X-12740962Y17959853D01*
X-11228474Y17887394D02*
X-10809033Y17717929D01*
X-11414041Y17669622D02*
X-10764556Y18431821D01*
X-10826824Y17432371D01*
X-10009563Y18126784D02*
X-9925675Y18092891D01*
X-9858734Y18017055D01*
X-9833736Y17958164D01*
X-9825685Y17857330D01*
X-9851526Y17672606D01*
X-9936259Y17462887D01*
X-10045990Y17312057D01*
X-10121827Y17245115D01*
X-10180717Y17220118D01*
X-10281551Y17212067D01*
X-10365439Y17245960D01*
X-10432381Y17321796D01*
X-10457378Y17380687D01*
X-10465430Y17481522D01*
X-10439588Y17666245D01*
X-10354856Y17875964D01*
X-10245125Y18026795D01*
X-10169288Y18093736D01*
X-10110397Y18118733D01*
X-10009563Y18126784D01*
X-8763343Y17714197D02*
X-8822233Y17689199D01*
X-8965013Y17698095D01*
X-9048900Y17731988D01*
X-9157786Y17824771D01*
X-9207781Y17942552D01*
X-9215832Y18043388D01*
X-9189991Y18228110D01*
X-9139151Y18353942D01*
X-9029421Y18504772D01*
X-8953583Y18571713D01*
X-8835802Y18621708D01*
X-8693024Y18612813D01*
X-8609136Y18578920D01*
X-8500250Y18486136D01*
X-8475252Y18427246D01*
X-7958355Y17291379D02*
X-8461684Y17494737D01*
X-8210020Y17393058D02*
X-7854143Y18273883D01*
X-7988871Y18181944D01*
X-8106651Y18131949D01*
X-8207487Y18123898D01*
X-6805543Y17850221D02*
X-7224983Y18019686D01*
X-7436392Y17617192D01*
X-7377502Y17642189D01*
X-7276667Y17650240D01*
X-7066947Y17565508D01*
X-7000005Y17489671D01*
X-6975008Y17430781D01*
X-6966956Y17329946D01*
X-7051689Y17120225D01*
X-7127526Y17053284D01*
X-7186417Y17028287D01*
X-7287251Y17020236D01*
X-7496971Y17104968D01*
X-7563913Y17180805D01*
X-7588911Y17239696D01*
X-6083343Y17744197D02*
X-6142233Y17719199D01*
X-6285013Y17728095D01*
X-6368900Y17761988D01*
X-6477786Y17854771D01*
X-6527781Y17972552D01*
X-6535832Y18073388D01*
X-6509991Y18258110D01*
X-6459151Y18383942D01*
X-6349421Y18534772D01*
X-6273583Y18601713D01*
X-6155802Y18651708D01*
X-6013024Y18642813D01*
X-5929136Y18608920D01*
X-5820250Y18516136D01*
X-5795252Y18457246D01*
X-5278355Y17321379D02*
X-5781684Y17524737D01*
X-5530020Y17423058D02*
X-5174143Y18303883D01*
X-5308871Y18211944D01*
X-5426651Y18161949D01*
X-5527487Y18153898D01*
X-4286112Y17603559D02*
X-4523363Y17016343D01*
X-4360260Y18023844D02*
X-4824178Y17479416D01*
X-4278905Y17259112D01*
X-3503343Y17734197D02*
X-3562233Y17709199D01*
X-3705013Y17718095D01*
X-3788900Y17751988D01*
X-3897786Y17844771D01*
X-3947781Y17962552D01*
X-3955832Y18063388D01*
X-3929991Y18248110D01*
X-3879151Y18373942D01*
X-3769421Y18524772D01*
X-3693583Y18591713D01*
X-3575802Y18641708D01*
X-3433024Y18632813D01*
X-3349136Y18598920D01*
X-3240250Y18506136D01*
X-3215252Y18447246D01*
X-2698355Y17311379D02*
X-3201684Y17514737D01*
X-2950020Y17413058D02*
X-2594143Y18293883D01*
X-2728871Y18201944D01*
X-2846651Y18151949D01*
X-2947487Y18143898D01*
X-2048871Y18073579D02*
X-1503598Y17853274D01*
X-1932779Y17636347D01*
X-1806947Y17585508D01*
X-1740005Y17509671D01*
X-1715008Y17450781D01*
X-1706956Y17349946D01*
X-1791689Y17140225D01*
X-1867526Y17073284D01*
X-1926417Y17048287D01*
X-2027251Y17040236D01*
X-2278915Y17141914D01*
X-2345857Y17217752D01*
X-2370855Y17276642D01*
X-949136Y18478920D02*
X-1011404Y17479470D01*
X-361919Y18241669D01*
X55832Y17584978D02*
X164717Y17492194D01*
X189716Y17433304D01*
X197767Y17332469D01*
X146927Y17206637D01*
X71090Y17139695D01*
X12199Y17114698D01*
X-88635Y17106647D01*
X-424188Y17242219D01*
X-68312Y18123044D01*
X225297Y18004418D01*
X292238Y17928581D01*
X317236Y17869691D01*
X325288Y17768856D01*
X291395Y17684968D01*
X215557Y17618026D01*
X156666Y17593029D01*
X55832Y17584978D01*
X-237777Y17703603D01*
X-49540545Y-1573574D02*
X-49431660Y-1666357D01*
X-49406661Y-1725248D01*
X-49398610Y-1826082D01*
X-49449450Y-1951915D01*
X-49525287Y-2018857D01*
X-49584178Y-2043854D01*
X-49685013Y-2051905D01*
X-50020565Y-1916333D01*
X-49664689Y-1035508D01*
X-49371080Y-1154134D01*
X-49304139Y-1229970D01*
X-49279141Y-1288861D01*
X-49271089Y-1389696D01*
X-49304982Y-1473583D01*
X-49380820Y-1540525D01*
X-49439711Y-1565523D01*
X-49540545Y-1573574D01*
X-49834154Y-1454948D01*
X-48678355Y-2458621D02*
X-49181684Y-2255263D01*
X-48930020Y-2356942D02*
X-48574143Y-1476117D01*
X-48708871Y-1568056D01*
X-48826651Y-1618051D01*
X-48927487Y-1626102D01*
X-48020820Y-1797256D02*
X-47961930Y-1772258D01*
X-47861095Y-1764207D01*
X-47651375Y-1848940D01*
X-47584433Y-1924777D01*
X-47559436Y-1983667D01*
X-47551384Y-2084502D01*
X-47585277Y-2168390D01*
X-47678061Y-2277275D01*
X-48384748Y-2577246D01*
X-47839474Y-2797551D01*
X-46830545Y-1603574D02*
X-46721660Y-1696357D01*
X-46696661Y-1755248D01*
X-46688610Y-1856082D01*
X-46739450Y-1981915D01*
X-46815287Y-2048857D01*
X-46874178Y-2073854D01*
X-46975013Y-2081905D01*
X-47310565Y-1946333D01*
X-46954689Y-1065508D01*
X-46661080Y-1184134D01*
X-46594139Y-1259970D01*
X-46569141Y-1318861D01*
X-46561089Y-1419696D01*
X-46594982Y-1503583D01*
X-46670820Y-1570525D01*
X-46729711Y-1595523D01*
X-46830545Y-1603574D01*
X-47124154Y-1484948D01*
X-45968355Y-2488621D02*
X-46471684Y-2285263D01*
X-46220020Y-2386942D02*
X-45864143Y-1506117D01*
X-45998871Y-1598056D01*
X-46116651Y-1648051D01*
X-46217487Y-1656102D01*
X-45318871Y-1726421D02*
X-44773598Y-1946726D01*
X-45202779Y-2163653D01*
X-45076947Y-2214492D01*
X-45010005Y-2290329D01*
X-44985008Y-2349219D01*
X-44976956Y-2450054D01*
X-45061689Y-2659775D01*
X-45137526Y-2726716D01*
X-45196417Y-2751713D01*
X-45297251Y-2759764D01*
X-45548915Y-2658086D01*
X-45615857Y-2582248D01*
X-45640855Y-2523358D01*
X-44060545Y-1663574D02*
X-43951660Y-1756357D01*
X-43926661Y-1815248D01*
X-43918610Y-1916082D01*
X-43969450Y-2041915D01*
X-44045287Y-2108857D01*
X-44104178Y-2133854D01*
X-44205013Y-2141905D01*
X-44540565Y-2006333D01*
X-44184689Y-1125508D01*
X-43891080Y-1244134D01*
X-43824139Y-1319970D01*
X-43799141Y-1378861D01*
X-43791089Y-1479696D01*
X-43824982Y-1563583D01*
X-43900820Y-1630525D01*
X-43959711Y-1655523D01*
X-44060545Y-1663574D01*
X-44354154Y-1544948D01*
X-43198355Y-2548621D02*
X-43701684Y-2345263D01*
X-43450020Y-2446942D02*
X-43094143Y-1566117D01*
X-43228871Y-1658056D01*
X-43346651Y-1708051D01*
X-43447487Y-1716102D01*
X-42206112Y-2266441D02*
X-42443363Y-2853657D01*
X-42280260Y-1846156D02*
X-42744178Y-2390584D01*
X-42198905Y-2610888D01*
X-41510545Y-1703574D02*
X-41401660Y-1796357D01*
X-41376661Y-1855248D01*
X-41368610Y-1956082D01*
X-41419450Y-2081915D01*
X-41495287Y-2148857D01*
X-41554178Y-2173854D01*
X-41655013Y-2181905D01*
X-41990565Y-2046333D01*
X-41634689Y-1165508D01*
X-41341080Y-1284134D01*
X-41274139Y-1359970D01*
X-41249141Y-1418861D01*
X-41241089Y-1519696D01*
X-41274982Y-1603583D01*
X-41350820Y-1670525D01*
X-41409711Y-1695523D01*
X-41510545Y-1703574D01*
X-41804154Y-1584948D01*
X-40648355Y-2588621D02*
X-41151684Y-2385263D01*
X-40900020Y-2486942D02*
X-40544143Y-1606117D01*
X-40678871Y-1698056D01*
X-40796651Y-1748051D01*
X-40897487Y-1756102D01*
X-39495543Y-2029779D02*
X-39914983Y-1860314D01*
X-40126392Y-2262808D01*
X-40067502Y-2237811D01*
X-39966667Y-2229760D01*
X-39756947Y-2314492D01*
X-39690005Y-2390329D01*
X-39665008Y-2449219D01*
X-39656956Y-2550054D01*
X-39741689Y-2759775D01*
X-39817526Y-2826716D01*
X-39876417Y-2851713D01*
X-39977251Y-2859764D01*
X-40186971Y-2775032D01*
X-40253913Y-2699195D01*
X-40278911Y-2640304D01*
X-39048474Y-1922606D02*
X-38629033Y-2092071D01*
X-39234041Y-2140378D02*
X-38584556Y-1378179D01*
X-38646824Y-2377629D01*
X-38024025Y-2043766D02*
X-38090967Y-1967929D01*
X-38115965Y-1909038D01*
X-38124016Y-1808203D01*
X-38107069Y-1766259D01*
X-38031233Y-1699317D01*
X-37972341Y-1674320D01*
X-37871507Y-1666269D01*
X-37703731Y-1734055D01*
X-37636790Y-1809892D01*
X-37611792Y-1868782D01*
X-37603740Y-1969617D01*
X-37620687Y-2011561D01*
X-37696525Y-2078503D01*
X-37755415Y-2103500D01*
X-37856250Y-2111552D01*
X-38024025Y-2043766D01*
X-38124860Y-2051817D01*
X-38183751Y-2076814D01*
X-38259588Y-2143755D01*
X-38327374Y-2311532D01*
X-38319323Y-2412366D01*
X-38294325Y-2471257D01*
X-38227383Y-2547094D01*
X-38059607Y-2614880D01*
X-37958773Y-2606829D01*
X-37899883Y-2581831D01*
X-37824045Y-2514890D01*
X-37756259Y-2347113D01*
X-37764311Y-2246279D01*
X-37789308Y-2187388D01*
X-37856250Y-2111552D01*
X-36838474Y-2002606D02*
X-36419033Y-2172071D01*
X-37024041Y-2220378D02*
X-36374556Y-1458179D01*
X-36436824Y-2457629D01*
X-36101271Y-2593201D02*
X-35933495Y-2660987D01*
X-35832661Y-2652936D01*
X-35773771Y-2627938D01*
X-35639043Y-2535998D01*
X-35529312Y-2385170D01*
X-35393740Y-2049617D01*
X-35401792Y-1948782D01*
X-35426790Y-1889892D01*
X-35493731Y-1814055D01*
X-35661507Y-1746269D01*
X-35762341Y-1754320D01*
X-35821233Y-1779317D01*
X-35897069Y-1846259D01*
X-35981802Y-2055980D01*
X-35973751Y-2156814D01*
X-35948753Y-2215705D01*
X-35881811Y-2291541D01*
X-35714035Y-2359327D01*
X-35613201Y-2351276D01*
X-35554311Y-2326279D01*
X-35478473Y-2259338D01*
X-34707914Y-1793141D02*
X-34288474Y-1962606D01*
X-34893481Y-2010913D02*
X-34243996Y-1248714D01*
X-34306264Y-2248164D01*
X-33551271Y-2553201D02*
X-34054600Y-2349843D01*
X-33802936Y-2451522D02*
X-33447059Y-1570697D01*
X-33581787Y-1662636D01*
X-33699567Y-1712631D01*
X-33800403Y-1720682D01*
X-32650123Y-1892681D02*
X-32566235Y-1926574D01*
X-32499293Y-2002410D01*
X-32474296Y-2061301D01*
X-32466245Y-2162135D01*
X-32492086Y-2346859D01*
X-32576818Y-2556578D01*
X-32686549Y-2707408D01*
X-32762386Y-2774350D01*
X-32821277Y-2799347D01*
X-32922111Y-2807398D01*
X-33005999Y-2773505D01*
X-33072940Y-2697668D01*
X-33097938Y-2638778D01*
X-33105990Y-2537943D01*
X-33080147Y-2353220D01*
X-32995415Y-2143500D01*
X-32885685Y-1992670D01*
X-32809847Y-1925729D01*
X-32750957Y-1900732D01*
X-32650123Y-1892681D01*
X-32077914Y-1743141D02*
X-31658474Y-1912606D01*
X-32263481Y-1960913D02*
X-31613996Y-1198714D01*
X-31676264Y-2198164D01*
X-30921271Y-2503201D02*
X-31424600Y-2299843D01*
X-31172936Y-2401522D02*
X-30817059Y-1520697D01*
X-30951787Y-1612636D01*
X-31069567Y-1662631D01*
X-31170403Y-1670682D01*
X-30082390Y-2842131D02*
X-30585719Y-2638773D01*
X-30334055Y-2740452D02*
X-29978179Y-1859627D01*
X-30112906Y-1951566D01*
X-30230687Y-2001561D01*
X-30331522Y-2009612D01*
X-29507914Y-1723141D02*
X-29088474Y-1892606D01*
X-29693481Y-1940913D02*
X-29043996Y-1178714D01*
X-29106264Y-2178164D01*
X-28351271Y-2483201D02*
X-28854600Y-2279843D01*
X-28602936Y-2381522D02*
X-28247059Y-1500697D01*
X-28381787Y-1592636D01*
X-28499567Y-1642631D01*
X-28600403Y-1650682D01*
X-27693736Y-1821836D02*
X-27634846Y-1796838D01*
X-27534010Y-1788788D01*
X-27324291Y-1873520D01*
X-27257349Y-1949357D01*
X-27232352Y-2008247D01*
X-27224300Y-2109082D01*
X-27258193Y-2192970D01*
X-27350977Y-2301856D01*
X-28057663Y-2601826D01*
X-27512390Y-2822131D01*
X-26797914Y-1713141D02*
X-26378474Y-1882606D01*
X-26983481Y-1930913D02*
X-26333996Y-1168714D01*
X-26396264Y-2168164D01*
X-25641271Y-2473201D02*
X-26144600Y-2269843D01*
X-25892936Y-2371522D02*
X-25537059Y-1490697D01*
X-25671787Y-1582636D01*
X-25789567Y-1632631D01*
X-25890403Y-1640682D01*
X-24488459Y-1914359D02*
X-24907899Y-1744894D01*
X-25119308Y-2147388D01*
X-25060418Y-2122391D01*
X-24959582Y-2114340D01*
X-24749863Y-2199072D01*
X-24682921Y-2274909D01*
X-24657924Y-2333800D01*
X-24649872Y-2434634D01*
X-24734605Y-2644355D01*
X-24810442Y-2711296D01*
X-24869333Y-2736294D01*
X-24970167Y-2744345D01*
X-25179887Y-2659612D01*
X-25246829Y-2583775D01*
X-25271827Y-2524885D01*
X-23661105Y-1773039D02*
X-23552219Y-1865822D01*
X-23527221Y-1924713D01*
X-23519170Y-2025547D01*
X-23570010Y-2151380D01*
X-23645847Y-2218321D01*
X-23704738Y-2243319D01*
X-23805572Y-2251370D01*
X-24141125Y-2115798D01*
X-23785248Y-1234973D01*
X-23491640Y-1353599D01*
X-23424698Y-1429435D01*
X-23399701Y-1488326D01*
X-23391649Y-1589160D01*
X-23425542Y-1673048D01*
X-23501380Y-1739990D01*
X-23560270Y-1764988D01*
X-23661105Y-1773039D01*
X-23954713Y-1654413D01*
X-22988312Y-1556956D02*
X-22443038Y-1777261D01*
X-22872219Y-1994188D01*
X-22746387Y-2045027D01*
X-22679446Y-2120864D01*
X-22654448Y-2179754D01*
X-22646396Y-2280589D01*
X-22731129Y-2490310D01*
X-22806967Y-2557251D01*
X-22865857Y-2582248D01*
X-22966691Y-2590299D01*
X-23218355Y-2488621D01*
X-23285297Y-2412783D01*
X-23310295Y-2353893D01*
X-21121105Y-1793039D02*
X-21012219Y-1885822D01*
X-20987221Y-1944713D01*
X-20979170Y-2045547D01*
X-21030010Y-2171380D01*
X-21105847Y-2238321D01*
X-21164738Y-2263319D01*
X-21265572Y-2271370D01*
X-21601125Y-2135798D01*
X-21245248Y-1254973D01*
X-20951640Y-1373599D01*
X-20884698Y-1449435D01*
X-20859701Y-1508326D01*
X-20851649Y-1609160D01*
X-20885542Y-1693048D01*
X-20961380Y-1759990D01*
X-21020270Y-1784988D01*
X-21121105Y-1793039D01*
X-21414713Y-1674413D01*
X-20105553Y-2056976D02*
X-20342804Y-2644192D01*
X-20179701Y-1636691D02*
X-20643618Y-2181119D01*
X-20098345Y-2401424D01*
X-18641105Y-1843039D02*
X-18532219Y-1935822D01*
X-18507221Y-1994713D01*
X-18499170Y-2095547D01*
X-18550010Y-2221380D01*
X-18625847Y-2288321D01*
X-18684738Y-2313319D01*
X-18785572Y-2321370D01*
X-19121125Y-2185798D01*
X-18765248Y-1304973D01*
X-18471640Y-1423599D01*
X-18404698Y-1499435D01*
X-18379701Y-1558326D01*
X-18371649Y-1659160D01*
X-18405542Y-1743048D01*
X-18481380Y-1809990D01*
X-18540270Y-1834988D01*
X-18641105Y-1843039D01*
X-18934713Y-1724413D01*
X-17464983Y-1830314D02*
X-17884424Y-1660849D01*
X-18095833Y-2063343D01*
X-18036942Y-2038346D01*
X-17936107Y-2030295D01*
X-17726387Y-2115027D01*
X-17659446Y-2190864D01*
X-17634448Y-2249754D01*
X-17626396Y-2350589D01*
X-17711129Y-2560310D01*
X-17786967Y-2627251D01*
X-17845857Y-2652248D01*
X-17946691Y-2660299D01*
X-18156411Y-2575567D01*
X-18223354Y-2499730D01*
X-18248351Y-2440840D01*
X-15991105Y-1793039D02*
X-15882219Y-1885822D01*
X-15857221Y-1944713D01*
X-15849170Y-2045547D01*
X-15900010Y-2171380D01*
X-15975847Y-2238321D01*
X-16034738Y-2263319D01*
X-16135572Y-2271370D01*
X-16471125Y-2135798D01*
X-16115248Y-1254973D01*
X-15821640Y-1373599D01*
X-15754698Y-1449435D01*
X-15729701Y-1508326D01*
X-15721649Y-1609160D01*
X-15755542Y-1693048D01*
X-15831380Y-1759990D01*
X-15890270Y-1784988D01*
X-15991105Y-1793039D01*
X-16284713Y-1674413D01*
X-14856927Y-1763368D02*
X-15024703Y-1695582D01*
X-15125537Y-1703633D01*
X-15184428Y-1728630D01*
X-15319156Y-1820569D01*
X-15428886Y-1971399D01*
X-15564458Y-2306952D01*
X-15556407Y-2407786D01*
X-15531409Y-2466677D01*
X-15464467Y-2542514D01*
X-15296691Y-2610299D01*
X-15195857Y-2602248D01*
X-15136967Y-2577251D01*
X-15061129Y-2510310D01*
X-14976396Y-2300589D01*
X-14984448Y-2199754D01*
X-15009446Y-2140864D01*
X-15076387Y-2065027D01*
X-15244163Y-1997241D01*
X-15344997Y-2005292D01*
X-15403889Y-2030290D01*
X-15479725Y-2097231D01*
X-13541105Y-1813039D02*
X-13432219Y-1905822D01*
X-13407221Y-1964713D01*
X-13399170Y-2065547D01*
X-13450010Y-2191380D01*
X-13525847Y-2258321D01*
X-13584738Y-2283319D01*
X-13685572Y-2291370D01*
X-14021125Y-2155798D01*
X-13665248Y-1274973D01*
X-13371640Y-1393599D01*
X-13304698Y-1469435D01*
X-13279701Y-1528326D01*
X-13271649Y-1629160D01*
X-13305542Y-1713048D01*
X-13381380Y-1779990D01*
X-13440270Y-1804988D01*
X-13541105Y-1813039D01*
X-13834713Y-1694413D01*
X-12868312Y-1596956D02*
X-12281095Y-1834207D01*
X-13014467Y-2562514D01*
X-11041105Y-1823039D02*
X-10932219Y-1915822D01*
X-10907221Y-1974713D01*
X-10899170Y-2075547D01*
X-10950010Y-2201380D01*
X-11025847Y-2268321D01*
X-11084738Y-2293319D01*
X-11185572Y-2301370D01*
X-11521125Y-2165798D01*
X-11165248Y-1284973D01*
X-10871640Y-1403599D01*
X-10804698Y-1479435D01*
X-10779701Y-1538326D01*
X-10771649Y-1639160D01*
X-10805542Y-1723048D01*
X-10881380Y-1789990D01*
X-10940270Y-1814988D01*
X-11041105Y-1823039D01*
X-11334713Y-1704413D01*
X-10311109Y-2069185D02*
X-10378051Y-1993349D01*
X-10403049Y-1934458D01*
X-10411100Y-1833622D01*
X-10394153Y-1791679D01*
X-10318317Y-1724737D01*
X-10259425Y-1699740D01*
X-10158591Y-1691689D01*
X-9990815Y-1759475D01*
X-9923874Y-1835312D01*
X-9898876Y-1894202D01*
X-9890824Y-1995037D01*
X-9907771Y-2036981D01*
X-9983609Y-2103923D01*
X-10042499Y-2128920D01*
X-10143334Y-2136971D01*
X-10311109Y-2069185D01*
X-10411944Y-2077236D01*
X-10470835Y-2102234D01*
X-10546672Y-2169175D01*
X-10614458Y-2336952D01*
X-10606407Y-2437786D01*
X-10581409Y-2496677D01*
X-10514467Y-2572514D01*
X-10346691Y-2640299D01*
X-10245857Y-2632248D01*
X-10186967Y-2607251D01*
X-10111129Y-2540310D01*
X-10043343Y-2372533D01*
X-10051395Y-2271698D01*
X-10076392Y-2212808D01*
X-10143334Y-2136971D01*
X-8561105Y-1793039D02*
X-8452219Y-1885822D01*
X-8427221Y-1944713D01*
X-8419170Y-2045547D01*
X-8470010Y-2171380D01*
X-8545847Y-2238321D01*
X-8604738Y-2263319D01*
X-8705572Y-2271370D01*
X-9041125Y-2135798D01*
X-8685248Y-1254973D01*
X-8391640Y-1373599D01*
X-8324698Y-1449435D01*
X-8299701Y-1508326D01*
X-8291649Y-1609160D01*
X-8325542Y-1693048D01*
X-8401380Y-1759990D01*
X-8460270Y-1784988D01*
X-8561105Y-1793039D01*
X-8854713Y-1674413D01*
X-8118355Y-2508621D02*
X-7950579Y-2576407D01*
X-7849745Y-2568355D01*
X-7790855Y-2543358D01*
X-7656127Y-2451418D01*
X-7546396Y-2300589D01*
X-7410824Y-1965037D01*
X-7418876Y-1864202D01*
X-7443874Y-1805312D01*
X-7510815Y-1729475D01*
X-7678591Y-1661689D01*
X-7779425Y-1669740D01*
X-7838317Y-1694737D01*
X-7914153Y-1761679D01*
X-7998886Y-1971399D01*
X-7990835Y-2072234D01*
X-7965837Y-2131124D01*
X-7898895Y-2206961D01*
X-7731119Y-2274747D01*
X-7630285Y-2266696D01*
X-7571395Y-2241698D01*
X-7495557Y-2174757D01*
X-5662892Y-1529858D02*
X-6082332Y-1360393D01*
X-6293741Y-1762887D01*
X-6234851Y-1737889D01*
X-6134016Y-1729838D01*
X-5924296Y-1814571D01*
X-5857355Y-1890408D01*
X-5832357Y-1949298D01*
X-5824305Y-2050133D01*
X-5909038Y-2259853D01*
X-5984875Y-2326794D01*
X-6043766Y-2351792D01*
X-6144600Y-2359843D01*
X-6354320Y-2275111D01*
X-6421262Y-2199273D01*
X-6446260Y-2140383D01*
X-5369284Y-1648483D02*
X-5431551Y-2647933D01*
X-4782067Y-1885734D01*
X-1449549Y-1143142D02*
X-1511816Y-2142592D01*
X-862332Y-1380393D01*
X-924600Y-2379843D02*
X-568724Y-1499018D01*
X-359003Y-1583751D01*
X-250118Y-1676534D01*
X-200123Y-1794315D01*
X-192071Y-1895150D01*
X-217913Y-2079873D01*
X-268753Y-2205705D01*
X-378482Y-2356534D01*
X-454320Y-2423476D01*
X-572101Y-2473471D01*
X-714880Y-2464575D01*
X-924600Y-2379843D01*
X-43776Y-2735719D02*
X312101Y-1854894D01*
X521821Y-1939627D01*
X630707Y-2032410D01*
X680702Y-2150191D01*
X688754Y-2251026D01*
X662911Y-2435749D01*
X612072Y-2561581D01*
X502342Y-2712410D01*
X426504Y-2779352D01*
X308723Y-2829347D01*
X165945Y-2820452D01*
X-43776Y-2735719D01*
X-3563166Y-1348444D02*
X-3630108Y-1272607D01*
X-3755940Y-1221767D01*
X-3898718Y-1212872D01*
X-4016499Y-1262867D01*
X-4092337Y-1329808D01*
X-4202067Y-1480638D01*
X-4252906Y-1606470D01*
X-4278748Y-1791192D01*
X-4270697Y-1892028D01*
X-4220702Y-2009809D01*
X-4111816Y-2102592D01*
X-4027928Y-2136485D01*
X-3885149Y-2145381D01*
X-3826259Y-2120383D01*
X-3707633Y-1826775D01*
X-3875410Y-1758989D01*
X-3482656Y-2356789D02*
X-3126780Y-1475965D01*
X-2979327Y-2560147D01*
X-2623451Y-1679323D01*
X-2559888Y-2729612D02*
X-2204011Y-1848787D01*
X-1994291Y-1933520D01*
X-1885405Y-2026303D01*
X-1835410Y-2144084D01*
X-1827358Y-2244919D01*
X-1853201Y-2429642D01*
X-1904040Y-2555474D01*
X-2013770Y-2706303D01*
X-2089608Y-2773245D01*
X-2207389Y-2823240D01*
X-2350167Y-2814345D01*
X-2559888Y-2729612D01*
D13*
X-42882000Y7632000D02*
X-42882000Y2432000D01*
X-37742000Y7632000D02*
X-42882000Y7632000D01*
X-35142000Y2432000D02*
X-42882000Y2432000D01*
X-37742000Y7632000D02*
X-37742000Y5032000D01*
X-37742000Y5032000D02*
X-35142000Y5032000D01*
X-35142000Y5032000D02*
X-35142000Y2432000D01*
X-36472000Y7632000D02*
X-35142000Y7632000D01*
X-35142000Y7632000D02*
X-35142000Y6302000D01*
X-45480000Y11630000D02*
X-45480000Y11180000D01*
X-47330000Y11630000D02*
X-45480000Y11630000D01*
X-49880000Y3830000D02*
X-49630000Y3830000D01*
X-49880000Y11630000D02*
X-49630000Y11630000D01*
X-47330000Y3830000D02*
X-45480000Y3830000D01*
X-45480000Y3830000D02*
X-45480000Y4280000D01*
X-44930000Y9430000D02*
X-44930000Y8980000D01*
X-44930000Y9430000D02*
X-45380000Y9430000D01*
X-40660000Y8850000D02*
X-40210000Y8400000D01*
X-37260000Y8850000D02*
X-37710000Y8400000D01*
X-37260000Y13450000D02*
X-37710000Y13900000D01*
X-40660000Y13450000D02*
X-40210000Y13900000D01*
X-36210000Y12150000D02*
X-36210000Y10150000D01*
X-40210000Y8400000D02*
X-37710000Y8400000D01*
X-41710000Y12150000D02*
X-41710000Y10150000D01*
X-40210000Y13900000D02*
X-37710000Y13900000D01*
X-1370000Y14230000D02*
X-1370000Y1410000D01*
X-1370000Y1410000D02*
X1290000Y1410000D01*
X1290000Y1410000D02*
X1290000Y14230000D01*
X1290000Y14230000D02*
X-1370000Y14230000D01*
X1290000Y13280000D02*
X7290000Y13280000D01*
X7290000Y13280000D02*
X7290000Y12520000D01*
X7290000Y12520000D02*
X1290000Y12520000D01*
X1290000Y13220000D02*
X7290000Y13220000D01*
X1290000Y13100000D02*
X7290000Y13100000D01*
X1290000Y12980000D02*
X7290000Y12980000D01*
X1290000Y12860000D02*
X7290000Y12860000D01*
X1290000Y12740000D02*
X7290000Y12740000D01*
X1290000Y12620000D02*
X7290000Y12620000D01*
X-1700000Y13280000D02*
X-1370000Y13280000D01*
X-1700000Y12520000D02*
X-1370000Y12520000D01*
X-1370000Y11630000D02*
X1290000Y11630000D01*
X1290000Y10740000D02*
X7290000Y10740000D01*
X7290000Y10740000D02*
X7290000Y9980000D01*
X7290000Y9980000D02*
X1290000Y9980000D01*
X-1767071Y10740000D02*
X-1370000Y10740000D01*
X-1767071Y9980000D02*
X-1370000Y9980000D01*
X-1370000Y9090000D02*
X1290000Y9090000D01*
X1290000Y8200000D02*
X7290000Y8200000D01*
X7290000Y8200000D02*
X7290000Y7440000D01*
X7290000Y7440000D02*
X1290000Y7440000D01*
X-1767071Y8200000D02*
X-1370000Y8200000D01*
X-1767071Y7440000D02*
X-1370000Y7440000D01*
X-1370000Y6550000D02*
X1290000Y6550000D01*
X1290000Y5660000D02*
X7290000Y5660000D01*
X7290000Y5660000D02*
X7290000Y4900000D01*
X7290000Y4900000D02*
X1290000Y4900000D01*
X-1767071Y5660000D02*
X-1370000Y5660000D01*
X-1767071Y4900000D02*
X-1370000Y4900000D01*
X-1370000Y4010000D02*
X1290000Y4010000D01*
X1290000Y3120000D02*
X7290000Y3120000D01*
X7290000Y3120000D02*
X7290000Y2360000D01*
X7290000Y2360000D02*
X1290000Y2360000D01*
X-1767071Y3120000D02*
X-1370000Y3120000D01*
X-1767071Y2360000D02*
X-1370000Y2360000D01*
X-4080000Y12900000D02*
X-4080000Y14170000D01*
X-4080000Y14170000D02*
X-2810000Y14170000D01*
X-7690000Y9160000D02*
X-6290000Y9160000D01*
X-6290000Y9160000D02*
X-6290000Y11960000D01*
X-7690000Y9160000D02*
X-7690000Y11960000D01*
X-7690000Y3320000D02*
X-6290000Y3320000D01*
X-6290000Y3320000D02*
X-6290000Y6120000D01*
X-7690000Y3320000D02*
X-7690000Y6120000D01*
X-20965000Y4400000D02*
X-20965000Y10800000D01*
X-15915000Y4400000D02*
X-15915000Y10800000D01*
X-15915000Y4400000D02*
G75*
G02X-20965000Y4400000I-2525000J0D01*
G01*
X-15915000Y10800000D02*
G75*
G03X-20965000Y10800000I-2525000J0D01*
G01*
X-10360000Y3740000D02*
X-10360000Y3140000D01*
X-10360000Y3140000D02*
X-13960000Y3140000D01*
X-13960000Y3140000D02*
X-13960000Y3740000D01*
X-10360000Y9240000D02*
X-10360000Y5440000D01*
X-11660000Y11540000D02*
X-10360000Y11540000D01*
X-13960000Y11540000D02*
X-12660000Y11540000D01*
X-10360000Y11540000D02*
X-10360000Y10940000D01*
X-13960000Y11540000D02*
X-13960000Y10940000D01*
X-13960000Y5440000D02*
X-13960000Y9240000D01*
X-12660000Y11540000D02*
G75*
G03X-11660000Y11540000I500000J0D01*
G01*
D11*
X-22526459Y7914707D02*
X-22738591Y8126839D01*
X-22526459Y7914707D02*
X-22738591Y7702575D01*
X-27476206Y12864454D02*
X-27249932Y12638180D01*
X-27476206Y12864454D02*
X-27688338Y12652322D01*
X-32425953Y7914707D02*
X-32213821Y8126839D01*
X-32425953Y7914707D02*
X-32213821Y7702575D01*
X-27476206Y2964960D02*
X-27264074Y3177092D01*
X-27476206Y2964960D02*
X-27688338Y3177092D01*
D14*
X-22262739Y8445037D02*
G75*
G03X-22262739Y8445037I-72801J0D01*
G01*
D15*
X-40223333Y10685238D02*
X-40080476Y10637619D01*
X-39842380Y10637619D01*
X-39747142Y10685238D01*
X-39699523Y10732857D01*
X-39651904Y10828095D01*
X-39651904Y10923333D01*
X-39699523Y11018571D01*
X-39747142Y11066190D01*
X-39842380Y11113810D01*
X-40032857Y11161429D01*
X-40128095Y11209048D01*
X-40175714Y11256667D01*
X-40223333Y11351905D01*
X-40223333Y11447143D01*
X-40175714Y11542381D01*
X-40128095Y11590000D01*
X-40032857Y11637619D01*
X-39794761Y11637619D01*
X-39651904Y11590000D01*
X-39318571Y11637619D02*
X-39080476Y10637619D01*
X-38889999Y11351905D01*
X-38699523Y10637619D01*
X-38461428Y11637619D01*
X-37556666Y10637619D02*
X-38128095Y10637619D01*
X-37842381Y10637619D02*
X-37842381Y11637619D01*
X-37937619Y11494762D01*
X-38032857Y11399524D01*
X-38128095Y11351905D01*
X-8037619Y9626667D02*
X-9037619Y9626667D01*
X-9037619Y10007620D01*
X-8990000Y10102858D01*
X-8942381Y10150477D01*
X-8847143Y10198096D01*
X-8704286Y10198096D01*
X-8609048Y10150477D01*
X-8561429Y10102858D01*
X-8513810Y10007620D01*
X-8513810Y9626667D01*
X-9037619Y10531429D02*
X-8037619Y10769524D01*
X-8751905Y10960001D01*
X-8037619Y11150477D01*
X-9037619Y11388572D01*
X-8037619Y12340953D02*
X-8513810Y12007619D01*
X-8037619Y11769524D02*
X-9037619Y11769524D01*
X-9037619Y12150477D01*
X-8990000Y12245715D01*
X-8942381Y12293334D01*
X-8847143Y12340953D01*
X-8704286Y12340953D01*
X-8609048Y12293334D01*
X-8561429Y12245715D01*
X-8513810Y12150477D01*
X-8513810Y11769524D01*
X-8037619Y4477143D02*
X-8037619Y4000952D01*
X-9037619Y4000952D01*
X-8561429Y4810476D02*
X-8561429Y5143810D01*
X-8037619Y5286667D02*
X-8037619Y4810476D01*
X-9037619Y4810476D01*
X-9037619Y5286667D01*
X-8037619Y5715238D02*
X-9037619Y5715238D01*
X-9037619Y5953333D01*
X-8990000Y6096191D01*
X-8894762Y6191429D01*
X-8799524Y6239048D01*
X-8609048Y6286667D01*
X-8466190Y6286667D01*
X-8275714Y6239048D01*
X-8180476Y6191429D01*
X-8085238Y6096191D01*
X-8037619Y5953333D01*
X-8037619Y5715238D01*
M02*
