%TF.GenerationSoftware,KiCad,Pcbnew,4.0.7*%
%TF.CreationDate,2017-11-14T20:11:37+08:00*%
%TF.ProjectId,STM32F401CCT6,53544D333246343031434354362E6B69,rev?*%
%TF.FileFunction,Soldermask,Top*%
%FSLAX46Y46*%
G04 Gerber Fmt 4.6, Leading zero omitted, Abs format (unit mm)*
G04 Created by KiCad (PCBNEW 4.0.7) date 11/14/17 20:11:37*
%MOMM*%
%LPD*%
G01*
G04 APERTURE LIST*
%ADD10C,0.100000*%
%ADD11R,2.100000X2.100000*%
%ADD12O,2.100000X2.100000*%
%ADD13R,2.300000X1.900000*%
%ADD14C,1.850000*%
%ADD15R,1.750000X0.800000*%
%ADD16O,2.300000X1.600000*%
%ADD17R,2.300000X1.600000*%
%ADD18R,2.100000X1.400000*%
%ADD19R,1.600000X1.600000*%
%ADD20C,1.900000*%
%ADD21R,2.300000X1.700000*%
G04 APERTURE END LIST*
D10*
D11*
X-36472000Y6302000D03*
D12*
X-36472000Y3762000D03*
X-39012000Y6302000D03*
X-39012000Y3762000D03*
X-41552000Y6302000D03*
X-41552000Y3762000D03*
D11*
X-430000Y15700000D03*
D12*
X-2970000Y15700000D03*
X-5510000Y15700000D03*
X-8050000Y15700000D03*
X-10590000Y15700000D03*
X-13130000Y15700000D03*
X-15670000Y15700000D03*
X-18210000Y15700000D03*
X-20750000Y15700000D03*
X-23290000Y15700000D03*
X-25830000Y15700000D03*
X-28370000Y15700000D03*
X-30910000Y15700000D03*
X-33450000Y15700000D03*
X-35990000Y15700000D03*
X-38530000Y15700000D03*
X-41070000Y15700000D03*
X-43610000Y15700000D03*
X-46150000Y15700000D03*
X-48690000Y15700000D03*
D11*
X-430000Y200000D03*
D12*
X-2970000Y200000D03*
X-5510000Y200000D03*
X-8050000Y200000D03*
X-10590000Y200000D03*
X-13130000Y200000D03*
X-15670000Y200000D03*
X-18210000Y200000D03*
X-20750000Y200000D03*
X-23290000Y200000D03*
X-25830000Y200000D03*
X-28370000Y200000D03*
X-30910000Y200000D03*
X-33450000Y200000D03*
X-35990000Y200000D03*
X-38530000Y200000D03*
X-41070000Y200000D03*
X-43610000Y200000D03*
X-46150000Y200000D03*
X-48690000Y200000D03*
D13*
X-48480000Y6730000D03*
D14*
X-45780000Y10230000D03*
D15*
X-45780000Y8380000D03*
X-45780000Y9030000D03*
X-45780000Y6430000D03*
X-45780000Y7080000D03*
X-45780000Y7730000D03*
D14*
X-45780000Y5230000D03*
D13*
X-48480000Y8730000D03*
D16*
X-48480000Y11230000D03*
X-48480000Y4230000D03*
D17*
X-48480000Y4830000D03*
X-48480000Y10630000D03*
D18*
X-42110000Y13050000D03*
X-35810000Y13050000D03*
X-42110000Y9250000D03*
X-35810000Y9250000D03*
D11*
X-2810000Y12900000D03*
D12*
X-2810000Y10360000D03*
X-2810000Y7820000D03*
X-2810000Y5280000D03*
X-2810000Y2740000D03*
D19*
X-6990000Y12060000D03*
X-6990000Y9860000D03*
X-6990000Y6220000D03*
X-6990000Y4020000D03*
D20*
X-18440000Y5160000D03*
X-18440000Y10040000D03*
D21*
X-13760000Y10090000D03*
X-13760000Y4590000D03*
X-10560000Y4590000D03*
X-10560000Y10090000D03*
D10*
G36*
X-23233565Y8056128D02*
X-21713286Y6535849D01*
X-22208261Y6040874D01*
X-23728540Y7561153D01*
X-23233565Y8056128D01*
X-23233565Y8056128D01*
G37*
G36*
X-23587118Y7702575D02*
X-22066839Y6182296D01*
X-22561814Y5687321D01*
X-24082093Y7207600D01*
X-23587118Y7702575D01*
X-23587118Y7702575D01*
G37*
G36*
X-23940672Y7349021D02*
X-22420393Y5828742D01*
X-22915368Y5333767D01*
X-24435647Y6854046D01*
X-23940672Y7349021D01*
X-23940672Y7349021D01*
G37*
G36*
X-24294225Y6995468D02*
X-22773946Y5475189D01*
X-23268921Y4980214D01*
X-24789200Y6500493D01*
X-24294225Y6995468D01*
X-24294225Y6995468D01*
G37*
G36*
X-24647778Y6641915D02*
X-23127499Y5121636D01*
X-23622474Y4626661D01*
X-25142753Y6146940D01*
X-24647778Y6641915D01*
X-24647778Y6641915D01*
G37*
G36*
X-23976028Y4273107D02*
X-25496307Y5793386D01*
X-25001332Y6288361D01*
X-23481053Y4768082D01*
X-23976028Y4273107D01*
X-23976028Y4273107D01*
G37*
G36*
X-25354885Y5934808D02*
X-23834606Y4414529D01*
X-24329581Y3919554D01*
X-25849860Y5439833D01*
X-25354885Y5934808D01*
X-25354885Y5934808D01*
G37*
G36*
X-25708439Y5581254D02*
X-24188160Y4060975D01*
X-24683135Y3566000D01*
X-26203414Y5086279D01*
X-25708439Y5581254D01*
X-25708439Y5581254D01*
G37*
G36*
X-26061992Y5227701D02*
X-24541713Y3707422D01*
X-25036688Y3212447D01*
X-26556967Y4732726D01*
X-26061992Y5227701D01*
X-26061992Y5227701D01*
G37*
G36*
X-26415545Y4874148D02*
X-24895266Y3353869D01*
X-25390241Y2858894D01*
X-26910520Y4379173D01*
X-26415545Y4874148D01*
X-26415545Y4874148D01*
G37*
G36*
X-26769099Y4520594D02*
X-25248820Y3000315D01*
X-25743795Y2505340D01*
X-27264074Y4025619D01*
X-26769099Y4520594D01*
X-26769099Y4520594D01*
G37*
G36*
X-27122652Y4167041D02*
X-25602373Y2646762D01*
X-26097348Y2151787D01*
X-27617627Y3672066D01*
X-27122652Y4167041D01*
X-27122652Y4167041D01*
G37*
G36*
X-25849860Y10389581D02*
X-24329581Y11909860D01*
X-23834606Y11414885D01*
X-25354885Y9894606D01*
X-25849860Y10389581D01*
X-25849860Y10389581D01*
G37*
G36*
X-25496307Y10036028D02*
X-23976028Y11556307D01*
X-23481053Y11061332D01*
X-25001332Y9541053D01*
X-25496307Y10036028D01*
X-25496307Y10036028D01*
G37*
G36*
X-25142753Y9682474D02*
X-23622474Y11202753D01*
X-23127499Y10707778D01*
X-24647778Y9187499D01*
X-25142753Y9682474D01*
X-25142753Y9682474D01*
G37*
G36*
X-24789200Y9328921D02*
X-23268921Y10849200D01*
X-22773946Y10354225D01*
X-24294225Y8833946D01*
X-24789200Y9328921D01*
X-24789200Y9328921D01*
G37*
G36*
X-24435647Y8975368D02*
X-22915368Y10495647D01*
X-22420393Y10000672D01*
X-23940672Y8480393D01*
X-24435647Y8975368D01*
X-24435647Y8975368D01*
G37*
G36*
X-24082093Y8621814D02*
X-22561814Y10142093D01*
X-22066839Y9647118D01*
X-23587118Y8126839D01*
X-24082093Y8621814D01*
X-24082093Y8621814D01*
G37*
G36*
X-26203414Y10743135D02*
X-24683135Y12263414D01*
X-24188160Y11768439D01*
X-25708439Y10248160D01*
X-26203414Y10743135D01*
X-26203414Y10743135D01*
G37*
G36*
X-23728540Y8268261D02*
X-22208261Y9788540D01*
X-21713286Y9293565D01*
X-23233565Y7773286D01*
X-23728540Y8268261D01*
X-23728540Y8268261D01*
G37*
G36*
X-26556967Y11096688D02*
X-25036688Y12616967D01*
X-24541713Y12121992D01*
X-26061992Y10601713D01*
X-26556967Y11096688D01*
X-26556967Y11096688D01*
G37*
G36*
X-26910520Y11450241D02*
X-25390241Y12970520D01*
X-24895266Y12475545D01*
X-26415545Y10955266D01*
X-26910520Y11450241D01*
X-26910520Y11450241D01*
G37*
G36*
X-27264074Y11803795D02*
X-25743795Y13324074D01*
X-25248820Y12829099D01*
X-26769099Y11308820D01*
X-27264074Y11803795D01*
X-27264074Y11803795D01*
G37*
G36*
X-27617627Y12157348D02*
X-26097348Y13677627D01*
X-25602373Y13182652D01*
X-27122652Y11662373D01*
X-27617627Y12157348D01*
X-27617627Y12157348D01*
G37*
G36*
X-30976384Y11556307D02*
X-29456105Y10036028D01*
X-29951080Y9541053D01*
X-31471359Y11061332D01*
X-30976384Y11556307D01*
X-30976384Y11556307D01*
G37*
G36*
X-30622831Y11909860D02*
X-29102552Y10389581D01*
X-29597527Y9894606D01*
X-31117806Y11414885D01*
X-30622831Y11909860D01*
X-30622831Y11909860D01*
G37*
G36*
X-30269277Y12263414D02*
X-28748998Y10743135D01*
X-29243973Y10248160D01*
X-30764252Y11768439D01*
X-30269277Y12263414D01*
X-30269277Y12263414D01*
G37*
G36*
X-29915724Y12616967D02*
X-28395445Y11096688D01*
X-28890420Y10601713D01*
X-30410699Y12121992D01*
X-29915724Y12616967D01*
X-29915724Y12616967D01*
G37*
G36*
X-29562171Y12970520D02*
X-28041892Y11450241D01*
X-28536867Y10955266D01*
X-30057146Y12475545D01*
X-29562171Y12970520D01*
X-29562171Y12970520D01*
G37*
G36*
X-29208617Y13324074D02*
X-27688338Y11803795D01*
X-28183313Y11308820D01*
X-29703592Y12829099D01*
X-29208617Y13324074D01*
X-29208617Y13324074D01*
G37*
G36*
X-28855064Y13677627D02*
X-27334785Y12157348D01*
X-27829760Y11662373D01*
X-29350039Y13182652D01*
X-28855064Y13677627D01*
X-28855064Y13677627D01*
G37*
G36*
X-31329938Y11202753D02*
X-29809659Y9682474D01*
X-30304634Y9187499D01*
X-31824913Y10707778D01*
X-31329938Y11202753D01*
X-31329938Y11202753D01*
G37*
G36*
X-31683491Y10849200D02*
X-30163212Y9328921D01*
X-30658187Y8833946D01*
X-32178466Y10354225D01*
X-31683491Y10849200D01*
X-31683491Y10849200D01*
G37*
G36*
X-32037044Y10495647D02*
X-30516765Y8975368D01*
X-31011740Y8480393D01*
X-32532019Y10000672D01*
X-32037044Y10495647D01*
X-32037044Y10495647D01*
G37*
G36*
X-32390598Y10142093D02*
X-30870319Y8621814D01*
X-31365294Y8126839D01*
X-32885573Y9647118D01*
X-32390598Y10142093D01*
X-32390598Y10142093D01*
G37*
G36*
X-32744151Y9788540D02*
X-31223872Y8268261D01*
X-31718847Y7773286D01*
X-33239126Y9293565D01*
X-32744151Y9788540D01*
X-32744151Y9788540D01*
G37*
G36*
X-31117806Y4414529D02*
X-29597527Y5934808D01*
X-29102552Y5439833D01*
X-30622831Y3919554D01*
X-31117806Y4414529D01*
X-31117806Y4414529D01*
G37*
G36*
X-31471359Y4768082D02*
X-29951080Y6288361D01*
X-29456105Y5793386D01*
X-30976384Y4273107D01*
X-31471359Y4768082D01*
X-31471359Y4768082D01*
G37*
G36*
X-30764252Y4060975D02*
X-29243973Y5581254D01*
X-28748998Y5086279D01*
X-30269277Y3566000D01*
X-30764252Y4060975D01*
X-30764252Y4060975D01*
G37*
G36*
X-30410699Y3707422D02*
X-28890420Y5227701D01*
X-28395445Y4732726D01*
X-29915724Y3212447D01*
X-30410699Y3707422D01*
X-30410699Y3707422D01*
G37*
G36*
X-30057146Y3353869D02*
X-28536867Y4874148D01*
X-28041892Y4379173D01*
X-29562171Y2858894D01*
X-30057146Y3353869D01*
X-30057146Y3353869D01*
G37*
G36*
X-29703592Y3000315D02*
X-28183313Y4520594D01*
X-27688338Y4025619D01*
X-29208617Y2505340D01*
X-29703592Y3000315D01*
X-29703592Y3000315D01*
G37*
G36*
X-29350039Y2646762D02*
X-27829760Y4167041D01*
X-27334785Y3672066D01*
X-28855064Y2151787D01*
X-29350039Y2646762D01*
X-29350039Y2646762D01*
G37*
G36*
X-31824913Y5121636D02*
X-30304634Y6641915D01*
X-29809659Y6146940D01*
X-31329938Y4626661D01*
X-31824913Y5121636D01*
X-31824913Y5121636D01*
G37*
G36*
X-32178466Y5475189D02*
X-30658187Y6995468D01*
X-30163212Y6500493D01*
X-31683491Y4980214D01*
X-32178466Y5475189D01*
X-32178466Y5475189D01*
G37*
G36*
X-32532019Y5828742D02*
X-31011740Y7349021D01*
X-30516765Y6854046D01*
X-32037044Y5333767D01*
X-32532019Y5828742D01*
X-32532019Y5828742D01*
G37*
G36*
X-32885573Y6182296D02*
X-31365294Y7702575D01*
X-30870319Y7207600D01*
X-32390598Y5687321D01*
X-32885573Y6182296D01*
X-32885573Y6182296D01*
G37*
G36*
X-33239126Y6535849D02*
X-31718847Y8056128D01*
X-31223872Y7561153D01*
X-32744151Y6040874D01*
X-33239126Y6535849D01*
X-33239126Y6535849D01*
G37*
G36*
X-25284175Y9790237D02*
X-23408645Y7914707D01*
X-25284175Y6039177D01*
X-27159705Y7914707D01*
X-25284175Y9790237D01*
X-25284175Y9790237D01*
G37*
G36*
X-29668237Y9790237D02*
X-27792707Y7914707D01*
X-29668237Y6039177D01*
X-31543767Y7914707D01*
X-29668237Y9790237D01*
X-29668237Y9790237D01*
G37*
G36*
X-27476206Y7598206D02*
X-25600676Y5722676D01*
X-27476206Y3847146D01*
X-29351736Y5722676D01*
X-27476206Y7598206D01*
X-27476206Y7598206D01*
G37*
G36*
X-27476206Y11982268D02*
X-25600676Y10106738D01*
X-27476206Y8231208D01*
X-29351736Y10106738D01*
X-27476206Y11982268D01*
X-27476206Y11982268D01*
G37*
M02*
