%TF.GenerationSoftware,KiCad,Pcbnew,4.0.7*%
%TF.CreationDate,2017-11-14T20:11:37+08:00*%
%TF.ProjectId,STM32F401CCT6,53544D333246343031434354362E6B69,rev?*%
%TF.FileFunction,Legend,Bot*%
%FSLAX46Y46*%
G04 Gerber Fmt 4.6, Leading zero omitted, Abs format (unit mm)*
G04 Created by KiCad (PCBNEW 4.0.7) date 11/14/17 20:11:37*
%MOMM*%
%LPD*%
G01*
G04 APERTURE LIST*
%ADD10C,0.100000*%
%ADD11C,0.200000*%
%ADD12C,0.120000*%
G04 APERTURE END LIST*
D10*
D11*
X-12280000Y6510000D02*
X-11720000Y7140000D01*
X-12610000Y6700000D02*
X-12400000Y7600000D01*
X-12990000Y6750000D02*
X-13070000Y7650000D01*
X-12420000Y4960000D02*
X-11850000Y4200000D01*
X-12790000Y4770000D02*
X-12640000Y3940000D01*
X-13170000Y4810000D02*
X-13280000Y3970000D01*
X-12860000Y5530000D02*
X-12360000Y5940000D01*
X-12800000Y6020000D02*
X-12410000Y5500000D01*
X-14530000Y4580000D02*
X-13890000Y4760000D01*
X-14220000Y5180000D02*
X-14530000Y4600000D01*
X-13291833Y6180000D02*
G75*
G03X-13291833Y6180000I-108167J0D01*
G01*
X-13336863Y5390000D02*
G75*
G03X-13336863Y5390000I-113137J0D01*
G01*
X-14170000Y6530000D02*
X-14310000Y7170000D01*
X-13700000Y6870000D02*
X-14290000Y7150000D01*
X-11785294Y5785294D02*
G75*
G03X-11785294Y5785294I-1234706J0D01*
G01*
D12*
X-10620000Y9710000D02*
X-10620000Y10410000D01*
X-11820000Y10410000D02*
X-11820000Y9710000D01*
X-50020000Y14370000D02*
X-50020000Y17030000D01*
X-1700000Y14370000D02*
X-50020000Y14370000D01*
X-1700000Y17030000D02*
X-50020000Y17030000D01*
X-1700000Y14370000D02*
X-1700000Y17030000D01*
X-430000Y14370000D02*
X900000Y14370000D01*
X900000Y14370000D02*
X900000Y15700000D01*
X-50020000Y-1130000D02*
X-50020000Y1530000D01*
X-1700000Y-1130000D02*
X-50020000Y-1130000D01*
X-1700000Y1530000D02*
X-50020000Y1530000D01*
X-1700000Y-1130000D02*
X-1700000Y1530000D01*
X-430000Y-1130000D02*
X900000Y-1130000D01*
X900000Y-1130000D02*
X900000Y200000D01*
X-47730000Y7290000D02*
X-47730000Y8290000D01*
X-49090000Y8290000D02*
X-49090000Y7290000D01*
X-42380000Y10460000D02*
X-41380000Y10460000D01*
X-41380000Y11820000D02*
X-42380000Y11820000D01*
X-42380000Y8550000D02*
X-41380000Y8550000D01*
X-41380000Y9910000D02*
X-42380000Y9910000D01*
X-36900000Y8360000D02*
X-38700000Y8360000D01*
X-38700000Y11580000D02*
X-36250000Y11580000D01*
X-38420000Y12190000D02*
X-37420000Y12190000D01*
X-37420000Y13550000D02*
X-38420000Y13550000D01*
X-31130000Y9610000D02*
X-31130000Y10610000D01*
X-32490000Y10610000D02*
X-32490000Y9610000D01*
X-25780000Y9750000D02*
X-25780000Y10450000D01*
X-26980000Y10450000D02*
X-26980000Y9750000D01*
X-27660000Y9720000D02*
X-27660000Y10420000D01*
X-28860000Y10420000D02*
X-28860000Y9720000D01*
X-24090000Y9740000D02*
X-24090000Y10440000D01*
X-25290000Y10440000D02*
X-25290000Y9740000D01*
X-29390000Y9740000D02*
X-29390000Y10440000D01*
X-30590000Y10440000D02*
X-30590000Y9740000D01*
X-22210000Y9730000D02*
X-22210000Y10430000D01*
X-23410000Y10430000D02*
X-23410000Y9730000D01*
X-21180000Y10540000D02*
X-21180000Y9540000D01*
X-19820000Y9540000D02*
X-19820000Y10540000D01*
X-17310000Y10430000D02*
X-17310000Y9730000D01*
X-16110000Y9730000D02*
X-16110000Y10430000D01*
X-15580000Y10430000D02*
X-15580000Y9730000D01*
X-14380000Y9730000D02*
X-14380000Y10430000D01*
X-12480000Y9710000D02*
X-12480000Y10410000D01*
X-13680000Y10410000D02*
X-13680000Y9710000D01*
X-8660000Y9530000D02*
X-8660000Y10530000D01*
X-10020000Y10530000D02*
X-10020000Y9530000D01*
X-6410000Y4450000D02*
X-6410000Y5150000D01*
X-7610000Y5150000D02*
X-7610000Y4450000D01*
X-9710000Y4320000D02*
X-9710000Y5320000D01*
X-11070000Y5320000D02*
X-11070000Y4320000D01*
X-19890000Y4380000D02*
X-19890000Y5380000D01*
X-21250000Y5380000D02*
X-21250000Y4380000D01*
X-23160000Y5250000D02*
X-23160000Y4550000D01*
X-21960000Y4550000D02*
X-21960000Y5250000D01*
X-24900000Y5260000D02*
X-24900000Y4560000D01*
X-23700000Y4560000D02*
X-23700000Y5260000D01*
X-28380000Y6560000D02*
X-26580000Y6560000D01*
X-26580000Y3340000D02*
X-29030000Y3340000D01*
X-30950000Y5230000D02*
X-30950000Y4530000D01*
X-29750000Y4530000D02*
X-29750000Y5230000D01*
X-31390000Y4540000D02*
X-31390000Y5240000D01*
X-32590000Y5240000D02*
X-32590000Y4540000D01*
X-32990000Y4380000D02*
X-32990000Y5380000D01*
X-34350000Y5380000D02*
X-34350000Y4380000D01*
X-34220000Y12250000D02*
X-33520000Y12250000D01*
X-33520000Y13450000D02*
X-34220000Y13450000D01*
X-44500000Y13510000D02*
X-45200000Y13510000D01*
X-45200000Y12310000D02*
X-44500000Y12310000D01*
X-4310000Y4420000D02*
X-4310000Y5120000D01*
X-5510000Y5120000D02*
X-5510000Y4420000D01*
X-16640000Y5190000D02*
X-16640000Y4490000D01*
X-15440000Y4490000D02*
X-15440000Y5190000D01*
X-18780000Y6520000D02*
X-18080000Y6520000D01*
X-18080000Y7720000D02*
X-18780000Y7720000D01*
X-47130000Y3090000D02*
X-48130000Y3090000D01*
X-48130000Y1730000D02*
X-47130000Y1730000D01*
D11*
X-10772857Y12523333D02*
X-10725238Y12561428D01*
X-10677619Y12675714D01*
X-10677619Y12751904D01*
X-10725238Y12866190D01*
X-10820476Y12942381D01*
X-10915714Y12980476D01*
X-11106190Y13018571D01*
X-11249048Y13018571D01*
X-11439524Y12980476D01*
X-11534762Y12942381D01*
X-11630000Y12866190D01*
X-11677619Y12751904D01*
X-11677619Y12675714D01*
X-11630000Y12561428D01*
X-11582381Y12523333D01*
X-11677619Y11837619D02*
X-11677619Y11990000D01*
X-11630000Y12066190D01*
X-11582381Y12104285D01*
X-11439524Y12180476D01*
X-11249048Y12218571D01*
X-10868095Y12218571D01*
X-10772857Y12180476D01*
X-10725238Y12142381D01*
X-10677619Y12066190D01*
X-10677619Y11913809D01*
X-10725238Y11837619D01*
X-10772857Y11799523D01*
X-10868095Y11761428D01*
X-11106190Y11761428D01*
X-11201429Y11799523D01*
X-11249048Y11837619D01*
X-11296667Y11913809D01*
X-11296667Y12066190D01*
X-11249048Y12142381D01*
X-11201429Y12180476D01*
X-11106190Y12218571D01*
X-46447619Y8203333D02*
X-46923810Y8470000D01*
X-46447619Y8660476D02*
X-47447619Y8660476D01*
X-47447619Y8355714D01*
X-47400000Y8279523D01*
X-47352381Y8241428D01*
X-47257143Y8203333D01*
X-47114286Y8203333D01*
X-47019048Y8241428D01*
X-46971429Y8279523D01*
X-46923810Y8355714D01*
X-46923810Y8660476D01*
X-46447619Y7822381D02*
X-46447619Y7670000D01*
X-46495238Y7593809D01*
X-46542857Y7555714D01*
X-46685714Y7479523D01*
X-46876190Y7441428D01*
X-47257143Y7441428D01*
X-47352381Y7479523D01*
X-47400000Y7517619D01*
X-47447619Y7593809D01*
X-47447619Y7746190D01*
X-47400000Y7822381D01*
X-47352381Y7860476D01*
X-47257143Y7898571D01*
X-47019048Y7898571D01*
X-46923810Y7860476D01*
X-46876190Y7822381D01*
X-46828571Y7746190D01*
X-46828571Y7593809D01*
X-46876190Y7517619D01*
X-46923810Y7479523D01*
X-47019048Y7441428D01*
X-43776667Y10807619D02*
X-43510000Y11283810D01*
X-43319524Y10807619D02*
X-43319524Y11807619D01*
X-43624286Y11807619D01*
X-43700477Y11760000D01*
X-43738572Y11712381D01*
X-43776667Y11617143D01*
X-43776667Y11474286D01*
X-43738572Y11379048D01*
X-43700477Y11331429D01*
X-43624286Y11283810D01*
X-43319524Y11283810D01*
X-44043334Y11807619D02*
X-44538572Y11807619D01*
X-44271905Y11426667D01*
X-44386191Y11426667D01*
X-44462381Y11379048D01*
X-44500477Y11331429D01*
X-44538572Y11236190D01*
X-44538572Y10998095D01*
X-44500477Y10902857D01*
X-44462381Y10855238D01*
X-44386191Y10807619D01*
X-44157619Y10807619D01*
X-44081429Y10855238D01*
X-44043334Y10902857D01*
X-43826667Y8807619D02*
X-43560000Y9283810D01*
X-43369524Y8807619D02*
X-43369524Y9807619D01*
X-43674286Y9807619D01*
X-43750477Y9760000D01*
X-43788572Y9712381D01*
X-43826667Y9617143D01*
X-43826667Y9474286D01*
X-43788572Y9379048D01*
X-43750477Y9331429D01*
X-43674286Y9283810D01*
X-43369524Y9283810D01*
X-44512381Y9474286D02*
X-44512381Y8807619D01*
X-44321905Y9855238D02*
X-44131429Y9140952D01*
X-44626667Y9140952D01*
X-34290476Y10717619D02*
X-34290476Y9908095D01*
X-34328571Y9812857D01*
X-34366667Y9765238D01*
X-34442857Y9717619D01*
X-34595238Y9717619D01*
X-34671429Y9765238D01*
X-34709524Y9812857D01*
X-34747619Y9908095D01*
X-34747619Y10717619D01*
X-35052381Y10717619D02*
X-35547619Y10717619D01*
X-35280952Y10336667D01*
X-35395238Y10336667D01*
X-35471428Y10289048D01*
X-35509524Y10241429D01*
X-35547619Y10146190D01*
X-35547619Y9908095D01*
X-35509524Y9812857D01*
X-35471428Y9765238D01*
X-35395238Y9717619D01*
X-35166666Y9717619D01*
X-35090476Y9765238D01*
X-35052381Y9812857D01*
X-39577619Y13454286D02*
X-40053810Y13720953D01*
X-39577619Y13911429D02*
X-40577619Y13911429D01*
X-40577619Y13606667D01*
X-40530000Y13530476D01*
X-40482381Y13492381D01*
X-40387143Y13454286D01*
X-40244286Y13454286D01*
X-40149048Y13492381D01*
X-40101429Y13530476D01*
X-40053810Y13606667D01*
X-40053810Y13911429D01*
X-39577619Y12692381D02*
X-39577619Y13149524D01*
X-39577619Y12920953D02*
X-40577619Y12920953D01*
X-40434762Y12997143D01*
X-40339524Y13073334D01*
X-40291905Y13149524D01*
X-40577619Y12197143D02*
X-40577619Y12120952D01*
X-40530000Y12044762D01*
X-40482381Y12006667D01*
X-40387143Y11968571D01*
X-40196667Y11930476D01*
X-39958571Y11930476D01*
X-39768095Y11968571D01*
X-39672857Y12006667D01*
X-39625238Y12044762D01*
X-39577619Y12120952D01*
X-39577619Y12197143D01*
X-39625238Y12273333D01*
X-39672857Y12311429D01*
X-39768095Y12349524D01*
X-39958571Y12387619D01*
X-40196667Y12387619D01*
X-40387143Y12349524D01*
X-40482381Y12311429D01*
X-40530000Y12273333D01*
X-40577619Y12197143D01*
X-31237619Y12433333D02*
X-31713810Y12700000D01*
X-31237619Y12890476D02*
X-32237619Y12890476D01*
X-32237619Y12585714D01*
X-32190000Y12509523D01*
X-32142381Y12471428D01*
X-32047143Y12433333D01*
X-31904286Y12433333D01*
X-31809048Y12471428D01*
X-31761429Y12509523D01*
X-31713810Y12585714D01*
X-31713810Y12890476D01*
X-31237619Y11671428D02*
X-31237619Y12128571D01*
X-31237619Y11900000D02*
X-32237619Y11900000D01*
X-32094762Y11976190D01*
X-31999524Y12052381D01*
X-31951905Y12128571D01*
X-25982857Y13294286D02*
X-25935238Y13332381D01*
X-25887619Y13446667D01*
X-25887619Y13522857D01*
X-25935238Y13637143D01*
X-26030476Y13713334D01*
X-26125714Y13751429D01*
X-26316190Y13789524D01*
X-26459048Y13789524D01*
X-26649524Y13751429D01*
X-26744762Y13713334D01*
X-26840000Y13637143D01*
X-26887619Y13522857D01*
X-26887619Y13446667D01*
X-26840000Y13332381D01*
X-26792381Y13294286D01*
X-25887619Y12532381D02*
X-25887619Y12989524D01*
X-25887619Y12760953D02*
X-26887619Y12760953D01*
X-26744762Y12837143D01*
X-26649524Y12913334D01*
X-26601905Y12989524D01*
X-26792381Y12227619D02*
X-26840000Y12189524D01*
X-26887619Y12113333D01*
X-26887619Y11922857D01*
X-26840000Y11846667D01*
X-26792381Y11808571D01*
X-26697143Y11770476D01*
X-26601905Y11770476D01*
X-26459048Y11808571D01*
X-25887619Y12265714D01*
X-25887619Y11770476D01*
X-27792857Y13164286D02*
X-27745238Y13202381D01*
X-27697619Y13316667D01*
X-27697619Y13392857D01*
X-27745238Y13507143D01*
X-27840476Y13583334D01*
X-27935714Y13621429D01*
X-28126190Y13659524D01*
X-28269048Y13659524D01*
X-28459524Y13621429D01*
X-28554762Y13583334D01*
X-28650000Y13507143D01*
X-28697619Y13392857D01*
X-28697619Y13316667D01*
X-28650000Y13202381D01*
X-28602381Y13164286D01*
X-27697619Y12402381D02*
X-27697619Y12859524D01*
X-27697619Y12630953D02*
X-28697619Y12630953D01*
X-28554762Y12707143D01*
X-28459524Y12783334D01*
X-28411905Y12859524D01*
X-28697619Y12135714D02*
X-28697619Y11640476D01*
X-28316667Y11907143D01*
X-28316667Y11792857D01*
X-28269048Y11716667D01*
X-28221429Y11678571D01*
X-28126190Y11640476D01*
X-27888095Y11640476D01*
X-27792857Y11678571D01*
X-27745238Y11716667D01*
X-27697619Y11792857D01*
X-27697619Y12021429D01*
X-27745238Y12097619D01*
X-27792857Y12135714D01*
X-24282857Y13184286D02*
X-24235238Y13222381D01*
X-24187619Y13336667D01*
X-24187619Y13412857D01*
X-24235238Y13527143D01*
X-24330476Y13603334D01*
X-24425714Y13641429D01*
X-24616190Y13679524D01*
X-24759048Y13679524D01*
X-24949524Y13641429D01*
X-25044762Y13603334D01*
X-25140000Y13527143D01*
X-25187619Y13412857D01*
X-25187619Y13336667D01*
X-25140000Y13222381D01*
X-25092381Y13184286D01*
X-24187619Y12422381D02*
X-24187619Y12879524D01*
X-24187619Y12650953D02*
X-25187619Y12650953D01*
X-25044762Y12727143D01*
X-24949524Y12803334D01*
X-24901905Y12879524D01*
X-25187619Y11927143D02*
X-25187619Y11850952D01*
X-25140000Y11774762D01*
X-25092381Y11736667D01*
X-24997143Y11698571D01*
X-24806667Y11660476D01*
X-24568571Y11660476D01*
X-24378095Y11698571D01*
X-24282857Y11736667D01*
X-24235238Y11774762D01*
X-24187619Y11850952D01*
X-24187619Y11927143D01*
X-24235238Y12003333D01*
X-24282857Y12041429D01*
X-24378095Y12079524D01*
X-24568571Y12117619D01*
X-24806667Y12117619D01*
X-24997143Y12079524D01*
X-25092381Y12041429D01*
X-25140000Y12003333D01*
X-25187619Y11927143D01*
X-29612857Y13134286D02*
X-29565238Y13172381D01*
X-29517619Y13286667D01*
X-29517619Y13362857D01*
X-29565238Y13477143D01*
X-29660476Y13553334D01*
X-29755714Y13591429D01*
X-29946190Y13629524D01*
X-30089048Y13629524D01*
X-30279524Y13591429D01*
X-30374762Y13553334D01*
X-30470000Y13477143D01*
X-30517619Y13362857D01*
X-30517619Y13286667D01*
X-30470000Y13172381D01*
X-30422381Y13134286D01*
X-29517619Y12372381D02*
X-29517619Y12829524D01*
X-29517619Y12600953D02*
X-30517619Y12600953D01*
X-30374762Y12677143D01*
X-30279524Y12753334D01*
X-30231905Y12829524D01*
X-29517619Y11610476D02*
X-29517619Y12067619D01*
X-29517619Y11839048D02*
X-30517619Y11839048D01*
X-30374762Y11915238D01*
X-30279524Y11991429D01*
X-30231905Y12067619D01*
X-22252857Y12473333D02*
X-22205238Y12511428D01*
X-22157619Y12625714D01*
X-22157619Y12701904D01*
X-22205238Y12816190D01*
X-22300476Y12892381D01*
X-22395714Y12930476D01*
X-22586190Y12968571D01*
X-22729048Y12968571D01*
X-22919524Y12930476D01*
X-23014762Y12892381D01*
X-23110000Y12816190D01*
X-23157619Y12701904D01*
X-23157619Y12625714D01*
X-23110000Y12511428D01*
X-23062381Y12473333D01*
X-23157619Y12206666D02*
X-23157619Y11711428D01*
X-22776667Y11978095D01*
X-22776667Y11863809D01*
X-22729048Y11787619D01*
X-22681429Y11749523D01*
X-22586190Y11711428D01*
X-22348095Y11711428D01*
X-22252857Y11749523D01*
X-22205238Y11787619D01*
X-22157619Y11863809D01*
X-22157619Y12092381D01*
X-22205238Y12168571D01*
X-22252857Y12206666D01*
X-20017619Y12423333D02*
X-20493810Y12690000D01*
X-20017619Y12880476D02*
X-21017619Y12880476D01*
X-21017619Y12575714D01*
X-20970000Y12499523D01*
X-20922381Y12461428D01*
X-20827143Y12423333D01*
X-20684286Y12423333D01*
X-20589048Y12461428D01*
X-20541429Y12499523D01*
X-20493810Y12575714D01*
X-20493810Y12880476D01*
X-20922381Y12118571D02*
X-20970000Y12080476D01*
X-21017619Y12004285D01*
X-21017619Y11813809D01*
X-20970000Y11737619D01*
X-20922381Y11699523D01*
X-20827143Y11661428D01*
X-20731905Y11661428D01*
X-20589048Y11699523D01*
X-20017619Y12156666D01*
X-20017619Y11661428D01*
X-16322857Y12623333D02*
X-16275238Y12661428D01*
X-16227619Y12775714D01*
X-16227619Y12851904D01*
X-16275238Y12966190D01*
X-16370476Y13042381D01*
X-16465714Y13080476D01*
X-16656190Y13118571D01*
X-16799048Y13118571D01*
X-16989524Y13080476D01*
X-17084762Y13042381D01*
X-17180000Y12966190D01*
X-17227619Y12851904D01*
X-17227619Y12775714D01*
X-17180000Y12661428D01*
X-17132381Y12623333D01*
X-16227619Y12242381D02*
X-16227619Y12090000D01*
X-16275238Y12013809D01*
X-16322857Y11975714D01*
X-16465714Y11899523D01*
X-16656190Y11861428D01*
X-17037143Y11861428D01*
X-17132381Y11899523D01*
X-17180000Y11937619D01*
X-17227619Y12013809D01*
X-17227619Y12166190D01*
X-17180000Y12242381D01*
X-17132381Y12280476D01*
X-17037143Y12318571D01*
X-16799048Y12318571D01*
X-16703810Y12280476D01*
X-16656190Y12242381D01*
X-16608571Y12166190D01*
X-16608571Y12013809D01*
X-16656190Y11937619D01*
X-16703810Y11899523D01*
X-16799048Y11861428D01*
X-14582857Y12613333D02*
X-14535238Y12651428D01*
X-14487619Y12765714D01*
X-14487619Y12841904D01*
X-14535238Y12956190D01*
X-14630476Y13032381D01*
X-14725714Y13070476D01*
X-14916190Y13108571D01*
X-15059048Y13108571D01*
X-15249524Y13070476D01*
X-15344762Y13032381D01*
X-15440000Y12956190D01*
X-15487619Y12841904D01*
X-15487619Y12765714D01*
X-15440000Y12651428D01*
X-15392381Y12613333D01*
X-15059048Y12156190D02*
X-15106667Y12232381D01*
X-15154286Y12270476D01*
X-15249524Y12308571D01*
X-15297143Y12308571D01*
X-15392381Y12270476D01*
X-15440000Y12232381D01*
X-15487619Y12156190D01*
X-15487619Y12003809D01*
X-15440000Y11927619D01*
X-15392381Y11889523D01*
X-15297143Y11851428D01*
X-15249524Y11851428D01*
X-15154286Y11889523D01*
X-15106667Y11927619D01*
X-15059048Y12003809D01*
X-15059048Y12156190D01*
X-15011429Y12232381D01*
X-14963810Y12270476D01*
X-14868571Y12308571D01*
X-14678095Y12308571D01*
X-14582857Y12270476D01*
X-14535238Y12232381D01*
X-14487619Y12156190D01*
X-14487619Y12003809D01*
X-14535238Y11927619D01*
X-14582857Y11889523D01*
X-14678095Y11851428D01*
X-14868571Y11851428D01*
X-14963810Y11889523D01*
X-15011429Y11927619D01*
X-15059048Y12003809D01*
X-12742857Y12583333D02*
X-12695238Y12621428D01*
X-12647619Y12735714D01*
X-12647619Y12811904D01*
X-12695238Y12926190D01*
X-12790476Y13002381D01*
X-12885714Y13040476D01*
X-13076190Y13078571D01*
X-13219048Y13078571D01*
X-13409524Y13040476D01*
X-13504762Y13002381D01*
X-13600000Y12926190D01*
X-13647619Y12811904D01*
X-13647619Y12735714D01*
X-13600000Y12621428D01*
X-13552381Y12583333D01*
X-13647619Y12316666D02*
X-13647619Y11783333D01*
X-12647619Y12126190D01*
X-8907619Y12403333D02*
X-9383810Y12670000D01*
X-8907619Y12860476D02*
X-9907619Y12860476D01*
X-9907619Y12555714D01*
X-9860000Y12479523D01*
X-9812381Y12441428D01*
X-9717143Y12403333D01*
X-9574286Y12403333D01*
X-9479048Y12441428D01*
X-9431429Y12479523D01*
X-9383810Y12555714D01*
X-9383810Y12860476D01*
X-9907619Y11679523D02*
X-9907619Y12060476D01*
X-9431429Y12098571D01*
X-9479048Y12060476D01*
X-9526667Y11984285D01*
X-9526667Y11793809D01*
X-9479048Y11717619D01*
X-9431429Y11679523D01*
X-9336190Y11641428D01*
X-9098095Y11641428D01*
X-9002857Y11679523D01*
X-8955238Y11717619D01*
X-8907619Y11793809D01*
X-8907619Y11984285D01*
X-8955238Y12060476D01*
X-9002857Y12098571D01*
X-6642857Y7964286D02*
X-6595238Y8002381D01*
X-6547619Y8116667D01*
X-6547619Y8192857D01*
X-6595238Y8307143D01*
X-6690476Y8383334D01*
X-6785714Y8421429D01*
X-6976190Y8459524D01*
X-7119048Y8459524D01*
X-7309524Y8421429D01*
X-7404762Y8383334D01*
X-7500000Y8307143D01*
X-7547619Y8192857D01*
X-7547619Y8116667D01*
X-7500000Y8002381D01*
X-7452381Y7964286D01*
X-6547619Y7202381D02*
X-6547619Y7659524D01*
X-6547619Y7430953D02*
X-7547619Y7430953D01*
X-7404762Y7507143D01*
X-7309524Y7583334D01*
X-7261905Y7659524D01*
X-7214286Y6516667D02*
X-6547619Y6516667D01*
X-7595238Y6707143D02*
X-6880952Y6897619D01*
X-6880952Y6402381D01*
X-9947619Y7133333D02*
X-10423810Y7400000D01*
X-9947619Y7590476D02*
X-10947619Y7590476D01*
X-10947619Y7285714D01*
X-10900000Y7209523D01*
X-10852381Y7171428D01*
X-10757143Y7133333D01*
X-10614286Y7133333D01*
X-10519048Y7171428D01*
X-10471429Y7209523D01*
X-10423810Y7285714D01*
X-10423810Y7590476D01*
X-10947619Y6447619D02*
X-10947619Y6600000D01*
X-10900000Y6676190D01*
X-10852381Y6714285D01*
X-10709524Y6790476D01*
X-10519048Y6828571D01*
X-10138095Y6828571D01*
X-10042857Y6790476D01*
X-9995238Y6752381D01*
X-9947619Y6676190D01*
X-9947619Y6523809D01*
X-9995238Y6447619D01*
X-10042857Y6409523D01*
X-10138095Y6371428D01*
X-10376190Y6371428D01*
X-10471429Y6409523D01*
X-10519048Y6447619D01*
X-10566667Y6523809D01*
X-10566667Y6676190D01*
X-10519048Y6752381D01*
X-10471429Y6790476D01*
X-10376190Y6828571D01*
X-20047619Y7173333D02*
X-20523810Y7440000D01*
X-20047619Y7630476D02*
X-21047619Y7630476D01*
X-21047619Y7325714D01*
X-21000000Y7249523D01*
X-20952381Y7211428D01*
X-20857143Y7173333D01*
X-20714286Y7173333D01*
X-20619048Y7211428D01*
X-20571429Y7249523D01*
X-20523810Y7325714D01*
X-20523810Y7630476D01*
X-21047619Y6906666D02*
X-21047619Y6373333D01*
X-20047619Y6716190D01*
X-22132857Y7323333D02*
X-22085238Y7361428D01*
X-22037619Y7475714D01*
X-22037619Y7551904D01*
X-22085238Y7666190D01*
X-22180476Y7742381D01*
X-22275714Y7780476D01*
X-22466190Y7818571D01*
X-22609048Y7818571D01*
X-22799524Y7780476D01*
X-22894762Y7742381D01*
X-22990000Y7666190D01*
X-23037619Y7551904D01*
X-23037619Y7475714D01*
X-22990000Y7361428D01*
X-22942381Y7323333D01*
X-22704286Y6637619D02*
X-22037619Y6637619D01*
X-23085238Y6828095D02*
X-22370952Y7018571D01*
X-22370952Y6523333D01*
X-23852857Y7393333D02*
X-23805238Y7431428D01*
X-23757619Y7545714D01*
X-23757619Y7621904D01*
X-23805238Y7736190D01*
X-23900476Y7812381D01*
X-23995714Y7850476D01*
X-24186190Y7888571D01*
X-24329048Y7888571D01*
X-24519524Y7850476D01*
X-24614762Y7812381D01*
X-24710000Y7736190D01*
X-24757619Y7621904D01*
X-24757619Y7545714D01*
X-24710000Y7431428D01*
X-24662381Y7393333D01*
X-24757619Y6669523D02*
X-24757619Y7050476D01*
X-24281429Y7088571D01*
X-24329048Y7050476D01*
X-24376667Y6974285D01*
X-24376667Y6783809D01*
X-24329048Y6707619D01*
X-24281429Y6669523D01*
X-24186190Y6631428D01*
X-23948095Y6631428D01*
X-23852857Y6669523D01*
X-23805238Y6707619D01*
X-23757619Y6783809D01*
X-23757619Y6974285D01*
X-23805238Y7050476D01*
X-23852857Y7088571D01*
X-26970476Y7857619D02*
X-26970476Y7048095D01*
X-27008571Y6952857D01*
X-27046667Y6905238D01*
X-27122857Y6857619D01*
X-27275238Y6857619D01*
X-27351429Y6905238D01*
X-27389524Y6952857D01*
X-27427619Y7048095D01*
X-27427619Y7857619D01*
X-28227619Y6857619D02*
X-27770476Y6857619D01*
X-27999047Y6857619D02*
X-27999047Y7857619D01*
X-27922857Y7714762D01*
X-27846666Y7619524D01*
X-27770476Y7571905D01*
X-29892857Y7273333D02*
X-29845238Y7311428D01*
X-29797619Y7425714D01*
X-29797619Y7501904D01*
X-29845238Y7616190D01*
X-29940476Y7692381D01*
X-30035714Y7730476D01*
X-30226190Y7768571D01*
X-30369048Y7768571D01*
X-30559524Y7730476D01*
X-30654762Y7692381D01*
X-30750000Y7616190D01*
X-30797619Y7501904D01*
X-30797619Y7425714D01*
X-30750000Y7311428D01*
X-30702381Y7273333D01*
X-29797619Y6511428D02*
X-29797619Y6968571D01*
X-29797619Y6740000D02*
X-30797619Y6740000D01*
X-30654762Y6816190D01*
X-30559524Y6892381D01*
X-30511905Y6968571D01*
X-31512857Y7363333D02*
X-31465238Y7401428D01*
X-31417619Y7515714D01*
X-31417619Y7591904D01*
X-31465238Y7706190D01*
X-31560476Y7782381D01*
X-31655714Y7820476D01*
X-31846190Y7858571D01*
X-31989048Y7858571D01*
X-32179524Y7820476D01*
X-32274762Y7782381D01*
X-32370000Y7706190D01*
X-32417619Y7591904D01*
X-32417619Y7515714D01*
X-32370000Y7401428D01*
X-32322381Y7363333D01*
X-32322381Y7058571D02*
X-32370000Y7020476D01*
X-32417619Y6944285D01*
X-32417619Y6753809D01*
X-32370000Y6677619D01*
X-32322381Y6639523D01*
X-32227143Y6601428D01*
X-32131905Y6601428D01*
X-31989048Y6639523D01*
X-31417619Y7096666D01*
X-31417619Y6601428D01*
X-33187619Y7173333D02*
X-33663810Y7440000D01*
X-33187619Y7630476D02*
X-34187619Y7630476D01*
X-34187619Y7325714D01*
X-34140000Y7249523D01*
X-34092381Y7211428D01*
X-33997143Y7173333D01*
X-33854286Y7173333D01*
X-33759048Y7211428D01*
X-33711429Y7249523D01*
X-33663810Y7325714D01*
X-33663810Y7630476D01*
X-33759048Y6716190D02*
X-33806667Y6792381D01*
X-33854286Y6830476D01*
X-33949524Y6868571D01*
X-33997143Y6868571D01*
X-34092381Y6830476D01*
X-34140000Y6792381D01*
X-34187619Y6716190D01*
X-34187619Y6563809D01*
X-34140000Y6487619D01*
X-34092381Y6449523D01*
X-33997143Y6411428D01*
X-33949524Y6411428D01*
X-33854286Y6449523D01*
X-33806667Y6487619D01*
X-33759048Y6563809D01*
X-33759048Y6716190D01*
X-33711429Y6792381D01*
X-33663810Y6830476D01*
X-33568571Y6868571D01*
X-33378095Y6868571D01*
X-33282857Y6830476D01*
X-33235238Y6792381D01*
X-33187619Y6716190D01*
X-33187619Y6563809D01*
X-33235238Y6487619D01*
X-33282857Y6449523D01*
X-33378095Y6411428D01*
X-33568571Y6411428D01*
X-33663810Y6449523D01*
X-33711429Y6487619D01*
X-33759048Y6563809D01*
X-35532857Y13394286D02*
X-35485238Y13432381D01*
X-35437619Y13546667D01*
X-35437619Y13622857D01*
X-35485238Y13737143D01*
X-35580476Y13813334D01*
X-35675714Y13851429D01*
X-35866190Y13889524D01*
X-36009048Y13889524D01*
X-36199524Y13851429D01*
X-36294762Y13813334D01*
X-36390000Y13737143D01*
X-36437619Y13622857D01*
X-36437619Y13546667D01*
X-36390000Y13432381D01*
X-36342381Y13394286D01*
X-35437619Y12632381D02*
X-35437619Y13089524D01*
X-35437619Y12860953D02*
X-36437619Y12860953D01*
X-36294762Y12937143D01*
X-36199524Y13013334D01*
X-36151905Y13089524D01*
X-36437619Y11908571D02*
X-36437619Y12289524D01*
X-35961429Y12327619D01*
X-36009048Y12289524D01*
X-36056667Y12213333D01*
X-36056667Y12022857D01*
X-36009048Y11946667D01*
X-35961429Y11908571D01*
X-35866190Y11870476D01*
X-35628095Y11870476D01*
X-35532857Y11908571D01*
X-35485238Y11946667D01*
X-35437619Y12022857D01*
X-35437619Y12213333D01*
X-35485238Y12289524D01*
X-35532857Y12327619D01*
X-46692857Y13564286D02*
X-46645238Y13602381D01*
X-46597619Y13716667D01*
X-46597619Y13792857D01*
X-46645238Y13907143D01*
X-46740476Y13983334D01*
X-46835714Y14021429D01*
X-47026190Y14059524D01*
X-47169048Y14059524D01*
X-47359524Y14021429D01*
X-47454762Y13983334D01*
X-47550000Y13907143D01*
X-47597619Y13792857D01*
X-47597619Y13716667D01*
X-47550000Y13602381D01*
X-47502381Y13564286D01*
X-46597619Y12802381D02*
X-46597619Y13259524D01*
X-46597619Y13030953D02*
X-47597619Y13030953D01*
X-47454762Y13107143D01*
X-47359524Y13183334D01*
X-47311905Y13259524D01*
X-47597619Y12116667D02*
X-47597619Y12269048D01*
X-47550000Y12345238D01*
X-47502381Y12383333D01*
X-47359524Y12459524D01*
X-47169048Y12497619D01*
X-46788095Y12497619D01*
X-46692857Y12459524D01*
X-46645238Y12421429D01*
X-46597619Y12345238D01*
X-46597619Y12192857D01*
X-46645238Y12116667D01*
X-46692857Y12078571D01*
X-46788095Y12040476D01*
X-47026190Y12040476D01*
X-47121429Y12078571D01*
X-47169048Y12116667D01*
X-47216667Y12192857D01*
X-47216667Y12345238D01*
X-47169048Y12421429D01*
X-47121429Y12459524D01*
X-47026190Y12497619D01*
X-4432857Y7884286D02*
X-4385238Y7922381D01*
X-4337619Y8036667D01*
X-4337619Y8112857D01*
X-4385238Y8227143D01*
X-4480476Y8303334D01*
X-4575714Y8341429D01*
X-4766190Y8379524D01*
X-4909048Y8379524D01*
X-5099524Y8341429D01*
X-5194762Y8303334D01*
X-5290000Y8227143D01*
X-5337619Y8112857D01*
X-5337619Y8036667D01*
X-5290000Y7922381D01*
X-5242381Y7884286D01*
X-4337619Y7122381D02*
X-4337619Y7579524D01*
X-4337619Y7350953D02*
X-5337619Y7350953D01*
X-5194762Y7427143D01*
X-5099524Y7503334D01*
X-5051905Y7579524D01*
X-5337619Y6855714D02*
X-5337619Y6322381D01*
X-4337619Y6665238D01*
X-15362857Y7924286D02*
X-15315238Y7962381D01*
X-15267619Y8076667D01*
X-15267619Y8152857D01*
X-15315238Y8267143D01*
X-15410476Y8343334D01*
X-15505714Y8381429D01*
X-15696190Y8419524D01*
X-15839048Y8419524D01*
X-16029524Y8381429D01*
X-16124762Y8343334D01*
X-16220000Y8267143D01*
X-16267619Y8152857D01*
X-16267619Y8076667D01*
X-16220000Y7962381D01*
X-16172381Y7924286D01*
X-15267619Y7162381D02*
X-15267619Y7619524D01*
X-15267619Y7390953D02*
X-16267619Y7390953D01*
X-16124762Y7467143D01*
X-16029524Y7543334D01*
X-15981905Y7619524D01*
X-15839048Y6705238D02*
X-15886667Y6781429D01*
X-15934286Y6819524D01*
X-16029524Y6857619D01*
X-16077143Y6857619D01*
X-16172381Y6819524D01*
X-16220000Y6781429D01*
X-16267619Y6705238D01*
X-16267619Y6552857D01*
X-16220000Y6476667D01*
X-16172381Y6438571D01*
X-16077143Y6400476D01*
X-16029524Y6400476D01*
X-15934286Y6438571D01*
X-15886667Y6476667D01*
X-15839048Y6552857D01*
X-15839048Y6705238D01*
X-15791429Y6781429D01*
X-15743810Y6819524D01*
X-15648571Y6857619D01*
X-15458095Y6857619D01*
X-15362857Y6819524D01*
X-15315238Y6781429D01*
X-15267619Y6705238D01*
X-15267619Y6552857D01*
X-15315238Y6476667D01*
X-15362857Y6438571D01*
X-15458095Y6400476D01*
X-15648571Y6400476D01*
X-15743810Y6438571D01*
X-15791429Y6476667D01*
X-15839048Y6552857D01*
X-18015714Y8052857D02*
X-17977619Y8005238D01*
X-17863333Y7957619D01*
X-17787143Y7957619D01*
X-17672857Y8005238D01*
X-17596666Y8100476D01*
X-17558571Y8195714D01*
X-17520476Y8386190D01*
X-17520476Y8529048D01*
X-17558571Y8719524D01*
X-17596666Y8814762D01*
X-17672857Y8910000D01*
X-17787143Y8957619D01*
X-17863333Y8957619D01*
X-17977619Y8910000D01*
X-18015714Y8862381D01*
X-18777619Y7957619D02*
X-18320476Y7957619D01*
X-18549047Y7957619D02*
X-18549047Y8957619D01*
X-18472857Y8814762D01*
X-18396666Y8719524D01*
X-18320476Y8671905D01*
X-19158571Y7957619D02*
X-19310952Y7957619D01*
X-19387143Y8005238D01*
X-19425238Y8052857D01*
X-19501429Y8195714D01*
X-19539524Y8386190D01*
X-19539524Y8767143D01*
X-19501429Y8862381D01*
X-19463333Y8910000D01*
X-19387143Y8957619D01*
X-19234762Y8957619D01*
X-19158571Y8910000D01*
X-19120476Y8862381D01*
X-19082381Y8767143D01*
X-19082381Y8529048D01*
X-19120476Y8433810D01*
X-19158571Y8386190D01*
X-19234762Y8338571D01*
X-19387143Y8338571D01*
X-19463333Y8386190D01*
X-19501429Y8433810D01*
X-19539524Y8529048D01*
X-44515714Y1917619D02*
X-44249047Y2393810D01*
X-44058571Y1917619D02*
X-44058571Y2917619D01*
X-44363333Y2917619D01*
X-44439524Y2870000D01*
X-44477619Y2822381D01*
X-44515714Y2727143D01*
X-44515714Y2584286D01*
X-44477619Y2489048D01*
X-44439524Y2441429D01*
X-44363333Y2393810D01*
X-44058571Y2393810D01*
X-45277619Y1917619D02*
X-44820476Y1917619D01*
X-45049047Y1917619D02*
X-45049047Y2917619D01*
X-44972857Y2774762D01*
X-44896666Y2679524D01*
X-44820476Y2631905D01*
X-46039524Y1917619D02*
X-45582381Y1917619D01*
X-45810952Y1917619D02*
X-45810952Y2917619D01*
X-45734762Y2774762D01*
X-45658571Y2679524D01*
X-45582381Y2631905D01*
M02*
