%TF.GenerationSoftware,KiCad,Pcbnew,4.0.7*%
%TF.CreationDate,2017-10-16T02:09:04+08:00*%
%TF.ProjectId,STM32F401CCT6,53544D333246343031434354362E6B69,rev?*%
%TF.FileFunction,Legend,Bot*%
%FSLAX46Y46*%
G04 Gerber Fmt 4.6, Leading zero omitted, Abs format (unit mm)*
G04 Created by KiCad (PCBNEW 4.0.7) date 10/16/17 02:09:04*
%MOMM*%
%LPD*%
G01*
G04 APERTURE LIST*
%ADD10C,0.100000*%
%ADD11C,0.200000*%
%ADD12C,0.120000*%
%ADD13C,0.187500*%
G04 APERTURE END LIST*
D10*
D11*
X-13270000Y5180000D02*
X-12710000Y5810000D01*
X-13490000Y5320000D02*
X-13280000Y6220000D01*
X-13770000Y5370000D02*
X-13850000Y6270000D01*
X-13440000Y3500000D02*
X-12870000Y2740000D01*
X-13740000Y3410000D02*
X-13590000Y2580000D01*
X-14010000Y3410000D02*
X-14120000Y2570000D01*
X-13630000Y4180000D02*
X-13130000Y4590000D01*
X-13590000Y4630000D02*
X-13200000Y4110000D01*
X-15260000Y3060000D02*
X-14620000Y3240000D01*
X-14980000Y3630000D02*
X-15290000Y3050000D01*
X-14151833Y4790000D02*
G75*
G03X-14151833Y4790000I-108167J0D01*
G01*
X-14146863Y3960000D02*
G75*
G03X-14146863Y3960000I-113137J0D01*
G01*
X-14870000Y5240000D02*
X-15010000Y5880000D01*
X-14420000Y5600000D02*
X-15010000Y5880000D01*
X-12680000Y4370000D02*
G75*
G03X-12680000Y4370000I-1234706J0D01*
G01*
D12*
X-50020000Y14400000D02*
X-50020000Y17060000D01*
X-1700000Y14400000D02*
X-50020000Y14400000D01*
X-1700000Y17060000D02*
X-50020000Y17060000D01*
X-1700000Y14400000D02*
X-1700000Y17060000D01*
X-430000Y14400000D02*
X900000Y14400000D01*
X900000Y14400000D02*
X900000Y15730000D01*
X-50020000Y-1350000D02*
X-50020000Y1310000D01*
X-1700000Y-1350000D02*
X-50020000Y-1350000D01*
X-1700000Y1310000D02*
X-50020000Y1310000D01*
X-1700000Y-1350000D02*
X-1700000Y1310000D01*
X-430000Y-1350000D02*
X900000Y-1350000D01*
X900000Y-1350000D02*
X900000Y-20000D01*
X-46300000Y13640000D02*
X-47300000Y13640000D01*
X-47300000Y12280000D02*
X-46300000Y12280000D01*
X-42670000Y9740000D02*
X-42670000Y10740000D01*
X-44030000Y10740000D02*
X-44030000Y9740000D01*
X-40760000Y9740000D02*
X-40760000Y10740000D01*
X-42120000Y10740000D02*
X-42120000Y9740000D01*
X-38700000Y11580000D02*
X-36900000Y11580000D01*
X-36900000Y8360000D02*
X-39350000Y8360000D01*
X-37420000Y13550000D02*
X-38420000Y13550000D01*
X-38420000Y12190000D02*
X-37420000Y12190000D01*
X-31130000Y9610000D02*
X-31130000Y10610000D01*
X-32490000Y10610000D02*
X-32490000Y9610000D01*
X-29380000Y9730000D02*
X-29380000Y10430000D01*
X-30580000Y10430000D02*
X-30580000Y9730000D01*
X-27660000Y9720000D02*
X-27660000Y10420000D01*
X-28860000Y10420000D02*
X-28860000Y9720000D01*
X-25860000Y9720000D02*
X-25860000Y10420000D01*
X-27060000Y10420000D02*
X-27060000Y9720000D01*
X-24100000Y9730000D02*
X-24100000Y10430000D01*
X-25300000Y10430000D02*
X-25300000Y9730000D01*
X-22210000Y9730000D02*
X-22210000Y10430000D01*
X-23410000Y10430000D02*
X-23410000Y9730000D01*
X-21180000Y10540000D02*
X-21180000Y9540000D01*
X-19820000Y9540000D02*
X-19820000Y10540000D01*
X-17310000Y10430000D02*
X-17310000Y9730000D01*
X-16110000Y9730000D02*
X-16110000Y10430000D01*
X-15580000Y10430000D02*
X-15580000Y9730000D01*
X-14380000Y9730000D02*
X-14380000Y10430000D01*
X-13800000Y10430000D02*
X-13800000Y9730000D01*
X-12600000Y9730000D02*
X-12600000Y10430000D01*
X-11970000Y10430000D02*
X-11970000Y9730000D01*
X-10770000Y9730000D02*
X-10770000Y10430000D01*
X-8740000Y9540000D02*
X-8740000Y10540000D01*
X-10100000Y10540000D02*
X-10100000Y9540000D01*
X-7610000Y5110000D02*
X-7610000Y4410000D01*
X-6410000Y4410000D02*
X-6410000Y5110000D01*
X-8610000Y4290000D02*
X-8610000Y5290000D01*
X-9970000Y5290000D02*
X-9970000Y4290000D01*
X-19890000Y4380000D02*
X-19890000Y5380000D01*
X-21250000Y5380000D02*
X-21250000Y4380000D01*
X-23160000Y5250000D02*
X-23160000Y4550000D01*
X-21960000Y4550000D02*
X-21960000Y5250000D01*
X-24900000Y5260000D02*
X-24900000Y4560000D01*
X-23700000Y4560000D02*
X-23700000Y5260000D01*
X-28380000Y6560000D02*
X-26580000Y6560000D01*
X-26580000Y3340000D02*
X-29030000Y3340000D01*
X-29910000Y4530000D02*
X-29910000Y5230000D01*
X-31110000Y5230000D02*
X-31110000Y4530000D01*
X-31760000Y4530000D02*
X-31760000Y5230000D01*
X-32960000Y5230000D02*
X-32960000Y4530000D01*
X-33530000Y4420000D02*
X-33530000Y5420000D01*
X-34890000Y5420000D02*
X-34890000Y4420000D01*
D11*
X-48766667Y12568095D02*
X-48500000Y12949048D01*
X-48309524Y12568095D02*
X-48309524Y13368095D01*
X-48614286Y13368095D01*
X-48690477Y13330000D01*
X-48728572Y13291905D01*
X-48766667Y13215714D01*
X-48766667Y13101429D01*
X-48728572Y13025238D01*
X-48690477Y12987143D01*
X-48614286Y12949048D01*
X-48309524Y12949048D01*
X-49147619Y12568095D02*
X-49300000Y12568095D01*
X-49376191Y12606190D01*
X-49414286Y12644286D01*
X-49490477Y12758571D01*
X-49528572Y12910952D01*
X-49528572Y13215714D01*
X-49490477Y13291905D01*
X-49452381Y13330000D01*
X-49376191Y13368095D01*
X-49223810Y13368095D01*
X-49147619Y13330000D01*
X-49109524Y13291905D01*
X-49071429Y13215714D01*
X-49071429Y13025238D01*
X-49109524Y12949048D01*
X-49147619Y12910952D01*
X-49223810Y12872857D01*
X-49376191Y12872857D01*
X-49452381Y12910952D01*
X-49490477Y12949048D01*
X-49528572Y13025238D01*
X-43048095Y12643333D02*
X-43429048Y12910000D01*
X-43048095Y13100476D02*
X-43848095Y13100476D01*
X-43848095Y12795714D01*
X-43810000Y12719523D01*
X-43771905Y12681428D01*
X-43695714Y12643333D01*
X-43581429Y12643333D01*
X-43505238Y12681428D01*
X-43467143Y12719523D01*
X-43429048Y12795714D01*
X-43429048Y13100476D01*
X-43848095Y12376666D02*
X-43848095Y11881428D01*
X-43543333Y12148095D01*
X-43543333Y12033809D01*
X-43505238Y11957619D01*
X-43467143Y11919523D01*
X-43390952Y11881428D01*
X-43200476Y11881428D01*
X-43124286Y11919523D01*
X-43086190Y11957619D01*
X-43048095Y12033809D01*
X-43048095Y12262381D01*
X-43086190Y12338571D01*
X-43124286Y12376666D01*
X-41238095Y12583333D02*
X-41619048Y12850000D01*
X-41238095Y13040476D02*
X-42038095Y13040476D01*
X-42038095Y12735714D01*
X-42000000Y12659523D01*
X-41961905Y12621428D01*
X-41885714Y12583333D01*
X-41771429Y12583333D01*
X-41695238Y12621428D01*
X-41657143Y12659523D01*
X-41619048Y12735714D01*
X-41619048Y13040476D01*
X-41771429Y11897619D02*
X-41238095Y11897619D01*
X-42076190Y12088095D02*
X-41504762Y12278571D01*
X-41504762Y11783333D01*
X-34430476Y11208095D02*
X-34430476Y10560476D01*
X-34468571Y10484286D01*
X-34506667Y10446190D01*
X-34582857Y10408095D01*
X-34735238Y10408095D01*
X-34811429Y10446190D01*
X-34849524Y10484286D01*
X-34887619Y10560476D01*
X-34887619Y11208095D01*
X-35192381Y11208095D02*
X-35687619Y11208095D01*
X-35420952Y10903333D01*
X-35535238Y10903333D01*
X-35611428Y10865238D01*
X-35649524Y10827143D01*
X-35687619Y10750952D01*
X-35687619Y10560476D01*
X-35649524Y10484286D01*
X-35611428Y10446190D01*
X-35535238Y10408095D01*
X-35306666Y10408095D01*
X-35230476Y10446190D01*
X-35192381Y10484286D01*
X-34975714Y12498095D02*
X-34709047Y12879048D01*
X-34518571Y12498095D02*
X-34518571Y13298095D01*
X-34823333Y13298095D01*
X-34899524Y13260000D01*
X-34937619Y13221905D01*
X-34975714Y13145714D01*
X-34975714Y13031429D01*
X-34937619Y12955238D01*
X-34899524Y12917143D01*
X-34823333Y12879048D01*
X-34518571Y12879048D01*
X-35737619Y12498095D02*
X-35280476Y12498095D01*
X-35509047Y12498095D02*
X-35509047Y13298095D01*
X-35432857Y13183810D01*
X-35356666Y13107619D01*
X-35280476Y13069524D01*
X-36232857Y13298095D02*
X-36309048Y13298095D01*
X-36385238Y13260000D01*
X-36423333Y13221905D01*
X-36461429Y13145714D01*
X-36499524Y12993333D01*
X-36499524Y12802857D01*
X-36461429Y12650476D01*
X-36423333Y12574286D01*
X-36385238Y12536190D01*
X-36309048Y12498095D01*
X-36232857Y12498095D01*
X-36156667Y12536190D01*
X-36118571Y12574286D01*
X-36080476Y12650476D01*
X-36042381Y12802857D01*
X-36042381Y12993333D01*
X-36080476Y13145714D01*
X-36118571Y13221905D01*
X-36156667Y13260000D01*
X-36232857Y13298095D01*
X-31418095Y12443333D02*
X-31799048Y12710000D01*
X-31418095Y12900476D02*
X-32218095Y12900476D01*
X-32218095Y12595714D01*
X-32180000Y12519523D01*
X-32141905Y12481428D01*
X-32065714Y12443333D01*
X-31951429Y12443333D01*
X-31875238Y12481428D01*
X-31837143Y12519523D01*
X-31799048Y12595714D01*
X-31799048Y12900476D01*
X-31418095Y11681428D02*
X-31418095Y12138571D01*
X-31418095Y11910000D02*
X-32218095Y11910000D01*
X-32103810Y11986190D01*
X-32027619Y12062381D01*
X-31989524Y12138571D01*
X-29654286Y13274286D02*
X-29616190Y13312381D01*
X-29578095Y13426667D01*
X-29578095Y13502857D01*
X-29616190Y13617143D01*
X-29692381Y13693334D01*
X-29768571Y13731429D01*
X-29920952Y13769524D01*
X-30035238Y13769524D01*
X-30187619Y13731429D01*
X-30263810Y13693334D01*
X-30340000Y13617143D01*
X-30378095Y13502857D01*
X-30378095Y13426667D01*
X-30340000Y13312381D01*
X-30301905Y13274286D01*
X-29578095Y12512381D02*
X-29578095Y12969524D01*
X-29578095Y12740953D02*
X-30378095Y12740953D01*
X-30263810Y12817143D01*
X-30187619Y12893334D01*
X-30149524Y12969524D01*
X-30301905Y12207619D02*
X-30340000Y12169524D01*
X-30378095Y12093333D01*
X-30378095Y11902857D01*
X-30340000Y11826667D01*
X-30301905Y11788571D01*
X-30225714Y11750476D01*
X-30149524Y11750476D01*
X-30035238Y11788571D01*
X-29578095Y12245714D01*
X-29578095Y11750476D01*
X-27864286Y13164286D02*
X-27826190Y13202381D01*
X-27788095Y13316667D01*
X-27788095Y13392857D01*
X-27826190Y13507143D01*
X-27902381Y13583334D01*
X-27978571Y13621429D01*
X-28130952Y13659524D01*
X-28245238Y13659524D01*
X-28397619Y13621429D01*
X-28473810Y13583334D01*
X-28550000Y13507143D01*
X-28588095Y13392857D01*
X-28588095Y13316667D01*
X-28550000Y13202381D01*
X-28511905Y13164286D01*
X-27788095Y12402381D02*
X-27788095Y12859524D01*
X-27788095Y12630953D02*
X-28588095Y12630953D01*
X-28473810Y12707143D01*
X-28397619Y12783334D01*
X-28359524Y12859524D01*
X-28588095Y12135714D02*
X-28588095Y11640476D01*
X-28283333Y11907143D01*
X-28283333Y11792857D01*
X-28245238Y11716667D01*
X-28207143Y11678571D01*
X-28130952Y11640476D01*
X-27940476Y11640476D01*
X-27864286Y11678571D01*
X-27826190Y11716667D01*
X-27788095Y11792857D01*
X-27788095Y12021429D01*
X-27826190Y12097619D01*
X-27864286Y12135714D01*
X-26124286Y13164286D02*
X-26086190Y13202381D01*
X-26048095Y13316667D01*
X-26048095Y13392857D01*
X-26086190Y13507143D01*
X-26162381Y13583334D01*
X-26238571Y13621429D01*
X-26390952Y13659524D01*
X-26505238Y13659524D01*
X-26657619Y13621429D01*
X-26733810Y13583334D01*
X-26810000Y13507143D01*
X-26848095Y13392857D01*
X-26848095Y13316667D01*
X-26810000Y13202381D01*
X-26771905Y13164286D01*
X-26048095Y12402381D02*
X-26048095Y12859524D01*
X-26048095Y12630953D02*
X-26848095Y12630953D01*
X-26733810Y12707143D01*
X-26657619Y12783334D01*
X-26619524Y12859524D01*
X-26848095Y11907143D02*
X-26848095Y11830952D01*
X-26810000Y11754762D01*
X-26771905Y11716667D01*
X-26695714Y11678571D01*
X-26543333Y11640476D01*
X-26352857Y11640476D01*
X-26200476Y11678571D01*
X-26124286Y11716667D01*
X-26086190Y11754762D01*
X-26048095Y11830952D01*
X-26048095Y11907143D01*
X-26086190Y11983333D01*
X-26124286Y12021429D01*
X-26200476Y12059524D01*
X-26352857Y12097619D01*
X-26543333Y12097619D01*
X-26695714Y12059524D01*
X-26771905Y12021429D01*
X-26810000Y11983333D01*
X-26848095Y11907143D01*
X-24354286Y13124286D02*
X-24316190Y13162381D01*
X-24278095Y13276667D01*
X-24278095Y13352857D01*
X-24316190Y13467143D01*
X-24392381Y13543334D01*
X-24468571Y13581429D01*
X-24620952Y13619524D01*
X-24735238Y13619524D01*
X-24887619Y13581429D01*
X-24963810Y13543334D01*
X-25040000Y13467143D01*
X-25078095Y13352857D01*
X-25078095Y13276667D01*
X-25040000Y13162381D01*
X-25001905Y13124286D01*
X-24278095Y12362381D02*
X-24278095Y12819524D01*
X-24278095Y12590953D02*
X-25078095Y12590953D01*
X-24963810Y12667143D01*
X-24887619Y12743334D01*
X-24849524Y12819524D01*
X-24278095Y11600476D02*
X-24278095Y12057619D01*
X-24278095Y11829048D02*
X-25078095Y11829048D01*
X-24963810Y11905238D01*
X-24887619Y11981429D01*
X-24849524Y12057619D01*
X-22324286Y12473333D02*
X-22286190Y12511428D01*
X-22248095Y12625714D01*
X-22248095Y12701904D01*
X-22286190Y12816190D01*
X-22362381Y12892381D01*
X-22438571Y12930476D01*
X-22590952Y12968571D01*
X-22705238Y12968571D01*
X-22857619Y12930476D01*
X-22933810Y12892381D01*
X-23010000Y12816190D01*
X-23048095Y12701904D01*
X-23048095Y12625714D01*
X-23010000Y12511428D01*
X-22971905Y12473333D01*
X-23048095Y12206666D02*
X-23048095Y11711428D01*
X-22743333Y11978095D01*
X-22743333Y11863809D01*
X-22705238Y11787619D01*
X-22667143Y11749523D01*
X-22590952Y11711428D01*
X-22400476Y11711428D01*
X-22324286Y11749523D01*
X-22286190Y11787619D01*
X-22248095Y11863809D01*
X-22248095Y12092381D01*
X-22286190Y12168571D01*
X-22324286Y12206666D01*
X-20108095Y12423333D02*
X-20489048Y12690000D01*
X-20108095Y12880476D02*
X-20908095Y12880476D01*
X-20908095Y12575714D01*
X-20870000Y12499523D01*
X-20831905Y12461428D01*
X-20755714Y12423333D01*
X-20641429Y12423333D01*
X-20565238Y12461428D01*
X-20527143Y12499523D01*
X-20489048Y12575714D01*
X-20489048Y12880476D01*
X-20831905Y12118571D02*
X-20870000Y12080476D01*
X-20908095Y12004285D01*
X-20908095Y11813809D01*
X-20870000Y11737619D01*
X-20831905Y11699523D01*
X-20755714Y11661428D01*
X-20679524Y11661428D01*
X-20565238Y11699523D01*
X-20108095Y12156666D01*
X-20108095Y11661428D01*
X-16394286Y12623333D02*
X-16356190Y12661428D01*
X-16318095Y12775714D01*
X-16318095Y12851904D01*
X-16356190Y12966190D01*
X-16432381Y13042381D01*
X-16508571Y13080476D01*
X-16660952Y13118571D01*
X-16775238Y13118571D01*
X-16927619Y13080476D01*
X-17003810Y13042381D01*
X-17080000Y12966190D01*
X-17118095Y12851904D01*
X-17118095Y12775714D01*
X-17080000Y12661428D01*
X-17041905Y12623333D01*
X-16318095Y12242381D02*
X-16318095Y12090000D01*
X-16356190Y12013809D01*
X-16394286Y11975714D01*
X-16508571Y11899523D01*
X-16660952Y11861428D01*
X-16965714Y11861428D01*
X-17041905Y11899523D01*
X-17080000Y11937619D01*
X-17118095Y12013809D01*
X-17118095Y12166190D01*
X-17080000Y12242381D01*
X-17041905Y12280476D01*
X-16965714Y12318571D01*
X-16775238Y12318571D01*
X-16699048Y12280476D01*
X-16660952Y12242381D01*
X-16622857Y12166190D01*
X-16622857Y12013809D01*
X-16660952Y11937619D01*
X-16699048Y11899523D01*
X-16775238Y11861428D01*
X-14654286Y12613333D02*
X-14616190Y12651428D01*
X-14578095Y12765714D01*
X-14578095Y12841904D01*
X-14616190Y12956190D01*
X-14692381Y13032381D01*
X-14768571Y13070476D01*
X-14920952Y13108571D01*
X-15035238Y13108571D01*
X-15187619Y13070476D01*
X-15263810Y13032381D01*
X-15340000Y12956190D01*
X-15378095Y12841904D01*
X-15378095Y12765714D01*
X-15340000Y12651428D01*
X-15301905Y12613333D01*
X-15035238Y12156190D02*
X-15073333Y12232381D01*
X-15111429Y12270476D01*
X-15187619Y12308571D01*
X-15225714Y12308571D01*
X-15301905Y12270476D01*
X-15340000Y12232381D01*
X-15378095Y12156190D01*
X-15378095Y12003809D01*
X-15340000Y11927619D01*
X-15301905Y11889523D01*
X-15225714Y11851428D01*
X-15187619Y11851428D01*
X-15111429Y11889523D01*
X-15073333Y11927619D01*
X-15035238Y12003809D01*
X-15035238Y12156190D01*
X-14997143Y12232381D01*
X-14959048Y12270476D01*
X-14882857Y12308571D01*
X-14730476Y12308571D01*
X-14654286Y12270476D01*
X-14616190Y12232381D01*
X-14578095Y12156190D01*
X-14578095Y12003809D01*
X-14616190Y11927619D01*
X-14654286Y11889523D01*
X-14730476Y11851428D01*
X-14882857Y11851428D01*
X-14959048Y11889523D01*
X-14997143Y11927619D01*
X-15035238Y12003809D01*
X-12884286Y12623333D02*
X-12846190Y12661428D01*
X-12808095Y12775714D01*
X-12808095Y12851904D01*
X-12846190Y12966190D01*
X-12922381Y13042381D01*
X-12998571Y13080476D01*
X-13150952Y13118571D01*
X-13265238Y13118571D01*
X-13417619Y13080476D01*
X-13493810Y13042381D01*
X-13570000Y12966190D01*
X-13608095Y12851904D01*
X-13608095Y12775714D01*
X-13570000Y12661428D01*
X-13531905Y12623333D01*
X-13608095Y12356666D02*
X-13608095Y11823333D01*
X-12808095Y12166190D01*
X-11054286Y12633333D02*
X-11016190Y12671428D01*
X-10978095Y12785714D01*
X-10978095Y12861904D01*
X-11016190Y12976190D01*
X-11092381Y13052381D01*
X-11168571Y13090476D01*
X-11320952Y13128571D01*
X-11435238Y13128571D01*
X-11587619Y13090476D01*
X-11663810Y13052381D01*
X-11740000Y12976190D01*
X-11778095Y12861904D01*
X-11778095Y12785714D01*
X-11740000Y12671428D01*
X-11701905Y12633333D01*
X-11778095Y11947619D02*
X-11778095Y12100000D01*
X-11740000Y12176190D01*
X-11701905Y12214285D01*
X-11587619Y12290476D01*
X-11435238Y12328571D01*
X-11130476Y12328571D01*
X-11054286Y12290476D01*
X-11016190Y12252381D01*
X-10978095Y12176190D01*
X-10978095Y12023809D01*
X-11016190Y11947619D01*
X-11054286Y11909523D01*
X-11130476Y11871428D01*
X-11320952Y11871428D01*
X-11397143Y11909523D01*
X-11435238Y11947619D01*
X-11473333Y12023809D01*
X-11473333Y12176190D01*
X-11435238Y12252381D01*
X-11397143Y12290476D01*
X-11320952Y12328571D01*
X-9058095Y12543333D02*
X-9439048Y12810000D01*
X-9058095Y13000476D02*
X-9858095Y13000476D01*
X-9858095Y12695714D01*
X-9820000Y12619523D01*
X-9781905Y12581428D01*
X-9705714Y12543333D01*
X-9591429Y12543333D01*
X-9515238Y12581428D01*
X-9477143Y12619523D01*
X-9439048Y12695714D01*
X-9439048Y13000476D01*
X-9858095Y11819523D02*
X-9858095Y12200476D01*
X-9477143Y12238571D01*
X-9515238Y12200476D01*
X-9553333Y12124285D01*
X-9553333Y11933809D01*
X-9515238Y11857619D01*
X-9477143Y11819523D01*
X-9400952Y11781428D01*
X-9210476Y11781428D01*
X-9134286Y11819523D01*
X-9096190Y11857619D01*
X-9058095Y11933809D01*
X-9058095Y12124285D01*
X-9096190Y12200476D01*
X-9134286Y12238571D01*
D13*
X-6752143Y7752143D02*
X-6716429Y7787857D01*
X-6680714Y7895000D01*
X-6680714Y7966429D01*
X-6716429Y8073572D01*
X-6787857Y8145000D01*
X-6859286Y8180715D01*
X-7002143Y8216429D01*
X-7109286Y8216429D01*
X-7252143Y8180715D01*
X-7323571Y8145000D01*
X-7395000Y8073572D01*
X-7430714Y7966429D01*
X-7430714Y7895000D01*
X-7395000Y7787857D01*
X-7359286Y7752143D01*
X-6680714Y7037857D02*
X-6680714Y7466429D01*
X-6680714Y7252143D02*
X-7430714Y7252143D01*
X-7323571Y7323572D01*
X-7252143Y7395000D01*
X-7216429Y7466429D01*
X-7180714Y6395000D02*
X-6680714Y6395000D01*
X-7466429Y6573571D02*
X-6930714Y6752143D01*
X-6930714Y6287857D01*
D11*
X-8938095Y7103333D02*
X-9319048Y7370000D01*
X-8938095Y7560476D02*
X-9738095Y7560476D01*
X-9738095Y7255714D01*
X-9700000Y7179523D01*
X-9661905Y7141428D01*
X-9585714Y7103333D01*
X-9471429Y7103333D01*
X-9395238Y7141428D01*
X-9357143Y7179523D01*
X-9319048Y7255714D01*
X-9319048Y7560476D01*
X-9738095Y6417619D02*
X-9738095Y6570000D01*
X-9700000Y6646190D01*
X-9661905Y6684285D01*
X-9547619Y6760476D01*
X-9395238Y6798571D01*
X-9090476Y6798571D01*
X-9014286Y6760476D01*
X-8976190Y6722381D01*
X-8938095Y6646190D01*
X-8938095Y6493809D01*
X-8976190Y6417619D01*
X-9014286Y6379523D01*
X-9090476Y6341428D01*
X-9280952Y6341428D01*
X-9357143Y6379523D01*
X-9395238Y6417619D01*
X-9433333Y6493809D01*
X-9433333Y6646190D01*
X-9395238Y6722381D01*
X-9357143Y6760476D01*
X-9280952Y6798571D01*
X-20138095Y7173333D02*
X-20519048Y7440000D01*
X-20138095Y7630476D02*
X-20938095Y7630476D01*
X-20938095Y7325714D01*
X-20900000Y7249523D01*
X-20861905Y7211428D01*
X-20785714Y7173333D01*
X-20671429Y7173333D01*
X-20595238Y7211428D01*
X-20557143Y7249523D01*
X-20519048Y7325714D01*
X-20519048Y7630476D01*
X-20938095Y6906666D02*
X-20938095Y6373333D01*
X-20138095Y6716190D01*
X-22234286Y7243333D02*
X-22196190Y7281428D01*
X-22158095Y7395714D01*
X-22158095Y7471904D01*
X-22196190Y7586190D01*
X-22272381Y7662381D01*
X-22348571Y7700476D01*
X-22500952Y7738571D01*
X-22615238Y7738571D01*
X-22767619Y7700476D01*
X-22843810Y7662381D01*
X-22920000Y7586190D01*
X-22958095Y7471904D01*
X-22958095Y7395714D01*
X-22920000Y7281428D01*
X-22881905Y7243333D01*
X-22691429Y6557619D02*
X-22158095Y6557619D01*
X-22996190Y6748095D02*
X-22424762Y6938571D01*
X-22424762Y6443333D01*
X-23964286Y7223333D02*
X-23926190Y7261428D01*
X-23888095Y7375714D01*
X-23888095Y7451904D01*
X-23926190Y7566190D01*
X-24002381Y7642381D01*
X-24078571Y7680476D01*
X-24230952Y7718571D01*
X-24345238Y7718571D01*
X-24497619Y7680476D01*
X-24573810Y7642381D01*
X-24650000Y7566190D01*
X-24688095Y7451904D01*
X-24688095Y7375714D01*
X-24650000Y7261428D01*
X-24611905Y7223333D01*
X-24688095Y6499523D02*
X-24688095Y6880476D01*
X-24307143Y6918571D01*
X-24345238Y6880476D01*
X-24383333Y6804285D01*
X-24383333Y6613809D01*
X-24345238Y6537619D01*
X-24307143Y6499523D01*
X-24230952Y6461428D01*
X-24040476Y6461428D01*
X-23964286Y6499523D01*
X-23926190Y6537619D01*
X-23888095Y6613809D01*
X-23888095Y6804285D01*
X-23926190Y6880476D01*
X-23964286Y6918571D01*
X-26960476Y7768095D02*
X-26960476Y7120476D01*
X-26998571Y7044286D01*
X-27036667Y7006190D01*
X-27112857Y6968095D01*
X-27265238Y6968095D01*
X-27341429Y7006190D01*
X-27379524Y7044286D01*
X-27417619Y7120476D01*
X-27417619Y7768095D01*
X-28217619Y6968095D02*
X-27760476Y6968095D01*
X-27989047Y6968095D02*
X-27989047Y7768095D01*
X-27912857Y7653810D01*
X-27836666Y7577619D01*
X-27760476Y7539524D01*
X-30164286Y7263333D02*
X-30126190Y7301428D01*
X-30088095Y7415714D01*
X-30088095Y7491904D01*
X-30126190Y7606190D01*
X-30202381Y7682381D01*
X-30278571Y7720476D01*
X-30430952Y7758571D01*
X-30545238Y7758571D01*
X-30697619Y7720476D01*
X-30773810Y7682381D01*
X-30850000Y7606190D01*
X-30888095Y7491904D01*
X-30888095Y7415714D01*
X-30850000Y7301428D01*
X-30811905Y7263333D01*
X-30088095Y6501428D02*
X-30088095Y6958571D01*
X-30088095Y6730000D02*
X-30888095Y6730000D01*
X-30773810Y6806190D01*
X-30697619Y6882381D01*
X-30659524Y6958571D01*
X-32034286Y7233333D02*
X-31996190Y7271428D01*
X-31958095Y7385714D01*
X-31958095Y7461904D01*
X-31996190Y7576190D01*
X-32072381Y7652381D01*
X-32148571Y7690476D01*
X-32300952Y7728571D01*
X-32415238Y7728571D01*
X-32567619Y7690476D01*
X-32643810Y7652381D01*
X-32720000Y7576190D01*
X-32758095Y7461904D01*
X-32758095Y7385714D01*
X-32720000Y7271428D01*
X-32681905Y7233333D01*
X-32681905Y6928571D02*
X-32720000Y6890476D01*
X-32758095Y6814285D01*
X-32758095Y6623809D01*
X-32720000Y6547619D01*
X-32681905Y6509523D01*
X-32605714Y6471428D01*
X-32529524Y6471428D01*
X-32415238Y6509523D01*
X-31958095Y6966666D01*
X-31958095Y6471428D01*
X-33818095Y7213333D02*
X-34199048Y7480000D01*
X-33818095Y7670476D02*
X-34618095Y7670476D01*
X-34618095Y7365714D01*
X-34580000Y7289523D01*
X-34541905Y7251428D01*
X-34465714Y7213333D01*
X-34351429Y7213333D01*
X-34275238Y7251428D01*
X-34237143Y7289523D01*
X-34199048Y7365714D01*
X-34199048Y7670476D01*
X-34275238Y6756190D02*
X-34313333Y6832381D01*
X-34351429Y6870476D01*
X-34427619Y6908571D01*
X-34465714Y6908571D01*
X-34541905Y6870476D01*
X-34580000Y6832381D01*
X-34618095Y6756190D01*
X-34618095Y6603809D01*
X-34580000Y6527619D01*
X-34541905Y6489523D01*
X-34465714Y6451428D01*
X-34427619Y6451428D01*
X-34351429Y6489523D01*
X-34313333Y6527619D01*
X-34275238Y6603809D01*
X-34275238Y6756190D01*
X-34237143Y6832381D01*
X-34199048Y6870476D01*
X-34122857Y6908571D01*
X-33970476Y6908571D01*
X-33894286Y6870476D01*
X-33856190Y6832381D01*
X-33818095Y6756190D01*
X-33818095Y6603809D01*
X-33856190Y6527619D01*
X-33894286Y6489523D01*
X-33970476Y6451428D01*
X-34122857Y6451428D01*
X-34199048Y6489523D01*
X-34237143Y6527619D01*
X-34275238Y6603809D01*
M02*
