M48
;DRILL file {KiCad 4.0.7} date 11/14/17 20:11:35
;FORMAT={-:-/ absolute / metric / decimal}
FMAT,2
METRIC,TZ
T1C0.300
T2C0.600
T3C0.800
T4C0.850
T5C1.000
%
G90
G05
M71
T1
X-49.27Y2.39
X-46.97Y7.1
X-45.811Y2.299
X-44.52Y9.12
X-44.08Y14.
X-43.97Y6.78
X-43.76Y4.12
X-43.599Y7.693
X-43.58Y8.41
X-40.51Y12.06
X-40.28Y8.52
X-39.79Y-0.527
X-39.77Y1.91
X-39.75Y-1.866
X-39.407Y12.05
X-35.56Y14.12
X-35.554Y10.344
X-34.34Y1.8
X-33.628Y8.329
X-33.178Y8.802
X-33.13Y10.18
X-33.08Y11.94
X-32.9Y3.232
X-32.72Y7.66
X-31.606Y2.666
X-30.88Y2.076
X-30.01Y13.25
X-29.75Y2.4
X-29.71Y-0.51
X-29.12Y9.67
X-28.34Y13.869
X-27.95Y8.35
X-27.77Y-1.234
X-27.5Y8.085
X-27.47Y13.21
X-27.01Y8.41
X-26.543Y2.113
X-25.705Y2.175
X-25.33Y1.55
X-24.559Y12.92
X-24.014Y12.467
X-22.78Y12.45
X-21.911Y12.286
X-21.895Y11.623
X-21.566Y5.964
X-21.38Y12.74
X-21.287Y7.123
X-20.66Y4.89
X-20.65Y3.25
X-20.28Y8.31
X-18.34Y11.26
X-16.6Y6.68
X-12.182Y10.167
X-12.17Y10.82
X-11.166Y13.44
X-10.298Y13.448
X-9.184Y4.647
X-9.1Y10.01
X-8.52Y13.71
X-5.85Y5.55
X-1.36Y11.64
X-0.748Y14.239
X-0.73Y13.01
T3
X-18.44Y10.04
X-18.44Y5.16
T4
X-45.78Y10.23
X-45.78Y5.23
T5
X-48.69Y15.7
X-48.69Y0.2
X-46.15Y15.7
X-46.15Y0.2
X-43.61Y15.7
X-43.61Y0.2
X-41.552Y6.302
X-41.552Y3.762
X-41.07Y15.7
X-41.07Y0.2
X-39.012Y6.302
X-39.012Y3.762
X-38.53Y15.7
X-38.53Y0.2
X-36.472Y6.302
X-36.472Y3.762
X-35.99Y15.7
X-35.99Y0.2
X-33.45Y15.7
X-33.45Y0.2
X-30.91Y15.7
X-30.91Y0.2
X-28.37Y15.7
X-28.37Y0.2
X-25.83Y15.7
X-25.83Y0.2
X-23.29Y15.7
X-23.29Y0.2
X-20.75Y15.7
X-20.75Y0.2
X-18.21Y15.7
X-18.21Y0.2
X-15.67Y15.7
X-15.67Y0.2
X-13.13Y15.7
X-13.13Y0.2
X-10.59Y15.7
X-10.59Y0.2
X-8.05Y15.7
X-8.05Y0.2
X-5.51Y15.7
X-5.51Y0.2
X-2.97Y15.7
X-2.97Y0.2
X-2.81Y12.9
X-2.81Y10.36
X-2.81Y7.82
X-2.81Y5.28
X-2.81Y2.74
X-0.43Y15.7
X-0.43Y0.2
T2
X-48.83Y11.23G85X-48.13Y11.23
G05
X-48.13Y4.23G85X-48.83Y4.23
G05
T0
M30
