%TF.GenerationSoftware,KiCad,Pcbnew,4.0.7*%
%TF.CreationDate,2017-11-14T20:11:37+08:00*%
%TF.ProjectId,STM32F401CCT6,53544D333246343031434354362E6B69,rev?*%
%TF.FileFunction,Paste,Bot*%
%FSLAX46Y46*%
G04 Gerber Fmt 4.6, Leading zero omitted, Abs format (unit mm)*
G04 Created by KiCad (PCBNEW 4.0.7) date 11/14/17 20:11:37*
%MOMM*%
%LPD*%
G01*
G04 APERTURE LIST*
%ADD10C,0.100000*%
%ADD11R,0.750000X0.800000*%
%ADD12R,0.900000X0.500000*%
%ADD13R,0.500000X0.900000*%
%ADD14R,1.060000X0.650000*%
%ADD15R,0.800000X0.750000*%
G04 APERTURE END LIST*
D10*
D11*
X-11220000Y9310000D03*
X-11220000Y10810000D03*
D12*
X-48410000Y8540000D03*
X-48410000Y7040000D03*
D13*
X-41130000Y11140000D03*
X-42630000Y11140000D03*
X-41130000Y9230000D03*
X-42630000Y9230000D03*
D14*
X-36700000Y10920000D03*
X-36700000Y9970000D03*
X-36700000Y9020000D03*
X-38900000Y9020000D03*
X-38900000Y10920000D03*
X-38900000Y9970000D03*
D13*
X-37170000Y12870000D03*
X-38670000Y12870000D03*
D12*
X-31810000Y10860000D03*
X-31810000Y9360000D03*
D11*
X-26380000Y9350000D03*
X-26380000Y10850000D03*
X-28260000Y9320000D03*
X-28260000Y10820000D03*
X-24690000Y9340000D03*
X-24690000Y10840000D03*
X-29990000Y9340000D03*
X-29990000Y10840000D03*
X-22810000Y9330000D03*
X-22810000Y10830000D03*
D12*
X-20500000Y9290000D03*
X-20500000Y10790000D03*
D11*
X-16710000Y10830000D03*
X-16710000Y9330000D03*
X-14980000Y10830000D03*
X-14980000Y9330000D03*
X-13080000Y9310000D03*
X-13080000Y10810000D03*
D12*
X-9340000Y10780000D03*
X-9340000Y9280000D03*
D11*
X-7010000Y4050000D03*
X-7010000Y5550000D03*
D12*
X-10390000Y5570000D03*
X-10390000Y4070000D03*
X-20570000Y5630000D03*
X-20570000Y4130000D03*
D11*
X-22560000Y5650000D03*
X-22560000Y4150000D03*
X-24300000Y5660000D03*
X-24300000Y4160000D03*
D14*
X-28580000Y4000000D03*
X-28580000Y4950000D03*
X-28580000Y5900000D03*
X-26380000Y5900000D03*
X-26380000Y4000000D03*
D11*
X-30350000Y5630000D03*
X-30350000Y4130000D03*
X-31990000Y4140000D03*
X-31990000Y5640000D03*
D12*
X-33670000Y5630000D03*
X-33670000Y4130000D03*
D15*
X-34620000Y12850000D03*
X-33120000Y12850000D03*
X-44100000Y12910000D03*
X-45600000Y12910000D03*
D11*
X-4910000Y4020000D03*
X-4910000Y5520000D03*
X-16040000Y5590000D03*
X-16040000Y4090000D03*
D15*
X-19180000Y7120000D03*
X-17680000Y7120000D03*
D13*
X-48380000Y2410000D03*
X-46880000Y2410000D03*
M02*
