%TF.GenerationSoftware,KiCad,Pcbnew,4.0.7*%
%TF.CreationDate,2017-11-14T20:11:37+08:00*%
%TF.ProjectId,STM32F401CCT6,53544D333246343031434354362E6B69,rev?*%
%TF.FileFunction,Copper,L2,Bot,Signal*%
%FSLAX46Y46*%
G04 Gerber Fmt 4.6, Leading zero omitted, Abs format (unit mm)*
G04 Created by KiCad (PCBNEW 4.0.7) date 11/14/17 20:11:37*
%MOMM*%
%LPD*%
G01*
G04 APERTURE LIST*
%ADD10C,0.100000*%
%ADD11R,0.750000X0.800000*%
%ADD12R,1.700000X1.700000*%
%ADD13O,1.700000X1.700000*%
%ADD14C,1.450000*%
%ADD15O,1.900000X1.200000*%
%ADD16R,0.900000X0.500000*%
%ADD17R,0.500000X0.900000*%
%ADD18R,1.060000X0.650000*%
%ADD19C,1.500000*%
%ADD20R,0.800000X0.750000*%
%ADD21C,0.453000*%
%ADD22C,0.400000*%
%ADD23C,0.250000*%
%ADD24C,0.500000*%
%ADD25C,0.300000*%
%ADD26C,0.254000*%
G04 APERTURE END LIST*
D10*
D11*
X-11220000Y9310000D03*
X-11220000Y10810000D03*
D12*
X-36472000Y6302000D03*
D13*
X-36472000Y3762000D03*
X-39012000Y6302000D03*
X-39012000Y3762000D03*
X-41552000Y6302000D03*
X-41552000Y3762000D03*
D12*
X-430000Y15700000D03*
D13*
X-2970000Y15700000D03*
X-5510000Y15700000D03*
X-8050000Y15700000D03*
X-10590000Y15700000D03*
X-13130000Y15700000D03*
X-15670000Y15700000D03*
X-18210000Y15700000D03*
X-20750000Y15700000D03*
X-23290000Y15700000D03*
X-25830000Y15700000D03*
X-28370000Y15700000D03*
X-30910000Y15700000D03*
X-33450000Y15700000D03*
X-35990000Y15700000D03*
X-38530000Y15700000D03*
X-41070000Y15700000D03*
X-43610000Y15700000D03*
X-46150000Y15700000D03*
X-48690000Y15700000D03*
D12*
X-430000Y200000D03*
D13*
X-2970000Y200000D03*
X-5510000Y200000D03*
X-8050000Y200000D03*
X-10590000Y200000D03*
X-13130000Y200000D03*
X-15670000Y200000D03*
X-18210000Y200000D03*
X-20750000Y200000D03*
X-23290000Y200000D03*
X-25830000Y200000D03*
X-28370000Y200000D03*
X-30910000Y200000D03*
X-33450000Y200000D03*
X-35990000Y200000D03*
X-38530000Y200000D03*
X-41070000Y200000D03*
X-43610000Y200000D03*
X-46150000Y200000D03*
X-48690000Y200000D03*
D14*
X-45780000Y10230000D03*
X-45780000Y5230000D03*
D15*
X-48480000Y11230000D03*
X-48480000Y4230000D03*
D12*
X-2810000Y12900000D03*
D13*
X-2810000Y10360000D03*
X-2810000Y7820000D03*
X-2810000Y5280000D03*
X-2810000Y2740000D03*
D16*
X-48410000Y8540000D03*
X-48410000Y7040000D03*
D17*
X-41130000Y11140000D03*
X-42630000Y11140000D03*
X-41130000Y9230000D03*
X-42630000Y9230000D03*
D18*
X-36700000Y10920000D03*
X-36700000Y9970000D03*
X-36700000Y9020000D03*
X-38900000Y9020000D03*
X-38900000Y10920000D03*
X-38900000Y9970000D03*
D17*
X-37170000Y12870000D03*
X-38670000Y12870000D03*
D16*
X-31810000Y10860000D03*
X-31810000Y9360000D03*
D11*
X-26380000Y9350000D03*
X-26380000Y10850000D03*
X-28260000Y9320000D03*
X-28260000Y10820000D03*
X-24690000Y9340000D03*
X-24690000Y10840000D03*
X-29990000Y9340000D03*
X-29990000Y10840000D03*
X-22810000Y9330000D03*
X-22810000Y10830000D03*
D16*
X-20500000Y9290000D03*
X-20500000Y10790000D03*
D11*
X-16710000Y10830000D03*
X-16710000Y9330000D03*
X-14980000Y10830000D03*
X-14980000Y9330000D03*
X-13080000Y9310000D03*
X-13080000Y10810000D03*
D16*
X-9340000Y10780000D03*
X-9340000Y9280000D03*
D11*
X-7010000Y4050000D03*
X-7010000Y5550000D03*
D16*
X-10390000Y5570000D03*
X-10390000Y4070000D03*
X-20570000Y5630000D03*
X-20570000Y4130000D03*
D11*
X-22560000Y5650000D03*
X-22560000Y4150000D03*
X-24300000Y5660000D03*
X-24300000Y4160000D03*
D18*
X-28580000Y4000000D03*
X-28580000Y4950000D03*
X-28580000Y5900000D03*
X-26380000Y5900000D03*
X-26380000Y4000000D03*
D11*
X-30350000Y5630000D03*
X-30350000Y4130000D03*
X-31990000Y4140000D03*
X-31990000Y5640000D03*
D16*
X-33670000Y5630000D03*
X-33670000Y4130000D03*
D19*
X-18440000Y5160000D03*
X-18440000Y10040000D03*
D20*
X-34620000Y12850000D03*
X-33120000Y12850000D03*
X-44100000Y12910000D03*
X-45600000Y12910000D03*
D11*
X-4910000Y4020000D03*
X-4910000Y5520000D03*
X-16040000Y5590000D03*
X-16040000Y4090000D03*
D20*
X-19180000Y7120000D03*
X-17680000Y7120000D03*
D17*
X-48380000Y2410000D03*
X-46880000Y2410000D03*
D21*
X-45810926Y2299148D03*
X-44520000Y9120000D03*
X-27770000Y-1233500D03*
X-43760000Y4120000D03*
X-24013500Y12466970D03*
X-35554218Y10344292D03*
X-33130000Y10180000D03*
X-39407008Y12050000D03*
X-40510000Y12060000D03*
X-21286532Y7123500D03*
X-43970000Y6780000D03*
X-21566475Y5963525D03*
X-18340000Y11260000D03*
X-29750094Y2400094D03*
X-16600000Y6680000D03*
X-44080000Y14000000D03*
X-29120000Y9670000D03*
X-27500000Y8084990D03*
X-27010000Y8410000D03*
X-27950000Y8350000D03*
X-20280000Y8310000D03*
X-33628498Y8329120D03*
X-22779998Y12450000D03*
X-730000Y13010000D03*
X-748265Y14239258D03*
X-12170000Y10820000D03*
X-10298235Y13448235D03*
X-12181870Y10167116D03*
X-11166363Y13439734D03*
X-21894722Y11623472D03*
X-21910679Y12286071D03*
X-9100000Y10010000D03*
X-9183508Y4646692D03*
X-40280000Y8520000D03*
X-32720000Y7660000D03*
X-32900000Y3231500D03*
X-34339767Y1799767D03*
X-8520000Y13710000D03*
X-27470000Y13210000D03*
X-28340000Y13868502D03*
X-30010000Y13250000D03*
X-25705435Y2175496D03*
X-25330000Y1550000D03*
X-30880044Y2076491D03*
X-31605754Y2665754D03*
X-20650000Y3250000D03*
X-33080000Y11940000D03*
X-43580000Y8410000D03*
X-46970000Y7100000D03*
X-43599204Y7693017D03*
X-35560000Y14120000D03*
X-49270000Y2390000D03*
X-29710009Y-510009D03*
X-39770000Y1910000D03*
X-39750000Y-1866500D03*
X-39790000Y-527008D03*
X-20660000Y4890000D03*
X-33178387Y8802206D03*
X-1360000Y11640000D03*
X-5850000Y5550000D03*
X-26542855Y2113317D03*
X-24558715Y12920000D03*
X-21380000Y12740000D03*
D22*
X-28580000Y4000000D02*
X-28580000Y2492791D01*
X-28580000Y2492791D02*
X-29622800Y1449991D01*
X-29622800Y1449991D02*
X-31509997Y1449991D01*
X-31509997Y1449991D02*
X-32200000Y759988D01*
X-32200000Y759988D02*
X-32200000Y-460000D01*
X-41479988Y-1240000D02*
X-39382791Y-1240000D01*
X-39382791Y-1240000D02*
X-32500000Y-1240000D01*
X-43760000Y4120000D02*
X-42319991Y2679991D01*
X-42319991Y2679991D02*
X-42319991Y-399997D01*
X-42319991Y-399997D02*
X-41479988Y-1240000D01*
X-32190000Y-1233500D02*
X-31890000Y-1233500D01*
X-32183500Y-940000D02*
X-31890000Y-1233500D01*
X-31890000Y-1233500D02*
X-28090319Y-1233500D01*
X-32200000Y-940000D02*
X-32183500Y-940000D01*
X-32200000Y-800000D02*
X-32200000Y-1223500D01*
X-32200000Y-800000D02*
X-32200000Y-940000D01*
X-32200000Y-460000D02*
X-32200000Y-800000D01*
X-32200000Y-940000D02*
X-32500000Y-1240000D01*
X-32493500Y-1233500D02*
X-32190000Y-1233500D01*
X-32200000Y-1223500D02*
X-32190000Y-1233500D01*
D23*
X-46770000Y2300000D02*
X-45811778Y2300000D01*
X-45811778Y2300000D02*
X-45810926Y2299148D01*
D22*
X-44640000Y5000000D02*
X-44640000Y9000000D01*
D23*
X-44640000Y9000000D02*
X-44520000Y9120000D01*
D22*
X-32500000Y-1240000D02*
X-32493500Y-1233500D01*
X-28090319Y-1233500D02*
X-27770000Y-1233500D01*
X-43760000Y4120000D02*
X-44640000Y5000000D01*
X-30510000Y4130000D02*
X-28710000Y4130000D01*
X-28710000Y4130000D02*
X-28580000Y4000000D01*
X-32200000Y-460000D02*
X-32196499Y-463501D01*
D23*
X-28580000Y3425000D02*
X-28580000Y4000000D01*
D22*
X-32200000Y17110000D02*
X-32550000Y17110000D01*
X-32550000Y17110000D02*
X-44740000Y17110000D01*
X-32200000Y16750000D02*
X-32200000Y16760000D01*
X-32200000Y16760000D02*
X-32550000Y17110000D01*
X-32200000Y16750000D02*
X-32200000Y17110000D01*
X-32200000Y13820000D02*
X-32200000Y16750000D01*
X-32200000Y17110000D02*
X-31840000Y17110000D01*
X-31840000Y17110000D02*
X-17770012Y17110000D01*
X-32200000Y16750000D02*
X-31840000Y17110000D01*
D24*
X-21286532Y7123500D02*
X-19183500Y7123500D01*
X-19183500Y7123500D02*
X-19180000Y7120000D01*
D22*
X-23770000Y9340000D02*
X-23770000Y11610000D01*
X-23770000Y11610000D02*
X-24020000Y11860000D01*
X-24020000Y11860000D02*
X-24020000Y12460470D01*
X-24020000Y12460470D02*
X-24013500Y12466970D01*
X-23787001Y12693469D02*
X-24013500Y12466970D01*
X-22955478Y13524992D02*
X-23787001Y12693469D01*
X-18535020Y13524992D02*
X-22955478Y13524992D01*
X-16960009Y15100003D02*
X-18535020Y13524992D01*
X-16960009Y16299997D02*
X-16960009Y15100003D01*
X-17770012Y17110000D02*
X-16960009Y16299997D01*
D23*
X-36700000Y9970000D02*
X-35928510Y9970000D01*
X-35928510Y9970000D02*
X-35554218Y10344292D01*
X-29990000Y9340000D02*
X-30615000Y9340000D01*
X-30615000Y9340000D02*
X-31455000Y10180000D01*
X-31455000Y10180000D02*
X-32809681Y10180000D01*
X-32809681Y10180000D02*
X-33130000Y10180000D01*
X-33120000Y12850000D02*
X-33095000Y12850000D01*
D22*
X-33120000Y12850000D02*
X-33120000Y12900000D01*
X-33120000Y12900000D02*
X-32200000Y13820000D01*
D23*
X-32880000Y12610000D02*
X-33120000Y12850000D01*
X-40510000Y12060000D02*
X-39417008Y12060000D01*
X-39417008Y12060000D02*
X-39407008Y12050000D01*
D24*
X-9340000Y10780000D02*
X-9570000Y10780000D01*
X-9570000Y10780000D02*
X-11040000Y9310000D01*
X-11040000Y9310000D02*
X-11220000Y9310000D01*
X-13080000Y9310000D02*
X-11220000Y9310000D01*
X-14980000Y10830000D02*
X-14730000Y10830000D01*
X-13210000Y9310000D02*
X-13080000Y9310000D01*
X-14730000Y10830000D02*
X-13210000Y9310000D01*
D23*
X-7010000Y4050000D02*
X-7010000Y4025000D01*
D22*
X-24690000Y9340000D02*
X-23770000Y9340000D01*
X-23770000Y9340000D02*
X-22820000Y9340000D01*
X-22820000Y9340000D02*
X-22810000Y9330000D01*
D23*
X-36700000Y9970000D02*
X-37093604Y9970000D01*
D24*
X-24690000Y9340000D02*
X-24605016Y9340000D01*
D22*
X-2810000Y12900000D02*
X-2810000Y13177209D01*
X-2810000Y13177209D02*
X-4260009Y14627218D01*
X-4260009Y14627218D02*
X-4260009Y16299997D01*
X-4260009Y16299997D02*
X-4910003Y16949991D01*
X-8649997Y16949991D02*
X-9340009Y16259979D01*
X-4910003Y16949991D02*
X-8649997Y16949991D01*
X-9340009Y16259979D02*
X-9340009Y10790009D01*
X-9340009Y10790009D02*
X-9320000Y10770000D01*
D23*
X-2970000Y200000D02*
X-4900000Y2130000D01*
X-4900000Y2130000D02*
X-4900000Y4070000D01*
X-4900000Y4070000D02*
X-6990000Y4070000D01*
X-6990000Y4070000D02*
X-7010000Y4050000D01*
D22*
X-32004984Y4130000D02*
X-30274984Y2400000D01*
X-30274984Y2400000D02*
X-29750188Y2400000D01*
X-29750188Y2400000D02*
X-29750094Y2400094D01*
X-30510000Y5630000D02*
X-30470000Y5590000D01*
X-30470000Y5590000D02*
X-29830000Y5590000D01*
X-29830000Y5590000D02*
X-29190000Y4950000D01*
X-29190000Y4950000D02*
X-28580000Y4950000D01*
X-32010000Y4130000D02*
X-30510000Y5630000D01*
X-44740000Y17110000D02*
X-45300001Y16549999D01*
X-45300001Y16549999D02*
X-46150000Y15700000D01*
D24*
X-41552000Y6302000D02*
X-42754081Y6302000D01*
X-42754081Y6302000D02*
X-43214957Y6762876D01*
X-43214957Y6762876D02*
X-43468401Y6762876D01*
X-43468401Y6762876D02*
X-43976491Y6762876D01*
D22*
X-21566475Y5868525D02*
X-21566475Y5963525D01*
X-22560000Y5650000D02*
X-21785000Y5650000D01*
X-21785000Y5650000D02*
X-21566475Y5868525D01*
D25*
X-24690000Y9340000D02*
X-24690000Y9435016D01*
D22*
X-16710000Y10830000D02*
X-16710000Y10850000D01*
X-16710000Y10850000D02*
X-17110000Y11250000D01*
X-17110000Y11250000D02*
X-18009681Y11250000D01*
X-18009681Y11250000D02*
X-18019681Y11260000D01*
X-18019681Y11260000D02*
X-18340000Y11260000D01*
D24*
X-29100000Y9330000D02*
X-29980000Y9330000D01*
D22*
X-16050000Y5650000D02*
X-16050000Y6130000D01*
X-16050000Y6130000D02*
X-16600000Y6680000D01*
D24*
X-44100000Y12910000D02*
X-44100000Y13980000D01*
X-44100000Y13980000D02*
X-44080000Y14000000D01*
X-25895000Y8110000D02*
X-27475000Y8110000D01*
X-24700000Y9305000D02*
X-25895000Y8110000D01*
X-27475000Y8110000D02*
X-27500000Y8135000D01*
X-19180000Y7120000D02*
X-19180000Y7210000D01*
X-19180000Y7210000D02*
X-20280000Y8310000D01*
X-24700000Y9330000D02*
X-24700000Y9305000D01*
X-27950000Y8350000D02*
X-27950000Y9010000D01*
X-27950000Y9010000D02*
X-28260000Y9320000D01*
X-27010000Y8410000D02*
X-27010000Y8770000D01*
X-27010000Y8770000D02*
X-26460000Y9320000D01*
X-29100000Y9330000D02*
X-28270000Y9330000D01*
X-29120000Y9670000D02*
X-29120000Y9350000D01*
X-29120000Y9350000D02*
X-29100000Y9330000D01*
X-28270000Y9330000D02*
X-28260000Y9320000D01*
X-26460000Y9320000D02*
X-28260000Y9320000D01*
X-24700000Y9330000D02*
X-26450000Y9330000D01*
X-26450000Y9330000D02*
X-26460000Y9320000D01*
X-24300000Y5660000D02*
X-22570000Y5660000D01*
X-22570000Y5660000D02*
X-22560000Y5650000D01*
X-41552000Y6302000D02*
X-41552000Y3762000D01*
X-9460000Y10830000D02*
X-9420000Y10790000D01*
X-16710000Y10830000D02*
X-14980000Y10830000D01*
D23*
X-25920010Y8084990D02*
X-24700000Y9305000D01*
X-27976668Y9036668D02*
X-28260000Y9320000D01*
X-24700000Y9330000D02*
X-24700000Y9460000D01*
X-9350000Y16168988D02*
X-8518990Y16999998D01*
X-16710000Y10830000D02*
X-15000000Y10830000D01*
X-15000000Y10830000D02*
X-14990000Y10820000D01*
D24*
X-48410000Y8540000D02*
X-48410000Y11160000D01*
X-48410000Y11160000D02*
X-48480000Y11230000D01*
D23*
X-26380000Y5900000D02*
X-27160000Y5900000D01*
X-27160000Y5900000D02*
X-27819998Y6559998D01*
X-27819998Y6559998D02*
X-31170002Y6559998D01*
X-31170002Y6559998D02*
X-32070000Y5660000D01*
X-32070000Y5660000D02*
X-32070000Y5640000D01*
X-31810000Y8860000D02*
X-32431491Y8238509D01*
X-32431491Y8238509D02*
X-33537887Y8238509D01*
X-31810000Y9360000D02*
X-31810000Y8860000D01*
X-33537887Y8238509D02*
X-33628498Y8329120D01*
X-22810000Y10830000D02*
X-22810000Y10689984D01*
X-22810000Y10689984D02*
X-21760000Y9639984D01*
X-21760000Y9639984D02*
X-21760000Y8275090D01*
X-21760000Y8275090D02*
X-22525090Y7510000D01*
X-22525090Y7510000D02*
X-29760000Y7510000D01*
X-29760000Y7510000D02*
X-31610000Y9360000D01*
X-31610000Y9360000D02*
X-31810000Y9360000D01*
X-22810000Y10830000D02*
X-22810000Y12419998D01*
X-22810000Y12419998D02*
X-22779998Y12450000D01*
X-748265Y13028265D02*
X-730000Y13010000D01*
X-748265Y14239258D02*
X-748265Y13028265D01*
X-22810000Y10643264D02*
X-22810000Y10710000D01*
X-10298235Y13448235D02*
X-10298235Y12870000D01*
X-10298235Y12870000D02*
X-10298235Y12691765D01*
X-10298235Y12381765D02*
X-10298235Y12870000D01*
X-11220000Y10810000D02*
X-11220000Y11460000D01*
X-11220000Y11460000D02*
X-10298235Y12381765D01*
X-12170000Y10820000D02*
X-11230000Y10820000D01*
X-11230000Y10820000D02*
X-11220000Y10810000D01*
X-13080000Y10810000D02*
X-13080000Y11526097D01*
X-13080000Y11526097D02*
X-11166363Y13439734D01*
X-13080000Y10810000D02*
X-12437116Y10167116D01*
X-12437116Y10167116D02*
X-12181870Y10167116D01*
X-19450000Y9290000D02*
X-20710000Y9290000D01*
X-18410000Y8250000D02*
X-19450000Y9290000D01*
X-20710000Y9290000D02*
X-21894722Y10474722D01*
X-21894722Y10474722D02*
X-21894722Y11305274D01*
X-21894722Y11305274D02*
X-21894722Y11623472D01*
X-18220000Y8250000D02*
X-16035000Y8250000D01*
X-18410000Y8250000D02*
X-18220000Y8250000D01*
X-18440000Y8250000D02*
X-18440000Y8110000D01*
X-18440000Y8110000D02*
X-18440000Y5160000D01*
X-18220000Y8250000D02*
X-18300000Y8250000D01*
X-18300000Y8250000D02*
X-18440000Y8110000D01*
X-18410000Y8250000D02*
X-18410000Y8260000D01*
X-18410000Y8260000D02*
X-18420000Y8270000D01*
X-18420000Y8270000D02*
X-18440000Y8250000D01*
X-16035000Y8250000D02*
X-14980000Y9305000D01*
X-14980000Y9305000D02*
X-14980000Y9330000D01*
X-14990000Y9320000D02*
X-14990000Y9295000D01*
X-14990000Y9295000D02*
X-16035000Y8250000D01*
X-21200000Y11766012D02*
X-21720059Y12286071D01*
X-21720059Y12286071D02*
X-21910679Y12286071D01*
X-20700000Y10790000D02*
X-21200000Y11290000D01*
X-20500000Y10790000D02*
X-20700000Y10790000D01*
X-21200000Y11290000D02*
X-21200000Y11766012D01*
X-20500000Y10790000D02*
X-19190000Y10790000D01*
X-19190000Y10790000D02*
X-18440000Y10040000D01*
X-17770000Y9320000D02*
X-17770000Y9370000D01*
X-17770000Y9370000D02*
X-18440000Y10040000D01*
X-16750000Y9320000D02*
X-17770000Y9320000D01*
X-17770000Y9320000D02*
X-18510000Y10060000D01*
X-9326499Y9783501D02*
X-9100000Y10010000D01*
X-9420000Y9690000D02*
X-9326499Y9783501D01*
X-9420000Y9290000D02*
X-9420000Y9690000D01*
X-9183508Y4646692D02*
X-9183508Y4626492D01*
X-9183508Y4626492D02*
X-9730000Y4080000D01*
X-9730000Y4080000D02*
X-10380000Y4080000D01*
X-10380000Y4080000D02*
X-10390000Y4070000D01*
X-40280000Y8199681D02*
X-40280000Y8520000D01*
X-40280000Y7570000D02*
X-40280000Y8199681D01*
X-39012000Y6302000D02*
X-40280000Y7570000D01*
X-20570000Y5630000D02*
X-20570000Y6130000D01*
X-32069997Y7009997D02*
X-32720000Y7660000D01*
X-20570000Y6130000D02*
X-20955016Y6515016D01*
X-20955016Y6515016D02*
X-21831192Y6515016D01*
X-21831192Y6515016D02*
X-22326173Y7009997D01*
X-22326173Y7009997D02*
X-32069997Y7009997D01*
X-20560000Y5690000D02*
X-20560000Y5736989D01*
X-32900000Y3560000D02*
X-32900000Y3551819D01*
X-33470000Y4130000D02*
X-32900000Y3560000D01*
X-32900000Y3551819D02*
X-32900000Y3231500D01*
X-33670000Y4130000D02*
X-33470000Y4130000D01*
X-34339767Y1799767D02*
X-37049767Y1799767D01*
X-37049767Y1799767D02*
X-39012000Y3762000D01*
X-10390000Y6070000D02*
X-8293501Y8166499D01*
X-8293501Y13483501D02*
X-8520000Y13710000D01*
X-10390000Y5570000D02*
X-10390000Y6070000D01*
X-8293501Y8166499D02*
X-8293501Y13483501D01*
X-23870286Y13520000D02*
X-27160000Y13520000D01*
X-19890008Y14049992D02*
X-23340294Y14049992D01*
X-18210000Y15730000D02*
X-19890008Y14049992D01*
X-27245001Y13434999D02*
X-27470000Y13210000D01*
X-27160000Y13520000D02*
X-27245001Y13434999D01*
X-23340294Y14049992D02*
X-23870286Y13520000D01*
X-20750000Y15730000D02*
X-21980007Y14499993D01*
X-21980007Y14499993D02*
X-23532969Y14499993D01*
X-24062962Y13970000D02*
X-28240000Y13970000D01*
X-23532969Y14499993D02*
X-24062962Y13970000D01*
X-28310000Y13898502D02*
X-28340000Y13868502D01*
X-28240000Y13970000D02*
X-28310000Y13900000D01*
X-28310000Y13900000D02*
X-28310000Y13898502D01*
X-28839998Y14420002D02*
X-29783501Y13476499D01*
X-24599998Y14420002D02*
X-28839998Y14420002D01*
X-23290000Y15730000D02*
X-24599998Y14420002D01*
X-29783501Y13476499D02*
X-30010000Y13250000D01*
X-2810000Y10360000D02*
X-4386397Y10360000D01*
X-4386397Y10360000D02*
X-8440001Y6306396D01*
X-8440001Y6306396D02*
X-8440001Y4569999D01*
X-8440001Y4569999D02*
X-10820000Y2190000D01*
X-10820000Y2190000D02*
X-25690931Y2190000D01*
X-25690931Y2190000D02*
X-25705435Y2175496D01*
X-2810000Y10360000D02*
X-4196381Y10360000D01*
X-25009681Y1550000D02*
X-25330000Y1550000D01*
X-10760000Y1550000D02*
X-25009681Y1550000D01*
X-6290000Y7820000D02*
X-7990000Y6120000D01*
X-2810000Y7820000D02*
X-6290000Y7820000D01*
X-7990000Y6120000D02*
X-7990000Y4320000D01*
X-7990000Y4320000D02*
X-10760000Y1550000D01*
X-36700000Y9020000D02*
X-36495000Y9020000D01*
X-36495000Y9020000D02*
X-35080000Y7605000D01*
X-35080000Y7605000D02*
X-35080000Y3420000D01*
X-35080000Y3420000D02*
X-33736491Y2076491D01*
X-33736491Y2076491D02*
X-31200363Y2076491D01*
X-31200363Y2076491D02*
X-30880044Y2076491D01*
X-36700000Y10920000D02*
X-35350000Y10920000D01*
X-35350000Y10920000D02*
X-34629999Y10199999D01*
X-33565754Y2665754D02*
X-31926073Y2665754D01*
X-34629999Y10199999D02*
X-34629999Y3729999D01*
X-34629999Y3729999D02*
X-33565754Y2665754D01*
X-31926073Y2665754D02*
X-31605754Y2665754D01*
X-38900000Y10920000D02*
X-39120000Y11140000D01*
X-39120000Y11140000D02*
X-41130000Y11140000D01*
X-38900000Y9020000D02*
X-38220000Y9020000D01*
X-38220000Y9020000D02*
X-37580000Y9660000D01*
X-37580000Y12450000D02*
X-37170000Y12860000D01*
X-37580000Y9660000D02*
X-37580000Y12450000D01*
X-37170000Y12860000D02*
X-37170000Y12870000D01*
X-41130000Y9230000D02*
X-39110000Y9230000D01*
X-39110000Y9230000D02*
X-38900000Y9020000D01*
X-20650000Y4100000D02*
X-20650000Y3250000D01*
X-20560000Y4190000D02*
X-20650000Y4100000D01*
X-33306499Y11713501D02*
X-33080000Y11940000D01*
X-34179998Y10840002D02*
X-33306499Y11713501D01*
X-34179998Y6639998D02*
X-34179998Y10840002D01*
X-33670000Y5630000D02*
X-33670000Y6130000D01*
X-33670000Y6130000D02*
X-34179998Y6639998D01*
X-42630000Y11140000D02*
X-43580000Y10190000D01*
X-43580000Y10190000D02*
X-43580000Y8730319D01*
X-43580000Y8730319D02*
X-43580000Y8410000D01*
X-46970000Y7100000D02*
X-48350000Y7100000D01*
X-48350000Y7100000D02*
X-48410000Y7040000D01*
X-42630000Y9230000D02*
X-42630000Y8530000D01*
X-43466983Y7693017D02*
X-43599204Y7693017D01*
X-42630000Y8530000D02*
X-43466983Y7693017D01*
X-35560000Y13799681D02*
X-35560000Y14120000D01*
X-35560000Y13765000D02*
X-35560000Y13799681D01*
X-34645000Y12850000D02*
X-35560000Y13765000D01*
X-34620000Y12850000D02*
X-34645000Y12850000D01*
X-49250000Y2410000D02*
X-49270000Y2390000D01*
X-48380000Y2410000D02*
X-49250000Y2410000D01*
D25*
X-28580000Y5900000D02*
X-28120000Y5900000D01*
X-28120000Y5900000D02*
X-27629991Y5409991D01*
X-27629991Y5409991D02*
X-27629991Y2664983D01*
X-27629991Y2664983D02*
X-29710009Y584965D01*
X-29710009Y584965D02*
X-29710009Y-510009D01*
D24*
X-45590000Y14400009D02*
X-45980000Y14400009D01*
X-45980000Y14400009D02*
X-49219991Y14400009D01*
D22*
X-45600000Y13855000D02*
X-45600000Y14020009D01*
X-45600000Y14020009D02*
X-45980000Y14400009D01*
X-45600000Y13855000D02*
X-45600000Y14000009D01*
X-45600000Y14000009D02*
X-45200000Y14400009D01*
D23*
X-33681492Y10444717D02*
X-33681492Y9305311D01*
X-33266209Y10860000D02*
X-33681492Y10444717D01*
X-33681492Y9305311D02*
X-33404886Y9028705D01*
X-33404886Y9028705D02*
X-33178387Y8802206D01*
X-31810000Y10860000D02*
X-33266209Y10860000D01*
D22*
X-24690000Y10840000D02*
X-24690000Y12788715D01*
X-24690000Y12788715D02*
X-24558715Y12920000D01*
D24*
X-49219991Y14400009D02*
X-49870000Y13750000D01*
X-48460000Y5420000D02*
X-47708988Y5420000D01*
X-49870000Y13750000D02*
X-49870000Y11674924D01*
X-49870000Y11674924D02*
X-49880000Y11664924D01*
X-49880000Y11664924D02*
X-49880000Y10795076D01*
X-49870000Y6830000D02*
X-48460000Y5420000D01*
X-49880000Y10795076D02*
X-49870000Y10785076D01*
X-49870000Y10785076D02*
X-49870000Y6830000D01*
X-47708988Y5420000D02*
X-45740000Y3451012D01*
X-45740000Y3451012D02*
X-45740000Y3450000D01*
X-45740000Y3450000D02*
X-44860000Y2570000D01*
X-44860000Y2570000D02*
X-44860000Y720000D01*
D23*
X-39790000Y1890000D02*
X-39770000Y1910000D01*
X-39790000Y-527008D02*
X-39790000Y1890000D01*
D22*
X-40070319Y-1866500D02*
X-39750000Y-1866500D01*
X-43393488Y-1866500D02*
X-40070319Y-1866500D01*
X-44860000Y-399988D02*
X-43393488Y-1866500D01*
X-44860000Y720000D02*
X-44860000Y-399988D01*
X-39429681Y-1866500D02*
X-39750000Y-1866500D01*
D23*
X-36472000Y3762000D02*
X-36472000Y6302000D01*
X-5850000Y5550000D02*
X-4920000Y5550000D01*
X-3659999Y4304999D02*
X-3659999Y3589999D01*
X-4900000Y5545000D02*
X-3659999Y4304999D01*
X-38900000Y9970000D02*
X-38480000Y9970000D01*
X-38480000Y9970000D02*
X-38045009Y10404991D01*
X-38045009Y10404991D02*
X-38045009Y12255009D01*
X-38045009Y12255009D02*
X-38660000Y12870000D01*
X-38660000Y12870000D02*
X-38670000Y12870000D01*
D24*
X-40780000Y12870000D02*
X-38670000Y12870000D01*
D23*
X-4920000Y5550000D02*
X-4900000Y5570000D01*
X-4900000Y5570000D02*
X-4900000Y5545000D01*
D24*
X-26380000Y4000000D02*
X-26380000Y2234596D01*
D22*
X-16230000Y3970000D02*
X-17210000Y3970000D01*
X-17210000Y3970000D02*
X-18951988Y3970000D01*
X-17680000Y7120000D02*
X-17680000Y6345000D01*
X-17680000Y6345000D02*
X-17210000Y5875000D01*
X-17210000Y5875000D02*
X-17210000Y3970000D01*
X-16050000Y4150000D02*
X-16230000Y3970000D01*
X-18951988Y3970000D02*
X-19871988Y4890000D01*
X-19871988Y4890000D02*
X-20660000Y4890000D01*
D24*
X-45590000Y13865000D02*
X-45590000Y14400009D01*
X-45600000Y12980000D02*
X-45600000Y13855000D01*
X-45600000Y13855000D02*
X-45590000Y13865000D01*
D25*
X-17680000Y7120000D02*
X-17640000Y7120000D01*
D24*
X-26360000Y10850000D02*
X-24700000Y10850000D01*
X-24700000Y10850000D02*
X-24690000Y10840000D01*
X-22560000Y4150000D02*
X-21820000Y4890000D01*
X-21820000Y4890000D02*
X-20660000Y4890000D01*
X-24300000Y4160000D02*
X-22570000Y4160000D01*
X-22570000Y4160000D02*
X-22560000Y4150000D01*
X-26380000Y4000000D02*
X-24460000Y4000000D01*
X-24460000Y4000000D02*
X-24300000Y4160000D01*
X-31810000Y10860000D02*
X-30010000Y10860000D01*
X-30010000Y10860000D02*
X-29980000Y10830000D01*
X-28260000Y10820000D02*
X-29970000Y10820000D01*
X-29970000Y10820000D02*
X-29980000Y10830000D01*
X-26460000Y10820000D02*
X-28260000Y10820000D01*
D23*
X-24190000Y4160000D02*
X-22570000Y4160000D01*
X-24710000Y10820000D02*
X-24700000Y10830000D01*
D24*
X-44909991Y14400009D02*
X-45200000Y14400009D01*
X-45200000Y14400009D02*
X-45590000Y14400009D01*
D22*
X-1360000Y11640000D02*
X-1360000Y4190000D01*
X-1360000Y4190000D02*
X-1480000Y4070000D01*
X-1480000Y4070000D02*
X-2810000Y2740000D01*
X-1720009Y14360009D02*
X-1720009Y16299997D01*
X-1720009Y16299997D02*
X-2970003Y17549991D01*
X-13530000Y12740000D02*
X-21061802Y12740000D01*
X-2970003Y17549991D02*
X-10589997Y17549991D01*
X-10589997Y17549991D02*
X-11880009Y16259979D01*
X-11880009Y16259979D02*
X-11880009Y14389991D01*
X-11880009Y14389991D02*
X-13530000Y12740000D01*
X-21061802Y12740000D02*
X-21380000Y12740000D01*
X-1360000Y11960319D02*
X-1360000Y11640000D01*
X-1360000Y14000000D02*
X-1360000Y11960319D01*
X-1720009Y14360009D02*
X-1360000Y14000000D01*
X-27475792Y-1866500D02*
X-39429681Y-1866500D01*
X-27469292Y-1860000D02*
X-27475792Y-1866500D01*
X-27469292Y-1860000D02*
X-26800000Y-1860000D01*
X-26800000Y-1860000D02*
X-2490000Y-1860000D01*
X-27120009Y-1510717D02*
X-27120009Y-1539991D01*
X-27120009Y-1539991D02*
X-26800000Y-1860000D01*
X-26542855Y2113317D02*
X-26542855Y2097145D01*
X-26542855Y2097145D02*
X-27120009Y1519991D01*
X-27120009Y1519991D02*
X-27120009Y-1510717D01*
X-27120009Y-1510717D02*
X-27469292Y-1860000D01*
X-2490000Y-1860000D02*
X-430000Y200000D01*
D23*
X-7010000Y5550000D02*
X-5850000Y5550000D01*
X-3659999Y3589999D02*
X-2810000Y2740000D01*
D24*
X-43610000Y15700000D02*
X-40780000Y12870000D01*
D22*
X-26380000Y2234596D02*
X-26501279Y2113317D01*
X-26501279Y2113317D02*
X-26542855Y2113317D01*
D24*
X-43610000Y15700000D02*
X-44909991Y14400009D01*
D22*
X-1620000Y14260000D02*
X-1720009Y14360009D01*
D23*
X-43610000Y15730000D02*
X-44900000Y14440000D01*
D24*
X-2810000Y2740000D02*
X-2810000Y2580000D01*
X-2810000Y2580000D02*
X-430000Y200000D01*
D23*
X-450000Y160000D02*
X-430000Y160000D01*
X-440000Y160000D02*
X-430000Y160000D01*
X-2090000Y2740000D02*
X-2810000Y2740000D01*
D26*
G36*
X-2843000Y327000D02*
X-2823000Y327000D01*
X-2823000Y73000D01*
X-2843000Y73000D01*
X-2843000Y53000D01*
X-3097000Y53000D01*
X-3097000Y73000D01*
X-3117000Y73000D01*
X-3117000Y327000D01*
X-3097000Y327000D01*
X-3097000Y347000D01*
X-2843000Y347000D01*
X-2843000Y327000D01*
X-2843000Y327000D01*
G37*
X-2843000Y327000D02*
X-2823000Y327000D01*
X-2823000Y73000D01*
X-2843000Y73000D01*
X-2843000Y53000D01*
X-3097000Y53000D01*
X-3097000Y73000D01*
X-3117000Y73000D01*
X-3117000Y327000D01*
X-3097000Y327000D01*
X-3097000Y347000D01*
X-2843000Y347000D01*
X-2843000Y327000D01*
G36*
X-6022115Y4688650D02*
X-5861099Y4688510D01*
X-5920000Y4546309D01*
X-5920000Y4305750D01*
X-5761250Y4147000D01*
X-5037000Y4147000D01*
X-5037000Y4167000D01*
X-4783000Y4167000D01*
X-4783000Y4147000D01*
X-4763000Y4147000D01*
X-4763000Y3893000D01*
X-4783000Y3893000D01*
X-4783000Y3143750D01*
X-4624250Y2985000D01*
X-4408690Y2985000D01*
X-4263388Y3045186D01*
X-4324093Y2740000D01*
X-4211054Y2171715D01*
X-3889147Y1689946D01*
X-3629207Y1516260D01*
X-3736924Y1471645D01*
X-4165183Y1081358D01*
X-4232298Y938447D01*
X-4459946Y1279147D01*
X-4941715Y1601054D01*
X-5510000Y1714093D01*
X-6078285Y1601054D01*
X-6560054Y1279147D01*
X-6780000Y949974D01*
X-6999946Y1279147D01*
X-7481715Y1601054D01*
X-8050000Y1714093D01*
X-8618285Y1601054D01*
X-9100054Y1279147D01*
X-9320000Y949974D01*
X-9539946Y1279147D01*
X-9789383Y1445815D01*
X-7929644Y3305554D01*
X-7923327Y3290302D01*
X-7744699Y3111673D01*
X-7511310Y3015000D01*
X-7295750Y3015000D01*
X-7137000Y3173750D01*
X-7137000Y3923000D01*
X-6883000Y3923000D01*
X-6883000Y3173750D01*
X-6724250Y3015000D01*
X-6508690Y3015000D01*
X-6275301Y3111673D01*
X-6096673Y3290302D01*
X-6000000Y3523691D01*
X-6000000Y3734250D01*
X-5920000Y3734250D01*
X-5920000Y3493691D01*
X-5823327Y3260302D01*
X-5644699Y3081673D01*
X-5411310Y2985000D01*
X-5195750Y2985000D01*
X-5037000Y3143750D01*
X-5037000Y3893000D01*
X-5761250Y3893000D01*
X-5920000Y3734250D01*
X-6000000Y3734250D01*
X-6000000Y3764250D01*
X-6158750Y3923000D01*
X-6883000Y3923000D01*
X-7137000Y3923000D01*
X-7157000Y3923000D01*
X-7157000Y4177000D01*
X-7137000Y4177000D01*
X-7137000Y4197000D01*
X-6883000Y4197000D01*
X-6883000Y4177000D01*
X-6158750Y4177000D01*
X-6000000Y4335750D01*
X-6000000Y4576309D01*
X-6051605Y4700896D01*
X-6022115Y4688650D01*
X-6022115Y4688650D01*
G37*
X-6022115Y4688650D02*
X-5861099Y4688510D01*
X-5920000Y4546309D01*
X-5920000Y4305750D01*
X-5761250Y4147000D01*
X-5037000Y4147000D01*
X-5037000Y4167000D01*
X-4783000Y4167000D01*
X-4783000Y4147000D01*
X-4763000Y4147000D01*
X-4763000Y3893000D01*
X-4783000Y3893000D01*
X-4783000Y3143750D01*
X-4624250Y2985000D01*
X-4408690Y2985000D01*
X-4263388Y3045186D01*
X-4324093Y2740000D01*
X-4211054Y2171715D01*
X-3889147Y1689946D01*
X-3629207Y1516260D01*
X-3736924Y1471645D01*
X-4165183Y1081358D01*
X-4232298Y938447D01*
X-4459946Y1279147D01*
X-4941715Y1601054D01*
X-5510000Y1714093D01*
X-6078285Y1601054D01*
X-6560054Y1279147D01*
X-6780000Y949974D01*
X-6999946Y1279147D01*
X-7481715Y1601054D01*
X-8050000Y1714093D01*
X-8618285Y1601054D01*
X-9100054Y1279147D01*
X-9320000Y949974D01*
X-9539946Y1279147D01*
X-9789383Y1445815D01*
X-7929644Y3305554D01*
X-7923327Y3290302D01*
X-7744699Y3111673D01*
X-7511310Y3015000D01*
X-7295750Y3015000D01*
X-7137000Y3173750D01*
X-7137000Y3923000D01*
X-6883000Y3923000D01*
X-6883000Y3173750D01*
X-6724250Y3015000D01*
X-6508690Y3015000D01*
X-6275301Y3111673D01*
X-6096673Y3290302D01*
X-6000000Y3523691D01*
X-6000000Y3734250D01*
X-5920000Y3734250D01*
X-5920000Y3493691D01*
X-5823327Y3260302D01*
X-5644699Y3081673D01*
X-5411310Y2985000D01*
X-5195750Y2985000D01*
X-5037000Y3143750D01*
X-5037000Y3893000D01*
X-5761250Y3893000D01*
X-5920000Y3734250D01*
X-6000000Y3734250D01*
X-6000000Y3764250D01*
X-6158750Y3923000D01*
X-6883000Y3923000D01*
X-7137000Y3923000D01*
X-7157000Y3923000D01*
X-7157000Y4177000D01*
X-7137000Y4177000D01*
X-7137000Y4197000D01*
X-6883000Y4197000D01*
X-6883000Y4177000D01*
X-6158750Y4177000D01*
X-6000000Y4335750D01*
X-6000000Y4576309D01*
X-6051605Y4700896D01*
X-6022115Y4688650D01*
G36*
X-12953000Y9437000D02*
X-12933000Y9437000D01*
X-12933000Y9183000D01*
X-12953000Y9183000D01*
X-12953000Y8433750D01*
X-12794250Y8275000D01*
X-12578690Y8275000D01*
X-12345301Y8371673D01*
X-12166673Y8550302D01*
X-12150000Y8590554D01*
X-12133327Y8550302D01*
X-11954699Y8371673D01*
X-11721310Y8275000D01*
X-11505750Y8275000D01*
X-11347000Y8433750D01*
X-11347000Y9183000D01*
X-11367000Y9183000D01*
X-11367000Y9437000D01*
X-11347000Y9437000D01*
X-11347000Y9457000D01*
X-11093000Y9457000D01*
X-11093000Y9437000D01*
X-11073000Y9437000D01*
X-11073000Y9183000D01*
X-11093000Y9183000D01*
X-11093000Y8433750D01*
X-10934250Y8275000D01*
X-10718690Y8275000D01*
X-10485301Y8371673D01*
X-10306673Y8550302D01*
X-10278960Y8617208D01*
X-10254090Y8578559D01*
X-10041890Y8433569D01*
X-9790000Y8382560D01*
X-9152242Y8382560D01*
X-10927401Y6607401D01*
X-11046937Y6428502D01*
X-11075317Y6423162D01*
X-11291441Y6284090D01*
X-11436431Y6071890D01*
X-11487440Y5820000D01*
X-11487440Y5320000D01*
X-11443162Y5084683D01*
X-11304090Y4868559D01*
X-11234289Y4820866D01*
X-11291441Y4784090D01*
X-11436431Y4571890D01*
X-11487440Y4320000D01*
X-11487440Y3820000D01*
X-11443162Y3584683D01*
X-11304090Y3368559D01*
X-11091890Y3223569D01*
X-10900076Y3184726D01*
X-11134802Y2950000D01*
X-19841753Y2950000D01*
X-19788650Y3077885D01*
X-19788422Y3338780D01*
X-19668559Y3415910D01*
X-19632110Y3469254D01*
X-19542422Y3379566D01*
X-19271529Y3198561D01*
X-18951988Y3135000D01*
X-16727526Y3135000D01*
X-16666890Y3093569D01*
X-16415000Y3042560D01*
X-15665000Y3042560D01*
X-15429683Y3086838D01*
X-15213559Y3225910D01*
X-15068569Y3438110D01*
X-15017560Y3690000D01*
X-15017560Y4490000D01*
X-15061838Y4725317D01*
X-15128329Y4828646D01*
X-15126673Y4830302D01*
X-15030000Y5063691D01*
X-15030000Y5304250D01*
X-15188750Y5463000D01*
X-15913000Y5463000D01*
X-15913000Y5443000D01*
X-16167000Y5443000D01*
X-16167000Y5463000D01*
X-16187000Y5463000D01*
X-16187000Y5717000D01*
X-16167000Y5717000D01*
X-16167000Y6466250D01*
X-15913000Y6466250D01*
X-15913000Y5717000D01*
X-15188750Y5717000D01*
X-15030000Y5875750D01*
X-15030000Y6116309D01*
X-15126673Y6349698D01*
X-15305301Y6528327D01*
X-15538690Y6625000D01*
X-15754250Y6625000D01*
X-15913000Y6466250D01*
X-16167000Y6466250D01*
X-16325750Y6625000D01*
X-16541310Y6625000D01*
X-16667440Y6572755D01*
X-16632560Y6745000D01*
X-16632560Y7490000D01*
X-16035000Y7490000D01*
X-15744161Y7547852D01*
X-15497599Y7712599D01*
X-14927638Y8282560D01*
X-14605000Y8282560D01*
X-14369683Y8326838D01*
X-14153559Y8465910D01*
X-14032039Y8643761D01*
X-13993327Y8550302D01*
X-13814699Y8371673D01*
X-13581310Y8275000D01*
X-13365750Y8275000D01*
X-13207000Y8433750D01*
X-13207000Y9183000D01*
X-13227000Y9183000D01*
X-13227000Y9437000D01*
X-13207000Y9437000D01*
X-13207000Y9457000D01*
X-12953000Y9457000D01*
X-12953000Y9437000D01*
X-12953000Y9437000D01*
G37*
X-12953000Y9437000D02*
X-12933000Y9437000D01*
X-12933000Y9183000D01*
X-12953000Y9183000D01*
X-12953000Y8433750D01*
X-12794250Y8275000D01*
X-12578690Y8275000D01*
X-12345301Y8371673D01*
X-12166673Y8550302D01*
X-12150000Y8590554D01*
X-12133327Y8550302D01*
X-11954699Y8371673D01*
X-11721310Y8275000D01*
X-11505750Y8275000D01*
X-11347000Y8433750D01*
X-11347000Y9183000D01*
X-11367000Y9183000D01*
X-11367000Y9437000D01*
X-11347000Y9437000D01*
X-11347000Y9457000D01*
X-11093000Y9457000D01*
X-11093000Y9437000D01*
X-11073000Y9437000D01*
X-11073000Y9183000D01*
X-11093000Y9183000D01*
X-11093000Y8433750D01*
X-10934250Y8275000D01*
X-10718690Y8275000D01*
X-10485301Y8371673D01*
X-10306673Y8550302D01*
X-10278960Y8617208D01*
X-10254090Y8578559D01*
X-10041890Y8433569D01*
X-9790000Y8382560D01*
X-9152242Y8382560D01*
X-10927401Y6607401D01*
X-11046937Y6428502D01*
X-11075317Y6423162D01*
X-11291441Y6284090D01*
X-11436431Y6071890D01*
X-11487440Y5820000D01*
X-11487440Y5320000D01*
X-11443162Y5084683D01*
X-11304090Y4868559D01*
X-11234289Y4820866D01*
X-11291441Y4784090D01*
X-11436431Y4571890D01*
X-11487440Y4320000D01*
X-11487440Y3820000D01*
X-11443162Y3584683D01*
X-11304090Y3368559D01*
X-11091890Y3223569D01*
X-10900076Y3184726D01*
X-11134802Y2950000D01*
X-19841753Y2950000D01*
X-19788650Y3077885D01*
X-19788422Y3338780D01*
X-19668559Y3415910D01*
X-19632110Y3469254D01*
X-19542422Y3379566D01*
X-19271529Y3198561D01*
X-18951988Y3135000D01*
X-16727526Y3135000D01*
X-16666890Y3093569D01*
X-16415000Y3042560D01*
X-15665000Y3042560D01*
X-15429683Y3086838D01*
X-15213559Y3225910D01*
X-15068569Y3438110D01*
X-15017560Y3690000D01*
X-15017560Y4490000D01*
X-15061838Y4725317D01*
X-15128329Y4828646D01*
X-15126673Y4830302D01*
X-15030000Y5063691D01*
X-15030000Y5304250D01*
X-15188750Y5463000D01*
X-15913000Y5463000D01*
X-15913000Y5443000D01*
X-16167000Y5443000D01*
X-16167000Y5463000D01*
X-16187000Y5463000D01*
X-16187000Y5717000D01*
X-16167000Y5717000D01*
X-16167000Y6466250D01*
X-15913000Y6466250D01*
X-15913000Y5717000D01*
X-15188750Y5717000D01*
X-15030000Y5875750D01*
X-15030000Y6116309D01*
X-15126673Y6349698D01*
X-15305301Y6528327D01*
X-15538690Y6625000D01*
X-15754250Y6625000D01*
X-15913000Y6466250D01*
X-16167000Y6466250D01*
X-16325750Y6625000D01*
X-16541310Y6625000D01*
X-16667440Y6572755D01*
X-16632560Y6745000D01*
X-16632560Y7490000D01*
X-16035000Y7490000D01*
X-15744161Y7547852D01*
X-15497599Y7712599D01*
X-14927638Y8282560D01*
X-14605000Y8282560D01*
X-14369683Y8326838D01*
X-14153559Y8465910D01*
X-14032039Y8643761D01*
X-13993327Y8550302D01*
X-13814699Y8371673D01*
X-13581310Y8275000D01*
X-13365750Y8275000D01*
X-13207000Y8433750D01*
X-13207000Y9183000D01*
X-13227000Y9183000D01*
X-13227000Y9437000D01*
X-13207000Y9437000D01*
X-13207000Y9457000D01*
X-12953000Y9457000D01*
X-12953000Y9437000D01*
G36*
X-41844090Y8328559D02*
X-41631890Y8183569D01*
X-41380000Y8132560D01*
X-41052057Y8132560D01*
X-41040000Y8103379D01*
X-41040000Y7679231D01*
X-41195110Y7743476D01*
X-41425000Y7622155D01*
X-41425000Y6429000D01*
X-41405000Y6429000D01*
X-41405000Y6175000D01*
X-41425000Y6175000D01*
X-41425000Y3889000D01*
X-41405000Y3889000D01*
X-41405000Y3635000D01*
X-41425000Y3635000D01*
X-41425000Y3615000D01*
X-41679000Y3615000D01*
X-41679000Y3635000D01*
X-41699000Y3635000D01*
X-41699000Y3889000D01*
X-41679000Y3889000D01*
X-41679000Y6175000D01*
X-42872819Y6175000D01*
X-42993486Y5945108D01*
X-42747183Y5420642D01*
X-42320729Y5032000D01*
X-42747183Y4643358D01*
X-42860723Y4401591D01*
X-43002991Y4543859D01*
X-43029230Y4607363D01*
X-43271362Y4849918D01*
X-43335812Y4876680D01*
X-43805000Y5345868D01*
X-43805000Y6658892D01*
X-42993486Y6658892D01*
X-42872819Y6429000D01*
X-41679000Y6429000D01*
X-41679000Y7622155D01*
X-41908890Y7743476D01*
X-42318924Y7573645D01*
X-42747183Y7183358D01*
X-42993486Y6658892D01*
X-43805000Y6658892D01*
X-43805000Y6845653D01*
X-43771319Y6831667D01*
X-43428593Y6831368D01*
X-43111841Y6962247D01*
X-42869286Y7204379D01*
X-42861096Y7224102D01*
X-42092599Y7992599D01*
X-41927852Y8239161D01*
X-41906026Y8348889D01*
X-41880866Y8385711D01*
X-41844090Y8328559D01*
X-41844090Y8328559D01*
G37*
X-41844090Y8328559D02*
X-41631890Y8183569D01*
X-41380000Y8132560D01*
X-41052057Y8132560D01*
X-41040000Y8103379D01*
X-41040000Y7679231D01*
X-41195110Y7743476D01*
X-41425000Y7622155D01*
X-41425000Y6429000D01*
X-41405000Y6429000D01*
X-41405000Y6175000D01*
X-41425000Y6175000D01*
X-41425000Y3889000D01*
X-41405000Y3889000D01*
X-41405000Y3635000D01*
X-41425000Y3635000D01*
X-41425000Y3615000D01*
X-41679000Y3615000D01*
X-41679000Y3635000D01*
X-41699000Y3635000D01*
X-41699000Y3889000D01*
X-41679000Y3889000D01*
X-41679000Y6175000D01*
X-42872819Y6175000D01*
X-42993486Y5945108D01*
X-42747183Y5420642D01*
X-42320729Y5032000D01*
X-42747183Y4643358D01*
X-42860723Y4401591D01*
X-43002991Y4543859D01*
X-43029230Y4607363D01*
X-43271362Y4849918D01*
X-43335812Y4876680D01*
X-43805000Y5345868D01*
X-43805000Y6658892D01*
X-42993486Y6658892D01*
X-42872819Y6429000D01*
X-41679000Y6429000D01*
X-41679000Y7622155D01*
X-41908890Y7743476D01*
X-42318924Y7573645D01*
X-42747183Y7183358D01*
X-42993486Y6658892D01*
X-43805000Y6658892D01*
X-43805000Y6845653D01*
X-43771319Y6831667D01*
X-43428593Y6831368D01*
X-43111841Y6962247D01*
X-42869286Y7204379D01*
X-42861096Y7224102D01*
X-42092599Y7992599D01*
X-41927852Y8239161D01*
X-41906026Y8348889D01*
X-41880866Y8385711D01*
X-41844090Y8328559D01*
G36*
X-31863000Y4267000D02*
X-31843000Y4267000D01*
X-31843000Y4013000D01*
X-31863000Y4013000D01*
X-31863000Y3993000D01*
X-32117000Y3993000D01*
X-32117000Y4013000D01*
X-32137000Y4013000D01*
X-32137000Y4267000D01*
X-32117000Y4267000D01*
X-32117000Y4287000D01*
X-31863000Y4287000D01*
X-31863000Y4267000D01*
X-31863000Y4267000D01*
G37*
X-31863000Y4267000D02*
X-31843000Y4267000D01*
X-31843000Y4013000D01*
X-31863000Y4013000D01*
X-31863000Y3993000D01*
X-32117000Y3993000D01*
X-32117000Y4013000D01*
X-32137000Y4013000D01*
X-32137000Y4267000D01*
X-32117000Y4267000D01*
X-32117000Y4287000D01*
X-31863000Y4287000D01*
X-31863000Y4267000D01*
G36*
X-48353000Y4357000D02*
X-48333000Y4357000D01*
X-48333000Y4103000D01*
X-48353000Y4103000D01*
X-48353000Y4083000D01*
X-48607000Y4083000D01*
X-48607000Y4103000D01*
X-48627000Y4103000D01*
X-48627000Y4357000D01*
X-48607000Y4357000D01*
X-48607000Y4377000D01*
X-48353000Y4377000D01*
X-48353000Y4357000D01*
X-48353000Y4357000D01*
G37*
X-48353000Y4357000D02*
X-48333000Y4357000D01*
X-48333000Y4103000D01*
X-48353000Y4103000D01*
X-48353000Y4083000D01*
X-48607000Y4083000D01*
X-48607000Y4103000D01*
X-48627000Y4103000D01*
X-48627000Y4357000D01*
X-48607000Y4357000D01*
X-48607000Y4377000D01*
X-48353000Y4377000D01*
X-48353000Y4357000D01*
G36*
X-46553793Y6183398D02*
X-45780000Y5409605D01*
X-45765857Y5423747D01*
X-45586252Y5244142D01*
X-45600395Y5230000D01*
X-45586252Y5215857D01*
X-45765857Y5036252D01*
X-45780000Y5050395D01*
X-45794142Y5036252D01*
X-45973747Y5215857D01*
X-45959605Y5230000D01*
X-46733398Y6003793D01*
X-46971753Y5938878D01*
X-46972938Y5935530D01*
X-47083198Y6045790D01*
X-47212057Y6131890D01*
X-47370313Y6237633D01*
X-47443284Y6252148D01*
X-47580707Y6279484D01*
X-47508559Y6325910D01*
X-47498932Y6340000D01*
X-47386193Y6340000D01*
X-47142115Y6238650D01*
X-46799389Y6238351D01*
X-46505788Y6359664D01*
X-46553793Y6183398D01*
X-46553793Y6183398D01*
G37*
X-46553793Y6183398D02*
X-45780000Y5409605D01*
X-45765857Y5423747D01*
X-45586252Y5244142D01*
X-45600395Y5230000D01*
X-45586252Y5215857D01*
X-45765857Y5036252D01*
X-45780000Y5050395D01*
X-45794142Y5036252D01*
X-45973747Y5215857D01*
X-45959605Y5230000D01*
X-46733398Y6003793D01*
X-46971753Y5938878D01*
X-46972938Y5935530D01*
X-47083198Y6045790D01*
X-47212057Y6131890D01*
X-47370313Y6237633D01*
X-47443284Y6252148D01*
X-47580707Y6279484D01*
X-47508559Y6325910D01*
X-47498932Y6340000D01*
X-47386193Y6340000D01*
X-47142115Y6238650D01*
X-46799389Y6238351D01*
X-46505788Y6359664D01*
X-46553793Y6183398D01*
G36*
X-30223000Y5757000D02*
X-30203000Y5757000D01*
X-30203000Y5503000D01*
X-30223000Y5503000D01*
X-30223000Y5483000D01*
X-30477000Y5483000D01*
X-30477000Y5503000D01*
X-30497000Y5503000D01*
X-30497000Y5757000D01*
X-30477000Y5757000D01*
X-30477000Y5777000D01*
X-30223000Y5777000D01*
X-30223000Y5757000D01*
X-30223000Y5757000D01*
G37*
X-30223000Y5757000D02*
X-30203000Y5757000D01*
X-30203000Y5503000D01*
X-30223000Y5503000D01*
X-30223000Y5483000D01*
X-30477000Y5483000D01*
X-30477000Y5503000D01*
X-30497000Y5503000D01*
X-30497000Y5757000D01*
X-30477000Y5757000D01*
X-30477000Y5777000D01*
X-30223000Y5777000D01*
X-30223000Y5757000D01*
G36*
X-24173000Y5787000D02*
X-23448750Y5787000D01*
X-23435000Y5800750D01*
X-23411250Y5777000D01*
X-22687000Y5777000D01*
X-22687000Y5797000D01*
X-22433000Y5797000D01*
X-22433000Y5777000D01*
X-22413000Y5777000D01*
X-22413000Y5537699D01*
X-22445790Y5515790D01*
X-22445792Y5515787D01*
X-22458579Y5503000D01*
X-22687000Y5503000D01*
X-22687000Y5523000D01*
X-23411250Y5523000D01*
X-23425000Y5509250D01*
X-23448750Y5533000D01*
X-24173000Y5533000D01*
X-24173000Y5513000D01*
X-24427000Y5513000D01*
X-24427000Y5533000D01*
X-24447000Y5533000D01*
X-24447000Y5787000D01*
X-24427000Y5787000D01*
X-24427000Y5807000D01*
X-24173000Y5807000D01*
X-24173000Y5787000D01*
X-24173000Y5787000D01*
G37*
X-24173000Y5787000D02*
X-23448750Y5787000D01*
X-23435000Y5800750D01*
X-23411250Y5777000D01*
X-22687000Y5777000D01*
X-22687000Y5797000D01*
X-22433000Y5797000D01*
X-22433000Y5777000D01*
X-22413000Y5777000D01*
X-22413000Y5537699D01*
X-22445790Y5515790D01*
X-22445792Y5515787D01*
X-22458579Y5503000D01*
X-22687000Y5503000D01*
X-22687000Y5523000D01*
X-23411250Y5523000D01*
X-23425000Y5509250D01*
X-23448750Y5533000D01*
X-24173000Y5533000D01*
X-24173000Y5513000D01*
X-24427000Y5513000D01*
X-24427000Y5533000D01*
X-24447000Y5533000D01*
X-24447000Y5787000D01*
X-24427000Y5787000D01*
X-24427000Y5807000D01*
X-24173000Y5807000D01*
X-24173000Y5787000D01*
G36*
X-41405792Y12244213D02*
X-41405790Y12244210D01*
X-41392217Y12235141D01*
X-41615317Y12193162D01*
X-41831441Y12054090D01*
X-41879134Y11984289D01*
X-41915910Y12041441D01*
X-42128110Y12186431D01*
X-42380000Y12237440D01*
X-42880000Y12237440D01*
X-43115317Y12193162D01*
X-43195243Y12141731D01*
X-43161673Y12175301D01*
X-43065000Y12408690D01*
X-43065000Y12624250D01*
X-43223750Y12783000D01*
X-43973000Y12783000D01*
X-43973000Y12058750D01*
X-43814250Y11900000D01*
X-43573691Y11900000D01*
X-43382661Y11979127D01*
X-43476431Y11841890D01*
X-43527440Y11590000D01*
X-43527440Y11317362D01*
X-44117401Y10727401D01*
X-44282148Y10480839D01*
X-44340000Y10190000D01*
X-44340000Y9978076D01*
X-44347885Y9981350D01*
X-44425293Y9981418D01*
X-44407688Y10031146D01*
X-44436051Y10571444D01*
X-44588247Y10938878D01*
X-44826602Y11003793D01*
X-45600395Y10230000D01*
X-45586252Y10215857D01*
X-45765857Y10036252D01*
X-45780000Y10050395D01*
X-46553793Y9276602D01*
X-46488878Y9038247D01*
X-45978854Y8857688D01*
X-45475000Y8884138D01*
X-45475000Y6564734D01*
X-45581146Y6602312D01*
X-46121444Y6573949D01*
X-46388281Y6463422D01*
X-46240082Y6611362D01*
X-46108650Y6927885D01*
X-46108351Y7270611D01*
X-46239230Y7587363D01*
X-46481362Y7829918D01*
X-46797885Y7961350D01*
X-47140611Y7961649D01*
X-47386621Y7860000D01*
X-47491975Y7860000D01*
X-47421673Y7930302D01*
X-47325000Y8163691D01*
X-47325000Y8256250D01*
X-47483750Y8415000D01*
X-48283000Y8415000D01*
X-48283000Y8393000D01*
X-48537000Y8393000D01*
X-48537000Y8415000D01*
X-48557000Y8415000D01*
X-48557000Y8665000D01*
X-48537000Y8665000D01*
X-48537000Y9266250D01*
X-48283000Y9266250D01*
X-48283000Y8665000D01*
X-47483750Y8665000D01*
X-47325000Y8823750D01*
X-47325000Y8916309D01*
X-47421673Y9149698D01*
X-47600301Y9328327D01*
X-47833690Y9425000D01*
X-48124250Y9425000D01*
X-48283000Y9266250D01*
X-48537000Y9266250D01*
X-48695750Y9425000D01*
X-48985000Y9425000D01*
X-48985000Y10003625D01*
X-48957000Y9995000D01*
X-48607000Y9995000D01*
X-48607000Y11103000D01*
X-48353000Y11103000D01*
X-48353000Y9995000D01*
X-48003000Y9995000D01*
X-47540053Y10137610D01*
X-47166920Y10446526D01*
X-47103842Y10565768D01*
X-47152312Y10428854D01*
X-47123949Y9888556D01*
X-46971753Y9521122D01*
X-46733398Y9456207D01*
X-45959605Y10230000D01*
X-46733398Y11003793D01*
X-46956576Y10943012D01*
X-47061269Y11103000D01*
X-48353000Y11103000D01*
X-48607000Y11103000D01*
X-48627000Y11103000D01*
X-48627000Y11183398D01*
X-46553793Y11183398D01*
X-45780000Y10409605D01*
X-45006207Y11183398D01*
X-45071122Y11421753D01*
X-45581146Y11602312D01*
X-46121444Y11573949D01*
X-46488878Y11421753D01*
X-46553793Y11183398D01*
X-48627000Y11183398D01*
X-48627000Y11357000D01*
X-48607000Y11357000D01*
X-48607000Y12465000D01*
X-48353000Y12465000D01*
X-48353000Y11357000D01*
X-47061269Y11357000D01*
X-46936538Y11547609D01*
X-46940408Y11585281D01*
X-47166920Y12013474D01*
X-47540053Y12322390D01*
X-48003000Y12465000D01*
X-48353000Y12465000D01*
X-48607000Y12465000D01*
X-48957000Y12465000D01*
X-48985000Y12456375D01*
X-48985000Y13383420D01*
X-48853412Y13515009D01*
X-46600862Y13515009D01*
X-46647440Y13285000D01*
X-46647440Y12535000D01*
X-46603162Y12299683D01*
X-46464090Y12083559D01*
X-46251890Y11938569D01*
X-46000000Y11887560D01*
X-45200000Y11887560D01*
X-44964683Y11931838D01*
X-44861354Y11998329D01*
X-44859698Y11996673D01*
X-44626309Y11900000D01*
X-44385750Y11900000D01*
X-44227000Y12058750D01*
X-44227000Y12783000D01*
X-44247000Y12783000D01*
X-44247000Y13037000D01*
X-44227000Y13037000D01*
X-44227000Y13761250D01*
X-43973000Y13761250D01*
X-43973000Y13037000D01*
X-43223750Y13037000D01*
X-43065000Y13195750D01*
X-43065000Y13411310D01*
X-43161673Y13644699D01*
X-43340302Y13823327D01*
X-43573691Y13920000D01*
X-43814250Y13920000D01*
X-43973000Y13761250D01*
X-44227000Y13761250D01*
X-44262085Y13796335D01*
X-43828960Y14229461D01*
X-43610000Y14185907D01*
X-43391040Y14229461D01*
X-41405792Y12244213D01*
X-41405792Y12244213D01*
G37*
X-41405792Y12244213D02*
X-41405790Y12244210D01*
X-41392217Y12235141D01*
X-41615317Y12193162D01*
X-41831441Y12054090D01*
X-41879134Y11984289D01*
X-41915910Y12041441D01*
X-42128110Y12186431D01*
X-42380000Y12237440D01*
X-42880000Y12237440D01*
X-43115317Y12193162D01*
X-43195243Y12141731D01*
X-43161673Y12175301D01*
X-43065000Y12408690D01*
X-43065000Y12624250D01*
X-43223750Y12783000D01*
X-43973000Y12783000D01*
X-43973000Y12058750D01*
X-43814250Y11900000D01*
X-43573691Y11900000D01*
X-43382661Y11979127D01*
X-43476431Y11841890D01*
X-43527440Y11590000D01*
X-43527440Y11317362D01*
X-44117401Y10727401D01*
X-44282148Y10480839D01*
X-44340000Y10190000D01*
X-44340000Y9978076D01*
X-44347885Y9981350D01*
X-44425293Y9981418D01*
X-44407688Y10031146D01*
X-44436051Y10571444D01*
X-44588247Y10938878D01*
X-44826602Y11003793D01*
X-45600395Y10230000D01*
X-45586252Y10215857D01*
X-45765857Y10036252D01*
X-45780000Y10050395D01*
X-46553793Y9276602D01*
X-46488878Y9038247D01*
X-45978854Y8857688D01*
X-45475000Y8884138D01*
X-45475000Y6564734D01*
X-45581146Y6602312D01*
X-46121444Y6573949D01*
X-46388281Y6463422D01*
X-46240082Y6611362D01*
X-46108650Y6927885D01*
X-46108351Y7270611D01*
X-46239230Y7587363D01*
X-46481362Y7829918D01*
X-46797885Y7961350D01*
X-47140611Y7961649D01*
X-47386621Y7860000D01*
X-47491975Y7860000D01*
X-47421673Y7930302D01*
X-47325000Y8163691D01*
X-47325000Y8256250D01*
X-47483750Y8415000D01*
X-48283000Y8415000D01*
X-48283000Y8393000D01*
X-48537000Y8393000D01*
X-48537000Y8415000D01*
X-48557000Y8415000D01*
X-48557000Y8665000D01*
X-48537000Y8665000D01*
X-48537000Y9266250D01*
X-48283000Y9266250D01*
X-48283000Y8665000D01*
X-47483750Y8665000D01*
X-47325000Y8823750D01*
X-47325000Y8916309D01*
X-47421673Y9149698D01*
X-47600301Y9328327D01*
X-47833690Y9425000D01*
X-48124250Y9425000D01*
X-48283000Y9266250D01*
X-48537000Y9266250D01*
X-48695750Y9425000D01*
X-48985000Y9425000D01*
X-48985000Y10003625D01*
X-48957000Y9995000D01*
X-48607000Y9995000D01*
X-48607000Y11103000D01*
X-48353000Y11103000D01*
X-48353000Y9995000D01*
X-48003000Y9995000D01*
X-47540053Y10137610D01*
X-47166920Y10446526D01*
X-47103842Y10565768D01*
X-47152312Y10428854D01*
X-47123949Y9888556D01*
X-46971753Y9521122D01*
X-46733398Y9456207D01*
X-45959605Y10230000D01*
X-46733398Y11003793D01*
X-46956576Y10943012D01*
X-47061269Y11103000D01*
X-48353000Y11103000D01*
X-48607000Y11103000D01*
X-48627000Y11103000D01*
X-48627000Y11183398D01*
X-46553793Y11183398D01*
X-45780000Y10409605D01*
X-45006207Y11183398D01*
X-45071122Y11421753D01*
X-45581146Y11602312D01*
X-46121444Y11573949D01*
X-46488878Y11421753D01*
X-46553793Y11183398D01*
X-48627000Y11183398D01*
X-48627000Y11357000D01*
X-48607000Y11357000D01*
X-48607000Y12465000D01*
X-48353000Y12465000D01*
X-48353000Y11357000D01*
X-47061269Y11357000D01*
X-46936538Y11547609D01*
X-46940408Y11585281D01*
X-47166920Y12013474D01*
X-47540053Y12322390D01*
X-48003000Y12465000D01*
X-48353000Y12465000D01*
X-48607000Y12465000D01*
X-48957000Y12465000D01*
X-48985000Y12456375D01*
X-48985000Y13383420D01*
X-48853412Y13515009D01*
X-46600862Y13515009D01*
X-46647440Y13285000D01*
X-46647440Y12535000D01*
X-46603162Y12299683D01*
X-46464090Y12083559D01*
X-46251890Y11938569D01*
X-46000000Y11887560D01*
X-45200000Y11887560D01*
X-44964683Y11931838D01*
X-44861354Y11998329D01*
X-44859698Y11996673D01*
X-44626309Y11900000D01*
X-44385750Y11900000D01*
X-44227000Y12058750D01*
X-44227000Y12783000D01*
X-44247000Y12783000D01*
X-44247000Y13037000D01*
X-44227000Y13037000D01*
X-44227000Y13761250D01*
X-43973000Y13761250D01*
X-43973000Y13037000D01*
X-43223750Y13037000D01*
X-43065000Y13195750D01*
X-43065000Y13411310D01*
X-43161673Y13644699D01*
X-43340302Y13823327D01*
X-43573691Y13920000D01*
X-43814250Y13920000D01*
X-43973000Y13761250D01*
X-44227000Y13761250D01*
X-44262085Y13796335D01*
X-43828960Y14229461D01*
X-43610000Y14185907D01*
X-43391040Y14229461D01*
X-41405792Y12244213D01*
G36*
X-19307002Y8072200D02*
X-19307002Y7971252D01*
X-19465750Y8130000D01*
X-19706309Y8130000D01*
X-19939698Y8033327D01*
X-20118327Y7854699D01*
X-20215000Y7621310D01*
X-20215000Y7405750D01*
X-20056250Y7247000D01*
X-19307000Y7247000D01*
X-19307000Y7267000D01*
X-19200000Y7267000D01*
X-19200000Y6973000D01*
X-19307000Y6973000D01*
X-19307000Y6993000D01*
X-20056250Y6993000D01*
X-20207224Y6842026D01*
X-20417615Y7052417D01*
X-20664177Y7217164D01*
X-20955016Y7275016D01*
X-21516390Y7275016D01*
X-21600831Y7359457D01*
X-21222599Y7737689D01*
X-21057852Y7984251D01*
X-21000000Y8275090D01*
X-21000000Y8402685D01*
X-20950000Y8392560D01*
X-20050000Y8392560D01*
X-19814683Y8436838D01*
X-19727646Y8492844D01*
X-19307002Y8072200D01*
X-19307002Y8072200D01*
G37*
X-19307002Y8072200D02*
X-19307002Y7971252D01*
X-19465750Y8130000D01*
X-19706309Y8130000D01*
X-19939698Y8033327D01*
X-20118327Y7854699D01*
X-20215000Y7621310D01*
X-20215000Y7405750D01*
X-20056250Y7247000D01*
X-19307000Y7247000D01*
X-19307000Y7267000D01*
X-19200000Y7267000D01*
X-19200000Y6973000D01*
X-19307000Y6973000D01*
X-19307000Y6993000D01*
X-20056250Y6993000D01*
X-20207224Y6842026D01*
X-20417615Y7052417D01*
X-20664177Y7217164D01*
X-20955016Y7275016D01*
X-21516390Y7275016D01*
X-21600831Y7359457D01*
X-21222599Y7737689D01*
X-21057852Y7984251D01*
X-21000000Y8275090D01*
X-21000000Y8402685D01*
X-20950000Y8392560D01*
X-20050000Y8392560D01*
X-19814683Y8436838D01*
X-19727646Y8492844D01*
X-19307002Y8072200D01*
G36*
X-23661250Y9457000D02*
X-22937000Y9457000D01*
X-22937000Y9477000D01*
X-22683000Y9477000D01*
X-22683000Y9457000D01*
X-22663000Y9457000D01*
X-22663000Y9203000D01*
X-22683000Y9203000D01*
X-22683000Y9183000D01*
X-22937000Y9183000D01*
X-22937000Y9203000D01*
X-23661250Y9203000D01*
X-23745000Y9119250D01*
X-23838750Y9213000D01*
X-24563000Y9213000D01*
X-24563000Y8463750D01*
X-24404250Y8305000D01*
X-24188690Y8305000D01*
X-23955301Y8401673D01*
X-23776673Y8580302D01*
X-23752071Y8639696D01*
X-23723327Y8570302D01*
X-23544699Y8391673D01*
X-23311310Y8295000D01*
X-23095750Y8295000D01*
X-22937002Y8453748D01*
X-22937002Y8295000D01*
X-22814892Y8295000D01*
X-22839892Y8270000D01*
X-29445198Y8270000D01*
X-29482685Y8307487D01*
X-29255301Y8401673D01*
X-29135000Y8521975D01*
X-28994699Y8381673D01*
X-28761310Y8285000D01*
X-28545750Y8285000D01*
X-28387000Y8443750D01*
X-28387000Y9193000D01*
X-28133000Y9193000D01*
X-28133000Y8443750D01*
X-27974250Y8285000D01*
X-27758690Y8285000D01*
X-27525301Y8381673D01*
X-27346673Y8560302D01*
X-27313787Y8639696D01*
X-27293327Y8590302D01*
X-27114699Y8411673D01*
X-26881310Y8315000D01*
X-26665750Y8315000D01*
X-26507000Y8473750D01*
X-26507000Y9223000D01*
X-26253000Y9223000D01*
X-26253000Y8473750D01*
X-26094250Y8315000D01*
X-25878690Y8315000D01*
X-25645301Y8411673D01*
X-25540000Y8516975D01*
X-25424699Y8401673D01*
X-25191310Y8305000D01*
X-24975750Y8305000D01*
X-24817000Y8463750D01*
X-24817000Y9213000D01*
X-25518750Y9213000D01*
X-25528750Y9223000D01*
X-26253000Y9223000D01*
X-26507000Y9223000D01*
X-27231250Y9223000D01*
X-27335000Y9119250D01*
X-27408750Y9193000D01*
X-28133000Y9193000D01*
X-28387000Y9193000D01*
X-29111250Y9193000D01*
X-29115000Y9189250D01*
X-29138750Y9213000D01*
X-29863000Y9213000D01*
X-29863000Y9193000D01*
X-30117000Y9193000D01*
X-30117000Y9213000D01*
X-30137000Y9213000D01*
X-30137000Y9467000D01*
X-30117000Y9467000D01*
X-30117000Y9487000D01*
X-29863000Y9487000D01*
X-29863000Y9467000D01*
X-29138750Y9467000D01*
X-29135000Y9470750D01*
X-29111250Y9447000D01*
X-28387000Y9447000D01*
X-28387000Y9467000D01*
X-28133000Y9467000D01*
X-28133000Y9447000D01*
X-27408750Y9447000D01*
X-27305000Y9550750D01*
X-27231250Y9477000D01*
X-26507000Y9477000D01*
X-26507000Y9497000D01*
X-26253000Y9497000D01*
X-26253000Y9477000D01*
X-25551250Y9477000D01*
X-25541250Y9467000D01*
X-24817000Y9467000D01*
X-24817000Y9487000D01*
X-24563000Y9487000D01*
X-24563000Y9467000D01*
X-23838750Y9467000D01*
X-23755000Y9550750D01*
X-23661250Y9457000D01*
X-23661250Y9457000D01*
G37*
X-23661250Y9457000D02*
X-22937000Y9457000D01*
X-22937000Y9477000D01*
X-22683000Y9477000D01*
X-22683000Y9457000D01*
X-22663000Y9457000D01*
X-22663000Y9203000D01*
X-22683000Y9203000D01*
X-22683000Y9183000D01*
X-22937000Y9183000D01*
X-22937000Y9203000D01*
X-23661250Y9203000D01*
X-23745000Y9119250D01*
X-23838750Y9213000D01*
X-24563000Y9213000D01*
X-24563000Y8463750D01*
X-24404250Y8305000D01*
X-24188690Y8305000D01*
X-23955301Y8401673D01*
X-23776673Y8580302D01*
X-23752071Y8639696D01*
X-23723327Y8570302D01*
X-23544699Y8391673D01*
X-23311310Y8295000D01*
X-23095750Y8295000D01*
X-22937002Y8453748D01*
X-22937002Y8295000D01*
X-22814892Y8295000D01*
X-22839892Y8270000D01*
X-29445198Y8270000D01*
X-29482685Y8307487D01*
X-29255301Y8401673D01*
X-29135000Y8521975D01*
X-28994699Y8381673D01*
X-28761310Y8285000D01*
X-28545750Y8285000D01*
X-28387000Y8443750D01*
X-28387000Y9193000D01*
X-28133000Y9193000D01*
X-28133000Y8443750D01*
X-27974250Y8285000D01*
X-27758690Y8285000D01*
X-27525301Y8381673D01*
X-27346673Y8560302D01*
X-27313787Y8639696D01*
X-27293327Y8590302D01*
X-27114699Y8411673D01*
X-26881310Y8315000D01*
X-26665750Y8315000D01*
X-26507000Y8473750D01*
X-26507000Y9223000D01*
X-26253000Y9223000D01*
X-26253000Y8473750D01*
X-26094250Y8315000D01*
X-25878690Y8315000D01*
X-25645301Y8411673D01*
X-25540000Y8516975D01*
X-25424699Y8401673D01*
X-25191310Y8305000D01*
X-24975750Y8305000D01*
X-24817000Y8463750D01*
X-24817000Y9213000D01*
X-25518750Y9213000D01*
X-25528750Y9223000D01*
X-26253000Y9223000D01*
X-26507000Y9223000D01*
X-27231250Y9223000D01*
X-27335000Y9119250D01*
X-27408750Y9193000D01*
X-28133000Y9193000D01*
X-28387000Y9193000D01*
X-29111250Y9193000D01*
X-29115000Y9189250D01*
X-29138750Y9213000D01*
X-29863000Y9213000D01*
X-29863000Y9193000D01*
X-30117000Y9193000D01*
X-30117000Y9213000D01*
X-30137000Y9213000D01*
X-30137000Y9467000D01*
X-30117000Y9467000D01*
X-30117000Y9487000D01*
X-29863000Y9487000D01*
X-29863000Y9467000D01*
X-29138750Y9467000D01*
X-29135000Y9470750D01*
X-29111250Y9447000D01*
X-28387000Y9447000D01*
X-28387000Y9467000D01*
X-28133000Y9467000D01*
X-28133000Y9447000D01*
X-27408750Y9447000D01*
X-27305000Y9550750D01*
X-27231250Y9477000D01*
X-26507000Y9477000D01*
X-26507000Y9497000D01*
X-26253000Y9497000D01*
X-26253000Y9477000D01*
X-25551250Y9477000D01*
X-25541250Y9467000D01*
X-24817000Y9467000D01*
X-24817000Y9487000D01*
X-24563000Y9487000D01*
X-24563000Y9467000D01*
X-23838750Y9467000D01*
X-23755000Y9550750D01*
X-23661250Y9457000D01*
G36*
X-4020054Y14620853D02*
X-3667074Y14385000D01*
X-3786309Y14385000D01*
X-4019698Y14288327D01*
X-4198327Y14109699D01*
X-4295000Y13876310D01*
X-4295000Y13185750D01*
X-4136250Y13027000D01*
X-2937000Y13027000D01*
X-2937000Y13047000D01*
X-2683000Y13047000D01*
X-2683000Y13027000D01*
X-2663000Y13027000D01*
X-2663000Y12773000D01*
X-2683000Y12773000D01*
X-2683000Y12753000D01*
X-2937000Y12753000D01*
X-2937000Y12773000D01*
X-4136250Y12773000D01*
X-4295000Y12614250D01*
X-4295000Y11923690D01*
X-4198327Y11690301D01*
X-4019698Y11511673D01*
X-3845223Y11439403D01*
X-3889147Y11410054D01*
X-4082954Y11120000D01*
X-4386397Y11120000D01*
X-4677236Y11062148D01*
X-4923798Y10897401D01*
X-7533501Y8287698D01*
X-7533501Y13483501D01*
X-7591353Y13774340D01*
X-7658356Y13874618D01*
X-7658351Y13880611D01*
X-7789230Y14197363D01*
X-7822890Y14231082D01*
X-7481715Y14298946D01*
X-6999946Y14620853D01*
X-6780000Y14950026D01*
X-6560054Y14620853D01*
X-6078285Y14298946D01*
X-5510000Y14185907D01*
X-4941715Y14298946D01*
X-4459946Y14620853D01*
X-4240000Y14950026D01*
X-4020054Y14620853D01*
X-4020054Y14620853D01*
G37*
X-4020054Y14620853D02*
X-3667074Y14385000D01*
X-3786309Y14385000D01*
X-4019698Y14288327D01*
X-4198327Y14109699D01*
X-4295000Y13876310D01*
X-4295000Y13185750D01*
X-4136250Y13027000D01*
X-2937000Y13027000D01*
X-2937000Y13047000D01*
X-2683000Y13047000D01*
X-2683000Y13027000D01*
X-2663000Y13027000D01*
X-2663000Y12773000D01*
X-2683000Y12773000D01*
X-2683000Y12753000D01*
X-2937000Y12753000D01*
X-2937000Y12773000D01*
X-4136250Y12773000D01*
X-4295000Y12614250D01*
X-4295000Y11923690D01*
X-4198327Y11690301D01*
X-4019698Y11511673D01*
X-3845223Y11439403D01*
X-3889147Y11410054D01*
X-4082954Y11120000D01*
X-4386397Y11120000D01*
X-4677236Y11062148D01*
X-4923798Y10897401D01*
X-7533501Y8287698D01*
X-7533501Y13483501D01*
X-7591353Y13774340D01*
X-7658356Y13874618D01*
X-7658351Y13880611D01*
X-7789230Y14197363D01*
X-7822890Y14231082D01*
X-7481715Y14298946D01*
X-6999946Y14620853D01*
X-6780000Y14950026D01*
X-6560054Y14620853D01*
X-6078285Y14298946D01*
X-5510000Y14185907D01*
X-4941715Y14298946D01*
X-4459946Y14620853D01*
X-4240000Y14950026D01*
X-4020054Y14620853D01*
G36*
X-35389999Y9885197D02*
X-35389999Y8989801D01*
X-35522560Y9122362D01*
X-35522560Y9345000D01*
X-35548919Y9485086D01*
X-35535000Y9518690D01*
X-35535000Y9684250D01*
X-35693750Y9843000D01*
X-35774051Y9843000D01*
X-35918110Y9941431D01*
X-36055120Y9969176D01*
X-35934683Y9991838D01*
X-35771257Y10097000D01*
X-35693750Y10097000D01*
X-35647776Y10142974D01*
X-35389999Y9885197D01*
X-35389999Y9885197D01*
G37*
X-35389999Y9885197D02*
X-35389999Y8989801D01*
X-35522560Y9122362D01*
X-35522560Y9345000D01*
X-35548919Y9485086D01*
X-35535000Y9518690D01*
X-35535000Y9684250D01*
X-35693750Y9843000D01*
X-35774051Y9843000D01*
X-35918110Y9941431D01*
X-36055120Y9969176D01*
X-35934683Y9991838D01*
X-35771257Y10097000D01*
X-35693750Y10097000D01*
X-35647776Y10142974D01*
X-35389999Y9885197D01*
G36*
X-13782148Y11816936D02*
X-13796488Y11744843D01*
X-13906441Y11674090D01*
X-14027961Y11496239D01*
X-14066673Y11589698D01*
X-14245301Y11768327D01*
X-14478690Y11865000D01*
X-14694250Y11865000D01*
X-14853000Y11706250D01*
X-14853000Y10957000D01*
X-14833000Y10957000D01*
X-14833000Y10703000D01*
X-14853000Y10703000D01*
X-14853000Y10683000D01*
X-15107000Y10683000D01*
X-15107000Y10703000D01*
X-15831250Y10703000D01*
X-15845000Y10689250D01*
X-15858750Y10703000D01*
X-16583000Y10703000D01*
X-16583000Y10683000D01*
X-16837000Y10683000D01*
X-16837000Y10703000D01*
X-16857000Y10703000D01*
X-16857000Y10957000D01*
X-16837000Y10957000D01*
X-16837000Y11706250D01*
X-16583000Y11706250D01*
X-16583000Y10957000D01*
X-15858750Y10957000D01*
X-15845000Y10970750D01*
X-15831250Y10957000D01*
X-15107000Y10957000D01*
X-15107000Y11706250D01*
X-15265750Y11865000D01*
X-15481310Y11865000D01*
X-15714699Y11768327D01*
X-15845000Y11638025D01*
X-15975301Y11768327D01*
X-16208690Y11865000D01*
X-16424250Y11865000D01*
X-16583000Y11706250D01*
X-16837000Y11706250D01*
X-16995750Y11865000D01*
X-17211310Y11865000D01*
X-17444699Y11768327D01*
X-17623327Y11589698D01*
X-17720000Y11356309D01*
X-17720000Y11240686D01*
X-18163298Y11424759D01*
X-18714285Y11425240D01*
X-18766646Y11403605D01*
X-18899161Y11492148D01*
X-19190000Y11550000D01*
X-19671614Y11550000D01*
X-19798110Y11636431D01*
X-20050000Y11687440D01*
X-20440000Y11687440D01*
X-20440000Y11766012D01*
X-20467647Y11905000D01*
X-13723306Y11905000D01*
X-13782148Y11816936D01*
X-13782148Y11816936D01*
G37*
X-13782148Y11816936D02*
X-13796488Y11744843D01*
X-13906441Y11674090D01*
X-14027961Y11496239D01*
X-14066673Y11589698D01*
X-14245301Y11768327D01*
X-14478690Y11865000D01*
X-14694250Y11865000D01*
X-14853000Y11706250D01*
X-14853000Y10957000D01*
X-14833000Y10957000D01*
X-14833000Y10703000D01*
X-14853000Y10703000D01*
X-14853000Y10683000D01*
X-15107000Y10683000D01*
X-15107000Y10703000D01*
X-15831250Y10703000D01*
X-15845000Y10689250D01*
X-15858750Y10703000D01*
X-16583000Y10703000D01*
X-16583000Y10683000D01*
X-16837000Y10683000D01*
X-16837000Y10703000D01*
X-16857000Y10703000D01*
X-16857000Y10957000D01*
X-16837000Y10957000D01*
X-16837000Y11706250D01*
X-16583000Y11706250D01*
X-16583000Y10957000D01*
X-15858750Y10957000D01*
X-15845000Y10970750D01*
X-15831250Y10957000D01*
X-15107000Y10957000D01*
X-15107000Y11706250D01*
X-15265750Y11865000D01*
X-15481310Y11865000D01*
X-15714699Y11768327D01*
X-15845000Y11638025D01*
X-15975301Y11768327D01*
X-16208690Y11865000D01*
X-16424250Y11865000D01*
X-16583000Y11706250D01*
X-16837000Y11706250D01*
X-16995750Y11865000D01*
X-17211310Y11865000D01*
X-17444699Y11768327D01*
X-17623327Y11589698D01*
X-17720000Y11356309D01*
X-17720000Y11240686D01*
X-18163298Y11424759D01*
X-18714285Y11425240D01*
X-18766646Y11403605D01*
X-18899161Y11492148D01*
X-19190000Y11550000D01*
X-19671614Y11550000D01*
X-19798110Y11636431D01*
X-20050000Y11687440D01*
X-20440000Y11687440D01*
X-20440000Y11766012D01*
X-20467647Y11905000D01*
X-13723306Y11905000D01*
X-13782148Y11816936D01*
G36*
X-9100054Y14620853D02*
X-8898104Y14485915D01*
X-9007363Y14440770D01*
X-9249918Y14198638D01*
X-9381350Y13882115D01*
X-9381649Y13539389D01*
X-9250770Y13222637D01*
X-9053501Y13025023D01*
X-9053501Y11665000D01*
X-9054250Y11665000D01*
X-9213000Y11506250D01*
X-9213000Y10905000D01*
X-9193000Y10905000D01*
X-9193000Y10871581D01*
X-9270611Y10871649D01*
X-9487000Y10782239D01*
X-9487000Y10905000D01*
X-9467000Y10905000D01*
X-9467000Y11506250D01*
X-9625750Y11665000D01*
X-9916310Y11665000D01*
X-9957089Y11648109D01*
X-9760834Y11844364D01*
X-9596087Y12090926D01*
X-9538235Y12381765D01*
X-9538235Y13032042D01*
X-9436885Y13276120D01*
X-9436586Y13618846D01*
X-9567465Y13935598D01*
X-9809597Y14178153D01*
X-10074982Y14288351D01*
X-10021715Y14298946D01*
X-9539946Y14620853D01*
X-9320000Y14950026D01*
X-9100054Y14620853D01*
X-9100054Y14620853D01*
G37*
X-9100054Y14620853D02*
X-8898104Y14485915D01*
X-9007363Y14440770D01*
X-9249918Y14198638D01*
X-9381350Y13882115D01*
X-9381649Y13539389D01*
X-9250770Y13222637D01*
X-9053501Y13025023D01*
X-9053501Y11665000D01*
X-9054250Y11665000D01*
X-9213000Y11506250D01*
X-9213000Y10905000D01*
X-9193000Y10905000D01*
X-9193000Y10871581D01*
X-9270611Y10871649D01*
X-9487000Y10782239D01*
X-9487000Y10905000D01*
X-9467000Y10905000D01*
X-9467000Y11506250D01*
X-9625750Y11665000D01*
X-9916310Y11665000D01*
X-9957089Y11648109D01*
X-9760834Y11844364D01*
X-9596087Y12090926D01*
X-9538235Y12381765D01*
X-9538235Y13032042D01*
X-9436885Y13276120D01*
X-9436586Y13618846D01*
X-9567465Y13935598D01*
X-9809597Y14178153D01*
X-10074982Y14288351D01*
X-10021715Y14298946D01*
X-9539946Y14620853D01*
X-9320000Y14950026D01*
X-9100054Y14620853D01*
G36*
X-23641348Y12622115D02*
X-23641647Y12279389D01*
X-23570000Y12105990D01*
X-23570000Y11736844D01*
X-23636441Y11694090D01*
X-23747769Y11531156D01*
X-23850910Y11691441D01*
X-23855000Y11694236D01*
X-23855000Y12405205D01*
X-23828797Y12431362D01*
X-23697365Y12747885D01*
X-23697324Y12794405D01*
X-23579447Y12817852D01*
X-23552631Y12835770D01*
X-23641348Y12622115D01*
X-23641348Y12622115D01*
G37*
X-23641348Y12622115D02*
X-23641647Y12279389D01*
X-23570000Y12105990D01*
X-23570000Y11736844D01*
X-23636441Y11694090D01*
X-23747769Y11531156D01*
X-23850910Y11691441D01*
X-23855000Y11694236D01*
X-23855000Y12405205D01*
X-23828797Y12431362D01*
X-23697365Y12747885D01*
X-23697324Y12794405D01*
X-23579447Y12817852D01*
X-23552631Y12835770D01*
X-23641348Y12622115D01*
G36*
X-29537772Y14797030D02*
X-30253108Y14081694D01*
X-30497363Y13980770D01*
X-30739918Y13738638D01*
X-30871350Y13422115D01*
X-30871649Y13079389D01*
X-30740770Y12762637D01*
X-30498638Y12520082D01*
X-30182115Y12388650D01*
X-29839389Y12388351D01*
X-29522637Y12519230D01*
X-29280082Y12761362D01*
X-29178003Y13007195D01*
X-28937531Y13247667D01*
X-28828638Y13138584D01*
X-28512115Y13007152D01*
X-28318259Y13006983D01*
X-28200770Y12722637D01*
X-27958638Y12480082D01*
X-27642115Y12348650D01*
X-27299389Y12348351D01*
X-26982637Y12479230D01*
X-26740082Y12721362D01*
X-26724038Y12760000D01*
X-25525000Y12760000D01*
X-25525000Y11735000D01*
X-25590025Y11735000D01*
X-25753110Y11846431D01*
X-26005000Y11897440D01*
X-26755000Y11897440D01*
X-26990317Y11853162D01*
X-27206441Y11714090D01*
X-27212652Y11705000D01*
X-27470025Y11705000D01*
X-27633110Y11816431D01*
X-27885000Y11867440D01*
X-28635000Y11867440D01*
X-28870317Y11823162D01*
X-29053946Y11705000D01*
X-29170754Y11705000D01*
X-29363110Y11836431D01*
X-29615000Y11887440D01*
X-30365000Y11887440D01*
X-30600317Y11843162D01*
X-30752865Y11745000D01*
X-31298569Y11745000D01*
X-31360000Y11757440D01*
X-32222987Y11757440D01*
X-32218650Y11767885D01*
X-32218379Y12078595D01*
X-32181673Y12115301D01*
X-32085000Y12348690D01*
X-32085000Y12564250D01*
X-32243750Y12723000D01*
X-32719197Y12723000D01*
X-32907885Y12801350D01*
X-33250611Y12801649D01*
X-33267000Y12794877D01*
X-33267000Y12977000D01*
X-33247000Y12977000D01*
X-33247000Y13701250D01*
X-32993000Y13701250D01*
X-32993000Y12977000D01*
X-32243750Y12977000D01*
X-32085000Y13135750D01*
X-32085000Y13351310D01*
X-32181673Y13584699D01*
X-32360302Y13763327D01*
X-32593691Y13860000D01*
X-32834250Y13860000D01*
X-32993000Y13701250D01*
X-33247000Y13701250D01*
X-33405750Y13860000D01*
X-33646309Y13860000D01*
X-33879698Y13763327D01*
X-33881068Y13761957D01*
X-33968110Y13821431D01*
X-34220000Y13872440D01*
X-34592638Y13872440D01*
X-34698623Y13978425D01*
X-34698351Y14290611D01*
X-34829230Y14607363D01*
X-34900953Y14679211D01*
X-34720000Y14950026D01*
X-34500054Y14620853D01*
X-34018285Y14298946D01*
X-33450000Y14185907D01*
X-32881715Y14298946D01*
X-32399946Y14620853D01*
X-32180000Y14950026D01*
X-31960054Y14620853D01*
X-31478285Y14298946D01*
X-30910000Y14185907D01*
X-30341715Y14298946D01*
X-29859946Y14620853D01*
X-29640000Y14950026D01*
X-29537772Y14797030D01*
X-29537772Y14797030D01*
G37*
X-29537772Y14797030D02*
X-30253108Y14081694D01*
X-30497363Y13980770D01*
X-30739918Y13738638D01*
X-30871350Y13422115D01*
X-30871649Y13079389D01*
X-30740770Y12762637D01*
X-30498638Y12520082D01*
X-30182115Y12388650D01*
X-29839389Y12388351D01*
X-29522637Y12519230D01*
X-29280082Y12761362D01*
X-29178003Y13007195D01*
X-28937531Y13247667D01*
X-28828638Y13138584D01*
X-28512115Y13007152D01*
X-28318259Y13006983D01*
X-28200770Y12722637D01*
X-27958638Y12480082D01*
X-27642115Y12348650D01*
X-27299389Y12348351D01*
X-26982637Y12479230D01*
X-26740082Y12721362D01*
X-26724038Y12760000D01*
X-25525000Y12760000D01*
X-25525000Y11735000D01*
X-25590025Y11735000D01*
X-25753110Y11846431D01*
X-26005000Y11897440D01*
X-26755000Y11897440D01*
X-26990317Y11853162D01*
X-27206441Y11714090D01*
X-27212652Y11705000D01*
X-27470025Y11705000D01*
X-27633110Y11816431D01*
X-27885000Y11867440D01*
X-28635000Y11867440D01*
X-28870317Y11823162D01*
X-29053946Y11705000D01*
X-29170754Y11705000D01*
X-29363110Y11836431D01*
X-29615000Y11887440D01*
X-30365000Y11887440D01*
X-30600317Y11843162D01*
X-30752865Y11745000D01*
X-31298569Y11745000D01*
X-31360000Y11757440D01*
X-32222987Y11757440D01*
X-32218650Y11767885D01*
X-32218379Y12078595D01*
X-32181673Y12115301D01*
X-32085000Y12348690D01*
X-32085000Y12564250D01*
X-32243750Y12723000D01*
X-32719197Y12723000D01*
X-32907885Y12801350D01*
X-33250611Y12801649D01*
X-33267000Y12794877D01*
X-33267000Y12977000D01*
X-33247000Y12977000D01*
X-33247000Y13701250D01*
X-32993000Y13701250D01*
X-32993000Y12977000D01*
X-32243750Y12977000D01*
X-32085000Y13135750D01*
X-32085000Y13351310D01*
X-32181673Y13584699D01*
X-32360302Y13763327D01*
X-32593691Y13860000D01*
X-32834250Y13860000D01*
X-32993000Y13701250D01*
X-33247000Y13701250D01*
X-33405750Y13860000D01*
X-33646309Y13860000D01*
X-33879698Y13763327D01*
X-33881068Y13761957D01*
X-33968110Y13821431D01*
X-34220000Y13872440D01*
X-34592638Y13872440D01*
X-34698623Y13978425D01*
X-34698351Y14290611D01*
X-34829230Y14607363D01*
X-34900953Y14679211D01*
X-34720000Y14950026D01*
X-34500054Y14620853D01*
X-34018285Y14298946D01*
X-33450000Y14185907D01*
X-32881715Y14298946D01*
X-32399946Y14620853D01*
X-32180000Y14950026D01*
X-31960054Y14620853D01*
X-31478285Y14298946D01*
X-30910000Y14185907D01*
X-30341715Y14298946D01*
X-29859946Y14620853D01*
X-29640000Y14950026D01*
X-29537772Y14797030D01*
G36*
X708192Y17121627D02*
X671890Y17146431D01*
X420000Y17197440D01*
X-1280000Y17197440D01*
X-1411787Y17172643D01*
X-2379569Y18140425D01*
X-2650462Y18321430D01*
X-2970003Y18384991D01*
X-10589997Y18384991D01*
X-10909538Y18321430D01*
X-11180431Y18140425D01*
X-12356753Y16964103D01*
X-12561715Y17101054D01*
X-13130000Y17214093D01*
X-13698285Y17101054D01*
X-14180054Y16779147D01*
X-14400000Y16449974D01*
X-14619946Y16779147D01*
X-15101715Y17101054D01*
X-15670000Y17214093D01*
X-16238285Y17101054D01*
X-16720054Y16779147D01*
X-16940000Y16449974D01*
X-17159946Y16779147D01*
X-17641715Y17101054D01*
X-18210000Y17214093D01*
X-18778285Y17101054D01*
X-19260054Y16779147D01*
X-19480000Y16449974D01*
X-19699946Y16779147D01*
X-20181715Y17101054D01*
X-20750000Y17214093D01*
X-21318285Y17101054D01*
X-21800054Y16779147D01*
X-22020000Y16449974D01*
X-22239946Y16779147D01*
X-22721715Y17101054D01*
X-23290000Y17214093D01*
X-23858285Y17101054D01*
X-24340054Y16779147D01*
X-24560000Y16449974D01*
X-24779946Y16779147D01*
X-25261715Y17101054D01*
X-25830000Y17214093D01*
X-26398285Y17101054D01*
X-26880054Y16779147D01*
X-27100000Y16449974D01*
X-27319946Y16779147D01*
X-27801715Y17101054D01*
X-28370000Y17214093D01*
X-28938285Y17101054D01*
X-29420054Y16779147D01*
X-29640000Y16449974D01*
X-29859946Y16779147D01*
X-30341715Y17101054D01*
X-30910000Y17214093D01*
X-31478285Y17101054D01*
X-31960054Y16779147D01*
X-32180000Y16449974D01*
X-32399946Y16779147D01*
X-32881715Y17101054D01*
X-33450000Y17214093D01*
X-34018285Y17101054D01*
X-34500054Y16779147D01*
X-34720000Y16449974D01*
X-34939946Y16779147D01*
X-35421715Y17101054D01*
X-35990000Y17214093D01*
X-36558285Y17101054D01*
X-37040054Y16779147D01*
X-37260000Y16449974D01*
X-37479946Y16779147D01*
X-37961715Y17101054D01*
X-38530000Y17214093D01*
X-39098285Y17101054D01*
X-39580054Y16779147D01*
X-39800000Y16449974D01*
X-40019946Y16779147D01*
X-40501715Y17101054D01*
X-41070000Y17214093D01*
X-41638285Y17101054D01*
X-42120054Y16779147D01*
X-42340000Y16449974D01*
X-42559946Y16779147D01*
X-43041715Y17101054D01*
X-43610000Y17214093D01*
X-44178285Y17101054D01*
X-44660054Y16779147D01*
X-44887702Y16438447D01*
X-44954817Y16581358D01*
X-45383076Y16971645D01*
X-45793110Y17141476D01*
X-46023000Y17020155D01*
X-46023000Y15827000D01*
X-46003000Y15827000D01*
X-46003000Y15573000D01*
X-46023000Y15573000D01*
X-46023000Y15553000D01*
X-46277000Y15553000D01*
X-46277000Y15573000D01*
X-46297000Y15573000D01*
X-46297000Y15827000D01*
X-46277000Y15827000D01*
X-46277000Y17020155D01*
X-46506890Y17141476D01*
X-46916924Y16971645D01*
X-47345183Y16581358D01*
X-47412298Y16438447D01*
X-47639946Y16779147D01*
X-48121715Y17101054D01*
X-48690000Y17214093D01*
X-49258285Y17101054D01*
X-49740054Y16779147D01*
X-49871761Y16582033D01*
X-49871938Y18602000D01*
X708062Y18602000D01*
X708192Y17121627D01*
X708192Y17121627D01*
G37*
X708192Y17121627D02*
X671890Y17146431D01*
X420000Y17197440D01*
X-1280000Y17197440D01*
X-1411787Y17172643D01*
X-2379569Y18140425D01*
X-2650462Y18321430D01*
X-2970003Y18384991D01*
X-10589997Y18384991D01*
X-10909538Y18321430D01*
X-11180431Y18140425D01*
X-12356753Y16964103D01*
X-12561715Y17101054D01*
X-13130000Y17214093D01*
X-13698285Y17101054D01*
X-14180054Y16779147D01*
X-14400000Y16449974D01*
X-14619946Y16779147D01*
X-15101715Y17101054D01*
X-15670000Y17214093D01*
X-16238285Y17101054D01*
X-16720054Y16779147D01*
X-16940000Y16449974D01*
X-17159946Y16779147D01*
X-17641715Y17101054D01*
X-18210000Y17214093D01*
X-18778285Y17101054D01*
X-19260054Y16779147D01*
X-19480000Y16449974D01*
X-19699946Y16779147D01*
X-20181715Y17101054D01*
X-20750000Y17214093D01*
X-21318285Y17101054D01*
X-21800054Y16779147D01*
X-22020000Y16449974D01*
X-22239946Y16779147D01*
X-22721715Y17101054D01*
X-23290000Y17214093D01*
X-23858285Y17101054D01*
X-24340054Y16779147D01*
X-24560000Y16449974D01*
X-24779946Y16779147D01*
X-25261715Y17101054D01*
X-25830000Y17214093D01*
X-26398285Y17101054D01*
X-26880054Y16779147D01*
X-27100000Y16449974D01*
X-27319946Y16779147D01*
X-27801715Y17101054D01*
X-28370000Y17214093D01*
X-28938285Y17101054D01*
X-29420054Y16779147D01*
X-29640000Y16449974D01*
X-29859946Y16779147D01*
X-30341715Y17101054D01*
X-30910000Y17214093D01*
X-31478285Y17101054D01*
X-31960054Y16779147D01*
X-32180000Y16449974D01*
X-32399946Y16779147D01*
X-32881715Y17101054D01*
X-33450000Y17214093D01*
X-34018285Y17101054D01*
X-34500054Y16779147D01*
X-34720000Y16449974D01*
X-34939946Y16779147D01*
X-35421715Y17101054D01*
X-35990000Y17214093D01*
X-36558285Y17101054D01*
X-37040054Y16779147D01*
X-37260000Y16449974D01*
X-37479946Y16779147D01*
X-37961715Y17101054D01*
X-38530000Y17214093D01*
X-39098285Y17101054D01*
X-39580054Y16779147D01*
X-39800000Y16449974D01*
X-40019946Y16779147D01*
X-40501715Y17101054D01*
X-41070000Y17214093D01*
X-41638285Y17101054D01*
X-42120054Y16779147D01*
X-42340000Y16449974D01*
X-42559946Y16779147D01*
X-43041715Y17101054D01*
X-43610000Y17214093D01*
X-44178285Y17101054D01*
X-44660054Y16779147D01*
X-44887702Y16438447D01*
X-44954817Y16581358D01*
X-45383076Y16971645D01*
X-45793110Y17141476D01*
X-46023000Y17020155D01*
X-46023000Y15827000D01*
X-46003000Y15827000D01*
X-46003000Y15573000D01*
X-46023000Y15573000D01*
X-46023000Y15553000D01*
X-46277000Y15553000D01*
X-46277000Y15573000D01*
X-46297000Y15573000D01*
X-46297000Y15827000D01*
X-46277000Y15827000D01*
X-46277000Y17020155D01*
X-46506890Y17141476D01*
X-46916924Y16971645D01*
X-47345183Y16581358D01*
X-47412298Y16438447D01*
X-47639946Y16779147D01*
X-48121715Y17101054D01*
X-48690000Y17214093D01*
X-49258285Y17101054D01*
X-49740054Y16779147D01*
X-49871761Y16582033D01*
X-49871938Y18602000D01*
X708062Y18602000D01*
X708192Y17121627D01*
G36*
X-2843000Y327000D02*
X-2823000Y327000D01*
X-2823000Y73000D01*
X-2843000Y73000D01*
X-2843000Y53000D01*
X-3097000Y53000D01*
X-3097000Y73000D01*
X-3117000Y73000D01*
X-3117000Y327000D01*
X-3097000Y327000D01*
X-3097000Y347000D01*
X-2843000Y347000D01*
X-2843000Y327000D01*
X-2843000Y327000D01*
G37*
X-2843000Y327000D02*
X-2823000Y327000D01*
X-2823000Y73000D01*
X-2843000Y73000D01*
X-2843000Y53000D01*
X-3097000Y53000D01*
X-3097000Y73000D01*
X-3117000Y73000D01*
X-3117000Y327000D01*
X-3097000Y327000D01*
X-3097000Y347000D01*
X-2843000Y347000D01*
X-2843000Y327000D01*
G36*
X-6022115Y4688650D02*
X-5861099Y4688510D01*
X-5920000Y4546309D01*
X-5920000Y4305750D01*
X-5761250Y4147000D01*
X-5037000Y4147000D01*
X-5037000Y4167000D01*
X-4783000Y4167000D01*
X-4783000Y4147000D01*
X-4763000Y4147000D01*
X-4763000Y3893000D01*
X-4783000Y3893000D01*
X-4783000Y3143750D01*
X-4624250Y2985000D01*
X-4408690Y2985000D01*
X-4263388Y3045186D01*
X-4324093Y2740000D01*
X-4211054Y2171715D01*
X-3889147Y1689946D01*
X-3629207Y1516260D01*
X-3736924Y1471645D01*
X-4165183Y1081358D01*
X-4232298Y938447D01*
X-4459946Y1279147D01*
X-4941715Y1601054D01*
X-5510000Y1714093D01*
X-6078285Y1601054D01*
X-6560054Y1279147D01*
X-6780000Y949974D01*
X-6999946Y1279147D01*
X-7481715Y1601054D01*
X-8050000Y1714093D01*
X-8618285Y1601054D01*
X-9100054Y1279147D01*
X-9320000Y949974D01*
X-9539946Y1279147D01*
X-9789383Y1445815D01*
X-7929644Y3305554D01*
X-7923327Y3290302D01*
X-7744699Y3111673D01*
X-7511310Y3015000D01*
X-7295750Y3015000D01*
X-7137000Y3173750D01*
X-7137000Y3923000D01*
X-6883000Y3923000D01*
X-6883000Y3173750D01*
X-6724250Y3015000D01*
X-6508690Y3015000D01*
X-6275301Y3111673D01*
X-6096673Y3290302D01*
X-6000000Y3523691D01*
X-6000000Y3734250D01*
X-5920000Y3734250D01*
X-5920000Y3493691D01*
X-5823327Y3260302D01*
X-5644699Y3081673D01*
X-5411310Y2985000D01*
X-5195750Y2985000D01*
X-5037000Y3143750D01*
X-5037000Y3893000D01*
X-5761250Y3893000D01*
X-5920000Y3734250D01*
X-6000000Y3734250D01*
X-6000000Y3764250D01*
X-6158750Y3923000D01*
X-6883000Y3923000D01*
X-7137000Y3923000D01*
X-7157000Y3923000D01*
X-7157000Y4177000D01*
X-7137000Y4177000D01*
X-7137000Y4197000D01*
X-6883000Y4197000D01*
X-6883000Y4177000D01*
X-6158750Y4177000D01*
X-6000000Y4335750D01*
X-6000000Y4576309D01*
X-6051605Y4700896D01*
X-6022115Y4688650D01*
X-6022115Y4688650D01*
G37*
X-6022115Y4688650D02*
X-5861099Y4688510D01*
X-5920000Y4546309D01*
X-5920000Y4305750D01*
X-5761250Y4147000D01*
X-5037000Y4147000D01*
X-5037000Y4167000D01*
X-4783000Y4167000D01*
X-4783000Y4147000D01*
X-4763000Y4147000D01*
X-4763000Y3893000D01*
X-4783000Y3893000D01*
X-4783000Y3143750D01*
X-4624250Y2985000D01*
X-4408690Y2985000D01*
X-4263388Y3045186D01*
X-4324093Y2740000D01*
X-4211054Y2171715D01*
X-3889147Y1689946D01*
X-3629207Y1516260D01*
X-3736924Y1471645D01*
X-4165183Y1081358D01*
X-4232298Y938447D01*
X-4459946Y1279147D01*
X-4941715Y1601054D01*
X-5510000Y1714093D01*
X-6078285Y1601054D01*
X-6560054Y1279147D01*
X-6780000Y949974D01*
X-6999946Y1279147D01*
X-7481715Y1601054D01*
X-8050000Y1714093D01*
X-8618285Y1601054D01*
X-9100054Y1279147D01*
X-9320000Y949974D01*
X-9539946Y1279147D01*
X-9789383Y1445815D01*
X-7929644Y3305554D01*
X-7923327Y3290302D01*
X-7744699Y3111673D01*
X-7511310Y3015000D01*
X-7295750Y3015000D01*
X-7137000Y3173750D01*
X-7137000Y3923000D01*
X-6883000Y3923000D01*
X-6883000Y3173750D01*
X-6724250Y3015000D01*
X-6508690Y3015000D01*
X-6275301Y3111673D01*
X-6096673Y3290302D01*
X-6000000Y3523691D01*
X-6000000Y3734250D01*
X-5920000Y3734250D01*
X-5920000Y3493691D01*
X-5823327Y3260302D01*
X-5644699Y3081673D01*
X-5411310Y2985000D01*
X-5195750Y2985000D01*
X-5037000Y3143750D01*
X-5037000Y3893000D01*
X-5761250Y3893000D01*
X-5920000Y3734250D01*
X-6000000Y3734250D01*
X-6000000Y3764250D01*
X-6158750Y3923000D01*
X-6883000Y3923000D01*
X-7137000Y3923000D01*
X-7157000Y3923000D01*
X-7157000Y4177000D01*
X-7137000Y4177000D01*
X-7137000Y4197000D01*
X-6883000Y4197000D01*
X-6883000Y4177000D01*
X-6158750Y4177000D01*
X-6000000Y4335750D01*
X-6000000Y4576309D01*
X-6051605Y4700896D01*
X-6022115Y4688650D01*
G36*
X-12953000Y9437000D02*
X-12933000Y9437000D01*
X-12933000Y9183000D01*
X-12953000Y9183000D01*
X-12953000Y8433750D01*
X-12794250Y8275000D01*
X-12578690Y8275000D01*
X-12345301Y8371673D01*
X-12166673Y8550302D01*
X-12150000Y8590554D01*
X-12133327Y8550302D01*
X-11954699Y8371673D01*
X-11721310Y8275000D01*
X-11505750Y8275000D01*
X-11347000Y8433750D01*
X-11347000Y9183000D01*
X-11367000Y9183000D01*
X-11367000Y9437000D01*
X-11347000Y9437000D01*
X-11347000Y9457000D01*
X-11093000Y9457000D01*
X-11093000Y9437000D01*
X-11073000Y9437000D01*
X-11073000Y9183000D01*
X-11093000Y9183000D01*
X-11093000Y8433750D01*
X-10934250Y8275000D01*
X-10718690Y8275000D01*
X-10485301Y8371673D01*
X-10306673Y8550302D01*
X-10278960Y8617208D01*
X-10254090Y8578559D01*
X-10041890Y8433569D01*
X-9790000Y8382560D01*
X-9152242Y8382560D01*
X-10927401Y6607401D01*
X-11046937Y6428502D01*
X-11075317Y6423162D01*
X-11291441Y6284090D01*
X-11436431Y6071890D01*
X-11487440Y5820000D01*
X-11487440Y5320000D01*
X-11443162Y5084683D01*
X-11304090Y4868559D01*
X-11234289Y4820866D01*
X-11291441Y4784090D01*
X-11436431Y4571890D01*
X-11487440Y4320000D01*
X-11487440Y3820000D01*
X-11443162Y3584683D01*
X-11304090Y3368559D01*
X-11091890Y3223569D01*
X-10900076Y3184726D01*
X-11134802Y2950000D01*
X-19841753Y2950000D01*
X-19788650Y3077885D01*
X-19788422Y3338780D01*
X-19668559Y3415910D01*
X-19632110Y3469254D01*
X-19542422Y3379566D01*
X-19271529Y3198561D01*
X-18951988Y3135000D01*
X-16727526Y3135000D01*
X-16666890Y3093569D01*
X-16415000Y3042560D01*
X-15665000Y3042560D01*
X-15429683Y3086838D01*
X-15213559Y3225910D01*
X-15068569Y3438110D01*
X-15017560Y3690000D01*
X-15017560Y4490000D01*
X-15061838Y4725317D01*
X-15128329Y4828646D01*
X-15126673Y4830302D01*
X-15030000Y5063691D01*
X-15030000Y5304250D01*
X-15188750Y5463000D01*
X-15913000Y5463000D01*
X-15913000Y5443000D01*
X-16167000Y5443000D01*
X-16167000Y5463000D01*
X-16187000Y5463000D01*
X-16187000Y5717000D01*
X-16167000Y5717000D01*
X-16167000Y6466250D01*
X-15913000Y6466250D01*
X-15913000Y5717000D01*
X-15188750Y5717000D01*
X-15030000Y5875750D01*
X-15030000Y6116309D01*
X-15126673Y6349698D01*
X-15305301Y6528327D01*
X-15538690Y6625000D01*
X-15754250Y6625000D01*
X-15913000Y6466250D01*
X-16167000Y6466250D01*
X-16325750Y6625000D01*
X-16541310Y6625000D01*
X-16667440Y6572755D01*
X-16632560Y6745000D01*
X-16632560Y7490000D01*
X-16035000Y7490000D01*
X-15744161Y7547852D01*
X-15497599Y7712599D01*
X-14927638Y8282560D01*
X-14605000Y8282560D01*
X-14369683Y8326838D01*
X-14153559Y8465910D01*
X-14032039Y8643761D01*
X-13993327Y8550302D01*
X-13814699Y8371673D01*
X-13581310Y8275000D01*
X-13365750Y8275000D01*
X-13207000Y8433750D01*
X-13207000Y9183000D01*
X-13227000Y9183000D01*
X-13227000Y9437000D01*
X-13207000Y9437000D01*
X-13207000Y9457000D01*
X-12953000Y9457000D01*
X-12953000Y9437000D01*
X-12953000Y9437000D01*
G37*
X-12953000Y9437000D02*
X-12933000Y9437000D01*
X-12933000Y9183000D01*
X-12953000Y9183000D01*
X-12953000Y8433750D01*
X-12794250Y8275000D01*
X-12578690Y8275000D01*
X-12345301Y8371673D01*
X-12166673Y8550302D01*
X-12150000Y8590554D01*
X-12133327Y8550302D01*
X-11954699Y8371673D01*
X-11721310Y8275000D01*
X-11505750Y8275000D01*
X-11347000Y8433750D01*
X-11347000Y9183000D01*
X-11367000Y9183000D01*
X-11367000Y9437000D01*
X-11347000Y9437000D01*
X-11347000Y9457000D01*
X-11093000Y9457000D01*
X-11093000Y9437000D01*
X-11073000Y9437000D01*
X-11073000Y9183000D01*
X-11093000Y9183000D01*
X-11093000Y8433750D01*
X-10934250Y8275000D01*
X-10718690Y8275000D01*
X-10485301Y8371673D01*
X-10306673Y8550302D01*
X-10278960Y8617208D01*
X-10254090Y8578559D01*
X-10041890Y8433569D01*
X-9790000Y8382560D01*
X-9152242Y8382560D01*
X-10927401Y6607401D01*
X-11046937Y6428502D01*
X-11075317Y6423162D01*
X-11291441Y6284090D01*
X-11436431Y6071890D01*
X-11487440Y5820000D01*
X-11487440Y5320000D01*
X-11443162Y5084683D01*
X-11304090Y4868559D01*
X-11234289Y4820866D01*
X-11291441Y4784090D01*
X-11436431Y4571890D01*
X-11487440Y4320000D01*
X-11487440Y3820000D01*
X-11443162Y3584683D01*
X-11304090Y3368559D01*
X-11091890Y3223569D01*
X-10900076Y3184726D01*
X-11134802Y2950000D01*
X-19841753Y2950000D01*
X-19788650Y3077885D01*
X-19788422Y3338780D01*
X-19668559Y3415910D01*
X-19632110Y3469254D01*
X-19542422Y3379566D01*
X-19271529Y3198561D01*
X-18951988Y3135000D01*
X-16727526Y3135000D01*
X-16666890Y3093569D01*
X-16415000Y3042560D01*
X-15665000Y3042560D01*
X-15429683Y3086838D01*
X-15213559Y3225910D01*
X-15068569Y3438110D01*
X-15017560Y3690000D01*
X-15017560Y4490000D01*
X-15061838Y4725317D01*
X-15128329Y4828646D01*
X-15126673Y4830302D01*
X-15030000Y5063691D01*
X-15030000Y5304250D01*
X-15188750Y5463000D01*
X-15913000Y5463000D01*
X-15913000Y5443000D01*
X-16167000Y5443000D01*
X-16167000Y5463000D01*
X-16187000Y5463000D01*
X-16187000Y5717000D01*
X-16167000Y5717000D01*
X-16167000Y6466250D01*
X-15913000Y6466250D01*
X-15913000Y5717000D01*
X-15188750Y5717000D01*
X-15030000Y5875750D01*
X-15030000Y6116309D01*
X-15126673Y6349698D01*
X-15305301Y6528327D01*
X-15538690Y6625000D01*
X-15754250Y6625000D01*
X-15913000Y6466250D01*
X-16167000Y6466250D01*
X-16325750Y6625000D01*
X-16541310Y6625000D01*
X-16667440Y6572755D01*
X-16632560Y6745000D01*
X-16632560Y7490000D01*
X-16035000Y7490000D01*
X-15744161Y7547852D01*
X-15497599Y7712599D01*
X-14927638Y8282560D01*
X-14605000Y8282560D01*
X-14369683Y8326838D01*
X-14153559Y8465910D01*
X-14032039Y8643761D01*
X-13993327Y8550302D01*
X-13814699Y8371673D01*
X-13581310Y8275000D01*
X-13365750Y8275000D01*
X-13207000Y8433750D01*
X-13207000Y9183000D01*
X-13227000Y9183000D01*
X-13227000Y9437000D01*
X-13207000Y9437000D01*
X-13207000Y9457000D01*
X-12953000Y9457000D01*
X-12953000Y9437000D01*
G36*
X-41844090Y8328559D02*
X-41631890Y8183569D01*
X-41380000Y8132560D01*
X-41052057Y8132560D01*
X-41040000Y8103379D01*
X-41040000Y7679231D01*
X-41195110Y7743476D01*
X-41425000Y7622155D01*
X-41425000Y6429000D01*
X-41405000Y6429000D01*
X-41405000Y6175000D01*
X-41425000Y6175000D01*
X-41425000Y3889000D01*
X-41405000Y3889000D01*
X-41405000Y3635000D01*
X-41425000Y3635000D01*
X-41425000Y3615000D01*
X-41679000Y3615000D01*
X-41679000Y3635000D01*
X-41699000Y3635000D01*
X-41699000Y3889000D01*
X-41679000Y3889000D01*
X-41679000Y6175000D01*
X-42872819Y6175000D01*
X-42993486Y5945108D01*
X-42747183Y5420642D01*
X-42320729Y5032000D01*
X-42747183Y4643358D01*
X-42860723Y4401591D01*
X-43002991Y4543859D01*
X-43029230Y4607363D01*
X-43271362Y4849918D01*
X-43335812Y4876680D01*
X-43805000Y5345868D01*
X-43805000Y6658892D01*
X-42993486Y6658892D01*
X-42872819Y6429000D01*
X-41679000Y6429000D01*
X-41679000Y7622155D01*
X-41908890Y7743476D01*
X-42318924Y7573645D01*
X-42747183Y7183358D01*
X-42993486Y6658892D01*
X-43805000Y6658892D01*
X-43805000Y6845653D01*
X-43771319Y6831667D01*
X-43428593Y6831368D01*
X-43111841Y6962247D01*
X-42869286Y7204379D01*
X-42861096Y7224102D01*
X-42092599Y7992599D01*
X-41927852Y8239161D01*
X-41906026Y8348889D01*
X-41880866Y8385711D01*
X-41844090Y8328559D01*
X-41844090Y8328559D01*
G37*
X-41844090Y8328559D02*
X-41631890Y8183569D01*
X-41380000Y8132560D01*
X-41052057Y8132560D01*
X-41040000Y8103379D01*
X-41040000Y7679231D01*
X-41195110Y7743476D01*
X-41425000Y7622155D01*
X-41425000Y6429000D01*
X-41405000Y6429000D01*
X-41405000Y6175000D01*
X-41425000Y6175000D01*
X-41425000Y3889000D01*
X-41405000Y3889000D01*
X-41405000Y3635000D01*
X-41425000Y3635000D01*
X-41425000Y3615000D01*
X-41679000Y3615000D01*
X-41679000Y3635000D01*
X-41699000Y3635000D01*
X-41699000Y3889000D01*
X-41679000Y3889000D01*
X-41679000Y6175000D01*
X-42872819Y6175000D01*
X-42993486Y5945108D01*
X-42747183Y5420642D01*
X-42320729Y5032000D01*
X-42747183Y4643358D01*
X-42860723Y4401591D01*
X-43002991Y4543859D01*
X-43029230Y4607363D01*
X-43271362Y4849918D01*
X-43335812Y4876680D01*
X-43805000Y5345868D01*
X-43805000Y6658892D01*
X-42993486Y6658892D01*
X-42872819Y6429000D01*
X-41679000Y6429000D01*
X-41679000Y7622155D01*
X-41908890Y7743476D01*
X-42318924Y7573645D01*
X-42747183Y7183358D01*
X-42993486Y6658892D01*
X-43805000Y6658892D01*
X-43805000Y6845653D01*
X-43771319Y6831667D01*
X-43428593Y6831368D01*
X-43111841Y6962247D01*
X-42869286Y7204379D01*
X-42861096Y7224102D01*
X-42092599Y7992599D01*
X-41927852Y8239161D01*
X-41906026Y8348889D01*
X-41880866Y8385711D01*
X-41844090Y8328559D01*
G36*
X-31863000Y4267000D02*
X-31843000Y4267000D01*
X-31843000Y4013000D01*
X-31863000Y4013000D01*
X-31863000Y3993000D01*
X-32117000Y3993000D01*
X-32117000Y4013000D01*
X-32137000Y4013000D01*
X-32137000Y4267000D01*
X-32117000Y4267000D01*
X-32117000Y4287000D01*
X-31863000Y4287000D01*
X-31863000Y4267000D01*
X-31863000Y4267000D01*
G37*
X-31863000Y4267000D02*
X-31843000Y4267000D01*
X-31843000Y4013000D01*
X-31863000Y4013000D01*
X-31863000Y3993000D01*
X-32117000Y3993000D01*
X-32117000Y4013000D01*
X-32137000Y4013000D01*
X-32137000Y4267000D01*
X-32117000Y4267000D01*
X-32117000Y4287000D01*
X-31863000Y4287000D01*
X-31863000Y4267000D01*
G36*
X-48353000Y4357000D02*
X-48333000Y4357000D01*
X-48333000Y4103000D01*
X-48353000Y4103000D01*
X-48353000Y4083000D01*
X-48607000Y4083000D01*
X-48607000Y4103000D01*
X-48627000Y4103000D01*
X-48627000Y4357000D01*
X-48607000Y4357000D01*
X-48607000Y4377000D01*
X-48353000Y4377000D01*
X-48353000Y4357000D01*
X-48353000Y4357000D01*
G37*
X-48353000Y4357000D02*
X-48333000Y4357000D01*
X-48333000Y4103000D01*
X-48353000Y4103000D01*
X-48353000Y4083000D01*
X-48607000Y4083000D01*
X-48607000Y4103000D01*
X-48627000Y4103000D01*
X-48627000Y4357000D01*
X-48607000Y4357000D01*
X-48607000Y4377000D01*
X-48353000Y4377000D01*
X-48353000Y4357000D01*
G36*
X-46553793Y6183398D02*
X-45780000Y5409605D01*
X-45765857Y5423747D01*
X-45586252Y5244142D01*
X-45600395Y5230000D01*
X-45586252Y5215857D01*
X-45765857Y5036252D01*
X-45780000Y5050395D01*
X-45794142Y5036252D01*
X-45973747Y5215857D01*
X-45959605Y5230000D01*
X-46733398Y6003793D01*
X-46971753Y5938878D01*
X-46972938Y5935530D01*
X-47083198Y6045790D01*
X-47212057Y6131890D01*
X-47370313Y6237633D01*
X-47443284Y6252148D01*
X-47580707Y6279484D01*
X-47508559Y6325910D01*
X-47498932Y6340000D01*
X-47386193Y6340000D01*
X-47142115Y6238650D01*
X-46799389Y6238351D01*
X-46505788Y6359664D01*
X-46553793Y6183398D01*
X-46553793Y6183398D01*
G37*
X-46553793Y6183398D02*
X-45780000Y5409605D01*
X-45765857Y5423747D01*
X-45586252Y5244142D01*
X-45600395Y5230000D01*
X-45586252Y5215857D01*
X-45765857Y5036252D01*
X-45780000Y5050395D01*
X-45794142Y5036252D01*
X-45973747Y5215857D01*
X-45959605Y5230000D01*
X-46733398Y6003793D01*
X-46971753Y5938878D01*
X-46972938Y5935530D01*
X-47083198Y6045790D01*
X-47212057Y6131890D01*
X-47370313Y6237633D01*
X-47443284Y6252148D01*
X-47580707Y6279484D01*
X-47508559Y6325910D01*
X-47498932Y6340000D01*
X-47386193Y6340000D01*
X-47142115Y6238650D01*
X-46799389Y6238351D01*
X-46505788Y6359664D01*
X-46553793Y6183398D01*
G36*
X-30223000Y5757000D02*
X-30203000Y5757000D01*
X-30203000Y5503000D01*
X-30223000Y5503000D01*
X-30223000Y5483000D01*
X-30477000Y5483000D01*
X-30477000Y5503000D01*
X-30497000Y5503000D01*
X-30497000Y5757000D01*
X-30477000Y5757000D01*
X-30477000Y5777000D01*
X-30223000Y5777000D01*
X-30223000Y5757000D01*
X-30223000Y5757000D01*
G37*
X-30223000Y5757000D02*
X-30203000Y5757000D01*
X-30203000Y5503000D01*
X-30223000Y5503000D01*
X-30223000Y5483000D01*
X-30477000Y5483000D01*
X-30477000Y5503000D01*
X-30497000Y5503000D01*
X-30497000Y5757000D01*
X-30477000Y5757000D01*
X-30477000Y5777000D01*
X-30223000Y5777000D01*
X-30223000Y5757000D01*
G36*
X-24173000Y5787000D02*
X-23448750Y5787000D01*
X-23435000Y5800750D01*
X-23411250Y5777000D01*
X-22687000Y5777000D01*
X-22687000Y5797000D01*
X-22433000Y5797000D01*
X-22433000Y5777000D01*
X-22413000Y5777000D01*
X-22413000Y5537699D01*
X-22445790Y5515790D01*
X-22445792Y5515787D01*
X-22458579Y5503000D01*
X-22687000Y5503000D01*
X-22687000Y5523000D01*
X-23411250Y5523000D01*
X-23425000Y5509250D01*
X-23448750Y5533000D01*
X-24173000Y5533000D01*
X-24173000Y5513000D01*
X-24427000Y5513000D01*
X-24427000Y5533000D01*
X-24447000Y5533000D01*
X-24447000Y5787000D01*
X-24427000Y5787000D01*
X-24427000Y5807000D01*
X-24173000Y5807000D01*
X-24173000Y5787000D01*
X-24173000Y5787000D01*
G37*
X-24173000Y5787000D02*
X-23448750Y5787000D01*
X-23435000Y5800750D01*
X-23411250Y5777000D01*
X-22687000Y5777000D01*
X-22687000Y5797000D01*
X-22433000Y5797000D01*
X-22433000Y5777000D01*
X-22413000Y5777000D01*
X-22413000Y5537699D01*
X-22445790Y5515790D01*
X-22445792Y5515787D01*
X-22458579Y5503000D01*
X-22687000Y5503000D01*
X-22687000Y5523000D01*
X-23411250Y5523000D01*
X-23425000Y5509250D01*
X-23448750Y5533000D01*
X-24173000Y5533000D01*
X-24173000Y5513000D01*
X-24427000Y5513000D01*
X-24427000Y5533000D01*
X-24447000Y5533000D01*
X-24447000Y5787000D01*
X-24427000Y5787000D01*
X-24427000Y5807000D01*
X-24173000Y5807000D01*
X-24173000Y5787000D01*
G36*
X-41405792Y12244213D02*
X-41405790Y12244210D01*
X-41392217Y12235141D01*
X-41615317Y12193162D01*
X-41831441Y12054090D01*
X-41879134Y11984289D01*
X-41915910Y12041441D01*
X-42128110Y12186431D01*
X-42380000Y12237440D01*
X-42880000Y12237440D01*
X-43115317Y12193162D01*
X-43195243Y12141731D01*
X-43161673Y12175301D01*
X-43065000Y12408690D01*
X-43065000Y12624250D01*
X-43223750Y12783000D01*
X-43973000Y12783000D01*
X-43973000Y12058750D01*
X-43814250Y11900000D01*
X-43573691Y11900000D01*
X-43382661Y11979127D01*
X-43476431Y11841890D01*
X-43527440Y11590000D01*
X-43527440Y11317362D01*
X-44117401Y10727401D01*
X-44282148Y10480839D01*
X-44340000Y10190000D01*
X-44340000Y9978076D01*
X-44347885Y9981350D01*
X-44425293Y9981418D01*
X-44407688Y10031146D01*
X-44436051Y10571444D01*
X-44588247Y10938878D01*
X-44826602Y11003793D01*
X-45600395Y10230000D01*
X-45586252Y10215857D01*
X-45765857Y10036252D01*
X-45780000Y10050395D01*
X-46553793Y9276602D01*
X-46488878Y9038247D01*
X-45978854Y8857688D01*
X-45475000Y8884138D01*
X-45475000Y6564734D01*
X-45581146Y6602312D01*
X-46121444Y6573949D01*
X-46388281Y6463422D01*
X-46240082Y6611362D01*
X-46108650Y6927885D01*
X-46108351Y7270611D01*
X-46239230Y7587363D01*
X-46481362Y7829918D01*
X-46797885Y7961350D01*
X-47140611Y7961649D01*
X-47386621Y7860000D01*
X-47491975Y7860000D01*
X-47421673Y7930302D01*
X-47325000Y8163691D01*
X-47325000Y8256250D01*
X-47483750Y8415000D01*
X-48283000Y8415000D01*
X-48283000Y8393000D01*
X-48537000Y8393000D01*
X-48537000Y8415000D01*
X-48557000Y8415000D01*
X-48557000Y8665000D01*
X-48537000Y8665000D01*
X-48537000Y9266250D01*
X-48283000Y9266250D01*
X-48283000Y8665000D01*
X-47483750Y8665000D01*
X-47325000Y8823750D01*
X-47325000Y8916309D01*
X-47421673Y9149698D01*
X-47600301Y9328327D01*
X-47833690Y9425000D01*
X-48124250Y9425000D01*
X-48283000Y9266250D01*
X-48537000Y9266250D01*
X-48695750Y9425000D01*
X-48985000Y9425000D01*
X-48985000Y10003625D01*
X-48957000Y9995000D01*
X-48607000Y9995000D01*
X-48607000Y11103000D01*
X-48353000Y11103000D01*
X-48353000Y9995000D01*
X-48003000Y9995000D01*
X-47540053Y10137610D01*
X-47166920Y10446526D01*
X-47103842Y10565768D01*
X-47152312Y10428854D01*
X-47123949Y9888556D01*
X-46971753Y9521122D01*
X-46733398Y9456207D01*
X-45959605Y10230000D01*
X-46733398Y11003793D01*
X-46956576Y10943012D01*
X-47061269Y11103000D01*
X-48353000Y11103000D01*
X-48607000Y11103000D01*
X-48627000Y11103000D01*
X-48627000Y11183398D01*
X-46553793Y11183398D01*
X-45780000Y10409605D01*
X-45006207Y11183398D01*
X-45071122Y11421753D01*
X-45581146Y11602312D01*
X-46121444Y11573949D01*
X-46488878Y11421753D01*
X-46553793Y11183398D01*
X-48627000Y11183398D01*
X-48627000Y11357000D01*
X-48607000Y11357000D01*
X-48607000Y12465000D01*
X-48353000Y12465000D01*
X-48353000Y11357000D01*
X-47061269Y11357000D01*
X-46936538Y11547609D01*
X-46940408Y11585281D01*
X-47166920Y12013474D01*
X-47540053Y12322390D01*
X-48003000Y12465000D01*
X-48353000Y12465000D01*
X-48607000Y12465000D01*
X-48957000Y12465000D01*
X-48985000Y12456375D01*
X-48985000Y13383420D01*
X-48853412Y13515009D01*
X-46600862Y13515009D01*
X-46647440Y13285000D01*
X-46647440Y12535000D01*
X-46603162Y12299683D01*
X-46464090Y12083559D01*
X-46251890Y11938569D01*
X-46000000Y11887560D01*
X-45200000Y11887560D01*
X-44964683Y11931838D01*
X-44861354Y11998329D01*
X-44859698Y11996673D01*
X-44626309Y11900000D01*
X-44385750Y11900000D01*
X-44227000Y12058750D01*
X-44227000Y12783000D01*
X-44247000Y12783000D01*
X-44247000Y13037000D01*
X-44227000Y13037000D01*
X-44227000Y13761250D01*
X-43973000Y13761250D01*
X-43973000Y13037000D01*
X-43223750Y13037000D01*
X-43065000Y13195750D01*
X-43065000Y13411310D01*
X-43161673Y13644699D01*
X-43340302Y13823327D01*
X-43573691Y13920000D01*
X-43814250Y13920000D01*
X-43973000Y13761250D01*
X-44227000Y13761250D01*
X-44262085Y13796335D01*
X-43828960Y14229461D01*
X-43610000Y14185907D01*
X-43391040Y14229461D01*
X-41405792Y12244213D01*
X-41405792Y12244213D01*
G37*
X-41405792Y12244213D02*
X-41405790Y12244210D01*
X-41392217Y12235141D01*
X-41615317Y12193162D01*
X-41831441Y12054090D01*
X-41879134Y11984289D01*
X-41915910Y12041441D01*
X-42128110Y12186431D01*
X-42380000Y12237440D01*
X-42880000Y12237440D01*
X-43115317Y12193162D01*
X-43195243Y12141731D01*
X-43161673Y12175301D01*
X-43065000Y12408690D01*
X-43065000Y12624250D01*
X-43223750Y12783000D01*
X-43973000Y12783000D01*
X-43973000Y12058750D01*
X-43814250Y11900000D01*
X-43573691Y11900000D01*
X-43382661Y11979127D01*
X-43476431Y11841890D01*
X-43527440Y11590000D01*
X-43527440Y11317362D01*
X-44117401Y10727401D01*
X-44282148Y10480839D01*
X-44340000Y10190000D01*
X-44340000Y9978076D01*
X-44347885Y9981350D01*
X-44425293Y9981418D01*
X-44407688Y10031146D01*
X-44436051Y10571444D01*
X-44588247Y10938878D01*
X-44826602Y11003793D01*
X-45600395Y10230000D01*
X-45586252Y10215857D01*
X-45765857Y10036252D01*
X-45780000Y10050395D01*
X-46553793Y9276602D01*
X-46488878Y9038247D01*
X-45978854Y8857688D01*
X-45475000Y8884138D01*
X-45475000Y6564734D01*
X-45581146Y6602312D01*
X-46121444Y6573949D01*
X-46388281Y6463422D01*
X-46240082Y6611362D01*
X-46108650Y6927885D01*
X-46108351Y7270611D01*
X-46239230Y7587363D01*
X-46481362Y7829918D01*
X-46797885Y7961350D01*
X-47140611Y7961649D01*
X-47386621Y7860000D01*
X-47491975Y7860000D01*
X-47421673Y7930302D01*
X-47325000Y8163691D01*
X-47325000Y8256250D01*
X-47483750Y8415000D01*
X-48283000Y8415000D01*
X-48283000Y8393000D01*
X-48537000Y8393000D01*
X-48537000Y8415000D01*
X-48557000Y8415000D01*
X-48557000Y8665000D01*
X-48537000Y8665000D01*
X-48537000Y9266250D01*
X-48283000Y9266250D01*
X-48283000Y8665000D01*
X-47483750Y8665000D01*
X-47325000Y8823750D01*
X-47325000Y8916309D01*
X-47421673Y9149698D01*
X-47600301Y9328327D01*
X-47833690Y9425000D01*
X-48124250Y9425000D01*
X-48283000Y9266250D01*
X-48537000Y9266250D01*
X-48695750Y9425000D01*
X-48985000Y9425000D01*
X-48985000Y10003625D01*
X-48957000Y9995000D01*
X-48607000Y9995000D01*
X-48607000Y11103000D01*
X-48353000Y11103000D01*
X-48353000Y9995000D01*
X-48003000Y9995000D01*
X-47540053Y10137610D01*
X-47166920Y10446526D01*
X-47103842Y10565768D01*
X-47152312Y10428854D01*
X-47123949Y9888556D01*
X-46971753Y9521122D01*
X-46733398Y9456207D01*
X-45959605Y10230000D01*
X-46733398Y11003793D01*
X-46956576Y10943012D01*
X-47061269Y11103000D01*
X-48353000Y11103000D01*
X-48607000Y11103000D01*
X-48627000Y11103000D01*
X-48627000Y11183398D01*
X-46553793Y11183398D01*
X-45780000Y10409605D01*
X-45006207Y11183398D01*
X-45071122Y11421753D01*
X-45581146Y11602312D01*
X-46121444Y11573949D01*
X-46488878Y11421753D01*
X-46553793Y11183398D01*
X-48627000Y11183398D01*
X-48627000Y11357000D01*
X-48607000Y11357000D01*
X-48607000Y12465000D01*
X-48353000Y12465000D01*
X-48353000Y11357000D01*
X-47061269Y11357000D01*
X-46936538Y11547609D01*
X-46940408Y11585281D01*
X-47166920Y12013474D01*
X-47540053Y12322390D01*
X-48003000Y12465000D01*
X-48353000Y12465000D01*
X-48607000Y12465000D01*
X-48957000Y12465000D01*
X-48985000Y12456375D01*
X-48985000Y13383420D01*
X-48853412Y13515009D01*
X-46600862Y13515009D01*
X-46647440Y13285000D01*
X-46647440Y12535000D01*
X-46603162Y12299683D01*
X-46464090Y12083559D01*
X-46251890Y11938569D01*
X-46000000Y11887560D01*
X-45200000Y11887560D01*
X-44964683Y11931838D01*
X-44861354Y11998329D01*
X-44859698Y11996673D01*
X-44626309Y11900000D01*
X-44385750Y11900000D01*
X-44227000Y12058750D01*
X-44227000Y12783000D01*
X-44247000Y12783000D01*
X-44247000Y13037000D01*
X-44227000Y13037000D01*
X-44227000Y13761250D01*
X-43973000Y13761250D01*
X-43973000Y13037000D01*
X-43223750Y13037000D01*
X-43065000Y13195750D01*
X-43065000Y13411310D01*
X-43161673Y13644699D01*
X-43340302Y13823327D01*
X-43573691Y13920000D01*
X-43814250Y13920000D01*
X-43973000Y13761250D01*
X-44227000Y13761250D01*
X-44262085Y13796335D01*
X-43828960Y14229461D01*
X-43610000Y14185907D01*
X-43391040Y14229461D01*
X-41405792Y12244213D01*
G36*
X-19307002Y8072200D02*
X-19307002Y7971252D01*
X-19465750Y8130000D01*
X-19706309Y8130000D01*
X-19939698Y8033327D01*
X-20118327Y7854699D01*
X-20215000Y7621310D01*
X-20215000Y7405750D01*
X-20056250Y7247000D01*
X-19307000Y7247000D01*
X-19307000Y7267000D01*
X-19200000Y7267000D01*
X-19200000Y6973000D01*
X-19307000Y6973000D01*
X-19307000Y6993000D01*
X-20056250Y6993000D01*
X-20207224Y6842026D01*
X-20417615Y7052417D01*
X-20664177Y7217164D01*
X-20955016Y7275016D01*
X-21516390Y7275016D01*
X-21600831Y7359457D01*
X-21222599Y7737689D01*
X-21057852Y7984251D01*
X-21000000Y8275090D01*
X-21000000Y8402685D01*
X-20950000Y8392560D01*
X-20050000Y8392560D01*
X-19814683Y8436838D01*
X-19727646Y8492844D01*
X-19307002Y8072200D01*
X-19307002Y8072200D01*
G37*
X-19307002Y8072200D02*
X-19307002Y7971252D01*
X-19465750Y8130000D01*
X-19706309Y8130000D01*
X-19939698Y8033327D01*
X-20118327Y7854699D01*
X-20215000Y7621310D01*
X-20215000Y7405750D01*
X-20056250Y7247000D01*
X-19307000Y7247000D01*
X-19307000Y7267000D01*
X-19200000Y7267000D01*
X-19200000Y6973000D01*
X-19307000Y6973000D01*
X-19307000Y6993000D01*
X-20056250Y6993000D01*
X-20207224Y6842026D01*
X-20417615Y7052417D01*
X-20664177Y7217164D01*
X-20955016Y7275016D01*
X-21516390Y7275016D01*
X-21600831Y7359457D01*
X-21222599Y7737689D01*
X-21057852Y7984251D01*
X-21000000Y8275090D01*
X-21000000Y8402685D01*
X-20950000Y8392560D01*
X-20050000Y8392560D01*
X-19814683Y8436838D01*
X-19727646Y8492844D01*
X-19307002Y8072200D01*
G36*
X-23661250Y9457000D02*
X-22937000Y9457000D01*
X-22937000Y9477000D01*
X-22683000Y9477000D01*
X-22683000Y9457000D01*
X-22663000Y9457000D01*
X-22663000Y9203000D01*
X-22683000Y9203000D01*
X-22683000Y9183000D01*
X-22937000Y9183000D01*
X-22937000Y9203000D01*
X-23661250Y9203000D01*
X-23745000Y9119250D01*
X-23838750Y9213000D01*
X-24563000Y9213000D01*
X-24563000Y8463750D01*
X-24404250Y8305000D01*
X-24188690Y8305000D01*
X-23955301Y8401673D01*
X-23776673Y8580302D01*
X-23752071Y8639696D01*
X-23723327Y8570302D01*
X-23544699Y8391673D01*
X-23311310Y8295000D01*
X-23095750Y8295000D01*
X-22937002Y8453748D01*
X-22937002Y8295000D01*
X-22814892Y8295000D01*
X-22839892Y8270000D01*
X-29445198Y8270000D01*
X-29482685Y8307487D01*
X-29255301Y8401673D01*
X-29135000Y8521975D01*
X-28994699Y8381673D01*
X-28761310Y8285000D01*
X-28545750Y8285000D01*
X-28387000Y8443750D01*
X-28387000Y9193000D01*
X-28133000Y9193000D01*
X-28133000Y8443750D01*
X-27974250Y8285000D01*
X-27758690Y8285000D01*
X-27525301Y8381673D01*
X-27346673Y8560302D01*
X-27313787Y8639696D01*
X-27293327Y8590302D01*
X-27114699Y8411673D01*
X-26881310Y8315000D01*
X-26665750Y8315000D01*
X-26507000Y8473750D01*
X-26507000Y9223000D01*
X-26253000Y9223000D01*
X-26253000Y8473750D01*
X-26094250Y8315000D01*
X-25878690Y8315000D01*
X-25645301Y8411673D01*
X-25540000Y8516975D01*
X-25424699Y8401673D01*
X-25191310Y8305000D01*
X-24975750Y8305000D01*
X-24817000Y8463750D01*
X-24817000Y9213000D01*
X-25518750Y9213000D01*
X-25528750Y9223000D01*
X-26253000Y9223000D01*
X-26507000Y9223000D01*
X-27231250Y9223000D01*
X-27335000Y9119250D01*
X-27408750Y9193000D01*
X-28133000Y9193000D01*
X-28387000Y9193000D01*
X-29111250Y9193000D01*
X-29115000Y9189250D01*
X-29138750Y9213000D01*
X-29863000Y9213000D01*
X-29863000Y9193000D01*
X-30117000Y9193000D01*
X-30117000Y9213000D01*
X-30137000Y9213000D01*
X-30137000Y9467000D01*
X-30117000Y9467000D01*
X-30117000Y9487000D01*
X-29863000Y9487000D01*
X-29863000Y9467000D01*
X-29138750Y9467000D01*
X-29135000Y9470750D01*
X-29111250Y9447000D01*
X-28387000Y9447000D01*
X-28387000Y9467000D01*
X-28133000Y9467000D01*
X-28133000Y9447000D01*
X-27408750Y9447000D01*
X-27305000Y9550750D01*
X-27231250Y9477000D01*
X-26507000Y9477000D01*
X-26507000Y9497000D01*
X-26253000Y9497000D01*
X-26253000Y9477000D01*
X-25551250Y9477000D01*
X-25541250Y9467000D01*
X-24817000Y9467000D01*
X-24817000Y9487000D01*
X-24563000Y9487000D01*
X-24563000Y9467000D01*
X-23838750Y9467000D01*
X-23755000Y9550750D01*
X-23661250Y9457000D01*
X-23661250Y9457000D01*
G37*
X-23661250Y9457000D02*
X-22937000Y9457000D01*
X-22937000Y9477000D01*
X-22683000Y9477000D01*
X-22683000Y9457000D01*
X-22663000Y9457000D01*
X-22663000Y9203000D01*
X-22683000Y9203000D01*
X-22683000Y9183000D01*
X-22937000Y9183000D01*
X-22937000Y9203000D01*
X-23661250Y9203000D01*
X-23745000Y9119250D01*
X-23838750Y9213000D01*
X-24563000Y9213000D01*
X-24563000Y8463750D01*
X-24404250Y8305000D01*
X-24188690Y8305000D01*
X-23955301Y8401673D01*
X-23776673Y8580302D01*
X-23752071Y8639696D01*
X-23723327Y8570302D01*
X-23544699Y8391673D01*
X-23311310Y8295000D01*
X-23095750Y8295000D01*
X-22937002Y8453748D01*
X-22937002Y8295000D01*
X-22814892Y8295000D01*
X-22839892Y8270000D01*
X-29445198Y8270000D01*
X-29482685Y8307487D01*
X-29255301Y8401673D01*
X-29135000Y8521975D01*
X-28994699Y8381673D01*
X-28761310Y8285000D01*
X-28545750Y8285000D01*
X-28387000Y8443750D01*
X-28387000Y9193000D01*
X-28133000Y9193000D01*
X-28133000Y8443750D01*
X-27974250Y8285000D01*
X-27758690Y8285000D01*
X-27525301Y8381673D01*
X-27346673Y8560302D01*
X-27313787Y8639696D01*
X-27293327Y8590302D01*
X-27114699Y8411673D01*
X-26881310Y8315000D01*
X-26665750Y8315000D01*
X-26507000Y8473750D01*
X-26507000Y9223000D01*
X-26253000Y9223000D01*
X-26253000Y8473750D01*
X-26094250Y8315000D01*
X-25878690Y8315000D01*
X-25645301Y8411673D01*
X-25540000Y8516975D01*
X-25424699Y8401673D01*
X-25191310Y8305000D01*
X-24975750Y8305000D01*
X-24817000Y8463750D01*
X-24817000Y9213000D01*
X-25518750Y9213000D01*
X-25528750Y9223000D01*
X-26253000Y9223000D01*
X-26507000Y9223000D01*
X-27231250Y9223000D01*
X-27335000Y9119250D01*
X-27408750Y9193000D01*
X-28133000Y9193000D01*
X-28387000Y9193000D01*
X-29111250Y9193000D01*
X-29115000Y9189250D01*
X-29138750Y9213000D01*
X-29863000Y9213000D01*
X-29863000Y9193000D01*
X-30117000Y9193000D01*
X-30117000Y9213000D01*
X-30137000Y9213000D01*
X-30137000Y9467000D01*
X-30117000Y9467000D01*
X-30117000Y9487000D01*
X-29863000Y9487000D01*
X-29863000Y9467000D01*
X-29138750Y9467000D01*
X-29135000Y9470750D01*
X-29111250Y9447000D01*
X-28387000Y9447000D01*
X-28387000Y9467000D01*
X-28133000Y9467000D01*
X-28133000Y9447000D01*
X-27408750Y9447000D01*
X-27305000Y9550750D01*
X-27231250Y9477000D01*
X-26507000Y9477000D01*
X-26507000Y9497000D01*
X-26253000Y9497000D01*
X-26253000Y9477000D01*
X-25551250Y9477000D01*
X-25541250Y9467000D01*
X-24817000Y9467000D01*
X-24817000Y9487000D01*
X-24563000Y9487000D01*
X-24563000Y9467000D01*
X-23838750Y9467000D01*
X-23755000Y9550750D01*
X-23661250Y9457000D01*
G36*
X-4020054Y14620853D02*
X-3667074Y14385000D01*
X-3786309Y14385000D01*
X-4019698Y14288327D01*
X-4198327Y14109699D01*
X-4295000Y13876310D01*
X-4295000Y13185750D01*
X-4136250Y13027000D01*
X-2937000Y13027000D01*
X-2937000Y13047000D01*
X-2683000Y13047000D01*
X-2683000Y13027000D01*
X-2663000Y13027000D01*
X-2663000Y12773000D01*
X-2683000Y12773000D01*
X-2683000Y12753000D01*
X-2937000Y12753000D01*
X-2937000Y12773000D01*
X-4136250Y12773000D01*
X-4295000Y12614250D01*
X-4295000Y11923690D01*
X-4198327Y11690301D01*
X-4019698Y11511673D01*
X-3845223Y11439403D01*
X-3889147Y11410054D01*
X-4082954Y11120000D01*
X-4386397Y11120000D01*
X-4677236Y11062148D01*
X-4923798Y10897401D01*
X-7533501Y8287698D01*
X-7533501Y13483501D01*
X-7591353Y13774340D01*
X-7658356Y13874618D01*
X-7658351Y13880611D01*
X-7789230Y14197363D01*
X-7822890Y14231082D01*
X-7481715Y14298946D01*
X-6999946Y14620853D01*
X-6780000Y14950026D01*
X-6560054Y14620853D01*
X-6078285Y14298946D01*
X-5510000Y14185907D01*
X-4941715Y14298946D01*
X-4459946Y14620853D01*
X-4240000Y14950026D01*
X-4020054Y14620853D01*
X-4020054Y14620853D01*
G37*
X-4020054Y14620853D02*
X-3667074Y14385000D01*
X-3786309Y14385000D01*
X-4019698Y14288327D01*
X-4198327Y14109699D01*
X-4295000Y13876310D01*
X-4295000Y13185750D01*
X-4136250Y13027000D01*
X-2937000Y13027000D01*
X-2937000Y13047000D01*
X-2683000Y13047000D01*
X-2683000Y13027000D01*
X-2663000Y13027000D01*
X-2663000Y12773000D01*
X-2683000Y12773000D01*
X-2683000Y12753000D01*
X-2937000Y12753000D01*
X-2937000Y12773000D01*
X-4136250Y12773000D01*
X-4295000Y12614250D01*
X-4295000Y11923690D01*
X-4198327Y11690301D01*
X-4019698Y11511673D01*
X-3845223Y11439403D01*
X-3889147Y11410054D01*
X-4082954Y11120000D01*
X-4386397Y11120000D01*
X-4677236Y11062148D01*
X-4923798Y10897401D01*
X-7533501Y8287698D01*
X-7533501Y13483501D01*
X-7591353Y13774340D01*
X-7658356Y13874618D01*
X-7658351Y13880611D01*
X-7789230Y14197363D01*
X-7822890Y14231082D01*
X-7481715Y14298946D01*
X-6999946Y14620853D01*
X-6780000Y14950026D01*
X-6560054Y14620853D01*
X-6078285Y14298946D01*
X-5510000Y14185907D01*
X-4941715Y14298946D01*
X-4459946Y14620853D01*
X-4240000Y14950026D01*
X-4020054Y14620853D01*
G36*
X-35389999Y9885197D02*
X-35389999Y8989801D01*
X-35522560Y9122362D01*
X-35522560Y9345000D01*
X-35548919Y9485086D01*
X-35535000Y9518690D01*
X-35535000Y9684250D01*
X-35693750Y9843000D01*
X-35774051Y9843000D01*
X-35918110Y9941431D01*
X-36055120Y9969176D01*
X-35934683Y9991838D01*
X-35771257Y10097000D01*
X-35693750Y10097000D01*
X-35647776Y10142974D01*
X-35389999Y9885197D01*
X-35389999Y9885197D01*
G37*
X-35389999Y9885197D02*
X-35389999Y8989801D01*
X-35522560Y9122362D01*
X-35522560Y9345000D01*
X-35548919Y9485086D01*
X-35535000Y9518690D01*
X-35535000Y9684250D01*
X-35693750Y9843000D01*
X-35774051Y9843000D01*
X-35918110Y9941431D01*
X-36055120Y9969176D01*
X-35934683Y9991838D01*
X-35771257Y10097000D01*
X-35693750Y10097000D01*
X-35647776Y10142974D01*
X-35389999Y9885197D01*
G36*
X-13782148Y11816936D02*
X-13796488Y11744843D01*
X-13906441Y11674090D01*
X-14027961Y11496239D01*
X-14066673Y11589698D01*
X-14245301Y11768327D01*
X-14478690Y11865000D01*
X-14694250Y11865000D01*
X-14853000Y11706250D01*
X-14853000Y10957000D01*
X-14833000Y10957000D01*
X-14833000Y10703000D01*
X-14853000Y10703000D01*
X-14853000Y10683000D01*
X-15107000Y10683000D01*
X-15107000Y10703000D01*
X-15831250Y10703000D01*
X-15845000Y10689250D01*
X-15858750Y10703000D01*
X-16583000Y10703000D01*
X-16583000Y10683000D01*
X-16837000Y10683000D01*
X-16837000Y10703000D01*
X-16857000Y10703000D01*
X-16857000Y10957000D01*
X-16837000Y10957000D01*
X-16837000Y11706250D01*
X-16583000Y11706250D01*
X-16583000Y10957000D01*
X-15858750Y10957000D01*
X-15845000Y10970750D01*
X-15831250Y10957000D01*
X-15107000Y10957000D01*
X-15107000Y11706250D01*
X-15265750Y11865000D01*
X-15481310Y11865000D01*
X-15714699Y11768327D01*
X-15845000Y11638025D01*
X-15975301Y11768327D01*
X-16208690Y11865000D01*
X-16424250Y11865000D01*
X-16583000Y11706250D01*
X-16837000Y11706250D01*
X-16995750Y11865000D01*
X-17211310Y11865000D01*
X-17444699Y11768327D01*
X-17623327Y11589698D01*
X-17720000Y11356309D01*
X-17720000Y11240686D01*
X-18163298Y11424759D01*
X-18714285Y11425240D01*
X-18766646Y11403605D01*
X-18899161Y11492148D01*
X-19190000Y11550000D01*
X-19671614Y11550000D01*
X-19798110Y11636431D01*
X-20050000Y11687440D01*
X-20440000Y11687440D01*
X-20440000Y11766012D01*
X-20467647Y11905000D01*
X-13723306Y11905000D01*
X-13782148Y11816936D01*
X-13782148Y11816936D01*
G37*
X-13782148Y11816936D02*
X-13796488Y11744843D01*
X-13906441Y11674090D01*
X-14027961Y11496239D01*
X-14066673Y11589698D01*
X-14245301Y11768327D01*
X-14478690Y11865000D01*
X-14694250Y11865000D01*
X-14853000Y11706250D01*
X-14853000Y10957000D01*
X-14833000Y10957000D01*
X-14833000Y10703000D01*
X-14853000Y10703000D01*
X-14853000Y10683000D01*
X-15107000Y10683000D01*
X-15107000Y10703000D01*
X-15831250Y10703000D01*
X-15845000Y10689250D01*
X-15858750Y10703000D01*
X-16583000Y10703000D01*
X-16583000Y10683000D01*
X-16837000Y10683000D01*
X-16837000Y10703000D01*
X-16857000Y10703000D01*
X-16857000Y10957000D01*
X-16837000Y10957000D01*
X-16837000Y11706250D01*
X-16583000Y11706250D01*
X-16583000Y10957000D01*
X-15858750Y10957000D01*
X-15845000Y10970750D01*
X-15831250Y10957000D01*
X-15107000Y10957000D01*
X-15107000Y11706250D01*
X-15265750Y11865000D01*
X-15481310Y11865000D01*
X-15714699Y11768327D01*
X-15845000Y11638025D01*
X-15975301Y11768327D01*
X-16208690Y11865000D01*
X-16424250Y11865000D01*
X-16583000Y11706250D01*
X-16837000Y11706250D01*
X-16995750Y11865000D01*
X-17211310Y11865000D01*
X-17444699Y11768327D01*
X-17623327Y11589698D01*
X-17720000Y11356309D01*
X-17720000Y11240686D01*
X-18163298Y11424759D01*
X-18714285Y11425240D01*
X-18766646Y11403605D01*
X-18899161Y11492148D01*
X-19190000Y11550000D01*
X-19671614Y11550000D01*
X-19798110Y11636431D01*
X-20050000Y11687440D01*
X-20440000Y11687440D01*
X-20440000Y11766012D01*
X-20467647Y11905000D01*
X-13723306Y11905000D01*
X-13782148Y11816936D01*
G36*
X-9100054Y14620853D02*
X-8898104Y14485915D01*
X-9007363Y14440770D01*
X-9249918Y14198638D01*
X-9381350Y13882115D01*
X-9381649Y13539389D01*
X-9250770Y13222637D01*
X-9053501Y13025023D01*
X-9053501Y11665000D01*
X-9054250Y11665000D01*
X-9213000Y11506250D01*
X-9213000Y10905000D01*
X-9193000Y10905000D01*
X-9193000Y10871581D01*
X-9270611Y10871649D01*
X-9487000Y10782239D01*
X-9487000Y10905000D01*
X-9467000Y10905000D01*
X-9467000Y11506250D01*
X-9625750Y11665000D01*
X-9916310Y11665000D01*
X-9957089Y11648109D01*
X-9760834Y11844364D01*
X-9596087Y12090926D01*
X-9538235Y12381765D01*
X-9538235Y13032042D01*
X-9436885Y13276120D01*
X-9436586Y13618846D01*
X-9567465Y13935598D01*
X-9809597Y14178153D01*
X-10074982Y14288351D01*
X-10021715Y14298946D01*
X-9539946Y14620853D01*
X-9320000Y14950026D01*
X-9100054Y14620853D01*
X-9100054Y14620853D01*
G37*
X-9100054Y14620853D02*
X-8898104Y14485915D01*
X-9007363Y14440770D01*
X-9249918Y14198638D01*
X-9381350Y13882115D01*
X-9381649Y13539389D01*
X-9250770Y13222637D01*
X-9053501Y13025023D01*
X-9053501Y11665000D01*
X-9054250Y11665000D01*
X-9213000Y11506250D01*
X-9213000Y10905000D01*
X-9193000Y10905000D01*
X-9193000Y10871581D01*
X-9270611Y10871649D01*
X-9487000Y10782239D01*
X-9487000Y10905000D01*
X-9467000Y10905000D01*
X-9467000Y11506250D01*
X-9625750Y11665000D01*
X-9916310Y11665000D01*
X-9957089Y11648109D01*
X-9760834Y11844364D01*
X-9596087Y12090926D01*
X-9538235Y12381765D01*
X-9538235Y13032042D01*
X-9436885Y13276120D01*
X-9436586Y13618846D01*
X-9567465Y13935598D01*
X-9809597Y14178153D01*
X-10074982Y14288351D01*
X-10021715Y14298946D01*
X-9539946Y14620853D01*
X-9320000Y14950026D01*
X-9100054Y14620853D01*
G36*
X-23641348Y12622115D02*
X-23641647Y12279389D01*
X-23570000Y12105990D01*
X-23570000Y11736844D01*
X-23636441Y11694090D01*
X-23747769Y11531156D01*
X-23850910Y11691441D01*
X-23855000Y11694236D01*
X-23855000Y12405205D01*
X-23828797Y12431362D01*
X-23697365Y12747885D01*
X-23697324Y12794405D01*
X-23579447Y12817852D01*
X-23552631Y12835770D01*
X-23641348Y12622115D01*
X-23641348Y12622115D01*
G37*
X-23641348Y12622115D02*
X-23641647Y12279389D01*
X-23570000Y12105990D01*
X-23570000Y11736844D01*
X-23636441Y11694090D01*
X-23747769Y11531156D01*
X-23850910Y11691441D01*
X-23855000Y11694236D01*
X-23855000Y12405205D01*
X-23828797Y12431362D01*
X-23697365Y12747885D01*
X-23697324Y12794405D01*
X-23579447Y12817852D01*
X-23552631Y12835770D01*
X-23641348Y12622115D01*
G36*
X-29537772Y14797030D02*
X-30253108Y14081694D01*
X-30497363Y13980770D01*
X-30739918Y13738638D01*
X-30871350Y13422115D01*
X-30871649Y13079389D01*
X-30740770Y12762637D01*
X-30498638Y12520082D01*
X-30182115Y12388650D01*
X-29839389Y12388351D01*
X-29522637Y12519230D01*
X-29280082Y12761362D01*
X-29178003Y13007195D01*
X-28937531Y13247667D01*
X-28828638Y13138584D01*
X-28512115Y13007152D01*
X-28318259Y13006983D01*
X-28200770Y12722637D01*
X-27958638Y12480082D01*
X-27642115Y12348650D01*
X-27299389Y12348351D01*
X-26982637Y12479230D01*
X-26740082Y12721362D01*
X-26724038Y12760000D01*
X-25525000Y12760000D01*
X-25525000Y11735000D01*
X-25590025Y11735000D01*
X-25753110Y11846431D01*
X-26005000Y11897440D01*
X-26755000Y11897440D01*
X-26990317Y11853162D01*
X-27206441Y11714090D01*
X-27212652Y11705000D01*
X-27470025Y11705000D01*
X-27633110Y11816431D01*
X-27885000Y11867440D01*
X-28635000Y11867440D01*
X-28870317Y11823162D01*
X-29053946Y11705000D01*
X-29170754Y11705000D01*
X-29363110Y11836431D01*
X-29615000Y11887440D01*
X-30365000Y11887440D01*
X-30600317Y11843162D01*
X-30752865Y11745000D01*
X-31298569Y11745000D01*
X-31360000Y11757440D01*
X-32222987Y11757440D01*
X-32218650Y11767885D01*
X-32218379Y12078595D01*
X-32181673Y12115301D01*
X-32085000Y12348690D01*
X-32085000Y12564250D01*
X-32243750Y12723000D01*
X-32719197Y12723000D01*
X-32907885Y12801350D01*
X-33250611Y12801649D01*
X-33267000Y12794877D01*
X-33267000Y12977000D01*
X-33247000Y12977000D01*
X-33247000Y13701250D01*
X-32993000Y13701250D01*
X-32993000Y12977000D01*
X-32243750Y12977000D01*
X-32085000Y13135750D01*
X-32085000Y13351310D01*
X-32181673Y13584699D01*
X-32360302Y13763327D01*
X-32593691Y13860000D01*
X-32834250Y13860000D01*
X-32993000Y13701250D01*
X-33247000Y13701250D01*
X-33405750Y13860000D01*
X-33646309Y13860000D01*
X-33879698Y13763327D01*
X-33881068Y13761957D01*
X-33968110Y13821431D01*
X-34220000Y13872440D01*
X-34592638Y13872440D01*
X-34698623Y13978425D01*
X-34698351Y14290611D01*
X-34829230Y14607363D01*
X-34900953Y14679211D01*
X-34720000Y14950026D01*
X-34500054Y14620853D01*
X-34018285Y14298946D01*
X-33450000Y14185907D01*
X-32881715Y14298946D01*
X-32399946Y14620853D01*
X-32180000Y14950026D01*
X-31960054Y14620853D01*
X-31478285Y14298946D01*
X-30910000Y14185907D01*
X-30341715Y14298946D01*
X-29859946Y14620853D01*
X-29640000Y14950026D01*
X-29537772Y14797030D01*
X-29537772Y14797030D01*
G37*
X-29537772Y14797030D02*
X-30253108Y14081694D01*
X-30497363Y13980770D01*
X-30739918Y13738638D01*
X-30871350Y13422115D01*
X-30871649Y13079389D01*
X-30740770Y12762637D01*
X-30498638Y12520082D01*
X-30182115Y12388650D01*
X-29839389Y12388351D01*
X-29522637Y12519230D01*
X-29280082Y12761362D01*
X-29178003Y13007195D01*
X-28937531Y13247667D01*
X-28828638Y13138584D01*
X-28512115Y13007152D01*
X-28318259Y13006983D01*
X-28200770Y12722637D01*
X-27958638Y12480082D01*
X-27642115Y12348650D01*
X-27299389Y12348351D01*
X-26982637Y12479230D01*
X-26740082Y12721362D01*
X-26724038Y12760000D01*
X-25525000Y12760000D01*
X-25525000Y11735000D01*
X-25590025Y11735000D01*
X-25753110Y11846431D01*
X-26005000Y11897440D01*
X-26755000Y11897440D01*
X-26990317Y11853162D01*
X-27206441Y11714090D01*
X-27212652Y11705000D01*
X-27470025Y11705000D01*
X-27633110Y11816431D01*
X-27885000Y11867440D01*
X-28635000Y11867440D01*
X-28870317Y11823162D01*
X-29053946Y11705000D01*
X-29170754Y11705000D01*
X-29363110Y11836431D01*
X-29615000Y11887440D01*
X-30365000Y11887440D01*
X-30600317Y11843162D01*
X-30752865Y11745000D01*
X-31298569Y11745000D01*
X-31360000Y11757440D01*
X-32222987Y11757440D01*
X-32218650Y11767885D01*
X-32218379Y12078595D01*
X-32181673Y12115301D01*
X-32085000Y12348690D01*
X-32085000Y12564250D01*
X-32243750Y12723000D01*
X-32719197Y12723000D01*
X-32907885Y12801350D01*
X-33250611Y12801649D01*
X-33267000Y12794877D01*
X-33267000Y12977000D01*
X-33247000Y12977000D01*
X-33247000Y13701250D01*
X-32993000Y13701250D01*
X-32993000Y12977000D01*
X-32243750Y12977000D01*
X-32085000Y13135750D01*
X-32085000Y13351310D01*
X-32181673Y13584699D01*
X-32360302Y13763327D01*
X-32593691Y13860000D01*
X-32834250Y13860000D01*
X-32993000Y13701250D01*
X-33247000Y13701250D01*
X-33405750Y13860000D01*
X-33646309Y13860000D01*
X-33879698Y13763327D01*
X-33881068Y13761957D01*
X-33968110Y13821431D01*
X-34220000Y13872440D01*
X-34592638Y13872440D01*
X-34698623Y13978425D01*
X-34698351Y14290611D01*
X-34829230Y14607363D01*
X-34900953Y14679211D01*
X-34720000Y14950026D01*
X-34500054Y14620853D01*
X-34018285Y14298946D01*
X-33450000Y14185907D01*
X-32881715Y14298946D01*
X-32399946Y14620853D01*
X-32180000Y14950026D01*
X-31960054Y14620853D01*
X-31478285Y14298946D01*
X-30910000Y14185907D01*
X-30341715Y14298946D01*
X-29859946Y14620853D01*
X-29640000Y14950026D01*
X-29537772Y14797030D01*
G36*
X708192Y17121627D02*
X671890Y17146431D01*
X420000Y17197440D01*
X-1280000Y17197440D01*
X-1411787Y17172643D01*
X-2379569Y18140425D01*
X-2650462Y18321430D01*
X-2970003Y18384991D01*
X-10589997Y18384991D01*
X-10909538Y18321430D01*
X-11180431Y18140425D01*
X-12356753Y16964103D01*
X-12561715Y17101054D01*
X-13130000Y17214093D01*
X-13698285Y17101054D01*
X-14180054Y16779147D01*
X-14400000Y16449974D01*
X-14619946Y16779147D01*
X-15101715Y17101054D01*
X-15670000Y17214093D01*
X-16238285Y17101054D01*
X-16720054Y16779147D01*
X-16940000Y16449974D01*
X-17159946Y16779147D01*
X-17641715Y17101054D01*
X-18210000Y17214093D01*
X-18778285Y17101054D01*
X-19260054Y16779147D01*
X-19480000Y16449974D01*
X-19699946Y16779147D01*
X-20181715Y17101054D01*
X-20750000Y17214093D01*
X-21318285Y17101054D01*
X-21800054Y16779147D01*
X-22020000Y16449974D01*
X-22239946Y16779147D01*
X-22721715Y17101054D01*
X-23290000Y17214093D01*
X-23858285Y17101054D01*
X-24340054Y16779147D01*
X-24560000Y16449974D01*
X-24779946Y16779147D01*
X-25261715Y17101054D01*
X-25830000Y17214093D01*
X-26398285Y17101054D01*
X-26880054Y16779147D01*
X-27100000Y16449974D01*
X-27319946Y16779147D01*
X-27801715Y17101054D01*
X-28370000Y17214093D01*
X-28938285Y17101054D01*
X-29420054Y16779147D01*
X-29640000Y16449974D01*
X-29859946Y16779147D01*
X-30341715Y17101054D01*
X-30910000Y17214093D01*
X-31478285Y17101054D01*
X-31960054Y16779147D01*
X-32180000Y16449974D01*
X-32399946Y16779147D01*
X-32881715Y17101054D01*
X-33450000Y17214093D01*
X-34018285Y17101054D01*
X-34500054Y16779147D01*
X-34720000Y16449974D01*
X-34939946Y16779147D01*
X-35421715Y17101054D01*
X-35990000Y17214093D01*
X-36558285Y17101054D01*
X-37040054Y16779147D01*
X-37260000Y16449974D01*
X-37479946Y16779147D01*
X-37961715Y17101054D01*
X-38530000Y17214093D01*
X-39098285Y17101054D01*
X-39580054Y16779147D01*
X-39800000Y16449974D01*
X-40019946Y16779147D01*
X-40501715Y17101054D01*
X-41070000Y17214093D01*
X-41638285Y17101054D01*
X-42120054Y16779147D01*
X-42340000Y16449974D01*
X-42559946Y16779147D01*
X-43041715Y17101054D01*
X-43610000Y17214093D01*
X-44178285Y17101054D01*
X-44660054Y16779147D01*
X-44887702Y16438447D01*
X-44954817Y16581358D01*
X-45383076Y16971645D01*
X-45793110Y17141476D01*
X-46023000Y17020155D01*
X-46023000Y15827000D01*
X-46003000Y15827000D01*
X-46003000Y15573000D01*
X-46023000Y15573000D01*
X-46023000Y15553000D01*
X-46277000Y15553000D01*
X-46277000Y15573000D01*
X-46297000Y15573000D01*
X-46297000Y15827000D01*
X-46277000Y15827000D01*
X-46277000Y17020155D01*
X-46506890Y17141476D01*
X-46916924Y16971645D01*
X-47345183Y16581358D01*
X-47412298Y16438447D01*
X-47639946Y16779147D01*
X-48121715Y17101054D01*
X-48690000Y17214093D01*
X-49258285Y17101054D01*
X-49740054Y16779147D01*
X-49871761Y16582033D01*
X-49871938Y18602000D01*
X708062Y18602000D01*
X708192Y17121627D01*
X708192Y17121627D01*
G37*
X708192Y17121627D02*
X671890Y17146431D01*
X420000Y17197440D01*
X-1280000Y17197440D01*
X-1411787Y17172643D01*
X-2379569Y18140425D01*
X-2650462Y18321430D01*
X-2970003Y18384991D01*
X-10589997Y18384991D01*
X-10909538Y18321430D01*
X-11180431Y18140425D01*
X-12356753Y16964103D01*
X-12561715Y17101054D01*
X-13130000Y17214093D01*
X-13698285Y17101054D01*
X-14180054Y16779147D01*
X-14400000Y16449974D01*
X-14619946Y16779147D01*
X-15101715Y17101054D01*
X-15670000Y17214093D01*
X-16238285Y17101054D01*
X-16720054Y16779147D01*
X-16940000Y16449974D01*
X-17159946Y16779147D01*
X-17641715Y17101054D01*
X-18210000Y17214093D01*
X-18778285Y17101054D01*
X-19260054Y16779147D01*
X-19480000Y16449974D01*
X-19699946Y16779147D01*
X-20181715Y17101054D01*
X-20750000Y17214093D01*
X-21318285Y17101054D01*
X-21800054Y16779147D01*
X-22020000Y16449974D01*
X-22239946Y16779147D01*
X-22721715Y17101054D01*
X-23290000Y17214093D01*
X-23858285Y17101054D01*
X-24340054Y16779147D01*
X-24560000Y16449974D01*
X-24779946Y16779147D01*
X-25261715Y17101054D01*
X-25830000Y17214093D01*
X-26398285Y17101054D01*
X-26880054Y16779147D01*
X-27100000Y16449974D01*
X-27319946Y16779147D01*
X-27801715Y17101054D01*
X-28370000Y17214093D01*
X-28938285Y17101054D01*
X-29420054Y16779147D01*
X-29640000Y16449974D01*
X-29859946Y16779147D01*
X-30341715Y17101054D01*
X-30910000Y17214093D01*
X-31478285Y17101054D01*
X-31960054Y16779147D01*
X-32180000Y16449974D01*
X-32399946Y16779147D01*
X-32881715Y17101054D01*
X-33450000Y17214093D01*
X-34018285Y17101054D01*
X-34500054Y16779147D01*
X-34720000Y16449974D01*
X-34939946Y16779147D01*
X-35421715Y17101054D01*
X-35990000Y17214093D01*
X-36558285Y17101054D01*
X-37040054Y16779147D01*
X-37260000Y16449974D01*
X-37479946Y16779147D01*
X-37961715Y17101054D01*
X-38530000Y17214093D01*
X-39098285Y17101054D01*
X-39580054Y16779147D01*
X-39800000Y16449974D01*
X-40019946Y16779147D01*
X-40501715Y17101054D01*
X-41070000Y17214093D01*
X-41638285Y17101054D01*
X-42120054Y16779147D01*
X-42340000Y16449974D01*
X-42559946Y16779147D01*
X-43041715Y17101054D01*
X-43610000Y17214093D01*
X-44178285Y17101054D01*
X-44660054Y16779147D01*
X-44887702Y16438447D01*
X-44954817Y16581358D01*
X-45383076Y16971645D01*
X-45793110Y17141476D01*
X-46023000Y17020155D01*
X-46023000Y15827000D01*
X-46003000Y15827000D01*
X-46003000Y15573000D01*
X-46023000Y15573000D01*
X-46023000Y15553000D01*
X-46277000Y15553000D01*
X-46277000Y15573000D01*
X-46297000Y15573000D01*
X-46297000Y15827000D01*
X-46277000Y15827000D01*
X-46277000Y17020155D01*
X-46506890Y17141476D01*
X-46916924Y16971645D01*
X-47345183Y16581358D01*
X-47412298Y16438447D01*
X-47639946Y16779147D01*
X-48121715Y17101054D01*
X-48690000Y17214093D01*
X-49258285Y17101054D01*
X-49740054Y16779147D01*
X-49871761Y16582033D01*
X-49871938Y18602000D01*
X708062Y18602000D01*
X708192Y17121627D01*
M02*
