%TF.GenerationSoftware,KiCad,Pcbnew,4.0.7*%
%TF.CreationDate,2017-11-14T20:11:37+08:00*%
%TF.ProjectId,STM32F401CCT6,53544D333246343031434354362E6B69,rev?*%
%TF.FileFunction,Other,ECO1*%
%FSLAX46Y46*%
G04 Gerber Fmt 4.6, Leading zero omitted, Abs format (unit mm)*
G04 Created by KiCad (PCBNEW 4.0.7) date 11/14/17 20:11:37*
%MOMM*%
%LPD*%
G01*
G04 APERTURE LIST*
%ADD10C,0.100000*%
%ADD11C,0.300000*%
G04 APERTURE END LIST*
D10*
D11*
X-53061429Y14099285D02*
X-52990000Y14027856D01*
X-52918571Y13884999D01*
X-52918571Y13527856D01*
X-52990000Y13384999D01*
X-53061429Y13313570D01*
X-53204286Y13242142D01*
X-53347143Y13242142D01*
X-53561429Y13313570D01*
X-54418571Y14170713D01*
X-54418571Y13242142D01*
X-53061429Y12670714D02*
X-52990000Y12599285D01*
X-52918571Y12456428D01*
X-52918571Y12099285D01*
X-52990000Y11956428D01*
X-53061429Y11884999D01*
X-53204286Y11813571D01*
X-53347143Y11813571D01*
X-53561429Y11884999D01*
X-54418571Y12742142D01*
X-54418571Y11813571D01*
X-54275714Y11170714D02*
X-54347143Y11099286D01*
X-54418571Y11170714D01*
X-54347143Y11242143D01*
X-54275714Y11170714D01*
X-54418571Y11170714D01*
X-53561429Y10242142D02*
X-53490000Y10385000D01*
X-53418571Y10456428D01*
X-53275714Y10527857D01*
X-53204286Y10527857D01*
X-53061429Y10456428D01*
X-52990000Y10385000D01*
X-52918571Y10242142D01*
X-52918571Y9956428D01*
X-52990000Y9813571D01*
X-53061429Y9742142D01*
X-53204286Y9670714D01*
X-53275714Y9670714D01*
X-53418571Y9742142D01*
X-53490000Y9813571D01*
X-53561429Y9956428D01*
X-53561429Y10242142D01*
X-53632857Y10385000D01*
X-53704286Y10456428D01*
X-53847143Y10527857D01*
X-54132857Y10527857D01*
X-54275714Y10456428D01*
X-54347143Y10385000D01*
X-54418571Y10242142D01*
X-54418571Y9956428D01*
X-54347143Y9813571D01*
X-54275714Y9742142D01*
X-54132857Y9670714D01*
X-53847143Y9670714D01*
X-53704286Y9742142D01*
X-53632857Y9813571D01*
X-53561429Y9956428D01*
X-52918571Y8313571D02*
X-52918571Y9027857D01*
X-53632857Y9099286D01*
X-53561429Y9027857D01*
X-53490000Y8885000D01*
X-53490000Y8527857D01*
X-53561429Y8385000D01*
X-53632857Y8313571D01*
X-53775714Y8242143D01*
X-54132857Y8242143D01*
X-54275714Y8313571D01*
X-54347143Y8385000D01*
X-54418571Y8527857D01*
X-54418571Y8885000D01*
X-54347143Y9027857D01*
X-54275714Y9099286D01*
X-52918571Y7313572D02*
X-52918571Y7170715D01*
X-52990000Y7027858D01*
X-53061429Y6956429D01*
X-53204286Y6885000D01*
X-53490000Y6813572D01*
X-53847143Y6813572D01*
X-54132857Y6885000D01*
X-54275714Y6956429D01*
X-54347143Y7027858D01*
X-54418571Y7170715D01*
X-54418571Y7313572D01*
X-54347143Y7456429D01*
X-54275714Y7527858D01*
X-54132857Y7599286D01*
X-53847143Y7670715D01*
X-53490000Y7670715D01*
X-53204286Y7599286D01*
X-53061429Y7527858D01*
X-52990000Y7456429D01*
X-52918571Y7313572D01*
X-54418571Y5027858D02*
X-53418571Y5027858D01*
X-53561429Y5027858D02*
X-53490000Y4956430D01*
X-53418571Y4813572D01*
X-53418571Y4599287D01*
X-53490000Y4456430D01*
X-53632857Y4385001D01*
X-54418571Y4385001D01*
X-53632857Y4385001D02*
X-53490000Y4313572D01*
X-53418571Y4170715D01*
X-53418571Y3956430D01*
X-53490000Y3813572D01*
X-53632857Y3742144D01*
X-54418571Y3742144D01*
X-54418571Y3027858D02*
X-53418571Y3027858D01*
X-53561429Y3027858D02*
X-53490000Y2956430D01*
X-53418571Y2813572D01*
X-53418571Y2599287D01*
X-53490000Y2456430D01*
X-53632857Y2385001D01*
X-54418571Y2385001D01*
X-53632857Y2385001D02*
X-53490000Y2313572D01*
X-53418571Y2170715D01*
X-53418571Y1956430D01*
X-53490000Y1813572D01*
X-53632857Y1742144D01*
X-54418571Y1742144D01*
X-52390000Y19310000D02*
X-52390000Y-3540000D01*
X-50580000Y19310000D02*
X-55090000Y19310000D01*
X-50580000Y-3540000D02*
X-55090000Y-3540000D01*
X-52390000Y-3540000D02*
X-52976421Y-2413496D01*
X-52390000Y-3540000D02*
X-51803579Y-2413496D01*
X-52390000Y19310000D02*
X-52976421Y18183496D01*
X-52390000Y19310000D02*
X-51803579Y18183496D01*
X-30012813Y23257422D02*
X-30727099Y23257560D01*
X-30798665Y22543287D01*
X-30727223Y22614702D01*
X-30584352Y22686103D01*
X-30227209Y22686034D01*
X-30084366Y22614578D01*
X-30012950Y22543136D01*
X-29941550Y22400265D01*
X-29941618Y22043122D01*
X-30013074Y21900279D01*
X-30084517Y21828864D01*
X-30227387Y21757463D01*
X-30584530Y21757532D01*
X-30727374Y21828988D01*
X-30798789Y21900430D01*
X-28513102Y21757134D02*
X-29370245Y21757299D01*
X-28941673Y21757216D02*
X-28941385Y23257216D01*
X-29084283Y23042958D01*
X-29227169Y22900128D01*
X-29370039Y22828726D01*
X-27870218Y21899867D02*
X-27798804Y21828424D01*
X-27870245Y21757010D01*
X-27941661Y21828452D01*
X-27870218Y21899867D01*
X-27870245Y21757010D01*
X-27084531Y21756859D02*
X-26798816Y21756804D01*
X-26655946Y21828204D01*
X-26584504Y21899620D01*
X-26441605Y22113877D01*
X-26370122Y22399578D01*
X-26370012Y22971006D01*
X-26441412Y23113877D01*
X-26512828Y23185320D01*
X-26655671Y23256776D01*
X-26941385Y23256831D01*
X-27084257Y23185430D01*
X-27155698Y23114015D01*
X-27227155Y22971171D01*
X-27227224Y22614028D01*
X-27155822Y22471158D01*
X-27084408Y22399716D01*
X-26941564Y22328259D01*
X-26655850Y22328204D01*
X-26512979Y22399606D01*
X-26441536Y22471020D01*
X-26370081Y22613863D01*
X-25655960Y21756584D02*
X-25370246Y21756529D01*
X-25227375Y21827930D01*
X-25155933Y21899345D01*
X-25013034Y22113602D01*
X-24941551Y22399304D01*
X-24941441Y22970732D01*
X-25012841Y23113602D01*
X-25084257Y23185045D01*
X-25227100Y23256502D01*
X-25512814Y23256557D01*
X-25655686Y23185155D01*
X-25727127Y23113740D01*
X-25798584Y22970897D01*
X-25798653Y22613754D01*
X-25727251Y22470883D01*
X-25655837Y22399441D01*
X-25512993Y22327985D01*
X-25227279Y22327930D01*
X-25084408Y22399331D01*
X-25012965Y22470745D01*
X-24941510Y22613589D01*
X-24012815Y23256268D02*
X-23869958Y23256241D01*
X-23727115Y23184784D01*
X-23655699Y23113341D01*
X-23584298Y22970471D01*
X-23512925Y22684743D01*
X-23512994Y22327600D01*
X-23584477Y22041900D01*
X-23655933Y21899056D01*
X-23727376Y21827641D01*
X-23870247Y21756241D01*
X-24013104Y21756268D01*
X-24155947Y21827724D01*
X-24227362Y21899166D01*
X-24298763Y22042037D01*
X-24370137Y22327765D01*
X-24370068Y22684908D01*
X-24298584Y22970608D01*
X-24227128Y23113451D01*
X-24155686Y23184867D01*
X-24012815Y23256268D01*
X-21727390Y21755828D02*
X-21727197Y22755828D01*
X-21727225Y22612970D02*
X-21655783Y22684386D01*
X-21512911Y22755787D01*
X-21298626Y22755746D01*
X-21155783Y22684290D01*
X-21084381Y22541419D01*
X-21084533Y21755705D01*
X-21084381Y22541419D02*
X-21012925Y22684262D01*
X-20870054Y22755664D01*
X-20655769Y22755622D01*
X-20512925Y22684166D01*
X-20441524Y22541295D01*
X-20441676Y21755581D01*
X-19727390Y21755444D02*
X-19727197Y22755444D01*
X-19727225Y22612586D02*
X-19655783Y22684001D01*
X-19512911Y22755403D01*
X-19298626Y22755361D01*
X-19155783Y22683905D01*
X-19084381Y22541034D01*
X-19084533Y21755320D01*
X-19084381Y22541034D02*
X-19012925Y22683877D01*
X-18870054Y22755279D01*
X-18655769Y22755238D01*
X-18512925Y22683781D01*
X-18441525Y22540910D01*
X-18441676Y21755196D01*
X-50579660Y21089949D02*
X1410340Y21079949D01*
X-50580000Y19320000D02*
X-50579141Y23789949D01*
X1410000Y19310000D02*
X1410859Y23779949D01*
X1410340Y21079949D02*
X283723Y20493745D01*
X1410340Y21079949D02*
X283949Y21666586D01*
X-50579660Y21089949D02*
X-49453269Y20503312D01*
X-50579660Y21089949D02*
X-49453043Y21676153D01*
M02*
