%TF.GenerationSoftware,KiCad,Pcbnew,4.0.7*%
%TF.CreationDate,2017-10-16T02:09:04+08:00*%
%TF.ProjectId,STM32F401CCT6,53544D333246343031434354362E6B69,rev?*%
%TF.FileFunction,Soldermask,Top*%
%FSLAX46Y46*%
G04 Gerber Fmt 4.6, Leading zero omitted, Abs format (unit mm)*
G04 Created by KiCad (PCBNEW 4.0.7) date 10/16/17 02:09:04*
%MOMM*%
%LPD*%
G01*
G04 APERTURE LIST*
%ADD10C,0.100000*%
%ADD11R,2.100000X2.100000*%
%ADD12O,2.100000X2.100000*%
%ADD13R,2.300000X1.900000*%
%ADD14C,1.850000*%
%ADD15R,1.750000X0.800000*%
%ADD16O,2.300000X1.600000*%
%ADD17R,2.300000X1.600000*%
%ADD18R,2.100000X1.400000*%
%ADD19R,1.600000X1.600000*%
%ADD20C,1.900000*%
%ADD21R,2.300000X1.700000*%
G04 APERTURE END LIST*
D10*
D11*
X-430000Y15730000D03*
D12*
X-2970000Y15730000D03*
X-5510000Y15730000D03*
X-8050000Y15730000D03*
X-10590000Y15730000D03*
X-13130000Y15730000D03*
X-15670000Y15730000D03*
X-18210000Y15730000D03*
X-20750000Y15730000D03*
X-23290000Y15730000D03*
X-25830000Y15730000D03*
X-28370000Y15730000D03*
X-30910000Y15730000D03*
X-33450000Y15730000D03*
X-35990000Y15730000D03*
X-38530000Y15730000D03*
X-41070000Y15730000D03*
X-43610000Y15730000D03*
X-46150000Y15730000D03*
X-48690000Y15730000D03*
D11*
X-430000Y-20000D03*
D12*
X-2970000Y-20000D03*
X-5510000Y-20000D03*
X-8050000Y-20000D03*
X-10590000Y-20000D03*
X-13130000Y-20000D03*
X-15670000Y-20000D03*
X-18210000Y-20000D03*
X-20750000Y-20000D03*
X-23290000Y-20000D03*
X-25830000Y-20000D03*
X-28370000Y-20000D03*
X-30910000Y-20000D03*
X-33450000Y-20000D03*
X-35990000Y-20000D03*
X-38530000Y-20000D03*
X-41070000Y-20000D03*
X-43610000Y-20000D03*
X-46150000Y-20000D03*
X-48690000Y-20000D03*
D11*
X-36472000Y6302000D03*
D12*
X-36472000Y3762000D03*
X-39012000Y6302000D03*
X-39012000Y3762000D03*
X-41552000Y6302000D03*
X-41552000Y3762000D03*
D13*
X-48026000Y6560000D03*
D14*
X-45326000Y10060000D03*
D15*
X-45326000Y8210000D03*
X-45326000Y8860000D03*
X-45326000Y6260000D03*
X-45326000Y6910000D03*
X-45326000Y7560000D03*
D14*
X-45326000Y5060000D03*
D13*
X-48026000Y8560000D03*
D16*
X-48026000Y11060000D03*
X-48026000Y4060000D03*
D17*
X-48026000Y4660000D03*
X-48026000Y10460000D03*
D18*
X-42130000Y12920000D03*
X-35830000Y12920000D03*
X-42130000Y9120000D03*
X-35830000Y9120000D03*
D11*
X-2810000Y12900000D03*
D12*
X-2810000Y10360000D03*
X-2810000Y7820000D03*
X-2810000Y5280000D03*
X-2810000Y2740000D03*
D10*
G36*
X-27476866Y12167274D02*
X-23234225Y7924633D01*
X-27476866Y3681992D01*
X-31719507Y7924633D01*
X-27476866Y12167274D01*
X-27476866Y12167274D01*
G37*
G36*
X-23234225Y8066054D02*
X-21713946Y6545775D01*
X-22208921Y6050800D01*
X-23729200Y7571079D01*
X-23234225Y8066054D01*
X-23234225Y8066054D01*
G37*
G36*
X-23587778Y7712501D02*
X-22067499Y6192222D01*
X-22562474Y5697247D01*
X-24082753Y7217526D01*
X-23587778Y7712501D01*
X-23587778Y7712501D01*
G37*
G36*
X-23941332Y7358947D02*
X-22421053Y5838668D01*
X-22916028Y5343693D01*
X-24436307Y6863972D01*
X-23941332Y7358947D01*
X-23941332Y7358947D01*
G37*
G36*
X-24294885Y7005394D02*
X-22774606Y5485115D01*
X-23269581Y4990140D01*
X-24789860Y6510419D01*
X-24294885Y7005394D01*
X-24294885Y7005394D01*
G37*
G36*
X-24648438Y6651841D02*
X-23128159Y5131562D01*
X-23623134Y4636587D01*
X-25143413Y6156866D01*
X-24648438Y6651841D01*
X-24648438Y6651841D01*
G37*
G36*
X-23976688Y4283033D02*
X-25496967Y5803312D01*
X-25001992Y6298287D01*
X-23481713Y4778008D01*
X-23976688Y4283033D01*
X-23976688Y4283033D01*
G37*
G36*
X-25355545Y5944734D02*
X-23835266Y4424455D01*
X-24330241Y3929480D01*
X-25850520Y5449759D01*
X-25355545Y5944734D01*
X-25355545Y5944734D01*
G37*
G36*
X-25709099Y5591180D02*
X-24188820Y4070901D01*
X-24683795Y3575926D01*
X-26204074Y5096205D01*
X-25709099Y5591180D01*
X-25709099Y5591180D01*
G37*
G36*
X-26062652Y5237627D02*
X-24542373Y3717348D01*
X-25037348Y3222373D01*
X-26557627Y4742652D01*
X-26062652Y5237627D01*
X-26062652Y5237627D01*
G37*
G36*
X-26416205Y4884074D02*
X-24895926Y3363795D01*
X-25390901Y2868820D01*
X-26911180Y4389099D01*
X-26416205Y4884074D01*
X-26416205Y4884074D01*
G37*
G36*
X-26769759Y4530520D02*
X-25249480Y3010241D01*
X-25744455Y2515266D01*
X-27264734Y4035545D01*
X-26769759Y4530520D01*
X-26769759Y4530520D01*
G37*
G36*
X-27123312Y4176967D02*
X-25603033Y2656688D01*
X-26098008Y2161713D01*
X-27618287Y3681992D01*
X-27123312Y4176967D01*
X-27123312Y4176967D01*
G37*
G36*
X-25850520Y10399507D02*
X-24330241Y11919786D01*
X-23835266Y11424811D01*
X-25355545Y9904532D01*
X-25850520Y10399507D01*
X-25850520Y10399507D01*
G37*
G36*
X-25496967Y10045954D02*
X-23976688Y11566233D01*
X-23481713Y11071258D01*
X-25001992Y9550979D01*
X-25496967Y10045954D01*
X-25496967Y10045954D01*
G37*
G36*
X-25143413Y9692400D02*
X-23623134Y11212679D01*
X-23128159Y10717704D01*
X-24648438Y9197425D01*
X-25143413Y9692400D01*
X-25143413Y9692400D01*
G37*
G36*
X-24789860Y9338847D02*
X-23269581Y10859126D01*
X-22774606Y10364151D01*
X-24294885Y8843872D01*
X-24789860Y9338847D01*
X-24789860Y9338847D01*
G37*
G36*
X-24436307Y8985294D02*
X-22916028Y10505573D01*
X-22421053Y10010598D01*
X-23941332Y8490319D01*
X-24436307Y8985294D01*
X-24436307Y8985294D01*
G37*
G36*
X-24082753Y8631740D02*
X-22562474Y10152019D01*
X-22067499Y9657044D01*
X-23587778Y8136765D01*
X-24082753Y8631740D01*
X-24082753Y8631740D01*
G37*
G36*
X-26204074Y10753061D02*
X-24683795Y12273340D01*
X-24188820Y11778365D01*
X-25709099Y10258086D01*
X-26204074Y10753061D01*
X-26204074Y10753061D01*
G37*
G36*
X-23729200Y8278187D02*
X-22208921Y9798466D01*
X-21713946Y9303491D01*
X-23234225Y7783212D01*
X-23729200Y8278187D01*
X-23729200Y8278187D01*
G37*
G36*
X-26557627Y11106614D02*
X-25037348Y12626893D01*
X-24542373Y12131918D01*
X-26062652Y10611639D01*
X-26557627Y11106614D01*
X-26557627Y11106614D01*
G37*
G36*
X-26911180Y11460167D02*
X-25390901Y12980446D01*
X-24895926Y12485471D01*
X-26416205Y10965192D01*
X-26911180Y11460167D01*
X-26911180Y11460167D01*
G37*
G36*
X-27264734Y11813721D02*
X-25744455Y13334000D01*
X-25249480Y12839025D01*
X-26769759Y11318746D01*
X-27264734Y11813721D01*
X-27264734Y11813721D01*
G37*
G36*
X-27618287Y12167274D02*
X-26098008Y13687553D01*
X-25603033Y13192578D01*
X-27123312Y11672299D01*
X-27618287Y12167274D01*
X-27618287Y12167274D01*
G37*
G36*
X-30977044Y11566233D02*
X-29456765Y10045954D01*
X-29951740Y9550979D01*
X-31472019Y11071258D01*
X-30977044Y11566233D01*
X-30977044Y11566233D01*
G37*
G36*
X-30623491Y11919786D02*
X-29103212Y10399507D01*
X-29598187Y9904532D01*
X-31118466Y11424811D01*
X-30623491Y11919786D01*
X-30623491Y11919786D01*
G37*
G36*
X-30269937Y12273340D02*
X-28749658Y10753061D01*
X-29244633Y10258086D01*
X-30764912Y11778365D01*
X-30269937Y12273340D01*
X-30269937Y12273340D01*
G37*
G36*
X-29916384Y12626893D02*
X-28396105Y11106614D01*
X-28891080Y10611639D01*
X-30411359Y12131918D01*
X-29916384Y12626893D01*
X-29916384Y12626893D01*
G37*
G36*
X-29562831Y12980446D02*
X-28042552Y11460167D01*
X-28537527Y10965192D01*
X-30057806Y12485471D01*
X-29562831Y12980446D01*
X-29562831Y12980446D01*
G37*
G36*
X-29209277Y13334000D02*
X-27688998Y11813721D01*
X-28183973Y11318746D01*
X-29704252Y12839025D01*
X-29209277Y13334000D01*
X-29209277Y13334000D01*
G37*
G36*
X-28855724Y13687553D02*
X-27335445Y12167274D01*
X-27830420Y11672299D01*
X-29350699Y13192578D01*
X-28855724Y13687553D01*
X-28855724Y13687553D01*
G37*
G36*
X-31330598Y11212679D02*
X-29810319Y9692400D01*
X-30305294Y9197425D01*
X-31825573Y10717704D01*
X-31330598Y11212679D01*
X-31330598Y11212679D01*
G37*
G36*
X-31684151Y10859126D02*
X-30163872Y9338847D01*
X-30658847Y8843872D01*
X-32179126Y10364151D01*
X-31684151Y10859126D01*
X-31684151Y10859126D01*
G37*
G36*
X-32037704Y10505573D02*
X-30517425Y8985294D01*
X-31012400Y8490319D01*
X-32532679Y10010598D01*
X-32037704Y10505573D01*
X-32037704Y10505573D01*
G37*
G36*
X-32391258Y10152019D02*
X-30870979Y8631740D01*
X-31365954Y8136765D01*
X-32886233Y9657044D01*
X-32391258Y10152019D01*
X-32391258Y10152019D01*
G37*
G36*
X-32744811Y9798466D02*
X-31224532Y8278187D01*
X-31719507Y7783212D01*
X-33239786Y9303491D01*
X-32744811Y9798466D01*
X-32744811Y9798466D01*
G37*
G36*
X-31118466Y4424455D02*
X-29598187Y5944734D01*
X-29103212Y5449759D01*
X-30623491Y3929480D01*
X-31118466Y4424455D01*
X-31118466Y4424455D01*
G37*
G36*
X-31472019Y4778008D02*
X-29951740Y6298287D01*
X-29456765Y5803312D01*
X-30977044Y4283033D01*
X-31472019Y4778008D01*
X-31472019Y4778008D01*
G37*
G36*
X-30764912Y4070901D02*
X-29244633Y5591180D01*
X-28749658Y5096205D01*
X-30269937Y3575926D01*
X-30764912Y4070901D01*
X-30764912Y4070901D01*
G37*
G36*
X-30411359Y3717348D02*
X-28891080Y5237627D01*
X-28396105Y4742652D01*
X-29916384Y3222373D01*
X-30411359Y3717348D01*
X-30411359Y3717348D01*
G37*
G36*
X-30057806Y3363795D02*
X-28537527Y4884074D01*
X-28042552Y4389099D01*
X-29562831Y2868820D01*
X-30057806Y3363795D01*
X-30057806Y3363795D01*
G37*
G36*
X-29704252Y3010241D02*
X-28183973Y4530520D01*
X-27688998Y4035545D01*
X-29209277Y2515266D01*
X-29704252Y3010241D01*
X-29704252Y3010241D01*
G37*
G36*
X-29350699Y2656688D02*
X-27830420Y4176967D01*
X-27335445Y3681992D01*
X-28855724Y2161713D01*
X-29350699Y2656688D01*
X-29350699Y2656688D01*
G37*
G36*
X-31825573Y5131562D02*
X-30305294Y6651841D01*
X-29810319Y6156866D01*
X-31330598Y4636587D01*
X-31825573Y5131562D01*
X-31825573Y5131562D01*
G37*
G36*
X-32179126Y5485115D02*
X-30658847Y7005394D01*
X-30163872Y6510419D01*
X-31684151Y4990140D01*
X-32179126Y5485115D01*
X-32179126Y5485115D01*
G37*
G36*
X-32532679Y5838668D02*
X-31012400Y7358947D01*
X-30517425Y6863972D01*
X-32037704Y5343693D01*
X-32532679Y5838668D01*
X-32532679Y5838668D01*
G37*
G36*
X-32886233Y6192222D02*
X-31365954Y7712501D01*
X-30870979Y7217526D01*
X-32391258Y5697247D01*
X-32886233Y6192222D01*
X-32886233Y6192222D01*
G37*
G36*
X-33239786Y6545775D02*
X-31719507Y8066054D01*
X-31224532Y7571079D01*
X-32744811Y6050800D01*
X-33239786Y6545775D01*
X-33239786Y6545775D01*
G37*
D19*
X-6990000Y12060000D03*
X-6990000Y9860000D03*
X-6990000Y6220000D03*
X-6990000Y4020000D03*
D20*
X-18440000Y5160000D03*
X-18440000Y10040000D03*
D21*
X-10560000Y4590000D03*
X-10560000Y10090000D03*
X-13760000Y10090000D03*
X-13760000Y4590000D03*
M02*
