%TF.GenerationSoftware,KiCad,Pcbnew,4.0.7*%
%TF.CreationDate,2017-11-06T20:43:19+08:00*%
%TF.ProjectId,STM32F401CCT6,53544D333246343031434354362E6B69,rev?*%
%TF.FileFunction,Legend,Top*%
%FSLAX46Y46*%
G04 Gerber Fmt 4.6, Leading zero omitted, Abs format (unit mm)*
G04 Created by KiCad (PCBNEW 4.0.7) date 11/06/17 20:43:19*
%MOMM*%
%LPD*%
G01*
G04 APERTURE LIST*
%ADD10C,0.100000*%
%ADD11C,0.187500*%
%ADD12C,0.200000*%
%ADD13C,0.150000*%
%ADD14C,0.212500*%
%ADD15C,0.225000*%
%ADD16C,0.120000*%
%ADD17C,0.250000*%
G04 APERTURE END LIST*
D10*
D11*
X-7026429Y8314286D02*
X-7026429Y8885715D01*
X-7305714Y7506429D02*
X-6734285Y7506429D01*
X-7019999Y7220714D02*
X-7019999Y7792143D01*
D12*
X-43180095Y10683905D02*
X-43561048Y10417238D01*
X-43180095Y10226762D02*
X-43980095Y10226762D01*
X-43980095Y10531524D01*
X-43942000Y10607715D01*
X-43903905Y10645810D01*
X-43827714Y10683905D01*
X-43713429Y10683905D01*
X-43637238Y10645810D01*
X-43599143Y10607715D01*
X-43561048Y10531524D01*
X-43561048Y10226762D01*
X-43218190Y10988667D02*
X-43180095Y11102953D01*
X-43180095Y11293429D01*
X-43218190Y11369619D01*
X-43256286Y11407715D01*
X-43332476Y11445810D01*
X-43408667Y11445810D01*
X-43484857Y11407715D01*
X-43522952Y11369619D01*
X-43561048Y11293429D01*
X-43599143Y11141048D01*
X-43637238Y11064857D01*
X-43675333Y11026762D01*
X-43751524Y10988667D01*
X-43827714Y10988667D01*
X-43903905Y11026762D01*
X-43942000Y11064857D01*
X-43980095Y11141048D01*
X-43980095Y11331524D01*
X-43942000Y11445810D01*
X-43980095Y11674381D02*
X-43980095Y12131524D01*
X-43180095Y11902953D02*
X-43980095Y11902953D01*
X-43852000Y6112000D02*
X-43852000Y5942000D01*
X-34432000Y3112000D02*
X-34812000Y3362000D01*
X-34452000Y3632000D02*
X-34432000Y3112000D01*
X-34822000Y3322000D02*
X-34452000Y3632000D01*
X-34092000Y3362000D02*
X-34822000Y3322000D01*
X-34072000Y3992000D02*
X-34092000Y3362000D01*
X-34219143Y4475334D02*
X-34181048Y4589620D01*
X-34142952Y4627715D01*
X-34066762Y4665810D01*
X-33952476Y4665810D01*
X-33876286Y4627715D01*
X-33838190Y4589620D01*
X-33800095Y4513429D01*
X-33800095Y4208667D01*
X-34600095Y4208667D01*
X-34600095Y4475334D01*
X-34562000Y4551524D01*
X-34523905Y4589620D01*
X-34447714Y4627715D01*
X-34371524Y4627715D01*
X-34295333Y4589620D01*
X-34257238Y4551524D01*
X-34219143Y4475334D01*
X-34219143Y4208667D01*
X-34600095Y5161048D02*
X-34600095Y5313429D01*
X-34562000Y5389620D01*
X-34485810Y5465810D01*
X-34333429Y5503905D01*
X-34066762Y5503905D01*
X-33914381Y5465810D01*
X-33838190Y5389620D01*
X-33800095Y5313429D01*
X-33800095Y5161048D01*
X-33838190Y5084858D01*
X-33914381Y5008667D01*
X-34066762Y4970572D01*
X-34333429Y4970572D01*
X-34485810Y5008667D01*
X-34562000Y5084858D01*
X-34600095Y5161048D01*
X-34600095Y5999143D02*
X-34600095Y6151524D01*
X-34562000Y6227715D01*
X-34485810Y6303905D01*
X-34333429Y6342000D01*
X-34066762Y6342000D01*
X-33914381Y6303905D01*
X-33838190Y6227715D01*
X-33800095Y6151524D01*
X-33800095Y5999143D01*
X-33838190Y5922953D01*
X-33914381Y5846762D01*
X-34066762Y5808667D01*
X-34333429Y5808667D01*
X-34485810Y5846762D01*
X-34562000Y5922953D01*
X-34600095Y5999143D01*
X-34600095Y6570571D02*
X-34600095Y7027714D01*
X-33800095Y6799143D02*
X-34600095Y6799143D01*
X-33800095Y7713429D02*
X-33800095Y7256286D01*
X-33800095Y7484857D02*
X-34600095Y7484857D01*
X-34485810Y7408667D01*
X-34409619Y7332476D01*
X-34371524Y7256286D01*
X-43092000Y6432000D02*
X-43512000Y6662000D01*
X-43522000Y6192000D02*
X-43092000Y6432000D01*
X-43522000Y6652000D02*
X-43522000Y6192000D01*
X-43202000Y6462000D02*
X-43522000Y6652000D01*
X-43852000Y6452000D02*
X-43202000Y6462000D01*
X-43852000Y6122000D02*
X-43852000Y6452000D01*
X-43759143Y2505334D02*
X-43721048Y2619620D01*
X-43682952Y2657715D01*
X-43606762Y2695810D01*
X-43492476Y2695810D01*
X-43416286Y2657715D01*
X-43378190Y2619620D01*
X-43340095Y2543429D01*
X-43340095Y2238667D01*
X-44140095Y2238667D01*
X-44140095Y2505334D01*
X-44102000Y2581524D01*
X-44063905Y2619620D01*
X-43987714Y2657715D01*
X-43911524Y2657715D01*
X-43835333Y2619620D01*
X-43797238Y2581524D01*
X-43759143Y2505334D01*
X-43759143Y2238667D01*
X-44140095Y3191048D02*
X-44140095Y3343429D01*
X-44102000Y3419620D01*
X-44025810Y3495810D01*
X-43873429Y3533905D01*
X-43606762Y3533905D01*
X-43454381Y3495810D01*
X-43378190Y3419620D01*
X-43340095Y3343429D01*
X-43340095Y3191048D01*
X-43378190Y3114858D01*
X-43454381Y3038667D01*
X-43606762Y3000572D01*
X-43873429Y3000572D01*
X-44025810Y3038667D01*
X-44102000Y3114858D01*
X-44140095Y3191048D01*
X-44140095Y4029143D02*
X-44140095Y4181524D01*
X-44102000Y4257715D01*
X-44025810Y4333905D01*
X-43873429Y4372000D01*
X-43606762Y4372000D01*
X-43454381Y4333905D01*
X-43378190Y4257715D01*
X-43340095Y4181524D01*
X-43340095Y4029143D01*
X-43378190Y3952953D01*
X-43454381Y3876762D01*
X-43606762Y3838667D01*
X-43873429Y3838667D01*
X-44025810Y3876762D01*
X-44102000Y3952953D01*
X-44140095Y4029143D01*
X-44140095Y4600571D02*
X-44140095Y5057714D01*
X-43340095Y4829143D02*
X-44140095Y4829143D01*
X-44140095Y5476762D02*
X-44140095Y5552953D01*
X-44102000Y5629143D01*
X-44063905Y5667238D01*
X-43987714Y5705334D01*
X-43835333Y5743429D01*
X-43644857Y5743429D01*
X-43492476Y5705334D01*
X-43416286Y5667238D01*
X-43378190Y5629143D01*
X-43340095Y5552953D01*
X-43340095Y5476762D01*
X-43378190Y5400572D01*
X-43416286Y5362476D01*
X-43492476Y5324381D01*
X-43644857Y5286286D01*
X-43835333Y5286286D01*
X-43987714Y5324381D01*
X-44063905Y5362476D01*
X-44102000Y5400572D01*
X-44140095Y5476762D01*
X-37416667Y2208095D02*
X-37150000Y1408095D01*
X-36883333Y2208095D01*
X-36616667Y1408095D02*
X-36616667Y2208095D01*
X-36426191Y2208095D01*
X-36311905Y2170000D01*
X-36235714Y2093810D01*
X-36197619Y2017619D01*
X-36159524Y1865238D01*
X-36159524Y1750952D01*
X-36197619Y1598571D01*
X-36235714Y1522381D01*
X-36311905Y1446190D01*
X-36426191Y1408095D01*
X-36616667Y1408095D01*
X-35816667Y1408095D02*
X-35816667Y2208095D01*
X-35626191Y2208095D01*
X-35511905Y2170000D01*
X-35435714Y2093810D01*
X-35397619Y2017619D01*
X-35359524Y1865238D01*
X-35359524Y1750952D01*
X-35397619Y1598571D01*
X-35435714Y1522381D01*
X-35511905Y1446190D01*
X-35626191Y1408095D01*
X-35816667Y1408095D01*
X-42169523Y2180000D02*
X-42245714Y2218095D01*
X-42359999Y2218095D01*
X-42474285Y2180000D01*
X-42550476Y2103810D01*
X-42588571Y2027619D01*
X-42626666Y1875238D01*
X-42626666Y1760952D01*
X-42588571Y1608571D01*
X-42550476Y1532381D01*
X-42474285Y1456190D01*
X-42359999Y1418095D01*
X-42283809Y1418095D01*
X-42169523Y1456190D01*
X-42131428Y1494286D01*
X-42131428Y1760952D01*
X-42283809Y1760952D01*
X-41788571Y1418095D02*
X-41788571Y2218095D01*
X-41331428Y1418095D01*
X-41331428Y2218095D01*
X-40950476Y1418095D02*
X-40950476Y2218095D01*
X-40760000Y2218095D01*
X-40645714Y2180000D01*
X-40569523Y2103810D01*
X-40531428Y2027619D01*
X-40493333Y1875238D01*
X-40493333Y1760952D01*
X-40531428Y1608571D01*
X-40569523Y1532381D01*
X-40645714Y1456190D01*
X-40760000Y1418095D01*
X-40950476Y1418095D01*
D13*
X-4924551Y2671465D02*
X-4304936Y2544670D01*
X-4724551Y3017875D01*
X-4104936Y2891080D02*
X-4624551Y3191080D01*
X-4553122Y3314798D01*
X-4485522Y3374744D01*
X-4407463Y3395659D01*
X-4343690Y3391832D01*
X-4230431Y3359432D01*
X-4156199Y3316575D01*
X-4071511Y3234689D01*
X-4036310Y3181374D01*
X-4015394Y3103316D01*
X-4033507Y3014798D01*
X-4104936Y2891080D01*
X-3804936Y3410696D02*
X-4324551Y3710696D01*
X-4253122Y3834413D01*
X-4185522Y3894359D01*
X-4107463Y3915274D01*
X-4043690Y3911447D01*
X-3930431Y3879048D01*
X-3856199Y3836190D01*
X-3771511Y3754304D01*
X-3736310Y3700989D01*
X-3715394Y3622931D01*
X-3733507Y3534413D01*
X-3804936Y3410696D01*
X-4914774Y4769747D02*
X-4568364Y4569747D01*
X-4865288Y4741176D02*
X-4875745Y4780206D01*
X-4871917Y4843978D01*
X-4829060Y4918209D01*
X-4775745Y4953411D01*
X-4711972Y4949583D01*
X-4439793Y4792440D01*
X-4125507Y5336798D02*
X-4472944Y5306451D01*
X-4296936Y5039875D02*
X-4816551Y5339875D01*
X-4702265Y5537824D01*
X-4648951Y5573025D01*
X-4609921Y5583484D01*
X-4546149Y5579656D01*
X-4471917Y5536798D01*
X-4436716Y5483484D01*
X-4426258Y5444454D01*
X-4430086Y5380682D01*
X-4544372Y5182733D01*
X-4035965Y5549033D02*
X-3968364Y5608978D01*
X-3896936Y5732696D01*
X-3893108Y5796469D01*
X-3903566Y5835498D01*
X-3938767Y5888813D01*
X-3988254Y5917385D01*
X-4052028Y5921212D01*
X-4091056Y5910754D01*
X-4144372Y5875553D01*
X-4226258Y5790864D01*
X-4279573Y5755664D01*
X-4318603Y5745205D01*
X-4382375Y5749033D01*
X-4431863Y5777605D01*
X-4467064Y5830920D01*
X-4477522Y5869949D01*
X-4473694Y5933721D01*
X-4402265Y6057440D01*
X-4334665Y6117385D01*
X-4273693Y6280132D02*
X-4102265Y6577055D01*
X-3668364Y6128593D02*
X-4187979Y6428593D01*
X-4935394Y6627483D02*
X-4867793Y6687427D01*
X-4796364Y6811145D01*
X-4792537Y6874918D01*
X-4802994Y6913947D01*
X-4838196Y6967262D01*
X-4887683Y6995834D01*
X-4951456Y6999661D01*
X-4990485Y6989204D01*
X-5043801Y6954002D01*
X-5125687Y6869313D01*
X-5179002Y6834113D01*
X-5218031Y6823654D01*
X-5281804Y6827483D01*
X-5331291Y6856054D01*
X-5366493Y6909369D01*
X-5376950Y6948398D01*
X-5373122Y7012170D01*
X-5301693Y7135889D01*
X-5234093Y7195834D01*
X-5158836Y7383325D02*
X-4567793Y7207042D01*
X-4881804Y7520303D01*
X-4453507Y7404991D01*
X-4901693Y7828709D01*
X-4267793Y7726658D02*
X-4787408Y8026658D01*
X-4715979Y8150375D01*
X-4648379Y8210321D01*
X-4570320Y8231236D01*
X-4506547Y8227409D01*
X-4393288Y8195009D01*
X-4319056Y8152152D01*
X-4234368Y8070266D01*
X-4199167Y8016951D01*
X-4178251Y7938893D01*
X-4196364Y7850375D01*
X-4267793Y7726658D01*
X-3967793Y8246273D02*
X-4487408Y8546273D01*
X-4287408Y8892683D02*
X-4230265Y8991658D01*
X-4176951Y9026858D01*
X-4098892Y9047774D01*
X-3985631Y9015375D01*
X-3812426Y8915375D01*
X-3727738Y8833489D01*
X-3706823Y8755430D01*
X-3710650Y8691658D01*
X-3767793Y8592683D01*
X-3821108Y8557482D01*
X-3899167Y8536566D01*
X-4012426Y8568965D01*
X-4185631Y8668965D01*
X-4270320Y8750851D01*
X-4291236Y8828910D01*
X-4287408Y8892683D01*
X-5238251Y8643444D02*
X-5170650Y8703389D01*
X-5099221Y8827107D01*
X-5095394Y8890880D01*
X-5105851Y8929909D01*
X-5141053Y8983224D01*
X-5190540Y9011796D01*
X-5254313Y9015623D01*
X-5293342Y9005166D01*
X-5346658Y8969964D01*
X-5428544Y8885275D01*
X-5481859Y8850075D01*
X-5520888Y8839616D01*
X-5584661Y8843444D01*
X-5634148Y8872016D01*
X-5669350Y8925331D01*
X-5679807Y8964360D01*
X-5675979Y9028132D01*
X-5604550Y9151851D01*
X-5536950Y9211796D01*
X-5461693Y9399286D02*
X-4870650Y9223004D01*
X-5184661Y9536265D01*
X-4756364Y9420953D01*
X-5204550Y9844671D01*
X-4570650Y9742619D02*
X-5090265Y10042619D01*
X-5018836Y10166337D01*
X-4951236Y10226283D01*
X-4873177Y10247198D01*
X-4809404Y10243371D01*
X-4696145Y10210971D01*
X-4621913Y10168114D01*
X-4537225Y10086228D01*
X-4502024Y10032912D01*
X-4481108Y9954855D01*
X-4499221Y9866337D01*
X-4570650Y9742619D01*
X-4148708Y10587729D02*
X-4138251Y10548700D01*
X-4156364Y10460184D01*
X-4184935Y10410697D01*
X-4252537Y10350751D01*
X-4330595Y10329836D01*
X-4394368Y10333664D01*
X-4507627Y10366063D01*
X-4581859Y10408920D01*
X-4666547Y10490806D01*
X-4701748Y10544122D01*
X-4722665Y10622180D01*
X-4704550Y10710697D01*
X-4675979Y10760184D01*
X-4608379Y10820129D01*
X-4569350Y10830587D01*
X-3827793Y11029285D02*
X-3970650Y10781850D01*
X-4490265Y11081850D01*
X-3727793Y11202491D02*
X-4247408Y11502491D01*
X-3556364Y11499413D02*
X-3981859Y11448150D01*
X-4075979Y11799413D02*
X-3950485Y11331062D01*
X-5308379Y12524103D02*
X-5361693Y12488902D01*
X-5404550Y12414671D01*
X-5422665Y12326154D01*
X-5401748Y12248096D01*
X-5366547Y12194781D01*
X-5281859Y12112895D01*
X-5207627Y12070038D01*
X-5094368Y12037638D01*
X-5030595Y12033811D01*
X-4952537Y12054726D01*
X-4884935Y12114671D01*
X-4856364Y12164158D01*
X-4838251Y12252675D01*
X-4848708Y12291704D01*
X-5021913Y12391704D01*
X-5079056Y12292730D01*
X-4670650Y12485824D02*
X-5190265Y12785824D01*
X-4499221Y12782747D01*
X-5018836Y13082747D01*
X-4356364Y13030183D02*
X-4875979Y13330183D01*
X-4804551Y13453901D01*
X-4736950Y13513847D01*
X-4658892Y13534762D01*
X-4595119Y13530934D01*
X-4481859Y13498535D01*
X-4407628Y13455677D01*
X-4322940Y13373792D01*
X-4287738Y13320476D01*
X-4266822Y13242418D01*
X-4284936Y13153901D01*
X-4356364Y13030183D01*
D12*
X-49323166Y18551556D02*
X-49390108Y18627393D01*
X-49515940Y18678233D01*
X-49658718Y18687128D01*
X-49776499Y18637133D01*
X-49852337Y18570192D01*
X-49962067Y18419362D01*
X-50012906Y18293530D01*
X-50038748Y18108808D01*
X-50030697Y18007972D01*
X-49980702Y17890191D01*
X-49871816Y17797408D01*
X-49787928Y17763515D01*
X-49645149Y17754619D01*
X-49586259Y17779617D01*
X-49467633Y18073225D01*
X-49635410Y18141011D01*
X-49242656Y17543211D02*
X-48886780Y18424035D01*
X-48739327Y17339853D01*
X-48383451Y18220677D01*
X-48319888Y17170388D02*
X-47964011Y18051213D01*
X-47754291Y17966480D01*
X-47645405Y17873697D01*
X-47595410Y17755916D01*
X-47587358Y17655081D01*
X-47613201Y17470358D01*
X-47664040Y17344526D01*
X-47773770Y17193697D01*
X-47849608Y17126755D01*
X-47967389Y17076760D01*
X-48110167Y17085655D01*
X-48319888Y17170388D01*
X-46643166Y18601556D02*
X-46710108Y18677393D01*
X-46835940Y18728233D01*
X-46978718Y18737128D01*
X-47096499Y18687133D01*
X-47172337Y18620192D01*
X-47282067Y18469362D01*
X-47332906Y18343530D01*
X-47358748Y18158808D01*
X-47350697Y18057972D01*
X-47300702Y17940191D01*
X-47191816Y17847408D01*
X-47107928Y17813515D01*
X-46965149Y17804619D01*
X-46906259Y17829617D01*
X-46787633Y18123225D01*
X-46955410Y18191011D01*
X-46562656Y17593211D02*
X-46206780Y18474035D01*
X-46059327Y17389853D01*
X-45703451Y18270677D01*
X-45639888Y17220388D02*
X-45284011Y18101213D01*
X-45074291Y18016480D01*
X-44965405Y17923697D01*
X-44915410Y17805916D01*
X-44907358Y17705081D01*
X-44933201Y17520358D01*
X-44984040Y17394526D01*
X-45093770Y17243697D01*
X-45169608Y17176755D01*
X-45287389Y17126760D01*
X-45430167Y17135655D01*
X-45639888Y17220388D01*
X-44519549Y18676858D02*
X-44581816Y17677408D01*
X-43932332Y18439607D01*
X-43994600Y17440157D02*
X-43638724Y18320982D01*
X-43429003Y18236249D01*
X-43320118Y18143466D01*
X-43270123Y18025685D01*
X-43262071Y17924850D01*
X-43287913Y17740127D01*
X-43338753Y17614295D01*
X-43448482Y17463466D01*
X-43524320Y17396524D01*
X-43642101Y17346529D01*
X-43784880Y17355425D01*
X-43994600Y17440157D01*
X-43113776Y17084281D02*
X-42757899Y17965106D01*
X-42548179Y17880373D01*
X-42439293Y17787590D01*
X-42389298Y17669809D01*
X-42381246Y17568974D01*
X-42407089Y17384251D01*
X-42457928Y17258419D01*
X-42567658Y17107590D01*
X-42643496Y17040648D01*
X-42761277Y16990653D01*
X-42904055Y16999548D01*
X-43113776Y17084281D01*
X-41643348Y17636416D02*
X-41767492Y18174482D01*
X-42146677Y17839774D02*
X-41790801Y18720599D01*
X-41455248Y18585027D01*
X-41388307Y18509190D01*
X-41363309Y18450299D01*
X-41355258Y18349465D01*
X-41406097Y18223632D01*
X-41481934Y18156691D01*
X-41540825Y18131694D01*
X-41641660Y18123643D01*
X-41977212Y18259215D01*
X-41290850Y17542789D02*
X-41181964Y17450005D01*
X-40972244Y17365273D01*
X-40871410Y17373324D01*
X-40812519Y17398321D01*
X-40736681Y17465262D01*
X-40702788Y17549151D01*
X-40710840Y17649986D01*
X-40735838Y17708876D01*
X-40802779Y17784713D01*
X-40953608Y17894443D01*
X-41020550Y17970280D01*
X-41045548Y18029170D01*
X-41053599Y18130006D01*
X-41019706Y18213893D01*
X-40943869Y18280835D01*
X-40884978Y18305832D01*
X-40784143Y18313883D01*
X-40574424Y18229151D01*
X-40465537Y18136367D01*
X-40196927Y18076632D02*
X-39693599Y17873275D01*
X-40301139Y17094129D02*
X-39945263Y17974953D01*
X-38970545Y18126426D02*
X-38861660Y18033643D01*
X-38836661Y17974752D01*
X-38828610Y17873918D01*
X-38879450Y17748085D01*
X-38955287Y17681143D01*
X-39014178Y17656146D01*
X-39115013Y17648095D01*
X-39450565Y17783667D01*
X-39094689Y18664492D01*
X-38801080Y18545866D01*
X-38734139Y18470030D01*
X-38709141Y18411139D01*
X-38701089Y18310304D01*
X-38734982Y18226417D01*
X-38810820Y18159475D01*
X-38869711Y18134477D01*
X-38970545Y18126426D01*
X-39264154Y18245052D01*
X-38108355Y17241379D02*
X-38611684Y17444737D01*
X-38360020Y17343058D02*
X-38004143Y18223883D01*
X-38138871Y18131944D01*
X-38256651Y18081949D01*
X-38357487Y18073898D01*
X-37269474Y16902449D02*
X-37772804Y17105808D01*
X-37521139Y17004129D02*
X-37165263Y17884953D01*
X-37299990Y17793014D01*
X-37417771Y17743019D01*
X-37518606Y17734969D01*
X-36420545Y18116426D02*
X-36311660Y18023643D01*
X-36286661Y17964752D01*
X-36278610Y17863918D01*
X-36329450Y17738085D01*
X-36405287Y17671143D01*
X-36464178Y17646146D01*
X-36565013Y17638095D01*
X-36900565Y17773667D01*
X-36544689Y18654492D01*
X-36251080Y18535866D01*
X-36184139Y18460030D01*
X-36159141Y18401139D01*
X-36151089Y18300304D01*
X-36184982Y18216417D01*
X-36260820Y18149475D01*
X-36319711Y18124477D01*
X-36420545Y18116426D01*
X-36714154Y18235052D01*
X-35558355Y17231379D02*
X-36061684Y17434737D01*
X-35810020Y17333058D02*
X-35454143Y18213883D01*
X-35588871Y18121944D01*
X-35706651Y18071949D01*
X-35807487Y18063898D01*
X-34657207Y17891900D02*
X-34573319Y17858007D01*
X-34506377Y17782170D01*
X-34481380Y17723280D01*
X-34473329Y17622445D01*
X-34499170Y17437722D01*
X-34583902Y17228002D01*
X-34693633Y17077172D01*
X-34769470Y17010231D01*
X-34828361Y16985233D01*
X-34929195Y16977182D01*
X-35013083Y17011075D01*
X-35080024Y17086912D01*
X-35105022Y17145802D01*
X-35113074Y17246637D01*
X-35087232Y17431360D01*
X-35002499Y17641080D01*
X-34892769Y17791910D01*
X-34816931Y17858851D01*
X-34758041Y17883849D01*
X-34657207Y17891900D01*
X-33661105Y18076961D02*
X-33552219Y17984178D01*
X-33527221Y17925287D01*
X-33519170Y17824453D01*
X-33570010Y17698620D01*
X-33645847Y17631679D01*
X-33704738Y17606681D01*
X-33805572Y17598630D01*
X-34141125Y17734202D01*
X-33785248Y18615027D01*
X-33491640Y18496401D01*
X-33424698Y18420565D01*
X-33399701Y18361674D01*
X-33391649Y18260840D01*
X-33425542Y18176952D01*
X-33501380Y18110010D01*
X-33560270Y18085012D01*
X-33661105Y18076961D01*
X-33954713Y18195587D01*
X-32798915Y17191914D02*
X-33302244Y17395273D01*
X-33050579Y17293593D02*
X-32694703Y18174418D01*
X-32829430Y18082479D01*
X-32947211Y18032484D01*
X-33048046Y18024434D01*
X-31281105Y17956961D02*
X-31172219Y17864178D01*
X-31147221Y17805287D01*
X-31139170Y17704453D01*
X-31190010Y17578620D01*
X-31265847Y17511679D01*
X-31324738Y17486681D01*
X-31425572Y17478630D01*
X-31761125Y17614202D01*
X-31405248Y18495027D01*
X-31111640Y18376401D01*
X-31044698Y18300565D01*
X-31019701Y18241674D01*
X-31011649Y18140840D01*
X-31045542Y18056952D01*
X-31121380Y17990010D01*
X-31180270Y17965012D01*
X-31281105Y17956961D01*
X-31574713Y18075587D01*
X-30356647Y18071365D02*
X-30272759Y18037472D01*
X-30205818Y17961635D01*
X-30180820Y17902744D01*
X-30172769Y17801910D01*
X-30198610Y17617187D01*
X-30283343Y17407467D01*
X-30393074Y17256637D01*
X-30468911Y17189696D01*
X-30527801Y17164698D01*
X-30628635Y17156647D01*
X-30712523Y17190540D01*
X-30779465Y17266377D01*
X-30804462Y17325267D01*
X-30812514Y17426102D01*
X-30786672Y17610825D01*
X-30701940Y17820545D01*
X-30592210Y17971375D01*
X-30516372Y18038316D01*
X-30457481Y18063314D01*
X-30356647Y18071365D01*
X-29008474Y17867394D02*
X-28589033Y17697929D01*
X-29194041Y17649622D02*
X-28544556Y18411821D01*
X-28606824Y17412371D01*
X-28041228Y18208463D02*
X-27454010Y17971212D01*
X-28187383Y17242906D01*
X-26448474Y17917394D02*
X-26029033Y17747929D01*
X-26634041Y17699622D02*
X-25984556Y18461821D01*
X-26046824Y17462371D01*
X-25019843Y18072052D02*
X-25187619Y18139838D01*
X-25288453Y18131787D01*
X-25347344Y18106789D01*
X-25482072Y18014851D01*
X-25591802Y17864020D01*
X-25727374Y17528468D01*
X-25719323Y17427634D01*
X-25694325Y17368743D01*
X-25627383Y17292906D01*
X-25459607Y17225120D01*
X-25358773Y17233171D01*
X-25299883Y17258169D01*
X-25224045Y17325110D01*
X-25139312Y17534830D01*
X-25147364Y17635665D01*
X-25172362Y17694556D01*
X-25239303Y17770392D01*
X-25407079Y17838178D01*
X-25507913Y17830127D01*
X-25566805Y17805130D01*
X-25642641Y17738189D01*
X-23858474Y17917394D02*
X-23439033Y17747929D01*
X-24044041Y17699622D02*
X-23394556Y18461821D01*
X-23456824Y17462371D01*
X-22387899Y18055106D02*
X-22807340Y18224570D01*
X-23018748Y17822077D01*
X-22959858Y17847074D01*
X-22859023Y17855125D01*
X-22649303Y17770392D01*
X-22582362Y17694556D01*
X-22557364Y17635665D01*
X-22549312Y17534830D01*
X-22634045Y17325110D01*
X-22709883Y17258169D01*
X-22768773Y17233171D01*
X-22869607Y17225120D01*
X-23079327Y17309853D01*
X-23146269Y17385690D01*
X-23171267Y17444580D01*
X-21268474Y17897394D02*
X-20849033Y17727929D01*
X-21454041Y17679622D02*
X-20804556Y18441821D01*
X-20866824Y17442371D01*
X-19958469Y17758443D02*
X-20195719Y17171227D01*
X-20032616Y18178728D02*
X-20496534Y17634301D01*
X-19951261Y17413996D01*
X-18788474Y17937394D02*
X-18369033Y17767929D01*
X-18974041Y17719622D02*
X-18324556Y18481821D01*
X-18386824Y17482371D01*
X-17821228Y18278463D02*
X-17275954Y18058159D01*
X-17705135Y17841232D01*
X-17579303Y17790392D01*
X-17512362Y17714556D01*
X-17487364Y17655665D01*
X-17479312Y17554830D01*
X-17564045Y17345110D01*
X-17639883Y17278169D01*
X-17698773Y17253171D01*
X-17799607Y17245120D01*
X-18051271Y17346799D01*
X-18118213Y17422636D01*
X-18143211Y17481527D01*
X-16168474Y17937394D02*
X-15749033Y17767929D01*
X-16354041Y17719622D02*
X-15704556Y18481821D01*
X-15766824Y17482371D01*
X-15193176Y18177629D02*
X-15134286Y18202627D01*
X-15033451Y18210677D01*
X-14823731Y18125945D01*
X-14756790Y18050108D01*
X-14731792Y17991218D01*
X-14723740Y17890383D01*
X-14757633Y17806495D01*
X-14850418Y17697609D01*
X-15557104Y17397639D01*
X-15011831Y17177334D01*
X-13648474Y17887394D02*
X-13229033Y17717929D01*
X-13834041Y17669622D02*
X-13184556Y18431821D01*
X-13246824Y17432371D01*
X-12491831Y17127334D02*
X-12995160Y17330692D01*
X-12743495Y17229013D02*
X-12387619Y18109838D01*
X-12522346Y18017899D01*
X-12640127Y17967904D01*
X-12740962Y17959853D01*
X-11228474Y17887394D02*
X-10809033Y17717929D01*
X-11414041Y17669622D02*
X-10764556Y18431821D01*
X-10826824Y17432371D01*
X-10009563Y18126784D02*
X-9925675Y18092891D01*
X-9858734Y18017055D01*
X-9833736Y17958164D01*
X-9825685Y17857330D01*
X-9851526Y17672606D01*
X-9936259Y17462887D01*
X-10045990Y17312057D01*
X-10121827Y17245115D01*
X-10180717Y17220118D01*
X-10281551Y17212067D01*
X-10365439Y17245960D01*
X-10432381Y17321796D01*
X-10457378Y17380687D01*
X-10465430Y17481522D01*
X-10439588Y17666245D01*
X-10354856Y17875964D01*
X-10245125Y18026795D01*
X-10169288Y18093736D01*
X-10110397Y18118733D01*
X-10009563Y18126784D01*
X-8763343Y17714197D02*
X-8822233Y17689199D01*
X-8965013Y17698095D01*
X-9048900Y17731988D01*
X-9157786Y17824771D01*
X-9207781Y17942552D01*
X-9215832Y18043388D01*
X-9189991Y18228110D01*
X-9139151Y18353942D01*
X-9029421Y18504772D01*
X-8953583Y18571713D01*
X-8835802Y18621708D01*
X-8693024Y18612813D01*
X-8609136Y18578920D01*
X-8500250Y18486136D01*
X-8475252Y18427246D01*
X-7958355Y17291379D02*
X-8461684Y17494737D01*
X-8210020Y17393058D02*
X-7854143Y18273883D01*
X-7988871Y18181944D01*
X-8106651Y18131949D01*
X-8207487Y18123898D01*
X-6805543Y17850221D02*
X-7224983Y18019686D01*
X-7436392Y17617192D01*
X-7377502Y17642189D01*
X-7276667Y17650240D01*
X-7066947Y17565508D01*
X-7000005Y17489671D01*
X-6975008Y17430781D01*
X-6966956Y17329946D01*
X-7051689Y17120225D01*
X-7127526Y17053284D01*
X-7186417Y17028287D01*
X-7287251Y17020236D01*
X-7496971Y17104968D01*
X-7563913Y17180805D01*
X-7588911Y17239696D01*
X-6083343Y17744197D02*
X-6142233Y17719199D01*
X-6285013Y17728095D01*
X-6368900Y17761988D01*
X-6477786Y17854771D01*
X-6527781Y17972552D01*
X-6535832Y18073388D01*
X-6509991Y18258110D01*
X-6459151Y18383942D01*
X-6349421Y18534772D01*
X-6273583Y18601713D01*
X-6155802Y18651708D01*
X-6013024Y18642813D01*
X-5929136Y18608920D01*
X-5820250Y18516136D01*
X-5795252Y18457246D01*
X-5278355Y17321379D02*
X-5781684Y17524737D01*
X-5530020Y17423058D02*
X-5174143Y18303883D01*
X-5308871Y18211944D01*
X-5426651Y18161949D01*
X-5527487Y18153898D01*
X-4286112Y17603559D02*
X-4523363Y17016343D01*
X-4360260Y18023844D02*
X-4824178Y17479416D01*
X-4278905Y17259112D01*
X-3503343Y17734197D02*
X-3562233Y17709199D01*
X-3705013Y17718095D01*
X-3788900Y17751988D01*
X-3897786Y17844771D01*
X-3947781Y17962552D01*
X-3955832Y18063388D01*
X-3929991Y18248110D01*
X-3879151Y18373942D01*
X-3769421Y18524772D01*
X-3693583Y18591713D01*
X-3575802Y18641708D01*
X-3433024Y18632813D01*
X-3349136Y18598920D01*
X-3240250Y18506136D01*
X-3215252Y18447246D01*
X-2698355Y17311379D02*
X-3201684Y17514737D01*
X-2950020Y17413058D02*
X-2594143Y18293883D01*
X-2728871Y18201944D01*
X-2846651Y18151949D01*
X-2947487Y18143898D01*
X-2048871Y18073579D02*
X-1503598Y17853274D01*
X-1932779Y17636347D01*
X-1806947Y17585508D01*
X-1740005Y17509671D01*
X-1715008Y17450781D01*
X-1706956Y17349946D01*
X-1791689Y17140225D01*
X-1867526Y17073284D01*
X-1926417Y17048287D01*
X-2027251Y17040236D01*
X-2278915Y17141914D01*
X-2345857Y17217752D01*
X-2370855Y17276642D01*
X-949136Y18478920D02*
X-1011404Y17479470D01*
X-361919Y18241669D01*
X55832Y17584978D02*
X164717Y17492194D01*
X189716Y17433304D01*
X197767Y17332469D01*
X146927Y17206637D01*
X71090Y17139695D01*
X12199Y17114698D01*
X-88635Y17106647D01*
X-424188Y17242219D01*
X-68312Y18123044D01*
X225297Y18004418D01*
X292238Y17928581D01*
X317236Y17869691D01*
X325288Y17768856D01*
X291395Y17684968D01*
X215557Y17618026D01*
X156666Y17593029D01*
X55832Y17584978D01*
X-237777Y17703603D01*
D14*
X-49412656Y-1544848D02*
X-49324443Y-1637593D01*
X-49307708Y-1692334D01*
X-49309974Y-1782813D01*
X-49366981Y-1890028D01*
X-49440724Y-1942502D01*
X-49495465Y-1959239D01*
X-49585945Y-1956972D01*
X-49871851Y-1804953D01*
X-49472800Y-1054447D01*
X-49222632Y-1187464D01*
X-49170157Y-1261207D01*
X-49153421Y-1315948D01*
X-49155688Y-1406428D01*
X-49193693Y-1477904D01*
X-49267436Y-1530378D01*
X-49322177Y-1547115D01*
X-49412656Y-1544848D01*
X-49662825Y-1411831D01*
X-48728224Y-2413030D02*
X-49157084Y-2185001D01*
X-48942654Y-2299016D02*
X-48543603Y-1548510D01*
X-48672087Y-1617720D01*
X-48781569Y-1651192D01*
X-48872048Y-1648926D01*
X-48081271Y-1886021D02*
X-48026530Y-1869285D01*
X-47936051Y-1871551D01*
X-47757360Y-1966563D01*
X-47704885Y-2040307D01*
X-47688149Y-2095047D01*
X-47690416Y-2185527D01*
X-47728420Y-2257003D01*
X-47821166Y-2345216D01*
X-48478055Y-2546047D01*
X-48013457Y-2793079D01*
X-46832656Y-1584848D02*
X-46744443Y-1677593D01*
X-46727708Y-1732334D01*
X-46729974Y-1822813D01*
X-46786981Y-1930028D01*
X-46860724Y-1982502D01*
X-46915465Y-1999239D01*
X-47005945Y-1996972D01*
X-47291851Y-1844953D01*
X-46892800Y-1094447D01*
X-46642632Y-1227464D01*
X-46590157Y-1301207D01*
X-46573421Y-1355948D01*
X-46575688Y-1446428D01*
X-46613693Y-1517904D01*
X-46687436Y-1570378D01*
X-46742177Y-1587115D01*
X-46832656Y-1584848D01*
X-47082825Y-1451831D01*
X-46148224Y-2453030D02*
X-46577084Y-2225001D01*
X-46362654Y-2339016D02*
X-45963603Y-1588510D01*
X-46092087Y-1657720D01*
X-46201569Y-1691192D01*
X-46292048Y-1688926D01*
X-45499004Y-1835542D02*
X-45034406Y-2082573D01*
X-45436593Y-2235463D01*
X-45329379Y-2292470D01*
X-45276904Y-2366214D01*
X-45260168Y-2420955D01*
X-45262435Y-2511433D01*
X-45357447Y-2690125D01*
X-45431190Y-2742599D01*
X-45485931Y-2759336D01*
X-45576410Y-2757069D01*
X-45790840Y-2643054D01*
X-45843314Y-2569312D01*
X-45860050Y-2514570D01*
X-44192656Y-1584848D02*
X-44104443Y-1677593D01*
X-44087708Y-1732334D01*
X-44089974Y-1822813D01*
X-44146981Y-1930028D01*
X-44220724Y-1982502D01*
X-44275465Y-1999239D01*
X-44365945Y-1996972D01*
X-44651851Y-1844953D01*
X-44252800Y-1094447D01*
X-44002632Y-1227464D01*
X-43950157Y-1301207D01*
X-43933421Y-1355948D01*
X-43935688Y-1446428D01*
X-43973693Y-1517904D01*
X-44047436Y-1570378D01*
X-44102177Y-1587115D01*
X-44192656Y-1584848D01*
X-44442825Y-1451831D01*
X-43508224Y-2453030D02*
X-43937084Y-2225001D01*
X-43722654Y-2339016D02*
X-43323603Y-1588510D01*
X-43452087Y-1657720D01*
X-43561569Y-1691192D01*
X-43652048Y-1688926D01*
X-42598899Y-2294737D02*
X-42864933Y-2795074D01*
X-42625572Y-1913818D02*
X-43089299Y-2354881D01*
X-42624701Y-2601912D01*
X-41642656Y-1584848D02*
X-41554443Y-1677593D01*
X-41537708Y-1732334D01*
X-41539974Y-1822813D01*
X-41596981Y-1930028D01*
X-41670724Y-1982502D01*
X-41725465Y-1999239D01*
X-41815945Y-1996972D01*
X-42101851Y-1844953D01*
X-41702800Y-1094447D01*
X-41452632Y-1227464D01*
X-41400157Y-1301207D01*
X-41383421Y-1355948D01*
X-41385688Y-1446428D01*
X-41423693Y-1517904D01*
X-41497436Y-1570378D01*
X-41552177Y-1587115D01*
X-41642656Y-1584848D01*
X-41892825Y-1451831D01*
X-40958224Y-2453030D02*
X-41387084Y-2225001D01*
X-41172654Y-2339016D02*
X-40773603Y-1588510D01*
X-40902087Y-1657720D01*
X-41011569Y-1691192D01*
X-41102048Y-1688926D01*
X-39880144Y-2063571D02*
X-40237528Y-1873547D01*
X-40463290Y-2211928D01*
X-40408550Y-2195192D01*
X-40318070Y-2197458D01*
X-40139379Y-2292470D01*
X-40086904Y-2366214D01*
X-40070168Y-2420955D01*
X-40072435Y-2511433D01*
X-40167447Y-2690125D01*
X-40241190Y-2742599D01*
X-40295931Y-2759336D01*
X-40386410Y-2757069D01*
X-40565102Y-2662057D01*
X-40617576Y-2588314D01*
X-40634312Y-2533572D01*
D15*
X-39148030Y-1740639D02*
X-38769624Y-1941841D01*
X-39344433Y-1927442D02*
X-38657024Y-1273631D01*
X-38814664Y-2209125D01*
X-38194815Y-1956240D02*
X-38250376Y-1878159D01*
X-38268096Y-1820198D01*
X-38265696Y-1724397D01*
X-38245576Y-1686556D01*
X-38167495Y-1630995D01*
X-38109534Y-1613275D01*
X-38013733Y-1615675D01*
X-37862371Y-1696156D01*
X-37806810Y-1774236D01*
X-37789089Y-1832197D01*
X-37791489Y-1927998D01*
X-37811610Y-1965839D01*
X-37889691Y-2021400D01*
X-37947651Y-2039121D01*
X-38043452Y-2036721D01*
X-38194815Y-1956240D01*
X-38290616Y-1953840D01*
X-38348577Y-1971560D01*
X-38426658Y-2027122D01*
X-38507139Y-2178484D01*
X-38509539Y-2274286D01*
X-38491819Y-2332247D01*
X-38436258Y-2410327D01*
X-38284895Y-2490808D01*
X-38189094Y-2493208D01*
X-38131133Y-2475488D01*
X-38053052Y-2419926D01*
X-37972571Y-2268564D01*
X-37970171Y-2172762D01*
X-37987891Y-2114802D01*
X-38043452Y-2036721D01*
X-36728030Y-1760639D02*
X-36349624Y-1961841D01*
X-36924433Y-1947442D02*
X-36237024Y-1293631D01*
X-36394664Y-2229125D01*
X-36091939Y-2390087D02*
X-35940577Y-2470568D01*
X-35844775Y-2472968D01*
X-35786814Y-2455248D01*
X-35650772Y-2381966D01*
X-35532451Y-2250724D01*
X-35371489Y-1947998D01*
X-35369089Y-1852197D01*
X-35386810Y-1794236D01*
X-35442371Y-1716156D01*
X-35593733Y-1635675D01*
X-35689534Y-1633275D01*
X-35747495Y-1650995D01*
X-35825576Y-1706556D01*
X-35926177Y-1895759D01*
X-35928577Y-1991560D01*
X-35910857Y-2049522D01*
X-35855296Y-2127603D01*
X-35703933Y-2208084D01*
X-35608132Y-2210483D01*
X-35550171Y-2192762D01*
X-35472090Y-2137201D01*
D14*
X-34539967Y-1680024D02*
X-34182583Y-1870049D01*
X-34725459Y-1856449D02*
X-34076239Y-1238961D01*
X-34225121Y-2122483D01*
X-33581831Y-2464527D02*
X-34010691Y-2236498D01*
X-33796261Y-2350512D02*
X-33397210Y-1600007D01*
X-33525694Y-1669217D01*
X-33635176Y-1702689D01*
X-33725655Y-1700422D01*
X-32718181Y-1961053D02*
X-32646705Y-1999058D01*
X-32594231Y-2072800D01*
X-32577494Y-2127541D01*
X-32579761Y-2218021D01*
X-32620032Y-2379976D01*
X-32715044Y-2558668D01*
X-32826792Y-2682619D01*
X-32900535Y-2735093D01*
X-32955277Y-2751830D01*
X-33045756Y-2749563D01*
X-33117232Y-2711558D01*
X-33169707Y-2637815D01*
X-33186443Y-2583074D01*
X-33184176Y-2492595D01*
X-33143904Y-2330639D01*
X-33048892Y-2151947D01*
X-32937145Y-2027997D01*
X-32863401Y-1975522D01*
X-32808661Y-1958786D01*
X-32718181Y-1961053D01*
X-31929967Y-1670024D02*
X-31572583Y-1860049D01*
X-32115459Y-1846449D02*
X-31466239Y-1228961D01*
X-31615121Y-2112483D01*
X-30971831Y-2454527D02*
X-31400691Y-2226498D01*
X-31186261Y-2340512D02*
X-30787210Y-1590007D01*
X-30915694Y-1659217D01*
X-31025176Y-1692689D01*
X-31115655Y-1690422D01*
X-30257064Y-2834575D02*
X-30685924Y-2606546D01*
X-30471494Y-2720561D02*
X-30072443Y-1970055D01*
X-30200927Y-2039265D01*
X-30310409Y-2072737D01*
X-30400888Y-2070471D01*
X-29359967Y-1650024D02*
X-29002583Y-1840049D01*
X-29545459Y-1826449D02*
X-28896239Y-1208961D01*
X-29045121Y-2092483D01*
X-28401831Y-2434527D02*
X-28830691Y-2206498D01*
X-28616261Y-2320512D02*
X-28217210Y-1570007D01*
X-28345694Y-1639217D01*
X-28455176Y-1672689D01*
X-28545655Y-1670422D01*
X-27754878Y-1907517D02*
X-27700137Y-1890781D01*
X-27609659Y-1893048D01*
X-27430967Y-1988060D01*
X-27378492Y-2061803D01*
X-27361756Y-2116544D01*
X-27364023Y-2207023D01*
X-27402028Y-2278500D01*
X-27494773Y-2366713D01*
X-28151662Y-2567544D01*
X-27687064Y-2814575D01*
X-26839967Y-1630024D02*
X-26482583Y-1820049D01*
X-27025459Y-1806449D02*
X-26376239Y-1188961D01*
X-26525121Y-2072483D01*
X-25881831Y-2414527D02*
X-26310691Y-2186498D01*
X-26096261Y-2300512D02*
X-25697210Y-1550007D01*
X-25825694Y-1619217D01*
X-25935176Y-1652689D01*
X-26025655Y-1650422D01*
X-24803751Y-2025067D02*
X-25161135Y-1835043D01*
X-25386897Y-2173424D01*
X-25332157Y-2156689D01*
X-25241678Y-2158954D01*
X-25062986Y-2253966D01*
X-25010511Y-2327710D01*
X-24993776Y-2382451D01*
X-24996042Y-2472930D01*
X-25091054Y-2651622D01*
X-25164797Y-2704096D01*
X-25219538Y-2720832D01*
X-25310018Y-2718565D01*
X-25488709Y-2623553D01*
X-25541183Y-2549810D01*
X-25557919Y-2495069D01*
D15*
X-23641464Y-1752217D02*
X-23548063Y-1850418D01*
X-23530343Y-1908380D01*
X-23532743Y-2004181D01*
X-23593103Y-2117702D01*
X-23671184Y-2173264D01*
X-23729145Y-2190984D01*
X-23824946Y-2188585D01*
X-24127671Y-2027623D01*
X-23705146Y-1232970D01*
X-23440262Y-1373812D01*
X-23384701Y-1451892D01*
X-23366981Y-1509853D01*
X-23369381Y-1605654D01*
X-23409622Y-1681336D01*
X-23487702Y-1736897D01*
X-23545663Y-1754617D01*
X-23641464Y-1752217D01*
X-23906348Y-1611376D01*
X-22986176Y-1615254D02*
X-22494247Y-1876817D01*
X-22920093Y-2038700D01*
X-22806571Y-2099061D01*
X-22751010Y-2177142D01*
X-22733290Y-2235102D01*
X-22735690Y-2330904D01*
X-22836291Y-2520107D01*
X-22914372Y-2575668D01*
X-22972333Y-2593389D01*
X-23068134Y-2590989D01*
X-23295178Y-2470268D01*
X-23350738Y-2392187D01*
X-23368460Y-2334226D01*
X-21081464Y-1772217D02*
X-20988063Y-1870418D01*
X-20970343Y-1928380D01*
X-20972743Y-2024181D01*
X-21033103Y-2137702D01*
X-21111184Y-2193264D01*
X-21169145Y-2210984D01*
X-21264946Y-2208585D01*
X-21567671Y-2047623D01*
X-21145146Y-1252970D01*
X-20880262Y-1393812D01*
X-20824701Y-1471892D01*
X-20806981Y-1529853D01*
X-20809381Y-1625654D01*
X-20849622Y-1701336D01*
X-20927702Y-1756897D01*
X-20985663Y-1774617D01*
X-21081464Y-1772217D01*
X-21346348Y-1631376D01*
X-20150770Y-2121461D02*
X-20432453Y-2651229D01*
X-20179012Y-1718135D02*
X-20670017Y-2185143D01*
X-20178090Y-2446705D01*
X-18601464Y-1842217D02*
X-18508063Y-1940418D01*
X-18490343Y-1998380D01*
X-18492743Y-2094181D01*
X-18553103Y-2207702D01*
X-18631184Y-2263264D01*
X-18689145Y-2280984D01*
X-18784946Y-2278585D01*
X-19087671Y-2117623D01*
X-18665146Y-1322970D01*
X-18400262Y-1463812D01*
X-18344701Y-1541892D01*
X-18326981Y-1599853D01*
X-18329381Y-1695654D01*
X-18369622Y-1771336D01*
X-18447702Y-1826897D01*
X-18505663Y-1844617D01*
X-18601464Y-1842217D01*
X-18866348Y-1701376D01*
X-17492088Y-1946696D02*
X-17870494Y-1745495D01*
X-18109536Y-2103780D01*
X-18051575Y-2086060D01*
X-17955774Y-2088460D01*
X-17766571Y-2189061D01*
X-17711010Y-2267142D01*
X-17693290Y-2325102D01*
X-17695690Y-2420904D01*
X-17796291Y-2610107D01*
X-17874372Y-2665668D01*
X-17932333Y-2683389D01*
X-18028134Y-2680989D01*
X-18217337Y-2580388D01*
X-18272898Y-2502307D01*
X-18290618Y-2444346D01*
X-15951464Y-1772217D02*
X-15858063Y-1870418D01*
X-15840343Y-1928380D01*
X-15842743Y-2024181D01*
X-15903103Y-2137702D01*
X-15981184Y-2193264D01*
X-16039145Y-2210984D01*
X-16134946Y-2208585D01*
X-16437671Y-2047623D01*
X-16015146Y-1252970D01*
X-15750262Y-1393812D01*
X-15694701Y-1471892D01*
X-15676981Y-1529853D01*
X-15679381Y-1625654D01*
X-15719622Y-1701336D01*
X-15797702Y-1756897D01*
X-15855663Y-1774617D01*
X-15951464Y-1772217D01*
X-16216348Y-1631376D01*
X-14879928Y-1856576D02*
X-15031291Y-1776095D01*
X-15127092Y-1773696D01*
X-15185053Y-1791416D01*
X-15321095Y-1864698D01*
X-15439416Y-1995940D01*
X-15600378Y-2298664D01*
X-15602778Y-2394466D01*
X-15585057Y-2452427D01*
X-15529497Y-2530508D01*
X-15378134Y-2610989D01*
X-15282333Y-2613389D01*
X-15224372Y-2595668D01*
X-15146291Y-2540107D01*
X-15045690Y-2350904D01*
X-15043290Y-2255102D01*
X-15061010Y-2197142D01*
X-15116571Y-2119061D01*
X-15267934Y-2038580D01*
X-15363735Y-2036180D01*
X-15421696Y-2053900D01*
X-15499777Y-2109462D01*
X-13501464Y-1792217D02*
X-13408063Y-1890418D01*
X-13390343Y-1948380D01*
X-13392743Y-2044181D01*
X-13453103Y-2157702D01*
X-13531184Y-2213264D01*
X-13589145Y-2230984D01*
X-13684946Y-2228585D01*
X-13987671Y-2067623D01*
X-13565146Y-1272970D01*
X-13300262Y-1413812D01*
X-13244701Y-1491892D01*
X-13226981Y-1549853D01*
X-13229381Y-1645654D01*
X-13269622Y-1721336D01*
X-13347702Y-1776897D01*
X-13405663Y-1794617D01*
X-13501464Y-1792217D01*
X-13766348Y-1651376D01*
X-12846176Y-1655254D02*
X-12316407Y-1936937D01*
X-13079497Y-2550508D01*
X-11001464Y-1802217D02*
X-10908063Y-1900418D01*
X-10890343Y-1958380D01*
X-10892743Y-2054181D01*
X-10953103Y-2167702D01*
X-11031184Y-2223264D01*
X-11089145Y-2240984D01*
X-11184946Y-2238585D01*
X-11487671Y-2077623D01*
X-11065146Y-1282970D01*
X-10800262Y-1423812D01*
X-10744701Y-1501892D01*
X-10726981Y-1559853D01*
X-10729381Y-1655654D01*
X-10769622Y-1731336D01*
X-10847702Y-1786897D01*
X-10905663Y-1804617D01*
X-11001464Y-1802217D01*
X-11266348Y-1661376D01*
X-10338054Y-2106420D02*
X-10393615Y-2028339D01*
X-10411335Y-1970379D01*
X-10408935Y-1874578D01*
X-10388815Y-1836736D01*
X-10310734Y-1781176D01*
X-10252773Y-1763455D01*
X-10156972Y-1765855D01*
X-10005609Y-1846336D01*
X-9950049Y-1924417D01*
X-9932328Y-1982377D01*
X-9934728Y-2078179D01*
X-9954849Y-2116020D01*
X-10032929Y-2171581D01*
X-10090890Y-2189301D01*
X-10186691Y-2186901D01*
X-10338054Y-2106420D01*
X-10433855Y-2104020D01*
X-10491816Y-2121741D01*
X-10569897Y-2177303D01*
X-10650378Y-2328664D01*
X-10652778Y-2424466D01*
X-10635057Y-2482427D01*
X-10579497Y-2560508D01*
X-10428134Y-2640989D01*
X-10332333Y-2643389D01*
X-10274372Y-2625668D01*
X-10196291Y-2570107D01*
X-10115810Y-2418745D01*
X-10113410Y-2322943D01*
X-10131130Y-2264982D01*
X-10186691Y-2186901D01*
X-8521464Y-1772217D02*
X-8428063Y-1870418D01*
X-8410343Y-1928380D01*
X-8412743Y-2024181D01*
X-8473103Y-2137702D01*
X-8551184Y-2193264D01*
X-8609145Y-2210984D01*
X-8704946Y-2208585D01*
X-9007671Y-2047623D01*
X-8585146Y-1252970D01*
X-8320262Y-1393812D01*
X-8264701Y-1471892D01*
X-8246981Y-1529853D01*
X-8249381Y-1625654D01*
X-8289622Y-1701336D01*
X-8367702Y-1756897D01*
X-8425663Y-1774617D01*
X-8521464Y-1772217D01*
X-8786348Y-1631376D01*
X-8175178Y-2490268D02*
X-8023816Y-2570748D01*
X-7928014Y-2573148D01*
X-7870053Y-2555428D01*
X-7734011Y-2482146D01*
X-7615690Y-2350904D01*
X-7454728Y-2048179D01*
X-7452328Y-1952377D01*
X-7470049Y-1894417D01*
X-7525609Y-1816336D01*
X-7676972Y-1735855D01*
X-7772773Y-1733455D01*
X-7830734Y-1751176D01*
X-7908815Y-1806736D01*
X-8009416Y-1995940D01*
X-8011816Y-2091741D01*
X-7994096Y-2149702D01*
X-7938535Y-2227783D01*
X-7787172Y-2308264D01*
X-7691371Y-2310664D01*
X-7633410Y-2292943D01*
X-7555329Y-2237382D01*
X-5609980Y-1564352D02*
X-5988386Y-1363150D01*
X-6227429Y-1721436D01*
X-6169468Y-1703715D01*
X-6073667Y-1706115D01*
X-5884464Y-1806716D01*
X-5828903Y-1884797D01*
X-5811182Y-1942758D01*
X-5813583Y-2038560D01*
X-5914183Y-2227762D01*
X-5992265Y-2283324D01*
X-6050225Y-2301044D01*
X-6146026Y-2298644D01*
X-6335230Y-2198043D01*
X-6390790Y-2119963D01*
X-6408511Y-2062002D01*
X-5345096Y-1705194D02*
X-5502736Y-2640688D01*
X-4815328Y-1986876D01*
D14*
X-1162146Y-1206941D02*
X-1311028Y-2090464D01*
X-661809Y-1472976D01*
X-810691Y-2356498D02*
X-411640Y-1605992D01*
X-232949Y-1701004D01*
X-144736Y-1793750D01*
X-111264Y-1903231D01*
X-113531Y-1993711D01*
X-153802Y-2155667D01*
X-210809Y-2262881D01*
X-322557Y-2386833D01*
X-396300Y-2439307D01*
X-505783Y-2472779D01*
X-631999Y-2451510D01*
X-810691Y-2356498D01*
X-60186Y-2755549D02*
X338865Y-2005043D01*
X517557Y-2100055D01*
X605769Y-2192800D01*
X639242Y-2302282D01*
X636975Y-2392762D01*
X596703Y-2554717D01*
X539696Y-2661932D01*
X427948Y-2785883D01*
X354205Y-2838357D01*
X244723Y-2871830D01*
X118506Y-2850561D01*
X-60186Y-2755549D01*
X-3392288Y-1360709D02*
X-3444762Y-1286966D01*
X-3551978Y-1229958D01*
X-3678195Y-1208689D01*
X-3787677Y-1242161D01*
X-3861420Y-1294636D01*
X-3973168Y-1418587D01*
X-4030175Y-1525801D01*
X-4070446Y-1687757D01*
X-4072713Y-1778236D01*
X-4039241Y-1887719D01*
X-3951029Y-1980464D01*
X-3879552Y-2018468D01*
X-3753334Y-2039738D01*
X-3698593Y-2023001D01*
X-3565577Y-1772833D01*
X-3708530Y-1696823D01*
X-3414953Y-2265500D02*
X-3015902Y-1514995D01*
X-2986093Y-2493529D01*
X-2587042Y-1743024D01*
X-2628709Y-2683553D02*
X-2229659Y-1933048D01*
X-2050967Y-2028060D01*
X-1962755Y-2120805D01*
X-1929282Y-2230287D01*
X-1931549Y-2320766D01*
X-1971821Y-2482722D01*
X-2028828Y-2589937D01*
X-2140576Y-2713888D01*
X-2214318Y-2766362D01*
X-2323801Y-2799834D01*
X-2450018Y-2778565D01*
X-2628709Y-2683553D01*
D16*
X-42882000Y7632000D02*
X-42882000Y2432000D01*
X-37742000Y7632000D02*
X-42882000Y7632000D01*
X-35142000Y2432000D02*
X-42882000Y2432000D01*
X-37742000Y7632000D02*
X-37742000Y5032000D01*
X-37742000Y5032000D02*
X-35142000Y5032000D01*
X-35142000Y5032000D02*
X-35142000Y2432000D01*
X-36472000Y7632000D02*
X-35142000Y7632000D01*
X-35142000Y7632000D02*
X-35142000Y6302000D01*
X-45470000Y11480000D02*
X-45470000Y11030000D01*
X-47320000Y11480000D02*
X-45470000Y11480000D01*
X-49870000Y3680000D02*
X-49620000Y3680000D01*
X-49870000Y11480000D02*
X-49620000Y11480000D01*
X-47320000Y3680000D02*
X-45470000Y3680000D01*
X-45470000Y3680000D02*
X-45470000Y4130000D01*
X-44920000Y9280000D02*
X-44920000Y8830000D01*
X-44920000Y9280000D02*
X-45370000Y9280000D01*
X-40680000Y8720000D02*
X-40230000Y8270000D01*
X-37280000Y8720000D02*
X-37730000Y8270000D01*
X-37280000Y13320000D02*
X-37730000Y13770000D01*
X-40680000Y13320000D02*
X-40230000Y13770000D01*
X-36230000Y12020000D02*
X-36230000Y10020000D01*
X-40230000Y8270000D02*
X-37730000Y8270000D01*
X-41730000Y12020000D02*
X-41730000Y10020000D01*
X-40230000Y13770000D02*
X-37730000Y13770000D01*
X-1370000Y14230000D02*
X-1370000Y1410000D01*
X-1370000Y1410000D02*
X1290000Y1410000D01*
X1290000Y1410000D02*
X1290000Y14230000D01*
X1290000Y14230000D02*
X-1370000Y14230000D01*
X1290000Y13280000D02*
X7290000Y13280000D01*
X7290000Y13280000D02*
X7290000Y12520000D01*
X7290000Y12520000D02*
X1290000Y12520000D01*
X1290000Y13220000D02*
X7290000Y13220000D01*
X1290000Y13100000D02*
X7290000Y13100000D01*
X1290000Y12980000D02*
X7290000Y12980000D01*
X1290000Y12860000D02*
X7290000Y12860000D01*
X1290000Y12740000D02*
X7290000Y12740000D01*
X1290000Y12620000D02*
X7290000Y12620000D01*
X-1700000Y13280000D02*
X-1370000Y13280000D01*
X-1700000Y12520000D02*
X-1370000Y12520000D01*
X-1370000Y11630000D02*
X1290000Y11630000D01*
X1290000Y10740000D02*
X7290000Y10740000D01*
X7290000Y10740000D02*
X7290000Y9980000D01*
X7290000Y9980000D02*
X1290000Y9980000D01*
X-1767071Y10740000D02*
X-1370000Y10740000D01*
X-1767071Y9980000D02*
X-1370000Y9980000D01*
X-1370000Y9090000D02*
X1290000Y9090000D01*
X1290000Y8200000D02*
X7290000Y8200000D01*
X7290000Y8200000D02*
X7290000Y7440000D01*
X7290000Y7440000D02*
X1290000Y7440000D01*
X-1767071Y8200000D02*
X-1370000Y8200000D01*
X-1767071Y7440000D02*
X-1370000Y7440000D01*
X-1370000Y6550000D02*
X1290000Y6550000D01*
X1290000Y5660000D02*
X7290000Y5660000D01*
X7290000Y5660000D02*
X7290000Y4900000D01*
X7290000Y4900000D02*
X1290000Y4900000D01*
X-1767071Y5660000D02*
X-1370000Y5660000D01*
X-1767071Y4900000D02*
X-1370000Y4900000D01*
X-1370000Y4010000D02*
X1290000Y4010000D01*
X1290000Y3120000D02*
X7290000Y3120000D01*
X7290000Y3120000D02*
X7290000Y2360000D01*
X7290000Y2360000D02*
X1290000Y2360000D01*
X-1767071Y3120000D02*
X-1370000Y3120000D01*
X-1767071Y2360000D02*
X-1370000Y2360000D01*
X-4080000Y12900000D02*
X-4080000Y14170000D01*
X-4080000Y14170000D02*
X-2810000Y14170000D01*
X-7690000Y9160000D02*
X-6290000Y9160000D01*
X-6290000Y9160000D02*
X-6290000Y11960000D01*
X-7690000Y9160000D02*
X-7690000Y11960000D01*
X-7690000Y3320000D02*
X-6290000Y3320000D01*
X-6290000Y3320000D02*
X-6290000Y6120000D01*
X-7690000Y3320000D02*
X-7690000Y6120000D01*
X-20965000Y4400000D02*
X-20965000Y10800000D01*
X-15915000Y4400000D02*
X-15915000Y10800000D01*
X-15915000Y4400000D02*
G75*
G02X-20965000Y4400000I-2525000J0D01*
G01*
X-15915000Y10800000D02*
G75*
G03X-20965000Y10800000I-2525000J0D01*
G01*
X-13960000Y10940000D02*
X-13960000Y11540000D01*
X-13960000Y11540000D02*
X-10360000Y11540000D01*
X-10360000Y11540000D02*
X-10360000Y10940000D01*
X-13960000Y5440000D02*
X-13960000Y9240000D01*
X-12660000Y3140000D02*
X-13960000Y3140000D01*
X-10360000Y3140000D02*
X-11660000Y3140000D01*
X-13960000Y3140000D02*
X-13960000Y3740000D01*
X-10360000Y3140000D02*
X-10360000Y3740000D01*
X-10360000Y9240000D02*
X-10360000Y5440000D01*
X-11660000Y3140000D02*
G75*
G03X-12660000Y3140000I-500000J0D01*
G01*
X-24231000Y-14215001D02*
X-24931000Y-14215001D01*
X-24931000Y-13015001D02*
X-24231000Y-13015001D01*
X-24231000Y-14215001D02*
X-24931000Y-14215001D01*
X-24931000Y-13015001D02*
X-24231000Y-13015001D01*
X-24231000Y-14215001D02*
X-24931000Y-14215001D01*
X-24931000Y-13015001D02*
X-24231000Y-13015001D01*
X-24231000Y-14215001D02*
X-24931000Y-14215001D01*
X-24931000Y-13015001D02*
X-24231000Y-13015001D01*
X-24231000Y-14215001D02*
X-24931000Y-14215001D01*
X-24931000Y-13015001D02*
X-24231000Y-13015001D01*
X-26381000Y-12915001D02*
X-26381000Y-14315001D01*
X-26381000Y-14315001D02*
X-23581000Y-14315001D01*
X-26381000Y-12915001D02*
X-23581000Y-12915001D01*
X-26381000Y-12915001D02*
X-26381000Y-14315001D01*
X-26381000Y-14315001D02*
X-23581000Y-14315001D01*
X-26381000Y-12915001D02*
X-23581000Y-12915001D01*
D12*
X-22532284Y7920000D02*
X-22744416Y8132132D01*
X-22532284Y7920000D02*
X-22744416Y7707868D01*
X-27482031Y12869747D02*
X-27255757Y12643473D01*
X-27482031Y12869747D02*
X-27694163Y12657615D01*
X-32431778Y7920000D02*
X-32219646Y8132132D01*
X-32431778Y7920000D02*
X-32219646Y7707868D01*
X-27482031Y2970253D02*
X-27269899Y3182385D01*
X-27482031Y2970253D02*
X-27694163Y3182385D01*
D13*
X-22268564Y8450330D02*
G75*
G03X-22268564Y8450330I-72801J0D01*
G01*
D17*
X-40243333Y10555238D02*
X-40100476Y10507619D01*
X-39862380Y10507619D01*
X-39767142Y10555238D01*
X-39719523Y10602857D01*
X-39671904Y10698095D01*
X-39671904Y10793333D01*
X-39719523Y10888571D01*
X-39767142Y10936190D01*
X-39862380Y10983810D01*
X-40052857Y11031429D01*
X-40148095Y11079048D01*
X-40195714Y11126667D01*
X-40243333Y11221905D01*
X-40243333Y11317143D01*
X-40195714Y11412381D01*
X-40148095Y11460000D01*
X-40052857Y11507619D01*
X-39814761Y11507619D01*
X-39671904Y11460000D01*
X-39338571Y11507619D02*
X-39100476Y10507619D01*
X-38909999Y11221905D01*
X-38719523Y10507619D01*
X-38481428Y11507619D01*
X-37576666Y10507619D02*
X-38148095Y10507619D01*
X-37862381Y10507619D02*
X-37862381Y11507619D01*
X-37957619Y11364762D01*
X-38052857Y11269524D01*
X-38148095Y11221905D01*
X-8037619Y9626667D02*
X-9037619Y9626667D01*
X-9037619Y10007620D01*
X-8990000Y10102858D01*
X-8942381Y10150477D01*
X-8847143Y10198096D01*
X-8704286Y10198096D01*
X-8609048Y10150477D01*
X-8561429Y10102858D01*
X-8513810Y10007620D01*
X-8513810Y9626667D01*
X-9037619Y10531429D02*
X-8037619Y10769524D01*
X-8751905Y10960001D01*
X-8037619Y11150477D01*
X-9037619Y11388572D01*
X-8037619Y12340953D02*
X-8513810Y12007619D01*
X-8037619Y11769524D02*
X-9037619Y11769524D01*
X-9037619Y12150477D01*
X-8990000Y12245715D01*
X-8942381Y12293334D01*
X-8847143Y12340953D01*
X-8704286Y12340953D01*
X-8609048Y12293334D01*
X-8561429Y12245715D01*
X-8513810Y12150477D01*
X-8513810Y11769524D01*
X-8037619Y4477143D02*
X-8037619Y4000952D01*
X-9037619Y4000952D01*
X-8561429Y4810476D02*
X-8561429Y5143810D01*
X-8037619Y5286667D02*
X-8037619Y4810476D01*
X-9037619Y4810476D01*
X-9037619Y5286667D01*
X-8037619Y5715238D02*
X-9037619Y5715238D01*
X-9037619Y5953333D01*
X-8990000Y6096191D01*
X-8894762Y6191429D01*
X-8799524Y6239048D01*
X-8609048Y6286667D01*
X-8466190Y6286667D01*
X-8275714Y6239048D01*
X-8180476Y6191429D01*
X-8085238Y6096191D01*
X-8037619Y5953333D01*
X-8037619Y5715238D01*
D13*
X-25223857Y-12472144D02*
X-25271476Y-12519763D01*
X-25414333Y-12567382D01*
X-25509571Y-12567382D01*
X-25652429Y-12519763D01*
X-25747667Y-12424525D01*
X-25795286Y-12329287D01*
X-25842905Y-12138811D01*
X-25842905Y-11995953D01*
X-25795286Y-11805477D01*
X-25747667Y-11710239D01*
X-25652429Y-11615001D01*
X-25509571Y-11567382D01*
X-25414333Y-11567382D01*
X-25271476Y-11615001D01*
X-25223857Y-11662620D01*
X-24271476Y-12567382D02*
X-24842905Y-12567382D01*
X-24557191Y-12567382D02*
X-24557191Y-11567382D01*
X-24652429Y-11710239D01*
X-24747667Y-11805477D01*
X-24842905Y-11853096D01*
X-23366714Y-11567382D02*
X-23842905Y-11567382D01*
X-23890524Y-12043572D01*
X-23842905Y-11995953D01*
X-23747667Y-11948334D01*
X-23509571Y-11948334D01*
X-23414333Y-11995953D01*
X-23366714Y-12043572D01*
X-23319095Y-12138811D01*
X-23319095Y-12376906D01*
X-23366714Y-12472144D01*
X-23414333Y-12519763D01*
X-23509571Y-12567382D01*
X-23747667Y-12567382D01*
X-23842905Y-12519763D01*
X-23890524Y-12472144D01*
X-25223857Y-12472144D02*
X-25271476Y-12519763D01*
X-25414333Y-12567382D01*
X-25509571Y-12567382D01*
X-25652429Y-12519763D01*
X-25747667Y-12424525D01*
X-25795286Y-12329287D01*
X-25842905Y-12138811D01*
X-25842905Y-11995953D01*
X-25795286Y-11805477D01*
X-25747667Y-11710239D01*
X-25652429Y-11615001D01*
X-25509571Y-11567382D01*
X-25414333Y-11567382D01*
X-25271476Y-11615001D01*
X-25223857Y-11662620D01*
X-24271476Y-12567382D02*
X-24842905Y-12567382D01*
X-24557191Y-12567382D02*
X-24557191Y-11567382D01*
X-24652429Y-11710239D01*
X-24747667Y-11805477D01*
X-24842905Y-11853096D01*
X-23414333Y-11567382D02*
X-23604810Y-11567382D01*
X-23700048Y-11615001D01*
X-23747667Y-11662620D01*
X-23842905Y-11805477D01*
X-23890524Y-11995953D01*
X-23890524Y-12376906D01*
X-23842905Y-12472144D01*
X-23795286Y-12519763D01*
X-23700048Y-12567382D01*
X-23509571Y-12567382D01*
X-23414333Y-12519763D01*
X-23366714Y-12472144D01*
X-23319095Y-12376906D01*
X-23319095Y-12138811D01*
X-23366714Y-12043572D01*
X-23414333Y-11995953D01*
X-23509571Y-11948334D01*
X-23700048Y-11948334D01*
X-23795286Y-11995953D01*
X-23842905Y-12043572D01*
X-23890524Y-12138811D01*
X-25223857Y-12472144D02*
X-25271476Y-12519763D01*
X-25414333Y-12567382D01*
X-25509571Y-12567382D01*
X-25652429Y-12519763D01*
X-25747667Y-12424525D01*
X-25795286Y-12329287D01*
X-25842905Y-12138811D01*
X-25842905Y-11995953D01*
X-25795286Y-11805477D01*
X-25747667Y-11710239D01*
X-25652429Y-11615001D01*
X-25509571Y-11567382D01*
X-25414333Y-11567382D01*
X-25271476Y-11615001D01*
X-25223857Y-11662620D01*
X-24271476Y-12567382D02*
X-24842905Y-12567382D01*
X-24557191Y-12567382D02*
X-24557191Y-11567382D01*
X-24652429Y-11710239D01*
X-24747667Y-11805477D01*
X-24842905Y-11853096D01*
X-23938143Y-11567382D02*
X-23271476Y-11567382D01*
X-23700048Y-12567382D01*
X-25223857Y-12472144D02*
X-25271476Y-12519763D01*
X-25414333Y-12567382D01*
X-25509571Y-12567382D01*
X-25652429Y-12519763D01*
X-25747667Y-12424525D01*
X-25795286Y-12329287D01*
X-25842905Y-12138811D01*
X-25842905Y-11995953D01*
X-25795286Y-11805477D01*
X-25747667Y-11710239D01*
X-25652429Y-11615001D01*
X-25509571Y-11567382D01*
X-25414333Y-11567382D01*
X-25271476Y-11615001D01*
X-25223857Y-11662620D01*
X-24271476Y-12567382D02*
X-24842905Y-12567382D01*
X-24557191Y-12567382D02*
X-24557191Y-11567382D01*
X-24652429Y-11710239D01*
X-24747667Y-11805477D01*
X-24842905Y-11853096D01*
X-23700048Y-11995953D02*
X-23795286Y-11948334D01*
X-23842905Y-11900715D01*
X-23890524Y-11805477D01*
X-23890524Y-11757858D01*
X-23842905Y-11662620D01*
X-23795286Y-11615001D01*
X-23700048Y-11567382D01*
X-23509571Y-11567382D01*
X-23414333Y-11615001D01*
X-23366714Y-11662620D01*
X-23319095Y-11757858D01*
X-23319095Y-11805477D01*
X-23366714Y-11900715D01*
X-23414333Y-11948334D01*
X-23509571Y-11995953D01*
X-23700048Y-11995953D01*
X-23795286Y-12043572D01*
X-23842905Y-12091191D01*
X-23890524Y-12186430D01*
X-23890524Y-12376906D01*
X-23842905Y-12472144D01*
X-23795286Y-12519763D01*
X-23700048Y-12567382D01*
X-23509571Y-12567382D01*
X-23414333Y-12519763D01*
X-23366714Y-12472144D01*
X-23319095Y-12376906D01*
X-23319095Y-12186430D01*
X-23366714Y-12091191D01*
X-23414333Y-12043572D01*
X-23509571Y-11995953D01*
X-25223857Y-12472144D02*
X-25271476Y-12519763D01*
X-25414333Y-12567382D01*
X-25509571Y-12567382D01*
X-25652429Y-12519763D01*
X-25747667Y-12424525D01*
X-25795286Y-12329287D01*
X-25842905Y-12138811D01*
X-25842905Y-11995953D01*
X-25795286Y-11805477D01*
X-25747667Y-11710239D01*
X-25652429Y-11615001D01*
X-25509571Y-11567382D01*
X-25414333Y-11567382D01*
X-25271476Y-11615001D01*
X-25223857Y-11662620D01*
X-24271476Y-12567382D02*
X-24842905Y-12567382D01*
X-24557191Y-12567382D02*
X-24557191Y-11567382D01*
X-24652429Y-11710239D01*
X-24747667Y-11805477D01*
X-24842905Y-11853096D01*
X-23795286Y-12567382D02*
X-23604810Y-12567382D01*
X-23509571Y-12519763D01*
X-23461952Y-12472144D01*
X-23366714Y-12329287D01*
X-23319095Y-12138811D01*
X-23319095Y-11757858D01*
X-23366714Y-11662620D01*
X-23414333Y-11615001D01*
X-23509571Y-11567382D01*
X-23700048Y-11567382D01*
X-23795286Y-11615001D01*
X-23842905Y-11662620D01*
X-23890524Y-11757858D01*
X-23890524Y-11995953D01*
X-23842905Y-12091191D01*
X-23795286Y-12138811D01*
X-23700048Y-12186430D01*
X-23509571Y-12186430D01*
X-23414333Y-12138811D01*
X-23366714Y-12091191D01*
X-23319095Y-11995953D01*
X-25319095Y-12617382D02*
X-25319095Y-11617382D01*
X-25081000Y-11617382D01*
X-24938142Y-11665001D01*
X-24842904Y-11760239D01*
X-24795285Y-11855477D01*
X-24747666Y-12045953D01*
X-24747666Y-12188811D01*
X-24795285Y-12379287D01*
X-24842904Y-12474525D01*
X-24938142Y-12569763D01*
X-25081000Y-12617382D01*
X-25319095Y-12617382D01*
X-23795285Y-12617382D02*
X-24366714Y-12617382D01*
X-24081000Y-12617382D02*
X-24081000Y-11617382D01*
X-24176238Y-11760239D01*
X-24271476Y-11855477D01*
X-24366714Y-11903096D01*
X-25319095Y-12617382D02*
X-25319095Y-11617382D01*
X-25081000Y-11617382D01*
X-24938142Y-11665001D01*
X-24842904Y-11760239D01*
X-24795285Y-11855477D01*
X-24747666Y-12045953D01*
X-24747666Y-12188811D01*
X-24795285Y-12379287D01*
X-24842904Y-12474525D01*
X-24938142Y-12569763D01*
X-25081000Y-12617382D01*
X-25319095Y-12617382D01*
X-24366714Y-11712620D02*
X-24319095Y-11665001D01*
X-24223857Y-11617382D01*
X-23985761Y-11617382D01*
X-23890523Y-11665001D01*
X-23842904Y-11712620D01*
X-23795285Y-11807858D01*
X-23795285Y-11903096D01*
X-23842904Y-12045953D01*
X-24414333Y-12617382D01*
X-23795285Y-12617382D01*
M02*
