M48
;DRILL file {KiCad 4.0.7} date 11/06/17 20:24:42
;FORMAT={-:-/ absolute / metric / decimal}
FMAT,2
METRIC,TZ
T1C0.300
T2C0.600
T3C0.800
T4C0.850
T5C1.000
%
G90
G05
M71
T1
X-47.52Y13.89
X-46.99Y7.48
X-44.54Y8.81
X-43.98Y6.29
X-43.75Y8.24
X-43.6Y7.55
X-42.38Y-1.23
X-40.07Y10.28
X-40.Y8.73
X-38.135Y10.05
X-37.68Y2.88
X-35.07Y10.24
X-34.49Y9.03
X-33.94Y8.495
X-33.53Y13.15
X-33.39Y7.04
X-33.182Y10.346
X-32.84Y8.458
X-31.98Y-0.68
X-31.6Y2.43
X-30.66Y1.98
X-29.958Y13.258
X-29.56Y2.302
X-28.38Y13.85
X-28.08Y2.07
X-27.47Y13.21
X-26.535Y2.07
X-26.07Y1.53
X-25.715Y2.074
X-24.561Y12.92
X-24.087Y12.41
X-23.41Y12.411
X-21.911Y12.286
X-21.907Y11.636
X-21.565Y5.965
X-21.3Y12.98
X-21.288Y7.242
X-20.66Y4.89
X-20.65Y3.25
X-20.28Y8.31
X-18.43Y11.25
X-13.8Y7.06
X-13.13Y5.95
X-10.65Y7.45
X-8.447Y3.169
X-8.28Y9.31
X-5.07Y10.81
X-4.77Y14.22
X-1.99Y9.06
X-0.67Y13.08
X-0.64Y14.18
T3
X-18.44Y10.04
X-18.44Y5.16
T4
X-45.77Y10.08
X-45.77Y5.08
T5
X-48.69Y15.7
X-48.69Y0.2
X-46.15Y15.7
X-46.15Y0.2
X-43.61Y15.7
X-43.61Y0.2
X-41.552Y6.302
X-41.552Y3.762
X-41.07Y15.7
X-41.07Y0.2
X-39.012Y6.302
X-39.012Y3.762
X-38.53Y15.7
X-38.53Y0.2
X-36.472Y6.302
X-36.472Y3.762
X-35.99Y15.7
X-35.99Y0.2
X-33.45Y15.7
X-33.45Y0.2
X-30.91Y15.7
X-30.91Y0.2
X-28.37Y15.7
X-28.37Y0.2
X-25.83Y15.7
X-25.83Y0.2
X-23.29Y15.7
X-23.29Y0.2
X-20.75Y15.7
X-20.75Y0.2
X-18.21Y15.7
X-18.21Y0.2
X-15.67Y15.7
X-15.67Y0.2
X-13.13Y15.7
X-13.13Y0.2
X-10.59Y15.7
X-10.59Y0.2
X-8.05Y15.7
X-8.05Y0.2
X-5.51Y15.7
X-5.51Y0.2
X-2.97Y15.7
X-2.97Y0.2
X-2.81Y12.9
X-2.81Y10.36
X-2.81Y7.82
X-2.81Y5.28
X-2.81Y2.74
X-0.43Y15.7
X-0.43Y0.2
T2
X-48.82Y11.08G85X-48.12Y11.08
G05
X-48.12Y4.08G85X-48.82Y4.08
G05
T0
M30
