%TF.GenerationSoftware,KiCad,Pcbnew,4.0.7*%
%TF.CreationDate,2017-11-07T18:20:37+08:00*%
%TF.ProjectId,STM32F401CCT6,53544D333246343031434354362E6B69,rev?*%
%TF.FileFunction,Legend,Bot*%
%FSLAX46Y46*%
G04 Gerber Fmt 4.6, Leading zero omitted, Abs format (unit mm)*
G04 Created by KiCad (PCBNEW 4.0.7) date 11/07/17 18:20:37*
%MOMM*%
%LPD*%
G01*
G04 APERTURE LIST*
%ADD10C,0.100000*%
%ADD11C,0.200000*%
%ADD12C,0.120000*%
%ADD13C,0.187500*%
%ADD14C,0.150000*%
G04 APERTURE END LIST*
D10*
D11*
X-13270000Y5180000D02*
X-12710000Y5810000D01*
X-13490000Y5320000D02*
X-13280000Y6220000D01*
X-13770000Y5370000D02*
X-13850000Y6270000D01*
X-13440000Y3500000D02*
X-12870000Y2740000D01*
X-13740000Y3410000D02*
X-13590000Y2580000D01*
X-14010000Y3410000D02*
X-14120000Y2570000D01*
X-13630000Y4180000D02*
X-13130000Y4590000D01*
X-13590000Y4630000D02*
X-13200000Y4110000D01*
X-15260000Y3060000D02*
X-14620000Y3240000D01*
X-14980000Y3630000D02*
X-15290000Y3050000D01*
X-14151833Y4790000D02*
G75*
G03X-14151833Y4790000I-108167J0D01*
G01*
X-14146863Y3960000D02*
G75*
G03X-14146863Y3960000I-113137J0D01*
G01*
X-14870000Y5240000D02*
X-15010000Y5880000D01*
X-14420000Y5600000D02*
X-15010000Y5880000D01*
X-12680000Y4370000D02*
G75*
G03X-12680000Y4370000I-1234706J0D01*
G01*
D12*
X-50020000Y14370000D02*
X-50020000Y17030000D01*
X-1700000Y14370000D02*
X-50020000Y14370000D01*
X-1700000Y17030000D02*
X-50020000Y17030000D01*
X-1700000Y14370000D02*
X-1700000Y17030000D01*
X-430000Y14370000D02*
X900000Y14370000D01*
X900000Y14370000D02*
X900000Y15700000D01*
X-50020000Y-1130000D02*
X-50020000Y1530000D01*
X-1700000Y-1130000D02*
X-50020000Y-1130000D01*
X-1700000Y1530000D02*
X-50020000Y1530000D01*
X-1700000Y-1130000D02*
X-1700000Y1530000D01*
X-430000Y-1130000D02*
X900000Y-1130000D01*
X900000Y-1130000D02*
X900000Y200000D01*
X-47670000Y13610000D02*
X-48670000Y13610000D01*
X-48670000Y12250000D02*
X-47670000Y12250000D01*
X-42810000Y9720000D02*
X-42810000Y10720000D01*
X-44170000Y10720000D02*
X-44170000Y9720000D01*
X-41000000Y9720000D02*
X-41000000Y10720000D01*
X-42360000Y10720000D02*
X-42360000Y9720000D01*
X-38700000Y11580000D02*
X-36900000Y11580000D01*
X-36900000Y8360000D02*
X-39350000Y8360000D01*
X-37420000Y13550000D02*
X-38420000Y13550000D01*
X-38420000Y12190000D02*
X-37420000Y12190000D01*
X-31130000Y9610000D02*
X-31130000Y10610000D01*
X-32490000Y10610000D02*
X-32490000Y9610000D01*
X-25780000Y9750000D02*
X-25780000Y10450000D01*
X-26980000Y10450000D02*
X-26980000Y9750000D01*
X-27660000Y9720000D02*
X-27660000Y10420000D01*
X-28860000Y10420000D02*
X-28860000Y9720000D01*
X-24090000Y9740000D02*
X-24090000Y10440000D01*
X-25290000Y10440000D02*
X-25290000Y9740000D01*
X-29390000Y9740000D02*
X-29390000Y10440000D01*
X-30590000Y10440000D02*
X-30590000Y9740000D01*
X-22210000Y9730000D02*
X-22210000Y10430000D01*
X-23410000Y10430000D02*
X-23410000Y9730000D01*
X-21180000Y10540000D02*
X-21180000Y9540000D01*
X-19820000Y9540000D02*
X-19820000Y10540000D01*
X-17310000Y10430000D02*
X-17310000Y9730000D01*
X-16110000Y9730000D02*
X-16110000Y10430000D01*
X-15580000Y10430000D02*
X-15580000Y9730000D01*
X-14380000Y9730000D02*
X-14380000Y10430000D01*
X-13800000Y10430000D02*
X-13800000Y9730000D01*
X-12600000Y9730000D02*
X-12600000Y10430000D01*
X-11970000Y10430000D02*
X-11970000Y9730000D01*
X-10770000Y9730000D02*
X-10770000Y10430000D01*
X-8740000Y9540000D02*
X-8740000Y10540000D01*
X-10100000Y10540000D02*
X-10100000Y9540000D01*
X-7610000Y5110000D02*
X-7610000Y4410000D01*
X-6410000Y4410000D02*
X-6410000Y5110000D01*
X-8610000Y4290000D02*
X-8610000Y5290000D01*
X-9970000Y5290000D02*
X-9970000Y4290000D01*
X-19890000Y4380000D02*
X-19890000Y5380000D01*
X-21250000Y5380000D02*
X-21250000Y4380000D01*
X-23160000Y5250000D02*
X-23160000Y4550000D01*
X-21960000Y4550000D02*
X-21960000Y5250000D01*
X-24900000Y5260000D02*
X-24900000Y4560000D01*
X-23700000Y4560000D02*
X-23700000Y5260000D01*
X-28380000Y6560000D02*
X-26580000Y6560000D01*
X-26580000Y3340000D02*
X-29030000Y3340000D01*
X-29910000Y4530000D02*
X-29910000Y5230000D01*
X-31110000Y5230000D02*
X-31110000Y4530000D01*
X-31760000Y4530000D02*
X-31760000Y5230000D01*
X-32960000Y5230000D02*
X-32960000Y4530000D01*
X-33530000Y4420000D02*
X-33530000Y5420000D01*
X-34890000Y5420000D02*
X-34890000Y4420000D01*
X-34220000Y12250000D02*
X-33520000Y12250000D01*
X-33520000Y13450000D02*
X-34220000Y13450000D01*
X-44500000Y13510000D02*
X-45200000Y13510000D01*
X-45200000Y12310000D02*
X-44500000Y12310000D01*
X-5500000Y5170000D02*
X-5500000Y4470000D01*
X-4300000Y4470000D02*
X-4300000Y5170000D01*
X-16650000Y5250000D02*
X-16650000Y4550000D01*
X-15450000Y4550000D02*
X-15450000Y5250000D01*
X-18780000Y6520000D02*
X-18080000Y6520000D01*
X-18080000Y7720000D02*
X-18780000Y7720000D01*
D11*
X-46418095Y11563333D02*
X-46799048Y11830000D01*
X-46418095Y12020476D02*
X-47218095Y12020476D01*
X-47218095Y11715714D01*
X-47180000Y11639523D01*
X-47141905Y11601428D01*
X-47065714Y11563333D01*
X-46951429Y11563333D01*
X-46875238Y11601428D01*
X-46837143Y11639523D01*
X-46799048Y11715714D01*
X-46799048Y12020476D01*
X-46418095Y11182381D02*
X-46418095Y11030000D01*
X-46456190Y10953809D01*
X-46494286Y10915714D01*
X-46608571Y10839523D01*
X-46760952Y10801428D01*
X-47065714Y10801428D01*
X-47141905Y10839523D01*
X-47180000Y10877619D01*
X-47218095Y10953809D01*
X-47218095Y11106190D01*
X-47180000Y11182381D01*
X-47141905Y11220476D01*
X-47065714Y11258571D01*
X-46875238Y11258571D01*
X-46799048Y11220476D01*
X-46760952Y11182381D01*
X-46722857Y11106190D01*
X-46722857Y10953809D01*
X-46760952Y10877619D01*
X-46799048Y10839523D01*
X-46875238Y10801428D01*
X-43248095Y8323333D02*
X-43629048Y8590000D01*
X-43248095Y8780476D02*
X-44048095Y8780476D01*
X-44048095Y8475714D01*
X-44010000Y8399523D01*
X-43971905Y8361428D01*
X-43895714Y8323333D01*
X-43781429Y8323333D01*
X-43705238Y8361428D01*
X-43667143Y8399523D01*
X-43629048Y8475714D01*
X-43629048Y8780476D01*
X-44048095Y8056666D02*
X-44048095Y7561428D01*
X-43743333Y7828095D01*
X-43743333Y7713809D01*
X-43705238Y7637619D01*
X-43667143Y7599523D01*
X-43590952Y7561428D01*
X-43400476Y7561428D01*
X-43324286Y7599523D01*
X-43286190Y7637619D01*
X-43248095Y7713809D01*
X-43248095Y7942381D01*
X-43286190Y8018571D01*
X-43324286Y8056666D01*
X-41348095Y8273333D02*
X-41729048Y8540000D01*
X-41348095Y8730476D02*
X-42148095Y8730476D01*
X-42148095Y8425714D01*
X-42110000Y8349523D01*
X-42071905Y8311428D01*
X-41995714Y8273333D01*
X-41881429Y8273333D01*
X-41805238Y8311428D01*
X-41767143Y8349523D01*
X-41729048Y8425714D01*
X-41729048Y8730476D01*
X-41881429Y7587619D02*
X-41348095Y7587619D01*
X-42186190Y7778095D02*
X-41614762Y7968571D01*
X-41614762Y7473333D01*
X-34430476Y11208095D02*
X-34430476Y10560476D01*
X-34468571Y10484286D01*
X-34506667Y10446190D01*
X-34582857Y10408095D01*
X-34735238Y10408095D01*
X-34811429Y10446190D01*
X-34849524Y10484286D01*
X-34887619Y10560476D01*
X-34887619Y11208095D01*
X-35192381Y11208095D02*
X-35687619Y11208095D01*
X-35420952Y10903333D01*
X-35535238Y10903333D01*
X-35611428Y10865238D01*
X-35649524Y10827143D01*
X-35687619Y10750952D01*
X-35687619Y10560476D01*
X-35649524Y10484286D01*
X-35611428Y10446190D01*
X-35535238Y10408095D01*
X-35306666Y10408095D01*
X-35230476Y10446190D01*
X-35192381Y10484286D01*
X-39568095Y13484286D02*
X-39949048Y13750953D01*
X-39568095Y13941429D02*
X-40368095Y13941429D01*
X-40368095Y13636667D01*
X-40330000Y13560476D01*
X-40291905Y13522381D01*
X-40215714Y13484286D01*
X-40101429Y13484286D01*
X-40025238Y13522381D01*
X-39987143Y13560476D01*
X-39949048Y13636667D01*
X-39949048Y13941429D01*
X-39568095Y12722381D02*
X-39568095Y13179524D01*
X-39568095Y12950953D02*
X-40368095Y12950953D01*
X-40253810Y13027143D01*
X-40177619Y13103334D01*
X-40139524Y13179524D01*
X-40368095Y12227143D02*
X-40368095Y12150952D01*
X-40330000Y12074762D01*
X-40291905Y12036667D01*
X-40215714Y11998571D01*
X-40063333Y11960476D01*
X-39872857Y11960476D01*
X-39720476Y11998571D01*
X-39644286Y12036667D01*
X-39606190Y12074762D01*
X-39568095Y12150952D01*
X-39568095Y12227143D01*
X-39606190Y12303333D01*
X-39644286Y12341429D01*
X-39720476Y12379524D01*
X-39872857Y12417619D01*
X-40063333Y12417619D01*
X-40215714Y12379524D01*
X-40291905Y12341429D01*
X-40330000Y12303333D01*
X-40368095Y12227143D01*
X-31418095Y12443333D02*
X-31799048Y12710000D01*
X-31418095Y12900476D02*
X-32218095Y12900476D01*
X-32218095Y12595714D01*
X-32180000Y12519523D01*
X-32141905Y12481428D01*
X-32065714Y12443333D01*
X-31951429Y12443333D01*
X-31875238Y12481428D01*
X-31837143Y12519523D01*
X-31799048Y12595714D01*
X-31799048Y12900476D01*
X-31418095Y11681428D02*
X-31418095Y12138571D01*
X-31418095Y11910000D02*
X-32218095Y11910000D01*
X-32103810Y11986190D01*
X-32027619Y12062381D01*
X-31989524Y12138571D01*
X-26054286Y13294286D02*
X-26016190Y13332381D01*
X-25978095Y13446667D01*
X-25978095Y13522857D01*
X-26016190Y13637143D01*
X-26092381Y13713334D01*
X-26168571Y13751429D01*
X-26320952Y13789524D01*
X-26435238Y13789524D01*
X-26587619Y13751429D01*
X-26663810Y13713334D01*
X-26740000Y13637143D01*
X-26778095Y13522857D01*
X-26778095Y13446667D01*
X-26740000Y13332381D01*
X-26701905Y13294286D01*
X-25978095Y12532381D02*
X-25978095Y12989524D01*
X-25978095Y12760953D02*
X-26778095Y12760953D01*
X-26663810Y12837143D01*
X-26587619Y12913334D01*
X-26549524Y12989524D01*
X-26701905Y12227619D02*
X-26740000Y12189524D01*
X-26778095Y12113333D01*
X-26778095Y11922857D01*
X-26740000Y11846667D01*
X-26701905Y11808571D01*
X-26625714Y11770476D01*
X-26549524Y11770476D01*
X-26435238Y11808571D01*
X-25978095Y12265714D01*
X-25978095Y11770476D01*
X-27864286Y13164286D02*
X-27826190Y13202381D01*
X-27788095Y13316667D01*
X-27788095Y13392857D01*
X-27826190Y13507143D01*
X-27902381Y13583334D01*
X-27978571Y13621429D01*
X-28130952Y13659524D01*
X-28245238Y13659524D01*
X-28397619Y13621429D01*
X-28473810Y13583334D01*
X-28550000Y13507143D01*
X-28588095Y13392857D01*
X-28588095Y13316667D01*
X-28550000Y13202381D01*
X-28511905Y13164286D01*
X-27788095Y12402381D02*
X-27788095Y12859524D01*
X-27788095Y12630953D02*
X-28588095Y12630953D01*
X-28473810Y12707143D01*
X-28397619Y12783334D01*
X-28359524Y12859524D01*
X-28588095Y12135714D02*
X-28588095Y11640476D01*
X-28283333Y11907143D01*
X-28283333Y11792857D01*
X-28245238Y11716667D01*
X-28207143Y11678571D01*
X-28130952Y11640476D01*
X-27940476Y11640476D01*
X-27864286Y11678571D01*
X-27826190Y11716667D01*
X-27788095Y11792857D01*
X-27788095Y12021429D01*
X-27826190Y12097619D01*
X-27864286Y12135714D01*
X-24354286Y13184286D02*
X-24316190Y13222381D01*
X-24278095Y13336667D01*
X-24278095Y13412857D01*
X-24316190Y13527143D01*
X-24392381Y13603334D01*
X-24468571Y13641429D01*
X-24620952Y13679524D01*
X-24735238Y13679524D01*
X-24887619Y13641429D01*
X-24963810Y13603334D01*
X-25040000Y13527143D01*
X-25078095Y13412857D01*
X-25078095Y13336667D01*
X-25040000Y13222381D01*
X-25001905Y13184286D01*
X-24278095Y12422381D02*
X-24278095Y12879524D01*
X-24278095Y12650953D02*
X-25078095Y12650953D01*
X-24963810Y12727143D01*
X-24887619Y12803334D01*
X-24849524Y12879524D01*
X-25078095Y11927143D02*
X-25078095Y11850952D01*
X-25040000Y11774762D01*
X-25001905Y11736667D01*
X-24925714Y11698571D01*
X-24773333Y11660476D01*
X-24582857Y11660476D01*
X-24430476Y11698571D01*
X-24354286Y11736667D01*
X-24316190Y11774762D01*
X-24278095Y11850952D01*
X-24278095Y11927143D01*
X-24316190Y12003333D01*
X-24354286Y12041429D01*
X-24430476Y12079524D01*
X-24582857Y12117619D01*
X-24773333Y12117619D01*
X-24925714Y12079524D01*
X-25001905Y12041429D01*
X-25040000Y12003333D01*
X-25078095Y11927143D01*
X-29684286Y13134286D02*
X-29646190Y13172381D01*
X-29608095Y13286667D01*
X-29608095Y13362857D01*
X-29646190Y13477143D01*
X-29722381Y13553334D01*
X-29798571Y13591429D01*
X-29950952Y13629524D01*
X-30065238Y13629524D01*
X-30217619Y13591429D01*
X-30293810Y13553334D01*
X-30370000Y13477143D01*
X-30408095Y13362857D01*
X-30408095Y13286667D01*
X-30370000Y13172381D01*
X-30331905Y13134286D01*
X-29608095Y12372381D02*
X-29608095Y12829524D01*
X-29608095Y12600953D02*
X-30408095Y12600953D01*
X-30293810Y12677143D01*
X-30217619Y12753334D01*
X-30179524Y12829524D01*
X-29608095Y11610476D02*
X-29608095Y12067619D01*
X-29608095Y11839048D02*
X-30408095Y11839048D01*
X-30293810Y11915238D01*
X-30217619Y11991429D01*
X-30179524Y12067619D01*
X-22324286Y12473333D02*
X-22286190Y12511428D01*
X-22248095Y12625714D01*
X-22248095Y12701904D01*
X-22286190Y12816190D01*
X-22362381Y12892381D01*
X-22438571Y12930476D01*
X-22590952Y12968571D01*
X-22705238Y12968571D01*
X-22857619Y12930476D01*
X-22933810Y12892381D01*
X-23010000Y12816190D01*
X-23048095Y12701904D01*
X-23048095Y12625714D01*
X-23010000Y12511428D01*
X-22971905Y12473333D01*
X-23048095Y12206666D02*
X-23048095Y11711428D01*
X-22743333Y11978095D01*
X-22743333Y11863809D01*
X-22705238Y11787619D01*
X-22667143Y11749523D01*
X-22590952Y11711428D01*
X-22400476Y11711428D01*
X-22324286Y11749523D01*
X-22286190Y11787619D01*
X-22248095Y11863809D01*
X-22248095Y12092381D01*
X-22286190Y12168571D01*
X-22324286Y12206666D01*
X-20108095Y12423333D02*
X-20489048Y12690000D01*
X-20108095Y12880476D02*
X-20908095Y12880476D01*
X-20908095Y12575714D01*
X-20870000Y12499523D01*
X-20831905Y12461428D01*
X-20755714Y12423333D01*
X-20641429Y12423333D01*
X-20565238Y12461428D01*
X-20527143Y12499523D01*
X-20489048Y12575714D01*
X-20489048Y12880476D01*
X-20831905Y12118571D02*
X-20870000Y12080476D01*
X-20908095Y12004285D01*
X-20908095Y11813809D01*
X-20870000Y11737619D01*
X-20831905Y11699523D01*
X-20755714Y11661428D01*
X-20679524Y11661428D01*
X-20565238Y11699523D01*
X-20108095Y12156666D01*
X-20108095Y11661428D01*
X-16394286Y12623333D02*
X-16356190Y12661428D01*
X-16318095Y12775714D01*
X-16318095Y12851904D01*
X-16356190Y12966190D01*
X-16432381Y13042381D01*
X-16508571Y13080476D01*
X-16660952Y13118571D01*
X-16775238Y13118571D01*
X-16927619Y13080476D01*
X-17003810Y13042381D01*
X-17080000Y12966190D01*
X-17118095Y12851904D01*
X-17118095Y12775714D01*
X-17080000Y12661428D01*
X-17041905Y12623333D01*
X-16318095Y12242381D02*
X-16318095Y12090000D01*
X-16356190Y12013809D01*
X-16394286Y11975714D01*
X-16508571Y11899523D01*
X-16660952Y11861428D01*
X-16965714Y11861428D01*
X-17041905Y11899523D01*
X-17080000Y11937619D01*
X-17118095Y12013809D01*
X-17118095Y12166190D01*
X-17080000Y12242381D01*
X-17041905Y12280476D01*
X-16965714Y12318571D01*
X-16775238Y12318571D01*
X-16699048Y12280476D01*
X-16660952Y12242381D01*
X-16622857Y12166190D01*
X-16622857Y12013809D01*
X-16660952Y11937619D01*
X-16699048Y11899523D01*
X-16775238Y11861428D01*
X-14654286Y12613333D02*
X-14616190Y12651428D01*
X-14578095Y12765714D01*
X-14578095Y12841904D01*
X-14616190Y12956190D01*
X-14692381Y13032381D01*
X-14768571Y13070476D01*
X-14920952Y13108571D01*
X-15035238Y13108571D01*
X-15187619Y13070476D01*
X-15263810Y13032381D01*
X-15340000Y12956190D01*
X-15378095Y12841904D01*
X-15378095Y12765714D01*
X-15340000Y12651428D01*
X-15301905Y12613333D01*
X-15035238Y12156190D02*
X-15073333Y12232381D01*
X-15111429Y12270476D01*
X-15187619Y12308571D01*
X-15225714Y12308571D01*
X-15301905Y12270476D01*
X-15340000Y12232381D01*
X-15378095Y12156190D01*
X-15378095Y12003809D01*
X-15340000Y11927619D01*
X-15301905Y11889523D01*
X-15225714Y11851428D01*
X-15187619Y11851428D01*
X-15111429Y11889523D01*
X-15073333Y11927619D01*
X-15035238Y12003809D01*
X-15035238Y12156190D01*
X-14997143Y12232381D01*
X-14959048Y12270476D01*
X-14882857Y12308571D01*
X-14730476Y12308571D01*
X-14654286Y12270476D01*
X-14616190Y12232381D01*
X-14578095Y12156190D01*
X-14578095Y12003809D01*
X-14616190Y11927619D01*
X-14654286Y11889523D01*
X-14730476Y11851428D01*
X-14882857Y11851428D01*
X-14959048Y11889523D01*
X-14997143Y11927619D01*
X-15035238Y12003809D01*
X-12884286Y12623333D02*
X-12846190Y12661428D01*
X-12808095Y12775714D01*
X-12808095Y12851904D01*
X-12846190Y12966190D01*
X-12922381Y13042381D01*
X-12998571Y13080476D01*
X-13150952Y13118571D01*
X-13265238Y13118571D01*
X-13417619Y13080476D01*
X-13493810Y13042381D01*
X-13570000Y12966190D01*
X-13608095Y12851904D01*
X-13608095Y12775714D01*
X-13570000Y12661428D01*
X-13531905Y12623333D01*
X-13608095Y12356666D02*
X-13608095Y11823333D01*
X-12808095Y12166190D01*
X-11054286Y12633333D02*
X-11016190Y12671428D01*
X-10978095Y12785714D01*
X-10978095Y12861904D01*
X-11016190Y12976190D01*
X-11092381Y13052381D01*
X-11168571Y13090476D01*
X-11320952Y13128571D01*
X-11435238Y13128571D01*
X-11587619Y13090476D01*
X-11663810Y13052381D01*
X-11740000Y12976190D01*
X-11778095Y12861904D01*
X-11778095Y12785714D01*
X-11740000Y12671428D01*
X-11701905Y12633333D01*
X-11778095Y11947619D02*
X-11778095Y12100000D01*
X-11740000Y12176190D01*
X-11701905Y12214285D01*
X-11587619Y12290476D01*
X-11435238Y12328571D01*
X-11130476Y12328571D01*
X-11054286Y12290476D01*
X-11016190Y12252381D01*
X-10978095Y12176190D01*
X-10978095Y12023809D01*
X-11016190Y11947619D01*
X-11054286Y11909523D01*
X-11130476Y11871428D01*
X-11320952Y11871428D01*
X-11397143Y11909523D01*
X-11435238Y11947619D01*
X-11473333Y12023809D01*
X-11473333Y12176190D01*
X-11435238Y12252381D01*
X-11397143Y12290476D01*
X-11320952Y12328571D01*
X-9058095Y12543333D02*
X-9439048Y12810000D01*
X-9058095Y13000476D02*
X-9858095Y13000476D01*
X-9858095Y12695714D01*
X-9820000Y12619523D01*
X-9781905Y12581428D01*
X-9705714Y12543333D01*
X-9591429Y12543333D01*
X-9515238Y12581428D01*
X-9477143Y12619523D01*
X-9439048Y12695714D01*
X-9439048Y13000476D01*
X-9858095Y11819523D02*
X-9858095Y12200476D01*
X-9477143Y12238571D01*
X-9515238Y12200476D01*
X-9553333Y12124285D01*
X-9553333Y11933809D01*
X-9515238Y11857619D01*
X-9477143Y11819523D01*
X-9400952Y11781428D01*
X-9210476Y11781428D01*
X-9134286Y11819523D01*
X-9096190Y11857619D01*
X-9058095Y11933809D01*
X-9058095Y12124285D01*
X-9096190Y12200476D01*
X-9134286Y12238571D01*
D13*
X-6752143Y7752143D02*
X-6716429Y7787857D01*
X-6680714Y7895000D01*
X-6680714Y7966429D01*
X-6716429Y8073572D01*
X-6787857Y8145000D01*
X-6859286Y8180715D01*
X-7002143Y8216429D01*
X-7109286Y8216429D01*
X-7252143Y8180715D01*
X-7323571Y8145000D01*
X-7395000Y8073572D01*
X-7430714Y7966429D01*
X-7430714Y7895000D01*
X-7395000Y7787857D01*
X-7359286Y7752143D01*
X-6680714Y7037857D02*
X-6680714Y7466429D01*
X-6680714Y7252143D02*
X-7430714Y7252143D01*
X-7323571Y7323572D01*
X-7252143Y7395000D01*
X-7216429Y7466429D01*
X-7180714Y6395000D02*
X-6680714Y6395000D01*
X-7466429Y6573571D02*
X-6930714Y6752143D01*
X-6930714Y6287857D01*
D11*
X-8938095Y7103333D02*
X-9319048Y7370000D01*
X-8938095Y7560476D02*
X-9738095Y7560476D01*
X-9738095Y7255714D01*
X-9700000Y7179523D01*
X-9661905Y7141428D01*
X-9585714Y7103333D01*
X-9471429Y7103333D01*
X-9395238Y7141428D01*
X-9357143Y7179523D01*
X-9319048Y7255714D01*
X-9319048Y7560476D01*
X-9738095Y6417619D02*
X-9738095Y6570000D01*
X-9700000Y6646190D01*
X-9661905Y6684285D01*
X-9547619Y6760476D01*
X-9395238Y6798571D01*
X-9090476Y6798571D01*
X-9014286Y6760476D01*
X-8976190Y6722381D01*
X-8938095Y6646190D01*
X-8938095Y6493809D01*
X-8976190Y6417619D01*
X-9014286Y6379523D01*
X-9090476Y6341428D01*
X-9280952Y6341428D01*
X-9357143Y6379523D01*
X-9395238Y6417619D01*
X-9433333Y6493809D01*
X-9433333Y6646190D01*
X-9395238Y6722381D01*
X-9357143Y6760476D01*
X-9280952Y6798571D01*
X-20138095Y7173333D02*
X-20519048Y7440000D01*
X-20138095Y7630476D02*
X-20938095Y7630476D01*
X-20938095Y7325714D01*
X-20900000Y7249523D01*
X-20861905Y7211428D01*
X-20785714Y7173333D01*
X-20671429Y7173333D01*
X-20595238Y7211428D01*
X-20557143Y7249523D01*
X-20519048Y7325714D01*
X-20519048Y7630476D01*
X-20938095Y6906666D02*
X-20938095Y6373333D01*
X-20138095Y6716190D01*
X-22234286Y7243333D02*
X-22196190Y7281428D01*
X-22158095Y7395714D01*
X-22158095Y7471904D01*
X-22196190Y7586190D01*
X-22272381Y7662381D01*
X-22348571Y7700476D01*
X-22500952Y7738571D01*
X-22615238Y7738571D01*
X-22767619Y7700476D01*
X-22843810Y7662381D01*
X-22920000Y7586190D01*
X-22958095Y7471904D01*
X-22958095Y7395714D01*
X-22920000Y7281428D01*
X-22881905Y7243333D01*
X-22691429Y6557619D02*
X-22158095Y6557619D01*
X-22996190Y6748095D02*
X-22424762Y6938571D01*
X-22424762Y6443333D01*
X-23964286Y7223333D02*
X-23926190Y7261428D01*
X-23888095Y7375714D01*
X-23888095Y7451904D01*
X-23926190Y7566190D01*
X-24002381Y7642381D01*
X-24078571Y7680476D01*
X-24230952Y7718571D01*
X-24345238Y7718571D01*
X-24497619Y7680476D01*
X-24573810Y7642381D01*
X-24650000Y7566190D01*
X-24688095Y7451904D01*
X-24688095Y7375714D01*
X-24650000Y7261428D01*
X-24611905Y7223333D01*
X-24688095Y6499523D02*
X-24688095Y6880476D01*
X-24307143Y6918571D01*
X-24345238Y6880476D01*
X-24383333Y6804285D01*
X-24383333Y6613809D01*
X-24345238Y6537619D01*
X-24307143Y6499523D01*
X-24230952Y6461428D01*
X-24040476Y6461428D01*
X-23964286Y6499523D01*
X-23926190Y6537619D01*
X-23888095Y6613809D01*
X-23888095Y6804285D01*
X-23926190Y6880476D01*
X-23964286Y6918571D01*
X-26960476Y7768095D02*
X-26960476Y7120476D01*
X-26998571Y7044286D01*
X-27036667Y7006190D01*
X-27112857Y6968095D01*
X-27265238Y6968095D01*
X-27341429Y7006190D01*
X-27379524Y7044286D01*
X-27417619Y7120476D01*
X-27417619Y7768095D01*
X-28217619Y6968095D02*
X-27760476Y6968095D01*
X-27989047Y6968095D02*
X-27989047Y7768095D01*
X-27912857Y7653810D01*
X-27836666Y7577619D01*
X-27760476Y7539524D01*
X-30164286Y7263333D02*
X-30126190Y7301428D01*
X-30088095Y7415714D01*
X-30088095Y7491904D01*
X-30126190Y7606190D01*
X-30202381Y7682381D01*
X-30278571Y7720476D01*
X-30430952Y7758571D01*
X-30545238Y7758571D01*
X-30697619Y7720476D01*
X-30773810Y7682381D01*
X-30850000Y7606190D01*
X-30888095Y7491904D01*
X-30888095Y7415714D01*
X-30850000Y7301428D01*
X-30811905Y7263333D01*
X-30088095Y6501428D02*
X-30088095Y6958571D01*
X-30088095Y6730000D02*
X-30888095Y6730000D01*
X-30773810Y6806190D01*
X-30697619Y6882381D01*
X-30659524Y6958571D01*
X-32034286Y7233333D02*
X-31996190Y7271428D01*
X-31958095Y7385714D01*
X-31958095Y7461904D01*
X-31996190Y7576190D01*
X-32072381Y7652381D01*
X-32148571Y7690476D01*
X-32300952Y7728571D01*
X-32415238Y7728571D01*
X-32567619Y7690476D01*
X-32643810Y7652381D01*
X-32720000Y7576190D01*
X-32758095Y7461904D01*
X-32758095Y7385714D01*
X-32720000Y7271428D01*
X-32681905Y7233333D01*
X-32681905Y6928571D02*
X-32720000Y6890476D01*
X-32758095Y6814285D01*
X-32758095Y6623809D01*
X-32720000Y6547619D01*
X-32681905Y6509523D01*
X-32605714Y6471428D01*
X-32529524Y6471428D01*
X-32415238Y6509523D01*
X-31958095Y6966666D01*
X-31958095Y6471428D01*
X-33818095Y7213333D02*
X-34199048Y7480000D01*
X-33818095Y7670476D02*
X-34618095Y7670476D01*
X-34618095Y7365714D01*
X-34580000Y7289523D01*
X-34541905Y7251428D01*
X-34465714Y7213333D01*
X-34351429Y7213333D01*
X-34275238Y7251428D01*
X-34237143Y7289523D01*
X-34199048Y7365714D01*
X-34199048Y7670476D01*
X-34275238Y6756190D02*
X-34313333Y6832381D01*
X-34351429Y6870476D01*
X-34427619Y6908571D01*
X-34465714Y6908571D01*
X-34541905Y6870476D01*
X-34580000Y6832381D01*
X-34618095Y6756190D01*
X-34618095Y6603809D01*
X-34580000Y6527619D01*
X-34541905Y6489523D01*
X-34465714Y6451428D01*
X-34427619Y6451428D01*
X-34351429Y6489523D01*
X-34313333Y6527619D01*
X-34275238Y6603809D01*
X-34275238Y6756190D01*
X-34237143Y6832381D01*
X-34199048Y6870476D01*
X-34122857Y6908571D01*
X-33970476Y6908571D01*
X-33894286Y6870476D01*
X-33856190Y6832381D01*
X-33818095Y6756190D01*
X-33818095Y6603809D01*
X-33856190Y6527619D01*
X-33894286Y6489523D01*
X-33970476Y6451428D01*
X-34122857Y6451428D01*
X-34199048Y6489523D01*
X-34237143Y6527619D01*
X-34275238Y6603809D01*
X-33355714Y14064286D02*
X-33317619Y14026190D01*
X-33203333Y13988095D01*
X-33127143Y13988095D01*
X-33012857Y14026190D01*
X-32936666Y14102381D01*
X-32898571Y14178571D01*
X-32860476Y14330952D01*
X-32860476Y14445238D01*
X-32898571Y14597619D01*
X-32936666Y14673810D01*
X-33012857Y14750000D01*
X-33127143Y14788095D01*
X-33203333Y14788095D01*
X-33317619Y14750000D01*
X-33355714Y14711905D01*
X-34117619Y13988095D02*
X-33660476Y13988095D01*
X-33889047Y13988095D02*
X-33889047Y14788095D01*
X-33812857Y14673810D01*
X-33736666Y14597619D01*
X-33660476Y14559524D01*
X-34841429Y14788095D02*
X-34460476Y14788095D01*
X-34422381Y14407143D01*
X-34460476Y14445238D01*
X-34536667Y14483333D01*
X-34727143Y14483333D01*
X-34803333Y14445238D01*
X-34841429Y14407143D01*
X-34879524Y14330952D01*
X-34879524Y14140476D01*
X-34841429Y14064286D01*
X-34803333Y14026190D01*
X-34727143Y13988095D01*
X-34536667Y13988095D01*
X-34460476Y14026190D01*
X-34422381Y14064286D01*
X-41605714Y12554286D02*
X-41567619Y12516190D01*
X-41453333Y12478095D01*
X-41377143Y12478095D01*
X-41262857Y12516190D01*
X-41186666Y12592381D01*
X-41148571Y12668571D01*
X-41110476Y12820952D01*
X-41110476Y12935238D01*
X-41148571Y13087619D01*
X-41186666Y13163810D01*
X-41262857Y13240000D01*
X-41377143Y13278095D01*
X-41453333Y13278095D01*
X-41567619Y13240000D01*
X-41605714Y13201905D01*
X-42367619Y12478095D02*
X-41910476Y12478095D01*
X-42139047Y12478095D02*
X-42139047Y13278095D01*
X-42062857Y13163810D01*
X-41986666Y13087619D01*
X-41910476Y13049524D01*
X-43053333Y13278095D02*
X-42900952Y13278095D01*
X-42824762Y13240000D01*
X-42786667Y13201905D01*
X-42710476Y13087619D01*
X-42672381Y12935238D01*
X-42672381Y12630476D01*
X-42710476Y12554286D01*
X-42748571Y12516190D01*
X-42824762Y12478095D01*
X-42977143Y12478095D01*
X-43053333Y12516190D01*
X-43091429Y12554286D01*
X-43129524Y12630476D01*
X-43129524Y12820952D01*
X-43091429Y12897143D01*
X-43053333Y12935238D01*
X-42977143Y12973333D01*
X-42824762Y12973333D01*
X-42748571Y12935238D01*
X-42710476Y12897143D01*
X-42672381Y12820952D01*
D14*
X-3042857Y5462857D02*
X-2995238Y5510476D01*
X-2947619Y5653333D01*
X-2947619Y5748571D01*
X-2995238Y5891429D01*
X-3090476Y5986667D01*
X-3185714Y6034286D01*
X-3376190Y6081905D01*
X-3519048Y6081905D01*
X-3709524Y6034286D01*
X-3804762Y5986667D01*
X-3900000Y5891429D01*
X-3947619Y5748571D01*
X-3947619Y5653333D01*
X-3900000Y5510476D01*
X-3852381Y5462857D01*
X-2947619Y4510476D02*
X-2947619Y5081905D01*
X-2947619Y4796191D02*
X-3947619Y4796191D01*
X-3804762Y4891429D01*
X-3709524Y4986667D01*
X-3661905Y5081905D01*
X-3947619Y4177143D02*
X-3947619Y3510476D01*
X-2947619Y3939048D01*
X-14192857Y5542857D02*
X-14145238Y5590476D01*
X-14097619Y5733333D01*
X-14097619Y5828571D01*
X-14145238Y5971429D01*
X-14240476Y6066667D01*
X-14335714Y6114286D01*
X-14526190Y6161905D01*
X-14669048Y6161905D01*
X-14859524Y6114286D01*
X-14954762Y6066667D01*
X-15050000Y5971429D01*
X-15097619Y5828571D01*
X-15097619Y5733333D01*
X-15050000Y5590476D01*
X-15002381Y5542857D01*
X-14097619Y4590476D02*
X-14097619Y5161905D01*
X-14097619Y4876191D02*
X-15097619Y4876191D01*
X-14954762Y4971429D01*
X-14859524Y5066667D01*
X-14811905Y5161905D01*
X-14669048Y4019048D02*
X-14716667Y4114286D01*
X-14764286Y4161905D01*
X-14859524Y4209524D01*
X-14907143Y4209524D01*
X-15002381Y4161905D01*
X-15050000Y4114286D01*
X-15097619Y4019048D01*
X-15097619Y3828571D01*
X-15050000Y3733333D01*
X-15002381Y3685714D01*
X-14907143Y3638095D01*
X-14859524Y3638095D01*
X-14764286Y3685714D01*
X-14716667Y3733333D01*
X-14669048Y3828571D01*
X-14669048Y4019048D01*
X-14621429Y4114286D01*
X-14573810Y4161905D01*
X-14478571Y4209524D01*
X-14288095Y4209524D01*
X-14192857Y4161905D01*
X-14145238Y4114286D01*
X-14097619Y4019048D01*
X-14097619Y3828571D01*
X-14145238Y3733333D01*
X-14192857Y3685714D01*
X-14288095Y3638095D01*
X-14478571Y3638095D01*
X-14573810Y3685714D01*
X-14621429Y3733333D01*
X-14669048Y3828571D01*
X-17787143Y8262857D02*
X-17739524Y8215238D01*
X-17596667Y8167619D01*
X-17501429Y8167619D01*
X-17358571Y8215238D01*
X-17263333Y8310476D01*
X-17215714Y8405714D01*
X-17168095Y8596190D01*
X-17168095Y8739048D01*
X-17215714Y8929524D01*
X-17263333Y9024762D01*
X-17358571Y9120000D01*
X-17501429Y9167619D01*
X-17596667Y9167619D01*
X-17739524Y9120000D01*
X-17787143Y9072381D01*
X-18739524Y8167619D02*
X-18168095Y8167619D01*
X-18453809Y8167619D02*
X-18453809Y9167619D01*
X-18358571Y9024762D01*
X-18263333Y8929524D01*
X-18168095Y8881905D01*
X-19215714Y8167619D02*
X-19406190Y8167619D01*
X-19501429Y8215238D01*
X-19549048Y8262857D01*
X-19644286Y8405714D01*
X-19691905Y8596190D01*
X-19691905Y8977143D01*
X-19644286Y9072381D01*
X-19596667Y9120000D01*
X-19501429Y9167619D01*
X-19310952Y9167619D01*
X-19215714Y9120000D01*
X-19168095Y9072381D01*
X-19120476Y8977143D01*
X-19120476Y8739048D01*
X-19168095Y8643810D01*
X-19215714Y8596190D01*
X-19310952Y8548571D01*
X-19501429Y8548571D01*
X-19596667Y8596190D01*
X-19644286Y8643810D01*
X-19691905Y8739048D01*
M02*
