%TF.GenerationSoftware,KiCad,Pcbnew,4.0.7*%
%TF.CreationDate,2017-11-06T20:43:19+08:00*%
%TF.ProjectId,STM32F401CCT6,53544D333246343031434354362E6B69,rev?*%
%TF.FileFunction,Other,User*%
%FSLAX46Y46*%
G04 Gerber Fmt 4.6, Leading zero omitted, Abs format (unit mm)*
G04 Created by KiCad (PCBNEW 4.0.7) date 11/06/17 20:43:19*
%MOMM*%
%LPD*%
G01*
G04 APERTURE LIST*
%ADD10C,0.100000*%
%ADD11C,0.050000*%
G04 APERTURE END LIST*
D10*
D11*
X-34672000Y8102000D02*
X-43322000Y8102000D01*
X-43322000Y8102000D02*
X-43322000Y1952000D01*
X-43322000Y1952000D02*
X-34672000Y1952000D01*
X-34672000Y1952000D02*
X-34672000Y8102000D01*
X-50870000Y11980000D02*
X-50870000Y3180000D01*
X-44770000Y3180000D02*
X-50870000Y3180000D01*
X-44770000Y11980000D02*
X-44770000Y3180000D01*
X-50870000Y11980000D02*
X-44770000Y11980000D01*
X-43230000Y14020000D02*
X-34730000Y14020000D01*
X-34730000Y14020000D02*
X-34730000Y8020000D01*
X-34730000Y8020000D02*
X-43230000Y8020000D01*
X-43230000Y8020000D02*
X-43230000Y14020000D01*
X-4610000Y14700000D02*
X-4610000Y950000D01*
X-4610000Y950000D02*
X7740000Y950000D01*
X7740000Y950000D02*
X7740000Y14700000D01*
X7740000Y14700000D02*
X-4610000Y14700000D01*
X-7840000Y12910000D02*
X-6140000Y12910000D01*
X-6140000Y12910000D02*
X-6140000Y9010000D01*
X-6140000Y9010000D02*
X-7840000Y9010000D01*
X-7840000Y9010000D02*
X-7840000Y12910000D01*
X-7840000Y7070000D02*
X-6140000Y7070000D01*
X-6140000Y7070000D02*
X-6140000Y3170000D01*
X-6140000Y3170000D02*
X-7840000Y3170000D01*
X-7840000Y3170000D02*
X-7840000Y7070000D01*
X-21240000Y1560000D02*
X-15640000Y1560000D01*
X-15640000Y1560000D02*
X-15640000Y13660000D01*
X-15640000Y13660000D02*
X-21240000Y13660000D01*
X-21240000Y13660000D02*
X-21240000Y1560000D01*
X-14960000Y3040000D02*
X-9360000Y3040000D01*
X-9360000Y3040000D02*
X-9360000Y11640000D01*
X-9360000Y11640000D02*
X-14960000Y11640000D01*
X-14960000Y11640000D02*
X-14960000Y3040000D01*
X-23181000Y-14265001D02*
X-25981000Y-14265001D01*
X-23181000Y-14265001D02*
X-23181000Y-12965001D01*
X-25981000Y-12965001D02*
X-25981000Y-14265001D01*
X-25981000Y-12965001D02*
X-23181000Y-12965001D01*
X-23181000Y-14265001D02*
X-25981000Y-14265001D01*
X-23181000Y-14265001D02*
X-23181000Y-12965001D01*
X-25981000Y-12965001D02*
X-25981000Y-14265001D01*
X-25981000Y-12965001D02*
X-23181000Y-12965001D01*
X-23181000Y-14265001D02*
X-25981000Y-14265001D01*
X-23181000Y-14265001D02*
X-23181000Y-12965001D01*
X-25981000Y-12965001D02*
X-25981000Y-14265001D01*
X-25981000Y-12965001D02*
X-23181000Y-12965001D01*
X-23181000Y-14265001D02*
X-25981000Y-14265001D01*
X-23181000Y-14265001D02*
X-23181000Y-12965001D01*
X-25981000Y-12965001D02*
X-25981000Y-14265001D01*
X-25981000Y-12965001D02*
X-23181000Y-12965001D01*
X-23181000Y-14265001D02*
X-25981000Y-14265001D01*
X-23181000Y-14265001D02*
X-23181000Y-12965001D01*
X-25981000Y-12965001D02*
X-25981000Y-14265001D01*
X-25981000Y-12965001D02*
X-23181000Y-12965001D01*
X-22631000Y-12765001D02*
X-22631000Y-14465001D01*
X-22631000Y-14465001D02*
X-26531000Y-14465001D01*
X-26531000Y-14465001D02*
X-26531000Y-12765001D01*
X-26531000Y-12765001D02*
X-22631000Y-12765001D01*
X-22631000Y-12765001D02*
X-22631000Y-14465001D01*
X-22631000Y-14465001D02*
X-26531000Y-14465001D01*
X-26531000Y-14465001D02*
X-26531000Y-12765001D01*
X-26531000Y-12765001D02*
X-22631000Y-12765001D01*
M02*
