%TF.GenerationSoftware,KiCad,Pcbnew,4.0.7*%
%TF.CreationDate,2017-11-06T20:43:19+08:00*%
%TF.ProjectId,STM32F401CCT6,53544D333246343031434354362E6B69,rev?*%
%TF.FileFunction,Copper,L1,Top,Signal*%
%FSLAX46Y46*%
G04 Gerber Fmt 4.6, Leading zero omitted, Abs format (unit mm)*
G04 Created by KiCad (PCBNEW 4.0.7) date 11/06/17 20:43:19*
%MOMM*%
%LPD*%
G01*
G04 APERTURE LIST*
%ADD10C,0.100000*%
%ADD11C,0.150000*%
%ADD12R,1.700000X1.700000*%
%ADD13O,1.700000X1.700000*%
%ADD14R,1.900000X1.500000*%
%ADD15C,1.450000*%
%ADD16R,1.350000X0.400000*%
%ADD17O,1.900000X1.200000*%
%ADD18R,1.900000X1.200000*%
%ADD19R,1.700000X1.000000*%
%ADD20R,1.200000X1.200000*%
%ADD21C,1.500000*%
%ADD22R,1.900000X1.300000*%
%ADD23R,0.800000X0.750000*%
%ADD24C,0.450000*%
%ADD25C,0.250000*%
%ADD26C,0.254000*%
G04 APERTURE END LIST*
D10*
D11*
X-22268564Y8450330D02*
G75*
G03X-22268564Y8450330I-72801J0D01*
G01*
D12*
X-430000Y15700000D03*
D13*
X-2970000Y15700000D03*
X-5510000Y15700000D03*
X-8050000Y15700000D03*
X-10590000Y15700000D03*
X-13130000Y15700000D03*
X-15670000Y15700000D03*
X-18210000Y15700000D03*
X-20750000Y15700000D03*
X-23290000Y15700000D03*
X-25830000Y15700000D03*
X-28370000Y15700000D03*
X-30910000Y15700000D03*
X-33450000Y15700000D03*
X-35990000Y15700000D03*
X-38530000Y15700000D03*
X-41070000Y15700000D03*
X-43610000Y15700000D03*
X-46150000Y15700000D03*
X-48690000Y15700000D03*
D12*
X-430000Y200000D03*
D13*
X-2970000Y200000D03*
X-5510000Y200000D03*
X-8050000Y200000D03*
X-10590000Y200000D03*
X-13130000Y200000D03*
X-15670000Y200000D03*
X-18210000Y200000D03*
X-20750000Y200000D03*
X-23290000Y200000D03*
X-25830000Y200000D03*
X-28370000Y200000D03*
X-30910000Y200000D03*
X-33450000Y200000D03*
X-35990000Y200000D03*
X-38530000Y200000D03*
X-41070000Y200000D03*
X-43610000Y200000D03*
X-46150000Y200000D03*
X-48690000Y200000D03*
D12*
X-36472000Y6302000D03*
D13*
X-36472000Y3762000D03*
X-39012000Y6302000D03*
X-39012000Y3762000D03*
X-41552000Y6302000D03*
X-41552000Y3762000D03*
D14*
X-48470000Y6580000D03*
D15*
X-45770000Y10080000D03*
D16*
X-45770000Y8230000D03*
X-45770000Y8880000D03*
X-45770000Y6280000D03*
X-45770000Y6930000D03*
X-45770000Y7580000D03*
D15*
X-45770000Y5080000D03*
D14*
X-48470000Y8580000D03*
D17*
X-48470000Y11080000D03*
X-48470000Y4080000D03*
D18*
X-48470000Y4680000D03*
X-48470000Y10480000D03*
D19*
X-42130000Y12920000D03*
X-35830000Y12920000D03*
X-42130000Y9120000D03*
X-35830000Y9120000D03*
D12*
X-2810000Y12900000D03*
D13*
X-2810000Y10360000D03*
X-2810000Y7820000D03*
X-2810000Y5280000D03*
X-2810000Y2740000D03*
D20*
X-6990000Y12060000D03*
X-6990000Y9860000D03*
X-6990000Y6220000D03*
X-6990000Y4020000D03*
D21*
X-18440000Y5160000D03*
X-18440000Y10040000D03*
D22*
X-10560000Y4590000D03*
X-10560000Y10090000D03*
X-13760000Y10090000D03*
X-13760000Y4590000D03*
D23*
X-23831000Y-13615001D03*
X-25331000Y-13615001D03*
X-23831000Y-13615001D03*
X-25331000Y-13615001D03*
X-23831000Y-13615001D03*
X-25331000Y-13615001D03*
X-23831000Y-13615001D03*
X-25331000Y-13615001D03*
X-23831000Y-13615001D03*
X-25331000Y-13615001D03*
D20*
X-23481000Y-13615001D03*
X-25681000Y-13615001D03*
X-23481000Y-13615001D03*
X-25681000Y-13615001D03*
D10*
G36*
X-23239390Y7778578D02*
X-22001954Y6541142D01*
X-22214086Y6329010D01*
X-23451522Y7566446D01*
X-23239390Y7778578D01*
X-23239390Y7778578D01*
G37*
G36*
X-23592943Y7425025D02*
X-22355507Y6187589D01*
X-22567639Y5975457D01*
X-23805075Y7212893D01*
X-23592943Y7425025D01*
X-23592943Y7425025D01*
G37*
G36*
X-23946497Y7071471D02*
X-22709061Y5834035D01*
X-22921193Y5621903D01*
X-24158629Y6859339D01*
X-23946497Y7071471D01*
X-23946497Y7071471D01*
G37*
G36*
X-24300050Y6717918D02*
X-23062614Y5480482D01*
X-23274746Y5268350D01*
X-24512182Y6505786D01*
X-24300050Y6717918D01*
X-24300050Y6717918D01*
G37*
G36*
X-24653603Y6364365D02*
X-23416167Y5126929D01*
X-23628299Y4914797D01*
X-24865735Y6152233D01*
X-24653603Y6364365D01*
X-24653603Y6364365D01*
G37*
G36*
X-23981853Y4561243D02*
X-25219289Y5798679D01*
X-25007157Y6010811D01*
X-23769721Y4773375D01*
X-23981853Y4561243D01*
X-23981853Y4561243D01*
G37*
G36*
X-25360710Y5657258D02*
X-24123274Y4419822D01*
X-24335406Y4207690D01*
X-25572842Y5445126D01*
X-25360710Y5657258D01*
X-25360710Y5657258D01*
G37*
G36*
X-25714264Y5303704D02*
X-24476828Y4066268D01*
X-24688960Y3854136D01*
X-25926396Y5091572D01*
X-25714264Y5303704D01*
X-25714264Y5303704D01*
G37*
G36*
X-26067817Y4950151D02*
X-24830381Y3712715D01*
X-25042513Y3500583D01*
X-26279949Y4738019D01*
X-26067817Y4950151D01*
X-26067817Y4950151D01*
G37*
G36*
X-26421370Y4596598D02*
X-25183934Y3359162D01*
X-25396066Y3147030D01*
X-26633502Y4384466D01*
X-26421370Y4596598D01*
X-26421370Y4596598D01*
G37*
G36*
X-26774924Y4243044D02*
X-25537488Y3005608D01*
X-25749620Y2793476D01*
X-26987056Y4030912D01*
X-26774924Y4243044D01*
X-26774924Y4243044D01*
G37*
G36*
X-27128477Y3889491D02*
X-25891041Y2652055D01*
X-26103173Y2439923D01*
X-27340609Y3677359D01*
X-27128477Y3889491D01*
X-27128477Y3889491D01*
G37*
G36*
X-25572842Y10394874D02*
X-24335406Y11632310D01*
X-24123274Y11420178D01*
X-25360710Y10182742D01*
X-25572842Y10394874D01*
X-25572842Y10394874D01*
G37*
G36*
X-25219289Y10041321D02*
X-23981853Y11278757D01*
X-23769721Y11066625D01*
X-25007157Y9829189D01*
X-25219289Y10041321D01*
X-25219289Y10041321D01*
G37*
G36*
X-24865735Y9687767D02*
X-23628299Y10925203D01*
X-23416167Y10713071D01*
X-24653603Y9475635D01*
X-24865735Y9687767D01*
X-24865735Y9687767D01*
G37*
G36*
X-24512182Y9334214D02*
X-23274746Y10571650D01*
X-23062614Y10359518D01*
X-24300050Y9122082D01*
X-24512182Y9334214D01*
X-24512182Y9334214D01*
G37*
G36*
X-24158629Y8980661D02*
X-22921193Y10218097D01*
X-22709061Y10005965D01*
X-23946497Y8768529D01*
X-24158629Y8980661D01*
X-24158629Y8980661D01*
G37*
G36*
X-23805075Y8627107D02*
X-22567639Y9864543D01*
X-22355507Y9652411D01*
X-23592943Y8414975D01*
X-23805075Y8627107D01*
X-23805075Y8627107D01*
G37*
G36*
X-25926396Y10748428D02*
X-24688960Y11985864D01*
X-24476828Y11773732D01*
X-25714264Y10536296D01*
X-25926396Y10748428D01*
X-25926396Y10748428D01*
G37*
G36*
X-23451522Y8273554D02*
X-22214086Y9510990D01*
X-22001954Y9298858D01*
X-23239390Y8061422D01*
X-23451522Y8273554D01*
X-23451522Y8273554D01*
G37*
G36*
X-26279949Y11101981D02*
X-25042513Y12339417D01*
X-24830381Y12127285D01*
X-26067817Y10889849D01*
X-26279949Y11101981D01*
X-26279949Y11101981D01*
G37*
G36*
X-26633502Y11455534D02*
X-25396066Y12692970D01*
X-25183934Y12480838D01*
X-26421370Y11243402D01*
X-26633502Y11455534D01*
X-26633502Y11455534D01*
G37*
G36*
X-26987056Y11809088D02*
X-25749620Y13046524D01*
X-25537488Y12834392D01*
X-26774924Y11596956D01*
X-26987056Y11809088D01*
X-26987056Y11809088D01*
G37*
G36*
X-27340609Y12162641D02*
X-26103173Y13400077D01*
X-25891041Y13187945D01*
X-27128477Y11950509D01*
X-27340609Y12162641D01*
X-27340609Y12162641D01*
G37*
G36*
X-30982209Y11278757D02*
X-29744773Y10041321D01*
X-29956905Y9829189D01*
X-31194341Y11066625D01*
X-30982209Y11278757D01*
X-30982209Y11278757D01*
G37*
G36*
X-30628656Y11632310D02*
X-29391220Y10394874D01*
X-29603352Y10182742D01*
X-30840788Y11420178D01*
X-30628656Y11632310D01*
X-30628656Y11632310D01*
G37*
G36*
X-30275102Y11985864D02*
X-29037666Y10748428D01*
X-29249798Y10536296D01*
X-30487234Y11773732D01*
X-30275102Y11985864D01*
X-30275102Y11985864D01*
G37*
G36*
X-29921549Y12339417D02*
X-28684113Y11101981D01*
X-28896245Y10889849D01*
X-30133681Y12127285D01*
X-29921549Y12339417D01*
X-29921549Y12339417D01*
G37*
G36*
X-29567996Y12692970D02*
X-28330560Y11455534D01*
X-28542692Y11243402D01*
X-29780128Y12480838D01*
X-29567996Y12692970D01*
X-29567996Y12692970D01*
G37*
G36*
X-29214442Y13046524D02*
X-27977006Y11809088D01*
X-28189138Y11596956D01*
X-29426574Y12834392D01*
X-29214442Y13046524D01*
X-29214442Y13046524D01*
G37*
G36*
X-28860889Y13400077D02*
X-27623453Y12162641D01*
X-27835585Y11950509D01*
X-29073021Y13187945D01*
X-28860889Y13400077D01*
X-28860889Y13400077D01*
G37*
G36*
X-31335763Y10925203D02*
X-30098327Y9687767D01*
X-30310459Y9475635D01*
X-31547895Y10713071D01*
X-31335763Y10925203D01*
X-31335763Y10925203D01*
G37*
G36*
X-31689316Y10571650D02*
X-30451880Y9334214D01*
X-30664012Y9122082D01*
X-31901448Y10359518D01*
X-31689316Y10571650D01*
X-31689316Y10571650D01*
G37*
G36*
X-32042869Y10218097D02*
X-30805433Y8980661D01*
X-31017565Y8768529D01*
X-32255001Y10005965D01*
X-32042869Y10218097D01*
X-32042869Y10218097D01*
G37*
G36*
X-32396423Y9864543D02*
X-31158987Y8627107D01*
X-31371119Y8414975D01*
X-32608555Y9652411D01*
X-32396423Y9864543D01*
X-32396423Y9864543D01*
G37*
G36*
X-32749976Y9510990D02*
X-31512540Y8273554D01*
X-31724672Y8061422D01*
X-32962108Y9298858D01*
X-32749976Y9510990D01*
X-32749976Y9510990D01*
G37*
G36*
X-30840788Y4419822D02*
X-29603352Y5657258D01*
X-29391220Y5445126D01*
X-30628656Y4207690D01*
X-30840788Y4419822D01*
X-30840788Y4419822D01*
G37*
G36*
X-31194341Y4773375D02*
X-29956905Y6010811D01*
X-29744773Y5798679D01*
X-30982209Y4561243D01*
X-31194341Y4773375D01*
X-31194341Y4773375D01*
G37*
G36*
X-30487234Y4066268D02*
X-29249798Y5303704D01*
X-29037666Y5091572D01*
X-30275102Y3854136D01*
X-30487234Y4066268D01*
X-30487234Y4066268D01*
G37*
G36*
X-30133681Y3712715D02*
X-28896245Y4950151D01*
X-28684113Y4738019D01*
X-29921549Y3500583D01*
X-30133681Y3712715D01*
X-30133681Y3712715D01*
G37*
G36*
X-29780128Y3359162D02*
X-28542692Y4596598D01*
X-28330560Y4384466D01*
X-29567996Y3147030D01*
X-29780128Y3359162D01*
X-29780128Y3359162D01*
G37*
G36*
X-29426574Y3005608D02*
X-28189138Y4243044D01*
X-27977006Y4030912D01*
X-29214442Y2793476D01*
X-29426574Y3005608D01*
X-29426574Y3005608D01*
G37*
G36*
X-29073021Y2652055D02*
X-27835585Y3889491D01*
X-27623453Y3677359D01*
X-28860889Y2439923D01*
X-29073021Y2652055D01*
X-29073021Y2652055D01*
G37*
G36*
X-31547895Y5126929D02*
X-30310459Y6364365D01*
X-30098327Y6152233D01*
X-31335763Y4914797D01*
X-31547895Y5126929D01*
X-31547895Y5126929D01*
G37*
G36*
X-31901448Y5480482D02*
X-30664012Y6717918D01*
X-30451880Y6505786D01*
X-31689316Y5268350D01*
X-31901448Y5480482D01*
X-31901448Y5480482D01*
G37*
G36*
X-32255001Y5834035D02*
X-31017565Y7071471D01*
X-30805433Y6859339D01*
X-32042869Y5621903D01*
X-32255001Y5834035D01*
X-32255001Y5834035D01*
G37*
G36*
X-32608555Y6187589D02*
X-31371119Y7425025D01*
X-31158987Y7212893D01*
X-32396423Y5975457D01*
X-32608555Y6187589D01*
X-32608555Y6187589D01*
G37*
G36*
X-32962108Y6541142D02*
X-31724672Y7778578D01*
X-31512540Y7566446D01*
X-32749976Y6329010D01*
X-32962108Y6541142D01*
X-32962108Y6541142D01*
G37*
G36*
X-25290000Y9687767D02*
X-23522233Y7920000D01*
X-25290000Y6152233D01*
X-27057767Y7920000D01*
X-25290000Y9687767D01*
X-25290000Y9687767D01*
G37*
G36*
X-29674062Y9687767D02*
X-27906295Y7920000D01*
X-29674062Y6152233D01*
X-31441829Y7920000D01*
X-29674062Y9687767D01*
X-29674062Y9687767D01*
G37*
G36*
X-27482031Y7495736D02*
X-25714264Y5727969D01*
X-27482031Y3960202D01*
X-29249798Y5727969D01*
X-27482031Y7495736D01*
X-27482031Y7495736D01*
G37*
G36*
X-27482031Y11879798D02*
X-25714264Y10112031D01*
X-27482031Y8344264D01*
X-29249798Y10112031D01*
X-27482031Y11879798D01*
X-27482031Y11879798D01*
G37*
D24*
X-44540000Y8810000D03*
X-31980000Y-680000D03*
X-21287592Y7242400D03*
X-20280000Y8310000D03*
X-43980000Y6290000D03*
X-29560008Y2302013D03*
X-24087080Y12410438D03*
X-18430000Y11250000D03*
X-47520000Y13890000D03*
X-28080000Y2070000D03*
X-33182346Y10345741D03*
X-21565415Y5964585D03*
X-38135009Y10050000D03*
X-23409602Y12410570D03*
X-670000Y13080008D03*
X-640000Y14180000D03*
X-35070000Y10240000D03*
X-20660000Y4890000D03*
X-42380000Y-1230000D03*
X-24560875Y12920000D03*
X-21300000Y12979992D03*
X-26534596Y2070000D03*
X-37680000Y2880002D03*
X-1990000Y9060000D03*
X-10650000Y7450000D03*
X-13800000Y7060000D03*
X-21907328Y11636078D03*
X-21910679Y12286071D03*
X-8280000Y9310000D03*
X-8446637Y3169263D03*
X-33940000Y8495285D03*
X-32840008Y8457981D03*
X-4770000Y14220000D03*
X-27470000Y13210000D03*
X-28380000Y13850000D03*
X-29957893Y13257893D03*
X-5070000Y10810000D03*
X-25714536Y2074195D03*
X-26070000Y1530000D03*
X-13130000Y5950000D03*
X-30660000Y1980000D03*
X-34490000Y9030000D03*
X-31600000Y2430001D03*
X-33390000Y7040000D03*
X-40000000Y8730000D03*
X-40069998Y10280000D03*
X-20650000Y3250000D03*
X-33530000Y13150000D03*
X-43750000Y8240000D03*
X-46990000Y7480000D03*
X-43600000Y7550000D03*
D25*
X-45770000Y8880000D02*
X-44610000Y8880000D01*
X-44610000Y8880000D02*
X-44540000Y8810000D01*
X-45326000Y8860000D02*
X-45801000Y8860000D01*
X-5510000Y160000D02*
X-6820000Y-1150000D01*
X-6820000Y-1150000D02*
X-31510000Y-1150000D01*
X-31510000Y-1150000D02*
X-31755001Y-904999D01*
X-31755001Y-904999D02*
X-31980000Y-680000D01*
X-21287592Y7242400D02*
X-21287592Y6242408D01*
X-21287592Y6242408D02*
X-21565415Y5964585D01*
X-20280000Y8628198D02*
X-20280000Y8310000D01*
X-20280000Y9940000D02*
X-20280000Y8628198D01*
X-18970000Y11250000D02*
X-20280000Y9940000D01*
X-18430000Y11250000D02*
X-18970000Y11250000D01*
X-48690000Y15700000D02*
X-49864991Y14525009D01*
X-49864991Y14525009D02*
X-49864991Y-1375009D01*
X-45770000Y6280000D02*
X-43990000Y6280000D01*
X-43990000Y6280000D02*
X-43980000Y6290000D01*
X-2970000Y160000D02*
X40000Y3170000D01*
X-29560008Y2620211D02*
X-29560008Y2302013D01*
X-29560008Y2663011D02*
X-29560008Y2620211D01*
X-28704759Y3518260D02*
X-29560008Y2663011D01*
X-28080000Y2070000D02*
X-29327995Y2070000D01*
X-29335009Y2077014D02*
X-29560008Y2302013D01*
X-29327995Y2070000D02*
X-29335009Y2077014D01*
X-33240000Y10493019D02*
X-34026981Y11280000D01*
X-34026981Y11280000D02*
X-35666981Y12920000D01*
X-25204581Y11292937D02*
X-24312079Y12185439D01*
X-25204581Y11261080D02*
X-25204581Y11292937D01*
X-24312079Y12185439D02*
X-24087080Y12410438D01*
X-48690000Y15730000D02*
X-47520000Y14560000D01*
X-47520000Y14208198D02*
X-47520000Y13890000D01*
X-47520000Y14560000D02*
X-47520000Y14208198D01*
X-2970000Y-20000D02*
X-5080000Y2090000D01*
X-33240000Y10493019D02*
X-33240000Y10403395D01*
X-33240000Y10403395D02*
X-33182346Y10345741D01*
X-21881641Y5970000D02*
X-21570830Y5970000D01*
X-21570830Y5970000D02*
X-21565415Y5964585D01*
X-41005009Y12920000D02*
X-38360008Y10274999D01*
X-42130000Y12920000D02*
X-41005009Y12920000D01*
X-38360008Y10274999D02*
X-38135009Y10050000D01*
X-46150000Y15730000D02*
X-43340000Y12920000D01*
X-43340000Y12920000D02*
X-42130000Y12920000D01*
X-22290000Y5970000D02*
X-21881641Y5970000D01*
X-21881641Y5970000D02*
X-21870000Y5958359D01*
X-22330000Y5970000D02*
X-23060224Y6700224D01*
X-23060224Y6700224D02*
X-23083260Y6700224D01*
X-23083260Y6700224D02*
X-23083268Y6700232D01*
X-31886740Y9139759D02*
X-33240000Y10493019D01*
X-42900000Y12920000D02*
X-42130000Y12920000D01*
X-35666981Y12920000D02*
X-35760000Y12920000D01*
X-35760000Y12920000D02*
X-35830000Y12920000D01*
X-670000Y13080008D02*
X-670000Y7420000D01*
X-670000Y7420000D02*
X-2810000Y5280000D01*
X-23409602Y12310098D02*
X-23409602Y12410570D01*
X-24842893Y10912159D02*
X-24830734Y10900000D01*
X-24819700Y10900000D02*
X-23409602Y12310098D01*
X-24830734Y10900000D02*
X-24819700Y10900000D01*
X-24842893Y10912159D02*
X-24842893Y10947107D01*
X-24842893Y10912159D02*
X-24807541Y10912159D01*
X-1180000Y14180000D02*
X-958198Y14180000D01*
X-2330000Y16990000D02*
X-1720000Y16380000D01*
X-39110000Y16990000D02*
X-2330000Y16990000D01*
X-958198Y14180000D02*
X-640000Y14180000D01*
X-1720000Y14720000D02*
X-1180000Y14180000D01*
X-1720000Y16380000D02*
X-1720000Y14720000D01*
X-41070000Y15730000D02*
X-39810000Y16990000D01*
X-39810000Y16990000D02*
X-39140000Y16990000D01*
X-41070000Y14527919D02*
X-41070000Y15730000D01*
X-35830000Y9287919D02*
X-41070000Y14527919D01*
X-35830000Y9120000D02*
X-35830000Y9287919D01*
X-40632000Y15732000D02*
X-40642000Y15732000D01*
X-20660000Y5208198D02*
X-20660000Y4890000D01*
X-21987608Y7792392D02*
X-21023595Y7792392D01*
X-22721573Y7058427D02*
X-21987608Y7792392D01*
X-20660000Y7428797D02*
X-20660000Y5208198D01*
X-21023595Y7792392D02*
X-20660000Y7428797D01*
X-42380000Y-911802D02*
X-42380000Y-1230000D01*
X-40528603Y2445001D02*
X-42380000Y593604D01*
X-42380000Y593604D02*
X-42380000Y-911802D01*
X-37680000Y2880002D02*
X-38115001Y2445001D01*
X-38115001Y2445001D02*
X-40528603Y2445001D01*
X-34751802Y10240000D02*
X-35070000Y10240000D01*
X-33710267Y9480267D02*
X-34470000Y10240000D01*
X-32921587Y9480267D02*
X-33710267Y9480267D01*
X-32232159Y8790839D02*
X-32921587Y9480267D01*
X-34470000Y10240000D02*
X-34751802Y10240000D01*
X-6990000Y12060000D02*
X-6990000Y11770000D01*
X-6990000Y11770000D02*
X-4280000Y9060000D01*
X-4280000Y9060000D02*
X-2272842Y9060000D01*
X-2272842Y9060000D02*
X-1990000Y9060000D01*
X-2810000Y2740000D02*
X-2810000Y2890000D01*
X-2810000Y2890000D02*
X-6140000Y6220000D01*
X-6140000Y6220000D02*
X-6990000Y6220000D01*
X-21300000Y12979992D02*
X-24500883Y12979992D01*
X-24500883Y12979992D02*
X-24550000Y12930875D01*
X-24550000Y12930875D02*
X-24560875Y12920000D01*
X-24630000Y12920000D02*
X-24560875Y12920000D01*
X-24630000Y12539266D02*
X-24630000Y12920000D01*
X-25550000Y11619266D02*
X-24630000Y12539266D01*
X-27633936Y3169340D02*
X-26759595Y2294999D01*
X-26759595Y2294999D02*
X-26534596Y2070000D01*
X-28343072Y3169340D02*
X-27633936Y3169340D01*
X-6990000Y6220000D02*
X-7140000Y6370000D01*
X-22530119Y10400008D02*
X-21729183Y10400008D01*
X-10660006Y12699994D02*
X-10360000Y13000000D01*
X-19429197Y12699994D02*
X-10660006Y12699994D01*
X-23436814Y9493313D02*
X-22530119Y10400008D01*
X-21729183Y10400008D02*
X-19429197Y12699994D01*
X-10560000Y4590000D02*
X-10560000Y7360000D01*
X-10560000Y7360000D02*
X-10650000Y7450000D01*
X-10360000Y13000000D02*
X-9060000Y14300000D01*
X-6940000Y14300000D02*
X-6810000Y14430000D01*
X-9060000Y14300000D02*
X-6940000Y14300000D01*
X-6810000Y14430000D02*
X-5510000Y15730000D01*
X-10570000Y4760000D02*
X-10870000Y4760000D01*
X-10360000Y13000000D02*
X-10477509Y12882491D01*
X-23790367Y9846866D02*
X-22787224Y10850009D01*
X-22787224Y10850009D02*
X-21915579Y10850009D01*
X-10890005Y13149995D02*
X-8340000Y15700000D01*
X-21915579Y10850009D02*
X-19615593Y13149995D01*
X-19615593Y13149995D02*
X-10890005Y13149995D01*
X-8340000Y15700000D02*
X-8050000Y15700000D01*
X-7610000Y15730000D02*
X-7612000Y15732000D01*
X-13760000Y7020000D02*
X-13800000Y7060000D01*
X-13760000Y4590000D02*
X-13760000Y7020000D01*
X-22708261Y11636078D02*
X-22225526Y11636078D01*
X-22225526Y11636078D02*
X-21907328Y11636078D01*
X-24143920Y10200419D02*
X-22708261Y11636078D01*
X-24489340Y10558606D02*
X-24437946Y10610000D01*
X-24437946Y10610000D02*
X-24402592Y10610000D01*
X-23755164Y11254836D02*
X-22723929Y12286071D01*
X-24402592Y10610000D02*
X-23757756Y11254836D01*
X-23757756Y11254836D02*
X-23755164Y11254836D01*
X-22723929Y12286071D02*
X-22228877Y12286071D01*
X-22228877Y12286071D02*
X-21910679Y12286071D01*
X-8280000Y9420000D02*
X-8280000Y9310000D01*
X-7840000Y9860000D02*
X-8280000Y9420000D01*
X-6990000Y9860000D02*
X-7840000Y9860000D01*
X-7840000Y4020000D02*
X-8446637Y3413363D01*
X-8446637Y3413363D02*
X-8446637Y3169263D01*
X-6990000Y4020000D02*
X-7840000Y4020000D01*
X-32877312Y8495285D02*
X-32840008Y8457981D01*
X-33940000Y8495285D02*
X-32877312Y8495285D01*
X-10080008Y11799992D02*
X-8515009Y13364991D01*
X-406003Y13630008D02*
X70000Y14106011D01*
X70000Y14106011D02*
X70000Y15230000D01*
X70000Y15230000D02*
X-430000Y15730000D01*
X-1846397Y14210000D02*
X-1266405Y13630008D01*
X-4808020Y13364991D02*
X-3963011Y14210000D01*
X-22070191Y8786206D02*
X-19056405Y11799992D01*
X-22729707Y8786206D02*
X-22070191Y8786206D01*
X-19056405Y11799992D02*
X-10080008Y11799992D01*
X-1266405Y13630008D02*
X-406003Y13630008D01*
X-8515009Y13364991D02*
X-4808020Y13364991D01*
X-3963011Y14210000D02*
X-1846397Y14210000D01*
X-4770000Y14220000D02*
X-3290000Y15700000D01*
X-3290000Y15700000D02*
X-2970000Y15700000D01*
X-8873600Y13849990D02*
X-5180010Y13849990D01*
X-5180010Y13849990D02*
X-4785006Y14244994D01*
X-21542787Y9950007D02*
X-19242801Y12249993D01*
X-22273012Y9950007D02*
X-21542787Y9950007D01*
X-10473597Y12249993D02*
X-8873600Y13849990D01*
X-23083260Y9139759D02*
X-22273012Y9950007D01*
X-19242801Y12249993D02*
X-10473597Y12249993D01*
X-4770000Y14229988D02*
X-4770000Y14220000D01*
X-4785006Y14244994D02*
X-4770000Y14229988D01*
X-25110875Y12768998D02*
X-25110875Y13309125D01*
X-24820004Y13599996D02*
X-12284004Y13599996D01*
X-12284004Y13599996D02*
X-10152000Y15732000D01*
X-25110875Y13309125D02*
X-24820004Y13599996D01*
X-25911687Y11968186D02*
X-25110875Y12768998D01*
X-26265241Y12321740D02*
X-25560876Y13026105D01*
X-14770003Y14059997D02*
X-13130000Y15700000D01*
X-25560876Y13026105D02*
X-25560876Y13649124D01*
X-25560876Y13649124D02*
X-25160003Y14049997D01*
X-25160003Y14049997D02*
X-14770003Y14049997D01*
X-14770003Y14049997D02*
X-14770003Y14059997D01*
X-16900002Y14499998D02*
X-15670000Y15730000D01*
X-25890002Y14499998D02*
X-16900002Y14499998D01*
X-26618794Y12675293D02*
X-26618794Y13771206D01*
X-26618794Y13771206D02*
X-25890002Y14499998D01*
X-28004707Y12675293D02*
X-27694999Y12985001D01*
X-27694999Y12985001D02*
X-27470000Y13210000D01*
X-28351206Y12675293D02*
X-28004707Y12675293D01*
X-28698198Y13850000D02*
X-28380000Y13850000D01*
X-29010000Y13850000D02*
X-28698198Y13850000D01*
X-29392856Y13467144D02*
X-29010000Y13850000D01*
X-29392856Y13009837D02*
X-29392856Y13467144D01*
X-28704759Y12321740D02*
X-29392856Y13009837D01*
X-29957893Y12939695D02*
X-29957893Y13257893D01*
X-29957893Y12867766D02*
X-29957893Y12939695D01*
X-29058313Y11968186D02*
X-29957893Y12867766D01*
X-30569991Y13423613D02*
X-30569991Y12772758D01*
X-27160000Y14400000D02*
X-29593604Y14400000D01*
X-30569991Y12772758D02*
X-29411866Y11614633D01*
X-29593604Y14400000D02*
X-30569991Y13423613D01*
X-25830000Y15730000D02*
X-27160000Y14400000D01*
X-31019992Y13610008D02*
X-28900000Y15730000D01*
X-29765419Y11261080D02*
X-31019992Y12515653D01*
X-31019992Y12515653D02*
X-31019992Y13610008D01*
X-28900000Y15730000D02*
X-28370000Y15730000D01*
X-28328000Y15732000D02*
X-27932000Y15732000D01*
X-30472000Y15732000D02*
X-30801715Y15732000D01*
X-30801715Y15732000D02*
X-31580000Y14953715D01*
X-31580000Y14953715D02*
X-31580000Y12368553D01*
X-31580000Y12368553D02*
X-30808401Y11596954D01*
X-30808401Y11596954D02*
X-30118973Y10907526D01*
X-33450000Y15700000D02*
X-32530000Y14780000D01*
X-32530000Y14780000D02*
X-32530000Y12611447D01*
X-32530000Y12611447D02*
X-30472526Y10553973D01*
X-35990000Y15730000D02*
X-34079991Y13819991D01*
X-34079991Y12747224D02*
X-31179633Y9846866D01*
X-34079991Y13819991D02*
X-34079991Y12747224D01*
X-4845001Y10585001D02*
X-5070000Y10810000D01*
X-4620000Y10360000D02*
X-4845001Y10585001D01*
X-2810000Y10360000D02*
X-4620000Y10360000D01*
X-25939535Y2299194D02*
X-25714536Y2074195D01*
X-26618794Y2978453D02*
X-25939535Y2299194D01*
X-26618794Y3164707D02*
X-26618794Y2978453D01*
X-29058313Y3871814D02*
X-30110008Y2820119D01*
X-29563604Y1520000D02*
X-26080000Y1520000D01*
X-26080000Y1520000D02*
X-26070000Y1530000D01*
X-30110008Y2820119D02*
X-30110008Y2066404D01*
X-30110008Y2066404D02*
X-29563604Y1520000D01*
X-2810000Y7820000D02*
X-2990000Y8000000D01*
X-2990000Y8000000D02*
X-11080000Y8000000D01*
X-11080000Y8000000D02*
X-12905001Y6174999D01*
X-12905001Y6174999D02*
X-13130000Y5950000D01*
X-23436814Y6346687D02*
X-21390127Y4300000D01*
X-21390127Y4300000D02*
X-19940000Y4300000D01*
X-19940000Y4300000D02*
X-19140000Y3500000D01*
X-19140000Y3500000D02*
X-11350000Y3500000D01*
X-11350000Y3500000D02*
X-8050000Y200000D01*
X-23790367Y5993134D02*
X-21632225Y3834992D01*
X-21632225Y3834992D02*
X-20111389Y3834992D01*
X-20111389Y3834992D02*
X-19326396Y3049999D01*
X-19326396Y3049999D02*
X-13439999Y3049999D01*
X-13439999Y3049999D02*
X-10590000Y200000D01*
X-24497474Y5286027D02*
X-21811445Y2599998D01*
X-21811445Y2599998D02*
X-15529998Y2599998D01*
X-15529998Y2599998D02*
X-13130000Y200000D01*
X-24851027Y4932474D02*
X-22068550Y2149997D01*
X-22068550Y2149997D02*
X-17619997Y2149997D01*
X-17619997Y2149997D02*
X-15670000Y200000D01*
X-25204581Y4578920D02*
X-22325657Y1699996D01*
X-22325657Y1699996D02*
X-19709996Y1699996D01*
X-19709996Y1699996D02*
X-18210000Y200000D01*
X-20750000Y200000D02*
X-21520000Y200000D01*
X-21520000Y200000D02*
X-24860572Y3540572D01*
X-24860572Y3540572D02*
X-25550000Y4230000D01*
X-25911687Y3871814D02*
X-23290000Y1250127D01*
X-23290000Y1250127D02*
X-23290000Y-20000D01*
X-25830000Y-20000D02*
X-25010000Y800000D01*
X-25010000Y800000D02*
X-25010000Y2253590D01*
X-25010000Y2253590D02*
X-25180000Y2423590D01*
X-25180000Y2423590D02*
X-26265241Y3508831D01*
X-30660000Y1980000D02*
X-28840000Y160000D01*
X-28840000Y160000D02*
X-28370000Y160000D01*
X-28370000Y-20000D02*
X-28660000Y-20000D01*
X-29411866Y4225367D02*
X-30660000Y2977233D01*
X-30660000Y2298198D02*
X-30660000Y1980000D01*
X-30660000Y2977233D02*
X-30660000Y2298198D01*
X-31600000Y2430001D02*
X-31600000Y870000D01*
X-31600000Y870000D02*
X-30930000Y200000D01*
X-30930000Y200000D02*
X-30910000Y200000D01*
X-34490000Y8711802D02*
X-34490000Y9030000D01*
X-33390000Y7040000D02*
X-34490000Y8140000D01*
X-34490000Y8140000D02*
X-34490000Y8711802D01*
X-29765419Y4578920D02*
X-31600000Y2744339D01*
X-31600000Y2744339D02*
X-31600000Y2650000D01*
X-31600000Y2650000D02*
X-31600000Y2430001D01*
X-30118973Y4932474D02*
X-33450000Y1601447D01*
X-33450000Y1601447D02*
X-33450000Y-20000D01*
X-35990000Y200000D02*
X-35555052Y200000D01*
X-35555052Y200000D02*
X-31153820Y4601232D01*
X-31153820Y4601232D02*
X-30464392Y5290660D01*
X-35990000Y-20000D02*
X-35775052Y-20000D01*
X-35552000Y-16000D02*
X-35550000Y-14000D01*
X-35550000Y-14000D02*
X-35550000Y208553D01*
X-31161954Y4596599D02*
X-30472526Y5286027D01*
X-31710000Y4720321D02*
X-34890343Y1539978D01*
X-34890343Y1539978D02*
X-37150022Y1539978D01*
X-37150022Y1539978D02*
X-38530000Y160000D01*
X-31980331Y4449990D02*
X-31710000Y4720321D01*
X-31710000Y4720321D02*
X-30826080Y5604241D01*
X-38092000Y-16000D02*
X-38080000Y-4000D01*
X-30826080Y5604241D02*
X-30826080Y5639581D01*
X-41070000Y200000D02*
X-39280011Y1989989D01*
X-39280011Y1989989D02*
X-35196246Y1989989D01*
X-35196246Y1989989D02*
X-32066235Y5120000D01*
X-32066235Y5120000D02*
X-32052767Y5120000D01*
X-32272767Y4900000D02*
X-32052767Y5120000D01*
X-32052767Y5120000D02*
X-31869061Y5303706D01*
X-31869061Y5303706D02*
X-31179633Y5993134D01*
X-43410000Y200000D02*
X-43470000Y200000D01*
X-31533186Y6346687D02*
X-32887873Y4992000D01*
X-32887873Y4992000D02*
X-39628000Y4992000D01*
X-39628000Y4992000D02*
X-40300000Y4320000D01*
X-40300000Y4320000D02*
X-40300000Y3305385D01*
X-40300000Y3305385D02*
X-40304615Y3305385D01*
X-40304615Y3305385D02*
X-43410000Y200000D01*
X-43470000Y200000D02*
X-43610000Y200000D01*
X-43610000Y-4615D02*
X-43610000Y-20000D01*
X-42050000Y7610000D02*
X-42980008Y6679992D01*
X-42980008Y6679992D02*
X-42980008Y3369992D01*
X-32706981Y5880000D02*
X-33720000Y5880000D01*
X-45300001Y1049999D02*
X-46150000Y200000D01*
X-31886740Y6700241D02*
X-32706981Y5880000D01*
X-33720000Y5880000D02*
X-35450000Y7610000D01*
X-42980008Y3369992D02*
X-45300001Y1049999D01*
X-35450000Y7610000D02*
X-42050000Y7610000D01*
X-32929721Y6364366D02*
X-32240293Y7053794D01*
X-33567956Y6364366D02*
X-32929721Y6364366D01*
X-42236386Y8060011D02*
X-35263600Y8060011D01*
X-43430009Y6866388D02*
X-42236386Y8060011D01*
X-43430009Y5459991D02*
X-43430009Y6866388D01*
X-48690000Y200000D02*
X-43430009Y5459991D01*
X-35263600Y8060011D02*
X-33567956Y6364366D01*
X-40069998Y8799998D02*
X-40000000Y8730000D01*
X-40069998Y10280000D02*
X-40069998Y8799998D01*
X-20968198Y3250000D02*
X-20650000Y3250000D01*
X-21754339Y3250000D02*
X-20968198Y3250000D01*
X-24143920Y5639581D02*
X-21754339Y3250000D01*
X-30826080Y10200419D02*
X-33530000Y12904339D01*
X-33530000Y12904339D02*
X-33530000Y13060000D01*
X-33530000Y13060000D02*
X-33530000Y13150000D01*
X-43750000Y8240000D02*
X-45760000Y8240000D01*
X-45760000Y8240000D02*
X-45770000Y8230000D01*
X-43780000Y8210000D02*
X-43750000Y8240000D01*
X-45326000Y6910000D02*
X-46520000Y6910000D01*
X-46520000Y6910000D02*
X-46990000Y7380000D01*
X-46990000Y7380000D02*
X-46990000Y7480000D01*
X-43600000Y7550000D02*
X-45740000Y7550000D01*
X-45740000Y7550000D02*
X-45770000Y7580000D01*
X-43610000Y7560000D02*
X-43600000Y7550000D01*
X-36980000Y14180000D02*
X-37680001Y14880001D01*
X-32699873Y10660000D02*
X-34529992Y12490119D01*
X-34529992Y13629992D02*
X-35080000Y14180000D01*
X-35080000Y14180000D02*
X-36980000Y14180000D01*
X-37680001Y14880001D02*
X-38530000Y15730000D01*
X-34529992Y12490119D02*
X-34529992Y13629992D01*
X-32699873Y10660000D02*
X-32222614Y10182741D01*
X-32924874Y10885001D02*
X-32699873Y10660000D01*
X-32222614Y10182741D02*
X-31533186Y9493313D01*
D26*
G36*
X-2843000Y327000D02*
X-2823000Y327000D01*
X-2823000Y73000D01*
X-2843000Y73000D01*
X-2843000Y-1120155D01*
X-2613110Y-1241476D01*
X-2203076Y-1071645D01*
X-1900063Y-795499D01*
X-1883162Y-885317D01*
X-1744090Y-1101441D01*
X-1531890Y-1246431D01*
X-1280000Y-1297440D01*
X420000Y-1297440D01*
X655317Y-1253162D01*
X708000Y-1219261D01*
X708000Y-2978000D01*
X-49872000Y-2978000D01*
X-49872000Y-681675D01*
X-49740054Y-879147D01*
X-49258285Y-1201054D01*
X-48690000Y-1314093D01*
X-48121715Y-1201054D01*
X-47639946Y-879147D01*
X-47420000Y-549974D01*
X-47200054Y-879147D01*
X-46718285Y-1201054D01*
X-46150000Y-1314093D01*
X-45581715Y-1201054D01*
X-45099946Y-879147D01*
X-44880000Y-549974D01*
X-44660054Y-879147D01*
X-44178285Y-1201054D01*
X-43610000Y-1314093D01*
X-43240009Y-1240497D01*
X-43240149Y-1400314D01*
X-43109497Y-1716514D01*
X-42867787Y-1958647D01*
X-42551815Y-2089850D01*
X-42209686Y-2090149D01*
X-41893486Y-1959497D01*
X-41651353Y-1717787D01*
X-41520150Y-1401815D01*
X-41519995Y-1224583D01*
X-41070000Y-1314093D01*
X-40501715Y-1201054D01*
X-40019946Y-879147D01*
X-39800000Y-549974D01*
X-39580054Y-879147D01*
X-39098285Y-1201054D01*
X-38530000Y-1314093D01*
X-37961715Y-1201054D01*
X-37479946Y-879147D01*
X-37260000Y-549974D01*
X-37040054Y-879147D01*
X-36558285Y-1201054D01*
X-35990000Y-1314093D01*
X-35421715Y-1201054D01*
X-34939946Y-879147D01*
X-34720000Y-549974D01*
X-34500054Y-879147D01*
X-34018285Y-1201054D01*
X-33450000Y-1314093D01*
X-32881715Y-1201054D01*
X-32735573Y-1103405D01*
X-32709497Y-1166514D01*
X-32467787Y-1408647D01*
X-32225583Y-1509219D01*
X-32047401Y-1687401D01*
X-31800839Y-1852148D01*
X-31510000Y-1910000D01*
X-6820000Y-1910000D01*
X-6529161Y-1852148D01*
X-6282599Y-1687401D01*
X-5843044Y-1247846D01*
X-5510000Y-1314093D01*
X-4941715Y-1201054D01*
X-4459946Y-879147D01*
X-4232298Y-538447D01*
X-4165183Y-681358D01*
X-3736924Y-1071645D01*
X-3326890Y-1241476D01*
X-3097000Y-1120155D01*
X-3097000Y73000D01*
X-3117000Y73000D01*
X-3117000Y327000D01*
X-3097000Y327000D01*
X-3097000Y347000D01*
X-2843000Y347000D01*
X-2843000Y327000D01*
X-2843000Y327000D01*
G37*
X-2843000Y327000D02*
X-2823000Y327000D01*
X-2823000Y73000D01*
X-2843000Y73000D01*
X-2843000Y-1120155D01*
X-2613110Y-1241476D01*
X-2203076Y-1071645D01*
X-1900063Y-795499D01*
X-1883162Y-885317D01*
X-1744090Y-1101441D01*
X-1531890Y-1246431D01*
X-1280000Y-1297440D01*
X420000Y-1297440D01*
X655317Y-1253162D01*
X708000Y-1219261D01*
X708000Y-2978000D01*
X-49872000Y-2978000D01*
X-49872000Y-681675D01*
X-49740054Y-879147D01*
X-49258285Y-1201054D01*
X-48690000Y-1314093D01*
X-48121715Y-1201054D01*
X-47639946Y-879147D01*
X-47420000Y-549974D01*
X-47200054Y-879147D01*
X-46718285Y-1201054D01*
X-46150000Y-1314093D01*
X-45581715Y-1201054D01*
X-45099946Y-879147D01*
X-44880000Y-549974D01*
X-44660054Y-879147D01*
X-44178285Y-1201054D01*
X-43610000Y-1314093D01*
X-43240009Y-1240497D01*
X-43240149Y-1400314D01*
X-43109497Y-1716514D01*
X-42867787Y-1958647D01*
X-42551815Y-2089850D01*
X-42209686Y-2090149D01*
X-41893486Y-1959497D01*
X-41651353Y-1717787D01*
X-41520150Y-1401815D01*
X-41519995Y-1224583D01*
X-41070000Y-1314093D01*
X-40501715Y-1201054D01*
X-40019946Y-879147D01*
X-39800000Y-549974D01*
X-39580054Y-879147D01*
X-39098285Y-1201054D01*
X-38530000Y-1314093D01*
X-37961715Y-1201054D01*
X-37479946Y-879147D01*
X-37260000Y-549974D01*
X-37040054Y-879147D01*
X-36558285Y-1201054D01*
X-35990000Y-1314093D01*
X-35421715Y-1201054D01*
X-34939946Y-879147D01*
X-34720000Y-549974D01*
X-34500054Y-879147D01*
X-34018285Y-1201054D01*
X-33450000Y-1314093D01*
X-32881715Y-1201054D01*
X-32735573Y-1103405D01*
X-32709497Y-1166514D01*
X-32467787Y-1408647D01*
X-32225583Y-1509219D01*
X-32047401Y-1687401D01*
X-31800839Y-1852148D01*
X-31510000Y-1910000D01*
X-6820000Y-1910000D01*
X-6529161Y-1852148D01*
X-6282599Y-1687401D01*
X-5843044Y-1247846D01*
X-5510000Y-1314093D01*
X-4941715Y-1201054D01*
X-4459946Y-879147D01*
X-4232298Y-538447D01*
X-4165183Y-681358D01*
X-3736924Y-1071645D01*
X-3326890Y-1241476D01*
X-3097000Y-1120155D01*
X-3097000Y73000D01*
X-3117000Y73000D01*
X-3117000Y327000D01*
X-3097000Y327000D01*
X-3097000Y347000D01*
X-2843000Y347000D01*
X-2843000Y327000D01*
G36*
X-4226323Y3231521D02*
X-4324093Y2740000D01*
X-4211054Y2171715D01*
X-3889147Y1689946D01*
X-3629207Y1516260D01*
X-3736924Y1471645D01*
X-4165183Y1081358D01*
X-4232298Y938447D01*
X-4459946Y1279147D01*
X-4941715Y1601054D01*
X-5510000Y1714093D01*
X-6078285Y1601054D01*
X-6560054Y1279147D01*
X-6780000Y949974D01*
X-6999946Y1279147D01*
X-7481715Y1601054D01*
X-8050000Y1714093D01*
X-8416408Y1641210D01*
X-10067758Y3292560D01*
X-9610000Y3292560D01*
X-9374683Y3336838D01*
X-9284024Y3395176D01*
X-9306487Y3341078D01*
X-9306786Y2998949D01*
X-9176134Y2682749D01*
X-8934424Y2440616D01*
X-8618452Y2309413D01*
X-8276323Y2309114D01*
X-7960123Y2439766D01*
X-7717990Y2681476D01*
X-7673175Y2789403D01*
X-7590000Y2772560D01*
X-6390000Y2772560D01*
X-6154683Y2816838D01*
X-5938559Y2955910D01*
X-5793569Y3168110D01*
X-5742560Y3420000D01*
X-5742560Y4620000D01*
X-5772171Y4777369D01*
X-4226323Y3231521D01*
X-4226323Y3231521D01*
G37*
X-4226323Y3231521D02*
X-4324093Y2740000D01*
X-4211054Y2171715D01*
X-3889147Y1689946D01*
X-3629207Y1516260D01*
X-3736924Y1471645D01*
X-4165183Y1081358D01*
X-4232298Y938447D01*
X-4459946Y1279147D01*
X-4941715Y1601054D01*
X-5510000Y1714093D01*
X-6078285Y1601054D01*
X-6560054Y1279147D01*
X-6780000Y949974D01*
X-6999946Y1279147D01*
X-7481715Y1601054D01*
X-8050000Y1714093D01*
X-8416408Y1641210D01*
X-10067758Y3292560D01*
X-9610000Y3292560D01*
X-9374683Y3336838D01*
X-9284024Y3395176D01*
X-9306487Y3341078D01*
X-9306786Y2998949D01*
X-9176134Y2682749D01*
X-8934424Y2440616D01*
X-8618452Y2309413D01*
X-8276323Y2309114D01*
X-7960123Y2439766D01*
X-7717990Y2681476D01*
X-7673175Y2789403D01*
X-7590000Y2772560D01*
X-6390000Y2772560D01*
X-6154683Y2816838D01*
X-5938559Y2955910D01*
X-5793569Y3168110D01*
X-5742560Y3420000D01*
X-5742560Y4620000D01*
X-5772171Y4777369D01*
X-4226323Y3231521D01*
G36*
X708000Y1621758D02*
X671890Y1646431D01*
X420000Y1697440D01*
X-1280000Y1697440D01*
X-1515317Y1653162D01*
X-1731441Y1514090D01*
X-1876431Y1301890D01*
X-1898301Y1193893D01*
X-2141521Y1415547D01*
X-1730853Y1689946D01*
X-1408946Y2171715D01*
X-1295907Y2740000D01*
X-1408946Y3308285D01*
X-1730853Y3790054D01*
X-2060026Y4010000D01*
X-1730853Y4229946D01*
X-1408946Y4711715D01*
X-1295907Y5280000D01*
X-1368790Y5646408D01*
X-132599Y6882599D01*
X32148Y7129161D01*
X90000Y7420000D01*
X90000Y12667727D01*
X189850Y12908193D01*
X190062Y13151271D01*
X607401Y13568610D01*
X708000Y13719167D01*
X708000Y1621758D01*
X708000Y1621758D01*
G37*
X708000Y1621758D02*
X671890Y1646431D01*
X420000Y1697440D01*
X-1280000Y1697440D01*
X-1515317Y1653162D01*
X-1731441Y1514090D01*
X-1876431Y1301890D01*
X-1898301Y1193893D01*
X-2141521Y1415547D01*
X-1730853Y1689946D01*
X-1408946Y2171715D01*
X-1295907Y2740000D01*
X-1408946Y3308285D01*
X-1730853Y3790054D01*
X-2060026Y4010000D01*
X-1730853Y4229946D01*
X-1408946Y4711715D01*
X-1295907Y5280000D01*
X-1368790Y5646408D01*
X-132599Y6882599D01*
X32148Y7129161D01*
X90000Y7420000D01*
X90000Y12667727D01*
X189850Y12908193D01*
X190062Y13151271D01*
X607401Y13568610D01*
X708000Y13719167D01*
X708000Y1621758D01*
G36*
X-41425000Y6429000D02*
X-41405000Y6429000D01*
X-41405000Y6175000D01*
X-41425000Y6175000D01*
X-41425000Y3889000D01*
X-41405000Y3889000D01*
X-41405000Y3635000D01*
X-41425000Y3635000D01*
X-41425000Y3615000D01*
X-41679000Y3615000D01*
X-41679000Y3635000D01*
X-41699000Y3635000D01*
X-41699000Y3889000D01*
X-41679000Y3889000D01*
X-41679000Y6175000D01*
X-41699000Y6175000D01*
X-41699000Y6429000D01*
X-41679000Y6429000D01*
X-41679000Y6449000D01*
X-41425000Y6449000D01*
X-41425000Y6429000D01*
X-41425000Y6429000D01*
G37*
X-41425000Y6429000D02*
X-41405000Y6429000D01*
X-41405000Y6175000D01*
X-41425000Y6175000D01*
X-41425000Y3889000D01*
X-41405000Y3889000D01*
X-41405000Y3635000D01*
X-41425000Y3635000D01*
X-41425000Y3615000D01*
X-41679000Y3615000D01*
X-41679000Y3635000D01*
X-41699000Y3635000D01*
X-41699000Y3889000D01*
X-41679000Y3889000D01*
X-41679000Y6175000D01*
X-41699000Y6175000D01*
X-41699000Y6429000D01*
X-41679000Y6429000D01*
X-41679000Y6449000D01*
X-41425000Y6449000D01*
X-41425000Y6429000D01*
G36*
X-15306431Y10991890D02*
X-15357440Y10740000D01*
X-15357440Y9440000D01*
X-15313162Y9204683D01*
X-15174090Y8988559D01*
X-14961890Y8843569D01*
X-14710000Y8792560D01*
X-12810000Y8792560D01*
X-12574683Y8836838D01*
X-12358559Y8975910D01*
X-12213569Y9188110D01*
X-12162560Y9440000D01*
X-12162560Y10740000D01*
X-12206838Y10975317D01*
X-12248455Y11039992D01*
X-12073564Y11039992D01*
X-12106431Y10991890D01*
X-12157440Y10740000D01*
X-12157440Y9440000D01*
X-12113162Y9204683D01*
X-11974090Y8988559D01*
X-11761890Y8843569D01*
X-11510000Y8792560D01*
X-9610000Y8792560D01*
X-9374683Y8836838D01*
X-9158559Y8975910D01*
X-9104917Y9054418D01*
X-9009497Y8823486D01*
X-8946122Y8760000D01*
X-11080000Y8760000D01*
X-11370840Y8702148D01*
X-11617401Y8537401D01*
X-12939864Y7214938D01*
X-12939851Y7230314D01*
X-13070503Y7546514D01*
X-13312213Y7788647D01*
X-13628185Y7919850D01*
X-13970314Y7920149D01*
X-14286514Y7789497D01*
X-14528647Y7547787D01*
X-14659850Y7231815D01*
X-14660149Y6889686D01*
X-14529497Y6573486D01*
X-14520000Y6563972D01*
X-14520000Y5887440D01*
X-14710000Y5887440D01*
X-14945317Y5843162D01*
X-15161441Y5704090D01*
X-15306431Y5491890D01*
X-15357440Y5240000D01*
X-15357440Y4260000D01*
X-17381175Y4260000D01*
X-17266539Y4374436D01*
X-17055241Y4883298D01*
X-17054760Y5434285D01*
X-17265169Y5943515D01*
X-17654436Y6333461D01*
X-18163298Y6544759D01*
X-18714285Y6545240D01*
X-19223515Y6334831D01*
X-19613461Y5945564D01*
X-19824759Y5436702D01*
X-19825034Y5121262D01*
X-19900000Y5302692D01*
X-19900000Y7513989D01*
X-19950655Y7768647D01*
X-19957852Y7804829D01*
X-20122599Y8051390D01*
X-20488602Y8417393D01*
X-20735164Y8582140D01*
X-21026003Y8639992D01*
X-21141603Y8639992D01*
X-19825073Y9956522D01*
X-19825240Y9765715D01*
X-19614831Y9256485D01*
X-19225564Y8866539D01*
X-18716702Y8655241D01*
X-18165715Y8654760D01*
X-17656485Y8865169D01*
X-17266539Y9254436D01*
X-17055241Y9763298D01*
X-17054760Y10314285D01*
X-17265169Y10823515D01*
X-17481269Y11039992D01*
X-15273564Y11039992D01*
X-15306431Y10991890D01*
X-15306431Y10991890D01*
G37*
X-15306431Y10991890D02*
X-15357440Y10740000D01*
X-15357440Y9440000D01*
X-15313162Y9204683D01*
X-15174090Y8988559D01*
X-14961890Y8843569D01*
X-14710000Y8792560D01*
X-12810000Y8792560D01*
X-12574683Y8836838D01*
X-12358559Y8975910D01*
X-12213569Y9188110D01*
X-12162560Y9440000D01*
X-12162560Y10740000D01*
X-12206838Y10975317D01*
X-12248455Y11039992D01*
X-12073564Y11039992D01*
X-12106431Y10991890D01*
X-12157440Y10740000D01*
X-12157440Y9440000D01*
X-12113162Y9204683D01*
X-11974090Y8988559D01*
X-11761890Y8843569D01*
X-11510000Y8792560D01*
X-9610000Y8792560D01*
X-9374683Y8836838D01*
X-9158559Y8975910D01*
X-9104917Y9054418D01*
X-9009497Y8823486D01*
X-8946122Y8760000D01*
X-11080000Y8760000D01*
X-11370840Y8702148D01*
X-11617401Y8537401D01*
X-12939864Y7214938D01*
X-12939851Y7230314D01*
X-13070503Y7546514D01*
X-13312213Y7788647D01*
X-13628185Y7919850D01*
X-13970314Y7920149D01*
X-14286514Y7789497D01*
X-14528647Y7547787D01*
X-14659850Y7231815D01*
X-14660149Y6889686D01*
X-14529497Y6573486D01*
X-14520000Y6563972D01*
X-14520000Y5887440D01*
X-14710000Y5887440D01*
X-14945317Y5843162D01*
X-15161441Y5704090D01*
X-15306431Y5491890D01*
X-15357440Y5240000D01*
X-15357440Y4260000D01*
X-17381175Y4260000D01*
X-17266539Y4374436D01*
X-17055241Y4883298D01*
X-17054760Y5434285D01*
X-17265169Y5943515D01*
X-17654436Y6333461D01*
X-18163298Y6544759D01*
X-18714285Y6545240D01*
X-19223515Y6334831D01*
X-19613461Y5945564D01*
X-19824759Y5436702D01*
X-19825034Y5121262D01*
X-19900000Y5302692D01*
X-19900000Y7513989D01*
X-19950655Y7768647D01*
X-19957852Y7804829D01*
X-20122599Y8051390D01*
X-20488602Y8417393D01*
X-20735164Y8582140D01*
X-21026003Y8639992D01*
X-21141603Y8639992D01*
X-19825073Y9956522D01*
X-19825240Y9765715D01*
X-19614831Y9256485D01*
X-19225564Y8866539D01*
X-18716702Y8655241D01*
X-18165715Y8654760D01*
X-17656485Y8865169D01*
X-17266539Y9254436D01*
X-17055241Y9763298D01*
X-17054760Y10314285D01*
X-17265169Y10823515D01*
X-17481269Y11039992D01*
X-15273564Y11039992D01*
X-15306431Y10991890D01*
G36*
X-21420000Y5404675D02*
X-21834570Y5819245D01*
X-21833020Y5821513D01*
X-21751112Y5875834D01*
X-21538980Y6087966D01*
X-21420000Y6262099D01*
X-21420000Y5404675D01*
X-21420000Y5404675D01*
G37*
X-21420000Y5404675D02*
X-21834570Y5819245D01*
X-21833020Y5821513D01*
X-21751112Y5875834D01*
X-21538980Y6087966D01*
X-21420000Y6262099D01*
X-21420000Y5404675D01*
G36*
X-21420000Y6824180D02*
X-21538980Y7003584D01*
X-21620297Y7084901D01*
X-21585206Y7119992D01*
X-21420000Y7119992D01*
X-21420000Y6824180D01*
X-21420000Y6824180D01*
G37*
X-21420000Y6824180D02*
X-21538980Y7003584D01*
X-21620297Y7084901D01*
X-21585206Y7119992D01*
X-21420000Y7119992D01*
X-21420000Y6824180D01*
G36*
X708000Y17121758D02*
X671890Y17146431D01*
X420000Y17197440D01*
X-1280000Y17197440D01*
X-1433715Y17168517D01*
X-1792599Y17527401D01*
X-2039161Y17692148D01*
X-2330000Y17750000D01*
X-39110000Y17750000D01*
X-39125000Y17747016D01*
X-39140000Y17750000D01*
X-39810000Y17750000D01*
X-40100839Y17692148D01*
X-40347401Y17527401D01*
X-40728615Y17146187D01*
X-41070000Y17214093D01*
X-41638285Y17101054D01*
X-42120054Y16779147D01*
X-42340000Y16449974D01*
X-42559946Y16779147D01*
X-43041715Y17101054D01*
X-43610000Y17214093D01*
X-44178285Y17101054D01*
X-44660054Y16779147D01*
X-44887702Y16438447D01*
X-44954817Y16581358D01*
X-45383076Y16971645D01*
X-45793110Y17141476D01*
X-46023000Y17020155D01*
X-46023000Y15827000D01*
X-46003000Y15827000D01*
X-46003000Y15573000D01*
X-46023000Y15573000D01*
X-46023000Y14379845D01*
X-45793110Y14258524D01*
X-45383076Y14428355D01*
X-44954817Y14818642D01*
X-44887702Y14961553D01*
X-44660054Y14620853D01*
X-44178285Y14298946D01*
X-43610000Y14185907D01*
X-43041715Y14298946D01*
X-42559946Y14620853D01*
X-42340000Y14950026D01*
X-42120054Y14620853D01*
X-41806859Y14411583D01*
X-41772148Y14237080D01*
X-41650486Y14055000D01*
X-41844250Y14055000D01*
X-42003000Y13896250D01*
X-42003000Y13047000D01*
X-40803750Y13047000D01*
X-40733816Y13116933D01*
X-37312190Y9695307D01*
X-37327440Y9620000D01*
X-37327440Y8820011D01*
X-39139921Y8820011D01*
X-39139851Y8900314D01*
X-39270503Y9216514D01*
X-39309998Y9256078D01*
X-39309998Y9867719D01*
X-39210148Y10108185D01*
X-39209849Y10450314D01*
X-39340501Y10766514D01*
X-39582211Y11008647D01*
X-39898183Y11139850D01*
X-40240312Y11140149D01*
X-40556512Y11009497D01*
X-40798645Y10767787D01*
X-40929848Y10451815D01*
X-40930112Y10149472D01*
X-41028110Y10216431D01*
X-41280000Y10267440D01*
X-42980000Y10267440D01*
X-43215317Y10223162D01*
X-43431441Y10084090D01*
X-43576431Y9871890D01*
X-43627440Y9620000D01*
X-43627440Y9099893D01*
X-43729297Y9099982D01*
X-43810503Y9296514D01*
X-44052213Y9538647D01*
X-44368185Y9669850D01*
X-44467687Y9669937D01*
X-44410237Y9808292D01*
X-44409764Y10349334D01*
X-44616376Y10849372D01*
X-44998616Y11232280D01*
X-45498292Y11439763D01*
X-46039334Y11440236D01*
X-46539372Y11233624D01*
X-46872560Y10901017D01*
X-46872560Y10986431D01*
X-46853948Y11080000D01*
X-46947957Y11552614D01*
X-47215671Y11953277D01*
X-47616334Y12220991D01*
X-48088948Y12315000D01*
X-48851052Y12315000D01*
X-49323666Y12220991D01*
X-49724329Y11953277D01*
X-49872000Y11732271D01*
X-49872000Y12634250D01*
X-43615000Y12634250D01*
X-43615000Y12293690D01*
X-43518327Y12060301D01*
X-43339698Y11881673D01*
X-43106309Y11785000D01*
X-42415750Y11785000D01*
X-42257000Y11943750D01*
X-42257000Y12793000D01*
X-42003000Y12793000D01*
X-42003000Y11943750D01*
X-41844250Y11785000D01*
X-41153691Y11785000D01*
X-40920302Y11881673D01*
X-40741673Y12060301D01*
X-40645000Y12293690D01*
X-40645000Y12634250D01*
X-40803750Y12793000D01*
X-42003000Y12793000D01*
X-42257000Y12793000D01*
X-43456250Y12793000D01*
X-43615000Y12634250D01*
X-49872000Y12634250D01*
X-49872000Y13546310D01*
X-43615000Y13546310D01*
X-43615000Y13205750D01*
X-43456250Y13047000D01*
X-42257000Y13047000D01*
X-42257000Y13896250D01*
X-42415750Y14055000D01*
X-43106309Y14055000D01*
X-43339698Y13958327D01*
X-43518327Y13779699D01*
X-43615000Y13546310D01*
X-49872000Y13546310D01*
X-49872000Y14806628D01*
X-49456924Y14428355D01*
X-49046890Y14258524D01*
X-48817000Y14379845D01*
X-48817000Y15573000D01*
X-48563000Y15573000D01*
X-48563000Y14379845D01*
X-48333110Y14258524D01*
X-47923076Y14428355D01*
X-47494817Y14818642D01*
X-47420000Y14977954D01*
X-47345183Y14818642D01*
X-46916924Y14428355D01*
X-46506890Y14258524D01*
X-46277000Y14379845D01*
X-46277000Y15573000D01*
X-48563000Y15573000D01*
X-48817000Y15573000D01*
X-48837000Y15573000D01*
X-48837000Y15827000D01*
X-48817000Y15827000D01*
X-48817000Y17020155D01*
X-48563000Y17020155D01*
X-48563000Y15827000D01*
X-46277000Y15827000D01*
X-46277000Y17020155D01*
X-46506890Y17141476D01*
X-46916924Y16971645D01*
X-47345183Y16581358D01*
X-47420000Y16422046D01*
X-47494817Y16581358D01*
X-47923076Y16971645D01*
X-48333110Y17141476D01*
X-48563000Y17020155D01*
X-48817000Y17020155D01*
X-49046890Y17141476D01*
X-49456924Y16971645D01*
X-49872000Y16593372D01*
X-49872000Y18602000D01*
X708000Y18602000D01*
X708000Y17121758D01*
X708000Y17121758D01*
G37*
X708000Y17121758D02*
X671890Y17146431D01*
X420000Y17197440D01*
X-1280000Y17197440D01*
X-1433715Y17168517D01*
X-1792599Y17527401D01*
X-2039161Y17692148D01*
X-2330000Y17750000D01*
X-39110000Y17750000D01*
X-39125000Y17747016D01*
X-39140000Y17750000D01*
X-39810000Y17750000D01*
X-40100839Y17692148D01*
X-40347401Y17527401D01*
X-40728615Y17146187D01*
X-41070000Y17214093D01*
X-41638285Y17101054D01*
X-42120054Y16779147D01*
X-42340000Y16449974D01*
X-42559946Y16779147D01*
X-43041715Y17101054D01*
X-43610000Y17214093D01*
X-44178285Y17101054D01*
X-44660054Y16779147D01*
X-44887702Y16438447D01*
X-44954817Y16581358D01*
X-45383076Y16971645D01*
X-45793110Y17141476D01*
X-46023000Y17020155D01*
X-46023000Y15827000D01*
X-46003000Y15827000D01*
X-46003000Y15573000D01*
X-46023000Y15573000D01*
X-46023000Y14379845D01*
X-45793110Y14258524D01*
X-45383076Y14428355D01*
X-44954817Y14818642D01*
X-44887702Y14961553D01*
X-44660054Y14620853D01*
X-44178285Y14298946D01*
X-43610000Y14185907D01*
X-43041715Y14298946D01*
X-42559946Y14620853D01*
X-42340000Y14950026D01*
X-42120054Y14620853D01*
X-41806859Y14411583D01*
X-41772148Y14237080D01*
X-41650486Y14055000D01*
X-41844250Y14055000D01*
X-42003000Y13896250D01*
X-42003000Y13047000D01*
X-40803750Y13047000D01*
X-40733816Y13116933D01*
X-37312190Y9695307D01*
X-37327440Y9620000D01*
X-37327440Y8820011D01*
X-39139921Y8820011D01*
X-39139851Y8900314D01*
X-39270503Y9216514D01*
X-39309998Y9256078D01*
X-39309998Y9867719D01*
X-39210148Y10108185D01*
X-39209849Y10450314D01*
X-39340501Y10766514D01*
X-39582211Y11008647D01*
X-39898183Y11139850D01*
X-40240312Y11140149D01*
X-40556512Y11009497D01*
X-40798645Y10767787D01*
X-40929848Y10451815D01*
X-40930112Y10149472D01*
X-41028110Y10216431D01*
X-41280000Y10267440D01*
X-42980000Y10267440D01*
X-43215317Y10223162D01*
X-43431441Y10084090D01*
X-43576431Y9871890D01*
X-43627440Y9620000D01*
X-43627440Y9099893D01*
X-43729297Y9099982D01*
X-43810503Y9296514D01*
X-44052213Y9538647D01*
X-44368185Y9669850D01*
X-44467687Y9669937D01*
X-44410237Y9808292D01*
X-44409764Y10349334D01*
X-44616376Y10849372D01*
X-44998616Y11232280D01*
X-45498292Y11439763D01*
X-46039334Y11440236D01*
X-46539372Y11233624D01*
X-46872560Y10901017D01*
X-46872560Y10986431D01*
X-46853948Y11080000D01*
X-46947957Y11552614D01*
X-47215671Y11953277D01*
X-47616334Y12220991D01*
X-48088948Y12315000D01*
X-48851052Y12315000D01*
X-49323666Y12220991D01*
X-49724329Y11953277D01*
X-49872000Y11732271D01*
X-49872000Y12634250D01*
X-43615000Y12634250D01*
X-43615000Y12293690D01*
X-43518327Y12060301D01*
X-43339698Y11881673D01*
X-43106309Y11785000D01*
X-42415750Y11785000D01*
X-42257000Y11943750D01*
X-42257000Y12793000D01*
X-42003000Y12793000D01*
X-42003000Y11943750D01*
X-41844250Y11785000D01*
X-41153691Y11785000D01*
X-40920302Y11881673D01*
X-40741673Y12060301D01*
X-40645000Y12293690D01*
X-40645000Y12634250D01*
X-40803750Y12793000D01*
X-42003000Y12793000D01*
X-42257000Y12793000D01*
X-43456250Y12793000D01*
X-43615000Y12634250D01*
X-49872000Y12634250D01*
X-49872000Y13546310D01*
X-43615000Y13546310D01*
X-43615000Y13205750D01*
X-43456250Y13047000D01*
X-42257000Y13047000D01*
X-42257000Y13896250D01*
X-42415750Y14055000D01*
X-43106309Y14055000D01*
X-43339698Y13958327D01*
X-43518327Y13779699D01*
X-43615000Y13546310D01*
X-49872000Y13546310D01*
X-49872000Y14806628D01*
X-49456924Y14428355D01*
X-49046890Y14258524D01*
X-48817000Y14379845D01*
X-48817000Y15573000D01*
X-48563000Y15573000D01*
X-48563000Y14379845D01*
X-48333110Y14258524D01*
X-47923076Y14428355D01*
X-47494817Y14818642D01*
X-47420000Y14977954D01*
X-47345183Y14818642D01*
X-46916924Y14428355D01*
X-46506890Y14258524D01*
X-46277000Y14379845D01*
X-46277000Y15573000D01*
X-48563000Y15573000D01*
X-48817000Y15573000D01*
X-48837000Y15573000D01*
X-48837000Y15827000D01*
X-48817000Y15827000D01*
X-48817000Y17020155D01*
X-48563000Y17020155D01*
X-48563000Y15827000D01*
X-46277000Y15827000D01*
X-46277000Y17020155D01*
X-46506890Y17141476D01*
X-46916924Y16971645D01*
X-47345183Y16581358D01*
X-47420000Y16422046D01*
X-47494817Y16581358D01*
X-47923076Y16971645D01*
X-48333110Y17141476D01*
X-48563000Y17020155D01*
X-48817000Y17020155D01*
X-49046890Y17141476D01*
X-49456924Y16971645D01*
X-49872000Y16593372D01*
X-49872000Y18602000D01*
X708000Y18602000D01*
X708000Y17121758D01*
G36*
X-39580054Y14620853D02*
X-39098285Y14298946D01*
X-38530000Y14185907D01*
X-38138569Y14263767D01*
X-37517401Y13642599D01*
X-37315000Y13507359D01*
X-37315000Y13205750D01*
X-37156250Y13047000D01*
X-35957000Y13047000D01*
X-35957000Y13067000D01*
X-35703000Y13067000D01*
X-35703000Y13047000D01*
X-35683000Y13047000D01*
X-35683000Y12793000D01*
X-35703000Y12793000D01*
X-35703000Y11943750D01*
X-35544250Y11785000D01*
X-34899675Y11785000D01*
X-33354942Y10240267D01*
X-33395465Y10240267D01*
X-33932599Y10777401D01*
X-34179161Y10942148D01*
X-34470000Y11000000D01*
X-34657719Y11000000D01*
X-34898185Y11099850D01*
X-35240314Y11100149D01*
X-35556514Y10969497D01*
X-35798647Y10727787D01*
X-35914958Y10447679D01*
X-38101529Y12634250D01*
X-37315000Y12634250D01*
X-37315000Y12293690D01*
X-37218327Y12060301D01*
X-37039698Y11881673D01*
X-36806309Y11785000D01*
X-36115750Y11785000D01*
X-35957000Y11943750D01*
X-35957000Y12793000D01*
X-37156250Y12793000D01*
X-37315000Y12634250D01*
X-38101529Y12634250D01*
X-40060821Y14593542D01*
X-40019946Y14620853D01*
X-39800000Y14950026D01*
X-39580054Y14620853D01*
X-39580054Y14620853D01*
G37*
X-39580054Y14620853D02*
X-39098285Y14298946D01*
X-38530000Y14185907D01*
X-38138569Y14263767D01*
X-37517401Y13642599D01*
X-37315000Y13507359D01*
X-37315000Y13205750D01*
X-37156250Y13047000D01*
X-35957000Y13047000D01*
X-35957000Y13067000D01*
X-35703000Y13067000D01*
X-35703000Y13047000D01*
X-35683000Y13047000D01*
X-35683000Y12793000D01*
X-35703000Y12793000D01*
X-35703000Y11943750D01*
X-35544250Y11785000D01*
X-34899675Y11785000D01*
X-33354942Y10240267D01*
X-33395465Y10240267D01*
X-33932599Y10777401D01*
X-34179161Y10942148D01*
X-34470000Y11000000D01*
X-34657719Y11000000D01*
X-34898185Y11099850D01*
X-35240314Y11100149D01*
X-35556514Y10969497D01*
X-35798647Y10727787D01*
X-35914958Y10447679D01*
X-38101529Y12634250D01*
X-37315000Y12634250D01*
X-37315000Y12293690D01*
X-37218327Y12060301D01*
X-37039698Y11881673D01*
X-36806309Y11785000D01*
X-36115750Y11785000D01*
X-35957000Y11943750D01*
X-35957000Y12793000D01*
X-37156250Y12793000D01*
X-37315000Y12634250D01*
X-38101529Y12634250D01*
X-40060821Y14593542D01*
X-40019946Y14620853D01*
X-39800000Y14950026D01*
X-39580054Y14620853D01*
G36*
X-2683000Y13027000D02*
X-2663000Y13027000D01*
X-2663000Y12773000D01*
X-2683000Y12773000D01*
X-2683000Y12753000D01*
X-2937000Y12753000D01*
X-2937000Y12773000D01*
X-2957000Y12773000D01*
X-2957000Y13027000D01*
X-2937000Y13027000D01*
X-2937000Y13047000D01*
X-2683000Y13047000D01*
X-2683000Y13027000D01*
X-2683000Y13027000D01*
G37*
X-2683000Y13027000D02*
X-2663000Y13027000D01*
X-2663000Y12773000D01*
X-2683000Y12773000D01*
X-2683000Y12753000D01*
X-2937000Y12753000D01*
X-2937000Y12773000D01*
X-2957000Y12773000D01*
X-2957000Y13027000D01*
X-2937000Y13027000D01*
X-2937000Y13047000D01*
X-2683000Y13047000D01*
X-2683000Y13027000D01*
M02*
