%TF.GenerationSoftware,KiCad,Pcbnew,4.0.7*%
%TF.CreationDate,2017-11-06T20:43:19+08:00*%
%TF.ProjectId,STM32F401CCT6,53544D333246343031434354362E6B69,rev?*%
%TF.FileFunction,Copper,L2,Bot,Signal*%
%FSLAX46Y46*%
G04 Gerber Fmt 4.6, Leading zero omitted, Abs format (unit mm)*
G04 Created by KiCad (PCBNEW 4.0.7) date 11/06/17 20:43:19*
%MOMM*%
%LPD*%
G01*
G04 APERTURE LIST*
%ADD10C,0.100000*%
%ADD11R,1.700000X1.700000*%
%ADD12O,1.700000X1.700000*%
%ADD13C,1.450000*%
%ADD14O,1.900000X1.200000*%
%ADD15R,0.500000X0.900000*%
%ADD16R,0.900000X0.500000*%
%ADD17R,1.060000X0.650000*%
%ADD18R,0.750000X0.800000*%
%ADD19C,1.500000*%
%ADD20C,0.450000*%
%ADD21C,0.250000*%
%ADD22C,0.254000*%
G04 APERTURE END LIST*
D10*
D11*
X-430000Y15700000D03*
D12*
X-2970000Y15700000D03*
X-5510000Y15700000D03*
X-8050000Y15700000D03*
X-10590000Y15700000D03*
X-13130000Y15700000D03*
X-15670000Y15700000D03*
X-18210000Y15700000D03*
X-20750000Y15700000D03*
X-23290000Y15700000D03*
X-25830000Y15700000D03*
X-28370000Y15700000D03*
X-30910000Y15700000D03*
X-33450000Y15700000D03*
X-35990000Y15700000D03*
X-38530000Y15700000D03*
X-41070000Y15700000D03*
X-43610000Y15700000D03*
X-46150000Y15700000D03*
X-48690000Y15700000D03*
D11*
X-430000Y200000D03*
D12*
X-2970000Y200000D03*
X-5510000Y200000D03*
X-8050000Y200000D03*
X-10590000Y200000D03*
X-13130000Y200000D03*
X-15670000Y200000D03*
X-18210000Y200000D03*
X-20750000Y200000D03*
X-23290000Y200000D03*
X-25830000Y200000D03*
X-28370000Y200000D03*
X-30910000Y200000D03*
X-33450000Y200000D03*
X-35990000Y200000D03*
X-38530000Y200000D03*
X-41070000Y200000D03*
X-43610000Y200000D03*
X-46150000Y200000D03*
X-48690000Y200000D03*
D11*
X-36472000Y6302000D03*
D12*
X-36472000Y3762000D03*
X-39012000Y6302000D03*
X-39012000Y3762000D03*
X-41552000Y6302000D03*
X-41552000Y3762000D03*
D13*
X-45770000Y10080000D03*
X-45770000Y5080000D03*
D14*
X-48470000Y11080000D03*
X-48470000Y4080000D03*
D11*
X-2810000Y12900000D03*
D12*
X-2810000Y10360000D03*
X-2810000Y7820000D03*
X-2810000Y5280000D03*
X-2810000Y2740000D03*
D15*
X-47550000Y12960000D03*
X-46050000Y12960000D03*
D16*
X-43350000Y10990000D03*
X-43350000Y9490000D03*
X-41440000Y10990000D03*
X-41440000Y9490000D03*
D17*
X-38900000Y9020000D03*
X-38900000Y9970000D03*
X-38900000Y10920000D03*
X-36700000Y10920000D03*
X-36700000Y9020000D03*
X-36700000Y9970000D03*
D15*
X-38670000Y12870000D03*
X-37170000Y12870000D03*
D16*
X-31810000Y10860000D03*
X-31810000Y9360000D03*
D18*
X-29980000Y9330000D03*
X-29980000Y10830000D03*
X-28260000Y9320000D03*
X-28260000Y10820000D03*
X-26460000Y9320000D03*
X-26460000Y10820000D03*
X-24700000Y9330000D03*
X-24700000Y10830000D03*
X-22810000Y9330000D03*
X-22810000Y10830000D03*
D16*
X-20500000Y9290000D03*
X-20500000Y10790000D03*
D18*
X-16710000Y10830000D03*
X-16710000Y9330000D03*
X-14980000Y10830000D03*
X-14980000Y9330000D03*
X-13200000Y10830000D03*
X-13200000Y9330000D03*
X-11370000Y10830000D03*
X-11370000Y9330000D03*
D16*
X-9420000Y10790000D03*
X-9420000Y9290000D03*
D18*
X-7010000Y5510000D03*
X-7010000Y4010000D03*
D16*
X-9290000Y5540000D03*
X-9290000Y4040000D03*
X-20570000Y5630000D03*
X-20570000Y4130000D03*
D18*
X-22560000Y5650000D03*
X-22560000Y4150000D03*
X-24300000Y5660000D03*
X-24300000Y4160000D03*
D17*
X-28580000Y4000000D03*
X-28580000Y4950000D03*
X-28580000Y5900000D03*
X-26380000Y5900000D03*
X-26380000Y4000000D03*
D18*
X-30510000Y4130000D03*
X-30510000Y5630000D03*
X-32360000Y4130000D03*
X-32360000Y5630000D03*
D16*
X-34210000Y5670000D03*
X-34210000Y4170000D03*
D19*
X-18440000Y5160000D03*
X-18440000Y10040000D03*
D20*
X-44540000Y8810000D03*
X-31980000Y-680000D03*
X-21287592Y7242400D03*
X-20280000Y8310000D03*
X-43980000Y6290000D03*
X-29560008Y2302013D03*
X-24087080Y12410438D03*
X-18430000Y11250000D03*
X-47520000Y13890000D03*
X-28080000Y2070000D03*
X-33182346Y10345741D03*
X-21565415Y5964585D03*
X-38135009Y10050000D03*
X-23409602Y12410570D03*
X-670000Y13080008D03*
X-640000Y14180000D03*
X-35070000Y10240000D03*
X-20660000Y4890000D03*
X-42380000Y-1230000D03*
X-24560875Y12920000D03*
X-21300000Y12979992D03*
X-26534596Y2070000D03*
X-37680000Y2880002D03*
X-1990000Y9060000D03*
X-10650000Y7450000D03*
X-13800000Y7060000D03*
X-21907328Y11636078D03*
X-21910679Y12286071D03*
X-8280000Y9310000D03*
X-8446637Y3169263D03*
X-33940000Y8495285D03*
X-32840008Y8457981D03*
X-4770000Y14220000D03*
X-27470000Y13210000D03*
X-28380000Y13850000D03*
X-29957893Y13257893D03*
X-5070000Y10810000D03*
X-25714536Y2074195D03*
X-26070000Y1530000D03*
X-13130000Y5950000D03*
X-30660000Y1980000D03*
X-34490000Y9030000D03*
X-31600000Y2430001D03*
X-33390000Y7040000D03*
X-40000000Y8730000D03*
X-40069998Y10280000D03*
X-20650000Y3250000D03*
X-33530000Y13150000D03*
X-43750000Y8240000D03*
X-46990000Y7480000D03*
X-43600000Y7550000D03*
D21*
X-44540000Y8810000D02*
X-44540000Y5930000D01*
X-44540000Y5930000D02*
X-44025001Y5415001D01*
X-44025001Y2919999D02*
X-42535002Y1430000D01*
X-44025001Y5415001D02*
X-44025001Y2919999D01*
X-42535002Y1430000D02*
X-32400000Y1430000D01*
X-32400000Y1430000D02*
X-31980000Y1430000D01*
X-31980000Y1430000D02*
X-29621101Y1430000D01*
X-32204999Y1234999D02*
X-32175001Y1234999D01*
X-32175001Y1234999D02*
X-31980000Y1430000D01*
X-32204999Y1234999D02*
X-32204999Y-455001D01*
X-32204999Y-455001D02*
X-31980000Y-680000D01*
X-32400000Y1430000D02*
X-32204999Y1234999D01*
X-29010009Y2994991D02*
X-28580000Y3425000D01*
X-29621101Y1430000D02*
X-29010009Y2041092D01*
X-29010009Y2041092D02*
X-29010009Y2994991D01*
X-28580000Y3425000D02*
X-28580000Y4000000D01*
X-30510000Y5630000D02*
X-29885000Y5630000D01*
X-29885000Y5630000D02*
X-29615000Y5900000D01*
X-29615000Y5900000D02*
X-28580000Y5900000D01*
X-28580000Y5900000D02*
X-27800000Y5900000D01*
X-27800000Y4000000D02*
X-28580000Y4000000D01*
X-27800000Y5900000D02*
X-27700000Y5800000D01*
X-27700000Y5800000D02*
X-27700000Y4100000D01*
X-27700000Y4100000D02*
X-27800000Y4000000D01*
X-21287592Y7302408D02*
X-21287592Y7242400D01*
X-20280000Y8310000D02*
X-21287592Y7302408D01*
X-20598198Y8310000D02*
X-20280000Y8310000D01*
X-22185000Y9330000D02*
X-21165000Y8310000D01*
X-21165000Y8310000D02*
X-20598198Y8310000D01*
X-22810000Y9330000D02*
X-22185000Y9330000D01*
X-41552000Y6302000D02*
X-43968000Y6302000D01*
X-43968000Y6302000D02*
X-43980000Y6290000D01*
X-29980000Y9330000D02*
X-30280000Y9330000D01*
X-30280000Y9330000D02*
X-31101233Y10151233D01*
X-31101233Y10151233D02*
X-32991233Y10151233D01*
X-32991233Y10151233D02*
X-33182346Y10342346D01*
X-33182346Y10342346D02*
X-33182346Y10345741D01*
X-29785007Y2527012D02*
X-29560008Y2302013D01*
X-30510000Y4130000D02*
X-30510000Y3252005D01*
X-30510000Y3252005D02*
X-29785007Y2527012D01*
X-38135009Y10050000D02*
X-38820000Y10050000D01*
X-38820000Y10050000D02*
X-38900000Y9970000D01*
X-41552000Y7965988D02*
X-41552000Y7991988D01*
X-41552000Y7991988D02*
X-39573988Y9970000D01*
X-39573988Y9970000D02*
X-38900000Y9970000D01*
X-7010000Y5510000D02*
X-7010000Y5535000D01*
X-7010000Y5535000D02*
X-4050007Y8494993D01*
X-4050007Y8494993D02*
X-4050007Y11659993D01*
X-4050007Y11659993D02*
X-2810000Y12900000D01*
X-24700000Y9330000D02*
X-24700000Y9460000D01*
X-23770000Y10390000D02*
X-23770000Y11727624D01*
X-24700000Y9460000D02*
X-23770000Y10390000D01*
X-23770000Y11727624D02*
X-24087080Y12044704D01*
X-24087080Y12044704D02*
X-24087080Y12092240D01*
X-24087080Y12092240D02*
X-24087080Y12410438D01*
X-24087080Y12552674D02*
X-24087080Y12410438D01*
X-18164008Y13529992D02*
X-23109762Y13529992D01*
X-16970000Y14724000D02*
X-18164008Y13529992D01*
X-23109762Y13529992D02*
X-24087080Y12552674D01*
X-17560000Y16990000D02*
X-16970000Y16400000D01*
X-16970000Y16400000D02*
X-16970000Y14724000D01*
X-47430000Y16990000D02*
X-17560000Y16990000D01*
X-48690000Y15730000D02*
X-47430000Y16990000D01*
X-17180000Y11250000D02*
X-18111802Y11250000D01*
X-18111802Y11250000D02*
X-18430000Y11250000D01*
X-16750000Y10820000D02*
X-17180000Y11250000D01*
X-2970000Y-20000D02*
X-4620000Y1630000D01*
X-7900000Y4595000D02*
X-7010000Y5485000D01*
X-4620000Y1630000D02*
X-6300000Y1630000D01*
X-6300000Y1630000D02*
X-7900000Y3230000D01*
X-7900000Y3230000D02*
X-7900000Y4595000D01*
X-7010000Y5485000D02*
X-7010000Y5510000D01*
X-47550000Y12960000D02*
X-47550000Y13860000D01*
X-47550000Y13860000D02*
X-47520000Y13890000D01*
X-47540000Y13910000D02*
X-47520000Y13890000D01*
X-47560000Y13910000D02*
X-47540000Y13910000D01*
X-27855001Y2294999D02*
X-28080000Y2070000D01*
X-27250000Y4604000D02*
X-27250000Y2900000D01*
X-24300000Y5660000D02*
X-24925000Y5660000D01*
X-25645000Y4940000D02*
X-26914000Y4940000D01*
X-26914000Y4940000D02*
X-27250000Y4604000D01*
X-27250000Y2900000D02*
X-27855001Y2294999D01*
X-24925000Y5660000D02*
X-25645000Y4940000D01*
X-4759998Y16999998D02*
X-4220000Y16460000D01*
X-9350000Y10860000D02*
X-9350000Y16168988D01*
X-9350000Y16168988D02*
X-8518990Y16999998D01*
X-8518990Y16999998D02*
X-4759998Y16999998D01*
X-4220000Y16460000D02*
X-4220000Y14310000D01*
X-4220000Y14310000D02*
X-2810000Y12900000D01*
X-41548006Y7961994D02*
X-41552000Y7965988D01*
X-41552000Y7965988D02*
X-41552000Y6302000D01*
X-21880000Y5650000D02*
X-21790414Y5739586D01*
X-21790414Y5739586D02*
X-21565415Y5964585D01*
X-22560000Y5650000D02*
X-21880000Y5650000D01*
X-24300000Y5660000D02*
X-23195000Y5660000D01*
X-23195000Y5660000D02*
X-23185000Y5650000D01*
X-22560000Y5650000D02*
X-23185000Y5650000D01*
X-28580000Y4950000D02*
X-29690000Y4950000D01*
X-29690000Y4950000D02*
X-30510000Y4130000D01*
X-32360000Y4130000D02*
X-30510000Y4130000D01*
X-11370000Y10830000D02*
X-9460000Y10830000D01*
X-11370000Y10830000D02*
X-13200000Y10830000D01*
X-14990000Y10820000D02*
X-13210000Y10820000D01*
X-13210000Y10820000D02*
X-13200000Y10830000D01*
X-16710000Y10830000D02*
X-15000000Y10830000D01*
X-15000000Y10830000D02*
X-14990000Y10820000D01*
X-24700000Y9330000D02*
X-26450000Y9330000D01*
X-26450000Y9330000D02*
X-26460000Y9320000D01*
X-26460000Y9320000D02*
X-28260000Y9320000D01*
X-29980000Y9330000D02*
X-28270000Y9330000D01*
X-28270000Y9330000D02*
X-28260000Y9320000D01*
X-41552000Y6302000D02*
X-41552000Y5099919D01*
X-41552000Y5099919D02*
X-41552000Y3762000D01*
X-32360000Y5630000D02*
X-32420000Y5690000D01*
X-32420000Y5690000D02*
X-32420000Y6055000D01*
X-32420000Y6055000D02*
X-31385000Y7090000D01*
X-31385000Y7090000D02*
X-27580000Y7090000D01*
X-27580000Y7090000D02*
X-26390000Y5900000D01*
X-26390000Y5900000D02*
X-26380000Y5900000D01*
X-31610000Y9360000D02*
X-30340000Y8090000D01*
X-24340011Y8090000D02*
X-23790000Y8640011D01*
X-23790000Y9730000D02*
X-22810000Y10710000D01*
X-30340000Y8090000D02*
X-24340011Y8090000D01*
X-31810000Y9360000D02*
X-31610000Y9360000D01*
X-23790000Y8640011D02*
X-23790000Y9730000D01*
X-41070000Y15730000D02*
X-39600000Y14260000D01*
X-39600000Y14260000D02*
X-33850000Y14260000D01*
X-33850000Y14260000D02*
X-32960008Y13370008D01*
X-32960008Y13370008D02*
X-32960008Y12229992D01*
X-32960008Y12229992D02*
X-33739991Y11450009D01*
X-33739991Y11450009D02*
X-33739991Y10105766D01*
X-33739991Y10105766D02*
X-32994225Y9360000D01*
X-32994225Y9360000D02*
X-32510000Y9360000D01*
X-32510000Y9360000D02*
X-31810000Y9360000D01*
X-23409602Y12410570D02*
X-22810000Y11810968D01*
X-22810000Y11810968D02*
X-22810000Y10830000D01*
X-640000Y14180000D02*
X-640000Y13110008D01*
X-640000Y13110008D02*
X-670000Y13080008D01*
X-37170000Y12870000D02*
X-37170000Y13070000D01*
X-37170000Y13070000D02*
X-37909999Y13809999D01*
X-37909999Y13809999D02*
X-41689999Y13809999D01*
X-41689999Y13809999D02*
X-43610000Y15730000D01*
X-43610000Y15730000D02*
X-44900000Y14440000D01*
X-44900000Y14440000D02*
X-47980000Y14440000D01*
X-47980000Y14440000D02*
X-49810000Y12610000D01*
X-49810000Y12610000D02*
X-49810000Y7400000D01*
X-49810000Y7400000D02*
X-44860000Y2450000D01*
X-44860000Y2450000D02*
X-44860000Y-640000D01*
X-44860000Y-640000D02*
X-44270000Y-1230000D01*
X-44270000Y-1230000D02*
X-42380000Y-1230000D01*
X-35070000Y10558198D02*
X-35070000Y10240000D01*
X-35070000Y11270000D02*
X-35070000Y10558198D01*
X-37170000Y12870000D02*
X-36670000Y12870000D01*
X-36670000Y12870000D02*
X-35070000Y11270000D01*
X-35294999Y10015001D02*
X-35070000Y10240000D01*
X-36700000Y9970000D02*
X-35340000Y9970000D01*
X-35340000Y9970000D02*
X-35294999Y10015001D01*
X-24700000Y10830000D02*
X-24700000Y12752274D01*
X-24700000Y12752274D02*
X-24570000Y12882274D01*
X-22560000Y4150000D02*
X-21935000Y4150000D01*
X-21195000Y4890000D02*
X-20978198Y4890000D01*
X-21935000Y4150000D02*
X-21195000Y4890000D01*
X-20978198Y4890000D02*
X-20660000Y4890000D01*
X-1290000Y8880000D02*
X-1290000Y9230000D01*
X-1290000Y9230000D02*
X-1290000Y13930000D01*
X-1470000Y9060000D02*
X-1460000Y9060000D01*
X-1460000Y9060000D02*
X-1290000Y9230000D01*
X-26940000Y-1230000D02*
X-1840000Y-1230000D01*
X-27314981Y-1230000D02*
X-26940000Y-1230000D01*
X-26945019Y-1230000D02*
X-27130000Y-1045019D01*
X-26940000Y-1230000D02*
X-26945019Y-1230000D01*
X-1840000Y-1230000D02*
X-450000Y160000D01*
X-450000Y160000D02*
X-430000Y160000D01*
X-42380000Y-1230000D02*
X-27314981Y-1230000D01*
X-27314981Y-1230000D02*
X-27130000Y-1045019D01*
X-27130000Y-1045019D02*
X-27130000Y1474596D01*
X-27130000Y1474596D02*
X-26759595Y1845001D01*
X-26759595Y1845001D02*
X-26534596Y2070000D01*
X-440000Y160000D02*
X-430000Y160000D01*
X-37680000Y2880002D02*
X-37679998Y2880002D01*
X-36800000Y3760000D02*
X-36474000Y3760000D01*
X-37679998Y2880002D02*
X-36800000Y3760000D01*
X-36474000Y3760000D02*
X-36472000Y3762000D01*
X-36472000Y3762000D02*
X-36472000Y4964081D01*
X-36472000Y4964081D02*
X-36472000Y6302000D01*
X-430000Y1080000D02*
X-430000Y160000D01*
X-20981802Y12979992D02*
X-21300000Y12979992D01*
X-13680008Y12979992D02*
X-20981802Y12979992D01*
X-11840000Y16460000D02*
X-11840000Y14820000D01*
X-2779999Y17449999D02*
X-10850001Y17449999D01*
X-1720000Y16390000D02*
X-2779999Y17449999D01*
X-11840000Y14820000D02*
X-13680008Y12979992D01*
X-10850001Y17449999D02*
X-11840000Y16460000D01*
X-1720000Y14360000D02*
X-1720000Y16390000D01*
X-1290000Y13930000D02*
X-1720000Y14360000D01*
X-26380000Y4000000D02*
X-26380000Y2224596D01*
X-26380000Y2224596D02*
X-26534596Y2070000D01*
X-2090000Y2740000D02*
X-430000Y1080000D01*
X-1290000Y4260000D02*
X-1290000Y8880000D01*
X-2810000Y2740000D02*
X-1290000Y4260000D01*
X-1290000Y8880000D02*
X-1470000Y9060000D01*
X-1707158Y9060000D02*
X-1990000Y9060000D01*
X-1470000Y9060000D02*
X-1707158Y9060000D01*
X-2090000Y2740000D02*
X-2810000Y2740000D01*
X-26380000Y4000000D02*
X-24460000Y4000000D01*
X-24460000Y4000000D02*
X-24300000Y4160000D01*
X-24190000Y4160000D02*
X-22570000Y4160000D01*
X-22570000Y4160000D02*
X-22560000Y4150000D01*
X-7010000Y4010000D02*
X-4080000Y4010000D01*
X-4080000Y4010000D02*
X-2810000Y2740000D01*
X-26460000Y10820000D02*
X-24710000Y10820000D01*
X-24710000Y10820000D02*
X-24700000Y10830000D01*
X-28260000Y10820000D02*
X-26460000Y10820000D01*
X-29980000Y10830000D02*
X-28270000Y10830000D01*
X-28270000Y10830000D02*
X-28260000Y10820000D01*
X-31810000Y10860000D02*
X-30010000Y10860000D01*
X-30010000Y10860000D02*
X-29980000Y10830000D01*
X-10874999Y7674999D02*
X-10650000Y7450000D01*
X-11370000Y9330000D02*
X-11370000Y8170000D01*
X-10331802Y7450000D02*
X-10650000Y7450000D01*
X-6359999Y10170001D02*
X-9080000Y7450000D01*
X-9080000Y7450000D02*
X-10331802Y7450000D01*
X-11370000Y8170000D02*
X-10874999Y7674999D01*
X-6359999Y14880001D02*
X-6359999Y10170001D01*
X-5510000Y15730000D02*
X-6359999Y14880001D01*
X-8050000Y15730000D02*
X-8050000Y10800000D01*
X-13200000Y9355000D02*
X-13200000Y9330000D01*
X-8050000Y10800000D02*
X-8770000Y10080000D01*
X-8770000Y10080000D02*
X-12475000Y10080000D01*
X-12475000Y10080000D02*
X-13200000Y9355000D01*
X-13200000Y9330000D02*
X-13200000Y7660000D01*
X-13600001Y7259999D02*
X-13800000Y7060000D01*
X-13200000Y7660000D02*
X-13600001Y7259999D01*
X-18220000Y8250000D02*
X-16035000Y8250000D01*
X-18410000Y8250000D02*
X-18220000Y8250000D01*
X-18440000Y8250000D02*
X-18440000Y8110000D01*
X-18440000Y8110000D02*
X-18440000Y5160000D01*
X-18220000Y8250000D02*
X-18300000Y8250000D01*
X-18300000Y8250000D02*
X-18440000Y8110000D01*
X-21907328Y11317880D02*
X-21907328Y11636078D01*
X-21907328Y10487328D02*
X-21907328Y11317880D01*
X-20710000Y9290000D02*
X-21907328Y10487328D01*
X-18410000Y8250000D02*
X-19450000Y9290000D01*
X-19450000Y9290000D02*
X-20710000Y9290000D01*
X-18410000Y8250000D02*
X-18410000Y8260000D01*
X-18410000Y8260000D02*
X-18420000Y8270000D01*
X-18420000Y8270000D02*
X-18440000Y8250000D01*
X-16035000Y8250000D02*
X-14980000Y9305000D01*
X-14980000Y9305000D02*
X-14980000Y9330000D01*
X-14990000Y9320000D02*
X-14990000Y9295000D01*
X-14990000Y9295000D02*
X-16035000Y8250000D01*
X-21592481Y12286071D02*
X-21910679Y12286071D01*
X-21496071Y12286071D02*
X-21592481Y12286071D01*
X-20500000Y11290000D02*
X-21496071Y12286071D01*
X-20500000Y10790000D02*
X-20500000Y11290000D01*
X-20500000Y10790000D02*
X-19190000Y10790000D01*
X-19190000Y10790000D02*
X-18440000Y10040000D01*
X-17770000Y9320000D02*
X-17770000Y9370000D01*
X-17770000Y9370000D02*
X-18440000Y10040000D01*
X-16750000Y9320000D02*
X-17770000Y9320000D01*
X-17770000Y9320000D02*
X-18510000Y10060000D01*
X-8280000Y9310000D02*
X-9400000Y9310000D01*
X-9400000Y9310000D02*
X-9420000Y9290000D01*
X-8446637Y3487461D02*
X-8446637Y3169263D01*
X-8999176Y4040000D02*
X-8446637Y3487461D01*
X-9290000Y4040000D02*
X-8999176Y4040000D01*
X-32615009Y8232982D02*
X-32840008Y8457981D01*
X-20560000Y5690000D02*
X-20560000Y5736989D01*
X-22463010Y7639999D02*
X-32022026Y7639999D01*
X-32022026Y7639999D02*
X-32615009Y8232982D01*
X-20560000Y5736989D02*
X-22463010Y7639999D01*
X-37440000Y7810000D02*
X-34625285Y7810000D01*
X-34625285Y7810000D02*
X-34164999Y8270286D01*
X-39030000Y6220000D02*
X-37440000Y7810000D01*
X-34164999Y8270286D02*
X-33940000Y8495285D01*
X-39030000Y3326011D02*
X-38033991Y2330002D01*
X-34210000Y3670000D02*
X-34210000Y4170000D01*
X-35549998Y2330002D02*
X-34210000Y3670000D01*
X-39030000Y3680000D02*
X-39030000Y3326011D01*
X-38033991Y2330002D02*
X-35549998Y2330002D01*
X-4500008Y13950008D02*
X-4545001Y13995001D01*
X-9290000Y5540000D02*
X-9090000Y5540000D01*
X-4500008Y10129992D02*
X-4500008Y13950008D01*
X-9090000Y5540000D02*
X-4500008Y10129992D01*
X-4545001Y13995001D02*
X-4770000Y14220000D01*
X-23410293Y13979993D02*
X-23870286Y13520000D01*
X-23870286Y13520000D02*
X-27160000Y13520000D01*
X-18210000Y15730000D02*
X-19960007Y13979993D01*
X-19960007Y13979993D02*
X-23410293Y13979993D01*
X-27160000Y13520000D02*
X-27245001Y13434999D01*
X-27245001Y13434999D02*
X-27470000Y13210000D01*
X-20750000Y15730000D02*
X-22050000Y14430000D01*
X-22050000Y14430000D02*
X-23602962Y14430000D01*
X-23602962Y14430000D02*
X-24062961Y13970001D01*
X-28259999Y13970001D02*
X-28340000Y13890000D01*
X-24062961Y13970001D02*
X-28259999Y13970001D01*
X-28340000Y13890000D02*
X-28380000Y13850000D01*
X-29732894Y13482892D02*
X-29957893Y13257893D01*
X-28795784Y14420002D02*
X-29732894Y13482892D01*
X-23290000Y15730000D02*
X-24599998Y14420002D01*
X-24599998Y14420002D02*
X-28795784Y14420002D01*
X-9320000Y6560000D02*
X-5294999Y10585001D01*
X-13523012Y6560000D02*
X-9320000Y6560000D01*
X-18008817Y2074195D02*
X-13523012Y6560000D01*
X-5294999Y10585001D02*
X-5070000Y10810000D01*
X-25714536Y2074195D02*
X-18008817Y2074195D01*
X-17570000Y1510000D02*
X-26050000Y1510000D01*
X-26050000Y1510000D02*
X-26070000Y1530000D01*
X-14220000Y4860000D02*
X-17570000Y1510000D01*
X-13354999Y5725001D02*
X-13130000Y5950000D01*
X-14220000Y4860000D02*
X-13354999Y5725001D01*
X-14220000Y4860000D02*
X-14369999Y4710001D01*
X-36700000Y10920000D02*
X-37480000Y10920000D01*
X-37580000Y8580000D02*
X-38370000Y7790000D01*
X-30650000Y1980000D02*
X-30660000Y1980000D01*
X-37480000Y10920000D02*
X-37580000Y10820000D01*
X-37580000Y10820000D02*
X-37580000Y8580000D01*
X-38370000Y7790000D02*
X-39540000Y7790000D01*
X-39540000Y7790000D02*
X-40310000Y7020000D01*
X-40310000Y7020000D02*
X-40310000Y3050000D01*
X-39140001Y1880001D02*
X-30749999Y1880001D01*
X-40310000Y3050000D02*
X-39140001Y1880001D01*
X-30749999Y1880001D02*
X-30650000Y1980000D01*
X-34500000Y9020000D02*
X-34490000Y9030000D01*
X-36700000Y9020000D02*
X-34500000Y9020000D01*
X-33390000Y7040000D02*
X-33300000Y6950000D01*
X-33300000Y6950000D02*
X-33300000Y3280000D01*
X-33300000Y3280000D02*
X-32450001Y2430001D01*
X-32450001Y2430001D02*
X-31600000Y2430001D01*
X-43350000Y10990000D02*
X-43350000Y10960000D01*
X-42670000Y10280000D02*
X-40080000Y10280000D01*
X-43350000Y10960000D02*
X-42670000Y10280000D01*
X-40080000Y10280000D02*
X-40069998Y10280000D01*
X-38900000Y9020000D02*
X-39710000Y9020000D01*
X-39710000Y9020000D02*
X-39775001Y8954999D01*
X-39775001Y8954999D02*
X-40000000Y8730000D01*
X-38670000Y12870000D02*
X-38670000Y11150000D01*
X-38670000Y11150000D02*
X-38900000Y10920000D01*
X-38670000Y12870000D02*
X-39680000Y12870000D01*
X-39680000Y12870000D02*
X-41550000Y11000000D01*
X-41550000Y11000000D02*
X-41550000Y10990000D01*
X-20650000Y3568198D02*
X-20650000Y3250000D01*
X-20650000Y4100000D02*
X-20650000Y3568198D01*
X-20560000Y4190000D02*
X-20650000Y4100000D01*
X-34210000Y7411296D02*
X-34210000Y6170000D01*
X-33390008Y8759282D02*
X-33390008Y8231288D01*
X-34189992Y9559266D02*
X-33390008Y8759282D01*
X-34210000Y6170000D02*
X-34210000Y5670000D01*
X-33530000Y13150000D02*
X-34189992Y12490008D01*
X-34189992Y12490008D02*
X-34189992Y9559266D01*
X-33390008Y8231288D02*
X-34210000Y7411296D01*
X-43350000Y8640000D02*
X-43525001Y8464999D01*
X-43350000Y9490000D02*
X-43350000Y8640000D01*
X-43525001Y8464999D02*
X-43750000Y8240000D01*
X-46990000Y7798198D02*
X-46990000Y7480000D01*
X-46990000Y10650000D02*
X-46990000Y7798198D01*
X-46050000Y12960000D02*
X-46050000Y11590000D01*
X-46050000Y11590000D02*
X-46990000Y10650000D01*
X-41640000Y9490000D02*
X-43580000Y7550000D01*
X-41440000Y9490000D02*
X-41640000Y9490000D01*
X-43580000Y7550000D02*
X-43600000Y7550000D01*
D22*
G36*
X-2843000Y327000D02*
X-2823000Y327000D01*
X-2823000Y73000D01*
X-2843000Y73000D01*
X-2843000Y53000D01*
X-3097000Y53000D01*
X-3097000Y73000D01*
X-3117000Y73000D01*
X-3117000Y327000D01*
X-3097000Y327000D01*
X-3097000Y347000D01*
X-2843000Y347000D01*
X-2843000Y327000D01*
X-2843000Y327000D01*
G37*
X-2843000Y327000D02*
X-2823000Y327000D01*
X-2823000Y73000D01*
X-2843000Y73000D01*
X-2843000Y53000D01*
X-3097000Y53000D01*
X-3097000Y73000D01*
X-3117000Y73000D01*
X-3117000Y327000D01*
X-3097000Y327000D01*
X-3097000Y347000D01*
X-2843000Y347000D01*
X-2843000Y327000D01*
G36*
X-10387440Y5790000D02*
X-10387440Y5290000D01*
X-10343162Y5054683D01*
X-10204090Y4838559D01*
X-10134289Y4790866D01*
X-10191441Y4754090D01*
X-10336431Y4541890D01*
X-10387440Y4290000D01*
X-10387440Y3790000D01*
X-10343162Y3554683D01*
X-10204090Y3338559D01*
X-9991890Y3193569D01*
X-9740000Y3142560D01*
X-9306660Y3142560D01*
X-9306786Y2998949D01*
X-9176134Y2682749D01*
X-8934424Y2440616D01*
X-8618452Y2309413D01*
X-8276323Y2309114D01*
X-7960123Y2439766D01*
X-7717990Y2681476D01*
X-7586787Y2997448D01*
X-7586782Y3003422D01*
X-7385000Y2962560D01*
X-6635000Y2962560D01*
X-6399683Y3006838D01*
X-6183559Y3145910D01*
X-6112437Y3250000D01*
X-4394802Y3250000D01*
X-4251210Y3106408D01*
X-4324093Y2740000D01*
X-4211054Y2171715D01*
X-3889147Y1689946D01*
X-3629207Y1516260D01*
X-3736924Y1471645D01*
X-4165183Y1081358D01*
X-4232298Y938447D01*
X-4459946Y1279147D01*
X-4941715Y1601054D01*
X-5510000Y1714093D01*
X-6078285Y1601054D01*
X-6560054Y1279147D01*
X-6780000Y949974D01*
X-6999946Y1279147D01*
X-7481715Y1601054D01*
X-8050000Y1714093D01*
X-8618285Y1601054D01*
X-9100054Y1279147D01*
X-9320000Y949974D01*
X-9539946Y1279147D01*
X-10021715Y1601054D01*
X-10590000Y1714093D01*
X-11158285Y1601054D01*
X-11640054Y1279147D01*
X-11860000Y949974D01*
X-12079946Y1279147D01*
X-12561715Y1601054D01*
X-13130000Y1714093D01*
X-13698285Y1601054D01*
X-14180054Y1279147D01*
X-14400000Y949974D01*
X-14619946Y1279147D01*
X-15101715Y1601054D01*
X-15670000Y1714093D01*
X-16238285Y1601054D01*
X-16720054Y1279147D01*
X-16940000Y949974D01*
X-16986152Y1019046D01*
X-12884126Y5121072D01*
X-12643486Y5220503D01*
X-12401353Y5462213D01*
X-12270150Y5778185D01*
X-12270131Y5800000D01*
X-10385415Y5800000D01*
X-10387440Y5790000D01*
X-10387440Y5790000D01*
G37*
X-10387440Y5790000D02*
X-10387440Y5290000D01*
X-10343162Y5054683D01*
X-10204090Y4838559D01*
X-10134289Y4790866D01*
X-10191441Y4754090D01*
X-10336431Y4541890D01*
X-10387440Y4290000D01*
X-10387440Y3790000D01*
X-10343162Y3554683D01*
X-10204090Y3338559D01*
X-9991890Y3193569D01*
X-9740000Y3142560D01*
X-9306660Y3142560D01*
X-9306786Y2998949D01*
X-9176134Y2682749D01*
X-8934424Y2440616D01*
X-8618452Y2309413D01*
X-8276323Y2309114D01*
X-7960123Y2439766D01*
X-7717990Y2681476D01*
X-7586787Y2997448D01*
X-7586782Y3003422D01*
X-7385000Y2962560D01*
X-6635000Y2962560D01*
X-6399683Y3006838D01*
X-6183559Y3145910D01*
X-6112437Y3250000D01*
X-4394802Y3250000D01*
X-4251210Y3106408D01*
X-4324093Y2740000D01*
X-4211054Y2171715D01*
X-3889147Y1689946D01*
X-3629207Y1516260D01*
X-3736924Y1471645D01*
X-4165183Y1081358D01*
X-4232298Y938447D01*
X-4459946Y1279147D01*
X-4941715Y1601054D01*
X-5510000Y1714093D01*
X-6078285Y1601054D01*
X-6560054Y1279147D01*
X-6780000Y949974D01*
X-6999946Y1279147D01*
X-7481715Y1601054D01*
X-8050000Y1714093D01*
X-8618285Y1601054D01*
X-9100054Y1279147D01*
X-9320000Y949974D01*
X-9539946Y1279147D01*
X-10021715Y1601054D01*
X-10590000Y1714093D01*
X-11158285Y1601054D01*
X-11640054Y1279147D01*
X-11860000Y949974D01*
X-12079946Y1279147D01*
X-12561715Y1601054D01*
X-13130000Y1714093D01*
X-13698285Y1601054D01*
X-14180054Y1279147D01*
X-14400000Y949974D01*
X-14619946Y1279147D01*
X-15101715Y1601054D01*
X-15670000Y1714093D01*
X-16238285Y1601054D01*
X-16720054Y1279147D01*
X-16940000Y949974D01*
X-16986152Y1019046D01*
X-12884126Y5121072D01*
X-12643486Y5220503D01*
X-12401353Y5462213D01*
X-12270150Y5778185D01*
X-12270131Y5800000D01*
X-10385415Y5800000D01*
X-10387440Y5790000D01*
G36*
X-27374090Y3223559D02*
X-27161890Y3078569D01*
X-27140000Y3074136D01*
X-27140000Y2680815D01*
X-27263243Y2557787D01*
X-27363815Y2315583D01*
X-27667401Y2011997D01*
X-27832148Y1765435D01*
X-27862443Y1613134D01*
X-28336478Y1707425D01*
X-28307861Y1750253D01*
X-28250009Y2041092D01*
X-28250009Y2680189D01*
X-28042599Y2887599D01*
X-27934567Y3049280D01*
X-27814683Y3071838D01*
X-27598559Y3210910D01*
X-27543872Y3290948D01*
X-27509161Y3297852D01*
X-27448135Y3338628D01*
X-27374090Y3223559D01*
X-27374090Y3223559D01*
G37*
X-27374090Y3223559D02*
X-27161890Y3078569D01*
X-27140000Y3074136D01*
X-27140000Y2680815D01*
X-27263243Y2557787D01*
X-27363815Y2315583D01*
X-27667401Y2011997D01*
X-27832148Y1765435D01*
X-27862443Y1613134D01*
X-28336478Y1707425D01*
X-28307861Y1750253D01*
X-28250009Y2041092D01*
X-28250009Y2680189D01*
X-28042599Y2887599D01*
X-27934567Y3049280D01*
X-27814683Y3071838D01*
X-27598559Y3210910D01*
X-27543872Y3290948D01*
X-27509161Y3297852D01*
X-27448135Y3338628D01*
X-27374090Y3223559D01*
G36*
X-40860149Y8559686D02*
X-40729497Y8243486D01*
X-40487787Y8001353D01*
X-40428194Y7976608D01*
X-40817661Y7587141D01*
X-41195110Y7743476D01*
X-41425000Y7622155D01*
X-41425000Y6429000D01*
X-41405000Y6429000D01*
X-41405000Y6175000D01*
X-41425000Y6175000D01*
X-41425000Y3889000D01*
X-41405000Y3889000D01*
X-41405000Y3635000D01*
X-41425000Y3635000D01*
X-41425000Y2441845D01*
X-41195110Y2320524D01*
X-40813418Y2478616D01*
X-40524802Y2190000D01*
X-42220200Y2190000D01*
X-43265001Y3234801D01*
X-43265001Y3405108D01*
X-42993486Y3405108D01*
X-42747183Y2880642D01*
X-42318924Y2490355D01*
X-41908890Y2320524D01*
X-41679000Y2441845D01*
X-41679000Y3635000D01*
X-42872819Y3635000D01*
X-42993486Y3405108D01*
X-43265001Y3405108D01*
X-43265001Y5415001D01*
X-43322853Y5705840D01*
X-43482726Y5945108D01*
X-42993486Y5945108D01*
X-42747183Y5420642D01*
X-42320729Y5032000D01*
X-42747183Y4643358D01*
X-42993486Y4118892D01*
X-42872819Y3889000D01*
X-41679000Y3889000D01*
X-41679000Y6175000D01*
X-42872819Y6175000D01*
X-42993486Y5945108D01*
X-43482726Y5945108D01*
X-43487600Y5952402D01*
X-43780000Y6244802D01*
X-43780000Y6658892D01*
X-42993486Y6658892D01*
X-42872819Y6429000D01*
X-41679000Y6429000D01*
X-41679000Y7622155D01*
X-41908890Y7743476D01*
X-42318924Y7573645D01*
X-42747183Y7183358D01*
X-42993486Y6658892D01*
X-43780000Y6658892D01*
X-43780000Y6693549D01*
X-43771815Y6690150D01*
X-43429686Y6689851D01*
X-43113486Y6820503D01*
X-42871353Y7062213D01*
X-42784983Y7270215D01*
X-41462638Y8592560D01*
X-40990000Y8592560D01*
X-40860099Y8617003D01*
X-40860149Y8559686D01*
X-40860149Y8559686D01*
G37*
X-40860149Y8559686D02*
X-40729497Y8243486D01*
X-40487787Y8001353D01*
X-40428194Y7976608D01*
X-40817661Y7587141D01*
X-41195110Y7743476D01*
X-41425000Y7622155D01*
X-41425000Y6429000D01*
X-41405000Y6429000D01*
X-41405000Y6175000D01*
X-41425000Y6175000D01*
X-41425000Y3889000D01*
X-41405000Y3889000D01*
X-41405000Y3635000D01*
X-41425000Y3635000D01*
X-41425000Y2441845D01*
X-41195110Y2320524D01*
X-40813418Y2478616D01*
X-40524802Y2190000D01*
X-42220200Y2190000D01*
X-43265001Y3234801D01*
X-43265001Y3405108D01*
X-42993486Y3405108D01*
X-42747183Y2880642D01*
X-42318924Y2490355D01*
X-41908890Y2320524D01*
X-41679000Y2441845D01*
X-41679000Y3635000D01*
X-42872819Y3635000D01*
X-42993486Y3405108D01*
X-43265001Y3405108D01*
X-43265001Y5415001D01*
X-43322853Y5705840D01*
X-43482726Y5945108D01*
X-42993486Y5945108D01*
X-42747183Y5420642D01*
X-42320729Y5032000D01*
X-42747183Y4643358D01*
X-42993486Y4118892D01*
X-42872819Y3889000D01*
X-41679000Y3889000D01*
X-41679000Y6175000D01*
X-42872819Y6175000D01*
X-42993486Y5945108D01*
X-43482726Y5945108D01*
X-43487600Y5952402D01*
X-43780000Y6244802D01*
X-43780000Y6658892D01*
X-42993486Y6658892D01*
X-42872819Y6429000D01*
X-41679000Y6429000D01*
X-41679000Y7622155D01*
X-41908890Y7743476D01*
X-42318924Y7573645D01*
X-42747183Y7183358D01*
X-42993486Y6658892D01*
X-43780000Y6658892D01*
X-43780000Y6693549D01*
X-43771815Y6690150D01*
X-43429686Y6689851D01*
X-43113486Y6820503D01*
X-42871353Y7062213D01*
X-42784983Y7270215D01*
X-41462638Y8592560D01*
X-40990000Y8592560D01*
X-40860099Y8617003D01*
X-40860149Y8559686D01*
G36*
X-31361250Y4257000D02*
X-30637000Y4257000D01*
X-30637000Y4277000D01*
X-30383000Y4277000D01*
X-30383000Y4257000D01*
X-30363000Y4257000D01*
X-30363000Y4003000D01*
X-30383000Y4003000D01*
X-30383000Y3253750D01*
X-30224250Y3095000D01*
X-30008690Y3095000D01*
X-29775301Y3191673D01*
X-29719858Y3247117D01*
X-29770009Y2994991D01*
X-29770009Y2355894D01*
X-29851234Y2274669D01*
X-29930503Y2466514D01*
X-30172213Y2708647D01*
X-30488185Y2839850D01*
X-30830314Y2840149D01*
X-30837690Y2837101D01*
X-30870503Y2916515D01*
X-31075019Y3121389D01*
X-31011310Y3095000D01*
X-30795750Y3095000D01*
X-30637000Y3253750D01*
X-30637000Y4003000D01*
X-31361250Y4003000D01*
X-31435000Y3929250D01*
X-31508750Y4003000D01*
X-32233000Y4003000D01*
X-32233000Y3983000D01*
X-32487000Y3983000D01*
X-32487000Y4003000D01*
X-32507000Y4003000D01*
X-32507000Y4257000D01*
X-32487000Y4257000D01*
X-32487000Y4277000D01*
X-32233000Y4277000D01*
X-32233000Y4257000D01*
X-31508750Y4257000D01*
X-31435000Y4330750D01*
X-31361250Y4257000D01*
X-31361250Y4257000D01*
G37*
X-31361250Y4257000D02*
X-30637000Y4257000D01*
X-30637000Y4277000D01*
X-30383000Y4277000D01*
X-30383000Y4257000D01*
X-30363000Y4257000D01*
X-30363000Y4003000D01*
X-30383000Y4003000D01*
X-30383000Y3253750D01*
X-30224250Y3095000D01*
X-30008690Y3095000D01*
X-29775301Y3191673D01*
X-29719858Y3247117D01*
X-29770009Y2994991D01*
X-29770009Y2355894D01*
X-29851234Y2274669D01*
X-29930503Y2466514D01*
X-30172213Y2708647D01*
X-30488185Y2839850D01*
X-30830314Y2840149D01*
X-30837690Y2837101D01*
X-30870503Y2916515D01*
X-31075019Y3121389D01*
X-31011310Y3095000D01*
X-30795750Y3095000D01*
X-30637000Y3253750D01*
X-30637000Y4003000D01*
X-31361250Y4003000D01*
X-31435000Y3929250D01*
X-31508750Y4003000D01*
X-32233000Y4003000D01*
X-32233000Y3983000D01*
X-32487000Y3983000D01*
X-32487000Y4003000D01*
X-32507000Y4003000D01*
X-32507000Y4257000D01*
X-32487000Y4257000D01*
X-32487000Y4277000D01*
X-32233000Y4277000D01*
X-32233000Y4257000D01*
X-31508750Y4257000D01*
X-31435000Y4330750D01*
X-31361250Y4257000D01*
G36*
X-3889147Y9309946D02*
X-3559974Y9090000D01*
X-3889147Y8870054D01*
X-4211054Y8388285D01*
X-4324093Y7820000D01*
X-4211054Y7251715D01*
X-3889147Y6769946D01*
X-3559974Y6550000D01*
X-3889147Y6330054D01*
X-4211054Y5848285D01*
X-4324093Y5280000D01*
X-4222648Y4770000D01*
X-6088514Y4770000D01*
X-6000000Y4983691D01*
X-6000000Y5224250D01*
X-6158750Y5383000D01*
X-6883000Y5383000D01*
X-6883000Y5363000D01*
X-7137000Y5363000D01*
X-7137000Y5383000D01*
X-7861250Y5383000D01*
X-8020000Y5224250D01*
X-8020000Y4983691D01*
X-7923327Y4750302D01*
X-7921957Y4748932D01*
X-7981431Y4661890D01*
X-8032440Y4410000D01*
X-8032440Y4148066D01*
X-8196775Y4312401D01*
X-8236838Y4525317D01*
X-8375910Y4741441D01*
X-8445711Y4789134D01*
X-8388559Y4825910D01*
X-8243569Y5038110D01*
X-8192560Y5290000D01*
X-8192560Y5362638D01*
X-7889724Y5665474D01*
X-7861250Y5637000D01*
X-7137000Y5637000D01*
X-7137000Y6386250D01*
X-6883000Y6386250D01*
X-6883000Y5637000D01*
X-6158750Y5637000D01*
X-6000000Y5795750D01*
X-6000000Y6036309D01*
X-6096673Y6269698D01*
X-6275301Y6448327D01*
X-6508690Y6545000D01*
X-6724250Y6545000D01*
X-6883000Y6386250D01*
X-7137000Y6386250D01*
X-7152974Y6402224D01*
X-4031782Y9523416D01*
X-3889147Y9309946D01*
X-3889147Y9309946D01*
G37*
X-3889147Y9309946D02*
X-3559974Y9090000D01*
X-3889147Y8870054D01*
X-4211054Y8388285D01*
X-4324093Y7820000D01*
X-4211054Y7251715D01*
X-3889147Y6769946D01*
X-3559974Y6550000D01*
X-3889147Y6330054D01*
X-4211054Y5848285D01*
X-4324093Y5280000D01*
X-4222648Y4770000D01*
X-6088514Y4770000D01*
X-6000000Y4983691D01*
X-6000000Y5224250D01*
X-6158750Y5383000D01*
X-6883000Y5383000D01*
X-6883000Y5363000D01*
X-7137000Y5363000D01*
X-7137000Y5383000D01*
X-7861250Y5383000D01*
X-8020000Y5224250D01*
X-8020000Y4983691D01*
X-7923327Y4750302D01*
X-7921957Y4748932D01*
X-7981431Y4661890D01*
X-8032440Y4410000D01*
X-8032440Y4148066D01*
X-8196775Y4312401D01*
X-8236838Y4525317D01*
X-8375910Y4741441D01*
X-8445711Y4789134D01*
X-8388559Y4825910D01*
X-8243569Y5038110D01*
X-8192560Y5290000D01*
X-8192560Y5362638D01*
X-7889724Y5665474D01*
X-7861250Y5637000D01*
X-7137000Y5637000D01*
X-7137000Y6386250D01*
X-6883000Y6386250D01*
X-6883000Y5637000D01*
X-6158750Y5637000D01*
X-6000000Y5795750D01*
X-6000000Y6036309D01*
X-6096673Y6269698D01*
X-6275301Y6448327D01*
X-6508690Y6545000D01*
X-6724250Y6545000D01*
X-6883000Y6386250D01*
X-7137000Y6386250D01*
X-7152974Y6402224D01*
X-4031782Y9523416D01*
X-3889147Y9309946D01*
G36*
X-25310000Y5133691D02*
X-25213327Y4900302D01*
X-25211957Y4898932D01*
X-25271431Y4811890D01*
X-25281939Y4760000D01*
X-25375331Y4760000D01*
X-25385910Y4776441D01*
X-25598110Y4921431D01*
X-25735120Y4949176D01*
X-25614683Y4971838D01*
X-25398559Y5110910D01*
X-25310000Y5240520D01*
X-25310000Y5133691D01*
X-25310000Y5133691D01*
G37*
X-25310000Y5133691D02*
X-25213327Y4900302D01*
X-25211957Y4898932D01*
X-25271431Y4811890D01*
X-25281939Y4760000D01*
X-25375331Y4760000D01*
X-25385910Y4776441D01*
X-25598110Y4921431D01*
X-25735120Y4949176D01*
X-25614683Y4971838D01*
X-25398559Y5110910D01*
X-25310000Y5240520D01*
X-25310000Y5133691D01*
G36*
X-22582813Y6685000D02*
X-22687002Y6685000D01*
X-22687002Y6526252D01*
X-22845750Y6685000D01*
X-23061310Y6685000D01*
X-23294699Y6588327D01*
X-23425000Y6458025D01*
X-23565301Y6598327D01*
X-23798690Y6695000D01*
X-24014250Y6695000D01*
X-24173000Y6536250D01*
X-24173000Y5787000D01*
X-23448750Y5787000D01*
X-23435000Y5800750D01*
X-23411250Y5777000D01*
X-22687000Y5777000D01*
X-22687000Y5797000D01*
X-22433000Y5797000D01*
X-22433000Y5777000D01*
X-22413000Y5777000D01*
X-22413000Y5523000D01*
X-22433000Y5523000D01*
X-22433000Y5503000D01*
X-22687000Y5503000D01*
X-22687000Y5523000D01*
X-23411250Y5523000D01*
X-23425000Y5509250D01*
X-23448750Y5533000D01*
X-24173000Y5533000D01*
X-24173000Y5513000D01*
X-24427000Y5513000D01*
X-24427000Y5533000D01*
X-24447000Y5533000D01*
X-24447000Y5787000D01*
X-24427000Y5787000D01*
X-24427000Y6536250D01*
X-24585750Y6695000D01*
X-24801310Y6695000D01*
X-25034699Y6598327D01*
X-25213327Y6419698D01*
X-25231115Y6376755D01*
X-25246838Y6460317D01*
X-25385910Y6676441D01*
X-25598110Y6821431D01*
X-25850000Y6872440D01*
X-26287638Y6872440D01*
X-26295197Y6879999D01*
X-22777812Y6879999D01*
X-22582813Y6685000D01*
X-22582813Y6685000D01*
G37*
X-22582813Y6685000D02*
X-22687002Y6685000D01*
X-22687002Y6526252D01*
X-22845750Y6685000D01*
X-23061310Y6685000D01*
X-23294699Y6588327D01*
X-23425000Y6458025D01*
X-23565301Y6598327D01*
X-23798690Y6695000D01*
X-24014250Y6695000D01*
X-24173000Y6536250D01*
X-24173000Y5787000D01*
X-23448750Y5787000D01*
X-23435000Y5800750D01*
X-23411250Y5777000D01*
X-22687000Y5777000D01*
X-22687000Y5797000D01*
X-22433000Y5797000D01*
X-22433000Y5777000D01*
X-22413000Y5777000D01*
X-22413000Y5523000D01*
X-22433000Y5523000D01*
X-22433000Y5503000D01*
X-22687000Y5503000D01*
X-22687000Y5523000D01*
X-23411250Y5523000D01*
X-23425000Y5509250D01*
X-23448750Y5533000D01*
X-24173000Y5533000D01*
X-24173000Y5513000D01*
X-24427000Y5513000D01*
X-24427000Y5533000D01*
X-24447000Y5533000D01*
X-24447000Y5787000D01*
X-24427000Y5787000D01*
X-24427000Y6536250D01*
X-24585750Y6695000D01*
X-24801310Y6695000D01*
X-25034699Y6598327D01*
X-25213327Y6419698D01*
X-25231115Y6376755D01*
X-25246838Y6460317D01*
X-25385910Y6676441D01*
X-25598110Y6821431D01*
X-25850000Y6872440D01*
X-26287638Y6872440D01*
X-26295197Y6879999D01*
X-22777812Y6879999D01*
X-22582813Y6685000D01*
G36*
X-21597440Y9102637D02*
X-21597440Y9040000D01*
X-21553162Y8804683D01*
X-21414090Y8588559D01*
X-21201890Y8443569D01*
X-20950000Y8392560D01*
X-20050000Y8392560D01*
X-19814683Y8436838D01*
X-19727646Y8492844D01*
X-19200000Y7965198D01*
X-19200000Y6344547D01*
X-19223515Y6334831D01*
X-19505227Y6053610D01*
X-19516838Y6115317D01*
X-19655910Y6331441D01*
X-19868110Y6476431D01*
X-20120000Y6527440D01*
X-20275649Y6527440D01*
X-21925609Y8177400D01*
X-22172171Y8342147D01*
X-22187504Y8345197D01*
X-22075301Y8391673D01*
X-21896673Y8570302D01*
X-21800000Y8803691D01*
X-21800000Y9044250D01*
X-21958748Y9202998D01*
X-21800000Y9202998D01*
X-21800000Y9305198D01*
X-21597440Y9102637D01*
X-21597440Y9102637D01*
G37*
X-21597440Y9102637D02*
X-21597440Y9040000D01*
X-21553162Y8804683D01*
X-21414090Y8588559D01*
X-21201890Y8443569D01*
X-20950000Y8392560D01*
X-20050000Y8392560D01*
X-19814683Y8436838D01*
X-19727646Y8492844D01*
X-19200000Y7965198D01*
X-19200000Y6344547D01*
X-19223515Y6334831D01*
X-19505227Y6053610D01*
X-19516838Y6115317D01*
X-19655910Y6331441D01*
X-19868110Y6476431D01*
X-20120000Y6527440D01*
X-20275649Y6527440D01*
X-21925609Y8177400D01*
X-22172171Y8342147D01*
X-22187504Y8345197D01*
X-22075301Y8391673D01*
X-21896673Y8570302D01*
X-21800000Y8803691D01*
X-21800000Y9044250D01*
X-21958748Y9202998D01*
X-21800000Y9202998D01*
X-21800000Y9305198D01*
X-21597440Y9102637D01*
G36*
X-27311250Y9447000D02*
X-26587000Y9447000D01*
X-26587000Y9467000D01*
X-26333000Y9467000D01*
X-26333000Y9447000D01*
X-25608750Y9447000D01*
X-25575000Y9480750D01*
X-25551250Y9457000D01*
X-24827000Y9457000D01*
X-24827000Y9477000D01*
X-24573000Y9477000D01*
X-24573000Y9457000D01*
X-24553000Y9457000D01*
X-24553000Y9203000D01*
X-24573000Y9203000D01*
X-24573000Y9183000D01*
X-24827000Y9183000D01*
X-24827000Y9203000D01*
X-25551250Y9203000D01*
X-25585000Y9169250D01*
X-25608750Y9193000D01*
X-26333000Y9193000D01*
X-26333000Y9173000D01*
X-26587000Y9173000D01*
X-26587000Y9193000D01*
X-27311250Y9193000D01*
X-27360000Y9144250D01*
X-27408750Y9193000D01*
X-28133000Y9193000D01*
X-28133000Y9173000D01*
X-28387000Y9173000D01*
X-28387000Y9193000D01*
X-29111250Y9193000D01*
X-29115000Y9189250D01*
X-29128750Y9203000D01*
X-29853000Y9203000D01*
X-29853000Y9183000D01*
X-30107000Y9183000D01*
X-30107000Y9203000D01*
X-30127000Y9203000D01*
X-30127000Y9457000D01*
X-30107000Y9457000D01*
X-30107000Y9477000D01*
X-29853000Y9477000D01*
X-29853000Y9457000D01*
X-29128750Y9457000D01*
X-29125000Y9460750D01*
X-29111250Y9447000D01*
X-28387000Y9447000D01*
X-28387000Y9467000D01*
X-28133000Y9467000D01*
X-28133000Y9447000D01*
X-27408750Y9447000D01*
X-27360000Y9495750D01*
X-27311250Y9447000D01*
X-27311250Y9447000D01*
G37*
X-27311250Y9447000D02*
X-26587000Y9447000D01*
X-26587000Y9467000D01*
X-26333000Y9467000D01*
X-26333000Y9447000D01*
X-25608750Y9447000D01*
X-25575000Y9480750D01*
X-25551250Y9457000D01*
X-24827000Y9457000D01*
X-24827000Y9477000D01*
X-24573000Y9477000D01*
X-24573000Y9457000D01*
X-24553000Y9457000D01*
X-24553000Y9203000D01*
X-24573000Y9203000D01*
X-24573000Y9183000D01*
X-24827000Y9183000D01*
X-24827000Y9203000D01*
X-25551250Y9203000D01*
X-25585000Y9169250D01*
X-25608750Y9193000D01*
X-26333000Y9193000D01*
X-26333000Y9173000D01*
X-26587000Y9173000D01*
X-26587000Y9193000D01*
X-27311250Y9193000D01*
X-27360000Y9144250D01*
X-27408750Y9193000D01*
X-28133000Y9193000D01*
X-28133000Y9173000D01*
X-28387000Y9173000D01*
X-28387000Y9193000D01*
X-29111250Y9193000D01*
X-29115000Y9189250D01*
X-29128750Y9203000D01*
X-29853000Y9203000D01*
X-29853000Y9183000D01*
X-30107000Y9183000D01*
X-30107000Y9203000D01*
X-30127000Y9203000D01*
X-30127000Y9457000D01*
X-30107000Y9457000D01*
X-30107000Y9477000D01*
X-29853000Y9477000D01*
X-29853000Y9457000D01*
X-29128750Y9457000D01*
X-29125000Y9460750D01*
X-29111250Y9447000D01*
X-28387000Y9447000D01*
X-28387000Y9467000D01*
X-28133000Y9467000D01*
X-28133000Y9447000D01*
X-27408750Y9447000D01*
X-27360000Y9495750D01*
X-27311250Y9447000D01*
G36*
X-22683000Y9457000D02*
X-22663000Y9457000D01*
X-22663000Y9203000D01*
X-22683000Y9203000D01*
X-22683000Y9183000D01*
X-22937000Y9183000D01*
X-22937000Y9203000D01*
X-22957000Y9203000D01*
X-22957000Y9457000D01*
X-22937000Y9457000D01*
X-22937000Y9477000D01*
X-22683000Y9477000D01*
X-22683000Y9457000D01*
X-22683000Y9457000D01*
G37*
X-22683000Y9457000D02*
X-22663000Y9457000D01*
X-22663000Y9203000D01*
X-22683000Y9203000D01*
X-22683000Y9183000D01*
X-22937000Y9183000D01*
X-22937000Y9203000D01*
X-22957000Y9203000D01*
X-22957000Y9457000D01*
X-22937000Y9457000D01*
X-22937000Y9477000D01*
X-22683000Y9477000D01*
X-22683000Y9457000D01*
G36*
X-9100054Y14620853D02*
X-8810000Y14427046D01*
X-8810000Y11661045D01*
X-8843690Y11675000D01*
X-9134250Y11675000D01*
X-9293000Y11516250D01*
X-9293000Y10915000D01*
X-9273000Y10915000D01*
X-9273000Y10840000D01*
X-9567000Y10840000D01*
X-9567000Y10915000D01*
X-9547000Y10915000D01*
X-9547000Y11516250D01*
X-9705750Y11675000D01*
X-9996310Y11675000D01*
X-10229699Y11578327D01*
X-10386863Y11421162D01*
X-10456673Y11589698D01*
X-10635301Y11768327D01*
X-10868690Y11865000D01*
X-11084250Y11865000D01*
X-11243000Y11706250D01*
X-11243000Y10957000D01*
X-11223000Y10957000D01*
X-11223000Y10840000D01*
X-11517000Y10840000D01*
X-11517000Y10957000D01*
X-11497000Y10957000D01*
X-11497000Y11706250D01*
X-11655750Y11865000D01*
X-11871310Y11865000D01*
X-12104699Y11768327D01*
X-12283327Y11589698D01*
X-12285000Y11585659D01*
X-12286673Y11589698D01*
X-12465301Y11768327D01*
X-12698690Y11865000D01*
X-12914250Y11865000D01*
X-13073000Y11706250D01*
X-13073000Y10957000D01*
X-13053000Y10957000D01*
X-13053000Y10703000D01*
X-13073000Y10703000D01*
X-13073000Y10683000D01*
X-13327000Y10683000D01*
X-13327000Y10703000D01*
X-14051250Y10703000D01*
X-14090000Y10664250D01*
X-14128750Y10703000D01*
X-14853000Y10703000D01*
X-14853000Y10683000D01*
X-15107000Y10683000D01*
X-15107000Y10703000D01*
X-15831250Y10703000D01*
X-15845000Y10689250D01*
X-15858750Y10703000D01*
X-16583000Y10703000D01*
X-16583000Y10683000D01*
X-16837000Y10683000D01*
X-16837000Y10703000D01*
X-16857000Y10703000D01*
X-16857000Y10957000D01*
X-16837000Y10957000D01*
X-16837000Y11706250D01*
X-16583000Y11706250D01*
X-16583000Y10957000D01*
X-15858750Y10957000D01*
X-15845000Y10970750D01*
X-15831250Y10957000D01*
X-15107000Y10957000D01*
X-15107000Y11706250D01*
X-14853000Y11706250D01*
X-14853000Y10957000D01*
X-14128750Y10957000D01*
X-14090000Y10995750D01*
X-14051250Y10957000D01*
X-13327000Y10957000D01*
X-13327000Y11706250D01*
X-13485750Y11865000D01*
X-13701310Y11865000D01*
X-13934699Y11768327D01*
X-14090000Y11613025D01*
X-14245301Y11768327D01*
X-14478690Y11865000D01*
X-14694250Y11865000D01*
X-14853000Y11706250D01*
X-15107000Y11706250D01*
X-15265750Y11865000D01*
X-15481310Y11865000D01*
X-15714699Y11768327D01*
X-15845000Y11638025D01*
X-15975301Y11768327D01*
X-16208690Y11865000D01*
X-16424250Y11865000D01*
X-16583000Y11706250D01*
X-16837000Y11706250D01*
X-16995750Y11865000D01*
X-17211310Y11865000D01*
X-17444699Y11768327D01*
X-17623327Y11589698D01*
X-17720000Y11356309D01*
X-17720000Y11240686D01*
X-18163298Y11424759D01*
X-18714285Y11425240D01*
X-18766646Y11403605D01*
X-18899161Y11492148D01*
X-19190000Y11550000D01*
X-19671614Y11550000D01*
X-19798110Y11636431D01*
X-19840770Y11645070D01*
X-19962599Y11827401D01*
X-20355190Y12219992D01*
X-13680008Y12219992D01*
X-13389169Y12277844D01*
X-13142607Y12442591D01*
X-11302599Y14282599D01*
X-11250504Y14360565D01*
X-11158285Y14298946D01*
X-10590000Y14185907D01*
X-10021715Y14298946D01*
X-9539946Y14620853D01*
X-9320000Y14950026D01*
X-9100054Y14620853D01*
X-9100054Y14620853D01*
G37*
X-9100054Y14620853D02*
X-8810000Y14427046D01*
X-8810000Y11661045D01*
X-8843690Y11675000D01*
X-9134250Y11675000D01*
X-9293000Y11516250D01*
X-9293000Y10915000D01*
X-9273000Y10915000D01*
X-9273000Y10840000D01*
X-9567000Y10840000D01*
X-9567000Y10915000D01*
X-9547000Y10915000D01*
X-9547000Y11516250D01*
X-9705750Y11675000D01*
X-9996310Y11675000D01*
X-10229699Y11578327D01*
X-10386863Y11421162D01*
X-10456673Y11589698D01*
X-10635301Y11768327D01*
X-10868690Y11865000D01*
X-11084250Y11865000D01*
X-11243000Y11706250D01*
X-11243000Y10957000D01*
X-11223000Y10957000D01*
X-11223000Y10840000D01*
X-11517000Y10840000D01*
X-11517000Y10957000D01*
X-11497000Y10957000D01*
X-11497000Y11706250D01*
X-11655750Y11865000D01*
X-11871310Y11865000D01*
X-12104699Y11768327D01*
X-12283327Y11589698D01*
X-12285000Y11585659D01*
X-12286673Y11589698D01*
X-12465301Y11768327D01*
X-12698690Y11865000D01*
X-12914250Y11865000D01*
X-13073000Y11706250D01*
X-13073000Y10957000D01*
X-13053000Y10957000D01*
X-13053000Y10703000D01*
X-13073000Y10703000D01*
X-13073000Y10683000D01*
X-13327000Y10683000D01*
X-13327000Y10703000D01*
X-14051250Y10703000D01*
X-14090000Y10664250D01*
X-14128750Y10703000D01*
X-14853000Y10703000D01*
X-14853000Y10683000D01*
X-15107000Y10683000D01*
X-15107000Y10703000D01*
X-15831250Y10703000D01*
X-15845000Y10689250D01*
X-15858750Y10703000D01*
X-16583000Y10703000D01*
X-16583000Y10683000D01*
X-16837000Y10683000D01*
X-16837000Y10703000D01*
X-16857000Y10703000D01*
X-16857000Y10957000D01*
X-16837000Y10957000D01*
X-16837000Y11706250D01*
X-16583000Y11706250D01*
X-16583000Y10957000D01*
X-15858750Y10957000D01*
X-15845000Y10970750D01*
X-15831250Y10957000D01*
X-15107000Y10957000D01*
X-15107000Y11706250D01*
X-14853000Y11706250D01*
X-14853000Y10957000D01*
X-14128750Y10957000D01*
X-14090000Y10995750D01*
X-14051250Y10957000D01*
X-13327000Y10957000D01*
X-13327000Y11706250D01*
X-13485750Y11865000D01*
X-13701310Y11865000D01*
X-13934699Y11768327D01*
X-14090000Y11613025D01*
X-14245301Y11768327D01*
X-14478690Y11865000D01*
X-14694250Y11865000D01*
X-14853000Y11706250D01*
X-15107000Y11706250D01*
X-15265750Y11865000D01*
X-15481310Y11865000D01*
X-15714699Y11768327D01*
X-15845000Y11638025D01*
X-15975301Y11768327D01*
X-16208690Y11865000D01*
X-16424250Y11865000D01*
X-16583000Y11706250D01*
X-16837000Y11706250D01*
X-16995750Y11865000D01*
X-17211310Y11865000D01*
X-17444699Y11768327D01*
X-17623327Y11589698D01*
X-17720000Y11356309D01*
X-17720000Y11240686D01*
X-18163298Y11424759D01*
X-18714285Y11425240D01*
X-18766646Y11403605D01*
X-18899161Y11492148D01*
X-19190000Y11550000D01*
X-19671614Y11550000D01*
X-19798110Y11636431D01*
X-19840770Y11645070D01*
X-19962599Y11827401D01*
X-20355190Y12219992D01*
X-13680008Y12219992D01*
X-13389169Y12277844D01*
X-13142607Y12442591D01*
X-11302599Y14282599D01*
X-11250504Y14360565D01*
X-11158285Y14298946D01*
X-10590000Y14185907D01*
X-10021715Y14298946D01*
X-9539946Y14620853D01*
X-9320000Y14950026D01*
X-9100054Y14620853D01*
G36*
X-2683000Y13027000D02*
X-2663000Y13027000D01*
X-2663000Y12773000D01*
X-2683000Y12773000D01*
X-2683000Y12753000D01*
X-2937000Y12753000D01*
X-2937000Y12773000D01*
X-2957000Y12773000D01*
X-2957000Y13027000D01*
X-2937000Y13027000D01*
X-2937000Y13047000D01*
X-2683000Y13047000D01*
X-2683000Y13027000D01*
X-2683000Y13027000D01*
G37*
X-2683000Y13027000D02*
X-2663000Y13027000D01*
X-2663000Y12773000D01*
X-2683000Y12773000D01*
X-2683000Y12753000D01*
X-2937000Y12753000D01*
X-2937000Y12773000D01*
X-2957000Y12773000D01*
X-2957000Y13027000D01*
X-2937000Y13027000D01*
X-2937000Y13047000D01*
X-2683000Y13047000D01*
X-2683000Y13027000D01*
G36*
X-47425000Y13087000D02*
X-47403000Y13087000D01*
X-47403000Y12833000D01*
X-47425000Y12833000D01*
X-47425000Y12813000D01*
X-47675000Y12813000D01*
X-47675000Y12833000D01*
X-47697000Y12833000D01*
X-47697000Y13087000D01*
X-47675000Y13087000D01*
X-47675000Y13107000D01*
X-47425000Y13107000D01*
X-47425000Y13087000D01*
X-47425000Y13087000D01*
G37*
X-47425000Y13087000D02*
X-47403000Y13087000D01*
X-47403000Y12833000D01*
X-47425000Y12833000D01*
X-47425000Y12813000D01*
X-47675000Y12813000D01*
X-47675000Y12833000D01*
X-47697000Y12833000D01*
X-47697000Y13087000D01*
X-47675000Y13087000D01*
X-47675000Y13107000D01*
X-47425000Y13107000D01*
X-47425000Y13087000D01*
G36*
X-14180054Y14620853D02*
X-13698285Y14298946D01*
X-13479396Y14255406D01*
X-13994810Y13739992D01*
X-19125206Y13739992D01*
X-18601431Y14263767D01*
X-18210000Y14185907D01*
X-17641715Y14298946D01*
X-17159946Y14620853D01*
X-16940000Y14950026D01*
X-16720054Y14620853D01*
X-16238285Y14298946D01*
X-15670000Y14185907D01*
X-15101715Y14298946D01*
X-14619946Y14620853D01*
X-14400000Y14950026D01*
X-14180054Y14620853D01*
X-14180054Y14620853D01*
G37*
X-14180054Y14620853D02*
X-13698285Y14298946D01*
X-13479396Y14255406D01*
X-13994810Y13739992D01*
X-19125206Y13739992D01*
X-18601431Y14263767D01*
X-18210000Y14185907D01*
X-17641715Y14298946D01*
X-17159946Y14620853D01*
X-16940000Y14950026D01*
X-16720054Y14620853D01*
X-16238285Y14298946D01*
X-15670000Y14185907D01*
X-15101715Y14298946D01*
X-14619946Y14620853D01*
X-14400000Y14950026D01*
X-14180054Y14620853D01*
G36*
X708000Y17121758D02*
X671890Y17146431D01*
X420000Y17197440D01*
X-1280000Y17197440D01*
X-1425298Y17170100D01*
X-2242598Y17987400D01*
X-2489160Y18152147D01*
X-2779999Y18209999D01*
X-10850001Y18209999D01*
X-11140840Y18152147D01*
X-11387402Y17987400D01*
X-12377401Y16997401D01*
X-12386409Y16983919D01*
X-12561715Y17101054D01*
X-13130000Y17214093D01*
X-13698285Y17101054D01*
X-14180054Y16779147D01*
X-14400000Y16449974D01*
X-14619946Y16779147D01*
X-15101715Y17101054D01*
X-15670000Y17214093D01*
X-16238285Y17101054D01*
X-16720054Y16779147D01*
X-16940000Y16449974D01*
X-17159946Y16779147D01*
X-17641715Y17101054D01*
X-18210000Y17214093D01*
X-18778285Y17101054D01*
X-19260054Y16779147D01*
X-19480000Y16449974D01*
X-19699946Y16779147D01*
X-20181715Y17101054D01*
X-20750000Y17214093D01*
X-21318285Y17101054D01*
X-21800054Y16779147D01*
X-22020000Y16449974D01*
X-22239946Y16779147D01*
X-22721715Y17101054D01*
X-23290000Y17214093D01*
X-23858285Y17101054D01*
X-24340054Y16779147D01*
X-24560000Y16449974D01*
X-24779946Y16779147D01*
X-25261715Y17101054D01*
X-25830000Y17214093D01*
X-26398285Y17101054D01*
X-26880054Y16779147D01*
X-27100000Y16449974D01*
X-27319946Y16779147D01*
X-27801715Y17101054D01*
X-28370000Y17214093D01*
X-28938285Y17101054D01*
X-29420054Y16779147D01*
X-29640000Y16449974D01*
X-29859946Y16779147D01*
X-30341715Y17101054D01*
X-30910000Y17214093D01*
X-31478285Y17101054D01*
X-31960054Y16779147D01*
X-32180000Y16449974D01*
X-32399946Y16779147D01*
X-32881715Y17101054D01*
X-33450000Y17214093D01*
X-34018285Y17101054D01*
X-34500054Y16779147D01*
X-34720000Y16449974D01*
X-34939946Y16779147D01*
X-35421715Y17101054D01*
X-35990000Y17214093D01*
X-36558285Y17101054D01*
X-37040054Y16779147D01*
X-37260000Y16449974D01*
X-37479946Y16779147D01*
X-37961715Y17101054D01*
X-38530000Y17214093D01*
X-39098285Y17101054D01*
X-39580054Y16779147D01*
X-39800000Y16449974D01*
X-40019946Y16779147D01*
X-40501715Y17101054D01*
X-41070000Y17214093D01*
X-41638285Y17101054D01*
X-42120054Y16779147D01*
X-42340000Y16449974D01*
X-42559946Y16779147D01*
X-43041715Y17101054D01*
X-43610000Y17214093D01*
X-44178285Y17101054D01*
X-44660054Y16779147D01*
X-44887702Y16438447D01*
X-44954817Y16581358D01*
X-45383076Y16971645D01*
X-45793110Y17141476D01*
X-46023000Y17020155D01*
X-46023000Y15827000D01*
X-46003000Y15827000D01*
X-46003000Y15573000D01*
X-46023000Y15573000D01*
X-46023000Y15553000D01*
X-46277000Y15553000D01*
X-46277000Y15573000D01*
X-48563000Y15573000D01*
X-48563000Y15553000D01*
X-48817000Y15553000D01*
X-48817000Y15573000D01*
X-48837000Y15573000D01*
X-48837000Y15827000D01*
X-48817000Y15827000D01*
X-48817000Y17020155D01*
X-48563000Y17020155D01*
X-48563000Y15827000D01*
X-46277000Y15827000D01*
X-46277000Y17020155D01*
X-46506890Y17141476D01*
X-46916924Y16971645D01*
X-47345183Y16581358D01*
X-47420000Y16422046D01*
X-47494817Y16581358D01*
X-47923076Y16971645D01*
X-48333110Y17141476D01*
X-48563000Y17020155D01*
X-48817000Y17020155D01*
X-49046890Y17141476D01*
X-49456924Y16971645D01*
X-49872000Y16593372D01*
X-49872000Y18602000D01*
X708000Y18602000D01*
X708000Y17121758D01*
X708000Y17121758D01*
G37*
X708000Y17121758D02*
X671890Y17146431D01*
X420000Y17197440D01*
X-1280000Y17197440D01*
X-1425298Y17170100D01*
X-2242598Y17987400D01*
X-2489160Y18152147D01*
X-2779999Y18209999D01*
X-10850001Y18209999D01*
X-11140840Y18152147D01*
X-11387402Y17987400D01*
X-12377401Y16997401D01*
X-12386409Y16983919D01*
X-12561715Y17101054D01*
X-13130000Y17214093D01*
X-13698285Y17101054D01*
X-14180054Y16779147D01*
X-14400000Y16449974D01*
X-14619946Y16779147D01*
X-15101715Y17101054D01*
X-15670000Y17214093D01*
X-16238285Y17101054D01*
X-16720054Y16779147D01*
X-16940000Y16449974D01*
X-17159946Y16779147D01*
X-17641715Y17101054D01*
X-18210000Y17214093D01*
X-18778285Y17101054D01*
X-19260054Y16779147D01*
X-19480000Y16449974D01*
X-19699946Y16779147D01*
X-20181715Y17101054D01*
X-20750000Y17214093D01*
X-21318285Y17101054D01*
X-21800054Y16779147D01*
X-22020000Y16449974D01*
X-22239946Y16779147D01*
X-22721715Y17101054D01*
X-23290000Y17214093D01*
X-23858285Y17101054D01*
X-24340054Y16779147D01*
X-24560000Y16449974D01*
X-24779946Y16779147D01*
X-25261715Y17101054D01*
X-25830000Y17214093D01*
X-26398285Y17101054D01*
X-26880054Y16779147D01*
X-27100000Y16449974D01*
X-27319946Y16779147D01*
X-27801715Y17101054D01*
X-28370000Y17214093D01*
X-28938285Y17101054D01*
X-29420054Y16779147D01*
X-29640000Y16449974D01*
X-29859946Y16779147D01*
X-30341715Y17101054D01*
X-30910000Y17214093D01*
X-31478285Y17101054D01*
X-31960054Y16779147D01*
X-32180000Y16449974D01*
X-32399946Y16779147D01*
X-32881715Y17101054D01*
X-33450000Y17214093D01*
X-34018285Y17101054D01*
X-34500054Y16779147D01*
X-34720000Y16449974D01*
X-34939946Y16779147D01*
X-35421715Y17101054D01*
X-35990000Y17214093D01*
X-36558285Y17101054D01*
X-37040054Y16779147D01*
X-37260000Y16449974D01*
X-37479946Y16779147D01*
X-37961715Y17101054D01*
X-38530000Y17214093D01*
X-39098285Y17101054D01*
X-39580054Y16779147D01*
X-39800000Y16449974D01*
X-40019946Y16779147D01*
X-40501715Y17101054D01*
X-41070000Y17214093D01*
X-41638285Y17101054D01*
X-42120054Y16779147D01*
X-42340000Y16449974D01*
X-42559946Y16779147D01*
X-43041715Y17101054D01*
X-43610000Y17214093D01*
X-44178285Y17101054D01*
X-44660054Y16779147D01*
X-44887702Y16438447D01*
X-44954817Y16581358D01*
X-45383076Y16971645D01*
X-45793110Y17141476D01*
X-46023000Y17020155D01*
X-46023000Y15827000D01*
X-46003000Y15827000D01*
X-46003000Y15573000D01*
X-46023000Y15573000D01*
X-46023000Y15553000D01*
X-46277000Y15553000D01*
X-46277000Y15573000D01*
X-48563000Y15573000D01*
X-48563000Y15553000D01*
X-48817000Y15553000D01*
X-48817000Y15573000D01*
X-48837000Y15573000D01*
X-48837000Y15827000D01*
X-48817000Y15827000D01*
X-48817000Y17020155D01*
X-48563000Y17020155D01*
X-48563000Y15827000D01*
X-46277000Y15827000D01*
X-46277000Y17020155D01*
X-46506890Y17141476D01*
X-46916924Y16971645D01*
X-47345183Y16581358D01*
X-47420000Y16422046D01*
X-47494817Y16581358D01*
X-47923076Y16971645D01*
X-48333110Y17141476D01*
X-48563000Y17020155D01*
X-48817000Y17020155D01*
X-49046890Y17141476D01*
X-49456924Y16971645D01*
X-49872000Y16593372D01*
X-49872000Y18602000D01*
X708000Y18602000D01*
X708000Y17121758D01*
G36*
X-2843000Y327000D02*
X-2823000Y327000D01*
X-2823000Y73000D01*
X-2843000Y73000D01*
X-2843000Y53000D01*
X-3097000Y53000D01*
X-3097000Y73000D01*
X-3117000Y73000D01*
X-3117000Y327000D01*
X-3097000Y327000D01*
X-3097000Y347000D01*
X-2843000Y347000D01*
X-2843000Y327000D01*
X-2843000Y327000D01*
G37*
X-2843000Y327000D02*
X-2823000Y327000D01*
X-2823000Y73000D01*
X-2843000Y73000D01*
X-2843000Y53000D01*
X-3097000Y53000D01*
X-3097000Y73000D01*
X-3117000Y73000D01*
X-3117000Y327000D01*
X-3097000Y327000D01*
X-3097000Y347000D01*
X-2843000Y347000D01*
X-2843000Y327000D01*
G36*
X-10387440Y5790000D02*
X-10387440Y5290000D01*
X-10343162Y5054683D01*
X-10204090Y4838559D01*
X-10134289Y4790866D01*
X-10191441Y4754090D01*
X-10336431Y4541890D01*
X-10387440Y4290000D01*
X-10387440Y3790000D01*
X-10343162Y3554683D01*
X-10204090Y3338559D01*
X-9991890Y3193569D01*
X-9740000Y3142560D01*
X-9306660Y3142560D01*
X-9306786Y2998949D01*
X-9176134Y2682749D01*
X-8934424Y2440616D01*
X-8618452Y2309413D01*
X-8276323Y2309114D01*
X-7960123Y2439766D01*
X-7717990Y2681476D01*
X-7586787Y2997448D01*
X-7586782Y3003422D01*
X-7385000Y2962560D01*
X-6635000Y2962560D01*
X-6399683Y3006838D01*
X-6183559Y3145910D01*
X-6112437Y3250000D01*
X-4394802Y3250000D01*
X-4251210Y3106408D01*
X-4324093Y2740000D01*
X-4211054Y2171715D01*
X-3889147Y1689946D01*
X-3629207Y1516260D01*
X-3736924Y1471645D01*
X-4165183Y1081358D01*
X-4232298Y938447D01*
X-4459946Y1279147D01*
X-4941715Y1601054D01*
X-5510000Y1714093D01*
X-6078285Y1601054D01*
X-6560054Y1279147D01*
X-6780000Y949974D01*
X-6999946Y1279147D01*
X-7481715Y1601054D01*
X-8050000Y1714093D01*
X-8618285Y1601054D01*
X-9100054Y1279147D01*
X-9320000Y949974D01*
X-9539946Y1279147D01*
X-10021715Y1601054D01*
X-10590000Y1714093D01*
X-11158285Y1601054D01*
X-11640054Y1279147D01*
X-11860000Y949974D01*
X-12079946Y1279147D01*
X-12561715Y1601054D01*
X-13130000Y1714093D01*
X-13698285Y1601054D01*
X-14180054Y1279147D01*
X-14400000Y949974D01*
X-14619946Y1279147D01*
X-15101715Y1601054D01*
X-15670000Y1714093D01*
X-16238285Y1601054D01*
X-16720054Y1279147D01*
X-16940000Y949974D01*
X-16986152Y1019046D01*
X-12884126Y5121072D01*
X-12643486Y5220503D01*
X-12401353Y5462213D01*
X-12270150Y5778185D01*
X-12270131Y5800000D01*
X-10385415Y5800000D01*
X-10387440Y5790000D01*
X-10387440Y5790000D01*
G37*
X-10387440Y5790000D02*
X-10387440Y5290000D01*
X-10343162Y5054683D01*
X-10204090Y4838559D01*
X-10134289Y4790866D01*
X-10191441Y4754090D01*
X-10336431Y4541890D01*
X-10387440Y4290000D01*
X-10387440Y3790000D01*
X-10343162Y3554683D01*
X-10204090Y3338559D01*
X-9991890Y3193569D01*
X-9740000Y3142560D01*
X-9306660Y3142560D01*
X-9306786Y2998949D01*
X-9176134Y2682749D01*
X-8934424Y2440616D01*
X-8618452Y2309413D01*
X-8276323Y2309114D01*
X-7960123Y2439766D01*
X-7717990Y2681476D01*
X-7586787Y2997448D01*
X-7586782Y3003422D01*
X-7385000Y2962560D01*
X-6635000Y2962560D01*
X-6399683Y3006838D01*
X-6183559Y3145910D01*
X-6112437Y3250000D01*
X-4394802Y3250000D01*
X-4251210Y3106408D01*
X-4324093Y2740000D01*
X-4211054Y2171715D01*
X-3889147Y1689946D01*
X-3629207Y1516260D01*
X-3736924Y1471645D01*
X-4165183Y1081358D01*
X-4232298Y938447D01*
X-4459946Y1279147D01*
X-4941715Y1601054D01*
X-5510000Y1714093D01*
X-6078285Y1601054D01*
X-6560054Y1279147D01*
X-6780000Y949974D01*
X-6999946Y1279147D01*
X-7481715Y1601054D01*
X-8050000Y1714093D01*
X-8618285Y1601054D01*
X-9100054Y1279147D01*
X-9320000Y949974D01*
X-9539946Y1279147D01*
X-10021715Y1601054D01*
X-10590000Y1714093D01*
X-11158285Y1601054D01*
X-11640054Y1279147D01*
X-11860000Y949974D01*
X-12079946Y1279147D01*
X-12561715Y1601054D01*
X-13130000Y1714093D01*
X-13698285Y1601054D01*
X-14180054Y1279147D01*
X-14400000Y949974D01*
X-14619946Y1279147D01*
X-15101715Y1601054D01*
X-15670000Y1714093D01*
X-16238285Y1601054D01*
X-16720054Y1279147D01*
X-16940000Y949974D01*
X-16986152Y1019046D01*
X-12884126Y5121072D01*
X-12643486Y5220503D01*
X-12401353Y5462213D01*
X-12270150Y5778185D01*
X-12270131Y5800000D01*
X-10385415Y5800000D01*
X-10387440Y5790000D01*
G36*
X-27374090Y3223559D02*
X-27161890Y3078569D01*
X-27140000Y3074136D01*
X-27140000Y2680815D01*
X-27263243Y2557787D01*
X-27363815Y2315583D01*
X-27667401Y2011997D01*
X-27832148Y1765435D01*
X-27862443Y1613134D01*
X-28336478Y1707425D01*
X-28307861Y1750253D01*
X-28250009Y2041092D01*
X-28250009Y2680189D01*
X-28042599Y2887599D01*
X-27934567Y3049280D01*
X-27814683Y3071838D01*
X-27598559Y3210910D01*
X-27543872Y3290948D01*
X-27509161Y3297852D01*
X-27448135Y3338628D01*
X-27374090Y3223559D01*
X-27374090Y3223559D01*
G37*
X-27374090Y3223559D02*
X-27161890Y3078569D01*
X-27140000Y3074136D01*
X-27140000Y2680815D01*
X-27263243Y2557787D01*
X-27363815Y2315583D01*
X-27667401Y2011997D01*
X-27832148Y1765435D01*
X-27862443Y1613134D01*
X-28336478Y1707425D01*
X-28307861Y1750253D01*
X-28250009Y2041092D01*
X-28250009Y2680189D01*
X-28042599Y2887599D01*
X-27934567Y3049280D01*
X-27814683Y3071838D01*
X-27598559Y3210910D01*
X-27543872Y3290948D01*
X-27509161Y3297852D01*
X-27448135Y3338628D01*
X-27374090Y3223559D01*
G36*
X-40860149Y8559686D02*
X-40729497Y8243486D01*
X-40487787Y8001353D01*
X-40428194Y7976608D01*
X-40817661Y7587141D01*
X-41195110Y7743476D01*
X-41425000Y7622155D01*
X-41425000Y6429000D01*
X-41405000Y6429000D01*
X-41405000Y6175000D01*
X-41425000Y6175000D01*
X-41425000Y3889000D01*
X-41405000Y3889000D01*
X-41405000Y3635000D01*
X-41425000Y3635000D01*
X-41425000Y2441845D01*
X-41195110Y2320524D01*
X-40813418Y2478616D01*
X-40524802Y2190000D01*
X-42220200Y2190000D01*
X-43265001Y3234801D01*
X-43265001Y3405108D01*
X-42993486Y3405108D01*
X-42747183Y2880642D01*
X-42318924Y2490355D01*
X-41908890Y2320524D01*
X-41679000Y2441845D01*
X-41679000Y3635000D01*
X-42872819Y3635000D01*
X-42993486Y3405108D01*
X-43265001Y3405108D01*
X-43265001Y5415001D01*
X-43322853Y5705840D01*
X-43482726Y5945108D01*
X-42993486Y5945108D01*
X-42747183Y5420642D01*
X-42320729Y5032000D01*
X-42747183Y4643358D01*
X-42993486Y4118892D01*
X-42872819Y3889000D01*
X-41679000Y3889000D01*
X-41679000Y6175000D01*
X-42872819Y6175000D01*
X-42993486Y5945108D01*
X-43482726Y5945108D01*
X-43487600Y5952402D01*
X-43780000Y6244802D01*
X-43780000Y6658892D01*
X-42993486Y6658892D01*
X-42872819Y6429000D01*
X-41679000Y6429000D01*
X-41679000Y7622155D01*
X-41908890Y7743476D01*
X-42318924Y7573645D01*
X-42747183Y7183358D01*
X-42993486Y6658892D01*
X-43780000Y6658892D01*
X-43780000Y6693549D01*
X-43771815Y6690150D01*
X-43429686Y6689851D01*
X-43113486Y6820503D01*
X-42871353Y7062213D01*
X-42784983Y7270215D01*
X-41462638Y8592560D01*
X-40990000Y8592560D01*
X-40860099Y8617003D01*
X-40860149Y8559686D01*
X-40860149Y8559686D01*
G37*
X-40860149Y8559686D02*
X-40729497Y8243486D01*
X-40487787Y8001353D01*
X-40428194Y7976608D01*
X-40817661Y7587141D01*
X-41195110Y7743476D01*
X-41425000Y7622155D01*
X-41425000Y6429000D01*
X-41405000Y6429000D01*
X-41405000Y6175000D01*
X-41425000Y6175000D01*
X-41425000Y3889000D01*
X-41405000Y3889000D01*
X-41405000Y3635000D01*
X-41425000Y3635000D01*
X-41425000Y2441845D01*
X-41195110Y2320524D01*
X-40813418Y2478616D01*
X-40524802Y2190000D01*
X-42220200Y2190000D01*
X-43265001Y3234801D01*
X-43265001Y3405108D01*
X-42993486Y3405108D01*
X-42747183Y2880642D01*
X-42318924Y2490355D01*
X-41908890Y2320524D01*
X-41679000Y2441845D01*
X-41679000Y3635000D01*
X-42872819Y3635000D01*
X-42993486Y3405108D01*
X-43265001Y3405108D01*
X-43265001Y5415001D01*
X-43322853Y5705840D01*
X-43482726Y5945108D01*
X-42993486Y5945108D01*
X-42747183Y5420642D01*
X-42320729Y5032000D01*
X-42747183Y4643358D01*
X-42993486Y4118892D01*
X-42872819Y3889000D01*
X-41679000Y3889000D01*
X-41679000Y6175000D01*
X-42872819Y6175000D01*
X-42993486Y5945108D01*
X-43482726Y5945108D01*
X-43487600Y5952402D01*
X-43780000Y6244802D01*
X-43780000Y6658892D01*
X-42993486Y6658892D01*
X-42872819Y6429000D01*
X-41679000Y6429000D01*
X-41679000Y7622155D01*
X-41908890Y7743476D01*
X-42318924Y7573645D01*
X-42747183Y7183358D01*
X-42993486Y6658892D01*
X-43780000Y6658892D01*
X-43780000Y6693549D01*
X-43771815Y6690150D01*
X-43429686Y6689851D01*
X-43113486Y6820503D01*
X-42871353Y7062213D01*
X-42784983Y7270215D01*
X-41462638Y8592560D01*
X-40990000Y8592560D01*
X-40860099Y8617003D01*
X-40860149Y8559686D01*
G36*
X-31361250Y4257000D02*
X-30637000Y4257000D01*
X-30637000Y4277000D01*
X-30383000Y4277000D01*
X-30383000Y4257000D01*
X-30363000Y4257000D01*
X-30363000Y4003000D01*
X-30383000Y4003000D01*
X-30383000Y3253750D01*
X-30224250Y3095000D01*
X-30008690Y3095000D01*
X-29775301Y3191673D01*
X-29719858Y3247117D01*
X-29770009Y2994991D01*
X-29770009Y2355894D01*
X-29851234Y2274669D01*
X-29930503Y2466514D01*
X-30172213Y2708647D01*
X-30488185Y2839850D01*
X-30830314Y2840149D01*
X-30837690Y2837101D01*
X-30870503Y2916515D01*
X-31075019Y3121389D01*
X-31011310Y3095000D01*
X-30795750Y3095000D01*
X-30637000Y3253750D01*
X-30637000Y4003000D01*
X-31361250Y4003000D01*
X-31435000Y3929250D01*
X-31508750Y4003000D01*
X-32233000Y4003000D01*
X-32233000Y3983000D01*
X-32487000Y3983000D01*
X-32487000Y4003000D01*
X-32507000Y4003000D01*
X-32507000Y4257000D01*
X-32487000Y4257000D01*
X-32487000Y4277000D01*
X-32233000Y4277000D01*
X-32233000Y4257000D01*
X-31508750Y4257000D01*
X-31435000Y4330750D01*
X-31361250Y4257000D01*
X-31361250Y4257000D01*
G37*
X-31361250Y4257000D02*
X-30637000Y4257000D01*
X-30637000Y4277000D01*
X-30383000Y4277000D01*
X-30383000Y4257000D01*
X-30363000Y4257000D01*
X-30363000Y4003000D01*
X-30383000Y4003000D01*
X-30383000Y3253750D01*
X-30224250Y3095000D01*
X-30008690Y3095000D01*
X-29775301Y3191673D01*
X-29719858Y3247117D01*
X-29770009Y2994991D01*
X-29770009Y2355894D01*
X-29851234Y2274669D01*
X-29930503Y2466514D01*
X-30172213Y2708647D01*
X-30488185Y2839850D01*
X-30830314Y2840149D01*
X-30837690Y2837101D01*
X-30870503Y2916515D01*
X-31075019Y3121389D01*
X-31011310Y3095000D01*
X-30795750Y3095000D01*
X-30637000Y3253750D01*
X-30637000Y4003000D01*
X-31361250Y4003000D01*
X-31435000Y3929250D01*
X-31508750Y4003000D01*
X-32233000Y4003000D01*
X-32233000Y3983000D01*
X-32487000Y3983000D01*
X-32487000Y4003000D01*
X-32507000Y4003000D01*
X-32507000Y4257000D01*
X-32487000Y4257000D01*
X-32487000Y4277000D01*
X-32233000Y4277000D01*
X-32233000Y4257000D01*
X-31508750Y4257000D01*
X-31435000Y4330750D01*
X-31361250Y4257000D01*
G36*
X-3889147Y9309946D02*
X-3559974Y9090000D01*
X-3889147Y8870054D01*
X-4211054Y8388285D01*
X-4324093Y7820000D01*
X-4211054Y7251715D01*
X-3889147Y6769946D01*
X-3559974Y6550000D01*
X-3889147Y6330054D01*
X-4211054Y5848285D01*
X-4324093Y5280000D01*
X-4222648Y4770000D01*
X-6088514Y4770000D01*
X-6000000Y4983691D01*
X-6000000Y5224250D01*
X-6158750Y5383000D01*
X-6883000Y5383000D01*
X-6883000Y5363000D01*
X-7137000Y5363000D01*
X-7137000Y5383000D01*
X-7861250Y5383000D01*
X-8020000Y5224250D01*
X-8020000Y4983691D01*
X-7923327Y4750302D01*
X-7921957Y4748932D01*
X-7981431Y4661890D01*
X-8032440Y4410000D01*
X-8032440Y4148066D01*
X-8196775Y4312401D01*
X-8236838Y4525317D01*
X-8375910Y4741441D01*
X-8445711Y4789134D01*
X-8388559Y4825910D01*
X-8243569Y5038110D01*
X-8192560Y5290000D01*
X-8192560Y5362638D01*
X-7889724Y5665474D01*
X-7861250Y5637000D01*
X-7137000Y5637000D01*
X-7137000Y6386250D01*
X-6883000Y6386250D01*
X-6883000Y5637000D01*
X-6158750Y5637000D01*
X-6000000Y5795750D01*
X-6000000Y6036309D01*
X-6096673Y6269698D01*
X-6275301Y6448327D01*
X-6508690Y6545000D01*
X-6724250Y6545000D01*
X-6883000Y6386250D01*
X-7137000Y6386250D01*
X-7152974Y6402224D01*
X-4031782Y9523416D01*
X-3889147Y9309946D01*
X-3889147Y9309946D01*
G37*
X-3889147Y9309946D02*
X-3559974Y9090000D01*
X-3889147Y8870054D01*
X-4211054Y8388285D01*
X-4324093Y7820000D01*
X-4211054Y7251715D01*
X-3889147Y6769946D01*
X-3559974Y6550000D01*
X-3889147Y6330054D01*
X-4211054Y5848285D01*
X-4324093Y5280000D01*
X-4222648Y4770000D01*
X-6088514Y4770000D01*
X-6000000Y4983691D01*
X-6000000Y5224250D01*
X-6158750Y5383000D01*
X-6883000Y5383000D01*
X-6883000Y5363000D01*
X-7137000Y5363000D01*
X-7137000Y5383000D01*
X-7861250Y5383000D01*
X-8020000Y5224250D01*
X-8020000Y4983691D01*
X-7923327Y4750302D01*
X-7921957Y4748932D01*
X-7981431Y4661890D01*
X-8032440Y4410000D01*
X-8032440Y4148066D01*
X-8196775Y4312401D01*
X-8236838Y4525317D01*
X-8375910Y4741441D01*
X-8445711Y4789134D01*
X-8388559Y4825910D01*
X-8243569Y5038110D01*
X-8192560Y5290000D01*
X-8192560Y5362638D01*
X-7889724Y5665474D01*
X-7861250Y5637000D01*
X-7137000Y5637000D01*
X-7137000Y6386250D01*
X-6883000Y6386250D01*
X-6883000Y5637000D01*
X-6158750Y5637000D01*
X-6000000Y5795750D01*
X-6000000Y6036309D01*
X-6096673Y6269698D01*
X-6275301Y6448327D01*
X-6508690Y6545000D01*
X-6724250Y6545000D01*
X-6883000Y6386250D01*
X-7137000Y6386250D01*
X-7152974Y6402224D01*
X-4031782Y9523416D01*
X-3889147Y9309946D01*
G36*
X-25310000Y5133691D02*
X-25213327Y4900302D01*
X-25211957Y4898932D01*
X-25271431Y4811890D01*
X-25281939Y4760000D01*
X-25375331Y4760000D01*
X-25385910Y4776441D01*
X-25598110Y4921431D01*
X-25735120Y4949176D01*
X-25614683Y4971838D01*
X-25398559Y5110910D01*
X-25310000Y5240520D01*
X-25310000Y5133691D01*
X-25310000Y5133691D01*
G37*
X-25310000Y5133691D02*
X-25213327Y4900302D01*
X-25211957Y4898932D01*
X-25271431Y4811890D01*
X-25281939Y4760000D01*
X-25375331Y4760000D01*
X-25385910Y4776441D01*
X-25598110Y4921431D01*
X-25735120Y4949176D01*
X-25614683Y4971838D01*
X-25398559Y5110910D01*
X-25310000Y5240520D01*
X-25310000Y5133691D01*
G36*
X-22582813Y6685000D02*
X-22687002Y6685000D01*
X-22687002Y6526252D01*
X-22845750Y6685000D01*
X-23061310Y6685000D01*
X-23294699Y6588327D01*
X-23425000Y6458025D01*
X-23565301Y6598327D01*
X-23798690Y6695000D01*
X-24014250Y6695000D01*
X-24173000Y6536250D01*
X-24173000Y5787000D01*
X-23448750Y5787000D01*
X-23435000Y5800750D01*
X-23411250Y5777000D01*
X-22687000Y5777000D01*
X-22687000Y5797000D01*
X-22433000Y5797000D01*
X-22433000Y5777000D01*
X-22413000Y5777000D01*
X-22413000Y5523000D01*
X-22433000Y5523000D01*
X-22433000Y5503000D01*
X-22687000Y5503000D01*
X-22687000Y5523000D01*
X-23411250Y5523000D01*
X-23425000Y5509250D01*
X-23448750Y5533000D01*
X-24173000Y5533000D01*
X-24173000Y5513000D01*
X-24427000Y5513000D01*
X-24427000Y5533000D01*
X-24447000Y5533000D01*
X-24447000Y5787000D01*
X-24427000Y5787000D01*
X-24427000Y6536250D01*
X-24585750Y6695000D01*
X-24801310Y6695000D01*
X-25034699Y6598327D01*
X-25213327Y6419698D01*
X-25231115Y6376755D01*
X-25246838Y6460317D01*
X-25385910Y6676441D01*
X-25598110Y6821431D01*
X-25850000Y6872440D01*
X-26287638Y6872440D01*
X-26295197Y6879999D01*
X-22777812Y6879999D01*
X-22582813Y6685000D01*
X-22582813Y6685000D01*
G37*
X-22582813Y6685000D02*
X-22687002Y6685000D01*
X-22687002Y6526252D01*
X-22845750Y6685000D01*
X-23061310Y6685000D01*
X-23294699Y6588327D01*
X-23425000Y6458025D01*
X-23565301Y6598327D01*
X-23798690Y6695000D01*
X-24014250Y6695000D01*
X-24173000Y6536250D01*
X-24173000Y5787000D01*
X-23448750Y5787000D01*
X-23435000Y5800750D01*
X-23411250Y5777000D01*
X-22687000Y5777000D01*
X-22687000Y5797000D01*
X-22433000Y5797000D01*
X-22433000Y5777000D01*
X-22413000Y5777000D01*
X-22413000Y5523000D01*
X-22433000Y5523000D01*
X-22433000Y5503000D01*
X-22687000Y5503000D01*
X-22687000Y5523000D01*
X-23411250Y5523000D01*
X-23425000Y5509250D01*
X-23448750Y5533000D01*
X-24173000Y5533000D01*
X-24173000Y5513000D01*
X-24427000Y5513000D01*
X-24427000Y5533000D01*
X-24447000Y5533000D01*
X-24447000Y5787000D01*
X-24427000Y5787000D01*
X-24427000Y6536250D01*
X-24585750Y6695000D01*
X-24801310Y6695000D01*
X-25034699Y6598327D01*
X-25213327Y6419698D01*
X-25231115Y6376755D01*
X-25246838Y6460317D01*
X-25385910Y6676441D01*
X-25598110Y6821431D01*
X-25850000Y6872440D01*
X-26287638Y6872440D01*
X-26295197Y6879999D01*
X-22777812Y6879999D01*
X-22582813Y6685000D01*
G36*
X-21597440Y9102637D02*
X-21597440Y9040000D01*
X-21553162Y8804683D01*
X-21414090Y8588559D01*
X-21201890Y8443569D01*
X-20950000Y8392560D01*
X-20050000Y8392560D01*
X-19814683Y8436838D01*
X-19727646Y8492844D01*
X-19200000Y7965198D01*
X-19200000Y6344547D01*
X-19223515Y6334831D01*
X-19505227Y6053610D01*
X-19516838Y6115317D01*
X-19655910Y6331441D01*
X-19868110Y6476431D01*
X-20120000Y6527440D01*
X-20275649Y6527440D01*
X-21925609Y8177400D01*
X-22172171Y8342147D01*
X-22187504Y8345197D01*
X-22075301Y8391673D01*
X-21896673Y8570302D01*
X-21800000Y8803691D01*
X-21800000Y9044250D01*
X-21958748Y9202998D01*
X-21800000Y9202998D01*
X-21800000Y9305198D01*
X-21597440Y9102637D01*
X-21597440Y9102637D01*
G37*
X-21597440Y9102637D02*
X-21597440Y9040000D01*
X-21553162Y8804683D01*
X-21414090Y8588559D01*
X-21201890Y8443569D01*
X-20950000Y8392560D01*
X-20050000Y8392560D01*
X-19814683Y8436838D01*
X-19727646Y8492844D01*
X-19200000Y7965198D01*
X-19200000Y6344547D01*
X-19223515Y6334831D01*
X-19505227Y6053610D01*
X-19516838Y6115317D01*
X-19655910Y6331441D01*
X-19868110Y6476431D01*
X-20120000Y6527440D01*
X-20275649Y6527440D01*
X-21925609Y8177400D01*
X-22172171Y8342147D01*
X-22187504Y8345197D01*
X-22075301Y8391673D01*
X-21896673Y8570302D01*
X-21800000Y8803691D01*
X-21800000Y9044250D01*
X-21958748Y9202998D01*
X-21800000Y9202998D01*
X-21800000Y9305198D01*
X-21597440Y9102637D01*
G36*
X-27311250Y9447000D02*
X-26587000Y9447000D01*
X-26587000Y9467000D01*
X-26333000Y9467000D01*
X-26333000Y9447000D01*
X-25608750Y9447000D01*
X-25575000Y9480750D01*
X-25551250Y9457000D01*
X-24827000Y9457000D01*
X-24827000Y9477000D01*
X-24573000Y9477000D01*
X-24573000Y9457000D01*
X-24553000Y9457000D01*
X-24553000Y9203000D01*
X-24573000Y9203000D01*
X-24573000Y9183000D01*
X-24827000Y9183000D01*
X-24827000Y9203000D01*
X-25551250Y9203000D01*
X-25585000Y9169250D01*
X-25608750Y9193000D01*
X-26333000Y9193000D01*
X-26333000Y9173000D01*
X-26587000Y9173000D01*
X-26587000Y9193000D01*
X-27311250Y9193000D01*
X-27360000Y9144250D01*
X-27408750Y9193000D01*
X-28133000Y9193000D01*
X-28133000Y9173000D01*
X-28387000Y9173000D01*
X-28387000Y9193000D01*
X-29111250Y9193000D01*
X-29115000Y9189250D01*
X-29128750Y9203000D01*
X-29853000Y9203000D01*
X-29853000Y9183000D01*
X-30107000Y9183000D01*
X-30107000Y9203000D01*
X-30127000Y9203000D01*
X-30127000Y9457000D01*
X-30107000Y9457000D01*
X-30107000Y9477000D01*
X-29853000Y9477000D01*
X-29853000Y9457000D01*
X-29128750Y9457000D01*
X-29125000Y9460750D01*
X-29111250Y9447000D01*
X-28387000Y9447000D01*
X-28387000Y9467000D01*
X-28133000Y9467000D01*
X-28133000Y9447000D01*
X-27408750Y9447000D01*
X-27360000Y9495750D01*
X-27311250Y9447000D01*
X-27311250Y9447000D01*
G37*
X-27311250Y9447000D02*
X-26587000Y9447000D01*
X-26587000Y9467000D01*
X-26333000Y9467000D01*
X-26333000Y9447000D01*
X-25608750Y9447000D01*
X-25575000Y9480750D01*
X-25551250Y9457000D01*
X-24827000Y9457000D01*
X-24827000Y9477000D01*
X-24573000Y9477000D01*
X-24573000Y9457000D01*
X-24553000Y9457000D01*
X-24553000Y9203000D01*
X-24573000Y9203000D01*
X-24573000Y9183000D01*
X-24827000Y9183000D01*
X-24827000Y9203000D01*
X-25551250Y9203000D01*
X-25585000Y9169250D01*
X-25608750Y9193000D01*
X-26333000Y9193000D01*
X-26333000Y9173000D01*
X-26587000Y9173000D01*
X-26587000Y9193000D01*
X-27311250Y9193000D01*
X-27360000Y9144250D01*
X-27408750Y9193000D01*
X-28133000Y9193000D01*
X-28133000Y9173000D01*
X-28387000Y9173000D01*
X-28387000Y9193000D01*
X-29111250Y9193000D01*
X-29115000Y9189250D01*
X-29128750Y9203000D01*
X-29853000Y9203000D01*
X-29853000Y9183000D01*
X-30107000Y9183000D01*
X-30107000Y9203000D01*
X-30127000Y9203000D01*
X-30127000Y9457000D01*
X-30107000Y9457000D01*
X-30107000Y9477000D01*
X-29853000Y9477000D01*
X-29853000Y9457000D01*
X-29128750Y9457000D01*
X-29125000Y9460750D01*
X-29111250Y9447000D01*
X-28387000Y9447000D01*
X-28387000Y9467000D01*
X-28133000Y9467000D01*
X-28133000Y9447000D01*
X-27408750Y9447000D01*
X-27360000Y9495750D01*
X-27311250Y9447000D01*
G36*
X-22683000Y9457000D02*
X-22663000Y9457000D01*
X-22663000Y9203000D01*
X-22683000Y9203000D01*
X-22683000Y9183000D01*
X-22937000Y9183000D01*
X-22937000Y9203000D01*
X-22957000Y9203000D01*
X-22957000Y9457000D01*
X-22937000Y9457000D01*
X-22937000Y9477000D01*
X-22683000Y9477000D01*
X-22683000Y9457000D01*
X-22683000Y9457000D01*
G37*
X-22683000Y9457000D02*
X-22663000Y9457000D01*
X-22663000Y9203000D01*
X-22683000Y9203000D01*
X-22683000Y9183000D01*
X-22937000Y9183000D01*
X-22937000Y9203000D01*
X-22957000Y9203000D01*
X-22957000Y9457000D01*
X-22937000Y9457000D01*
X-22937000Y9477000D01*
X-22683000Y9477000D01*
X-22683000Y9457000D01*
G36*
X-9100054Y14620853D02*
X-8810000Y14427046D01*
X-8810000Y11661045D01*
X-8843690Y11675000D01*
X-9134250Y11675000D01*
X-9293000Y11516250D01*
X-9293000Y10915000D01*
X-9273000Y10915000D01*
X-9273000Y10840000D01*
X-9567000Y10840000D01*
X-9567000Y10915000D01*
X-9547000Y10915000D01*
X-9547000Y11516250D01*
X-9705750Y11675000D01*
X-9996310Y11675000D01*
X-10229699Y11578327D01*
X-10386863Y11421162D01*
X-10456673Y11589698D01*
X-10635301Y11768327D01*
X-10868690Y11865000D01*
X-11084250Y11865000D01*
X-11243000Y11706250D01*
X-11243000Y10957000D01*
X-11223000Y10957000D01*
X-11223000Y10840000D01*
X-11517000Y10840000D01*
X-11517000Y10957000D01*
X-11497000Y10957000D01*
X-11497000Y11706250D01*
X-11655750Y11865000D01*
X-11871310Y11865000D01*
X-12104699Y11768327D01*
X-12283327Y11589698D01*
X-12285000Y11585659D01*
X-12286673Y11589698D01*
X-12465301Y11768327D01*
X-12698690Y11865000D01*
X-12914250Y11865000D01*
X-13073000Y11706250D01*
X-13073000Y10957000D01*
X-13053000Y10957000D01*
X-13053000Y10703000D01*
X-13073000Y10703000D01*
X-13073000Y10683000D01*
X-13327000Y10683000D01*
X-13327000Y10703000D01*
X-14051250Y10703000D01*
X-14090000Y10664250D01*
X-14128750Y10703000D01*
X-14853000Y10703000D01*
X-14853000Y10683000D01*
X-15107000Y10683000D01*
X-15107000Y10703000D01*
X-15831250Y10703000D01*
X-15845000Y10689250D01*
X-15858750Y10703000D01*
X-16583000Y10703000D01*
X-16583000Y10683000D01*
X-16837000Y10683000D01*
X-16837000Y10703000D01*
X-16857000Y10703000D01*
X-16857000Y10957000D01*
X-16837000Y10957000D01*
X-16837000Y11706250D01*
X-16583000Y11706250D01*
X-16583000Y10957000D01*
X-15858750Y10957000D01*
X-15845000Y10970750D01*
X-15831250Y10957000D01*
X-15107000Y10957000D01*
X-15107000Y11706250D01*
X-14853000Y11706250D01*
X-14853000Y10957000D01*
X-14128750Y10957000D01*
X-14090000Y10995750D01*
X-14051250Y10957000D01*
X-13327000Y10957000D01*
X-13327000Y11706250D01*
X-13485750Y11865000D01*
X-13701310Y11865000D01*
X-13934699Y11768327D01*
X-14090000Y11613025D01*
X-14245301Y11768327D01*
X-14478690Y11865000D01*
X-14694250Y11865000D01*
X-14853000Y11706250D01*
X-15107000Y11706250D01*
X-15265750Y11865000D01*
X-15481310Y11865000D01*
X-15714699Y11768327D01*
X-15845000Y11638025D01*
X-15975301Y11768327D01*
X-16208690Y11865000D01*
X-16424250Y11865000D01*
X-16583000Y11706250D01*
X-16837000Y11706250D01*
X-16995750Y11865000D01*
X-17211310Y11865000D01*
X-17444699Y11768327D01*
X-17623327Y11589698D01*
X-17720000Y11356309D01*
X-17720000Y11240686D01*
X-18163298Y11424759D01*
X-18714285Y11425240D01*
X-18766646Y11403605D01*
X-18899161Y11492148D01*
X-19190000Y11550000D01*
X-19671614Y11550000D01*
X-19798110Y11636431D01*
X-19840770Y11645070D01*
X-19962599Y11827401D01*
X-20355190Y12219992D01*
X-13680008Y12219992D01*
X-13389169Y12277844D01*
X-13142607Y12442591D01*
X-11302599Y14282599D01*
X-11250504Y14360565D01*
X-11158285Y14298946D01*
X-10590000Y14185907D01*
X-10021715Y14298946D01*
X-9539946Y14620853D01*
X-9320000Y14950026D01*
X-9100054Y14620853D01*
X-9100054Y14620853D01*
G37*
X-9100054Y14620853D02*
X-8810000Y14427046D01*
X-8810000Y11661045D01*
X-8843690Y11675000D01*
X-9134250Y11675000D01*
X-9293000Y11516250D01*
X-9293000Y10915000D01*
X-9273000Y10915000D01*
X-9273000Y10840000D01*
X-9567000Y10840000D01*
X-9567000Y10915000D01*
X-9547000Y10915000D01*
X-9547000Y11516250D01*
X-9705750Y11675000D01*
X-9996310Y11675000D01*
X-10229699Y11578327D01*
X-10386863Y11421162D01*
X-10456673Y11589698D01*
X-10635301Y11768327D01*
X-10868690Y11865000D01*
X-11084250Y11865000D01*
X-11243000Y11706250D01*
X-11243000Y10957000D01*
X-11223000Y10957000D01*
X-11223000Y10840000D01*
X-11517000Y10840000D01*
X-11517000Y10957000D01*
X-11497000Y10957000D01*
X-11497000Y11706250D01*
X-11655750Y11865000D01*
X-11871310Y11865000D01*
X-12104699Y11768327D01*
X-12283327Y11589698D01*
X-12285000Y11585659D01*
X-12286673Y11589698D01*
X-12465301Y11768327D01*
X-12698690Y11865000D01*
X-12914250Y11865000D01*
X-13073000Y11706250D01*
X-13073000Y10957000D01*
X-13053000Y10957000D01*
X-13053000Y10703000D01*
X-13073000Y10703000D01*
X-13073000Y10683000D01*
X-13327000Y10683000D01*
X-13327000Y10703000D01*
X-14051250Y10703000D01*
X-14090000Y10664250D01*
X-14128750Y10703000D01*
X-14853000Y10703000D01*
X-14853000Y10683000D01*
X-15107000Y10683000D01*
X-15107000Y10703000D01*
X-15831250Y10703000D01*
X-15845000Y10689250D01*
X-15858750Y10703000D01*
X-16583000Y10703000D01*
X-16583000Y10683000D01*
X-16837000Y10683000D01*
X-16837000Y10703000D01*
X-16857000Y10703000D01*
X-16857000Y10957000D01*
X-16837000Y10957000D01*
X-16837000Y11706250D01*
X-16583000Y11706250D01*
X-16583000Y10957000D01*
X-15858750Y10957000D01*
X-15845000Y10970750D01*
X-15831250Y10957000D01*
X-15107000Y10957000D01*
X-15107000Y11706250D01*
X-14853000Y11706250D01*
X-14853000Y10957000D01*
X-14128750Y10957000D01*
X-14090000Y10995750D01*
X-14051250Y10957000D01*
X-13327000Y10957000D01*
X-13327000Y11706250D01*
X-13485750Y11865000D01*
X-13701310Y11865000D01*
X-13934699Y11768327D01*
X-14090000Y11613025D01*
X-14245301Y11768327D01*
X-14478690Y11865000D01*
X-14694250Y11865000D01*
X-14853000Y11706250D01*
X-15107000Y11706250D01*
X-15265750Y11865000D01*
X-15481310Y11865000D01*
X-15714699Y11768327D01*
X-15845000Y11638025D01*
X-15975301Y11768327D01*
X-16208690Y11865000D01*
X-16424250Y11865000D01*
X-16583000Y11706250D01*
X-16837000Y11706250D01*
X-16995750Y11865000D01*
X-17211310Y11865000D01*
X-17444699Y11768327D01*
X-17623327Y11589698D01*
X-17720000Y11356309D01*
X-17720000Y11240686D01*
X-18163298Y11424759D01*
X-18714285Y11425240D01*
X-18766646Y11403605D01*
X-18899161Y11492148D01*
X-19190000Y11550000D01*
X-19671614Y11550000D01*
X-19798110Y11636431D01*
X-19840770Y11645070D01*
X-19962599Y11827401D01*
X-20355190Y12219992D01*
X-13680008Y12219992D01*
X-13389169Y12277844D01*
X-13142607Y12442591D01*
X-11302599Y14282599D01*
X-11250504Y14360565D01*
X-11158285Y14298946D01*
X-10590000Y14185907D01*
X-10021715Y14298946D01*
X-9539946Y14620853D01*
X-9320000Y14950026D01*
X-9100054Y14620853D01*
G36*
X-2683000Y13027000D02*
X-2663000Y13027000D01*
X-2663000Y12773000D01*
X-2683000Y12773000D01*
X-2683000Y12753000D01*
X-2937000Y12753000D01*
X-2937000Y12773000D01*
X-2957000Y12773000D01*
X-2957000Y13027000D01*
X-2937000Y13027000D01*
X-2937000Y13047000D01*
X-2683000Y13047000D01*
X-2683000Y13027000D01*
X-2683000Y13027000D01*
G37*
X-2683000Y13027000D02*
X-2663000Y13027000D01*
X-2663000Y12773000D01*
X-2683000Y12773000D01*
X-2683000Y12753000D01*
X-2937000Y12753000D01*
X-2937000Y12773000D01*
X-2957000Y12773000D01*
X-2957000Y13027000D01*
X-2937000Y13027000D01*
X-2937000Y13047000D01*
X-2683000Y13047000D01*
X-2683000Y13027000D01*
G36*
X-47425000Y13087000D02*
X-47403000Y13087000D01*
X-47403000Y12833000D01*
X-47425000Y12833000D01*
X-47425000Y12813000D01*
X-47675000Y12813000D01*
X-47675000Y12833000D01*
X-47697000Y12833000D01*
X-47697000Y13087000D01*
X-47675000Y13087000D01*
X-47675000Y13107000D01*
X-47425000Y13107000D01*
X-47425000Y13087000D01*
X-47425000Y13087000D01*
G37*
X-47425000Y13087000D02*
X-47403000Y13087000D01*
X-47403000Y12833000D01*
X-47425000Y12833000D01*
X-47425000Y12813000D01*
X-47675000Y12813000D01*
X-47675000Y12833000D01*
X-47697000Y12833000D01*
X-47697000Y13087000D01*
X-47675000Y13087000D01*
X-47675000Y13107000D01*
X-47425000Y13107000D01*
X-47425000Y13087000D01*
G36*
X-14180054Y14620853D02*
X-13698285Y14298946D01*
X-13479396Y14255406D01*
X-13994810Y13739992D01*
X-19125206Y13739992D01*
X-18601431Y14263767D01*
X-18210000Y14185907D01*
X-17641715Y14298946D01*
X-17159946Y14620853D01*
X-16940000Y14950026D01*
X-16720054Y14620853D01*
X-16238285Y14298946D01*
X-15670000Y14185907D01*
X-15101715Y14298946D01*
X-14619946Y14620853D01*
X-14400000Y14950026D01*
X-14180054Y14620853D01*
X-14180054Y14620853D01*
G37*
X-14180054Y14620853D02*
X-13698285Y14298946D01*
X-13479396Y14255406D01*
X-13994810Y13739992D01*
X-19125206Y13739992D01*
X-18601431Y14263767D01*
X-18210000Y14185907D01*
X-17641715Y14298946D01*
X-17159946Y14620853D01*
X-16940000Y14950026D01*
X-16720054Y14620853D01*
X-16238285Y14298946D01*
X-15670000Y14185907D01*
X-15101715Y14298946D01*
X-14619946Y14620853D01*
X-14400000Y14950026D01*
X-14180054Y14620853D01*
G36*
X708000Y17121758D02*
X671890Y17146431D01*
X420000Y17197440D01*
X-1280000Y17197440D01*
X-1425298Y17170100D01*
X-2242598Y17987400D01*
X-2489160Y18152147D01*
X-2779999Y18209999D01*
X-10850001Y18209999D01*
X-11140840Y18152147D01*
X-11387402Y17987400D01*
X-12377401Y16997401D01*
X-12386409Y16983919D01*
X-12561715Y17101054D01*
X-13130000Y17214093D01*
X-13698285Y17101054D01*
X-14180054Y16779147D01*
X-14400000Y16449974D01*
X-14619946Y16779147D01*
X-15101715Y17101054D01*
X-15670000Y17214093D01*
X-16238285Y17101054D01*
X-16720054Y16779147D01*
X-16940000Y16449974D01*
X-17159946Y16779147D01*
X-17641715Y17101054D01*
X-18210000Y17214093D01*
X-18778285Y17101054D01*
X-19260054Y16779147D01*
X-19480000Y16449974D01*
X-19699946Y16779147D01*
X-20181715Y17101054D01*
X-20750000Y17214093D01*
X-21318285Y17101054D01*
X-21800054Y16779147D01*
X-22020000Y16449974D01*
X-22239946Y16779147D01*
X-22721715Y17101054D01*
X-23290000Y17214093D01*
X-23858285Y17101054D01*
X-24340054Y16779147D01*
X-24560000Y16449974D01*
X-24779946Y16779147D01*
X-25261715Y17101054D01*
X-25830000Y17214093D01*
X-26398285Y17101054D01*
X-26880054Y16779147D01*
X-27100000Y16449974D01*
X-27319946Y16779147D01*
X-27801715Y17101054D01*
X-28370000Y17214093D01*
X-28938285Y17101054D01*
X-29420054Y16779147D01*
X-29640000Y16449974D01*
X-29859946Y16779147D01*
X-30341715Y17101054D01*
X-30910000Y17214093D01*
X-31478285Y17101054D01*
X-31960054Y16779147D01*
X-32180000Y16449974D01*
X-32399946Y16779147D01*
X-32881715Y17101054D01*
X-33450000Y17214093D01*
X-34018285Y17101054D01*
X-34500054Y16779147D01*
X-34720000Y16449974D01*
X-34939946Y16779147D01*
X-35421715Y17101054D01*
X-35990000Y17214093D01*
X-36558285Y17101054D01*
X-37040054Y16779147D01*
X-37260000Y16449974D01*
X-37479946Y16779147D01*
X-37961715Y17101054D01*
X-38530000Y17214093D01*
X-39098285Y17101054D01*
X-39580054Y16779147D01*
X-39800000Y16449974D01*
X-40019946Y16779147D01*
X-40501715Y17101054D01*
X-41070000Y17214093D01*
X-41638285Y17101054D01*
X-42120054Y16779147D01*
X-42340000Y16449974D01*
X-42559946Y16779147D01*
X-43041715Y17101054D01*
X-43610000Y17214093D01*
X-44178285Y17101054D01*
X-44660054Y16779147D01*
X-44887702Y16438447D01*
X-44954817Y16581358D01*
X-45383076Y16971645D01*
X-45793110Y17141476D01*
X-46023000Y17020155D01*
X-46023000Y15827000D01*
X-46003000Y15827000D01*
X-46003000Y15573000D01*
X-46023000Y15573000D01*
X-46023000Y15553000D01*
X-46277000Y15553000D01*
X-46277000Y15573000D01*
X-48563000Y15573000D01*
X-48563000Y15553000D01*
X-48817000Y15553000D01*
X-48817000Y15573000D01*
X-48837000Y15573000D01*
X-48837000Y15827000D01*
X-48817000Y15827000D01*
X-48817000Y17020155D01*
X-48563000Y17020155D01*
X-48563000Y15827000D01*
X-46277000Y15827000D01*
X-46277000Y17020155D01*
X-46506890Y17141476D01*
X-46916924Y16971645D01*
X-47345183Y16581358D01*
X-47420000Y16422046D01*
X-47494817Y16581358D01*
X-47923076Y16971645D01*
X-48333110Y17141476D01*
X-48563000Y17020155D01*
X-48817000Y17020155D01*
X-49046890Y17141476D01*
X-49456924Y16971645D01*
X-49872000Y16593372D01*
X-49872000Y18602000D01*
X708000Y18602000D01*
X708000Y17121758D01*
X708000Y17121758D01*
G37*
X708000Y17121758D02*
X671890Y17146431D01*
X420000Y17197440D01*
X-1280000Y17197440D01*
X-1425298Y17170100D01*
X-2242598Y17987400D01*
X-2489160Y18152147D01*
X-2779999Y18209999D01*
X-10850001Y18209999D01*
X-11140840Y18152147D01*
X-11387402Y17987400D01*
X-12377401Y16997401D01*
X-12386409Y16983919D01*
X-12561715Y17101054D01*
X-13130000Y17214093D01*
X-13698285Y17101054D01*
X-14180054Y16779147D01*
X-14400000Y16449974D01*
X-14619946Y16779147D01*
X-15101715Y17101054D01*
X-15670000Y17214093D01*
X-16238285Y17101054D01*
X-16720054Y16779147D01*
X-16940000Y16449974D01*
X-17159946Y16779147D01*
X-17641715Y17101054D01*
X-18210000Y17214093D01*
X-18778285Y17101054D01*
X-19260054Y16779147D01*
X-19480000Y16449974D01*
X-19699946Y16779147D01*
X-20181715Y17101054D01*
X-20750000Y17214093D01*
X-21318285Y17101054D01*
X-21800054Y16779147D01*
X-22020000Y16449974D01*
X-22239946Y16779147D01*
X-22721715Y17101054D01*
X-23290000Y17214093D01*
X-23858285Y17101054D01*
X-24340054Y16779147D01*
X-24560000Y16449974D01*
X-24779946Y16779147D01*
X-25261715Y17101054D01*
X-25830000Y17214093D01*
X-26398285Y17101054D01*
X-26880054Y16779147D01*
X-27100000Y16449974D01*
X-27319946Y16779147D01*
X-27801715Y17101054D01*
X-28370000Y17214093D01*
X-28938285Y17101054D01*
X-29420054Y16779147D01*
X-29640000Y16449974D01*
X-29859946Y16779147D01*
X-30341715Y17101054D01*
X-30910000Y17214093D01*
X-31478285Y17101054D01*
X-31960054Y16779147D01*
X-32180000Y16449974D01*
X-32399946Y16779147D01*
X-32881715Y17101054D01*
X-33450000Y17214093D01*
X-34018285Y17101054D01*
X-34500054Y16779147D01*
X-34720000Y16449974D01*
X-34939946Y16779147D01*
X-35421715Y17101054D01*
X-35990000Y17214093D01*
X-36558285Y17101054D01*
X-37040054Y16779147D01*
X-37260000Y16449974D01*
X-37479946Y16779147D01*
X-37961715Y17101054D01*
X-38530000Y17214093D01*
X-39098285Y17101054D01*
X-39580054Y16779147D01*
X-39800000Y16449974D01*
X-40019946Y16779147D01*
X-40501715Y17101054D01*
X-41070000Y17214093D01*
X-41638285Y17101054D01*
X-42120054Y16779147D01*
X-42340000Y16449974D01*
X-42559946Y16779147D01*
X-43041715Y17101054D01*
X-43610000Y17214093D01*
X-44178285Y17101054D01*
X-44660054Y16779147D01*
X-44887702Y16438447D01*
X-44954817Y16581358D01*
X-45383076Y16971645D01*
X-45793110Y17141476D01*
X-46023000Y17020155D01*
X-46023000Y15827000D01*
X-46003000Y15827000D01*
X-46003000Y15573000D01*
X-46023000Y15573000D01*
X-46023000Y15553000D01*
X-46277000Y15553000D01*
X-46277000Y15573000D01*
X-48563000Y15573000D01*
X-48563000Y15553000D01*
X-48817000Y15553000D01*
X-48817000Y15573000D01*
X-48837000Y15573000D01*
X-48837000Y15827000D01*
X-48817000Y15827000D01*
X-48817000Y17020155D01*
X-48563000Y17020155D01*
X-48563000Y15827000D01*
X-46277000Y15827000D01*
X-46277000Y17020155D01*
X-46506890Y17141476D01*
X-46916924Y16971645D01*
X-47345183Y16581358D01*
X-47420000Y16422046D01*
X-47494817Y16581358D01*
X-47923076Y16971645D01*
X-48333110Y17141476D01*
X-48563000Y17020155D01*
X-48817000Y17020155D01*
X-49046890Y17141476D01*
X-49456924Y16971645D01*
X-49872000Y16593372D01*
X-49872000Y18602000D01*
X708000Y18602000D01*
X708000Y17121758D01*
M02*
