M48
;DRILL file {KiCad 4.0.7} date 11/07/17 18:20:41
;FORMAT={-:-/ absolute / metric / decimal}
FMAT,2
METRIC,TZ
T1C0.300
T2C0.600
T3C0.800
T4C0.850
T5C1.000
%
G90
G05
M71
T1
X-46.99Y7.48
X-44.54Y8.81
X-44.08Y14.
X-43.96Y6.35
X-43.9Y7.07
X-43.65Y8.07
X-42.38Y-1.23
X-40.056Y10.292
X-39.93Y8.56
X-38.135Y10.05
X-37.63Y3.07
X-35.65Y13.96
X-35.602Y10.308
X-34.76Y0.97
X-34.553Y8.866
X-34.25Y10.18
X-34.042Y8.356
X-33.39Y7.04
X-33.15Y10.16
X-33.089Y11.898
X-32.85Y8.46
X-31.96Y-0.7
X-31.636Y2.636
X-30.88Y2.076
X-30.01Y13.25
X-29.75Y2.4
X-29.12Y9.67
X-28.34Y13.869
X-28.038Y2.333
X-27.95Y8.35
X-27.5Y8.085
X-27.47Y13.21
X-27.01Y8.41
X-26.543Y2.113
X-26.35Y1.4
X-25.647Y2.251
X-24.559Y12.92
X-24.033Y12.467
X-22.78Y12.45
X-21.911Y12.286
X-21.895Y11.623
X-21.566Y5.964
X-21.38Y12.74
X-21.287Y7.243
X-20.66Y4.89
X-20.65Y3.25
X-20.28Y8.31
X-18.34Y11.26
X-16.6Y6.68
X-13.8Y7.06
X-12.31Y5.39
X-10.646Y7.268
X-8.44Y3.25
X-8.28Y9.31
X-5.07Y10.81
X-4.89Y14.28
X-1.99Y9.06
X-0.748Y14.239
X-0.73Y13.01
T3
X-18.44Y10.04
X-18.44Y5.16
T4
X-45.77Y10.08
X-45.77Y5.08
T5
X-48.69Y15.7
X-48.69Y0.2
X-46.15Y15.7
X-46.15Y0.2
X-43.61Y15.7
X-43.61Y0.2
X-41.552Y6.302
X-41.552Y3.762
X-41.07Y15.7
X-41.07Y0.2
X-39.012Y6.302
X-39.012Y3.762
X-38.53Y15.7
X-38.53Y0.2
X-36.472Y6.302
X-36.472Y3.762
X-35.99Y15.7
X-35.99Y0.2
X-33.45Y15.7
X-33.45Y0.2
X-30.91Y15.7
X-30.91Y0.2
X-28.37Y15.7
X-28.37Y0.2
X-25.83Y15.7
X-25.83Y0.2
X-23.29Y15.7
X-23.29Y0.2
X-20.75Y15.7
X-20.75Y0.2
X-18.21Y15.7
X-18.21Y0.2
X-15.67Y15.7
X-15.67Y0.2
X-13.13Y15.7
X-13.13Y0.2
X-10.59Y15.7
X-10.59Y0.2
X-8.05Y15.7
X-8.05Y0.2
X-5.51Y15.7
X-5.51Y0.2
X-2.97Y15.7
X-2.97Y0.2
X-2.81Y12.9
X-2.81Y10.36
X-2.81Y7.82
X-2.81Y5.28
X-2.81Y2.74
X-0.43Y15.7
X-0.43Y0.2
T2
X-48.82Y11.08G85X-48.12Y11.08
G05
X-48.12Y4.08G85X-48.82Y4.08
G05
T0
M30
