%TF.GenerationSoftware,KiCad,Pcbnew,4.0.7*%
%TF.CreationDate,2017-11-07T18:20:37+08:00*%
%TF.ProjectId,STM32F401CCT6,53544D333246343031434354362E6B69,rev?*%
%TF.FileFunction,Paste,Top*%
%FSLAX46Y46*%
G04 Gerber Fmt 4.6, Leading zero omitted, Abs format (unit mm)*
G04 Created by KiCad (PCBNEW 4.0.7) date 11/07/17 18:20:37*
%MOMM*%
%LPD*%
G01*
G04 APERTURE LIST*
%ADD10C,0.100000*%
%ADD11R,1.900000X1.500000*%
%ADD12R,1.350000X0.400000*%
%ADD13R,1.700000X1.000000*%
%ADD14R,1.200000X1.200000*%
%ADD15R,1.900000X1.300000*%
G04 APERTURE END LIST*
D10*
D11*
X-48470000Y6580000D03*
D12*
X-45770000Y8230000D03*
X-45770000Y8880000D03*
X-45770000Y6280000D03*
X-45770000Y6930000D03*
X-45770000Y7580000D03*
D11*
X-48470000Y8580000D03*
D13*
X-42130000Y12920000D03*
X-35830000Y12920000D03*
X-42130000Y9120000D03*
X-35830000Y9120000D03*
D14*
X-6990000Y12060000D03*
X-6990000Y9860000D03*
X-6990000Y6220000D03*
X-6990000Y4020000D03*
D15*
X-10560000Y4590000D03*
X-10560000Y10090000D03*
X-13760000Y10090000D03*
X-13760000Y4590000D03*
D10*
G36*
X-23233565Y7773285D02*
X-21996129Y6535849D01*
X-22208261Y6323717D01*
X-23445697Y7561153D01*
X-23233565Y7773285D01*
X-23233565Y7773285D01*
G37*
G36*
X-23587118Y7419732D02*
X-22349682Y6182296D01*
X-22561814Y5970164D01*
X-23799250Y7207600D01*
X-23587118Y7419732D01*
X-23587118Y7419732D01*
G37*
G36*
X-23940672Y7066178D02*
X-22703236Y5828742D01*
X-22915368Y5616610D01*
X-24152804Y6854046D01*
X-23940672Y7066178D01*
X-23940672Y7066178D01*
G37*
G36*
X-24294225Y6712625D02*
X-23056789Y5475189D01*
X-23268921Y5263057D01*
X-24506357Y6500493D01*
X-24294225Y6712625D01*
X-24294225Y6712625D01*
G37*
G36*
X-24647778Y6359072D02*
X-23410342Y5121636D01*
X-23622474Y4909504D01*
X-24859910Y6146940D01*
X-24647778Y6359072D01*
X-24647778Y6359072D01*
G37*
G36*
X-23976028Y4555950D02*
X-25213464Y5793386D01*
X-25001332Y6005518D01*
X-23763896Y4768082D01*
X-23976028Y4555950D01*
X-23976028Y4555950D01*
G37*
G36*
X-25354885Y5651965D02*
X-24117449Y4414529D01*
X-24329581Y4202397D01*
X-25567017Y5439833D01*
X-25354885Y5651965D01*
X-25354885Y5651965D01*
G37*
G36*
X-25708439Y5298411D02*
X-24471003Y4060975D01*
X-24683135Y3848843D01*
X-25920571Y5086279D01*
X-25708439Y5298411D01*
X-25708439Y5298411D01*
G37*
G36*
X-26061992Y4944858D02*
X-24824556Y3707422D01*
X-25036688Y3495290D01*
X-26274124Y4732726D01*
X-26061992Y4944858D01*
X-26061992Y4944858D01*
G37*
G36*
X-26415545Y4591305D02*
X-25178109Y3353869D01*
X-25390241Y3141737D01*
X-26627677Y4379173D01*
X-26415545Y4591305D01*
X-26415545Y4591305D01*
G37*
G36*
X-26769099Y4237751D02*
X-25531663Y3000315D01*
X-25743795Y2788183D01*
X-26981231Y4025619D01*
X-26769099Y4237751D01*
X-26769099Y4237751D01*
G37*
G36*
X-27122652Y3884198D02*
X-25885216Y2646762D01*
X-26097348Y2434630D01*
X-27334784Y3672066D01*
X-27122652Y3884198D01*
X-27122652Y3884198D01*
G37*
G36*
X-25567017Y10389581D02*
X-24329581Y11627017D01*
X-24117449Y11414885D01*
X-25354885Y10177449D01*
X-25567017Y10389581D01*
X-25567017Y10389581D01*
G37*
G36*
X-25213464Y10036028D02*
X-23976028Y11273464D01*
X-23763896Y11061332D01*
X-25001332Y9823896D01*
X-25213464Y10036028D01*
X-25213464Y10036028D01*
G37*
G36*
X-24859910Y9682474D02*
X-23622474Y10919910D01*
X-23410342Y10707778D01*
X-24647778Y9470342D01*
X-24859910Y9682474D01*
X-24859910Y9682474D01*
G37*
G36*
X-24506357Y9328921D02*
X-23268921Y10566357D01*
X-23056789Y10354225D01*
X-24294225Y9116789D01*
X-24506357Y9328921D01*
X-24506357Y9328921D01*
G37*
G36*
X-24152804Y8975368D02*
X-22915368Y10212804D01*
X-22703236Y10000672D01*
X-23940672Y8763236D01*
X-24152804Y8975368D01*
X-24152804Y8975368D01*
G37*
G36*
X-23799250Y8621814D02*
X-22561814Y9859250D01*
X-22349682Y9647118D01*
X-23587118Y8409682D01*
X-23799250Y8621814D01*
X-23799250Y8621814D01*
G37*
G36*
X-25920571Y10743135D02*
X-24683135Y11980571D01*
X-24471003Y11768439D01*
X-25708439Y10531003D01*
X-25920571Y10743135D01*
X-25920571Y10743135D01*
G37*
G36*
X-23445697Y8268261D02*
X-22208261Y9505697D01*
X-21996129Y9293565D01*
X-23233565Y8056129D01*
X-23445697Y8268261D01*
X-23445697Y8268261D01*
G37*
G36*
X-26274124Y11096688D02*
X-25036688Y12334124D01*
X-24824556Y12121992D01*
X-26061992Y10884556D01*
X-26274124Y11096688D01*
X-26274124Y11096688D01*
G37*
G36*
X-26627677Y11450241D02*
X-25390241Y12687677D01*
X-25178109Y12475545D01*
X-26415545Y11238109D01*
X-26627677Y11450241D01*
X-26627677Y11450241D01*
G37*
G36*
X-26981231Y11803795D02*
X-25743795Y13041231D01*
X-25531663Y12829099D01*
X-26769099Y11591663D01*
X-26981231Y11803795D01*
X-26981231Y11803795D01*
G37*
G36*
X-27334784Y12157348D02*
X-26097348Y13394784D01*
X-25885216Y13182652D01*
X-27122652Y11945216D01*
X-27334784Y12157348D01*
X-27334784Y12157348D01*
G37*
G36*
X-30976384Y11273464D02*
X-29738948Y10036028D01*
X-29951080Y9823896D01*
X-31188516Y11061332D01*
X-30976384Y11273464D01*
X-30976384Y11273464D01*
G37*
G36*
X-30622831Y11627017D02*
X-29385395Y10389581D01*
X-29597527Y10177449D01*
X-30834963Y11414885D01*
X-30622831Y11627017D01*
X-30622831Y11627017D01*
G37*
G36*
X-30269277Y11980571D02*
X-29031841Y10743135D01*
X-29243973Y10531003D01*
X-30481409Y11768439D01*
X-30269277Y11980571D01*
X-30269277Y11980571D01*
G37*
G36*
X-29915724Y12334124D02*
X-28678288Y11096688D01*
X-28890420Y10884556D01*
X-30127856Y12121992D01*
X-29915724Y12334124D01*
X-29915724Y12334124D01*
G37*
G36*
X-29562171Y12687677D02*
X-28324735Y11450241D01*
X-28536867Y11238109D01*
X-29774303Y12475545D01*
X-29562171Y12687677D01*
X-29562171Y12687677D01*
G37*
G36*
X-29208617Y13041231D02*
X-27971181Y11803795D01*
X-28183313Y11591663D01*
X-29420749Y12829099D01*
X-29208617Y13041231D01*
X-29208617Y13041231D01*
G37*
G36*
X-28855064Y13394784D02*
X-27617628Y12157348D01*
X-27829760Y11945216D01*
X-29067196Y13182652D01*
X-28855064Y13394784D01*
X-28855064Y13394784D01*
G37*
G36*
X-31329938Y10919910D02*
X-30092502Y9682474D01*
X-30304634Y9470342D01*
X-31542070Y10707778D01*
X-31329938Y10919910D01*
X-31329938Y10919910D01*
G37*
G36*
X-31683491Y10566357D02*
X-30446055Y9328921D01*
X-30658187Y9116789D01*
X-31895623Y10354225D01*
X-31683491Y10566357D01*
X-31683491Y10566357D01*
G37*
G36*
X-32037044Y10212804D02*
X-30799608Y8975368D01*
X-31011740Y8763236D01*
X-32249176Y10000672D01*
X-32037044Y10212804D01*
X-32037044Y10212804D01*
G37*
G36*
X-32390598Y9859250D02*
X-31153162Y8621814D01*
X-31365294Y8409682D01*
X-32602730Y9647118D01*
X-32390598Y9859250D01*
X-32390598Y9859250D01*
G37*
G36*
X-32744151Y9505697D02*
X-31506715Y8268261D01*
X-31718847Y8056129D01*
X-32956283Y9293565D01*
X-32744151Y9505697D01*
X-32744151Y9505697D01*
G37*
G36*
X-30834963Y4414529D02*
X-29597527Y5651965D01*
X-29385395Y5439833D01*
X-30622831Y4202397D01*
X-30834963Y4414529D01*
X-30834963Y4414529D01*
G37*
G36*
X-31188516Y4768082D02*
X-29951080Y6005518D01*
X-29738948Y5793386D01*
X-30976384Y4555950D01*
X-31188516Y4768082D01*
X-31188516Y4768082D01*
G37*
G36*
X-30481409Y4060975D02*
X-29243973Y5298411D01*
X-29031841Y5086279D01*
X-30269277Y3848843D01*
X-30481409Y4060975D01*
X-30481409Y4060975D01*
G37*
G36*
X-30127856Y3707422D02*
X-28890420Y4944858D01*
X-28678288Y4732726D01*
X-29915724Y3495290D01*
X-30127856Y3707422D01*
X-30127856Y3707422D01*
G37*
G36*
X-29774303Y3353869D02*
X-28536867Y4591305D01*
X-28324735Y4379173D01*
X-29562171Y3141737D01*
X-29774303Y3353869D01*
X-29774303Y3353869D01*
G37*
G36*
X-29420749Y3000315D02*
X-28183313Y4237751D01*
X-27971181Y4025619D01*
X-29208617Y2788183D01*
X-29420749Y3000315D01*
X-29420749Y3000315D01*
G37*
G36*
X-29067196Y2646762D02*
X-27829760Y3884198D01*
X-27617628Y3672066D01*
X-28855064Y2434630D01*
X-29067196Y2646762D01*
X-29067196Y2646762D01*
G37*
G36*
X-31542070Y5121636D02*
X-30304634Y6359072D01*
X-30092502Y6146940D01*
X-31329938Y4909504D01*
X-31542070Y5121636D01*
X-31542070Y5121636D01*
G37*
G36*
X-31895623Y5475189D02*
X-30658187Y6712625D01*
X-30446055Y6500493D01*
X-31683491Y5263057D01*
X-31895623Y5475189D01*
X-31895623Y5475189D01*
G37*
G36*
X-32249176Y5828742D02*
X-31011740Y7066178D01*
X-30799608Y6854046D01*
X-32037044Y5616610D01*
X-32249176Y5828742D01*
X-32249176Y5828742D01*
G37*
G36*
X-32602730Y6182296D02*
X-31365294Y7419732D01*
X-31153162Y7207600D01*
X-32390598Y5970164D01*
X-32602730Y6182296D01*
X-32602730Y6182296D01*
G37*
G36*
X-32956283Y6535849D02*
X-31718847Y7773285D01*
X-31506715Y7561153D01*
X-32744151Y6323717D01*
X-32956283Y6535849D01*
X-32956283Y6535849D01*
G37*
G36*
X-25284175Y9442058D02*
X-23756824Y7914707D01*
X-25284175Y6387356D01*
X-26811526Y7914707D01*
X-25284175Y9442058D01*
X-25284175Y9442058D01*
G37*
G36*
X-29668237Y9442058D02*
X-28140886Y7914707D01*
X-29668237Y6387356D01*
X-31195588Y7914707D01*
X-29668237Y9442058D01*
X-29668237Y9442058D01*
G37*
G36*
X-27476206Y7250027D02*
X-25948855Y5722676D01*
X-27476206Y4195325D01*
X-29003557Y5722676D01*
X-27476206Y7250027D01*
X-27476206Y7250027D01*
G37*
G36*
X-27476206Y11634089D02*
X-25948855Y10106738D01*
X-27476206Y8579387D01*
X-29003557Y10106738D01*
X-27476206Y11634089D01*
X-27476206Y11634089D01*
G37*
M02*
