%TF.GenerationSoftware,KiCad,Pcbnew,4.0.7*%
%TF.CreationDate,2017-11-06T20:43:19+08:00*%
%TF.ProjectId,STM32F401CCT6,53544D333246343031434354362E6B69,rev?*%
%TF.FileFunction,Soldermask,Bot*%
%FSLAX46Y46*%
G04 Gerber Fmt 4.6, Leading zero omitted, Abs format (unit mm)*
G04 Created by KiCad (PCBNEW 4.0.7) date 11/06/17 20:43:19*
%MOMM*%
%LPD*%
G01*
G04 APERTURE LIST*
%ADD10C,0.100000*%
%ADD11R,2.100000X2.100000*%
%ADD12O,2.100000X2.100000*%
%ADD13C,1.850000*%
%ADD14O,2.300000X1.600000*%
%ADD15R,0.900000X1.300000*%
%ADD16R,1.300000X0.900000*%
%ADD17R,1.460000X1.050000*%
%ADD18R,1.150000X1.200000*%
%ADD19C,1.900000*%
G04 APERTURE END LIST*
D10*
D11*
X-430000Y15700000D03*
D12*
X-2970000Y15700000D03*
X-5510000Y15700000D03*
X-8050000Y15700000D03*
X-10590000Y15700000D03*
X-13130000Y15700000D03*
X-15670000Y15700000D03*
X-18210000Y15700000D03*
X-20750000Y15700000D03*
X-23290000Y15700000D03*
X-25830000Y15700000D03*
X-28370000Y15700000D03*
X-30910000Y15700000D03*
X-33450000Y15700000D03*
X-35990000Y15700000D03*
X-38530000Y15700000D03*
X-41070000Y15700000D03*
X-43610000Y15700000D03*
X-46150000Y15700000D03*
X-48690000Y15700000D03*
D11*
X-430000Y200000D03*
D12*
X-2970000Y200000D03*
X-5510000Y200000D03*
X-8050000Y200000D03*
X-10590000Y200000D03*
X-13130000Y200000D03*
X-15670000Y200000D03*
X-18210000Y200000D03*
X-20750000Y200000D03*
X-23290000Y200000D03*
X-25830000Y200000D03*
X-28370000Y200000D03*
X-30910000Y200000D03*
X-33450000Y200000D03*
X-35990000Y200000D03*
X-38530000Y200000D03*
X-41070000Y200000D03*
X-43610000Y200000D03*
X-46150000Y200000D03*
X-48690000Y200000D03*
D11*
X-36472000Y6302000D03*
D12*
X-36472000Y3762000D03*
X-39012000Y6302000D03*
X-39012000Y3762000D03*
X-41552000Y6302000D03*
X-41552000Y3762000D03*
D13*
X-45770000Y10080000D03*
X-45770000Y5080000D03*
D14*
X-48470000Y11080000D03*
X-48470000Y4080000D03*
D11*
X-2810000Y12900000D03*
D12*
X-2810000Y10360000D03*
X-2810000Y7820000D03*
X-2810000Y5280000D03*
X-2810000Y2740000D03*
D15*
X-47550000Y12960000D03*
X-46050000Y12960000D03*
D16*
X-43350000Y10990000D03*
X-43350000Y9490000D03*
X-41440000Y10990000D03*
X-41440000Y9490000D03*
D17*
X-38900000Y9020000D03*
X-38900000Y9970000D03*
X-38900000Y10920000D03*
X-36700000Y10920000D03*
X-36700000Y9020000D03*
X-36700000Y9970000D03*
D15*
X-38670000Y12870000D03*
X-37170000Y12870000D03*
D16*
X-31810000Y10860000D03*
X-31810000Y9360000D03*
D18*
X-29980000Y9330000D03*
X-29980000Y10830000D03*
X-28260000Y9320000D03*
X-28260000Y10820000D03*
X-26460000Y9320000D03*
X-26460000Y10820000D03*
X-24700000Y9330000D03*
X-24700000Y10830000D03*
X-22810000Y9330000D03*
X-22810000Y10830000D03*
D16*
X-20500000Y9290000D03*
X-20500000Y10790000D03*
D18*
X-16710000Y10830000D03*
X-16710000Y9330000D03*
X-14980000Y10830000D03*
X-14980000Y9330000D03*
X-13200000Y10830000D03*
X-13200000Y9330000D03*
X-11370000Y10830000D03*
X-11370000Y9330000D03*
D16*
X-9420000Y10790000D03*
X-9420000Y9290000D03*
D18*
X-7010000Y5510000D03*
X-7010000Y4010000D03*
D16*
X-9290000Y5540000D03*
X-9290000Y4040000D03*
X-20570000Y5630000D03*
X-20570000Y4130000D03*
D18*
X-22560000Y5650000D03*
X-22560000Y4150000D03*
X-24300000Y5660000D03*
X-24300000Y4160000D03*
D17*
X-28580000Y4000000D03*
X-28580000Y4950000D03*
X-28580000Y5900000D03*
X-26380000Y5900000D03*
X-26380000Y4000000D03*
D18*
X-30510000Y4130000D03*
X-30510000Y5630000D03*
X-32360000Y4130000D03*
X-32360000Y5630000D03*
D16*
X-34210000Y5670000D03*
X-34210000Y4170000D03*
D19*
X-18440000Y5160000D03*
X-18440000Y10040000D03*
M02*
