%TF.GenerationSoftware,KiCad,Pcbnew,4.0.7*%
%TF.CreationDate,2017-11-06T20:43:19+08:00*%
%TF.ProjectId,STM32F401CCT6,53544D333246343031434354362E6B69,rev?*%
%TF.FileFunction,Paste,Top*%
%FSLAX46Y46*%
G04 Gerber Fmt 4.6, Leading zero omitted, Abs format (unit mm)*
G04 Created by KiCad (PCBNEW 4.0.7) date 11/06/17 20:43:19*
%MOMM*%
%LPD*%
G01*
G04 APERTURE LIST*
%ADD10C,0.100000*%
%ADD11R,1.900000X1.500000*%
%ADD12R,1.350000X0.400000*%
%ADD13R,1.700000X1.000000*%
%ADD14R,1.200000X1.200000*%
%ADD15R,1.900000X1.300000*%
%ADD16R,0.800000X0.750000*%
G04 APERTURE END LIST*
D10*
D11*
X-48470000Y6580000D03*
D12*
X-45770000Y8230000D03*
X-45770000Y8880000D03*
X-45770000Y6280000D03*
X-45770000Y6930000D03*
X-45770000Y7580000D03*
D11*
X-48470000Y8580000D03*
D13*
X-42130000Y12920000D03*
X-35830000Y12920000D03*
X-42130000Y9120000D03*
X-35830000Y9120000D03*
D14*
X-6990000Y12060000D03*
X-6990000Y9860000D03*
X-6990000Y6220000D03*
X-6990000Y4020000D03*
D15*
X-10560000Y4590000D03*
X-10560000Y10090000D03*
X-13760000Y10090000D03*
X-13760000Y4590000D03*
D16*
X-23831000Y-13615001D03*
X-25331000Y-13615001D03*
X-23831000Y-13615001D03*
X-25331000Y-13615001D03*
X-23831000Y-13615001D03*
X-25331000Y-13615001D03*
X-23831000Y-13615001D03*
X-25331000Y-13615001D03*
X-23831000Y-13615001D03*
X-25331000Y-13615001D03*
D14*
X-23481000Y-13615001D03*
X-25681000Y-13615001D03*
X-23481000Y-13615001D03*
X-25681000Y-13615001D03*
D10*
G36*
X-23239390Y7778578D02*
X-22001954Y6541142D01*
X-22214086Y6329010D01*
X-23451522Y7566446D01*
X-23239390Y7778578D01*
X-23239390Y7778578D01*
G37*
G36*
X-23592943Y7425025D02*
X-22355507Y6187589D01*
X-22567639Y5975457D01*
X-23805075Y7212893D01*
X-23592943Y7425025D01*
X-23592943Y7425025D01*
G37*
G36*
X-23946497Y7071471D02*
X-22709061Y5834035D01*
X-22921193Y5621903D01*
X-24158629Y6859339D01*
X-23946497Y7071471D01*
X-23946497Y7071471D01*
G37*
G36*
X-24300050Y6717918D02*
X-23062614Y5480482D01*
X-23274746Y5268350D01*
X-24512182Y6505786D01*
X-24300050Y6717918D01*
X-24300050Y6717918D01*
G37*
G36*
X-24653603Y6364365D02*
X-23416167Y5126929D01*
X-23628299Y4914797D01*
X-24865735Y6152233D01*
X-24653603Y6364365D01*
X-24653603Y6364365D01*
G37*
G36*
X-23981853Y4561243D02*
X-25219289Y5798679D01*
X-25007157Y6010811D01*
X-23769721Y4773375D01*
X-23981853Y4561243D01*
X-23981853Y4561243D01*
G37*
G36*
X-25360710Y5657258D02*
X-24123274Y4419822D01*
X-24335406Y4207690D01*
X-25572842Y5445126D01*
X-25360710Y5657258D01*
X-25360710Y5657258D01*
G37*
G36*
X-25714264Y5303704D02*
X-24476828Y4066268D01*
X-24688960Y3854136D01*
X-25926396Y5091572D01*
X-25714264Y5303704D01*
X-25714264Y5303704D01*
G37*
G36*
X-26067817Y4950151D02*
X-24830381Y3712715D01*
X-25042513Y3500583D01*
X-26279949Y4738019D01*
X-26067817Y4950151D01*
X-26067817Y4950151D01*
G37*
G36*
X-26421370Y4596598D02*
X-25183934Y3359162D01*
X-25396066Y3147030D01*
X-26633502Y4384466D01*
X-26421370Y4596598D01*
X-26421370Y4596598D01*
G37*
G36*
X-26774924Y4243044D02*
X-25537488Y3005608D01*
X-25749620Y2793476D01*
X-26987056Y4030912D01*
X-26774924Y4243044D01*
X-26774924Y4243044D01*
G37*
G36*
X-27128477Y3889491D02*
X-25891041Y2652055D01*
X-26103173Y2439923D01*
X-27340609Y3677359D01*
X-27128477Y3889491D01*
X-27128477Y3889491D01*
G37*
G36*
X-25572842Y10394874D02*
X-24335406Y11632310D01*
X-24123274Y11420178D01*
X-25360710Y10182742D01*
X-25572842Y10394874D01*
X-25572842Y10394874D01*
G37*
G36*
X-25219289Y10041321D02*
X-23981853Y11278757D01*
X-23769721Y11066625D01*
X-25007157Y9829189D01*
X-25219289Y10041321D01*
X-25219289Y10041321D01*
G37*
G36*
X-24865735Y9687767D02*
X-23628299Y10925203D01*
X-23416167Y10713071D01*
X-24653603Y9475635D01*
X-24865735Y9687767D01*
X-24865735Y9687767D01*
G37*
G36*
X-24512182Y9334214D02*
X-23274746Y10571650D01*
X-23062614Y10359518D01*
X-24300050Y9122082D01*
X-24512182Y9334214D01*
X-24512182Y9334214D01*
G37*
G36*
X-24158629Y8980661D02*
X-22921193Y10218097D01*
X-22709061Y10005965D01*
X-23946497Y8768529D01*
X-24158629Y8980661D01*
X-24158629Y8980661D01*
G37*
G36*
X-23805075Y8627107D02*
X-22567639Y9864543D01*
X-22355507Y9652411D01*
X-23592943Y8414975D01*
X-23805075Y8627107D01*
X-23805075Y8627107D01*
G37*
G36*
X-25926396Y10748428D02*
X-24688960Y11985864D01*
X-24476828Y11773732D01*
X-25714264Y10536296D01*
X-25926396Y10748428D01*
X-25926396Y10748428D01*
G37*
G36*
X-23451522Y8273554D02*
X-22214086Y9510990D01*
X-22001954Y9298858D01*
X-23239390Y8061422D01*
X-23451522Y8273554D01*
X-23451522Y8273554D01*
G37*
G36*
X-26279949Y11101981D02*
X-25042513Y12339417D01*
X-24830381Y12127285D01*
X-26067817Y10889849D01*
X-26279949Y11101981D01*
X-26279949Y11101981D01*
G37*
G36*
X-26633502Y11455534D02*
X-25396066Y12692970D01*
X-25183934Y12480838D01*
X-26421370Y11243402D01*
X-26633502Y11455534D01*
X-26633502Y11455534D01*
G37*
G36*
X-26987056Y11809088D02*
X-25749620Y13046524D01*
X-25537488Y12834392D01*
X-26774924Y11596956D01*
X-26987056Y11809088D01*
X-26987056Y11809088D01*
G37*
G36*
X-27340609Y12162641D02*
X-26103173Y13400077D01*
X-25891041Y13187945D01*
X-27128477Y11950509D01*
X-27340609Y12162641D01*
X-27340609Y12162641D01*
G37*
G36*
X-30982209Y11278757D02*
X-29744773Y10041321D01*
X-29956905Y9829189D01*
X-31194341Y11066625D01*
X-30982209Y11278757D01*
X-30982209Y11278757D01*
G37*
G36*
X-30628656Y11632310D02*
X-29391220Y10394874D01*
X-29603352Y10182742D01*
X-30840788Y11420178D01*
X-30628656Y11632310D01*
X-30628656Y11632310D01*
G37*
G36*
X-30275102Y11985864D02*
X-29037666Y10748428D01*
X-29249798Y10536296D01*
X-30487234Y11773732D01*
X-30275102Y11985864D01*
X-30275102Y11985864D01*
G37*
G36*
X-29921549Y12339417D02*
X-28684113Y11101981D01*
X-28896245Y10889849D01*
X-30133681Y12127285D01*
X-29921549Y12339417D01*
X-29921549Y12339417D01*
G37*
G36*
X-29567996Y12692970D02*
X-28330560Y11455534D01*
X-28542692Y11243402D01*
X-29780128Y12480838D01*
X-29567996Y12692970D01*
X-29567996Y12692970D01*
G37*
G36*
X-29214442Y13046524D02*
X-27977006Y11809088D01*
X-28189138Y11596956D01*
X-29426574Y12834392D01*
X-29214442Y13046524D01*
X-29214442Y13046524D01*
G37*
G36*
X-28860889Y13400077D02*
X-27623453Y12162641D01*
X-27835585Y11950509D01*
X-29073021Y13187945D01*
X-28860889Y13400077D01*
X-28860889Y13400077D01*
G37*
G36*
X-31335763Y10925203D02*
X-30098327Y9687767D01*
X-30310459Y9475635D01*
X-31547895Y10713071D01*
X-31335763Y10925203D01*
X-31335763Y10925203D01*
G37*
G36*
X-31689316Y10571650D02*
X-30451880Y9334214D01*
X-30664012Y9122082D01*
X-31901448Y10359518D01*
X-31689316Y10571650D01*
X-31689316Y10571650D01*
G37*
G36*
X-32042869Y10218097D02*
X-30805433Y8980661D01*
X-31017565Y8768529D01*
X-32255001Y10005965D01*
X-32042869Y10218097D01*
X-32042869Y10218097D01*
G37*
G36*
X-32396423Y9864543D02*
X-31158987Y8627107D01*
X-31371119Y8414975D01*
X-32608555Y9652411D01*
X-32396423Y9864543D01*
X-32396423Y9864543D01*
G37*
G36*
X-32749976Y9510990D02*
X-31512540Y8273554D01*
X-31724672Y8061422D01*
X-32962108Y9298858D01*
X-32749976Y9510990D01*
X-32749976Y9510990D01*
G37*
G36*
X-30840788Y4419822D02*
X-29603352Y5657258D01*
X-29391220Y5445126D01*
X-30628656Y4207690D01*
X-30840788Y4419822D01*
X-30840788Y4419822D01*
G37*
G36*
X-31194341Y4773375D02*
X-29956905Y6010811D01*
X-29744773Y5798679D01*
X-30982209Y4561243D01*
X-31194341Y4773375D01*
X-31194341Y4773375D01*
G37*
G36*
X-30487234Y4066268D02*
X-29249798Y5303704D01*
X-29037666Y5091572D01*
X-30275102Y3854136D01*
X-30487234Y4066268D01*
X-30487234Y4066268D01*
G37*
G36*
X-30133681Y3712715D02*
X-28896245Y4950151D01*
X-28684113Y4738019D01*
X-29921549Y3500583D01*
X-30133681Y3712715D01*
X-30133681Y3712715D01*
G37*
G36*
X-29780128Y3359162D02*
X-28542692Y4596598D01*
X-28330560Y4384466D01*
X-29567996Y3147030D01*
X-29780128Y3359162D01*
X-29780128Y3359162D01*
G37*
G36*
X-29426574Y3005608D02*
X-28189138Y4243044D01*
X-27977006Y4030912D01*
X-29214442Y2793476D01*
X-29426574Y3005608D01*
X-29426574Y3005608D01*
G37*
G36*
X-29073021Y2652055D02*
X-27835585Y3889491D01*
X-27623453Y3677359D01*
X-28860889Y2439923D01*
X-29073021Y2652055D01*
X-29073021Y2652055D01*
G37*
G36*
X-31547895Y5126929D02*
X-30310459Y6364365D01*
X-30098327Y6152233D01*
X-31335763Y4914797D01*
X-31547895Y5126929D01*
X-31547895Y5126929D01*
G37*
G36*
X-31901448Y5480482D02*
X-30664012Y6717918D01*
X-30451880Y6505786D01*
X-31689316Y5268350D01*
X-31901448Y5480482D01*
X-31901448Y5480482D01*
G37*
G36*
X-32255001Y5834035D02*
X-31017565Y7071471D01*
X-30805433Y6859339D01*
X-32042869Y5621903D01*
X-32255001Y5834035D01*
X-32255001Y5834035D01*
G37*
G36*
X-32608555Y6187589D02*
X-31371119Y7425025D01*
X-31158987Y7212893D01*
X-32396423Y5975457D01*
X-32608555Y6187589D01*
X-32608555Y6187589D01*
G37*
G36*
X-32962108Y6541142D02*
X-31724672Y7778578D01*
X-31512540Y7566446D01*
X-32749976Y6329010D01*
X-32962108Y6541142D01*
X-32962108Y6541142D01*
G37*
G36*
X-25290000Y9447351D02*
X-23762649Y7920000D01*
X-25290000Y6392649D01*
X-26817351Y7920000D01*
X-25290000Y9447351D01*
X-25290000Y9447351D01*
G37*
G36*
X-29674062Y9447351D02*
X-28146711Y7920000D01*
X-29674062Y6392649D01*
X-31201413Y7920000D01*
X-29674062Y9447351D01*
X-29674062Y9447351D01*
G37*
G36*
X-27482031Y7255320D02*
X-25954680Y5727969D01*
X-27482031Y4200618D01*
X-29009382Y5727969D01*
X-27482031Y7255320D01*
X-27482031Y7255320D01*
G37*
G36*
X-27482031Y11639382D02*
X-25954680Y10112031D01*
X-27482031Y8584680D01*
X-29009382Y10112031D01*
X-27482031Y11639382D01*
X-27482031Y11639382D01*
G37*
M02*
