%TF.GenerationSoftware,KiCad,Pcbnew,4.0.7*%
%TF.CreationDate,2017-11-06T20:43:19+08:00*%
%TF.ProjectId,STM32F401CCT6,53544D333246343031434354362E6B69,rev?*%
%TF.FileFunction,Soldermask,Top*%
%FSLAX46Y46*%
G04 Gerber Fmt 4.6, Leading zero omitted, Abs format (unit mm)*
G04 Created by KiCad (PCBNEW 4.0.7) date 11/06/17 20:43:19*
%MOMM*%
%LPD*%
G01*
G04 APERTURE LIST*
%ADD10C,0.100000*%
%ADD11R,2.100000X2.100000*%
%ADD12O,2.100000X2.100000*%
%ADD13R,2.300000X1.900000*%
%ADD14C,1.850000*%
%ADD15R,1.750000X0.800000*%
%ADD16O,2.300000X1.600000*%
%ADD17R,2.300000X1.600000*%
%ADD18R,2.100000X1.400000*%
%ADD19R,1.600000X1.600000*%
%ADD20C,1.900000*%
%ADD21R,2.300000X1.700000*%
%ADD22R,1.200000X1.150000*%
G04 APERTURE END LIST*
D10*
D11*
X-430000Y15700000D03*
D12*
X-2970000Y15700000D03*
X-5510000Y15700000D03*
X-8050000Y15700000D03*
X-10590000Y15700000D03*
X-13130000Y15700000D03*
X-15670000Y15700000D03*
X-18210000Y15700000D03*
X-20750000Y15700000D03*
X-23290000Y15700000D03*
X-25830000Y15700000D03*
X-28370000Y15700000D03*
X-30910000Y15700000D03*
X-33450000Y15700000D03*
X-35990000Y15700000D03*
X-38530000Y15700000D03*
X-41070000Y15700000D03*
X-43610000Y15700000D03*
X-46150000Y15700000D03*
X-48690000Y15700000D03*
D11*
X-430000Y200000D03*
D12*
X-2970000Y200000D03*
X-5510000Y200000D03*
X-8050000Y200000D03*
X-10590000Y200000D03*
X-13130000Y200000D03*
X-15670000Y200000D03*
X-18210000Y200000D03*
X-20750000Y200000D03*
X-23290000Y200000D03*
X-25830000Y200000D03*
X-28370000Y200000D03*
X-30910000Y200000D03*
X-33450000Y200000D03*
X-35990000Y200000D03*
X-38530000Y200000D03*
X-41070000Y200000D03*
X-43610000Y200000D03*
X-46150000Y200000D03*
X-48690000Y200000D03*
D11*
X-36472000Y6302000D03*
D12*
X-36472000Y3762000D03*
X-39012000Y6302000D03*
X-39012000Y3762000D03*
X-41552000Y6302000D03*
X-41552000Y3762000D03*
D13*
X-48470000Y6580000D03*
D14*
X-45770000Y10080000D03*
D15*
X-45770000Y8230000D03*
X-45770000Y8880000D03*
X-45770000Y6280000D03*
X-45770000Y6930000D03*
X-45770000Y7580000D03*
D14*
X-45770000Y5080000D03*
D13*
X-48470000Y8580000D03*
D16*
X-48470000Y11080000D03*
X-48470000Y4080000D03*
D17*
X-48470000Y4680000D03*
X-48470000Y10480000D03*
D18*
X-42130000Y12920000D03*
X-35830000Y12920000D03*
X-42130000Y9120000D03*
X-35830000Y9120000D03*
D11*
X-2810000Y12900000D03*
D12*
X-2810000Y10360000D03*
X-2810000Y7820000D03*
X-2810000Y5280000D03*
X-2810000Y2740000D03*
D19*
X-6990000Y12060000D03*
X-6990000Y9860000D03*
X-6990000Y6220000D03*
X-6990000Y4020000D03*
D20*
X-18440000Y5160000D03*
X-18440000Y10040000D03*
D21*
X-10560000Y4590000D03*
X-10560000Y10090000D03*
X-13760000Y10090000D03*
X-13760000Y4590000D03*
D22*
X-23831000Y-13615001D03*
X-25331000Y-13615001D03*
X-23831000Y-13615001D03*
X-25331000Y-13615001D03*
X-23831000Y-13615001D03*
X-25331000Y-13615001D03*
X-23831000Y-13615001D03*
X-25331000Y-13615001D03*
X-23831000Y-13615001D03*
X-25331000Y-13615001D03*
D19*
X-23481000Y-13615001D03*
X-25681000Y-13615001D03*
X-23481000Y-13615001D03*
X-25681000Y-13615001D03*
D10*
G36*
X-23239390Y8061421D02*
X-21719111Y6541142D01*
X-22214086Y6046167D01*
X-23734365Y7566446D01*
X-23239390Y8061421D01*
X-23239390Y8061421D01*
G37*
G36*
X-23592943Y7707868D02*
X-22072664Y6187589D01*
X-22567639Y5692614D01*
X-24087918Y7212893D01*
X-23592943Y7707868D01*
X-23592943Y7707868D01*
G37*
G36*
X-23946497Y7354314D02*
X-22426218Y5834035D01*
X-22921193Y5339060D01*
X-24441472Y6859339D01*
X-23946497Y7354314D01*
X-23946497Y7354314D01*
G37*
G36*
X-24300050Y7000761D02*
X-22779771Y5480482D01*
X-23274746Y4985507D01*
X-24795025Y6505786D01*
X-24300050Y7000761D01*
X-24300050Y7000761D01*
G37*
G36*
X-24653603Y6647208D02*
X-23133324Y5126929D01*
X-23628299Y4631954D01*
X-25148578Y6152233D01*
X-24653603Y6647208D01*
X-24653603Y6647208D01*
G37*
G36*
X-23981853Y4278400D02*
X-25502132Y5798679D01*
X-25007157Y6293654D01*
X-23486878Y4773375D01*
X-23981853Y4278400D01*
X-23981853Y4278400D01*
G37*
G36*
X-25360710Y5940101D02*
X-23840431Y4419822D01*
X-24335406Y3924847D01*
X-25855685Y5445126D01*
X-25360710Y5940101D01*
X-25360710Y5940101D01*
G37*
G36*
X-25714264Y5586547D02*
X-24193985Y4066268D01*
X-24688960Y3571293D01*
X-26209239Y5091572D01*
X-25714264Y5586547D01*
X-25714264Y5586547D01*
G37*
G36*
X-26067817Y5232994D02*
X-24547538Y3712715D01*
X-25042513Y3217740D01*
X-26562792Y4738019D01*
X-26067817Y5232994D01*
X-26067817Y5232994D01*
G37*
G36*
X-26421370Y4879441D02*
X-24901091Y3359162D01*
X-25396066Y2864187D01*
X-26916345Y4384466D01*
X-26421370Y4879441D01*
X-26421370Y4879441D01*
G37*
G36*
X-26774924Y4525887D02*
X-25254645Y3005608D01*
X-25749620Y2510633D01*
X-27269899Y4030912D01*
X-26774924Y4525887D01*
X-26774924Y4525887D01*
G37*
G36*
X-27128477Y4172334D02*
X-25608198Y2652055D01*
X-26103173Y2157080D01*
X-27623452Y3677359D01*
X-27128477Y4172334D01*
X-27128477Y4172334D01*
G37*
G36*
X-25855685Y10394874D02*
X-24335406Y11915153D01*
X-23840431Y11420178D01*
X-25360710Y9899899D01*
X-25855685Y10394874D01*
X-25855685Y10394874D01*
G37*
G36*
X-25502132Y10041321D02*
X-23981853Y11561600D01*
X-23486878Y11066625D01*
X-25007157Y9546346D01*
X-25502132Y10041321D01*
X-25502132Y10041321D01*
G37*
G36*
X-25148578Y9687767D02*
X-23628299Y11208046D01*
X-23133324Y10713071D01*
X-24653603Y9192792D01*
X-25148578Y9687767D01*
X-25148578Y9687767D01*
G37*
G36*
X-24795025Y9334214D02*
X-23274746Y10854493D01*
X-22779771Y10359518D01*
X-24300050Y8839239D01*
X-24795025Y9334214D01*
X-24795025Y9334214D01*
G37*
G36*
X-24441472Y8980661D02*
X-22921193Y10500940D01*
X-22426218Y10005965D01*
X-23946497Y8485686D01*
X-24441472Y8980661D01*
X-24441472Y8980661D01*
G37*
G36*
X-24087918Y8627107D02*
X-22567639Y10147386D01*
X-22072664Y9652411D01*
X-23592943Y8132132D01*
X-24087918Y8627107D01*
X-24087918Y8627107D01*
G37*
G36*
X-26209239Y10748428D02*
X-24688960Y12268707D01*
X-24193985Y11773732D01*
X-25714264Y10253453D01*
X-26209239Y10748428D01*
X-26209239Y10748428D01*
G37*
G36*
X-23734365Y8273554D02*
X-22214086Y9793833D01*
X-21719111Y9298858D01*
X-23239390Y7778579D01*
X-23734365Y8273554D01*
X-23734365Y8273554D01*
G37*
G36*
X-26562792Y11101981D02*
X-25042513Y12622260D01*
X-24547538Y12127285D01*
X-26067817Y10607006D01*
X-26562792Y11101981D01*
X-26562792Y11101981D01*
G37*
G36*
X-26916345Y11455534D02*
X-25396066Y12975813D01*
X-24901091Y12480838D01*
X-26421370Y10960559D01*
X-26916345Y11455534D01*
X-26916345Y11455534D01*
G37*
G36*
X-27269899Y11809088D02*
X-25749620Y13329367D01*
X-25254645Y12834392D01*
X-26774924Y11314113D01*
X-27269899Y11809088D01*
X-27269899Y11809088D01*
G37*
G36*
X-27623452Y12162641D02*
X-26103173Y13682920D01*
X-25608198Y13187945D01*
X-27128477Y11667666D01*
X-27623452Y12162641D01*
X-27623452Y12162641D01*
G37*
G36*
X-30982209Y11561600D02*
X-29461930Y10041321D01*
X-29956905Y9546346D01*
X-31477184Y11066625D01*
X-30982209Y11561600D01*
X-30982209Y11561600D01*
G37*
G36*
X-30628656Y11915153D02*
X-29108377Y10394874D01*
X-29603352Y9899899D01*
X-31123631Y11420178D01*
X-30628656Y11915153D01*
X-30628656Y11915153D01*
G37*
G36*
X-30275102Y12268707D02*
X-28754823Y10748428D01*
X-29249798Y10253453D01*
X-30770077Y11773732D01*
X-30275102Y12268707D01*
X-30275102Y12268707D01*
G37*
G36*
X-29921549Y12622260D02*
X-28401270Y11101981D01*
X-28896245Y10607006D01*
X-30416524Y12127285D01*
X-29921549Y12622260D01*
X-29921549Y12622260D01*
G37*
G36*
X-29567996Y12975813D02*
X-28047717Y11455534D01*
X-28542692Y10960559D01*
X-30062971Y12480838D01*
X-29567996Y12975813D01*
X-29567996Y12975813D01*
G37*
G36*
X-29214442Y13329367D02*
X-27694163Y11809088D01*
X-28189138Y11314113D01*
X-29709417Y12834392D01*
X-29214442Y13329367D01*
X-29214442Y13329367D01*
G37*
G36*
X-28860889Y13682920D02*
X-27340610Y12162641D01*
X-27835585Y11667666D01*
X-29355864Y13187945D01*
X-28860889Y13682920D01*
X-28860889Y13682920D01*
G37*
G36*
X-31335763Y11208046D02*
X-29815484Y9687767D01*
X-30310459Y9192792D01*
X-31830738Y10713071D01*
X-31335763Y11208046D01*
X-31335763Y11208046D01*
G37*
G36*
X-31689316Y10854493D02*
X-30169037Y9334214D01*
X-30664012Y8839239D01*
X-32184291Y10359518D01*
X-31689316Y10854493D01*
X-31689316Y10854493D01*
G37*
G36*
X-32042869Y10500940D02*
X-30522590Y8980661D01*
X-31017565Y8485686D01*
X-32537844Y10005965D01*
X-32042869Y10500940D01*
X-32042869Y10500940D01*
G37*
G36*
X-32396423Y10147386D02*
X-30876144Y8627107D01*
X-31371119Y8132132D01*
X-32891398Y9652411D01*
X-32396423Y10147386D01*
X-32396423Y10147386D01*
G37*
G36*
X-32749976Y9793833D02*
X-31229697Y8273554D01*
X-31724672Y7778579D01*
X-33244951Y9298858D01*
X-32749976Y9793833D01*
X-32749976Y9793833D01*
G37*
G36*
X-31123631Y4419822D02*
X-29603352Y5940101D01*
X-29108377Y5445126D01*
X-30628656Y3924847D01*
X-31123631Y4419822D01*
X-31123631Y4419822D01*
G37*
G36*
X-31477184Y4773375D02*
X-29956905Y6293654D01*
X-29461930Y5798679D01*
X-30982209Y4278400D01*
X-31477184Y4773375D01*
X-31477184Y4773375D01*
G37*
G36*
X-30770077Y4066268D02*
X-29249798Y5586547D01*
X-28754823Y5091572D01*
X-30275102Y3571293D01*
X-30770077Y4066268D01*
X-30770077Y4066268D01*
G37*
G36*
X-30416524Y3712715D02*
X-28896245Y5232994D01*
X-28401270Y4738019D01*
X-29921549Y3217740D01*
X-30416524Y3712715D01*
X-30416524Y3712715D01*
G37*
G36*
X-30062971Y3359162D02*
X-28542692Y4879441D01*
X-28047717Y4384466D01*
X-29567996Y2864187D01*
X-30062971Y3359162D01*
X-30062971Y3359162D01*
G37*
G36*
X-29709417Y3005608D02*
X-28189138Y4525887D01*
X-27694163Y4030912D01*
X-29214442Y2510633D01*
X-29709417Y3005608D01*
X-29709417Y3005608D01*
G37*
G36*
X-29355864Y2652055D02*
X-27835585Y4172334D01*
X-27340610Y3677359D01*
X-28860889Y2157080D01*
X-29355864Y2652055D01*
X-29355864Y2652055D01*
G37*
G36*
X-31830738Y5126929D02*
X-30310459Y6647208D01*
X-29815484Y6152233D01*
X-31335763Y4631954D01*
X-31830738Y5126929D01*
X-31830738Y5126929D01*
G37*
G36*
X-32184291Y5480482D02*
X-30664012Y7000761D01*
X-30169037Y6505786D01*
X-31689316Y4985507D01*
X-32184291Y5480482D01*
X-32184291Y5480482D01*
G37*
G36*
X-32537844Y5834035D02*
X-31017565Y7354314D01*
X-30522590Y6859339D01*
X-32042869Y5339060D01*
X-32537844Y5834035D01*
X-32537844Y5834035D01*
G37*
G36*
X-32891398Y6187589D02*
X-31371119Y7707868D01*
X-30876144Y7212893D01*
X-32396423Y5692614D01*
X-32891398Y6187589D01*
X-32891398Y6187589D01*
G37*
G36*
X-33244951Y6541142D02*
X-31724672Y8061421D01*
X-31229697Y7566446D01*
X-32749976Y6046167D01*
X-33244951Y6541142D01*
X-33244951Y6541142D01*
G37*
G36*
X-25290000Y9701909D02*
X-23508091Y7920000D01*
X-25290000Y6138091D01*
X-27071909Y7920000D01*
X-25290000Y9701909D01*
X-25290000Y9701909D01*
G37*
G36*
X-29674062Y9701909D02*
X-27892153Y7920000D01*
X-29674062Y6138091D01*
X-31455971Y7920000D01*
X-29674062Y9701909D01*
X-29674062Y9701909D01*
G37*
G36*
X-27482031Y7509878D02*
X-25700122Y5727969D01*
X-27482031Y3946060D01*
X-29263940Y5727969D01*
X-27482031Y7509878D01*
X-27482031Y7509878D01*
G37*
G36*
X-27482031Y11893940D02*
X-25700122Y10112031D01*
X-27482031Y8330122D01*
X-29263940Y10112031D01*
X-27482031Y11893940D01*
X-27482031Y11893940D01*
G37*
M02*
