%TF.GenerationSoftware,KiCad,Pcbnew,4.0.7*%
%TF.CreationDate,2017-11-17T00:30:49+08:00*%
%TF.ProjectId,STM32F401CCT6,53544D333246343031434354362E6B69,rev?*%
%TF.FileFunction,Legend,Top*%
%FSLAX46Y46*%
G04 Gerber Fmt 4.6, Leading zero omitted, Abs format (unit mm)*
G04 Created by KiCad (PCBNEW 4.0.7) date 11/17/17 00:30:49*
%MOMM*%
%LPD*%
G01*
G04 APERTURE LIST*
%ADD10C,0.100000*%
%ADD11C,0.200000*%
%ADD12C,0.237500*%
%ADD13C,0.120000*%
%ADD14C,0.300000*%
%ADD15C,0.150000*%
G04 APERTURE END LIST*
D10*
D11*
X43612000Y-8592000D02*
X43612000Y-8252000D01*
X43372000Y-8252000D02*
X43872000Y-8252000D01*
X43622000Y-14422000D02*
X43622000Y-14082000D01*
X43372000Y-14082000D02*
X43872000Y-14082000D01*
X44947772Y-11467885D02*
X45046154Y-11392720D01*
X45141392Y-11227763D01*
X45138248Y-11137971D01*
X45116057Y-11081169D01*
X45052626Y-11000559D01*
X44970147Y-10952940D01*
X44868621Y-10938312D01*
X44808334Y-10947495D01*
X44728999Y-10989667D01*
X44611569Y-11097824D01*
X44532234Y-11139997D01*
X44471948Y-11149179D01*
X44370422Y-11134551D01*
X44287943Y-11086932D01*
X44224512Y-11006322D01*
X44202320Y-10949521D01*
X44199177Y-10859729D01*
X44294415Y-10694772D01*
X44392797Y-10619606D01*
X44484891Y-10364857D02*
X45446154Y-10699900D01*
X44903755Y-10210791D01*
X45598535Y-10435968D01*
X44827748Y-9771011D01*
X45846154Y-10007079D02*
X44980129Y-9507079D01*
X45075367Y-9342122D01*
X45173749Y-9266957D01*
X45294323Y-9248593D01*
X45395849Y-9263220D01*
X45579854Y-9325467D01*
X45703573Y-9396896D01*
X45849482Y-9525125D01*
X45912913Y-9605736D01*
X45957296Y-9719338D01*
X45941392Y-9842122D01*
X45846154Y-10007079D01*
X46392247Y-8870742D02*
X46414439Y-8927543D01*
X46398535Y-9050327D01*
X46360440Y-9116310D01*
X46262058Y-9191475D01*
X46141484Y-9209839D01*
X46039958Y-9195211D01*
X45855954Y-9132965D01*
X45732235Y-9061536D01*
X45586325Y-8933306D01*
X45522894Y-8852696D01*
X45478511Y-8739094D01*
X45494415Y-8616310D01*
X45532510Y-8550327D01*
X45630892Y-8475162D01*
X45691179Y-8465980D01*
X46836631Y-8291524D02*
X46646154Y-8621439D01*
X45780129Y-8121439D01*
X46969964Y-8060584D02*
X46103939Y-7560584D01*
X47198535Y-7664687D02*
X46532235Y-7675895D01*
X46332510Y-7164687D02*
X46598811Y-7846299D01*
X8412477Y-17182000D02*
X8336286Y-17139143D01*
X8222001Y-17139143D01*
X8107715Y-17182000D01*
X8031524Y-17267714D01*
X7993429Y-17353429D01*
X7955334Y-17524857D01*
X7955334Y-17653429D01*
X7993429Y-17824857D01*
X8031524Y-17910571D01*
X8107715Y-17996286D01*
X8222001Y-18039143D01*
X8298191Y-18039143D01*
X8412477Y-17996286D01*
X8450572Y-17953429D01*
X8450572Y-17653429D01*
X8298191Y-17653429D01*
X8793429Y-18039143D02*
X8793429Y-17139143D01*
X9250572Y-18039143D01*
X9250572Y-17139143D01*
X9631524Y-18039143D02*
X9631524Y-17139143D01*
X9822000Y-17139143D01*
X9936286Y-17182000D01*
X10012477Y-17267714D01*
X10050572Y-17353429D01*
X10088667Y-17524857D01*
X10088667Y-17653429D01*
X10050572Y-17824857D01*
X10012477Y-17910571D01*
X9936286Y-17996286D01*
X9822000Y-18039143D01*
X9631524Y-18039143D01*
X16348571Y-14906666D02*
X16396190Y-14792380D01*
X16443810Y-14754285D01*
X16539048Y-14716190D01*
X16681905Y-14716190D01*
X16777143Y-14754285D01*
X16824762Y-14792380D01*
X16872381Y-14868571D01*
X16872381Y-15173333D01*
X15872381Y-15173333D01*
X15872381Y-14906666D01*
X15920000Y-14830476D01*
X15967619Y-14792380D01*
X16062857Y-14754285D01*
X16158095Y-14754285D01*
X16253333Y-14792380D01*
X16300952Y-14830476D01*
X16348571Y-14906666D01*
X16348571Y-15173333D01*
X15872381Y-14220952D02*
X15872381Y-14068571D01*
X15920000Y-13992380D01*
X16015238Y-13916190D01*
X16205714Y-13878095D01*
X16539048Y-13878095D01*
X16729524Y-13916190D01*
X16824762Y-13992380D01*
X16872381Y-14068571D01*
X16872381Y-14220952D01*
X16824762Y-14297142D01*
X16729524Y-14373333D01*
X16539048Y-14411428D01*
X16205714Y-14411428D01*
X16015238Y-14373333D01*
X15920000Y-14297142D01*
X15872381Y-14220952D01*
X15872381Y-13382857D02*
X15872381Y-13230476D01*
X15920000Y-13154285D01*
X16015238Y-13078095D01*
X16205714Y-13040000D01*
X16539048Y-13040000D01*
X16729524Y-13078095D01*
X16824762Y-13154285D01*
X16872381Y-13230476D01*
X16872381Y-13382857D01*
X16824762Y-13459047D01*
X16729524Y-13535238D01*
X16539048Y-13573333D01*
X16205714Y-13573333D01*
X16015238Y-13535238D01*
X15920000Y-13459047D01*
X15872381Y-13382857D01*
X15872381Y-12811429D02*
X15872381Y-12354286D01*
X16872381Y-12582857D02*
X15872381Y-12582857D01*
X16872381Y-11668571D02*
X16872381Y-12125714D01*
X16872381Y-11897143D02*
X15872381Y-11897143D01*
X16015238Y-11973333D01*
X16110476Y-12049524D01*
X16158095Y-12125714D01*
X7492381Y-8698095D02*
X7016190Y-8964762D01*
X7492381Y-9155238D02*
X6492381Y-9155238D01*
X6492381Y-8850476D01*
X6540000Y-8774285D01*
X6587619Y-8736190D01*
X6682857Y-8698095D01*
X6825714Y-8698095D01*
X6920952Y-8736190D01*
X6968571Y-8774285D01*
X7016190Y-8850476D01*
X7016190Y-9155238D01*
X7444762Y-8393333D02*
X7492381Y-8279047D01*
X7492381Y-8088571D01*
X7444762Y-8012381D01*
X7397143Y-7974285D01*
X7301905Y-7936190D01*
X7206667Y-7936190D01*
X7111429Y-7974285D01*
X7063810Y-8012381D01*
X7016190Y-8088571D01*
X6968571Y-8240952D01*
X6920952Y-8317143D01*
X6873333Y-8355238D01*
X6778095Y-8393333D01*
X6682857Y-8393333D01*
X6587619Y-8355238D01*
X6540000Y-8317143D01*
X6492381Y-8240952D01*
X6492381Y-8050476D01*
X6540000Y-7936190D01*
X6492381Y-7707619D02*
X6492381Y-7250476D01*
X7492381Y-7479047D02*
X6492381Y-7479047D01*
X6730000Y-13270000D02*
X6730000Y-13440000D01*
X16150000Y-16270000D02*
X15770000Y-16020000D01*
X16130000Y-15750000D02*
X16150000Y-16270000D01*
X15760000Y-16060000D02*
X16130000Y-15750000D01*
X16490000Y-16020000D02*
X15760000Y-16060000D01*
X16510000Y-15390000D02*
X16490000Y-16020000D01*
X7490000Y-12950000D02*
X7070000Y-12720000D01*
X7060000Y-13190000D02*
X7490000Y-12950000D01*
X7060000Y-12730000D02*
X7060000Y-13190000D01*
X7380000Y-12920000D02*
X7060000Y-12730000D01*
X6730000Y-12930000D02*
X7380000Y-12920000D01*
X6730000Y-13260000D02*
X6730000Y-12930000D01*
X6808571Y-16876666D02*
X6856190Y-16762380D01*
X6903810Y-16724285D01*
X6999048Y-16686190D01*
X7141905Y-16686190D01*
X7237143Y-16724285D01*
X7284762Y-16762380D01*
X7332381Y-16838571D01*
X7332381Y-17143333D01*
X6332381Y-17143333D01*
X6332381Y-16876666D01*
X6380000Y-16800476D01*
X6427619Y-16762380D01*
X6522857Y-16724285D01*
X6618095Y-16724285D01*
X6713333Y-16762380D01*
X6760952Y-16800476D01*
X6808571Y-16876666D01*
X6808571Y-17143333D01*
X6332381Y-16190952D02*
X6332381Y-16038571D01*
X6380000Y-15962380D01*
X6475238Y-15886190D01*
X6665714Y-15848095D01*
X6999048Y-15848095D01*
X7189524Y-15886190D01*
X7284762Y-15962380D01*
X7332381Y-16038571D01*
X7332381Y-16190952D01*
X7284762Y-16267142D01*
X7189524Y-16343333D01*
X6999048Y-16381428D01*
X6665714Y-16381428D01*
X6475238Y-16343333D01*
X6380000Y-16267142D01*
X6332381Y-16190952D01*
X6332381Y-15352857D02*
X6332381Y-15200476D01*
X6380000Y-15124285D01*
X6475238Y-15048095D01*
X6665714Y-15010000D01*
X6999048Y-15010000D01*
X7189524Y-15048095D01*
X7284762Y-15124285D01*
X7332381Y-15200476D01*
X7332381Y-15352857D01*
X7284762Y-15429047D01*
X7189524Y-15505238D01*
X6999048Y-15543333D01*
X6665714Y-15543333D01*
X6475238Y-15505238D01*
X6380000Y-15429047D01*
X6332381Y-15352857D01*
X6332381Y-14781429D02*
X6332381Y-14324286D01*
X7332381Y-14552857D02*
X6332381Y-14552857D01*
X6332381Y-13905238D02*
X6332381Y-13829047D01*
X6380000Y-13752857D01*
X6427619Y-13714762D01*
X6522857Y-13676666D01*
X6713333Y-13638571D01*
X6951429Y-13638571D01*
X7141905Y-13676666D01*
X7237143Y-13714762D01*
X7284762Y-13752857D01*
X7332381Y-13829047D01*
X7332381Y-13905238D01*
X7284762Y-13981428D01*
X7237143Y-14019524D01*
X7141905Y-14057619D01*
X6951429Y-14095714D01*
X6713333Y-14095714D01*
X6522857Y-14057619D01*
X6427619Y-14019524D01*
X6380000Y-13981428D01*
X6332381Y-13905238D01*
X13175333Y-17169143D02*
X13442000Y-18069143D01*
X13708667Y-17169143D01*
X13975333Y-18069143D02*
X13975333Y-17169143D01*
X14165809Y-17169143D01*
X14280095Y-17212000D01*
X14356286Y-17297714D01*
X14394381Y-17383429D01*
X14432476Y-17554857D01*
X14432476Y-17683429D01*
X14394381Y-17854857D01*
X14356286Y-17940571D01*
X14280095Y-18026286D01*
X14165809Y-18069143D01*
X13975333Y-18069143D01*
X14775333Y-18069143D02*
X14775333Y-17169143D01*
X14965809Y-17169143D01*
X15080095Y-17212000D01*
X15156286Y-17297714D01*
X15194381Y-17383429D01*
X15232476Y-17554857D01*
X15232476Y-17683429D01*
X15194381Y-17854857D01*
X15156286Y-17940571D01*
X15080095Y-18026286D01*
X14965809Y-18069143D01*
X14775333Y-18069143D01*
X44964415Y-17091951D02*
X45963773Y-17361011D01*
X45231082Y-16630070D01*
X46230440Y-16899131D02*
X45364415Y-16399131D01*
X45459653Y-16234174D01*
X45558035Y-16159009D01*
X45678609Y-16140644D01*
X45780135Y-16155272D01*
X45964139Y-16217519D01*
X46087858Y-16288948D01*
X46233768Y-16417177D01*
X46297199Y-16497787D01*
X46341582Y-16611390D01*
X46325678Y-16734174D01*
X46230440Y-16899131D01*
X46630440Y-16206311D02*
X45764415Y-15706311D01*
X45859653Y-15541354D01*
X45958035Y-15466188D01*
X46078609Y-15447824D01*
X46180135Y-15462452D01*
X46364139Y-15524699D01*
X46487858Y-15596128D01*
X46633768Y-15724357D01*
X46697199Y-15804967D01*
X46741582Y-15918569D01*
X46725678Y-16041354D01*
X46630440Y-16206311D01*
X45147851Y-15023575D02*
X45725202Y-15356908D01*
X45230330Y-15071194D02*
X45208138Y-15014393D01*
X45204994Y-14924600D01*
X45262137Y-14825626D01*
X45341472Y-14783453D01*
X45442998Y-14798080D01*
X45896630Y-15059985D01*
X46315678Y-14334173D02*
X45769951Y-14327018D01*
X46087107Y-14730070D02*
X45221082Y-14230070D01*
X45373463Y-13966139D01*
X45452797Y-13923965D01*
X45513084Y-13914783D01*
X45614610Y-13929411D01*
X45738328Y-14000839D01*
X45801759Y-14081450D01*
X45823951Y-14138250D01*
X45827094Y-14228043D01*
X45674713Y-14491975D01*
X46426820Y-14046432D02*
X46525202Y-13971267D01*
X46620440Y-13806310D01*
X46617296Y-13716518D01*
X46595105Y-13659716D01*
X46531674Y-13579106D01*
X46449195Y-13531487D01*
X46347669Y-13516859D01*
X46287382Y-13526042D01*
X46208047Y-13568214D01*
X46090617Y-13676371D01*
X46011282Y-13718544D01*
X45950996Y-13727726D01*
X45849470Y-13713098D01*
X45766991Y-13665479D01*
X45703560Y-13584869D01*
X45681368Y-13528068D01*
X45678225Y-13438276D01*
X45773463Y-13273318D01*
X45871845Y-13198153D01*
X45944891Y-12976396D02*
X46173463Y-12580498D01*
X46925202Y-13278446D02*
X46059177Y-12778446D01*
X45384915Y-13322500D02*
X45483297Y-13247335D01*
X45578535Y-13082378D01*
X45575391Y-12992586D01*
X45553200Y-12935784D01*
X45489769Y-12855174D01*
X45407290Y-12807555D01*
X45305764Y-12792927D01*
X45245477Y-12802110D01*
X45166142Y-12844283D01*
X45048712Y-12952439D01*
X44969377Y-12994613D01*
X44909091Y-13003794D01*
X44807565Y-12989167D01*
X44725086Y-12941548D01*
X44661655Y-12860937D01*
X44639463Y-12804137D01*
X44636320Y-12714344D01*
X44731558Y-12549387D01*
X44829940Y-12474222D01*
X44922034Y-12219472D02*
X45883297Y-12554515D01*
X45340898Y-12065406D01*
X46035678Y-12290583D01*
X45264891Y-11625626D01*
X46283297Y-11861694D02*
X45417272Y-11361694D01*
X45512510Y-11196737D01*
X45610892Y-11121572D01*
X45731466Y-11103208D01*
X45832992Y-11117836D01*
X46016997Y-11180082D01*
X46140716Y-11251511D01*
X46286625Y-11379741D01*
X46350056Y-11460351D01*
X46394439Y-11573953D01*
X46378535Y-11696737D01*
X46283297Y-11861694D01*
X46683297Y-11168874D02*
X45817272Y-10668874D01*
X46083939Y-10206994D02*
X46160129Y-10075028D01*
X46239464Y-10032855D01*
X46360037Y-10014491D01*
X46544042Y-10076738D01*
X46832718Y-10243405D01*
X46978627Y-10371634D01*
X47023011Y-10485236D01*
X47026154Y-10575028D01*
X46949964Y-10706994D01*
X46870630Y-10749167D01*
X46750056Y-10767532D01*
X46566051Y-10705285D01*
X46277375Y-10538618D01*
X46131466Y-10410389D01*
X46087083Y-10296786D01*
X46083939Y-10206994D01*
X44744226Y-7109862D02*
X44664891Y-7152036D01*
X44607749Y-7251010D01*
X44591845Y-7373794D01*
X44636228Y-7487396D01*
X44699659Y-7568007D01*
X44845568Y-7696236D01*
X44969287Y-7767665D01*
X45153292Y-7829912D01*
X45254818Y-7844539D01*
X45375392Y-7826175D01*
X45473774Y-7751010D01*
X45511869Y-7685027D01*
X45527773Y-7562243D01*
X45505581Y-7505443D01*
X45216906Y-7338776D01*
X45140716Y-7470742D01*
X45759488Y-7256139D02*
X44893463Y-6756139D01*
X45988059Y-6860241D01*
X45122034Y-6360241D01*
X46178535Y-6530327D02*
X45312510Y-6030327D01*
X45407748Y-5865370D01*
X45506130Y-5790205D01*
X45626704Y-5771841D01*
X45728230Y-5786469D01*
X45912235Y-5848715D01*
X46035954Y-5920144D01*
X46181863Y-6048374D01*
X46245294Y-6128984D01*
X46289677Y-6242586D01*
X46273773Y-6365370D01*
X46178535Y-6530327D01*
D12*
X536519Y-1470913D02*
X892395Y-590088D01*
X1227948Y-725660D01*
X1294889Y-801497D01*
X1319888Y-860388D01*
X1327939Y-961222D01*
X1277099Y-1087055D01*
X1201262Y-1153997D01*
X1142371Y-1178994D01*
X1041536Y-1187045D01*
X705984Y-1051473D01*
X1689332Y-912072D02*
X1543176Y-1877629D01*
X1965150Y-1316254D01*
X1878729Y-2013201D01*
X2444325Y-1217109D01*
X2610412Y-1772121D02*
X2904020Y-1890746D01*
X2843441Y-2402970D02*
X2424000Y-2233505D01*
X2779876Y-1352680D01*
X3199317Y-1522145D01*
X4096834Y-798444D02*
X4029892Y-722607D01*
X3904060Y-671767D01*
X3761282Y-662872D01*
X3643501Y-712867D01*
X3567663Y-779808D01*
X3457933Y-930638D01*
X3407094Y-1056470D01*
X3381252Y-1241192D01*
X3389303Y-1342028D01*
X3439298Y-1459809D01*
X3548184Y-1552592D01*
X3632072Y-1586485D01*
X3774851Y-1595381D01*
X3833741Y-1570383D01*
X3952367Y-1276775D01*
X3784590Y-1208989D01*
X4177344Y-1806789D02*
X4533220Y-925965D01*
X4680673Y-2010147D01*
X5036549Y-1129323D01*
X5100112Y-2179612D02*
X5455989Y-1298787D01*
X5665709Y-1383520D01*
X5774595Y-1476303D01*
X5824590Y-1594084D01*
X5832642Y-1694919D01*
X5806799Y-1879642D01*
X5755960Y-2005474D01*
X5646230Y-2156303D01*
X5570392Y-2223245D01*
X5452611Y-2273240D01*
X5309833Y-2264345D01*
X5100112Y-2179612D01*
X6140451Y-703142D02*
X6078184Y-1702592D01*
X6727668Y-940393D01*
X6665400Y-1939843D02*
X7021276Y-1059018D01*
X7230997Y-1143751D01*
X7339882Y-1236534D01*
X7389877Y-1354315D01*
X7397929Y-1455150D01*
X7372087Y-1639873D01*
X7321247Y-1765705D01*
X7211518Y-1916534D01*
X7135680Y-1983476D01*
X7017899Y-2033471D01*
X6875120Y-2024575D01*
X6665400Y-1939843D01*
X7546224Y-2295719D02*
X7902101Y-1414894D01*
X8111821Y-1499627D01*
X8220707Y-1592410D01*
X8270702Y-1710191D01*
X8278754Y-1811026D01*
X8252911Y-1995749D01*
X8202072Y-2121581D01*
X8092342Y-2272410D01*
X8016504Y-2339352D01*
X7898723Y-2389347D01*
X7755945Y-2380452D01*
X7546224Y-2295719D01*
X8976652Y-1743584D02*
X8852508Y-1205518D01*
X8473323Y-1540226D02*
X8829199Y-659401D01*
X9164752Y-794973D01*
X9231693Y-870810D01*
X9256691Y-929701D01*
X9264742Y-1030535D01*
X9213903Y-1156368D01*
X9138066Y-1223309D01*
X9079175Y-1248306D01*
X8978340Y-1256357D01*
X8642788Y-1120785D01*
X9329150Y-1837211D02*
X9438036Y-1929995D01*
X9647756Y-2014727D01*
X9748590Y-2006676D01*
X9807481Y-1981679D01*
X9883319Y-1914738D01*
X9917212Y-1830849D01*
X9909160Y-1730014D01*
X9884162Y-1671124D01*
X9817221Y-1595287D01*
X9666392Y-1485557D01*
X9599450Y-1409720D01*
X9574452Y-1350830D01*
X9566401Y-1249994D01*
X9600294Y-1166107D01*
X9676131Y-1099165D01*
X9735022Y-1074168D01*
X9835857Y-1066117D01*
X10045576Y-1150849D01*
X10154463Y-1243633D01*
X10423073Y-1303368D02*
X10926401Y-1506725D01*
X10318861Y-2285871D02*
X10674737Y-1405047D01*
X11639455Y-1253574D02*
X11748340Y-1346357D01*
X11773339Y-1405248D01*
X11781390Y-1506082D01*
X11730550Y-1631915D01*
X11654713Y-1698857D01*
X11595822Y-1723854D01*
X11494987Y-1731905D01*
X11159435Y-1596333D01*
X11515311Y-715508D01*
X11808920Y-834134D01*
X11875861Y-909970D01*
X11900859Y-968861D01*
X11908911Y-1069696D01*
X11875018Y-1153583D01*
X11799180Y-1220525D01*
X11740289Y-1245523D01*
X11639455Y-1253574D01*
X11345846Y-1134948D01*
X12501645Y-2138621D02*
X11998316Y-1935263D01*
X12249980Y-2036942D02*
X12605857Y-1156117D01*
X12471129Y-1248056D01*
X12353349Y-1298051D01*
X12252513Y-1306102D01*
X13340526Y-2477551D02*
X12837196Y-2274192D01*
X13088861Y-2375871D02*
X13444737Y-1495047D01*
X13310010Y-1586986D01*
X13192229Y-1636981D01*
X13091394Y-1645031D01*
X14161455Y-1265574D02*
X14270340Y-1358357D01*
X14295339Y-1417248D01*
X14303390Y-1518082D01*
X14252550Y-1643915D01*
X14176713Y-1710857D01*
X14117822Y-1735854D01*
X14016987Y-1743905D01*
X13681435Y-1608333D01*
X14037311Y-727508D01*
X14330920Y-846134D01*
X14397861Y-921970D01*
X14422859Y-980861D01*
X14430911Y-1081696D01*
X14397018Y-1165583D01*
X14321180Y-1232525D01*
X14262289Y-1257523D01*
X14161455Y-1265574D01*
X13867846Y-1146948D01*
X15023645Y-2150621D02*
X14520316Y-1947263D01*
X14771980Y-2048942D02*
X15127857Y-1168117D01*
X14993129Y-1260056D01*
X14875349Y-1310051D01*
X14774513Y-1318102D01*
X15924793Y-1490100D02*
X16008681Y-1523993D01*
X16075623Y-1599830D01*
X16100620Y-1658720D01*
X16108671Y-1759555D01*
X16082830Y-1944278D01*
X15998098Y-2153998D01*
X15888367Y-2304828D01*
X15812530Y-2371769D01*
X15753639Y-2396767D01*
X15652805Y-2404818D01*
X15568917Y-2370925D01*
X15501976Y-2295088D01*
X15476978Y-2236198D01*
X15468926Y-2135363D01*
X15494768Y-1950640D01*
X15579501Y-1740920D01*
X15689231Y-1590090D01*
X15765069Y-1523149D01*
X15823959Y-1498151D01*
X15924793Y-1490100D01*
X16920895Y-1305039D02*
X17029781Y-1397822D01*
X17054779Y-1456713D01*
X17062830Y-1557547D01*
X17011990Y-1683380D01*
X16936153Y-1750321D01*
X16877262Y-1775319D01*
X16776428Y-1783370D01*
X16440875Y-1647798D01*
X16796752Y-766973D01*
X17090360Y-885599D01*
X17157302Y-961435D01*
X17182299Y-1020326D01*
X17190351Y-1121160D01*
X17156458Y-1205048D01*
X17080620Y-1271990D01*
X17021730Y-1296988D01*
X16920895Y-1305039D01*
X16627287Y-1186413D01*
X17783085Y-2190086D02*
X17279756Y-1986727D01*
X17531421Y-2088407D02*
X17887297Y-1207582D01*
X17752570Y-1299521D01*
X17634789Y-1349516D01*
X17533954Y-1357566D01*
X19300895Y-1425039D02*
X19409781Y-1517822D01*
X19434779Y-1576713D01*
X19442830Y-1677547D01*
X19391990Y-1803380D01*
X19316153Y-1870321D01*
X19257262Y-1895319D01*
X19156428Y-1903370D01*
X18820875Y-1767798D01*
X19176752Y-886973D01*
X19470360Y-1005599D01*
X19537302Y-1081435D01*
X19562299Y-1140326D01*
X19570351Y-1241160D01*
X19536458Y-1325048D01*
X19460620Y-1391990D01*
X19401730Y-1416988D01*
X19300895Y-1425039D01*
X19007287Y-1306413D01*
X20225353Y-1310635D02*
X20309241Y-1344528D01*
X20376182Y-1420365D01*
X20401180Y-1479256D01*
X20409231Y-1580090D01*
X20383390Y-1764813D01*
X20298657Y-1974533D01*
X20188926Y-2125363D01*
X20113089Y-2192304D01*
X20054199Y-2217302D01*
X19953365Y-2225353D01*
X19869477Y-2191460D01*
X19802535Y-2115623D01*
X19777538Y-2056733D01*
X19769486Y-1955898D01*
X19795328Y-1771175D01*
X19880060Y-1561455D01*
X19989790Y-1410625D01*
X20065628Y-1343684D01*
X20124519Y-1318686D01*
X20225353Y-1310635D01*
X21573526Y-1514606D02*
X21992967Y-1684071D01*
X21387959Y-1732378D02*
X22037444Y-970179D01*
X21975176Y-1969629D01*
X22540772Y-1173537D02*
X23127990Y-1410788D01*
X22394617Y-2139094D01*
X24133526Y-1464606D02*
X24552967Y-1634071D01*
X23947959Y-1682378D02*
X24597444Y-920179D01*
X24535176Y-1919629D01*
X25562157Y-1309948D02*
X25394381Y-1242162D01*
X25293547Y-1250213D01*
X25234656Y-1275211D01*
X25099928Y-1367149D01*
X24990198Y-1517980D01*
X24854626Y-1853532D01*
X24862677Y-1954366D01*
X24887675Y-2013257D01*
X24954617Y-2089094D01*
X25122393Y-2156880D01*
X25223227Y-2148829D01*
X25282117Y-2123831D01*
X25357955Y-2056890D01*
X25442688Y-1847170D01*
X25434636Y-1746335D01*
X25409638Y-1687444D01*
X25342697Y-1611608D01*
X25174921Y-1543822D01*
X25074087Y-1551873D01*
X25015195Y-1576870D01*
X24939359Y-1643811D01*
X26723526Y-1464606D02*
X27142967Y-1634071D01*
X26537959Y-1682378D02*
X27187444Y-920179D01*
X27125176Y-1919629D01*
X28194101Y-1326894D02*
X27774660Y-1157430D01*
X27563252Y-1559923D01*
X27622142Y-1534926D01*
X27722977Y-1526875D01*
X27932697Y-1611608D01*
X27999638Y-1687444D01*
X28024636Y-1746335D01*
X28032688Y-1847170D01*
X27947955Y-2056890D01*
X27872117Y-2123831D01*
X27813227Y-2148829D01*
X27712393Y-2156880D01*
X27502673Y-2072147D01*
X27435731Y-1996310D01*
X27410733Y-1937420D01*
X29313526Y-1484606D02*
X29732967Y-1654071D01*
X29127959Y-1702378D02*
X29777444Y-940179D01*
X29715176Y-1939629D01*
X30623531Y-1623557D02*
X30386281Y-2210773D01*
X30549384Y-1203272D02*
X30085466Y-1747699D01*
X30630739Y-1968004D01*
X31793526Y-1444606D02*
X32212967Y-1614071D01*
X31607959Y-1662378D02*
X32257444Y-900179D01*
X32195176Y-1899629D01*
X32760772Y-1103537D02*
X33306046Y-1323841D01*
X32876865Y-1540768D01*
X33002697Y-1591608D01*
X33069638Y-1667444D01*
X33094636Y-1726335D01*
X33102688Y-1827170D01*
X33017955Y-2036890D01*
X32942117Y-2103831D01*
X32883227Y-2128829D01*
X32782393Y-2136880D01*
X32530729Y-2035201D01*
X32463787Y-1959364D01*
X32438789Y-1900473D01*
X34413526Y-1444606D02*
X34832967Y-1614071D01*
X34227959Y-1662378D02*
X34877444Y-900179D01*
X34815176Y-1899629D01*
X35388824Y-1204371D02*
X35447714Y-1179373D01*
X35548549Y-1171323D01*
X35758269Y-1256055D01*
X35825210Y-1331892D01*
X35850208Y-1390782D01*
X35858260Y-1491617D01*
X35824367Y-1575505D01*
X35731582Y-1684391D01*
X35024896Y-1984361D01*
X35570169Y-2204666D01*
X36933526Y-1494606D02*
X37352967Y-1664071D01*
X36747959Y-1712378D02*
X37397444Y-950179D01*
X37335176Y-1949629D01*
X38090169Y-2254666D02*
X37586840Y-2051308D01*
X37838505Y-2152987D02*
X38194381Y-1272162D01*
X38059654Y-1364101D01*
X37941873Y-1414096D01*
X37841038Y-1422147D01*
X39353526Y-1494606D02*
X39772967Y-1664071D01*
X39167959Y-1712378D02*
X39817444Y-950179D01*
X39755176Y-1949629D01*
X40572437Y-1255216D02*
X40656325Y-1289109D01*
X40723266Y-1364945D01*
X40748264Y-1423836D01*
X40756315Y-1524670D01*
X40730474Y-1709394D01*
X40645741Y-1919113D01*
X40536010Y-2069943D01*
X40460173Y-2136885D01*
X40401283Y-2161882D01*
X40300449Y-2169933D01*
X40216561Y-2136040D01*
X40149619Y-2060204D01*
X40124622Y-2001313D01*
X40116570Y-1900478D01*
X40142412Y-1715755D01*
X40227144Y-1506036D01*
X40336875Y-1355205D01*
X40412712Y-1288264D01*
X40471603Y-1263267D01*
X40572437Y-1255216D01*
X41818657Y-1667803D02*
X41759767Y-1692801D01*
X41616987Y-1683905D01*
X41533100Y-1650012D01*
X41424214Y-1557229D01*
X41374219Y-1439448D01*
X41366168Y-1338612D01*
X41392009Y-1153890D01*
X41442849Y-1028058D01*
X41552579Y-877228D01*
X41628417Y-810287D01*
X41746198Y-760292D01*
X41888976Y-769187D01*
X41972864Y-803080D01*
X42081750Y-895864D01*
X42106748Y-954754D01*
X42623645Y-2090621D02*
X42120316Y-1887263D01*
X42371980Y-1988942D02*
X42727857Y-1108117D01*
X42593129Y-1200056D01*
X42475349Y-1250051D01*
X42374513Y-1258102D01*
X43776457Y-1531779D02*
X43357017Y-1362314D01*
X43145608Y-1764808D01*
X43204498Y-1739811D01*
X43305333Y-1731760D01*
X43515053Y-1816492D01*
X43581995Y-1892329D01*
X43606992Y-1951219D01*
X43615044Y-2052054D01*
X43530311Y-2261775D01*
X43454474Y-2328716D01*
X43395583Y-2353713D01*
X43294749Y-2361764D01*
X43085029Y-2277032D01*
X43018087Y-2201195D01*
X42993089Y-2142304D01*
X44498657Y-1637803D02*
X44439767Y-1662801D01*
X44296987Y-1653905D01*
X44213100Y-1620012D01*
X44104214Y-1527229D01*
X44054219Y-1409448D01*
X44046168Y-1308612D01*
X44072009Y-1123890D01*
X44122849Y-998058D01*
X44232579Y-847228D01*
X44308417Y-780287D01*
X44426198Y-730292D01*
X44568976Y-739187D01*
X44652864Y-773080D01*
X44761750Y-865864D01*
X44786748Y-924754D01*
X45303645Y-2060621D02*
X44800316Y-1857263D01*
X45051980Y-1958942D02*
X45407857Y-1078117D01*
X45273129Y-1170056D01*
X45155349Y-1220051D01*
X45054513Y-1228102D01*
X46295888Y-1778441D02*
X46058637Y-2365657D01*
X46221740Y-1358156D02*
X45757822Y-1902584D01*
X46303095Y-2122888D01*
X47078657Y-1647803D02*
X47019767Y-1672801D01*
X46876987Y-1663905D01*
X46793100Y-1630012D01*
X46684214Y-1537229D01*
X46634219Y-1419448D01*
X46626168Y-1318612D01*
X46652009Y-1133890D01*
X46702849Y-1008058D01*
X46812579Y-857228D01*
X46888417Y-790287D01*
X47006198Y-740292D01*
X47148976Y-749187D01*
X47232864Y-783080D01*
X47341750Y-875864D01*
X47366748Y-934754D01*
X47883645Y-2070621D02*
X47380316Y-1867263D01*
X47631980Y-1968942D02*
X47987857Y-1088117D01*
X47853129Y-1180056D01*
X47735349Y-1230051D01*
X47634513Y-1238102D01*
X48533129Y-1308421D02*
X49078402Y-1528726D01*
X48649221Y-1745653D01*
X48775053Y-1796492D01*
X48841995Y-1872329D01*
X48866992Y-1931219D01*
X48875044Y-2032054D01*
X48790311Y-2241775D01*
X48714474Y-2308716D01*
X48655583Y-2333713D01*
X48554749Y-2341764D01*
X48303085Y-2240086D01*
X48236143Y-2164248D01*
X48211145Y-2105358D01*
X49632864Y-903080D02*
X49570596Y-1902530D01*
X50220081Y-1140331D01*
X50637832Y-1797022D02*
X50746717Y-1889806D01*
X50771716Y-1948696D01*
X50779767Y-2049531D01*
X50728927Y-2175363D01*
X50653090Y-2242305D01*
X50594199Y-2267302D01*
X50493365Y-2275353D01*
X50157812Y-2139781D01*
X50513688Y-1258956D01*
X50807297Y-1377582D01*
X50874238Y-1453419D01*
X50899236Y-1512309D01*
X50907288Y-1613144D01*
X50873395Y-1697032D01*
X50797557Y-1763974D01*
X50738666Y-1788971D01*
X50637832Y-1797022D01*
X50344223Y-1678397D01*
X1049455Y-21053574D02*
X1158340Y-21146357D01*
X1183339Y-21205248D01*
X1191390Y-21306082D01*
X1140550Y-21431915D01*
X1064713Y-21498857D01*
X1005822Y-21523854D01*
X904987Y-21531905D01*
X569435Y-21396333D01*
X925311Y-20515508D01*
X1218920Y-20634134D01*
X1285861Y-20709970D01*
X1310859Y-20768861D01*
X1318911Y-20869696D01*
X1285018Y-20953583D01*
X1209180Y-21020525D01*
X1150289Y-21045523D01*
X1049455Y-21053574D01*
X755846Y-20934948D01*
X1911645Y-21938621D02*
X1408316Y-21735263D01*
X1659980Y-21836942D02*
X2015857Y-20956117D01*
X1881129Y-21048056D01*
X1763349Y-21098051D01*
X1662513Y-21106102D01*
X2569180Y-21277256D02*
X2628070Y-21252258D01*
X2728905Y-21244207D01*
X2938625Y-21328940D01*
X3005567Y-21404777D01*
X3030564Y-21463667D01*
X3038616Y-21564502D01*
X3004723Y-21648390D01*
X2911939Y-21757275D01*
X2205252Y-22057246D01*
X2750526Y-22277551D01*
X3749455Y-21053574D02*
X3858340Y-21146357D01*
X3883339Y-21205248D01*
X3891390Y-21306082D01*
X3840550Y-21431915D01*
X3764713Y-21498857D01*
X3705822Y-21523854D01*
X3604987Y-21531905D01*
X3269435Y-21396333D01*
X3625311Y-20515508D01*
X3918920Y-20634134D01*
X3985861Y-20709970D01*
X4010859Y-20768861D01*
X4018911Y-20869696D01*
X3985018Y-20953583D01*
X3909180Y-21020525D01*
X3850289Y-21045523D01*
X3749455Y-21053574D01*
X3455846Y-20934948D01*
X4611645Y-21938621D02*
X4108316Y-21735263D01*
X4359980Y-21836942D02*
X4715857Y-20956117D01*
X4581129Y-21048056D01*
X4463349Y-21098051D01*
X4362513Y-21106102D01*
X5261129Y-21176421D02*
X5806402Y-21396726D01*
X5377221Y-21613653D01*
X5503053Y-21664492D01*
X5569995Y-21740329D01*
X5594992Y-21799219D01*
X5603044Y-21900054D01*
X5518311Y-22109775D01*
X5442474Y-22176716D01*
X5383583Y-22201713D01*
X5282749Y-22209764D01*
X5031085Y-22108086D01*
X4964143Y-22032248D01*
X4939145Y-21973358D01*
X6529455Y-21133574D02*
X6638340Y-21226357D01*
X6663339Y-21285248D01*
X6671390Y-21386082D01*
X6620550Y-21511915D01*
X6544713Y-21578857D01*
X6485822Y-21603854D01*
X6384987Y-21611905D01*
X6049435Y-21476333D01*
X6405311Y-20595508D01*
X6698920Y-20714134D01*
X6765861Y-20789970D01*
X6790859Y-20848861D01*
X6798911Y-20949696D01*
X6765018Y-21033583D01*
X6689180Y-21100525D01*
X6630289Y-21125523D01*
X6529455Y-21133574D01*
X6235846Y-21014948D01*
X7391645Y-22018621D02*
X6888316Y-21815263D01*
X7139980Y-21916942D02*
X7495857Y-21036117D01*
X7361129Y-21128056D01*
X7243349Y-21178051D01*
X7142513Y-21186102D01*
X8383888Y-21736441D02*
X8146637Y-22323657D01*
X8309740Y-21316156D02*
X7845822Y-21860584D01*
X8391095Y-22080888D01*
X9071455Y-21213574D02*
X9180340Y-21306357D01*
X9205339Y-21365248D01*
X9213390Y-21466082D01*
X9162550Y-21591915D01*
X9086713Y-21658857D01*
X9027822Y-21683854D01*
X8926987Y-21691905D01*
X8591435Y-21556333D01*
X8947311Y-20675508D01*
X9240920Y-20794134D01*
X9307861Y-20869970D01*
X9332859Y-20928861D01*
X9340911Y-21029696D01*
X9307018Y-21113583D01*
X9231180Y-21180525D01*
X9172289Y-21205523D01*
X9071455Y-21213574D01*
X8777846Y-21094948D01*
X9933645Y-22098621D02*
X9430316Y-21895263D01*
X9681980Y-21996942D02*
X10037857Y-21116117D01*
X9903129Y-21208056D01*
X9785349Y-21258051D01*
X9684513Y-21266102D01*
X11086457Y-21539779D02*
X10667017Y-21370314D01*
X10455608Y-21772808D01*
X10514498Y-21747811D01*
X10615333Y-21739760D01*
X10825053Y-21824492D01*
X10891995Y-21900329D01*
X10916992Y-21959219D01*
X10925044Y-22060054D01*
X10840311Y-22269775D01*
X10764474Y-22336716D01*
X10705583Y-22361713D01*
X10604749Y-22369764D01*
X10395029Y-22285032D01*
X10328087Y-22209195D01*
X10303089Y-22150304D01*
X11531526Y-21412606D02*
X11950967Y-21582071D01*
X11345959Y-21630378D02*
X11995444Y-20868179D01*
X11933176Y-21867629D01*
X12555975Y-21533766D02*
X12489033Y-21457929D01*
X12464035Y-21399038D01*
X12455984Y-21298203D01*
X12472931Y-21256259D01*
X12548767Y-21189317D01*
X12607659Y-21164320D01*
X12708493Y-21156269D01*
X12876269Y-21224055D01*
X12943210Y-21299892D01*
X12968208Y-21358782D01*
X12976260Y-21459617D01*
X12959313Y-21501561D01*
X12883475Y-21568503D01*
X12824585Y-21593500D01*
X12723750Y-21601552D01*
X12555975Y-21533766D01*
X12455140Y-21541817D01*
X12396249Y-21566814D01*
X12320412Y-21633755D01*
X12252626Y-21801532D01*
X12260677Y-21902366D01*
X12285675Y-21961257D01*
X12352617Y-22037094D01*
X12520393Y-22104880D01*
X12621227Y-22096829D01*
X12680117Y-22071831D01*
X12755955Y-22004890D01*
X12823741Y-21837113D01*
X12815689Y-21736279D01*
X12790692Y-21677388D01*
X12723750Y-21601552D01*
X13751526Y-21442606D02*
X14170967Y-21612071D01*
X13565959Y-21660378D02*
X14215444Y-20898179D01*
X14153176Y-21897629D01*
X14488729Y-22033201D02*
X14656505Y-22100987D01*
X14757339Y-22092936D01*
X14816229Y-22067938D01*
X14950957Y-21975998D01*
X15060688Y-21825170D01*
X15196260Y-21489617D01*
X15188208Y-21388782D01*
X15163210Y-21329892D01*
X15096269Y-21254055D01*
X14928493Y-21186269D01*
X14827659Y-21194320D01*
X14768767Y-21219317D01*
X14692931Y-21286259D01*
X14608198Y-21495980D01*
X14616249Y-21596814D01*
X14641247Y-21655705D01*
X14708189Y-21731541D01*
X14875965Y-21799327D01*
X14976799Y-21791276D01*
X15035689Y-21766279D01*
X15111527Y-21699338D01*
X15874086Y-21353141D02*
X16293526Y-21522606D01*
X15688519Y-21570913D02*
X16338004Y-20808714D01*
X16275736Y-21808164D01*
X17030729Y-22113201D02*
X16527400Y-21909843D01*
X16779064Y-22011522D02*
X17134941Y-21130697D01*
X17000213Y-21222636D01*
X16882433Y-21272631D01*
X16781597Y-21280682D01*
X17931877Y-21452681D02*
X18015765Y-21486574D01*
X18082707Y-21562410D01*
X18107704Y-21621301D01*
X18115755Y-21722135D01*
X18089914Y-21906859D01*
X18005182Y-22116578D01*
X17895451Y-22267408D01*
X17819614Y-22334350D01*
X17760723Y-22359347D01*
X17659889Y-22367398D01*
X17576001Y-22333505D01*
X17509060Y-22257668D01*
X17484062Y-22198778D01*
X17476010Y-22097943D01*
X17501853Y-21913220D01*
X17586585Y-21703500D01*
X17696315Y-21552670D01*
X17772153Y-21485729D01*
X17831043Y-21460732D01*
X17931877Y-21452681D01*
X18502086Y-21253141D02*
X18921526Y-21422606D01*
X18316519Y-21470913D02*
X18966004Y-20708714D01*
X18903736Y-21708164D01*
X19658729Y-22013201D02*
X19155400Y-21809843D01*
X19407064Y-21911522D02*
X19762941Y-21030697D01*
X19628213Y-21122636D01*
X19510433Y-21172631D01*
X19409597Y-21180682D01*
X20497610Y-22352131D02*
X19994281Y-22148773D01*
X20245945Y-22250452D02*
X20601821Y-21369627D01*
X20467094Y-21461566D01*
X20349313Y-21511561D01*
X20248478Y-21519612D01*
X21074086Y-21233141D02*
X21493526Y-21402606D01*
X20888519Y-21450913D02*
X21538004Y-20688714D01*
X21475736Y-21688164D01*
X22230729Y-21993201D02*
X21727400Y-21789843D01*
X21979064Y-21891522D02*
X22334941Y-21010697D01*
X22200213Y-21102636D01*
X22082433Y-21152631D01*
X21981597Y-21160682D01*
X22888264Y-21331836D02*
X22947154Y-21306838D01*
X23047990Y-21298788D01*
X23257709Y-21383520D01*
X23324651Y-21459357D01*
X23349648Y-21518247D01*
X23357700Y-21619082D01*
X23323807Y-21702970D01*
X23231023Y-21811856D01*
X22524337Y-22111826D01*
X23069610Y-22332131D01*
X23782086Y-21293141D02*
X24201526Y-21462606D01*
X23596519Y-21510913D02*
X24246004Y-20748714D01*
X24183736Y-21748164D01*
X24938729Y-22053201D02*
X24435400Y-21849843D01*
X24687064Y-21951522D02*
X25042941Y-21070697D01*
X24908213Y-21162636D01*
X24790433Y-21212631D01*
X24689597Y-21220682D01*
X26091541Y-21494359D02*
X25672101Y-21324894D01*
X25460692Y-21727388D01*
X25519582Y-21702391D01*
X25620418Y-21694340D01*
X25830137Y-21779072D01*
X25897079Y-21854909D01*
X25922076Y-21913800D01*
X25930128Y-22014634D01*
X25845395Y-22224355D01*
X25769558Y-22291296D01*
X25710667Y-22316294D01*
X25609833Y-22324345D01*
X25400113Y-22239612D01*
X25333171Y-22163775D01*
X25308173Y-22104885D01*
X26918895Y-21353039D02*
X27027781Y-21445822D01*
X27052779Y-21504713D01*
X27060830Y-21605547D01*
X27009990Y-21731380D01*
X26934153Y-21798321D01*
X26875262Y-21823319D01*
X26774428Y-21831370D01*
X26438875Y-21695798D01*
X26794752Y-20814973D01*
X27088360Y-20933599D01*
X27155302Y-21009435D01*
X27180299Y-21068326D01*
X27188351Y-21169160D01*
X27154458Y-21253048D01*
X27078620Y-21319990D01*
X27019730Y-21344988D01*
X26918895Y-21353039D01*
X26625287Y-21234413D01*
X27591688Y-21136956D02*
X28136962Y-21357261D01*
X27707781Y-21574188D01*
X27833613Y-21625027D01*
X27900554Y-21700864D01*
X27925552Y-21759754D01*
X27933604Y-21860589D01*
X27848871Y-22070310D01*
X27773033Y-22137251D01*
X27714143Y-22162248D01*
X27613309Y-22170299D01*
X27361645Y-22068621D01*
X27294703Y-21992783D01*
X27269705Y-21933893D01*
X29458895Y-21343039D02*
X29567781Y-21435822D01*
X29592779Y-21494713D01*
X29600830Y-21595547D01*
X29549990Y-21721380D01*
X29474153Y-21788321D01*
X29415262Y-21813319D01*
X29314428Y-21821370D01*
X28978875Y-21685798D01*
X29334752Y-20804973D01*
X29628360Y-20923599D01*
X29695302Y-20999435D01*
X29720299Y-21058326D01*
X29728351Y-21159160D01*
X29694458Y-21243048D01*
X29618620Y-21309990D01*
X29559730Y-21334988D01*
X29458895Y-21343039D01*
X29165287Y-21224413D01*
X30474447Y-21606976D02*
X30237196Y-22194192D01*
X30400299Y-21186691D02*
X29936382Y-21731119D01*
X30481655Y-21951424D01*
X31938895Y-21333039D02*
X32047781Y-21425822D01*
X32072779Y-21484713D01*
X32080830Y-21585547D01*
X32029990Y-21711380D01*
X31954153Y-21778321D01*
X31895262Y-21803319D01*
X31794428Y-21811370D01*
X31458875Y-21675798D01*
X31814752Y-20794973D01*
X32108360Y-20913599D01*
X32175302Y-20989435D01*
X32200299Y-21048326D01*
X32208351Y-21149160D01*
X32174458Y-21233048D01*
X32098620Y-21299990D01*
X32039730Y-21324988D01*
X31938895Y-21333039D01*
X31645287Y-21214413D01*
X33115017Y-21320314D02*
X32695576Y-21150849D01*
X32484167Y-21553343D01*
X32543058Y-21528346D01*
X32643893Y-21520295D01*
X32853613Y-21605027D01*
X32920554Y-21680864D01*
X32945552Y-21739754D01*
X32953604Y-21840589D01*
X32868871Y-22050310D01*
X32793033Y-22117251D01*
X32734143Y-22142248D01*
X32633309Y-22150299D01*
X32423589Y-22065567D01*
X32356646Y-21989730D01*
X32331649Y-21930840D01*
X34588895Y-21353039D02*
X34697781Y-21445822D01*
X34722779Y-21504713D01*
X34730830Y-21605547D01*
X34679990Y-21731380D01*
X34604153Y-21798321D01*
X34545262Y-21823319D01*
X34444428Y-21831370D01*
X34108875Y-21695798D01*
X34464752Y-20814973D01*
X34758360Y-20933599D01*
X34825302Y-21009435D01*
X34850299Y-21068326D01*
X34858351Y-21169160D01*
X34824458Y-21253048D01*
X34748620Y-21319990D01*
X34689730Y-21344988D01*
X34588895Y-21353039D01*
X34295287Y-21234413D01*
X35723073Y-21323368D02*
X35555297Y-21255582D01*
X35454463Y-21263633D01*
X35395572Y-21288630D01*
X35260844Y-21380569D01*
X35151114Y-21531399D01*
X35015542Y-21866952D01*
X35023593Y-21967786D01*
X35048591Y-22026677D01*
X35115533Y-22102514D01*
X35283309Y-22170299D01*
X35384143Y-22162248D01*
X35443033Y-22137251D01*
X35518871Y-22070310D01*
X35603604Y-21860589D01*
X35595552Y-21759754D01*
X35570554Y-21700864D01*
X35503613Y-21625027D01*
X35335837Y-21557241D01*
X35235003Y-21565292D01*
X35176111Y-21590290D01*
X35100275Y-21657231D01*
X37038895Y-21363039D02*
X37147781Y-21455822D01*
X37172779Y-21514713D01*
X37180830Y-21615547D01*
X37129990Y-21741380D01*
X37054153Y-21808321D01*
X36995262Y-21833319D01*
X36894428Y-21841370D01*
X36558875Y-21705798D01*
X36914752Y-20824973D01*
X37208360Y-20943599D01*
X37275302Y-21019435D01*
X37300299Y-21078326D01*
X37308351Y-21179160D01*
X37274458Y-21263048D01*
X37198620Y-21329990D01*
X37139730Y-21354988D01*
X37038895Y-21363039D01*
X36745287Y-21244413D01*
X37711688Y-21146956D02*
X38298905Y-21384207D01*
X37565533Y-22112514D01*
X39538895Y-21353039D02*
X39647781Y-21445822D01*
X39672779Y-21504713D01*
X39680830Y-21605547D01*
X39629990Y-21731380D01*
X39554153Y-21798321D01*
X39495262Y-21823319D01*
X39394428Y-21831370D01*
X39058875Y-21695798D01*
X39414752Y-20814973D01*
X39708360Y-20933599D01*
X39775302Y-21009435D01*
X39800299Y-21068326D01*
X39808351Y-21169160D01*
X39774458Y-21253048D01*
X39698620Y-21319990D01*
X39639730Y-21344988D01*
X39538895Y-21353039D01*
X39245287Y-21234413D01*
X40268891Y-21599185D02*
X40201949Y-21523349D01*
X40176951Y-21464458D01*
X40168900Y-21363622D01*
X40185847Y-21321679D01*
X40261683Y-21254737D01*
X40320575Y-21229740D01*
X40421409Y-21221689D01*
X40589185Y-21289475D01*
X40656126Y-21365312D01*
X40681124Y-21424202D01*
X40689176Y-21525037D01*
X40672229Y-21566981D01*
X40596391Y-21633923D01*
X40537501Y-21658920D01*
X40436666Y-21666971D01*
X40268891Y-21599185D01*
X40168056Y-21607236D01*
X40109165Y-21632234D01*
X40033328Y-21699175D01*
X39965542Y-21866952D01*
X39973593Y-21967786D01*
X39998591Y-22026677D01*
X40065533Y-22102514D01*
X40233309Y-22170299D01*
X40334143Y-22162248D01*
X40393033Y-22137251D01*
X40468871Y-22070310D01*
X40536657Y-21902533D01*
X40528605Y-21801698D01*
X40503608Y-21742808D01*
X40436666Y-21666971D01*
X42028895Y-21393039D02*
X42137781Y-21485822D01*
X42162779Y-21544713D01*
X42170830Y-21645547D01*
X42119990Y-21771380D01*
X42044153Y-21838321D01*
X41985262Y-21863319D01*
X41884428Y-21871370D01*
X41548875Y-21735798D01*
X41904752Y-20854973D01*
X42198360Y-20973599D01*
X42265302Y-21049435D01*
X42290299Y-21108326D01*
X42298351Y-21209160D01*
X42264458Y-21293048D01*
X42188620Y-21359990D01*
X42129730Y-21384988D01*
X42028895Y-21393039D01*
X41735287Y-21274413D01*
X42471645Y-22108621D02*
X42639421Y-22176407D01*
X42740255Y-22168355D01*
X42799145Y-22143358D01*
X42933873Y-22051418D01*
X43043604Y-21900589D01*
X43179176Y-21565037D01*
X43171124Y-21464202D01*
X43146126Y-21405312D01*
X43079185Y-21329475D01*
X42911409Y-21261689D01*
X42810575Y-21269740D01*
X42751683Y-21294737D01*
X42675847Y-21361679D01*
X42591114Y-21571399D01*
X42599165Y-21672234D01*
X42624163Y-21731124D01*
X42691105Y-21806961D01*
X42858881Y-21874747D01*
X42959715Y-21866696D01*
X43018605Y-21841698D01*
X43094443Y-21774757D01*
X44917108Y-20979858D02*
X44497668Y-20810393D01*
X44286259Y-21212887D01*
X44345149Y-21187889D01*
X44445984Y-21179838D01*
X44655704Y-21264571D01*
X44722645Y-21340408D01*
X44747643Y-21399298D01*
X44755695Y-21500133D01*
X44670962Y-21709853D01*
X44595125Y-21776794D01*
X44536234Y-21801792D01*
X44435400Y-21809843D01*
X44225680Y-21725111D01*
X44158738Y-21649273D01*
X44133740Y-21590383D01*
X45210716Y-21098483D02*
X45148449Y-22097933D01*
X45797933Y-21335734D01*
X49130451Y-20613142D02*
X49068184Y-21612592D01*
X49717668Y-20850393D01*
X49655400Y-21849843D02*
X50011276Y-20969018D01*
X50220997Y-21053751D01*
X50329882Y-21146534D01*
X50379877Y-21264315D01*
X50387929Y-21365150D01*
X50362087Y-21549873D01*
X50311247Y-21675705D01*
X50201518Y-21826534D01*
X50125680Y-21893476D01*
X50007899Y-21943471D01*
X49865120Y-21934575D01*
X49655400Y-21849843D01*
X50536224Y-22205719D02*
X50892101Y-21324894D01*
X51101821Y-21409627D01*
X51210707Y-21502410D01*
X51260702Y-21620191D01*
X51268754Y-21721026D01*
X51242911Y-21905749D01*
X51192072Y-22031581D01*
X51082342Y-22182410D01*
X51006504Y-22249352D01*
X50888723Y-22299347D01*
X50745945Y-22290452D01*
X50536224Y-22205719D01*
X47016834Y-20788444D02*
X46949892Y-20712607D01*
X46824060Y-20661767D01*
X46681282Y-20652872D01*
X46563501Y-20702867D01*
X46487663Y-20769808D01*
X46377933Y-20920638D01*
X46327094Y-21046470D01*
X46301252Y-21231192D01*
X46309303Y-21332028D01*
X46359298Y-21449809D01*
X46468184Y-21542592D01*
X46552072Y-21576485D01*
X46694851Y-21585381D01*
X46753741Y-21560383D01*
X46872367Y-21266775D01*
X46704590Y-21198989D01*
X47097344Y-21796789D02*
X47453220Y-20915965D01*
X47600673Y-22000147D01*
X47956549Y-21119323D01*
X48020112Y-22169612D02*
X48375989Y-21288787D01*
X48585709Y-21373520D01*
X48694595Y-21466303D01*
X48744590Y-21584084D01*
X48752642Y-21684919D01*
X48726799Y-21869642D01*
X48675960Y-21995474D01*
X48566230Y-22146303D01*
X48490392Y-22213245D01*
X48372611Y-22263240D01*
X48229833Y-22254345D01*
X48020112Y-22169612D01*
D13*
X46502000Y-6482000D02*
X46502000Y-5212000D01*
X46502000Y-5212000D02*
X47772000Y-5212000D01*
X40222000Y-15642000D02*
X40222000Y-16242000D01*
X40222000Y-16242000D02*
X36622000Y-16242000D01*
X36622000Y-16242000D02*
X36622000Y-15642000D01*
X40222000Y-10142000D02*
X40222000Y-13942000D01*
X38922000Y-7842000D02*
X40222000Y-7842000D01*
X36622000Y-7842000D02*
X37922000Y-7842000D01*
X40222000Y-7842000D02*
X40222000Y-8442000D01*
X36622000Y-7842000D02*
X36622000Y-8442000D01*
X36622000Y-13942000D02*
X36622000Y-10142000D01*
X37922000Y-7842000D02*
G75*
G03X38922000Y-7842000I500000J0D01*
G01*
X29617000Y-14982000D02*
X29617000Y-8582000D01*
X34667000Y-14982000D02*
X34667000Y-8582000D01*
X34667000Y-14982000D02*
G75*
G02X29617000Y-14982000I-2525000J0D01*
G01*
X34667000Y-8582000D02*
G75*
G03X29617000Y-8582000I-2525000J0D01*
G01*
X42892000Y-16062000D02*
X44292000Y-16062000D01*
X44292000Y-16062000D02*
X44292000Y-13262000D01*
X42892000Y-16062000D02*
X42892000Y-13262000D01*
X42892000Y-10222000D02*
X44292000Y-10222000D01*
X44292000Y-10222000D02*
X44292000Y-7422000D01*
X42892000Y-10222000D02*
X42892000Y-7422000D01*
X9922000Y-10532000D02*
X10372000Y-10982000D01*
X13322000Y-10532000D02*
X12872000Y-10982000D01*
X13322000Y-5932000D02*
X12872000Y-5482000D01*
X9922000Y-5932000D02*
X10372000Y-5482000D01*
X14372000Y-7232000D02*
X14372000Y-9232000D01*
X10372000Y-10982000D02*
X12872000Y-10982000D01*
X8872000Y-7232000D02*
X8872000Y-9232000D01*
X10372000Y-5482000D02*
X12872000Y-5482000D01*
X5102000Y-7752000D02*
X5102000Y-8202000D01*
X3252000Y-7752000D02*
X5102000Y-7752000D01*
X702000Y-15552000D02*
X952000Y-15552000D01*
X702000Y-7752000D02*
X952000Y-7752000D01*
X3252000Y-15552000D02*
X5102000Y-15552000D01*
X5102000Y-15552000D02*
X5102000Y-15102000D01*
X5652000Y-9952000D02*
X5652000Y-10402000D01*
X5652000Y-9952000D02*
X5202000Y-9952000D01*
X7700000Y-11750000D02*
X7700000Y-16950000D01*
X12840000Y-11750000D02*
X7700000Y-11750000D01*
X15440000Y-16950000D02*
X7700000Y-16950000D01*
X12840000Y-11750000D02*
X12840000Y-14350000D01*
X12840000Y-14350000D02*
X15440000Y-14350000D01*
X15440000Y-14350000D02*
X15440000Y-16950000D01*
X14110000Y-11750000D02*
X15440000Y-11750000D01*
X15440000Y-11750000D02*
X15440000Y-13080000D01*
D14*
X23105794Y-6305413D02*
X23388637Y-6588256D01*
X23105794Y-6305413D02*
X22822951Y-6588256D01*
X28267674Y-11467293D02*
X27984831Y-11184450D01*
X28267674Y-11467293D02*
X27984831Y-11750136D01*
X17943914Y-11467293D02*
X18226757Y-11184450D01*
X17943914Y-11467293D02*
X18226757Y-11750136D01*
X23105794Y-16629173D02*
X23388637Y-16346330D01*
X23105794Y-16629173D02*
X22822951Y-16346330D01*
X28566750Y-10887465D02*
G75*
G03X28566750Y-10887465I-72802J0D01*
G01*
D15*
X51823667Y-3664381D02*
X51823667Y-4378667D01*
X51776047Y-4521524D01*
X51680809Y-4616762D01*
X51537952Y-4664381D01*
X51442714Y-4664381D01*
X52728429Y-3997714D02*
X52728429Y-4664381D01*
X52490333Y-3616762D02*
X52252238Y-4331048D01*
X52871286Y-4331048D01*
X41948190Y-12518191D02*
X42424381Y-12518191D01*
X41424381Y-12851524D02*
X41948190Y-12518191D01*
X41424381Y-12184857D01*
X42424381Y-11327714D02*
X42424381Y-11899143D01*
X42424381Y-11613429D02*
X41424381Y-11613429D01*
X41567238Y-11708667D01*
X41662476Y-11803905D01*
X41710095Y-11899143D01*
X28593190Y-12258191D02*
X29069381Y-12258191D01*
X28069381Y-12591524D02*
X28593190Y-12258191D01*
X28069381Y-11924857D01*
X28164619Y-11639143D02*
X28117000Y-11591524D01*
X28069381Y-11496286D01*
X28069381Y-11258190D01*
X28117000Y-11162952D01*
X28164619Y-11115333D01*
X28259857Y-11067714D01*
X28355095Y-11067714D01*
X28497952Y-11115333D01*
X29069381Y-11686762D01*
X29069381Y-11067714D01*
X42594381Y-14904857D02*
X42594381Y-15381048D01*
X41594381Y-15381048D01*
X42070571Y-14571524D02*
X42070571Y-14238190D01*
X42594381Y-14095333D02*
X42594381Y-14571524D01*
X41594381Y-14571524D01*
X41594381Y-14095333D01*
X42594381Y-13666762D02*
X41594381Y-13666762D01*
X41594381Y-13428667D01*
X41642000Y-13285809D01*
X41737238Y-13190571D01*
X41832476Y-13142952D01*
X42022952Y-13095333D01*
X42165810Y-13095333D01*
X42356286Y-13142952D01*
X42451524Y-13190571D01*
X42546762Y-13285809D01*
X42594381Y-13428667D01*
X42594381Y-13666762D01*
X42594381Y-9755333D02*
X41594381Y-9755333D01*
X41594381Y-9374380D01*
X41642000Y-9279142D01*
X41689619Y-9231523D01*
X41784857Y-9183904D01*
X41927714Y-9183904D01*
X42022952Y-9231523D01*
X42070571Y-9279142D01*
X42118190Y-9374380D01*
X42118190Y-9755333D01*
X41594381Y-8850571D02*
X42594381Y-8612476D01*
X41880095Y-8421999D01*
X42594381Y-8231523D01*
X41594381Y-7993428D01*
X42594381Y-7041047D02*
X42118190Y-7374381D01*
X42594381Y-7612476D02*
X41594381Y-7612476D01*
X41594381Y-7231523D01*
X41642000Y-7136285D01*
X41689619Y-7088666D01*
X41784857Y-7041047D01*
X41927714Y-7041047D01*
X42022952Y-7088666D01*
X42070571Y-7136285D01*
X42118190Y-7231523D01*
X42118190Y-7612476D01*
X10288667Y-4886762D02*
X10431524Y-4934381D01*
X10669620Y-4934381D01*
X10764858Y-4886762D01*
X10812477Y-4839143D01*
X10860096Y-4743905D01*
X10860096Y-4648667D01*
X10812477Y-4553429D01*
X10764858Y-4505810D01*
X10669620Y-4458190D01*
X10479143Y-4410571D01*
X10383905Y-4362952D01*
X10336286Y-4315333D01*
X10288667Y-4220095D01*
X10288667Y-4124857D01*
X10336286Y-4029619D01*
X10383905Y-3982000D01*
X10479143Y-3934381D01*
X10717239Y-3934381D01*
X10860096Y-3982000D01*
X11193429Y-3934381D02*
X11431524Y-4934381D01*
X11622001Y-4220095D01*
X11812477Y-4934381D01*
X12050572Y-3934381D01*
X12955334Y-4934381D02*
X12383905Y-4934381D01*
X12669619Y-4934381D02*
X12669619Y-3934381D01*
X12574381Y-4077238D01*
X12479143Y-4172476D01*
X12383905Y-4220095D01*
X5904381Y-11985333D02*
X6618667Y-11985333D01*
X6761524Y-12032953D01*
X6856762Y-12128191D01*
X6904381Y-12271048D01*
X6904381Y-12366286D01*
X6904381Y-10985333D02*
X6904381Y-11556762D01*
X6904381Y-11271048D02*
X5904381Y-11271048D01*
X6047238Y-11366286D01*
X6142476Y-11461524D01*
X6190095Y-11556762D01*
X15892381Y-14683333D02*
X16606667Y-14683333D01*
X16749524Y-14730953D01*
X16844762Y-14826191D01*
X16892381Y-14969048D01*
X16892381Y-15064286D01*
X15987619Y-14254762D02*
X15940000Y-14207143D01*
X15892381Y-14111905D01*
X15892381Y-13873809D01*
X15940000Y-13778571D01*
X15987619Y-13730952D01*
X16082857Y-13683333D01*
X16178095Y-13683333D01*
X16320952Y-13730952D01*
X16892381Y-14302381D01*
X16892381Y-13683333D01*
M02*
