%TF.GenerationSoftware,KiCad,Pcbnew,4.0.7*%
%TF.CreationDate,2017-11-15T20:03:37+08:00*%
%TF.ProjectId,STM32F401CCT6,53544D333246343031434354362E6B69,rev?*%
%TF.FileFunction,Soldermask,Bot*%
%FSLAX46Y46*%
G04 Gerber Fmt 4.6, Leading zero omitted, Abs format (unit mm)*
G04 Created by KiCad (PCBNEW 4.0.7) date 11/15/17 20:03:37*
%MOMM*%
%LPD*%
G01*
G04 APERTURE LIST*
%ADD10C,0.100000*%
%ADD11R,1.150000X1.200000*%
%ADD12R,2.100000X2.100000*%
%ADD13O,2.100000X2.100000*%
%ADD14C,1.850000*%
%ADD15O,2.300000X1.600000*%
%ADD16R,1.300000X0.900000*%
%ADD17R,0.900000X1.300000*%
%ADD18R,1.460000X1.050000*%
%ADD19C,1.900000*%
%ADD20R,1.200000X1.150000*%
G04 APERTURE END LIST*
D10*
D11*
X39362000Y-10072000D03*
X39362000Y-8572000D03*
D12*
X14110000Y-13080000D03*
D13*
X14110000Y-15620000D03*
X11570000Y-13080000D03*
X11570000Y-15620000D03*
X9030000Y-13080000D03*
X9030000Y-15620000D03*
D12*
X50152000Y-3682000D03*
D13*
X47612000Y-3682000D03*
X45072000Y-3682000D03*
X42532000Y-3682000D03*
X39992000Y-3682000D03*
X37452000Y-3682000D03*
X34912000Y-3682000D03*
X32372000Y-3682000D03*
X29832000Y-3682000D03*
X27292000Y-3682000D03*
X24752000Y-3682000D03*
X22212000Y-3682000D03*
X19672000Y-3682000D03*
X17132000Y-3682000D03*
X14592000Y-3682000D03*
X12052000Y-3682000D03*
X9512000Y-3682000D03*
X6972000Y-3682000D03*
X4432000Y-3682000D03*
X1892000Y-3682000D03*
D12*
X50152000Y-19182000D03*
D13*
X47612000Y-19182000D03*
X45072000Y-19182000D03*
X42532000Y-19182000D03*
X39992000Y-19182000D03*
X37452000Y-19182000D03*
X34912000Y-19182000D03*
X32372000Y-19182000D03*
X29832000Y-19182000D03*
X27292000Y-19182000D03*
X24752000Y-19182000D03*
X22212000Y-19182000D03*
X19672000Y-19182000D03*
X17132000Y-19182000D03*
X14592000Y-19182000D03*
X12052000Y-19182000D03*
X9512000Y-19182000D03*
X6972000Y-19182000D03*
X4432000Y-19182000D03*
X1892000Y-19182000D03*
D14*
X4802000Y-9152000D03*
X4802000Y-14152000D03*
D15*
X2102000Y-8152000D03*
X2102000Y-15152000D03*
D12*
X47772000Y-6482000D03*
D13*
X47772000Y-9022000D03*
X47772000Y-11562000D03*
X47772000Y-14102000D03*
X47772000Y-16642000D03*
D16*
X2172000Y-10842000D03*
X2172000Y-12342000D03*
D17*
X9452000Y-8242000D03*
X7952000Y-8242000D03*
X9452000Y-10152000D03*
X7952000Y-10152000D03*
D18*
X13882000Y-8462000D03*
X13882000Y-9412000D03*
X13882000Y-10362000D03*
X11682000Y-10362000D03*
X11682000Y-8462000D03*
X11682000Y-9412000D03*
D17*
X13412000Y-6512000D03*
X11912000Y-6512000D03*
D16*
X18772000Y-8522000D03*
X18772000Y-10022000D03*
D11*
X24202000Y-10032000D03*
X24202000Y-8532000D03*
X22322000Y-10062000D03*
X22322000Y-8562000D03*
X25892000Y-10042000D03*
X25892000Y-8542000D03*
X20592000Y-10042000D03*
X20592000Y-8542000D03*
X27772000Y-10052000D03*
X27772000Y-8552000D03*
D16*
X30082000Y-10092000D03*
X30082000Y-8592000D03*
D11*
X33872000Y-8552000D03*
X33872000Y-10052000D03*
X35602000Y-8552000D03*
X35602000Y-10052000D03*
X37502000Y-10072000D03*
X37502000Y-8572000D03*
D16*
X41242000Y-8602000D03*
X41242000Y-10102000D03*
D11*
X43572000Y-15332000D03*
X43572000Y-13832000D03*
D16*
X40192000Y-13812000D03*
X40192000Y-15312000D03*
X30012000Y-13752000D03*
X30012000Y-15252000D03*
D11*
X28022000Y-13732000D03*
X28022000Y-15232000D03*
X26282000Y-13722000D03*
X26282000Y-15222000D03*
D18*
X22002000Y-15382000D03*
X22002000Y-14432000D03*
X22002000Y-13482000D03*
X24202000Y-13482000D03*
X24202000Y-15382000D03*
D11*
X20232000Y-13752000D03*
X20232000Y-15252000D03*
X18592000Y-15242000D03*
X18592000Y-13742000D03*
D16*
X16912000Y-13752000D03*
X16912000Y-15252000D03*
D19*
X32142000Y-14222000D03*
X32142000Y-9342000D03*
D20*
X15962000Y-6532000D03*
X17462000Y-6532000D03*
X6482000Y-6472000D03*
X4982000Y-6472000D03*
D11*
X45672000Y-15362000D03*
X45672000Y-13862000D03*
X34542000Y-13792000D03*
X34542000Y-15292000D03*
D20*
X31402000Y-12262000D03*
X32902000Y-12262000D03*
D17*
X2202000Y-16972000D03*
X3702000Y-16972000D03*
M02*
