M48
;DRILL file {KiCad 4.0.7} date 11/15/17 20:03:41
;FORMAT={-:-/ absolute / metric / decimal}
FMAT,2
METRIC,TZ
T1C0.300
T2C0.600
T3C0.800
T4C0.850
T5C1.000
%
G90
G05
M71
T1
X1.312Y-16.992
X3.612Y-12.282
X4.771Y-17.083
X6.062Y-10.262
X6.502Y-5.382
X6.612Y-12.602
X6.822Y-15.262
X6.983Y-11.689
X7.002Y-10.972
X10.072Y-7.322
X10.302Y-10.862
X10.792Y-19.909
X10.812Y-17.472
X10.832Y-21.248
X11.175Y-7.332
X15.022Y-5.262
X15.028Y-9.038
X16.242Y-17.582
X16.954Y-11.053
X17.404Y-10.58
X17.452Y-9.202
X17.502Y-7.442
X17.682Y-16.151
X17.862Y-11.722
X18.976Y-16.716
X19.702Y-17.306
X20.572Y-6.132
X20.832Y-16.982
X20.872Y-19.892
X21.462Y-9.712
X22.242Y-5.513
X22.632Y-11.032
X22.812Y-20.616
X23.082Y-11.297
X23.112Y-6.172
X23.572Y-10.972
X24.039Y-17.269
X24.877Y-17.207
X25.252Y-17.832
X26.023Y-6.462
X26.569Y-6.915
X27.802Y-6.932
X28.671Y-7.096
X28.687Y-7.759
X29.016Y-13.418
X29.202Y-6.642
X29.295Y-12.258
X29.922Y-14.492
X29.932Y-16.132
X30.302Y-11.072
X32.242Y-8.122
X33.982Y-12.702
X38.4Y-9.215
X38.412Y-8.562
X39.416Y-5.942
X40.284Y-5.934
X41.398Y-14.735
X41.482Y-9.372
X42.062Y-5.672
X44.732Y-13.832
X49.222Y-7.742
X49.834Y-5.143
X49.852Y-6.372
T3
X32.142Y-9.342
X32.142Y-14.222
T4
X4.802Y-9.152
X4.802Y-14.152
T5
X1.892Y-3.682
X1.892Y-19.182
X4.432Y-3.682
X4.432Y-19.182
X6.972Y-3.682
X6.972Y-19.182
X9.03Y-13.08
X9.03Y-15.62
X9.512Y-3.682
X9.512Y-19.182
X11.57Y-13.08
X11.57Y-15.62
X12.052Y-3.682
X12.052Y-19.182
X14.11Y-13.08
X14.11Y-15.62
X14.592Y-3.682
X14.592Y-19.182
X17.132Y-3.682
X17.132Y-19.182
X19.672Y-3.682
X19.672Y-19.182
X22.212Y-3.682
X22.212Y-19.182
X24.752Y-3.682
X24.752Y-19.182
X27.292Y-3.682
X27.292Y-19.182
X29.832Y-3.682
X29.832Y-19.182
X32.372Y-3.682
X32.372Y-19.182
X34.912Y-3.682
X34.912Y-19.182
X37.452Y-3.682
X37.452Y-19.182
X39.992Y-3.682
X39.992Y-19.182
X42.532Y-3.682
X42.532Y-19.182
X45.072Y-3.682
X45.072Y-19.182
X47.612Y-3.682
X47.612Y-19.182
X47.772Y-6.482
X47.772Y-9.022
X47.772Y-11.562
X47.772Y-14.102
X47.772Y-16.642
X50.152Y-3.682
X50.152Y-19.182
T2
X1.752Y-8.152G85X2.452Y-8.152
G05
X2.452Y-15.152G85X1.752Y-15.152
G05
T0
M30
