%TF.GenerationSoftware,KiCad,Pcbnew,4.0.7*%
%TF.CreationDate,2017-11-18T17:34:39+08:00*%
%TF.ProjectId,STM32F401CCT6,53544D333246343031434354362E6B69,rev?*%
%TF.FileFunction,Copper,L1,Top,Signal*%
%FSLAX46Y46*%
G04 Gerber Fmt 4.6, Leading zero omitted, Abs format (unit mm)*
G04 Created by KiCad (PCBNEW 4.0.7) date 11/18/17 17:34:39*
%MOMM*%
%LPD*%
G01*
G04 APERTURE LIST*
%ADD10C,0.100000*%
%ADD11R,1.700000X1.700000*%
%ADD12O,1.700000X1.700000*%
%ADD13R,1.900000X1.300000*%
%ADD14C,1.500000*%
%ADD15R,1.200000X1.200000*%
%ADD16R,1.700000X1.000000*%
%ADD17R,1.900000X1.500000*%
%ADD18C,1.450000*%
%ADD19R,1.350000X0.400000*%
%ADD20O,1.900000X1.200000*%
%ADD21R,1.900000X1.200000*%
%ADD22C,0.453000*%
%ADD23C,0.300000*%
%ADD24C,0.250000*%
%ADD25C,0.400000*%
%ADD26C,0.500000*%
%ADD27C,0.254000*%
G04 APERTURE END LIST*
D10*
G36*
X27348435Y-11608715D02*
X28585871Y-12846151D01*
X28373739Y-13058283D01*
X27136303Y-11820847D01*
X27348435Y-11608715D01*
X27348435Y-11608715D01*
G37*
G36*
X26994882Y-11962268D02*
X28232318Y-13199704D01*
X28020186Y-13411836D01*
X26782750Y-12174400D01*
X26994882Y-11962268D01*
X26994882Y-11962268D01*
G37*
G36*
X26641328Y-12315822D02*
X27878764Y-13553258D01*
X27666632Y-13765390D01*
X26429196Y-12527954D01*
X26641328Y-12315822D01*
X26641328Y-12315822D01*
G37*
G36*
X26287775Y-12669375D02*
X27525211Y-13906811D01*
X27313079Y-14118943D01*
X26075643Y-12881507D01*
X26287775Y-12669375D01*
X26287775Y-12669375D01*
G37*
G36*
X25934222Y-13022928D02*
X27171658Y-14260364D01*
X26959526Y-14472496D01*
X25722090Y-13235060D01*
X25934222Y-13022928D01*
X25934222Y-13022928D01*
G37*
G36*
X26605972Y-14826050D02*
X25368536Y-13588614D01*
X25580668Y-13376482D01*
X26818104Y-14613918D01*
X26605972Y-14826050D01*
X26605972Y-14826050D01*
G37*
G36*
X25227115Y-13730035D02*
X26464551Y-14967471D01*
X26252419Y-15179603D01*
X25014983Y-13942167D01*
X25227115Y-13730035D01*
X25227115Y-13730035D01*
G37*
G36*
X24873561Y-14083589D02*
X26110997Y-15321025D01*
X25898865Y-15533157D01*
X24661429Y-14295721D01*
X24873561Y-14083589D01*
X24873561Y-14083589D01*
G37*
G36*
X24520008Y-14437142D02*
X25757444Y-15674578D01*
X25545312Y-15886710D01*
X24307876Y-14649274D01*
X24520008Y-14437142D01*
X24520008Y-14437142D01*
G37*
G36*
X24166455Y-14790695D02*
X25403891Y-16028131D01*
X25191759Y-16240263D01*
X23954323Y-15002827D01*
X24166455Y-14790695D01*
X24166455Y-14790695D01*
G37*
G36*
X23812901Y-15144249D02*
X25050337Y-16381685D01*
X24838205Y-16593817D01*
X23600769Y-15356381D01*
X23812901Y-15144249D01*
X23812901Y-15144249D01*
G37*
G36*
X23459348Y-15497802D02*
X24696784Y-16735238D01*
X24484652Y-16947370D01*
X23247216Y-15709934D01*
X23459348Y-15497802D01*
X23459348Y-15497802D01*
G37*
G36*
X25014983Y-8992419D02*
X26252419Y-7754983D01*
X26464551Y-7967115D01*
X25227115Y-9204551D01*
X25014983Y-8992419D01*
X25014983Y-8992419D01*
G37*
G36*
X25368536Y-9345972D02*
X26605972Y-8108536D01*
X26818104Y-8320668D01*
X25580668Y-9558104D01*
X25368536Y-9345972D01*
X25368536Y-9345972D01*
G37*
G36*
X25722090Y-9699526D02*
X26959526Y-8462090D01*
X27171658Y-8674222D01*
X25934222Y-9911658D01*
X25722090Y-9699526D01*
X25722090Y-9699526D01*
G37*
G36*
X26075643Y-10053079D02*
X27313079Y-8815643D01*
X27525211Y-9027775D01*
X26287775Y-10265211D01*
X26075643Y-10053079D01*
X26075643Y-10053079D01*
G37*
G36*
X26429196Y-10406632D02*
X27666632Y-9169196D01*
X27878764Y-9381328D01*
X26641328Y-10618764D01*
X26429196Y-10406632D01*
X26429196Y-10406632D01*
G37*
G36*
X26782750Y-10760186D02*
X28020186Y-9522750D01*
X28232318Y-9734882D01*
X26994882Y-10972318D01*
X26782750Y-10760186D01*
X26782750Y-10760186D01*
G37*
G36*
X24661429Y-8638865D02*
X25898865Y-7401429D01*
X26110997Y-7613561D01*
X24873561Y-8850997D01*
X24661429Y-8638865D01*
X24661429Y-8638865D01*
G37*
G36*
X27136303Y-11113739D02*
X28373739Y-9876303D01*
X28585871Y-10088435D01*
X27348435Y-11325871D01*
X27136303Y-11113739D01*
X27136303Y-11113739D01*
G37*
G36*
X24307876Y-8285312D02*
X25545312Y-7047876D01*
X25757444Y-7260008D01*
X24520008Y-8497444D01*
X24307876Y-8285312D01*
X24307876Y-8285312D01*
G37*
G36*
X23954323Y-7931759D02*
X25191759Y-6694323D01*
X25403891Y-6906455D01*
X24166455Y-8143891D01*
X23954323Y-7931759D01*
X23954323Y-7931759D01*
G37*
G36*
X23600769Y-7578205D02*
X24838205Y-6340769D01*
X25050337Y-6552901D01*
X23812901Y-7790337D01*
X23600769Y-7578205D01*
X23600769Y-7578205D01*
G37*
G36*
X23247216Y-7224652D02*
X24484652Y-5987216D01*
X24696784Y-6199348D01*
X23459348Y-7436784D01*
X23247216Y-7224652D01*
X23247216Y-7224652D01*
G37*
G36*
X19605616Y-8108536D02*
X20843052Y-9345972D01*
X20630920Y-9558104D01*
X19393484Y-8320668D01*
X19605616Y-8108536D01*
X19605616Y-8108536D01*
G37*
G36*
X19959169Y-7754983D02*
X21196605Y-8992419D01*
X20984473Y-9204551D01*
X19747037Y-7967115D01*
X19959169Y-7754983D01*
X19959169Y-7754983D01*
G37*
G36*
X20312723Y-7401429D02*
X21550159Y-8638865D01*
X21338027Y-8850997D01*
X20100591Y-7613561D01*
X20312723Y-7401429D01*
X20312723Y-7401429D01*
G37*
G36*
X20666276Y-7047876D02*
X21903712Y-8285312D01*
X21691580Y-8497444D01*
X20454144Y-7260008D01*
X20666276Y-7047876D01*
X20666276Y-7047876D01*
G37*
G36*
X21019829Y-6694323D02*
X22257265Y-7931759D01*
X22045133Y-8143891D01*
X20807697Y-6906455D01*
X21019829Y-6694323D01*
X21019829Y-6694323D01*
G37*
G36*
X21373383Y-6340769D02*
X22610819Y-7578205D01*
X22398687Y-7790337D01*
X21161251Y-6552901D01*
X21373383Y-6340769D01*
X21373383Y-6340769D01*
G37*
G36*
X21726936Y-5987216D02*
X22964372Y-7224652D01*
X22752240Y-7436784D01*
X21514804Y-6199348D01*
X21726936Y-5987216D01*
X21726936Y-5987216D01*
G37*
G36*
X19252062Y-8462090D02*
X20489498Y-9699526D01*
X20277366Y-9911658D01*
X19039930Y-8674222D01*
X19252062Y-8462090D01*
X19252062Y-8462090D01*
G37*
G36*
X18898509Y-8815643D02*
X20135945Y-10053079D01*
X19923813Y-10265211D01*
X18686377Y-9027775D01*
X18898509Y-8815643D01*
X18898509Y-8815643D01*
G37*
G36*
X18544956Y-9169196D02*
X19782392Y-10406632D01*
X19570260Y-10618764D01*
X18332824Y-9381328D01*
X18544956Y-9169196D01*
X18544956Y-9169196D01*
G37*
G36*
X18191402Y-9522750D02*
X19428838Y-10760186D01*
X19216706Y-10972318D01*
X17979270Y-9734882D01*
X18191402Y-9522750D01*
X18191402Y-9522750D01*
G37*
G36*
X17837849Y-9876303D02*
X19075285Y-11113739D01*
X18863153Y-11325871D01*
X17625717Y-10088435D01*
X17837849Y-9876303D01*
X17837849Y-9876303D01*
G37*
G36*
X19747037Y-14967471D02*
X20984473Y-13730035D01*
X21196605Y-13942167D01*
X19959169Y-15179603D01*
X19747037Y-14967471D01*
X19747037Y-14967471D01*
G37*
G36*
X19393484Y-14613918D02*
X20630920Y-13376482D01*
X20843052Y-13588614D01*
X19605616Y-14826050D01*
X19393484Y-14613918D01*
X19393484Y-14613918D01*
G37*
G36*
X20100591Y-15321025D02*
X21338027Y-14083589D01*
X21550159Y-14295721D01*
X20312723Y-15533157D01*
X20100591Y-15321025D01*
X20100591Y-15321025D01*
G37*
G36*
X20454144Y-15674578D02*
X21691580Y-14437142D01*
X21903712Y-14649274D01*
X20666276Y-15886710D01*
X20454144Y-15674578D01*
X20454144Y-15674578D01*
G37*
G36*
X20807697Y-16028131D02*
X22045133Y-14790695D01*
X22257265Y-15002827D01*
X21019829Y-16240263D01*
X20807697Y-16028131D01*
X20807697Y-16028131D01*
G37*
G36*
X21161251Y-16381685D02*
X22398687Y-15144249D01*
X22610819Y-15356381D01*
X21373383Y-16593817D01*
X21161251Y-16381685D01*
X21161251Y-16381685D01*
G37*
G36*
X21514804Y-16735238D02*
X22752240Y-15497802D01*
X22964372Y-15709934D01*
X21726936Y-16947370D01*
X21514804Y-16735238D01*
X21514804Y-16735238D01*
G37*
G36*
X19039930Y-14260364D02*
X20277366Y-13022928D01*
X20489498Y-13235060D01*
X19252062Y-14472496D01*
X19039930Y-14260364D01*
X19039930Y-14260364D01*
G37*
G36*
X18686377Y-13906811D02*
X19923813Y-12669375D01*
X20135945Y-12881507D01*
X18898509Y-14118943D01*
X18686377Y-13906811D01*
X18686377Y-13906811D01*
G37*
G36*
X18332824Y-13553258D02*
X19570260Y-12315822D01*
X19782392Y-12527954D01*
X18544956Y-13765390D01*
X18332824Y-13553258D01*
X18332824Y-13553258D01*
G37*
G36*
X17979270Y-13199704D02*
X19216706Y-11962268D01*
X19428838Y-12174400D01*
X18191402Y-13411836D01*
X17979270Y-13199704D01*
X17979270Y-13199704D01*
G37*
G36*
X17625717Y-12846151D02*
X18863153Y-11608715D01*
X19075285Y-11820847D01*
X17837849Y-13058283D01*
X17625717Y-12846151D01*
X17625717Y-12846151D01*
G37*
G36*
X25297825Y-9699526D02*
X27065592Y-11467293D01*
X25297825Y-13235060D01*
X23530058Y-11467293D01*
X25297825Y-9699526D01*
X25297825Y-9699526D01*
G37*
G36*
X20913763Y-9699526D02*
X22681530Y-11467293D01*
X20913763Y-13235060D01*
X19145996Y-11467293D01*
X20913763Y-9699526D01*
X20913763Y-9699526D01*
G37*
G36*
X23105794Y-11891557D02*
X24873561Y-13659324D01*
X23105794Y-15427091D01*
X21338027Y-13659324D01*
X23105794Y-11891557D01*
X23105794Y-11891557D01*
G37*
G36*
X23105794Y-7507495D02*
X24873561Y-9275262D01*
X23105794Y-11043029D01*
X21338027Y-9275262D01*
X23105794Y-7507495D01*
X23105794Y-7507495D01*
G37*
D11*
X47772000Y-6482000D03*
D12*
X47772000Y-9022000D03*
X47772000Y-11562000D03*
X47772000Y-14102000D03*
X47772000Y-16642000D03*
D13*
X36822000Y-9292000D03*
X36822000Y-14792000D03*
X40022000Y-14792000D03*
X40022000Y-9292000D03*
D14*
X32142000Y-14222000D03*
X32142000Y-9342000D03*
D15*
X43592000Y-13162000D03*
X43592000Y-15362000D03*
X43592000Y-7322000D03*
X43592000Y-9522000D03*
D16*
X8472000Y-6332000D03*
X14772000Y-6332000D03*
X8472000Y-10132000D03*
X14772000Y-10132000D03*
D17*
X2102000Y-12652000D03*
D18*
X4802000Y-9152000D03*
D19*
X4802000Y-11002000D03*
X4802000Y-10352000D03*
X4802000Y-12952000D03*
X4802000Y-12302000D03*
X4802000Y-11652000D03*
D18*
X4802000Y-14152000D03*
D17*
X2102000Y-10652000D03*
D20*
X2102000Y-8152000D03*
X2102000Y-15152000D03*
D21*
X2102000Y-14552000D03*
X2102000Y-8752000D03*
D11*
X50152000Y-19182000D03*
D12*
X47612000Y-19182000D03*
X45072000Y-19182000D03*
X42532000Y-19182000D03*
X39992000Y-19182000D03*
X37452000Y-19182000D03*
X34912000Y-19182000D03*
X32372000Y-19182000D03*
X29832000Y-19182000D03*
X27292000Y-19182000D03*
X24752000Y-19182000D03*
X22212000Y-19182000D03*
X19672000Y-19182000D03*
X17132000Y-19182000D03*
X14592000Y-19182000D03*
X12052000Y-19182000D03*
X9512000Y-19182000D03*
X6972000Y-19182000D03*
X4432000Y-19182000D03*
X1892000Y-19182000D03*
D11*
X50152000Y-3682000D03*
D12*
X47612000Y-3682000D03*
X45072000Y-3682000D03*
X42532000Y-3682000D03*
X39992000Y-3682000D03*
X37452000Y-3682000D03*
X34912000Y-3682000D03*
X32372000Y-3682000D03*
X29832000Y-3682000D03*
X27292000Y-3682000D03*
X24752000Y-3682000D03*
X22212000Y-3682000D03*
X19672000Y-3682000D03*
X17132000Y-3682000D03*
X14592000Y-3682000D03*
X12052000Y-3682000D03*
X9512000Y-3682000D03*
X6972000Y-3682000D03*
X4432000Y-3682000D03*
X1892000Y-3682000D03*
D11*
X14110000Y-13080000D03*
D12*
X14110000Y-15620000D03*
X11570000Y-13080000D03*
X11570000Y-15620000D03*
X9030000Y-13080000D03*
X9030000Y-15620000D03*
D22*
X6340000Y-10420000D03*
X5050000Y-17030000D03*
X22830000Y-20483500D03*
X6570000Y-15250000D03*
X33870000Y-12560000D03*
X20838457Y-16989442D03*
X26588588Y-6909077D03*
X6670448Y-12212992D03*
X9360000Y-7270000D03*
X11510000Y-7450000D03*
X29030000Y-12270000D03*
X15027782Y-9037708D03*
X17452000Y-9202000D03*
X29015525Y-13418475D03*
X32242000Y-8122000D03*
X6502000Y-5382000D03*
X21462000Y-9712000D03*
X23082000Y-11297010D03*
X23572000Y-10972000D03*
X22632000Y-11032000D03*
X30302000Y-11072000D03*
X49870000Y-7710000D03*
X27800000Y-6908502D03*
X16953502Y-11052880D03*
X49860000Y-5090000D03*
X38412000Y-8562000D03*
X40283765Y-5933765D03*
X38440000Y-9260000D03*
X39415637Y-5942266D03*
X28687278Y-7758528D03*
X28671321Y-7095929D03*
X41470000Y-9480000D03*
X41350000Y-13220000D03*
X17510000Y-11810000D03*
X10302000Y-10862000D03*
X17682000Y-16150500D03*
X16242233Y-17582233D03*
X42062000Y-5672000D03*
X23320000Y-5870009D03*
X22270000Y-5780000D03*
X20572000Y-6132000D03*
X24876565Y-17206504D03*
X25252000Y-17832000D03*
X19701956Y-17305509D03*
X18976246Y-16716246D03*
X29932000Y-16132000D03*
X17502000Y-7442000D03*
X7001522Y-10963120D03*
X3612000Y-12282000D03*
X7079495Y-11673617D03*
X15360000Y-5230000D03*
X20871991Y-19857000D03*
X1312000Y-16992000D03*
X26043686Y-6549227D03*
X49203895Y-7744652D03*
X10790000Y-21110000D03*
X10792000Y-19857008D03*
X10812000Y-17472000D03*
X24039145Y-17268683D03*
X29202000Y-6642000D03*
X17403613Y-10579794D03*
X44732000Y-13832000D03*
X29922000Y-14492000D03*
D23*
X6272000Y-10352000D02*
X6340000Y-10420000D01*
X4802000Y-10352000D02*
X6272000Y-10352000D01*
D24*
X6570000Y-15250000D02*
X5050000Y-16770000D01*
X5050000Y-16770000D02*
X5050000Y-17030000D01*
D25*
X43770500Y-20483500D02*
X23150319Y-20483500D01*
X45072000Y-19182000D02*
X43770500Y-20483500D01*
X23150319Y-20483500D02*
X22830000Y-20483500D01*
D24*
X4892000Y-10262000D02*
X4802000Y-10352000D01*
D25*
X4822000Y-10332000D02*
X4802000Y-10352000D01*
D24*
X45072000Y-19222000D02*
X43762000Y-20532000D01*
D25*
X33643501Y-12333501D02*
X33870000Y-12560000D01*
X32382000Y-11072000D02*
X33643501Y-12333501D01*
X30302000Y-11072000D02*
X32382000Y-11072000D01*
D24*
X15027782Y-9037708D02*
X15430000Y-8635490D01*
X15430000Y-8635490D02*
X15430000Y-7504319D01*
X15430000Y-7504319D02*
X15432000Y-7502319D01*
X14752000Y-6462000D02*
X14762000Y-6462000D01*
X14762000Y-6462000D02*
X15432000Y-7132000D01*
X15432000Y-7132000D02*
X15432000Y-7502319D01*
X21877241Y-15863740D02*
X20830000Y-16910981D01*
X20830000Y-16980985D02*
X20838457Y-16989442D01*
X20830000Y-16910981D02*
X20830000Y-16980985D01*
X47612000Y-19222000D02*
X50622000Y-16212000D01*
X25422227Y-8075438D02*
X26362089Y-7135576D01*
X25422227Y-8125553D02*
X25422227Y-8075438D01*
X26362089Y-7135576D02*
X26588588Y-6909077D01*
D25*
X6443949Y-12439491D02*
X6670448Y-12212992D01*
X4802000Y-12952000D02*
X5931440Y-12952000D01*
X5931440Y-12952000D02*
X6443949Y-12439491D01*
D24*
X8552000Y-6462000D02*
X9133501Y-7043501D01*
X8452000Y-6462000D02*
X8552000Y-6462000D01*
X9133501Y-7043501D02*
X9360000Y-7270000D01*
X11830319Y-7450000D02*
X11510000Y-7450000D01*
X13764000Y-7450000D02*
X11830319Y-7450000D01*
X14752000Y-6462000D02*
X13764000Y-7450000D01*
D25*
X29015525Y-12284475D02*
X29030000Y-12270000D01*
X29015525Y-13418475D02*
X29015525Y-12284475D01*
D26*
X8452000Y-6462000D02*
X7612000Y-6462000D01*
X7612000Y-6462000D02*
X4832000Y-3682000D01*
X4832000Y-3682000D02*
X4432000Y-3682000D01*
D24*
X15432000Y-7502319D02*
X17131681Y-9202000D01*
X18695260Y-10242241D02*
X17645019Y-9192000D01*
X17645019Y-9192000D02*
X17462000Y-9192000D01*
X17462000Y-9192000D02*
X17452000Y-9202000D01*
X17131681Y-9202000D02*
X17452000Y-9202000D01*
D25*
X47612000Y-19182000D02*
X45172000Y-16742000D01*
D26*
X4432000Y-3682000D02*
X2102000Y-6012000D01*
X4802000Y-14152000D02*
X4802000Y-12952000D01*
D24*
X27507534Y-12687052D02*
X26287775Y-11467293D01*
X26287775Y-11467293D02*
X25297825Y-11467293D01*
X29015525Y-13418475D02*
X28238425Y-13418475D01*
X28238425Y-13418475D02*
X28238425Y-13417943D01*
X28238425Y-13417943D02*
X27507534Y-12687052D01*
X29015525Y-13416355D02*
X29015525Y-13418475D01*
X29011170Y-13412000D02*
X29015525Y-13416355D01*
X25292000Y-11462000D02*
X26281950Y-11462000D01*
X31921681Y-8122000D02*
X32242000Y-8122000D01*
X30302000Y-11072000D02*
X30302000Y-9483381D01*
X31663381Y-8122000D02*
X31921681Y-8122000D01*
X30302000Y-9483381D02*
X31663381Y-8122000D01*
X25380388Y-8120920D02*
X24231339Y-9269969D01*
X24231339Y-9269969D02*
X23099969Y-9269969D01*
D26*
X23099969Y-13654031D02*
X20907938Y-11462000D01*
X25292000Y-11462000D02*
X23099969Y-13654031D01*
X25292000Y-11462000D02*
X23099969Y-9269969D01*
X22632000Y-11032000D02*
X21337938Y-11032000D01*
X21337938Y-11032000D02*
X20907938Y-11462000D01*
X23082000Y-11297010D02*
X23082000Y-13636062D01*
X25292000Y-11462000D02*
X24062000Y-11462000D01*
X24062000Y-11462000D02*
X23572000Y-10972000D01*
X23099969Y-9269969D02*
X20907938Y-11462000D01*
X21462000Y-9712000D02*
X22657938Y-9712000D01*
X22657938Y-9712000D02*
X23099969Y-9269969D01*
D24*
X23099969Y-13654031D02*
X23099969Y-14643981D01*
X23099969Y-14643981D02*
X21880210Y-15863740D01*
X20907938Y-11462000D02*
X22252104Y-11462000D01*
X18698229Y-10242241D02*
X19917988Y-11462000D01*
X19917988Y-11462000D02*
X20907938Y-11462000D01*
X27521776Y-12681776D02*
X27498740Y-12681776D01*
X27498740Y-12681776D02*
X27498732Y-12681768D01*
X7682000Y-6462000D02*
X8452000Y-6462000D01*
D26*
X2102000Y-6012000D02*
X2102000Y-8152000D01*
X2102000Y-8152000D02*
X3802000Y-8152000D01*
X3802000Y-8152000D02*
X4802000Y-9152000D01*
X2102000Y-15152000D02*
X3802000Y-15152000D01*
X3802000Y-15152000D02*
X4802000Y-14152000D01*
X2102000Y-14552000D02*
X2102000Y-15152000D01*
X2102000Y-12652000D02*
X2102000Y-14552000D01*
X2102000Y-10652000D02*
X2102000Y-12652000D01*
X2102000Y-8752000D02*
X2102000Y-10652000D01*
X2102000Y-8152000D02*
X2102000Y-8752000D01*
D24*
X49870000Y-11752000D02*
X49870000Y-8030319D01*
X49910000Y-11792000D02*
X49870000Y-11752000D01*
X49870000Y-8030319D02*
X49870000Y-7710000D01*
X49910000Y-11964000D02*
X49910000Y-11792000D01*
X49910000Y-11792000D02*
X49910000Y-14504000D01*
X49910000Y-14504000D02*
X47772000Y-16642000D01*
X25841768Y-8402000D02*
X25843768Y-8400000D01*
X25843768Y-8400000D02*
X25854886Y-8400000D01*
X25854886Y-8400000D02*
X26471350Y-7783536D01*
X26952009Y-7325595D02*
X27369102Y-6908502D01*
X26471350Y-7783536D02*
X26495388Y-7783536D01*
X26495388Y-7783536D02*
X26952009Y-7326915D01*
X26952009Y-7326915D02*
X26952009Y-7325595D01*
X27369102Y-6908502D02*
X27800000Y-6908502D01*
X10268508Y-5640589D02*
X10268508Y-10000000D01*
X9512000Y-3682000D02*
X9512000Y-4884081D01*
X9512000Y-4884081D02*
X10268508Y-5640589D01*
X48110988Y-2442000D02*
X48882000Y-3213012D01*
X10752000Y-2442000D02*
X48110988Y-2442000D01*
X9512000Y-3682000D02*
X10752000Y-2442000D01*
X8452000Y-10262000D02*
X10010000Y-10262000D01*
X10010000Y-10262000D02*
X10260000Y-10262000D01*
X10268508Y-10003492D02*
X10010000Y-10262000D01*
X10268508Y-10000000D02*
X10268508Y-10003492D01*
X10268508Y-10000000D02*
X10268508Y-10253492D01*
X10540000Y-10262000D02*
X10892000Y-10262000D01*
X10268508Y-10000000D02*
X10278000Y-10000000D01*
X10278000Y-10000000D02*
X10540000Y-10262000D01*
X10372000Y-10262000D02*
X10540000Y-10262000D01*
X10260000Y-10262000D02*
X10372000Y-10262000D01*
X10268508Y-10253492D02*
X10260000Y-10262000D01*
X10892000Y-10262000D02*
X11422000Y-10262000D01*
X10372000Y-10262000D02*
X10373492Y-10262000D01*
X10672000Y-10262000D02*
X11422000Y-10262000D01*
X16162622Y-10262000D02*
X16727003Y-10826381D01*
X14752000Y-10262000D02*
X16162622Y-10262000D01*
X16727003Y-10826381D02*
X16953502Y-11052880D01*
X11422000Y-10262000D02*
X14752000Y-10262000D01*
X14752000Y-10262000D02*
X14428634Y-9938634D01*
X14752000Y-10262000D02*
X14752000Y-10094081D01*
X9950000Y-3650000D02*
X9940000Y-3650000D01*
X47772000Y-16492000D02*
X47772000Y-16642000D01*
X49539681Y-5090000D02*
X49860000Y-5090000D01*
X49289999Y-5090000D02*
X49539681Y-5090000D01*
X48882000Y-4682001D02*
X49289999Y-5090000D01*
X48882000Y-3213012D02*
X48882000Y-4682001D01*
X39547024Y-6670506D02*
X40057266Y-6160264D01*
X40057266Y-6160264D02*
X40283765Y-5933765D01*
X31205685Y-6670506D02*
X39547024Y-6670506D01*
X28894199Y-8981992D02*
X31205685Y-6670506D01*
X27145186Y-9888687D02*
X28051881Y-8981992D01*
X28051881Y-8981992D02*
X28894199Y-8981992D01*
X41177021Y-5040509D02*
X43683491Y-5040509D01*
X43683491Y-5040509D02*
X45072000Y-3652000D01*
X40283765Y-5933765D02*
X41177021Y-5040509D01*
X38412000Y-8562000D02*
X37552000Y-8562000D01*
X37552000Y-8562000D02*
X36822000Y-9292000D01*
X38472000Y-9292000D02*
X38440000Y-9260000D01*
X40022000Y-9292000D02*
X38472000Y-9292000D01*
X39189138Y-6168765D02*
X39415637Y-5942266D01*
X31019289Y-6220505D02*
X39137398Y-6220505D01*
X26800427Y-9540427D02*
X27808863Y-8531991D01*
X28707803Y-8531991D02*
X31019289Y-6220505D01*
X39137398Y-6220505D02*
X39189138Y-6168765D01*
X27808863Y-8531991D02*
X28707803Y-8531991D01*
X39415637Y-5942266D02*
X41685903Y-3672000D01*
X41685903Y-3672000D02*
X42542000Y-3672000D01*
X42542000Y-3672000D02*
X42532000Y-3682000D01*
X40022000Y-9292000D02*
X39722000Y-9292000D01*
X42972000Y-3652000D02*
X42970000Y-3650000D01*
X28687278Y-7758528D02*
X28462279Y-7983527D01*
X28462279Y-7983527D02*
X27639103Y-7983527D01*
X27639103Y-7983527D02*
X27130477Y-8492153D01*
X27130477Y-8492153D02*
X26441049Y-9181581D01*
X26441049Y-9181581D02*
X26472419Y-9181581D01*
X27402009Y-7511991D02*
X27402009Y-7513311D01*
X27402009Y-7513311D02*
X26082660Y-8832660D01*
X27402009Y-7511991D02*
X27402009Y-7513513D01*
X27402009Y-7511991D02*
X28125997Y-7511991D01*
X28125997Y-7511991D02*
X28542059Y-7095929D01*
X28542059Y-7095929D02*
X28671321Y-7095929D01*
X41512000Y-9522000D02*
X41470000Y-9480000D01*
X43592000Y-9522000D02*
X41512000Y-9522000D01*
X43592000Y-15362000D02*
X43502000Y-15362000D01*
X43502000Y-15362000D02*
X41360000Y-13220000D01*
X41360000Y-13220000D02*
X41350000Y-13220000D01*
X43592000Y-15149538D02*
X43592000Y-15362000D01*
X16310188Y-11810000D02*
X17189681Y-11810000D01*
X10302000Y-10862000D02*
X10622319Y-10862000D01*
X10622319Y-10862000D02*
X10752310Y-10991991D01*
X15492179Y-10991991D02*
X16310188Y-11810000D01*
X17189681Y-11810000D02*
X17510000Y-11810000D01*
X10752310Y-10991991D02*
X15492179Y-10991991D01*
X17673966Y-16150500D02*
X17682000Y-16150500D01*
X16242233Y-17582233D02*
X17673966Y-16150500D01*
X49315595Y-5751992D02*
X50175997Y-5751992D01*
X50652000Y-4152000D02*
X50152000Y-3652000D01*
X48735603Y-5172000D02*
X49315595Y-5751992D01*
X46618989Y-5172000D02*
X48735603Y-5172000D01*
X42806991Y-6017009D02*
X45773980Y-6017009D01*
X41253492Y-7570508D02*
X42806991Y-6017009D01*
X31578477Y-7570508D02*
X41253492Y-7570508D01*
X45773980Y-6017009D02*
X46618989Y-5172000D01*
X29166985Y-9982000D02*
X31578477Y-7570508D01*
X50652000Y-5275989D02*
X50652000Y-4152000D01*
X28448000Y-9982000D02*
X29166985Y-9982000D01*
X27861087Y-10568913D02*
X28448000Y-9982000D01*
X27861087Y-10601087D02*
X27861087Y-10568913D01*
X50175997Y-5751992D02*
X50652000Y-5275989D01*
X41835501Y-5898499D02*
X42062000Y-5672000D01*
X40613493Y-7120507D02*
X41835501Y-5898499D01*
X28980588Y-9532000D02*
X31392081Y-7120507D01*
X28208981Y-9532000D02*
X28980588Y-9532000D01*
X27498740Y-10242241D02*
X28208981Y-9532000D01*
X31392081Y-7120507D02*
X40613493Y-7120507D01*
X47612000Y-3682000D02*
X47112000Y-3682000D01*
X47112000Y-3682000D02*
X45261990Y-5532010D01*
X45261990Y-5532010D02*
X42191990Y-5532010D01*
X42191990Y-5532010D02*
X42062000Y-5662000D01*
X42062000Y-5662000D02*
X42062000Y-5672000D01*
X24679107Y-7419107D02*
X25471785Y-6626429D01*
X25471785Y-6626429D02*
X25471785Y-6072215D01*
X25471785Y-6072215D02*
X25787007Y-5756993D01*
X25787007Y-5756993D02*
X38323007Y-5756993D01*
X38323007Y-5756993D02*
X40430000Y-3650000D01*
X25021784Y-6369322D02*
X25014981Y-6376125D01*
X35827008Y-5306992D02*
X25447008Y-5306992D01*
X25021784Y-5732216D02*
X25021784Y-6369322D01*
X25447008Y-5306992D02*
X25021784Y-5732216D01*
X37452000Y-3682000D02*
X35827008Y-5306992D01*
X25014981Y-6376125D02*
X24325553Y-7065553D01*
X33707009Y-4856991D02*
X34912000Y-3652000D01*
X24717009Y-4856991D02*
X33707009Y-4856991D01*
X23963206Y-5610794D02*
X24717009Y-4856991D01*
X23963206Y-6706707D02*
X23963206Y-5610794D01*
X23093501Y-6096508D02*
X23320000Y-5870009D01*
X22478669Y-6711340D02*
X23093501Y-6096508D01*
X22228928Y-6711340D02*
X22478669Y-6711340D01*
X21877241Y-7060260D02*
X21877241Y-7021407D01*
X21590000Y-5560000D02*
X22070000Y-5560000D01*
X21877241Y-7021407D02*
X21189804Y-6333970D01*
X21189804Y-6333970D02*
X21189804Y-5960196D01*
X22070000Y-5560000D02*
X22300000Y-5790000D01*
X21189804Y-5960196D02*
X21590000Y-5560000D01*
X20572000Y-6452319D02*
X20572000Y-6132000D01*
X20572000Y-6462127D02*
X20572000Y-6452319D01*
X21523687Y-7413814D02*
X20572000Y-6462127D01*
X24752000Y-3652000D02*
X23492000Y-4912000D01*
X23492000Y-4912000D02*
X20995792Y-4912000D01*
X20995792Y-4912000D02*
X20012009Y-5895783D01*
X20012009Y-5895783D02*
X20012009Y-6609242D01*
X20012009Y-6609242D02*
X21170134Y-7767367D01*
X19562008Y-5709387D02*
X21619395Y-3652000D01*
X19562008Y-6866347D02*
X19562008Y-5709387D01*
X20816581Y-8120920D02*
X19562008Y-6866347D01*
X21619395Y-3652000D02*
X22212000Y-3652000D01*
X22254000Y-3650000D02*
X22650000Y-3650000D01*
X20110000Y-3650000D02*
X19780285Y-3650000D01*
X19780285Y-3650000D02*
X19002000Y-4428285D01*
X19002000Y-4428285D02*
X19002000Y-7013447D01*
X19002000Y-7013447D02*
X20463027Y-8474474D01*
X18091991Y-4641991D02*
X18091991Y-6810544D01*
X17132000Y-3682000D02*
X18091991Y-4641991D01*
X18091991Y-6810544D02*
X20109474Y-8828027D01*
X18012726Y-8141992D02*
X17370993Y-8141992D01*
X16882008Y-5870627D02*
X14663381Y-3652000D01*
X19411161Y-9540427D02*
X18012726Y-8141992D01*
X17370993Y-8141992D02*
X16882008Y-7653007D01*
X16882008Y-7653007D02*
X16882008Y-5870627D01*
X14663381Y-3652000D02*
X14592000Y-3652000D01*
X23972000Y-16222586D02*
X24876565Y-17127151D01*
X24876565Y-17127151D02*
X24876565Y-17206504D01*
X20865792Y-17832000D02*
X24931681Y-17832000D01*
X21532481Y-15515479D02*
X20280415Y-16767545D01*
X20280415Y-16767545D02*
X20280415Y-17246623D01*
X20280415Y-17246623D02*
X20865792Y-17832000D01*
X24931681Y-17832000D02*
X25252000Y-17832000D01*
X27145186Y-13035313D02*
X29191873Y-15082000D01*
X29191873Y-15082000D02*
X30642000Y-15082000D01*
X30642000Y-15082000D02*
X31442000Y-15882000D01*
X31442000Y-15882000D02*
X39232000Y-15882000D01*
X39232000Y-15882000D02*
X42532000Y-19182000D01*
X26791633Y-13388866D02*
X28949775Y-15547008D01*
X28949775Y-15547008D02*
X30470611Y-15547008D01*
X30470611Y-15547008D02*
X31255604Y-16332001D01*
X31255604Y-16332001D02*
X37142001Y-16332001D01*
X37142001Y-16332001D02*
X39992000Y-19182000D01*
X26084526Y-14095973D02*
X28770555Y-16782002D01*
X28770555Y-16782002D02*
X35052002Y-16782002D01*
X35052002Y-16782002D02*
X37452000Y-19182000D01*
X25730973Y-14449526D02*
X28513450Y-17232003D01*
X28513450Y-17232003D02*
X32962003Y-17232003D01*
X32962003Y-17232003D02*
X34912000Y-19182000D01*
X25377419Y-14803080D02*
X28256343Y-17682004D01*
X28256343Y-17682004D02*
X30872004Y-17682004D01*
X30872004Y-17682004D02*
X32372000Y-19182000D01*
X29832000Y-19182000D02*
X29062000Y-19182000D01*
X29062000Y-19182000D02*
X25032000Y-15152000D01*
X24670313Y-15510186D02*
X24709166Y-15510186D01*
X24709166Y-15510186D02*
X27292000Y-18093020D01*
X27292000Y-18093020D02*
X27292000Y-19402000D01*
X24752000Y-19402000D02*
X25983491Y-18170509D01*
X25983491Y-18170509D02*
X25983491Y-17533491D01*
X25224294Y-16764294D02*
X25202000Y-16742000D01*
X25983491Y-17533491D02*
X25224294Y-16774294D01*
X25224294Y-16774294D02*
X25224294Y-16764294D01*
X25202000Y-16742000D02*
X25185590Y-16742000D01*
X25185590Y-16742000D02*
X24316759Y-15873169D01*
X19701956Y-16985190D02*
X19701956Y-17305509D01*
X21170134Y-15156633D02*
X19701956Y-16624811D01*
X19701956Y-16624811D02*
X19701956Y-16985190D01*
X21618447Y-19222000D02*
X19928455Y-17532008D01*
X22212000Y-19222000D02*
X21618447Y-19222000D01*
X19928455Y-17532008D02*
X19701956Y-17305509D01*
X22212000Y-19402000D02*
X21922000Y-19402000D01*
X19672000Y-19182000D02*
X18992000Y-18502000D01*
X18992000Y-18502000D02*
X18992000Y-16732000D01*
X18992000Y-16732000D02*
X18976246Y-16716246D01*
X20816581Y-14803080D02*
X18962000Y-16657661D01*
X18962000Y-16657661D02*
X18962000Y-16712000D01*
X18962000Y-16712000D02*
X18972000Y-16712000D01*
X18972000Y-16712000D02*
X18976246Y-16716246D01*
X20463027Y-14449526D02*
X17132000Y-17780553D01*
X17132000Y-17780553D02*
X17132000Y-19402000D01*
X17776904Y-15267636D02*
X18941312Y-15267636D01*
X14592000Y-18452540D02*
X17776904Y-15267636D01*
X18941312Y-15267636D02*
X20117608Y-14091340D01*
X14592000Y-19182000D02*
X14592000Y-18452540D01*
X14592000Y-19402000D02*
X14806948Y-19402000D01*
X15030000Y-19398000D02*
X15032000Y-19396000D01*
X15032000Y-19396000D02*
X15032000Y-19173447D01*
X17590507Y-14817636D02*
X14556142Y-17852001D01*
X13421999Y-17852001D02*
X12052000Y-19222000D01*
X18680703Y-14817636D02*
X17590507Y-14817636D01*
X19755920Y-13742419D02*
X18680703Y-14817636D01*
X14556142Y-17852001D02*
X13421999Y-17852001D01*
X12490000Y-19398000D02*
X12502000Y-19386000D01*
X9512000Y-19182000D02*
X10032000Y-19182000D01*
X10032000Y-19182000D02*
X11812000Y-17402000D01*
X11812000Y-17402000D02*
X14369746Y-17402000D01*
X18437685Y-14367635D02*
X19411161Y-13394159D01*
X14369746Y-17402000D02*
X17404111Y-14367635D01*
X17404111Y-14367635D02*
X18437685Y-14367635D01*
X19048814Y-13035313D02*
X18166492Y-13917635D01*
X18166492Y-13917635D02*
X17162365Y-13917635D01*
X17162365Y-13917635D02*
X16760000Y-14320000D01*
X16760000Y-14320000D02*
X11024000Y-14320000D01*
X11024000Y-14320000D02*
X10282000Y-15062000D01*
X10282000Y-15062000D02*
X10282000Y-16076615D01*
X10282000Y-16076615D02*
X10277385Y-16076615D01*
X10277385Y-16076615D02*
X7172000Y-19182000D01*
X7172000Y-19182000D02*
X7112000Y-19182000D01*
X7112000Y-19182000D02*
X6972000Y-19182000D01*
X6972000Y-19386615D02*
X6972000Y-19402000D01*
X17923472Y-13467634D02*
X18014626Y-13376480D01*
X7641493Y-12612506D02*
X8362008Y-11891992D01*
X15119387Y-11891992D02*
X16695029Y-13467634D01*
X4432000Y-19182000D02*
X7641493Y-15972507D01*
X7641493Y-15972507D02*
X7641493Y-12612506D01*
X16695029Y-13467634D02*
X17923472Y-13467634D01*
X8362008Y-11891992D02*
X15119387Y-11891992D01*
X18014626Y-13376480D02*
X18704054Y-12687052D01*
X18038369Y-12333499D02*
X18350501Y-12333499D01*
X7191492Y-12426111D02*
X8175612Y-11441991D01*
X16225283Y-12361491D02*
X18010377Y-12361491D01*
X2741999Y-18332001D02*
X2741999Y-18291792D01*
X8175612Y-11441991D02*
X15305784Y-11441992D01*
X1892000Y-19182000D02*
X2741999Y-18332001D01*
X15305784Y-11441992D02*
X16225283Y-12361491D01*
X18010377Y-12361491D02*
X18038369Y-12333499D01*
X2741999Y-18291792D02*
X7191492Y-13842299D01*
X7191492Y-13842299D02*
X7191492Y-12426111D01*
X28827661Y-16132000D02*
X29932000Y-16132000D01*
X26438080Y-13742419D02*
X28827661Y-16132000D01*
X17822319Y-7442000D02*
X17502000Y-7442000D01*
X18019840Y-7442000D02*
X17822319Y-7442000D01*
X19764714Y-9186874D02*
X18019840Y-7442000D01*
X4802000Y-11002000D02*
X6958000Y-11002000D01*
X6958000Y-11002000D02*
X7000000Y-10960000D01*
X7000000Y-10960000D02*
X7000000Y-10961598D01*
X7000000Y-10961598D02*
X7001522Y-10963120D01*
X4802000Y-12302000D02*
X3632000Y-12302000D01*
X3632000Y-12302000D02*
X3612000Y-12282000D01*
X3592000Y-12262000D02*
X3612000Y-12282000D01*
X7067370Y-11661492D02*
X7079495Y-11673617D01*
X5727000Y-11652000D02*
X5754999Y-11679999D01*
X4802000Y-11652000D02*
X5727000Y-11652000D01*
X6226397Y-11679999D02*
X6244903Y-11661493D01*
X5754999Y-11679999D02*
X6226397Y-11679999D01*
X6244903Y-11661493D02*
X7067370Y-11661492D01*
X19057608Y-9893980D02*
X17764137Y-8600509D01*
X17764137Y-8600509D02*
X17193114Y-8600509D01*
X17193114Y-8600509D02*
X16210000Y-7617395D01*
X16210000Y-7617395D02*
X16210000Y-5850000D01*
X16210000Y-5850000D02*
X15600000Y-5240000D01*
X15600000Y-5240000D02*
X15370000Y-5240000D01*
X15370000Y-5240000D02*
X15360000Y-5230000D01*
X12052000Y-3682000D02*
X13600000Y-5230000D01*
X13600000Y-5230000D02*
X15039681Y-5230000D01*
X15039681Y-5230000D02*
X15360000Y-5230000D01*
X1312000Y-16992000D02*
X717009Y-17586991D01*
X717009Y-17586991D02*
X717009Y-19745997D01*
X717009Y-19745997D02*
X2641012Y-21670000D01*
X2641012Y-21670000D02*
X19058991Y-21670000D01*
X19058991Y-21670000D02*
X20645492Y-20083499D01*
X20645492Y-20083499D02*
X20871991Y-19857000D01*
X1892000Y-3682000D02*
X632000Y-4942000D01*
X632000Y-16312000D02*
X1012001Y-16692001D01*
X1012001Y-16692001D02*
X1312000Y-16992000D01*
X632000Y-4942000D02*
X632000Y-16312000D01*
D26*
X2052000Y-3842000D02*
X1892000Y-3682000D01*
D25*
X10812000Y-17472000D02*
X11407000Y-16877000D01*
X11407000Y-16877000D02*
X12853000Y-16877000D01*
X12853000Y-16877000D02*
X13260001Y-16469999D01*
X13260001Y-16469999D02*
X14110000Y-15620000D01*
X10792000Y-19857008D02*
X10792000Y-21108000D01*
X10792000Y-21108000D02*
X10790000Y-21110000D01*
X29202000Y-6642000D02*
X28841994Y-6281994D01*
D24*
X26043686Y-6761634D02*
X26043686Y-6549227D01*
X25032660Y-7772660D02*
X26043686Y-6761634D01*
D25*
X26310919Y-6281994D02*
X26270185Y-6322728D01*
X26270185Y-6322728D02*
X26043686Y-6549227D01*
X28841994Y-6281994D02*
X26310919Y-6281994D01*
D24*
X44442000Y-7322000D02*
X44864652Y-7744652D01*
X44864652Y-7744652D02*
X48883576Y-7744652D01*
X43592000Y-7322000D02*
X44442000Y-7322000D01*
X48883576Y-7744652D02*
X49203895Y-7744652D01*
X43592000Y-13162000D02*
X44062000Y-13162000D01*
X44062000Y-13162000D02*
X44732000Y-13832000D01*
X43592000Y-7322000D02*
X43592000Y-7468208D01*
D25*
X43592000Y-7602016D02*
X43592000Y-7322000D01*
D24*
X43592000Y-13162000D02*
X43442000Y-13012000D01*
X17424906Y-10601087D02*
X17403613Y-10579794D01*
X18350501Y-10601087D02*
X17424906Y-10601087D01*
D26*
X30148499Y-11990362D02*
X29740137Y-11582000D01*
X29740137Y-11582000D02*
X28612586Y-11582000D01*
X28612586Y-11582000D02*
X27931799Y-12262787D01*
D24*
X22983122Y-16212660D02*
X23814146Y-17043684D01*
X22238928Y-16212660D02*
X22983122Y-16212660D01*
X23814146Y-17043684D02*
X24039145Y-17268683D01*
D26*
X29922000Y-14492000D02*
X30148499Y-14265501D01*
X30148499Y-14265501D02*
X30148499Y-11990362D01*
D27*
G36*
X47739000Y-19055000D02*
X47759000Y-19055000D01*
X47759000Y-19309000D01*
X47739000Y-19309000D01*
X47739000Y-20502155D01*
X47968890Y-20623476D01*
X48378924Y-20453645D01*
X48681937Y-20177499D01*
X48698838Y-20267317D01*
X48837910Y-20483441D01*
X49050110Y-20628431D01*
X49302000Y-20679440D01*
X51002000Y-20679440D01*
X51237317Y-20635162D01*
X51290000Y-20601261D01*
X51290000Y-22290000D01*
X19472774Y-22290000D01*
X19596392Y-22207401D01*
X21115099Y-20688694D01*
X21359354Y-20587770D01*
X21476202Y-20471126D01*
X21643715Y-20583054D01*
X21968357Y-20647629D01*
X21968351Y-20654111D01*
X22099230Y-20970863D01*
X22341362Y-21213418D01*
X22657885Y-21344850D01*
X23000611Y-21345149D01*
X23065107Y-21318500D01*
X43770500Y-21318500D01*
X44090041Y-21254939D01*
X44360934Y-21073934D01*
X44794061Y-20640807D01*
X45072000Y-20696093D01*
X45640285Y-20583054D01*
X46122054Y-20261147D01*
X46349702Y-19920447D01*
X46416817Y-20063358D01*
X46845076Y-20453645D01*
X47255110Y-20623476D01*
X47485000Y-20502155D01*
X47485000Y-19309000D01*
X47465000Y-19309000D01*
X47465000Y-19055000D01*
X47485000Y-19055000D01*
X47485000Y-19035000D01*
X47739000Y-19035000D01*
X47739000Y-19055000D01*
X47739000Y-19055000D01*
G37*
X47739000Y-19055000D02*
X47759000Y-19055000D01*
X47759000Y-19309000D01*
X47739000Y-19309000D01*
X47739000Y-20502155D01*
X47968890Y-20623476D01*
X48378924Y-20453645D01*
X48681937Y-20177499D01*
X48698838Y-20267317D01*
X48837910Y-20483441D01*
X49050110Y-20628431D01*
X49302000Y-20679440D01*
X51002000Y-20679440D01*
X51237317Y-20635162D01*
X51290000Y-20601261D01*
X51290000Y-22290000D01*
X19472774Y-22290000D01*
X19596392Y-22207401D01*
X21115099Y-20688694D01*
X21359354Y-20587770D01*
X21476202Y-20471126D01*
X21643715Y-20583054D01*
X21968357Y-20647629D01*
X21968351Y-20654111D01*
X22099230Y-20970863D01*
X22341362Y-21213418D01*
X22657885Y-21344850D01*
X23000611Y-21345149D01*
X23065107Y-21318500D01*
X43770500Y-21318500D01*
X44090041Y-21254939D01*
X44360934Y-21073934D01*
X44794061Y-20640807D01*
X45072000Y-20696093D01*
X45640285Y-20583054D01*
X46122054Y-20261147D01*
X46349702Y-19920447D01*
X46416817Y-20063358D01*
X46845076Y-20453645D01*
X47255110Y-20623476D01*
X47485000Y-20502155D01*
X47485000Y-19309000D01*
X47465000Y-19309000D01*
X47465000Y-19055000D01*
X47485000Y-19055000D01*
X47485000Y-19035000D01*
X47739000Y-19035000D01*
X47739000Y-19055000D01*
G36*
X35275569Y-8390110D02*
X35224560Y-8642000D01*
X35224560Y-9942000D01*
X35268838Y-10177317D01*
X35407910Y-10393441D01*
X35620110Y-10538431D01*
X35872000Y-10589440D01*
X37772000Y-10589440D01*
X38007317Y-10545162D01*
X38223441Y-10406090D01*
X38368431Y-10193890D01*
X38383100Y-10121451D01*
X38458338Y-10121516D01*
X38468838Y-10177317D01*
X38607910Y-10393441D01*
X38820110Y-10538431D01*
X39072000Y-10589440D01*
X40972000Y-10589440D01*
X41207317Y-10545162D01*
X41423441Y-10406090D01*
X41467575Y-10341498D01*
X41640611Y-10341649D01*
X41784973Y-10282000D01*
X42374666Y-10282000D01*
X42388838Y-10357317D01*
X42527910Y-10573441D01*
X42740110Y-10718431D01*
X42992000Y-10769440D01*
X44192000Y-10769440D01*
X44427317Y-10725162D01*
X44643441Y-10586090D01*
X44788431Y-10373890D01*
X44839440Y-10122000D01*
X44839440Y-8922000D01*
X44795162Y-8686683D01*
X44656090Y-8470559D01*
X44640827Y-8460130D01*
X44864652Y-8504652D01*
X46360814Y-8504652D01*
X46257907Y-9022000D01*
X46370946Y-9590285D01*
X46692853Y-10072054D01*
X47022026Y-10292000D01*
X46692853Y-10511946D01*
X46370946Y-10993715D01*
X46257907Y-11562000D01*
X46370946Y-12130285D01*
X46692853Y-12612054D01*
X47022026Y-12832000D01*
X46692853Y-13051946D01*
X46370946Y-13533715D01*
X46257907Y-14102000D01*
X46370946Y-14670285D01*
X46692853Y-15152054D01*
X47022026Y-15372000D01*
X46692853Y-15591946D01*
X46370946Y-16073715D01*
X46257907Y-16642000D01*
X46370946Y-17210285D01*
X46692853Y-17692054D01*
X46952793Y-17865740D01*
X46845076Y-17910355D01*
X46416817Y-18300642D01*
X46349702Y-18443553D01*
X46122054Y-18102853D01*
X45640285Y-17780946D01*
X45072000Y-17667907D01*
X44503715Y-17780946D01*
X44021946Y-18102853D01*
X43802000Y-18432026D01*
X43582054Y-18102853D01*
X43100285Y-17780946D01*
X42532000Y-17667907D01*
X42165592Y-17740790D01*
X40514242Y-16089440D01*
X40972000Y-16089440D01*
X41207317Y-16045162D01*
X41423441Y-15906090D01*
X41568431Y-15693890D01*
X41619440Y-15442000D01*
X41619440Y-14554242D01*
X42344560Y-15279362D01*
X42344560Y-15962000D01*
X42388838Y-16197317D01*
X42527910Y-16413441D01*
X42740110Y-16558431D01*
X42992000Y-16609440D01*
X44192000Y-16609440D01*
X44427317Y-16565162D01*
X44643441Y-16426090D01*
X44788431Y-16213890D01*
X44839440Y-15962000D01*
X44839440Y-14762000D01*
X44826566Y-14693583D01*
X44902611Y-14693649D01*
X45219363Y-14562770D01*
X45461918Y-14320638D01*
X45593350Y-14004115D01*
X45593649Y-13661389D01*
X45462770Y-13344637D01*
X45220638Y-13102082D01*
X44974805Y-13000003D01*
X44839440Y-12864638D01*
X44839440Y-12562000D01*
X44795162Y-12326683D01*
X44656090Y-12110559D01*
X44443890Y-11965569D01*
X44192000Y-11914560D01*
X42992000Y-11914560D01*
X42756683Y-11958838D01*
X42540559Y-12097910D01*
X42395569Y-12310110D01*
X42344560Y-12562000D01*
X42344560Y-13129758D01*
X42174653Y-12959851D01*
X42080770Y-12732637D01*
X41838638Y-12490082D01*
X41522115Y-12358650D01*
X41179389Y-12358351D01*
X40862637Y-12489230D01*
X40620082Y-12731362D01*
X40488650Y-13047885D01*
X40488351Y-13390611D01*
X40531302Y-13494560D01*
X39072000Y-13494560D01*
X38836683Y-13538838D01*
X38620559Y-13677910D01*
X38475569Y-13890110D01*
X38424560Y-14142000D01*
X38424560Y-15122000D01*
X38419440Y-15122000D01*
X38419440Y-14142000D01*
X38375162Y-13906683D01*
X38236090Y-13690559D01*
X38023890Y-13545569D01*
X37772000Y-13494560D01*
X35872000Y-13494560D01*
X35636683Y-13538838D01*
X35420559Y-13677910D01*
X35275569Y-13890110D01*
X35224560Y-14142000D01*
X35224560Y-15122000D01*
X33200825Y-15122000D01*
X33315461Y-15007564D01*
X33526759Y-14498702D01*
X33527240Y-13947715D01*
X33316831Y-13438485D01*
X32927564Y-13048539D01*
X32418702Y-12837241D01*
X31867715Y-12836760D01*
X31358485Y-13047169D01*
X31033499Y-13371589D01*
X31033499Y-11990367D01*
X31033500Y-11990362D01*
X30966132Y-11651687D01*
X30956910Y-11637885D01*
X30774289Y-11364572D01*
X30774286Y-11364570D01*
X30365927Y-10956210D01*
X30365074Y-10955640D01*
X30078812Y-10764367D01*
X30008621Y-10750405D01*
X29740137Y-10696999D01*
X29740132Y-10697000D01*
X29393213Y-10697000D01*
X29457824Y-10684148D01*
X29704386Y-10519401D01*
X30756890Y-9466897D01*
X30756760Y-9616285D01*
X30967169Y-10125515D01*
X31356436Y-10515461D01*
X31865298Y-10726759D01*
X32416285Y-10727240D01*
X32925515Y-10516831D01*
X33315461Y-10127564D01*
X33526759Y-9618702D01*
X33527240Y-9067715D01*
X33316831Y-8558485D01*
X33089251Y-8330508D01*
X35316293Y-8330508D01*
X35275569Y-8390110D01*
X35275569Y-8390110D01*
G37*
X35275569Y-8390110D02*
X35224560Y-8642000D01*
X35224560Y-9942000D01*
X35268838Y-10177317D01*
X35407910Y-10393441D01*
X35620110Y-10538431D01*
X35872000Y-10589440D01*
X37772000Y-10589440D01*
X38007317Y-10545162D01*
X38223441Y-10406090D01*
X38368431Y-10193890D01*
X38383100Y-10121451D01*
X38458338Y-10121516D01*
X38468838Y-10177317D01*
X38607910Y-10393441D01*
X38820110Y-10538431D01*
X39072000Y-10589440D01*
X40972000Y-10589440D01*
X41207317Y-10545162D01*
X41423441Y-10406090D01*
X41467575Y-10341498D01*
X41640611Y-10341649D01*
X41784973Y-10282000D01*
X42374666Y-10282000D01*
X42388838Y-10357317D01*
X42527910Y-10573441D01*
X42740110Y-10718431D01*
X42992000Y-10769440D01*
X44192000Y-10769440D01*
X44427317Y-10725162D01*
X44643441Y-10586090D01*
X44788431Y-10373890D01*
X44839440Y-10122000D01*
X44839440Y-8922000D01*
X44795162Y-8686683D01*
X44656090Y-8470559D01*
X44640827Y-8460130D01*
X44864652Y-8504652D01*
X46360814Y-8504652D01*
X46257907Y-9022000D01*
X46370946Y-9590285D01*
X46692853Y-10072054D01*
X47022026Y-10292000D01*
X46692853Y-10511946D01*
X46370946Y-10993715D01*
X46257907Y-11562000D01*
X46370946Y-12130285D01*
X46692853Y-12612054D01*
X47022026Y-12832000D01*
X46692853Y-13051946D01*
X46370946Y-13533715D01*
X46257907Y-14102000D01*
X46370946Y-14670285D01*
X46692853Y-15152054D01*
X47022026Y-15372000D01*
X46692853Y-15591946D01*
X46370946Y-16073715D01*
X46257907Y-16642000D01*
X46370946Y-17210285D01*
X46692853Y-17692054D01*
X46952793Y-17865740D01*
X46845076Y-17910355D01*
X46416817Y-18300642D01*
X46349702Y-18443553D01*
X46122054Y-18102853D01*
X45640285Y-17780946D01*
X45072000Y-17667907D01*
X44503715Y-17780946D01*
X44021946Y-18102853D01*
X43802000Y-18432026D01*
X43582054Y-18102853D01*
X43100285Y-17780946D01*
X42532000Y-17667907D01*
X42165592Y-17740790D01*
X40514242Y-16089440D01*
X40972000Y-16089440D01*
X41207317Y-16045162D01*
X41423441Y-15906090D01*
X41568431Y-15693890D01*
X41619440Y-15442000D01*
X41619440Y-14554242D01*
X42344560Y-15279362D01*
X42344560Y-15962000D01*
X42388838Y-16197317D01*
X42527910Y-16413441D01*
X42740110Y-16558431D01*
X42992000Y-16609440D01*
X44192000Y-16609440D01*
X44427317Y-16565162D01*
X44643441Y-16426090D01*
X44788431Y-16213890D01*
X44839440Y-15962000D01*
X44839440Y-14762000D01*
X44826566Y-14693583D01*
X44902611Y-14693649D01*
X45219363Y-14562770D01*
X45461918Y-14320638D01*
X45593350Y-14004115D01*
X45593649Y-13661389D01*
X45462770Y-13344637D01*
X45220638Y-13102082D01*
X44974805Y-13000003D01*
X44839440Y-12864638D01*
X44839440Y-12562000D01*
X44795162Y-12326683D01*
X44656090Y-12110559D01*
X44443890Y-11965569D01*
X44192000Y-11914560D01*
X42992000Y-11914560D01*
X42756683Y-11958838D01*
X42540559Y-12097910D01*
X42395569Y-12310110D01*
X42344560Y-12562000D01*
X42344560Y-13129758D01*
X42174653Y-12959851D01*
X42080770Y-12732637D01*
X41838638Y-12490082D01*
X41522115Y-12358650D01*
X41179389Y-12358351D01*
X40862637Y-12489230D01*
X40620082Y-12731362D01*
X40488650Y-13047885D01*
X40488351Y-13390611D01*
X40531302Y-13494560D01*
X39072000Y-13494560D01*
X38836683Y-13538838D01*
X38620559Y-13677910D01*
X38475569Y-13890110D01*
X38424560Y-14142000D01*
X38424560Y-15122000D01*
X38419440Y-15122000D01*
X38419440Y-14142000D01*
X38375162Y-13906683D01*
X38236090Y-13690559D01*
X38023890Y-13545569D01*
X37772000Y-13494560D01*
X35872000Y-13494560D01*
X35636683Y-13538838D01*
X35420559Y-13677910D01*
X35275569Y-13890110D01*
X35224560Y-14142000D01*
X35224560Y-15122000D01*
X33200825Y-15122000D01*
X33315461Y-15007564D01*
X33526759Y-14498702D01*
X33527240Y-13947715D01*
X33316831Y-13438485D01*
X32927564Y-13048539D01*
X32418702Y-12837241D01*
X31867715Y-12836760D01*
X31358485Y-13047169D01*
X31033499Y-13371589D01*
X31033499Y-11990367D01*
X31033500Y-11990362D01*
X30966132Y-11651687D01*
X30956910Y-11637885D01*
X30774289Y-11364572D01*
X30774286Y-11364570D01*
X30365927Y-10956210D01*
X30365074Y-10955640D01*
X30078812Y-10764367D01*
X30008621Y-10750405D01*
X29740137Y-10696999D01*
X29740132Y-10697000D01*
X29393213Y-10697000D01*
X29457824Y-10684148D01*
X29704386Y-10519401D01*
X30756890Y-9466897D01*
X30756760Y-9616285D01*
X30967169Y-10125515D01*
X31356436Y-10515461D01*
X31865298Y-10726759D01*
X32416285Y-10727240D01*
X32925515Y-10516831D01*
X33315461Y-10127564D01*
X33526759Y-9618702D01*
X33527240Y-9067715D01*
X33316831Y-8558485D01*
X33089251Y-8330508D01*
X35316293Y-8330508D01*
X35275569Y-8390110D01*
G36*
X51290000Y-17760242D02*
X51253890Y-17735569D01*
X51002000Y-17684560D01*
X49302000Y-17684560D01*
X49066683Y-17728838D01*
X48850559Y-17867910D01*
X48705569Y-18080110D01*
X48683699Y-18188107D01*
X48440479Y-17966453D01*
X48851147Y-17692054D01*
X49173054Y-17210285D01*
X49286093Y-16642000D01*
X49213210Y-16275592D01*
X50447401Y-15041401D01*
X50612148Y-14794839D01*
X50670000Y-14504000D01*
X50670000Y-11792000D01*
X50630000Y-11590908D01*
X50630000Y-8126193D01*
X50731350Y-7882115D01*
X50731649Y-7539389D01*
X50600770Y-7222637D01*
X50358638Y-6980082D01*
X50042115Y-6848650D01*
X49699389Y-6848351D01*
X49495111Y-6932757D01*
X49376010Y-6883302D01*
X49257000Y-6883198D01*
X49257000Y-6767750D01*
X49098252Y-6609002D01*
X49257000Y-6609002D01*
X49257000Y-6500337D01*
X49315595Y-6511992D01*
X50175997Y-6511992D01*
X50466836Y-6454140D01*
X50713398Y-6289393D01*
X51189401Y-5813390D01*
X51290000Y-5662833D01*
X51290000Y-17760242D01*
X51290000Y-17760242D01*
G37*
X51290000Y-17760242D02*
X51253890Y-17735569D01*
X51002000Y-17684560D01*
X49302000Y-17684560D01*
X49066683Y-17728838D01*
X48850559Y-17867910D01*
X48705569Y-18080110D01*
X48683699Y-18188107D01*
X48440479Y-17966453D01*
X48851147Y-17692054D01*
X49173054Y-17210285D01*
X49286093Y-16642000D01*
X49213210Y-16275592D01*
X50447401Y-15041401D01*
X50612148Y-14794839D01*
X50670000Y-14504000D01*
X50670000Y-11792000D01*
X50630000Y-11590908D01*
X50630000Y-8126193D01*
X50731350Y-7882115D01*
X50731649Y-7539389D01*
X50600770Y-7222637D01*
X50358638Y-6980082D01*
X50042115Y-6848650D01*
X49699389Y-6848351D01*
X49495111Y-6932757D01*
X49376010Y-6883302D01*
X49257000Y-6883198D01*
X49257000Y-6767750D01*
X49098252Y-6609002D01*
X49257000Y-6609002D01*
X49257000Y-6500337D01*
X49315595Y-6511992D01*
X50175997Y-6511992D01*
X50466836Y-6454140D01*
X50713398Y-6289393D01*
X51189401Y-5813390D01*
X51290000Y-5662833D01*
X51290000Y-17760242D01*
G36*
X51290000Y-2260242D02*
X51253890Y-2235569D01*
X51002000Y-2184560D01*
X49302000Y-2184560D01*
X49066683Y-2228838D01*
X49009454Y-2265664D01*
X48648389Y-1904599D01*
X48401827Y-1739852D01*
X48110988Y-1682000D01*
X10752000Y-1682000D01*
X10461161Y-1739852D01*
X10214599Y-1904599D01*
X9878408Y-2240790D01*
X9512000Y-2167907D01*
X8943715Y-2280946D01*
X8461946Y-2602853D01*
X8242000Y-2932026D01*
X8022054Y-2602853D01*
X7540285Y-2280946D01*
X6972000Y-2167907D01*
X6403715Y-2280946D01*
X5921946Y-2602853D01*
X5694298Y-2943553D01*
X5627183Y-2800642D01*
X5198924Y-2410355D01*
X4788890Y-2240524D01*
X4559000Y-2361845D01*
X4559000Y-3555000D01*
X4579000Y-3555000D01*
X4579000Y-3809000D01*
X4559000Y-3809000D01*
X4559000Y-5002155D01*
X4788890Y-5123476D01*
X5198924Y-4953645D01*
X5627183Y-4563358D01*
X5694298Y-4420447D01*
X5921946Y-4761147D01*
X6403715Y-5083054D01*
X6972000Y-5196093D01*
X7540285Y-5083054D01*
X8022054Y-4761147D01*
X8242000Y-4431974D01*
X8461946Y-4761147D01*
X8768259Y-4965818D01*
X8809852Y-5174920D01*
X8824605Y-5197000D01*
X8757750Y-5197000D01*
X8599000Y-5355750D01*
X8599000Y-6205000D01*
X8619000Y-6205000D01*
X8619000Y-6459000D01*
X8599000Y-6459000D01*
X8599000Y-7308250D01*
X8757750Y-7467000D01*
X9448309Y-7467000D01*
X9508508Y-7442065D01*
X9508508Y-9022329D01*
X9322000Y-8984560D01*
X7622000Y-8984560D01*
X7386683Y-9028838D01*
X7170559Y-9167910D01*
X7025569Y-9380110D01*
X6974560Y-9632000D01*
X6974560Y-9836259D01*
X6828638Y-9690082D01*
X6512115Y-9558650D01*
X6169389Y-9558351D01*
X6148457Y-9567000D01*
X6097792Y-9567000D01*
X6174312Y-9350854D01*
X6145949Y-8810556D01*
X5993753Y-8443122D01*
X5755398Y-8378207D01*
X4981605Y-9152000D01*
X4995748Y-9166143D01*
X4816143Y-9345748D01*
X4802000Y-9331605D01*
X4787858Y-9345748D01*
X4608253Y-9166143D01*
X4622395Y-9152000D01*
X3848602Y-8378207D01*
X3687000Y-8422219D01*
X3687000Y-8198602D01*
X4028207Y-8198602D01*
X4802000Y-8972395D01*
X5575793Y-8198602D01*
X5510878Y-7960247D01*
X5000854Y-7779688D01*
X4460556Y-7808051D01*
X4093122Y-7960247D01*
X4028207Y-8198602D01*
X3687000Y-8198602D01*
X3687000Y-8025691D01*
X3622375Y-7869672D01*
X3645462Y-7834391D01*
X3641592Y-7796719D01*
X3415080Y-7368526D01*
X3041947Y-7059610D01*
X2579000Y-6917000D01*
X2229000Y-6917000D01*
X2229000Y-10525000D01*
X2249000Y-10525000D01*
X2249000Y-10779000D01*
X2229000Y-10779000D01*
X2229000Y-12525000D01*
X2249000Y-12525000D01*
X2249000Y-12779000D01*
X2229000Y-12779000D01*
X2229000Y-16387000D01*
X2579000Y-16387000D01*
X3041947Y-16244390D01*
X3415080Y-15935474D01*
X3641592Y-15507281D01*
X3645462Y-15469609D01*
X3622375Y-15434328D01*
X3687000Y-15278309D01*
X3687000Y-14881781D01*
X3848602Y-14925793D01*
X4622395Y-14152000D01*
X4608253Y-14137858D01*
X4787858Y-13958253D01*
X4802000Y-13972395D01*
X4816143Y-13958253D01*
X4995748Y-14137858D01*
X4981605Y-14152000D01*
X4995748Y-14166143D01*
X4816143Y-14345748D01*
X4802000Y-14331605D01*
X4028207Y-15105398D01*
X4093122Y-15343753D01*
X4478725Y-15480264D01*
X2224870Y-17734119D01*
X1892000Y-17667907D01*
X1844946Y-17677267D01*
X2041918Y-17480638D01*
X2173350Y-17164115D01*
X2173649Y-16821389D01*
X2042770Y-16504637D01*
X1925338Y-16387000D01*
X1975000Y-16387000D01*
X1975000Y-12779000D01*
X1955000Y-12779000D01*
X1955000Y-12525000D01*
X1975000Y-12525000D01*
X1975000Y-10779000D01*
X1955000Y-10779000D01*
X1955000Y-10525000D01*
X1975000Y-10525000D01*
X1975000Y-6917000D01*
X1625000Y-6917000D01*
X1392000Y-6988775D01*
X1392000Y-6617750D01*
X6987000Y-6617750D01*
X6987000Y-6958310D01*
X7083673Y-7191699D01*
X7262302Y-7370327D01*
X7495691Y-7467000D01*
X8186250Y-7467000D01*
X8345000Y-7308250D01*
X8345000Y-6459000D01*
X7145750Y-6459000D01*
X6987000Y-6617750D01*
X1392000Y-6617750D01*
X1392000Y-5705690D01*
X6987000Y-5705690D01*
X6987000Y-6046250D01*
X7145750Y-6205000D01*
X8345000Y-6205000D01*
X8345000Y-5355750D01*
X8186250Y-5197000D01*
X7495691Y-5197000D01*
X7262302Y-5293673D01*
X7083673Y-5472301D01*
X6987000Y-5705690D01*
X1392000Y-5705690D01*
X1392000Y-5256802D01*
X1525592Y-5123210D01*
X1892000Y-5196093D01*
X2460285Y-5083054D01*
X2942054Y-4761147D01*
X3169702Y-4420447D01*
X3236817Y-4563358D01*
X3665076Y-4953645D01*
X4075110Y-5123476D01*
X4305000Y-5002155D01*
X4305000Y-3809000D01*
X4285000Y-3809000D01*
X4285000Y-3555000D01*
X4305000Y-3555000D01*
X4305000Y-2361845D01*
X4075110Y-2240524D01*
X3665076Y-2410355D01*
X3236817Y-2800642D01*
X3169702Y-2943553D01*
X2942054Y-2602853D01*
X2460285Y-2280946D01*
X1892000Y-2167907D01*
X1323715Y-2280946D01*
X841946Y-2602853D01*
X710000Y-2800325D01*
X710000Y-710000D01*
X51290000Y-710000D01*
X51290000Y-2260242D01*
X51290000Y-2260242D01*
G37*
X51290000Y-2260242D02*
X51253890Y-2235569D01*
X51002000Y-2184560D01*
X49302000Y-2184560D01*
X49066683Y-2228838D01*
X49009454Y-2265664D01*
X48648389Y-1904599D01*
X48401827Y-1739852D01*
X48110988Y-1682000D01*
X10752000Y-1682000D01*
X10461161Y-1739852D01*
X10214599Y-1904599D01*
X9878408Y-2240790D01*
X9512000Y-2167907D01*
X8943715Y-2280946D01*
X8461946Y-2602853D01*
X8242000Y-2932026D01*
X8022054Y-2602853D01*
X7540285Y-2280946D01*
X6972000Y-2167907D01*
X6403715Y-2280946D01*
X5921946Y-2602853D01*
X5694298Y-2943553D01*
X5627183Y-2800642D01*
X5198924Y-2410355D01*
X4788890Y-2240524D01*
X4559000Y-2361845D01*
X4559000Y-3555000D01*
X4579000Y-3555000D01*
X4579000Y-3809000D01*
X4559000Y-3809000D01*
X4559000Y-5002155D01*
X4788890Y-5123476D01*
X5198924Y-4953645D01*
X5627183Y-4563358D01*
X5694298Y-4420447D01*
X5921946Y-4761147D01*
X6403715Y-5083054D01*
X6972000Y-5196093D01*
X7540285Y-5083054D01*
X8022054Y-4761147D01*
X8242000Y-4431974D01*
X8461946Y-4761147D01*
X8768259Y-4965818D01*
X8809852Y-5174920D01*
X8824605Y-5197000D01*
X8757750Y-5197000D01*
X8599000Y-5355750D01*
X8599000Y-6205000D01*
X8619000Y-6205000D01*
X8619000Y-6459000D01*
X8599000Y-6459000D01*
X8599000Y-7308250D01*
X8757750Y-7467000D01*
X9448309Y-7467000D01*
X9508508Y-7442065D01*
X9508508Y-9022329D01*
X9322000Y-8984560D01*
X7622000Y-8984560D01*
X7386683Y-9028838D01*
X7170559Y-9167910D01*
X7025569Y-9380110D01*
X6974560Y-9632000D01*
X6974560Y-9836259D01*
X6828638Y-9690082D01*
X6512115Y-9558650D01*
X6169389Y-9558351D01*
X6148457Y-9567000D01*
X6097792Y-9567000D01*
X6174312Y-9350854D01*
X6145949Y-8810556D01*
X5993753Y-8443122D01*
X5755398Y-8378207D01*
X4981605Y-9152000D01*
X4995748Y-9166143D01*
X4816143Y-9345748D01*
X4802000Y-9331605D01*
X4787858Y-9345748D01*
X4608253Y-9166143D01*
X4622395Y-9152000D01*
X3848602Y-8378207D01*
X3687000Y-8422219D01*
X3687000Y-8198602D01*
X4028207Y-8198602D01*
X4802000Y-8972395D01*
X5575793Y-8198602D01*
X5510878Y-7960247D01*
X5000854Y-7779688D01*
X4460556Y-7808051D01*
X4093122Y-7960247D01*
X4028207Y-8198602D01*
X3687000Y-8198602D01*
X3687000Y-8025691D01*
X3622375Y-7869672D01*
X3645462Y-7834391D01*
X3641592Y-7796719D01*
X3415080Y-7368526D01*
X3041947Y-7059610D01*
X2579000Y-6917000D01*
X2229000Y-6917000D01*
X2229000Y-10525000D01*
X2249000Y-10525000D01*
X2249000Y-10779000D01*
X2229000Y-10779000D01*
X2229000Y-12525000D01*
X2249000Y-12525000D01*
X2249000Y-12779000D01*
X2229000Y-12779000D01*
X2229000Y-16387000D01*
X2579000Y-16387000D01*
X3041947Y-16244390D01*
X3415080Y-15935474D01*
X3641592Y-15507281D01*
X3645462Y-15469609D01*
X3622375Y-15434328D01*
X3687000Y-15278309D01*
X3687000Y-14881781D01*
X3848602Y-14925793D01*
X4622395Y-14152000D01*
X4608253Y-14137858D01*
X4787858Y-13958253D01*
X4802000Y-13972395D01*
X4816143Y-13958253D01*
X4995748Y-14137858D01*
X4981605Y-14152000D01*
X4995748Y-14166143D01*
X4816143Y-14345748D01*
X4802000Y-14331605D01*
X4028207Y-15105398D01*
X4093122Y-15343753D01*
X4478725Y-15480264D01*
X2224870Y-17734119D01*
X1892000Y-17667907D01*
X1844946Y-17677267D01*
X2041918Y-17480638D01*
X2173350Y-17164115D01*
X2173649Y-16821389D01*
X2042770Y-16504637D01*
X1925338Y-16387000D01*
X1975000Y-16387000D01*
X1975000Y-12779000D01*
X1955000Y-12779000D01*
X1955000Y-12525000D01*
X1975000Y-12525000D01*
X1975000Y-10779000D01*
X1955000Y-10779000D01*
X1955000Y-10525000D01*
X1975000Y-10525000D01*
X1975000Y-6917000D01*
X1625000Y-6917000D01*
X1392000Y-6988775D01*
X1392000Y-6617750D01*
X6987000Y-6617750D01*
X6987000Y-6958310D01*
X7083673Y-7191699D01*
X7262302Y-7370327D01*
X7495691Y-7467000D01*
X8186250Y-7467000D01*
X8345000Y-7308250D01*
X8345000Y-6459000D01*
X7145750Y-6459000D01*
X6987000Y-6617750D01*
X1392000Y-6617750D01*
X1392000Y-5705690D01*
X6987000Y-5705690D01*
X6987000Y-6046250D01*
X7145750Y-6205000D01*
X8345000Y-6205000D01*
X8345000Y-5355750D01*
X8186250Y-5197000D01*
X7495691Y-5197000D01*
X7262302Y-5293673D01*
X7083673Y-5472301D01*
X6987000Y-5705690D01*
X1392000Y-5705690D01*
X1392000Y-5256802D01*
X1525592Y-5123210D01*
X1892000Y-5196093D01*
X2460285Y-5083054D01*
X2942054Y-4761147D01*
X3169702Y-4420447D01*
X3236817Y-4563358D01*
X3665076Y-4953645D01*
X4075110Y-5123476D01*
X4305000Y-5002155D01*
X4305000Y-3809000D01*
X4285000Y-3809000D01*
X4285000Y-3555000D01*
X4305000Y-3555000D01*
X4305000Y-2361845D01*
X4075110Y-2240524D01*
X3665076Y-2410355D01*
X3236817Y-2800642D01*
X3169702Y-2943553D01*
X2942054Y-2602853D01*
X2460285Y-2280946D01*
X1892000Y-2167907D01*
X1323715Y-2280946D01*
X841946Y-2602853D01*
X710000Y-2800325D01*
X710000Y-710000D01*
X51290000Y-710000D01*
X51290000Y-2260242D01*
G36*
X9157000Y-12953000D02*
X9177000Y-12953000D01*
X9177000Y-13207000D01*
X9157000Y-13207000D01*
X9157000Y-15493000D01*
X9177000Y-15493000D01*
X9177000Y-15747000D01*
X9157000Y-15747000D01*
X9157000Y-15767000D01*
X8903000Y-15767000D01*
X8903000Y-15747000D01*
X8883000Y-15747000D01*
X8883000Y-15493000D01*
X8903000Y-15493000D01*
X8903000Y-13207000D01*
X8883000Y-13207000D01*
X8883000Y-12953000D01*
X8903000Y-12953000D01*
X8903000Y-12933000D01*
X9157000Y-12933000D01*
X9157000Y-12953000D01*
X9157000Y-12953000D01*
G37*
X9157000Y-12953000D02*
X9177000Y-12953000D01*
X9177000Y-13207000D01*
X9157000Y-13207000D01*
X9157000Y-15493000D01*
X9177000Y-15493000D01*
X9177000Y-15747000D01*
X9157000Y-15747000D01*
X9157000Y-15767000D01*
X8903000Y-15767000D01*
X8903000Y-15747000D01*
X8883000Y-15747000D01*
X8883000Y-15493000D01*
X8903000Y-15493000D01*
X8903000Y-13207000D01*
X8883000Y-13207000D01*
X8883000Y-12953000D01*
X8903000Y-12953000D01*
X8903000Y-12933000D01*
X9157000Y-12933000D01*
X9157000Y-12953000D01*
G36*
X29263499Y-13915166D02*
X29229581Y-13965929D01*
X29192082Y-14003362D01*
X29190895Y-14006220D01*
X28752916Y-13568241D01*
X28831548Y-13516092D01*
X29043680Y-13303960D01*
X29178765Y-13106257D01*
X29233249Y-12855095D01*
X29185725Y-12602524D01*
X29095846Y-12467000D01*
X29263499Y-12467000D01*
X29263499Y-13915166D01*
X29263499Y-13915166D01*
G37*
X29263499Y-13915166D02*
X29229581Y-13965929D01*
X29192082Y-14003362D01*
X29190895Y-14006220D01*
X28752916Y-13568241D01*
X28831548Y-13516092D01*
X29043680Y-13303960D01*
X29178765Y-13106257D01*
X29233249Y-12855095D01*
X29185725Y-12602524D01*
X29095846Y-12467000D01*
X29263499Y-12467000D01*
X29263499Y-13915166D01*
G36*
X23299542Y-9261120D02*
X23285399Y-9275262D01*
X25297825Y-11287688D01*
X25311968Y-11273546D01*
X25491573Y-11453151D01*
X25477430Y-11467293D01*
X25491573Y-11481436D01*
X25311968Y-11661041D01*
X25297825Y-11646898D01*
X23285399Y-13659324D01*
X23299542Y-13673467D01*
X23119937Y-13853072D01*
X23105794Y-13838929D01*
X23091652Y-13853072D01*
X22912047Y-13673467D01*
X22926189Y-13659324D01*
X20913763Y-11646898D01*
X20899621Y-11661041D01*
X20720016Y-11481436D01*
X20734158Y-11467293D01*
X21093368Y-11467293D01*
X23105794Y-13479719D01*
X25118220Y-11467293D01*
X23105794Y-9454867D01*
X21093368Y-11467293D01*
X20734158Y-11467293D01*
X20720016Y-11453151D01*
X20899621Y-11273546D01*
X20913763Y-11287688D01*
X22926189Y-9275262D01*
X22912047Y-9261120D01*
X23091652Y-9081515D01*
X23105794Y-9095657D01*
X23119937Y-9081515D01*
X23299542Y-9261120D01*
X23299542Y-9261120D01*
G37*
X23299542Y-9261120D02*
X23285399Y-9275262D01*
X25297825Y-11287688D01*
X25311968Y-11273546D01*
X25491573Y-11453151D01*
X25477430Y-11467293D01*
X25491573Y-11481436D01*
X25311968Y-11661041D01*
X25297825Y-11646898D01*
X23285399Y-13659324D01*
X23299542Y-13673467D01*
X23119937Y-13853072D01*
X23105794Y-13838929D01*
X23091652Y-13853072D01*
X22912047Y-13673467D01*
X22926189Y-13659324D01*
X20913763Y-11646898D01*
X20899621Y-11661041D01*
X20720016Y-11481436D01*
X20734158Y-11467293D01*
X21093368Y-11467293D01*
X23105794Y-13479719D01*
X25118220Y-11467293D01*
X23105794Y-9454867D01*
X21093368Y-11467293D01*
X20734158Y-11467293D01*
X20720016Y-11453151D01*
X20899621Y-11273546D01*
X20913763Y-11287688D01*
X22926189Y-9275262D01*
X22912047Y-9261120D01*
X23091652Y-9081515D01*
X23105794Y-9095657D01*
X23119937Y-9081515D01*
X23299542Y-9261120D01*
G36*
X11001946Y-4761147D02*
X11483715Y-5083054D01*
X12052000Y-5196093D01*
X12418408Y-5123210D01*
X13062599Y-5767401D01*
X13287000Y-5917341D01*
X13287000Y-6046250D01*
X13445750Y-6205000D01*
X14645000Y-6205000D01*
X14645000Y-6185000D01*
X14899000Y-6185000D01*
X14899000Y-6205000D01*
X14919000Y-6205000D01*
X14919000Y-6459000D01*
X14899000Y-6459000D01*
X14899000Y-7308250D01*
X15057750Y-7467000D01*
X15450000Y-7467000D01*
X15450000Y-7617395D01*
X15507852Y-7908234D01*
X15672599Y-8154796D01*
X16655713Y-9137910D01*
X16902275Y-9302657D01*
X17193114Y-9360509D01*
X17449335Y-9360509D01*
X17456567Y-9367741D01*
X17380040Y-9418494D01*
X17167908Y-9630626D01*
X17058978Y-9790050D01*
X16916250Y-9849024D01*
X16870309Y-9894885D01*
X16700023Y-9724599D01*
X16453461Y-9559852D01*
X16248181Y-9519019D01*
X16225162Y-9396683D01*
X16086090Y-9180559D01*
X15873890Y-9035569D01*
X15622000Y-8984560D01*
X13922000Y-8984560D01*
X13686683Y-9028838D01*
X13470559Y-9167910D01*
X13325569Y-9380110D01*
X13300886Y-9502000D01*
X11028508Y-9502000D01*
X11028508Y-6617750D01*
X13287000Y-6617750D01*
X13287000Y-6958310D01*
X13383673Y-7191699D01*
X13562302Y-7370327D01*
X13795691Y-7467000D01*
X14486250Y-7467000D01*
X14645000Y-7308250D01*
X14645000Y-6459000D01*
X13445750Y-6459000D01*
X13287000Y-6617750D01*
X11028508Y-6617750D01*
X11028508Y-5640589D01*
X10970656Y-5349750D01*
X10805909Y-5103188D01*
X10503196Y-4800475D01*
X10562054Y-4761147D01*
X10782000Y-4431974D01*
X11001946Y-4761147D01*
X11001946Y-4761147D01*
G37*
X11001946Y-4761147D02*
X11483715Y-5083054D01*
X12052000Y-5196093D01*
X12418408Y-5123210D01*
X13062599Y-5767401D01*
X13287000Y-5917341D01*
X13287000Y-6046250D01*
X13445750Y-6205000D01*
X14645000Y-6205000D01*
X14645000Y-6185000D01*
X14899000Y-6185000D01*
X14899000Y-6205000D01*
X14919000Y-6205000D01*
X14919000Y-6459000D01*
X14899000Y-6459000D01*
X14899000Y-7308250D01*
X15057750Y-7467000D01*
X15450000Y-7467000D01*
X15450000Y-7617395D01*
X15507852Y-7908234D01*
X15672599Y-8154796D01*
X16655713Y-9137910D01*
X16902275Y-9302657D01*
X17193114Y-9360509D01*
X17449335Y-9360509D01*
X17456567Y-9367741D01*
X17380040Y-9418494D01*
X17167908Y-9630626D01*
X17058978Y-9790050D01*
X16916250Y-9849024D01*
X16870309Y-9894885D01*
X16700023Y-9724599D01*
X16453461Y-9559852D01*
X16248181Y-9519019D01*
X16225162Y-9396683D01*
X16086090Y-9180559D01*
X15873890Y-9035569D01*
X15622000Y-8984560D01*
X13922000Y-8984560D01*
X13686683Y-9028838D01*
X13470559Y-9167910D01*
X13325569Y-9380110D01*
X13300886Y-9502000D01*
X11028508Y-9502000D01*
X11028508Y-6617750D01*
X13287000Y-6617750D01*
X13287000Y-6958310D01*
X13383673Y-7191699D01*
X13562302Y-7370327D01*
X13795691Y-7467000D01*
X14486250Y-7467000D01*
X14645000Y-7308250D01*
X14645000Y-6459000D01*
X13445750Y-6459000D01*
X13287000Y-6617750D01*
X11028508Y-6617750D01*
X11028508Y-5640589D01*
X10970656Y-5349750D01*
X10805909Y-5103188D01*
X10503196Y-4800475D01*
X10562054Y-4761147D01*
X10782000Y-4431974D01*
X11001946Y-4761147D01*
G36*
X47899000Y-6355000D02*
X47919000Y-6355000D01*
X47919000Y-6609000D01*
X47899000Y-6609000D01*
X47899000Y-6629000D01*
X47645000Y-6629000D01*
X47645000Y-6609000D01*
X47625000Y-6609000D01*
X47625000Y-6355000D01*
X47645000Y-6355000D01*
X47645000Y-6335000D01*
X47899000Y-6335000D01*
X47899000Y-6355000D01*
X47899000Y-6355000D01*
G37*
X47899000Y-6355000D02*
X47919000Y-6355000D01*
X47919000Y-6609000D01*
X47899000Y-6609000D01*
X47899000Y-6629000D01*
X47645000Y-6629000D01*
X47645000Y-6609000D01*
X47625000Y-6609000D01*
X47625000Y-6355000D01*
X47645000Y-6355000D01*
X47645000Y-6335000D01*
X47899000Y-6335000D01*
X47899000Y-6355000D01*
M02*
