M48
;DRILL file {KiCad 4.0.7} date 11/22/17 20:15:44
;FORMAT={-:-/ absolute / metric / decimal}
FMAT,2
METRIC,TZ
T1C0.300
T2C0.800
T3C1.000
T4C0.450
%
G90
G05
M71
T1
X1.372Y-16.812
X3.582Y-12.115
X4.979Y-16.975
X6.34Y-10.42
X6.502Y-5.382
X6.57Y-15.25
X6.67Y-12.213
X7.002Y-10.963
X7.079Y-11.674
X9.36Y-7.27
X10.302Y-10.82
X10.772Y-21.212
X10.792Y-19.789
X10.812Y-17.472
X11.492Y-7.402
X15.028Y-9.038
X15.36Y-5.23
X16.242Y-17.582
X16.954Y-11.053
X17.404Y-10.58
X17.452Y-9.202
X17.502Y-7.442
X17.51Y-11.81
X17.682Y-16.151
X18.976Y-16.716
X19.702Y-17.306
X20.572Y-6.132
X20.838Y-16.989
X20.872Y-19.857
X21.462Y-9.712
X22.27Y-5.78
X22.632Y-11.032
X22.83Y-20.483
X23.082Y-11.297
X23.32Y-5.87
X23.572Y-10.972
X24.039Y-17.269
X24.877Y-17.207
X25.252Y-17.832
X26.044Y-6.549
X26.589Y-6.909
X27.8Y-6.909
X28.671Y-7.096
X28.687Y-7.759
X29.016Y-13.418
X29.03Y-12.27
X29.202Y-6.642
X29.922Y-14.492
X29.932Y-16.132
X30.302Y-11.072
X32.242Y-8.122
X33.87Y-12.56
X38.412Y-8.562
X38.44Y-9.26
X39.416Y-5.942
X40.284Y-5.934
X41.27Y-13.2
X41.47Y-9.48
X42.062Y-5.672
X44.272Y-11.932
X49.204Y-7.745
X49.86Y-5.09
X49.87Y-7.71
T2
X32.142Y-9.342
X32.142Y-14.222
T3
X1.892Y-3.682
X1.892Y-19.182
X4.432Y-3.682
X4.432Y-19.182
X6.972Y-3.682
X6.972Y-19.182
X9.03Y-13.08
X9.03Y-15.62
X9.512Y-3.682
X9.512Y-19.182
X11.57Y-13.08
X11.57Y-15.62
X12.052Y-3.682
X12.052Y-19.182
X14.11Y-13.08
X14.11Y-15.62
X14.592Y-3.682
X14.592Y-19.182
X17.132Y-3.682
X17.132Y-19.182
X19.672Y-3.682
X19.672Y-19.182
X22.212Y-3.682
X22.212Y-19.182
X24.752Y-3.682
X24.752Y-19.182
X27.292Y-3.682
X27.292Y-19.182
X29.832Y-3.682
X29.832Y-19.182
X32.372Y-3.682
X32.372Y-19.182
X34.912Y-3.682
X34.912Y-19.182
X37.452Y-3.682
X37.452Y-19.182
X39.992Y-3.682
X39.992Y-19.182
X42.532Y-3.682
X42.532Y-19.182
X45.072Y-3.682
X45.072Y-19.182
X47.612Y-3.682
X47.612Y-19.182
X47.772Y-6.482
X47.772Y-9.022
X47.772Y-11.562
X47.772Y-14.102
X47.772Y-16.642
X50.152Y-3.682
X50.152Y-19.182
T4
X4.272Y-9.447
X4.272Y-13.447
T0
M30
