%TF.GenerationSoftware,KiCad,Pcbnew,4.0.7*%
%TF.CreationDate,2017-11-16T18:48:11+08:00*%
%TF.ProjectId,STM32F401CCT6,53544D333246343031434354362E6B69,rev?*%
%TF.FileFunction,Other,ECO1*%
%FSLAX46Y46*%
G04 Gerber Fmt 4.6, Leading zero omitted, Abs format (unit mm)*
G04 Created by KiCad (PCBNEW 4.0.7) date 11/16/17 18:48:11*
%MOMM*%
%LPD*%
G01*
G04 APERTURE LIST*
%ADD10C,0.100000*%
%ADD11C,0.300000*%
G04 APERTURE END LIST*
D10*
D11*
X-2471429Y-5280715D02*
X-2400000Y-5352144D01*
X-2328571Y-5495001D01*
X-2328571Y-5852144D01*
X-2400000Y-5995001D01*
X-2471429Y-6066430D01*
X-2614286Y-6137858D01*
X-2757143Y-6137858D01*
X-2971429Y-6066430D01*
X-3828571Y-5209287D01*
X-3828571Y-6137858D01*
X-2471429Y-6709286D02*
X-2400000Y-6780715D01*
X-2328571Y-6923572D01*
X-2328571Y-7280715D01*
X-2400000Y-7423572D01*
X-2471429Y-7495001D01*
X-2614286Y-7566429D01*
X-2757143Y-7566429D01*
X-2971429Y-7495001D01*
X-3828571Y-6637858D01*
X-3828571Y-7566429D01*
X-3685714Y-8209286D02*
X-3757143Y-8280714D01*
X-3828571Y-8209286D01*
X-3757143Y-8137857D01*
X-3685714Y-8209286D01*
X-3828571Y-8209286D01*
X-3828571Y-8995000D02*
X-3828571Y-9280715D01*
X-3757143Y-9423572D01*
X-3685714Y-9495000D01*
X-3471429Y-9637858D01*
X-3185714Y-9709286D01*
X-2614286Y-9709286D01*
X-2471429Y-9637858D01*
X-2400000Y-9566429D01*
X-2328571Y-9423572D01*
X-2328571Y-9137858D01*
X-2400000Y-8995000D01*
X-2471429Y-8923572D01*
X-2614286Y-8852143D01*
X-2971429Y-8852143D01*
X-3114286Y-8923572D01*
X-3185714Y-8995000D01*
X-3257143Y-9137858D01*
X-3257143Y-9423572D01*
X-3185714Y-9566429D01*
X-3114286Y-9637858D01*
X-2971429Y-9709286D01*
X-3828571Y-10423571D02*
X-3828571Y-10709286D01*
X-3757143Y-10852143D01*
X-3685714Y-10923571D01*
X-3471429Y-11066429D01*
X-3185714Y-11137857D01*
X-2614286Y-11137857D01*
X-2471429Y-11066429D01*
X-2400000Y-10995000D01*
X-2328571Y-10852143D01*
X-2328571Y-10566429D01*
X-2400000Y-10423571D01*
X-2471429Y-10352143D01*
X-2614286Y-10280714D01*
X-2971429Y-10280714D01*
X-3114286Y-10352143D01*
X-3185714Y-10423571D01*
X-3257143Y-10566429D01*
X-3257143Y-10852143D01*
X-3185714Y-10995000D01*
X-3114286Y-11066429D01*
X-2971429Y-11137857D01*
X-2328571Y-12066428D02*
X-2328571Y-12209285D01*
X-2400000Y-12352142D01*
X-2471429Y-12423571D01*
X-2614286Y-12495000D01*
X-2900000Y-12566428D01*
X-3257143Y-12566428D01*
X-3542857Y-12495000D01*
X-3685714Y-12423571D01*
X-3757143Y-12352142D01*
X-3828571Y-12209285D01*
X-3828571Y-12066428D01*
X-3757143Y-11923571D01*
X-3685714Y-11852142D01*
X-3542857Y-11780714D01*
X-3257143Y-11709285D01*
X-2900000Y-11709285D01*
X-2614286Y-11780714D01*
X-2471429Y-11852142D01*
X-2400000Y-11923571D01*
X-2328571Y-12066428D01*
X-3828571Y-14352142D02*
X-2828571Y-14352142D01*
X-2971429Y-14352142D02*
X-2900000Y-14423570D01*
X-2828571Y-14566428D01*
X-2828571Y-14780713D01*
X-2900000Y-14923570D01*
X-3042857Y-14994999D01*
X-3828571Y-14994999D01*
X-3042857Y-14994999D02*
X-2900000Y-15066428D01*
X-2828571Y-15209285D01*
X-2828571Y-15423570D01*
X-2900000Y-15566428D01*
X-3042857Y-15637856D01*
X-3828571Y-15637856D01*
X-3828571Y-16352142D02*
X-2828571Y-16352142D01*
X-2971429Y-16352142D02*
X-2900000Y-16423570D01*
X-2828571Y-16566428D01*
X-2828571Y-16780713D01*
X-2900000Y-16923570D01*
X-3042857Y-16994999D01*
X-3828571Y-16994999D01*
X-3042857Y-16994999D02*
X-2900000Y-17066428D01*
X-2828571Y-17209285D01*
X-2828571Y-17423570D01*
X-2900000Y-17566428D01*
X-3042857Y-17637856D01*
X-3828571Y-17637856D01*
X-1800000Y0D02*
X-1800000Y-22990000D01*
X10000Y0D02*
X-4500000Y0D01*
X10000Y-22990000D02*
X-4500000Y-22990000D01*
X-1800000Y-22990000D02*
X-2386421Y-21863496D01*
X-1800000Y-22990000D02*
X-1213579Y-21863496D01*
X-1800000Y0D02*
X-2386421Y-1126504D01*
X-1800000Y0D02*
X-1213579Y-1126504D01*
X20569187Y3875422D02*
X19854901Y3875560D01*
X19783335Y3161287D01*
X19854777Y3232702D01*
X19997648Y3304103D01*
X20354791Y3304034D01*
X20497634Y3232578D01*
X20569050Y3161136D01*
X20640450Y3018265D01*
X20640382Y2661122D01*
X20568926Y2518279D01*
X20497483Y2446864D01*
X20354613Y2375463D01*
X19997470Y2375532D01*
X19854626Y2446988D01*
X19783211Y2518430D01*
X22068898Y2375134D02*
X21211755Y2375299D01*
X21640327Y2375216D02*
X21640615Y3875216D01*
X21497717Y3660958D01*
X21354831Y3518128D01*
X21211961Y3446726D01*
X22711782Y2517867D02*
X22783196Y2446424D01*
X22711755Y2375010D01*
X22640339Y2446452D01*
X22711782Y2517867D01*
X22711755Y2375010D01*
X23497469Y2374859D02*
X23783184Y2374804D01*
X23926054Y2446204D01*
X23997496Y2517620D01*
X24140395Y2731877D01*
X24211878Y3017578D01*
X24211988Y3589006D01*
X24140588Y3731877D01*
X24069172Y3803320D01*
X23926329Y3874776D01*
X23640615Y3874831D01*
X23497743Y3803430D01*
X23426302Y3732015D01*
X23354845Y3589171D01*
X23354776Y3232028D01*
X23426178Y3089158D01*
X23497592Y3017716D01*
X23640436Y2946259D01*
X23926150Y2946204D01*
X24069021Y3017606D01*
X24140464Y3089020D01*
X24211919Y3231863D01*
X24926040Y2374584D02*
X25211754Y2374529D01*
X25354625Y2445930D01*
X25426067Y2517345D01*
X25568966Y2731602D01*
X25640449Y3017304D01*
X25640559Y3588732D01*
X25569159Y3731602D01*
X25497743Y3803045D01*
X25354900Y3874502D01*
X25069186Y3874557D01*
X24926314Y3803155D01*
X24854873Y3731740D01*
X24783416Y3588897D01*
X24783347Y3231754D01*
X24854749Y3088883D01*
X24926163Y3017441D01*
X25069007Y2945985D01*
X25354721Y2945930D01*
X25497592Y3017331D01*
X25569035Y3088745D01*
X25640490Y3231589D01*
X26569185Y3874268D02*
X26712042Y3874241D01*
X26854885Y3802784D01*
X26926301Y3731341D01*
X26997702Y3588471D01*
X27069075Y3302743D01*
X27069006Y2945600D01*
X26997523Y2659900D01*
X26926067Y2517056D01*
X26854624Y2445641D01*
X26711753Y2374241D01*
X26568896Y2374268D01*
X26426053Y2445724D01*
X26354638Y2517166D01*
X26283237Y2660037D01*
X26211863Y2945765D01*
X26211932Y3302908D01*
X26283416Y3588608D01*
X26354872Y3731451D01*
X26426314Y3802867D01*
X26569185Y3874268D01*
X28854610Y2373828D02*
X28854803Y3373828D01*
X28854775Y3230970D02*
X28926217Y3302386D01*
X29069089Y3373787D01*
X29283374Y3373746D01*
X29426217Y3302290D01*
X29497619Y3159419D01*
X29497467Y2373705D01*
X29497619Y3159419D02*
X29569075Y3302262D01*
X29711946Y3373664D01*
X29926231Y3373622D01*
X30069075Y3302166D01*
X30140476Y3159295D01*
X30140324Y2373581D01*
X30854610Y2373444D02*
X30854803Y3373444D01*
X30854775Y3230586D02*
X30926217Y3302001D01*
X31069089Y3373403D01*
X31283374Y3373361D01*
X31426217Y3301905D01*
X31497619Y3159034D01*
X31497467Y2373320D01*
X31497619Y3159034D02*
X31569075Y3301877D01*
X31711946Y3373279D01*
X31926231Y3373238D01*
X32069075Y3301781D01*
X32140475Y3158910D01*
X32140324Y2373196D01*
X2340Y1707949D02*
X51992340Y1697949D01*
X2000Y-62000D02*
X2859Y4407949D01*
X51992000Y-72000D02*
X51992859Y4397949D01*
X51992340Y1697949D02*
X50865723Y1111745D01*
X51992340Y1697949D02*
X50865949Y2284586D01*
X2340Y1707949D02*
X1128731Y1121312D01*
X2340Y1707949D02*
X1128957Y2294153D01*
M02*
