%TF.GenerationSoftware,KiCad,Pcbnew,4.0.7*%
%TF.CreationDate,2017-11-18T17:34:40+08:00*%
%TF.ProjectId,STM32F401CCT6,53544D333246343031434354362E6B69,rev?*%
%TF.FileFunction,Drawing*%
%FSLAX46Y46*%
G04 Gerber Fmt 4.6, Leading zero omitted, Abs format (unit mm)*
G04 Created by KiCad (PCBNEW 4.0.7) date 11/18/17 17:34:40*
%MOMM*%
%LPD*%
G01*
G04 APERTURE LIST*
%ADD10C,0.100000*%
%ADD11C,0.080000*%
G04 APERTURE END LIST*
D10*
D11*
X878190Y-13366285D02*
X378190Y-13366285D01*
X378190Y-13175809D01*
X402000Y-13128190D01*
X425810Y-13104381D01*
X473429Y-13080571D01*
X544857Y-13080571D01*
X592476Y-13104381D01*
X616286Y-13128190D01*
X640095Y-13175809D01*
X640095Y-13366285D01*
X830571Y-12580571D02*
X854381Y-12604381D01*
X878190Y-12675809D01*
X878190Y-12723428D01*
X854381Y-12794857D01*
X806762Y-12842476D01*
X759143Y-12866285D01*
X663905Y-12890095D01*
X592476Y-12890095D01*
X497238Y-12866285D01*
X449619Y-12842476D01*
X402000Y-12794857D01*
X378190Y-12723428D01*
X378190Y-12675809D01*
X402000Y-12604381D01*
X425810Y-12580571D01*
X616286Y-12199619D02*
X640095Y-12128190D01*
X663905Y-12104381D01*
X711524Y-12080571D01*
X782952Y-12080571D01*
X830571Y-12104381D01*
X854381Y-12128190D01*
X878190Y-12175809D01*
X878190Y-12366285D01*
X378190Y-12366285D01*
X378190Y-12199619D01*
X402000Y-12152000D01*
X425810Y-12128190D01*
X473429Y-12104381D01*
X521048Y-12104381D01*
X568667Y-12128190D01*
X592476Y-12152000D01*
X616286Y-12199619D01*
X616286Y-12366285D01*
X616286Y-11485333D02*
X616286Y-11318667D01*
X878190Y-11247238D02*
X878190Y-11485333D01*
X378190Y-11485333D01*
X378190Y-11247238D01*
X878190Y-10818667D02*
X378190Y-10818667D01*
X854381Y-10818667D02*
X878190Y-10866286D01*
X878190Y-10961524D01*
X854381Y-11009143D01*
X830571Y-11032952D01*
X782952Y-11056762D01*
X640095Y-11056762D01*
X592476Y-11032952D01*
X568667Y-11009143D01*
X544857Y-10961524D01*
X544857Y-10866286D01*
X568667Y-10818667D01*
X544857Y-10366286D02*
X949619Y-10366286D01*
X997238Y-10390095D01*
X1021048Y-10413905D01*
X1044857Y-10461524D01*
X1044857Y-10532952D01*
X1021048Y-10580571D01*
X854381Y-10366286D02*
X878190Y-10413905D01*
X878190Y-10509143D01*
X854381Y-10556762D01*
X830571Y-10580571D01*
X782952Y-10604381D01*
X640095Y-10604381D01*
X592476Y-10580571D01*
X568667Y-10556762D01*
X544857Y-10509143D01*
X544857Y-10413905D01*
X568667Y-10366286D01*
X854381Y-9937714D02*
X878190Y-9985333D01*
X878190Y-10080571D01*
X854381Y-10128190D01*
X806762Y-10152000D01*
X616286Y-10152000D01*
X568667Y-10128190D01*
X544857Y-10080571D01*
X544857Y-9985333D01*
X568667Y-9937714D01*
X616286Y-9913905D01*
X663905Y-9913905D01*
X711524Y-10152000D01*
M02*
