%TF.GenerationSoftware,KiCad,Pcbnew,4.0.7*%
%TF.CreationDate,2017-11-17T00:30:49+08:00*%
%TF.ProjectId,STM32F401CCT6,53544D333246343031434354362E6B69,rev?*%
%TF.FileFunction,Legend,Bot*%
%FSLAX46Y46*%
G04 Gerber Fmt 4.6, Leading zero omitted, Abs format (unit mm)*
G04 Created by KiCad (PCBNEW 4.0.7) date 11/17/17 00:30:49*
%MOMM*%
%LPD*%
G01*
G04 APERTURE LIST*
%ADD10C,0.100000*%
%ADD11C,0.200000*%
%ADD12C,0.120000*%
%ADD13C,0.150000*%
G04 APERTURE END LIST*
D10*
D11*
X37450000Y-14530000D02*
X37180000Y-15390000D01*
X50291082Y-15564430D02*
X51023773Y-16295370D01*
X50024415Y-16026311D01*
X50757107Y-16757250D02*
X49891082Y-16257250D01*
X49795844Y-16422207D01*
X49779940Y-16544991D01*
X49824323Y-16658594D01*
X49887754Y-16739204D01*
X50033663Y-16867433D01*
X50157382Y-16938862D01*
X50341387Y-17001109D01*
X50442913Y-17015737D01*
X50563487Y-16997372D01*
X50661869Y-16922207D01*
X50757107Y-16757250D01*
X50357107Y-17450070D02*
X49491082Y-16950070D01*
X49395844Y-17115027D01*
X49379940Y-17237812D01*
X49424323Y-17351414D01*
X49487754Y-17432024D01*
X49633663Y-17560253D01*
X49757382Y-17631682D01*
X49941387Y-17693929D01*
X50042913Y-17708557D01*
X50163487Y-17690193D01*
X50261869Y-17615027D01*
X50357107Y-17450070D01*
X50654994Y-12926139D02*
X51232345Y-13259473D01*
X50737473Y-12973758D02*
X50677186Y-12982940D01*
X50597851Y-13025114D01*
X50540708Y-13124088D01*
X50543853Y-13213880D01*
X50607284Y-13294491D01*
X51060916Y-13556396D01*
X50641868Y-14282208D02*
X50362808Y-13813172D01*
X50870440Y-13886311D02*
X50004415Y-13386311D01*
X49852034Y-13650242D01*
X49855177Y-13740035D01*
X49877369Y-13796836D01*
X49940800Y-13877446D01*
X50064518Y-13948875D01*
X50166044Y-13963502D01*
X50226331Y-13954321D01*
X50305665Y-13912147D01*
X50458046Y-13648215D01*
X50448248Y-14522330D02*
X50432344Y-14645114D01*
X50337106Y-14810071D01*
X50257772Y-14852244D01*
X50197485Y-14861427D01*
X50095959Y-14846799D01*
X50013480Y-14799180D01*
X49950049Y-14718570D01*
X49927858Y-14661768D01*
X49924713Y-14571976D01*
X49959664Y-14416200D01*
X49956520Y-14326408D01*
X49934329Y-14269607D01*
X49870898Y-14188997D01*
X49788419Y-14141378D01*
X49686893Y-14126750D01*
X49626606Y-14135932D01*
X49547272Y-14178105D01*
X49452034Y-14343063D01*
X49436130Y-14465847D01*
X49280605Y-14639985D02*
X49052034Y-15035883D01*
X50032344Y-15337935D02*
X49166319Y-14837935D01*
X51180153Y-10536262D02*
X51164249Y-10659046D01*
X51069011Y-10824003D01*
X50989677Y-10866176D01*
X50929390Y-10875359D01*
X50827864Y-10860731D01*
X50745385Y-10813112D01*
X50681954Y-10732502D01*
X50659763Y-10675700D01*
X50656618Y-10585907D01*
X50691569Y-10430132D01*
X50688425Y-10340339D01*
X50666234Y-10283539D01*
X50602803Y-10202928D01*
X50520324Y-10155309D01*
X50418798Y-10140682D01*
X50358511Y-10149863D01*
X50279177Y-10192037D01*
X50183939Y-10356994D01*
X50168035Y-10479778D01*
X49993462Y-10686909D02*
X50764249Y-11351866D01*
X50069469Y-11126689D01*
X50611868Y-11615798D01*
X49650605Y-11280755D01*
X50364249Y-12044687D02*
X49498224Y-11544687D01*
X49402986Y-11709644D01*
X49387082Y-11832428D01*
X49431465Y-11946030D01*
X49494896Y-12026640D01*
X49640806Y-12154870D01*
X49764525Y-12226299D01*
X49948529Y-12288545D01*
X50050055Y-12303173D01*
X50170629Y-12284809D01*
X50269011Y-12209644D01*
X50364249Y-12044687D01*
X49964249Y-12737507D02*
X49098224Y-12237507D01*
X48831558Y-12699387D02*
X48755367Y-12831353D01*
X48758511Y-12921145D01*
X48802894Y-13034747D01*
X48948804Y-13162976D01*
X49237480Y-13329643D01*
X49421484Y-13391890D01*
X49542058Y-13373526D01*
X49621392Y-13331353D01*
X49697583Y-13199387D01*
X49694439Y-13109595D01*
X49650056Y-12995992D01*
X49504146Y-12867763D01*
X49215470Y-12701096D01*
X49031466Y-12638849D01*
X48910892Y-12657214D01*
X48831558Y-12699387D01*
X51517296Y-7220877D02*
X51501392Y-7343661D01*
X51406154Y-7508618D01*
X51326820Y-7550791D01*
X51266533Y-7559974D01*
X51165007Y-7545346D01*
X51082528Y-7497727D01*
X51019097Y-7417117D01*
X50996906Y-7360315D01*
X50993761Y-7270523D01*
X51028712Y-7114747D01*
X51025568Y-7024955D01*
X51003377Y-6968154D01*
X50939946Y-6887544D01*
X50857467Y-6839925D01*
X50755941Y-6825297D01*
X50695654Y-6834479D01*
X50616320Y-6876652D01*
X50521082Y-7041609D01*
X50505178Y-7164394D01*
X50330605Y-7371524D02*
X51101392Y-8036481D01*
X50406612Y-7811304D01*
X50949011Y-8300413D01*
X49987748Y-7965370D01*
X50701392Y-8729302D02*
X49835367Y-8229302D01*
X49740129Y-8394259D01*
X49724225Y-8517043D01*
X49768608Y-8630645D01*
X49832039Y-8711256D01*
X49977949Y-8839485D01*
X50101668Y-8910914D01*
X50285672Y-8973161D01*
X50387198Y-8987788D01*
X50507772Y-8969424D01*
X50606154Y-8894259D01*
X50701392Y-8729302D01*
X49990342Y-9770401D02*
X50050629Y-9761219D01*
X50149011Y-9686054D01*
X50187106Y-9620071D01*
X50203010Y-9497287D01*
X50158627Y-9383685D01*
X50095196Y-9303075D01*
X49949287Y-9174845D01*
X49825568Y-9103416D01*
X49641563Y-9041170D01*
X49540037Y-9026542D01*
X49419463Y-9044906D01*
X49321081Y-9120071D01*
X49282986Y-9186054D01*
X49267082Y-9308838D01*
X49289274Y-9365639D01*
X49710916Y-10444857D02*
X49901392Y-10114942D01*
X49035367Y-9614942D01*
X49577583Y-10675797D02*
X48711558Y-10175797D01*
X49349011Y-11071694D02*
X49025568Y-10489057D01*
X48482986Y-10571694D02*
X49206430Y-10461511D01*
X49873749Y-5574138D02*
X49870605Y-5484345D01*
X49927748Y-5385371D01*
X50026130Y-5310206D01*
X50146704Y-5291842D01*
X50248230Y-5306469D01*
X50432234Y-5368716D01*
X50555953Y-5440145D01*
X50701863Y-5568374D01*
X50765294Y-5648985D01*
X50809677Y-5762587D01*
X50793773Y-5885371D01*
X50755678Y-5951354D01*
X50657296Y-6026519D01*
X50597009Y-6035700D01*
X50308334Y-5869034D01*
X50384525Y-5737068D01*
X50508059Y-6380242D02*
X49642034Y-5880242D01*
X50279487Y-6776140D01*
X49413462Y-6276140D01*
X50089011Y-7106054D02*
X49222986Y-6606054D01*
X49127748Y-6771011D01*
X49111844Y-6893795D01*
X49156227Y-7007397D01*
X49219658Y-7088007D01*
X49365568Y-7216237D01*
X49489287Y-7287666D01*
X49673291Y-7349912D01*
X49774817Y-7364540D01*
X49895391Y-7346176D01*
X49993773Y-7271011D01*
X50089011Y-7106054D01*
X38302000Y-12872000D02*
X38862000Y-12242000D01*
X37972000Y-12682000D02*
X38182000Y-11782000D01*
X37592000Y-12632000D02*
X37512000Y-11732000D01*
X38162000Y-14422000D02*
X38732000Y-15182000D01*
X37792000Y-14612000D02*
X37942000Y-15442000D01*
X37722000Y-13852000D02*
X38222000Y-13442000D01*
X37782000Y-13362000D02*
X38172000Y-13882000D01*
X36052000Y-14802000D02*
X36692000Y-14622000D01*
X36362000Y-14202000D02*
X36052000Y-14782000D01*
X37290167Y-13202000D02*
G75*
G03X37290167Y-13202000I-108167J0D01*
G01*
X37245137Y-13992000D02*
G75*
G03X37245137Y-13992000I-113137J0D01*
G01*
X36412000Y-12852000D02*
X36272000Y-12212000D01*
X36882000Y-12512000D02*
X36292000Y-12232000D01*
X38796706Y-13596706D02*
G75*
G03X38796706Y-13596706I-1234706J0D01*
G01*
D12*
X3452000Y-16292000D02*
X2452000Y-16292000D01*
X2452000Y-17652000D02*
X3452000Y-17652000D01*
X31802000Y-12862000D02*
X32502000Y-12862000D01*
X32502000Y-11662000D02*
X31802000Y-11662000D01*
X33942000Y-14192000D02*
X33942000Y-14892000D01*
X35142000Y-14892000D02*
X35142000Y-14192000D01*
X46272000Y-14962000D02*
X46272000Y-14262000D01*
X45072000Y-14262000D02*
X45072000Y-14962000D01*
X6082000Y-5872000D02*
X5382000Y-5872000D01*
X5382000Y-7072000D02*
X6082000Y-7072000D01*
X16362000Y-7132000D02*
X17062000Y-7132000D01*
X17062000Y-5932000D02*
X16362000Y-5932000D01*
X17592000Y-15002000D02*
X17592000Y-14002000D01*
X16232000Y-14002000D02*
X16232000Y-15002000D01*
X19192000Y-14842000D02*
X19192000Y-14142000D01*
X17992000Y-14142000D02*
X17992000Y-14842000D01*
X19632000Y-14152000D02*
X19632000Y-14852000D01*
X20832000Y-14852000D02*
X20832000Y-14152000D01*
X22202000Y-12822000D02*
X24002000Y-12822000D01*
X24002000Y-16042000D02*
X21552000Y-16042000D01*
X25682000Y-14122000D02*
X25682000Y-14822000D01*
X26882000Y-14822000D02*
X26882000Y-14122000D01*
X27422000Y-14132000D02*
X27422000Y-14832000D01*
X28622000Y-14832000D02*
X28622000Y-14132000D01*
X30692000Y-15002000D02*
X30692000Y-14002000D01*
X29332000Y-14002000D02*
X29332000Y-15002000D01*
X40872000Y-15062000D02*
X40872000Y-14062000D01*
X39512000Y-14062000D02*
X39512000Y-15062000D01*
X44172000Y-14932000D02*
X44172000Y-14232000D01*
X42972000Y-14232000D02*
X42972000Y-14932000D01*
X41922000Y-9852000D02*
X41922000Y-8852000D01*
X40562000Y-8852000D02*
X40562000Y-9852000D01*
X38102000Y-9672000D02*
X38102000Y-8972000D01*
X36902000Y-8972000D02*
X36902000Y-9672000D01*
X35002000Y-8952000D02*
X35002000Y-9652000D01*
X36202000Y-9652000D02*
X36202000Y-8952000D01*
X33272000Y-8952000D02*
X33272000Y-9652000D01*
X34472000Y-9652000D02*
X34472000Y-8952000D01*
X29402000Y-8842000D02*
X29402000Y-9842000D01*
X30762000Y-9842000D02*
X30762000Y-8842000D01*
X28372000Y-9652000D02*
X28372000Y-8952000D01*
X27172000Y-8952000D02*
X27172000Y-9652000D01*
X21192000Y-9642000D02*
X21192000Y-8942000D01*
X19992000Y-8942000D02*
X19992000Y-9642000D01*
X26492000Y-9642000D02*
X26492000Y-8942000D01*
X25292000Y-8942000D02*
X25292000Y-9642000D01*
X22922000Y-9662000D02*
X22922000Y-8962000D01*
X21722000Y-8962000D02*
X21722000Y-9662000D01*
X24802000Y-9632000D02*
X24802000Y-8932000D01*
X23602000Y-8932000D02*
X23602000Y-9632000D01*
X19452000Y-9772000D02*
X19452000Y-8772000D01*
X18092000Y-8772000D02*
X18092000Y-9772000D01*
X12162000Y-7192000D02*
X13162000Y-7192000D01*
X13162000Y-5832000D02*
X12162000Y-5832000D01*
X13682000Y-11022000D02*
X11882000Y-11022000D01*
X11882000Y-7802000D02*
X14332000Y-7802000D01*
X8202000Y-10832000D02*
X9202000Y-10832000D01*
X9202000Y-9472000D02*
X8202000Y-9472000D01*
X8202000Y-8922000D02*
X9202000Y-8922000D01*
X9202000Y-7562000D02*
X8202000Y-7562000D01*
X2852000Y-12092000D02*
X2852000Y-11092000D01*
X1492000Y-11092000D02*
X1492000Y-12092000D01*
X562000Y-20512000D02*
X562000Y-17852000D01*
X48882000Y-20512000D02*
X562000Y-20512000D01*
X48882000Y-17852000D02*
X562000Y-17852000D01*
X48882000Y-20512000D02*
X48882000Y-17852000D01*
X50152000Y-20512000D02*
X51482000Y-20512000D01*
X51482000Y-20512000D02*
X51482000Y-19182000D01*
X562000Y-5012000D02*
X562000Y-2352000D01*
X48882000Y-5012000D02*
X562000Y-5012000D01*
X48882000Y-2352000D02*
X562000Y-2352000D01*
X48882000Y-5012000D02*
X48882000Y-2352000D01*
X50152000Y-5012000D02*
X51482000Y-5012000D01*
X51482000Y-5012000D02*
X51482000Y-3682000D01*
X39962000Y-9672000D02*
X39962000Y-8972000D01*
X38762000Y-8972000D02*
X38762000Y-9672000D01*
D13*
X3594857Y-18874381D02*
X3928191Y-18398190D01*
X4166286Y-18874381D02*
X4166286Y-17874381D01*
X3785333Y-17874381D01*
X3690095Y-17922000D01*
X3642476Y-17969619D01*
X3594857Y-18064857D01*
X3594857Y-18207714D01*
X3642476Y-18302952D01*
X3690095Y-18350571D01*
X3785333Y-18398190D01*
X4166286Y-18398190D01*
X2642476Y-18874381D02*
X3213905Y-18874381D01*
X2928191Y-18874381D02*
X2928191Y-17874381D01*
X3023429Y-18017238D01*
X3118667Y-18112476D01*
X3213905Y-18160095D01*
X1690095Y-18874381D02*
X2261524Y-18874381D01*
X1975810Y-18874381D02*
X1975810Y-17874381D01*
X2071048Y-18017238D01*
X2166286Y-18112476D01*
X2261524Y-18160095D01*
X32794857Y-11119143D02*
X32842476Y-11166762D01*
X32985333Y-11214381D01*
X33080571Y-11214381D01*
X33223429Y-11166762D01*
X33318667Y-11071524D01*
X33366286Y-10976286D01*
X33413905Y-10785810D01*
X33413905Y-10642952D01*
X33366286Y-10452476D01*
X33318667Y-10357238D01*
X33223429Y-10262000D01*
X33080571Y-10214381D01*
X32985333Y-10214381D01*
X32842476Y-10262000D01*
X32794857Y-10309619D01*
X31842476Y-11214381D02*
X32413905Y-11214381D01*
X32128191Y-11214381D02*
X32128191Y-10214381D01*
X32223429Y-10357238D01*
X32318667Y-10452476D01*
X32413905Y-10500095D01*
X31366286Y-11214381D02*
X31175810Y-11214381D01*
X31080571Y-11166762D01*
X31032952Y-11119143D01*
X30937714Y-10976286D01*
X30890095Y-10785810D01*
X30890095Y-10404857D01*
X30937714Y-10309619D01*
X30985333Y-10262000D01*
X31080571Y-10214381D01*
X31271048Y-10214381D01*
X31366286Y-10262000D01*
X31413905Y-10309619D01*
X31461524Y-10404857D01*
X31461524Y-10642952D01*
X31413905Y-10738190D01*
X31366286Y-10785810D01*
X31271048Y-10833429D01*
X31080571Y-10833429D01*
X30985333Y-10785810D01*
X30937714Y-10738190D01*
X30890095Y-10642952D01*
X36399143Y-13899143D02*
X36446762Y-13851524D01*
X36494381Y-13708667D01*
X36494381Y-13613429D01*
X36446762Y-13470571D01*
X36351524Y-13375333D01*
X36256286Y-13327714D01*
X36065810Y-13280095D01*
X35922952Y-13280095D01*
X35732476Y-13327714D01*
X35637238Y-13375333D01*
X35542000Y-13470571D01*
X35494381Y-13613429D01*
X35494381Y-13708667D01*
X35542000Y-13851524D01*
X35589619Y-13899143D01*
X36494381Y-14851524D02*
X36494381Y-14280095D01*
X36494381Y-14565809D02*
X35494381Y-14565809D01*
X35637238Y-14470571D01*
X35732476Y-14375333D01*
X35780095Y-14280095D01*
X35922952Y-15422952D02*
X35875333Y-15327714D01*
X35827714Y-15280095D01*
X35732476Y-15232476D01*
X35684857Y-15232476D01*
X35589619Y-15280095D01*
X35542000Y-15327714D01*
X35494381Y-15422952D01*
X35494381Y-15613429D01*
X35542000Y-15708667D01*
X35589619Y-15756286D01*
X35684857Y-15803905D01*
X35732476Y-15803905D01*
X35827714Y-15756286D01*
X35875333Y-15708667D01*
X35922952Y-15613429D01*
X35922952Y-15422952D01*
X35970571Y-15327714D01*
X36018190Y-15280095D01*
X36113429Y-15232476D01*
X36303905Y-15232476D01*
X36399143Y-15280095D01*
X36446762Y-15327714D01*
X36494381Y-15422952D01*
X36494381Y-15613429D01*
X36446762Y-15708667D01*
X36399143Y-15756286D01*
X36303905Y-15803905D01*
X36113429Y-15803905D01*
X36018190Y-15756286D01*
X35970571Y-15708667D01*
X35922952Y-15613429D01*
X44529143Y-13969143D02*
X44576762Y-13921524D01*
X44624381Y-13778667D01*
X44624381Y-13683429D01*
X44576762Y-13540571D01*
X44481524Y-13445333D01*
X44386286Y-13397714D01*
X44195810Y-13350095D01*
X44052952Y-13350095D01*
X43862476Y-13397714D01*
X43767238Y-13445333D01*
X43672000Y-13540571D01*
X43624381Y-13683429D01*
X43624381Y-13778667D01*
X43672000Y-13921524D01*
X43719619Y-13969143D01*
X44624381Y-14921524D02*
X44624381Y-14350095D01*
X44624381Y-14635809D02*
X43624381Y-14635809D01*
X43767238Y-14540571D01*
X43862476Y-14445333D01*
X43910095Y-14350095D01*
X43624381Y-15254857D02*
X43624381Y-15921524D01*
X44624381Y-15492952D01*
X6374857Y-8329143D02*
X6422476Y-8376762D01*
X6565333Y-8424381D01*
X6660571Y-8424381D01*
X6803429Y-8376762D01*
X6898667Y-8281524D01*
X6946286Y-8186286D01*
X6993905Y-7995810D01*
X6993905Y-7852952D01*
X6946286Y-7662476D01*
X6898667Y-7567238D01*
X6803429Y-7472000D01*
X6660571Y-7424381D01*
X6565333Y-7424381D01*
X6422476Y-7472000D01*
X6374857Y-7519619D01*
X5422476Y-8424381D02*
X5993905Y-8424381D01*
X5708191Y-8424381D02*
X5708191Y-7424381D01*
X5803429Y-7567238D01*
X5898667Y-7662476D01*
X5993905Y-7710095D01*
X4565333Y-7424381D02*
X4755810Y-7424381D01*
X4851048Y-7472000D01*
X4898667Y-7519619D01*
X4993905Y-7662476D01*
X5041524Y-7852952D01*
X5041524Y-8233905D01*
X4993905Y-8329143D01*
X4946286Y-8376762D01*
X4851048Y-8424381D01*
X4660571Y-8424381D01*
X4565333Y-8376762D01*
X4517714Y-8329143D01*
X4470095Y-8233905D01*
X4470095Y-7995810D01*
X4517714Y-7900571D01*
X4565333Y-7852952D01*
X4660571Y-7805333D01*
X4851048Y-7805333D01*
X4946286Y-7852952D01*
X4993905Y-7900571D01*
X5041524Y-7995810D01*
X17354857Y-5389143D02*
X17402476Y-5436762D01*
X17545333Y-5484381D01*
X17640571Y-5484381D01*
X17783429Y-5436762D01*
X17878667Y-5341524D01*
X17926286Y-5246286D01*
X17973905Y-5055810D01*
X17973905Y-4912952D01*
X17926286Y-4722476D01*
X17878667Y-4627238D01*
X17783429Y-4532000D01*
X17640571Y-4484381D01*
X17545333Y-4484381D01*
X17402476Y-4532000D01*
X17354857Y-4579619D01*
X16402476Y-5484381D02*
X16973905Y-5484381D01*
X16688191Y-5484381D02*
X16688191Y-4484381D01*
X16783429Y-4627238D01*
X16878667Y-4722476D01*
X16973905Y-4770095D01*
X15497714Y-4484381D02*
X15973905Y-4484381D01*
X16021524Y-4960571D01*
X15973905Y-4912952D01*
X15878667Y-4865333D01*
X15640571Y-4865333D01*
X15545333Y-4912952D01*
X15497714Y-4960571D01*
X15450095Y-5055810D01*
X15450095Y-5293905D01*
X15497714Y-5389143D01*
X15545333Y-5436762D01*
X15640571Y-5484381D01*
X15878667Y-5484381D01*
X15973905Y-5436762D01*
X16021524Y-5389143D01*
X15914381Y-14335334D02*
X15438190Y-14002000D01*
X15914381Y-13763905D02*
X14914381Y-13763905D01*
X14914381Y-14144858D01*
X14962000Y-14240096D01*
X15009619Y-14287715D01*
X15104857Y-14335334D01*
X15247714Y-14335334D01*
X15342952Y-14287715D01*
X15390571Y-14240096D01*
X15438190Y-14144858D01*
X15438190Y-13763905D01*
X15342952Y-14906762D02*
X15295333Y-14811524D01*
X15247714Y-14763905D01*
X15152476Y-14716286D01*
X15104857Y-14716286D01*
X15009619Y-14763905D01*
X14962000Y-14811524D01*
X14914381Y-14906762D01*
X14914381Y-15097239D01*
X14962000Y-15192477D01*
X15009619Y-15240096D01*
X15104857Y-15287715D01*
X15152476Y-15287715D01*
X15247714Y-15240096D01*
X15295333Y-15192477D01*
X15342952Y-15097239D01*
X15342952Y-14906762D01*
X15390571Y-14811524D01*
X15438190Y-14763905D01*
X15533429Y-14716286D01*
X15723905Y-14716286D01*
X15819143Y-14763905D01*
X15866762Y-14811524D01*
X15914381Y-14906762D01*
X15914381Y-15097239D01*
X15866762Y-15192477D01*
X15819143Y-15240096D01*
X15723905Y-15287715D01*
X15533429Y-15287715D01*
X15438190Y-15240096D01*
X15390571Y-15192477D01*
X15342952Y-15097239D01*
X17449143Y-14325334D02*
X17496762Y-14277715D01*
X17544381Y-14134858D01*
X17544381Y-14039620D01*
X17496762Y-13896762D01*
X17401524Y-13801524D01*
X17306286Y-13753905D01*
X17115810Y-13706286D01*
X16972952Y-13706286D01*
X16782476Y-13753905D01*
X16687238Y-13801524D01*
X16592000Y-13896762D01*
X16544381Y-14039620D01*
X16544381Y-14134858D01*
X16592000Y-14277715D01*
X16639619Y-14325334D01*
X16639619Y-14706286D02*
X16592000Y-14753905D01*
X16544381Y-14849143D01*
X16544381Y-15087239D01*
X16592000Y-15182477D01*
X16639619Y-15230096D01*
X16734857Y-15277715D01*
X16830095Y-15277715D01*
X16972952Y-15230096D01*
X17544381Y-14658667D01*
X17544381Y-15277715D01*
X22089143Y-14335334D02*
X22136762Y-14287715D01*
X22184381Y-14144858D01*
X22184381Y-14049620D01*
X22136762Y-13906762D01*
X22041524Y-13811524D01*
X21946286Y-13763905D01*
X21755810Y-13716286D01*
X21612952Y-13716286D01*
X21422476Y-13763905D01*
X21327238Y-13811524D01*
X21232000Y-13906762D01*
X21184381Y-14049620D01*
X21184381Y-14144858D01*
X21232000Y-14287715D01*
X21279619Y-14335334D01*
X22184381Y-15287715D02*
X22184381Y-14716286D01*
X22184381Y-15002000D02*
X21184381Y-15002000D01*
X21327238Y-14906762D01*
X21422476Y-14811524D01*
X21470095Y-14716286D01*
X23863905Y-16784381D02*
X23863905Y-17593905D01*
X23816286Y-17689143D01*
X23768667Y-17736762D01*
X23673429Y-17784381D01*
X23482952Y-17784381D01*
X23387714Y-17736762D01*
X23340095Y-17689143D01*
X23292476Y-17593905D01*
X23292476Y-16784381D01*
X22292476Y-17784381D02*
X22863905Y-17784381D01*
X22578191Y-17784381D02*
X22578191Y-16784381D01*
X22673429Y-16927238D01*
X22768667Y-17022476D01*
X22863905Y-17070095D01*
X28139143Y-14305334D02*
X28186762Y-14257715D01*
X28234381Y-14114858D01*
X28234381Y-14019620D01*
X28186762Y-13876762D01*
X28091524Y-13781524D01*
X27996286Y-13733905D01*
X27805810Y-13686286D01*
X27662952Y-13686286D01*
X27472476Y-13733905D01*
X27377238Y-13781524D01*
X27282000Y-13876762D01*
X27234381Y-14019620D01*
X27234381Y-14114858D01*
X27282000Y-14257715D01*
X27329619Y-14305334D01*
X27234381Y-15210096D02*
X27234381Y-14733905D01*
X27710571Y-14686286D01*
X27662952Y-14733905D01*
X27615333Y-14829143D01*
X27615333Y-15067239D01*
X27662952Y-15162477D01*
X27710571Y-15210096D01*
X27805810Y-15257715D01*
X28043905Y-15257715D01*
X28139143Y-15210096D01*
X28186762Y-15162477D01*
X28234381Y-15067239D01*
X28234381Y-14829143D01*
X28186762Y-14733905D01*
X28139143Y-14686286D01*
X29879143Y-14315334D02*
X29926762Y-14267715D01*
X29974381Y-14124858D01*
X29974381Y-14029620D01*
X29926762Y-13886762D01*
X29831524Y-13791524D01*
X29736286Y-13743905D01*
X29545810Y-13696286D01*
X29402952Y-13696286D01*
X29212476Y-13743905D01*
X29117238Y-13791524D01*
X29022000Y-13886762D01*
X28974381Y-14029620D01*
X28974381Y-14124858D01*
X29022000Y-14267715D01*
X29069619Y-14315334D01*
X29307714Y-15172477D02*
X29974381Y-15172477D01*
X28926762Y-14934381D02*
X29641048Y-14696286D01*
X29641048Y-15315334D01*
X29014381Y-14335334D02*
X28538190Y-14002000D01*
X29014381Y-13763905D02*
X28014381Y-13763905D01*
X28014381Y-14144858D01*
X28062000Y-14240096D01*
X28109619Y-14287715D01*
X28204857Y-14335334D01*
X28347714Y-14335334D01*
X28442952Y-14287715D01*
X28490571Y-14240096D01*
X28538190Y-14144858D01*
X28538190Y-13763905D01*
X28014381Y-14668667D02*
X28014381Y-15335334D01*
X29014381Y-14906762D01*
X39194381Y-14395334D02*
X38718190Y-14062000D01*
X39194381Y-13823905D02*
X38194381Y-13823905D01*
X38194381Y-14204858D01*
X38242000Y-14300096D01*
X38289619Y-14347715D01*
X38384857Y-14395334D01*
X38527714Y-14395334D01*
X38622952Y-14347715D01*
X38670571Y-14300096D01*
X38718190Y-14204858D01*
X38718190Y-13823905D01*
X38194381Y-15252477D02*
X38194381Y-15062000D01*
X38242000Y-14966762D01*
X38289619Y-14919143D01*
X38432476Y-14823905D01*
X38622952Y-14776286D01*
X39003905Y-14776286D01*
X39099143Y-14823905D01*
X39146762Y-14871524D01*
X39194381Y-14966762D01*
X39194381Y-15157239D01*
X39146762Y-15252477D01*
X39099143Y-15300096D01*
X39003905Y-15347715D01*
X38765810Y-15347715D01*
X38670571Y-15300096D01*
X38622952Y-15252477D01*
X38575333Y-15157239D01*
X38575333Y-14966762D01*
X38622952Y-14871524D01*
X38670571Y-14823905D01*
X38765810Y-14776286D01*
X42429143Y-13939143D02*
X42476762Y-13891524D01*
X42524381Y-13748667D01*
X42524381Y-13653429D01*
X42476762Y-13510571D01*
X42381524Y-13415333D01*
X42286286Y-13367714D01*
X42095810Y-13320095D01*
X41952952Y-13320095D01*
X41762476Y-13367714D01*
X41667238Y-13415333D01*
X41572000Y-13510571D01*
X41524381Y-13653429D01*
X41524381Y-13748667D01*
X41572000Y-13891524D01*
X41619619Y-13939143D01*
X42524381Y-14891524D02*
X42524381Y-14320095D01*
X42524381Y-14605809D02*
X41524381Y-14605809D01*
X41667238Y-14510571D01*
X41762476Y-14415333D01*
X41810095Y-14320095D01*
X41857714Y-15748667D02*
X42524381Y-15748667D01*
X41476762Y-15510571D02*
X42191048Y-15272476D01*
X42191048Y-15891524D01*
X40244381Y-9185334D02*
X39768190Y-8852000D01*
X40244381Y-8613905D02*
X39244381Y-8613905D01*
X39244381Y-8994858D01*
X39292000Y-9090096D01*
X39339619Y-9137715D01*
X39434857Y-9185334D01*
X39577714Y-9185334D01*
X39672952Y-9137715D01*
X39720571Y-9090096D01*
X39768190Y-8994858D01*
X39768190Y-8613905D01*
X39244381Y-10090096D02*
X39244381Y-9613905D01*
X39720571Y-9566286D01*
X39672952Y-9613905D01*
X39625333Y-9709143D01*
X39625333Y-9947239D01*
X39672952Y-10042477D01*
X39720571Y-10090096D01*
X39815810Y-10137715D01*
X40053905Y-10137715D01*
X40149143Y-10090096D01*
X40196762Y-10042477D01*
X40244381Y-9947239D01*
X40244381Y-9709143D01*
X40196762Y-9613905D01*
X40149143Y-9566286D01*
X36359143Y-9155334D02*
X36406762Y-9107715D01*
X36454381Y-8964858D01*
X36454381Y-8869620D01*
X36406762Y-8726762D01*
X36311524Y-8631524D01*
X36216286Y-8583905D01*
X36025810Y-8536286D01*
X35882952Y-8536286D01*
X35692476Y-8583905D01*
X35597238Y-8631524D01*
X35502000Y-8726762D01*
X35454381Y-8869620D01*
X35454381Y-8964858D01*
X35502000Y-9107715D01*
X35549619Y-9155334D01*
X35454381Y-9488667D02*
X35454381Y-10155334D01*
X36454381Y-9726762D01*
X37459143Y-9135334D02*
X37506762Y-9087715D01*
X37554381Y-8944858D01*
X37554381Y-8849620D01*
X37506762Y-8706762D01*
X37411524Y-8611524D01*
X37316286Y-8563905D01*
X37125810Y-8516286D01*
X36982952Y-8516286D01*
X36792476Y-8563905D01*
X36697238Y-8611524D01*
X36602000Y-8706762D01*
X36554381Y-8849620D01*
X36554381Y-8944858D01*
X36602000Y-9087715D01*
X36649619Y-9135334D01*
X36982952Y-9706762D02*
X36935333Y-9611524D01*
X36887714Y-9563905D01*
X36792476Y-9516286D01*
X36744857Y-9516286D01*
X36649619Y-9563905D01*
X36602000Y-9611524D01*
X36554381Y-9706762D01*
X36554381Y-9897239D01*
X36602000Y-9992477D01*
X36649619Y-10040096D01*
X36744857Y-10087715D01*
X36792476Y-10087715D01*
X36887714Y-10040096D01*
X36935333Y-9992477D01*
X36982952Y-9897239D01*
X36982952Y-9706762D01*
X37030571Y-9611524D01*
X37078190Y-9563905D01*
X37173429Y-9516286D01*
X37363905Y-9516286D01*
X37459143Y-9563905D01*
X37506762Y-9611524D01*
X37554381Y-9706762D01*
X37554381Y-9897239D01*
X37506762Y-9992477D01*
X37459143Y-10040096D01*
X37363905Y-10087715D01*
X37173429Y-10087715D01*
X37078190Y-10040096D01*
X37030571Y-9992477D01*
X36982952Y-9897239D01*
X35729143Y-9135334D02*
X35776762Y-9087715D01*
X35824381Y-8944858D01*
X35824381Y-8849620D01*
X35776762Y-8706762D01*
X35681524Y-8611524D01*
X35586286Y-8563905D01*
X35395810Y-8516286D01*
X35252952Y-8516286D01*
X35062476Y-8563905D01*
X34967238Y-8611524D01*
X34872000Y-8706762D01*
X34824381Y-8849620D01*
X34824381Y-8944858D01*
X34872000Y-9087715D01*
X34919619Y-9135334D01*
X35824381Y-9611524D02*
X35824381Y-9802000D01*
X35776762Y-9897239D01*
X35729143Y-9944858D01*
X35586286Y-10040096D01*
X35395810Y-10087715D01*
X35014857Y-10087715D01*
X34919619Y-10040096D01*
X34872000Y-9992477D01*
X34824381Y-9897239D01*
X34824381Y-9706762D01*
X34872000Y-9611524D01*
X34919619Y-9563905D01*
X35014857Y-9516286D01*
X35252952Y-9516286D01*
X35348190Y-9563905D01*
X35395810Y-9611524D01*
X35443429Y-9706762D01*
X35443429Y-9897239D01*
X35395810Y-9992477D01*
X35348190Y-10040096D01*
X35252952Y-10087715D01*
X31984381Y-9175334D02*
X31508190Y-8842000D01*
X31984381Y-8603905D02*
X30984381Y-8603905D01*
X30984381Y-8984858D01*
X31032000Y-9080096D01*
X31079619Y-9127715D01*
X31174857Y-9175334D01*
X31317714Y-9175334D01*
X31412952Y-9127715D01*
X31460571Y-9080096D01*
X31508190Y-8984858D01*
X31508190Y-8603905D01*
X31079619Y-9556286D02*
X31032000Y-9603905D01*
X30984381Y-9699143D01*
X30984381Y-9937239D01*
X31032000Y-10032477D01*
X31079619Y-10080096D01*
X31174857Y-10127715D01*
X31270095Y-10127715D01*
X31412952Y-10080096D01*
X31984381Y-9508667D01*
X31984381Y-10127715D01*
X26629143Y-9135334D02*
X26676762Y-9087715D01*
X26724381Y-8944858D01*
X26724381Y-8849620D01*
X26676762Y-8706762D01*
X26581524Y-8611524D01*
X26486286Y-8563905D01*
X26295810Y-8516286D01*
X26152952Y-8516286D01*
X25962476Y-8563905D01*
X25867238Y-8611524D01*
X25772000Y-8706762D01*
X25724381Y-8849620D01*
X25724381Y-8944858D01*
X25772000Y-9087715D01*
X25819619Y-9135334D01*
X25724381Y-9468667D02*
X25724381Y-10087715D01*
X26105333Y-9754381D01*
X26105333Y-9897239D01*
X26152952Y-9992477D01*
X26200571Y-10040096D01*
X26295810Y-10087715D01*
X26533905Y-10087715D01*
X26629143Y-10040096D01*
X26676762Y-9992477D01*
X26724381Y-9897239D01*
X26724381Y-9611524D01*
X26676762Y-9516286D01*
X26629143Y-9468667D01*
X19449143Y-8649143D02*
X19496762Y-8601524D01*
X19544381Y-8458667D01*
X19544381Y-8363429D01*
X19496762Y-8220571D01*
X19401524Y-8125333D01*
X19306286Y-8077714D01*
X19115810Y-8030095D01*
X18972952Y-8030095D01*
X18782476Y-8077714D01*
X18687238Y-8125333D01*
X18592000Y-8220571D01*
X18544381Y-8363429D01*
X18544381Y-8458667D01*
X18592000Y-8601524D01*
X18639619Y-8649143D01*
X19544381Y-9601524D02*
X19544381Y-9030095D01*
X19544381Y-9315809D02*
X18544381Y-9315809D01*
X18687238Y-9220571D01*
X18782476Y-9125333D01*
X18830095Y-9030095D01*
X19544381Y-10553905D02*
X19544381Y-9982476D01*
X19544381Y-10268190D02*
X18544381Y-10268190D01*
X18687238Y-10172952D01*
X18782476Y-10077714D01*
X18830095Y-9982476D01*
X24749143Y-8649143D02*
X24796762Y-8601524D01*
X24844381Y-8458667D01*
X24844381Y-8363429D01*
X24796762Y-8220571D01*
X24701524Y-8125333D01*
X24606286Y-8077714D01*
X24415810Y-8030095D01*
X24272952Y-8030095D01*
X24082476Y-8077714D01*
X23987238Y-8125333D01*
X23892000Y-8220571D01*
X23844381Y-8363429D01*
X23844381Y-8458667D01*
X23892000Y-8601524D01*
X23939619Y-8649143D01*
X24844381Y-9601524D02*
X24844381Y-9030095D01*
X24844381Y-9315809D02*
X23844381Y-9315809D01*
X23987238Y-9220571D01*
X24082476Y-9125333D01*
X24130095Y-9030095D01*
X23844381Y-10220571D02*
X23844381Y-10315810D01*
X23892000Y-10411048D01*
X23939619Y-10458667D01*
X24034857Y-10506286D01*
X24225333Y-10553905D01*
X24463429Y-10553905D01*
X24653905Y-10506286D01*
X24749143Y-10458667D01*
X24796762Y-10411048D01*
X24844381Y-10315810D01*
X24844381Y-10220571D01*
X24796762Y-10125333D01*
X24749143Y-10077714D01*
X24653905Y-10030095D01*
X24463429Y-9982476D01*
X24225333Y-9982476D01*
X24034857Y-10030095D01*
X23939619Y-10077714D01*
X23892000Y-10125333D01*
X23844381Y-10220571D01*
X21179143Y-8669143D02*
X21226762Y-8621524D01*
X21274381Y-8478667D01*
X21274381Y-8383429D01*
X21226762Y-8240571D01*
X21131524Y-8145333D01*
X21036286Y-8097714D01*
X20845810Y-8050095D01*
X20702952Y-8050095D01*
X20512476Y-8097714D01*
X20417238Y-8145333D01*
X20322000Y-8240571D01*
X20274381Y-8383429D01*
X20274381Y-8478667D01*
X20322000Y-8621524D01*
X20369619Y-8669143D01*
X21274381Y-9621524D02*
X21274381Y-9050095D01*
X21274381Y-9335809D02*
X20274381Y-9335809D01*
X20417238Y-9240571D01*
X20512476Y-9145333D01*
X20560095Y-9050095D01*
X20274381Y-9954857D02*
X20274381Y-10573905D01*
X20655333Y-10240571D01*
X20655333Y-10383429D01*
X20702952Y-10478667D01*
X20750571Y-10526286D01*
X20845810Y-10573905D01*
X21083905Y-10573905D01*
X21179143Y-10526286D01*
X21226762Y-10478667D01*
X21274381Y-10383429D01*
X21274381Y-10097714D01*
X21226762Y-10002476D01*
X21179143Y-9954857D01*
X23059143Y-8639143D02*
X23106762Y-8591524D01*
X23154381Y-8448667D01*
X23154381Y-8353429D01*
X23106762Y-8210571D01*
X23011524Y-8115333D01*
X22916286Y-8067714D01*
X22725810Y-8020095D01*
X22582952Y-8020095D01*
X22392476Y-8067714D01*
X22297238Y-8115333D01*
X22202000Y-8210571D01*
X22154381Y-8353429D01*
X22154381Y-8448667D01*
X22202000Y-8591524D01*
X22249619Y-8639143D01*
X23154381Y-9591524D02*
X23154381Y-9020095D01*
X23154381Y-9305809D02*
X22154381Y-9305809D01*
X22297238Y-9210571D01*
X22392476Y-9115333D01*
X22440095Y-9020095D01*
X22249619Y-9972476D02*
X22202000Y-10020095D01*
X22154381Y-10115333D01*
X22154381Y-10353429D01*
X22202000Y-10448667D01*
X22249619Y-10496286D01*
X22344857Y-10543905D01*
X22440095Y-10543905D01*
X22582952Y-10496286D01*
X23154381Y-9924857D01*
X23154381Y-10543905D01*
X17774381Y-9105334D02*
X17298190Y-8772000D01*
X17774381Y-8533905D02*
X16774381Y-8533905D01*
X16774381Y-8914858D01*
X16822000Y-9010096D01*
X16869619Y-9057715D01*
X16964857Y-9105334D01*
X17107714Y-9105334D01*
X17202952Y-9057715D01*
X17250571Y-9010096D01*
X17298190Y-8914858D01*
X17298190Y-8533905D01*
X17774381Y-10057715D02*
X17774381Y-9486286D01*
X17774381Y-9772000D02*
X16774381Y-9772000D01*
X16917238Y-9676762D01*
X17012476Y-9581524D01*
X17060095Y-9486286D01*
X13304857Y-5514381D02*
X13638191Y-5038190D01*
X13876286Y-5514381D02*
X13876286Y-4514381D01*
X13495333Y-4514381D01*
X13400095Y-4562000D01*
X13352476Y-4609619D01*
X13304857Y-4704857D01*
X13304857Y-4847714D01*
X13352476Y-4942952D01*
X13400095Y-4990571D01*
X13495333Y-5038190D01*
X13876286Y-5038190D01*
X12352476Y-5514381D02*
X12923905Y-5514381D01*
X12638191Y-5514381D02*
X12638191Y-4514381D01*
X12733429Y-4657238D01*
X12828667Y-4752476D01*
X12923905Y-4800095D01*
X11733429Y-4514381D02*
X11638190Y-4514381D01*
X11542952Y-4562000D01*
X11495333Y-4609619D01*
X11447714Y-4704857D01*
X11400095Y-4895333D01*
X11400095Y-5133429D01*
X11447714Y-5323905D01*
X11495333Y-5419143D01*
X11542952Y-5466762D01*
X11638190Y-5514381D01*
X11733429Y-5514381D01*
X11828667Y-5466762D01*
X11876286Y-5419143D01*
X11923905Y-5323905D01*
X11971524Y-5133429D01*
X11971524Y-4895333D01*
X11923905Y-4704857D01*
X11876286Y-4609619D01*
X11828667Y-4562000D01*
X11733429Y-4514381D01*
X13543905Y-5964381D02*
X13543905Y-6773905D01*
X13496286Y-6869143D01*
X13448667Y-6916762D01*
X13353429Y-6964381D01*
X13162952Y-6964381D01*
X13067714Y-6916762D01*
X13020095Y-6869143D01*
X12972476Y-6773905D01*
X12972476Y-5964381D01*
X12591524Y-5964381D02*
X11972476Y-5964381D01*
X12305810Y-6345333D01*
X12162952Y-6345333D01*
X12067714Y-6392952D01*
X12020095Y-6440571D01*
X11972476Y-6535810D01*
X11972476Y-6773905D01*
X12020095Y-6869143D01*
X12067714Y-6916762D01*
X12162952Y-6964381D01*
X12448667Y-6964381D01*
X12543905Y-6916762D01*
X12591524Y-6869143D01*
X8868666Y-9154381D02*
X9202000Y-8678190D01*
X9440095Y-9154381D02*
X9440095Y-8154381D01*
X9059142Y-8154381D01*
X8963904Y-8202000D01*
X8916285Y-8249619D01*
X8868666Y-8344857D01*
X8868666Y-8487714D01*
X8916285Y-8582952D01*
X8963904Y-8630571D01*
X9059142Y-8678190D01*
X9440095Y-8678190D01*
X8011523Y-8487714D02*
X8011523Y-9154381D01*
X8249619Y-8106762D02*
X8487714Y-8821048D01*
X7868666Y-8821048D01*
X8868666Y-7244381D02*
X9202000Y-6768190D01*
X9440095Y-7244381D02*
X9440095Y-6244381D01*
X9059142Y-6244381D01*
X8963904Y-6292000D01*
X8916285Y-6339619D01*
X8868666Y-6434857D01*
X8868666Y-6577714D01*
X8916285Y-6672952D01*
X8963904Y-6720571D01*
X9059142Y-6768190D01*
X9440095Y-6768190D01*
X8535333Y-6244381D02*
X7916285Y-6244381D01*
X8249619Y-6625333D01*
X8106761Y-6625333D01*
X8011523Y-6672952D01*
X7963904Y-6720571D01*
X7916285Y-6815810D01*
X7916285Y-7053905D01*
X7963904Y-7149143D01*
X8011523Y-7196762D01*
X8106761Y-7244381D01*
X8392476Y-7244381D01*
X8487714Y-7196762D01*
X8535333Y-7149143D01*
X1174381Y-11425334D02*
X698190Y-11092000D01*
X1174381Y-10853905D02*
X174381Y-10853905D01*
X174381Y-11234858D01*
X222000Y-11330096D01*
X269619Y-11377715D01*
X364857Y-11425334D01*
X507714Y-11425334D01*
X602952Y-11377715D01*
X650571Y-11330096D01*
X698190Y-11234858D01*
X698190Y-10853905D01*
X1174381Y-11901524D02*
X1174381Y-12092000D01*
X1126762Y-12187239D01*
X1079143Y-12234858D01*
X936286Y-12330096D01*
X745810Y-12377715D01*
X364857Y-12377715D01*
X269619Y-12330096D01*
X222000Y-12282477D01*
X174381Y-12187239D01*
X174381Y-11996762D01*
X222000Y-11901524D01*
X269619Y-11853905D01*
X364857Y-11806286D01*
X602952Y-11806286D01*
X698190Y-11853905D01*
X745810Y-11901524D01*
X793429Y-11996762D01*
X793429Y-12187239D01*
X745810Y-12282477D01*
X698190Y-12330096D01*
X602952Y-12377715D01*
X51934381Y-18848667D02*
X52648667Y-18848667D01*
X52791524Y-18801047D01*
X52886762Y-18705809D01*
X52934381Y-18562952D01*
X52934381Y-18467714D01*
X51934381Y-19801048D02*
X51934381Y-19324857D01*
X52410571Y-19277238D01*
X52362952Y-19324857D01*
X52315333Y-19420095D01*
X52315333Y-19658191D01*
X52362952Y-19753429D01*
X52410571Y-19801048D01*
X52505810Y-19848667D01*
X52743905Y-19848667D01*
X52839143Y-19801048D01*
X52886762Y-19753429D01*
X52934381Y-19658191D01*
X52934381Y-19420095D01*
X52886762Y-19324857D01*
X52839143Y-19277238D01*
X51934381Y-3348667D02*
X52648667Y-3348667D01*
X52791524Y-3301047D01*
X52886762Y-3205809D01*
X52934381Y-3062952D01*
X52934381Y-2967714D01*
X51934381Y-3729619D02*
X51934381Y-4348667D01*
X52315333Y-4015333D01*
X52315333Y-4158191D01*
X52362952Y-4253429D01*
X52410571Y-4301048D01*
X52505810Y-4348667D01*
X52743905Y-4348667D01*
X52839143Y-4301048D01*
X52886762Y-4253429D01*
X52934381Y-4158191D01*
X52934381Y-3872476D01*
X52886762Y-3777238D01*
X52839143Y-3729619D01*
X38219143Y-9155334D02*
X38266762Y-9107715D01*
X38314381Y-8964858D01*
X38314381Y-8869620D01*
X38266762Y-8726762D01*
X38171524Y-8631524D01*
X38076286Y-8583905D01*
X37885810Y-8536286D01*
X37742952Y-8536286D01*
X37552476Y-8583905D01*
X37457238Y-8631524D01*
X37362000Y-8726762D01*
X37314381Y-8869620D01*
X37314381Y-8964858D01*
X37362000Y-9107715D01*
X37409619Y-9155334D01*
X37314381Y-10012477D02*
X37314381Y-9822000D01*
X37362000Y-9726762D01*
X37409619Y-9679143D01*
X37552476Y-9583905D01*
X37742952Y-9536286D01*
X38123905Y-9536286D01*
X38219143Y-9583905D01*
X38266762Y-9631524D01*
X38314381Y-9726762D01*
X38314381Y-9917239D01*
X38266762Y-10012477D01*
X38219143Y-10060096D01*
X38123905Y-10107715D01*
X37885810Y-10107715D01*
X37790571Y-10060096D01*
X37742952Y-10012477D01*
X37695333Y-9917239D01*
X37695333Y-9726762D01*
X37742952Y-9631524D01*
X37790571Y-9583905D01*
X37885810Y-9536286D01*
M02*
