%TF.GenerationSoftware,KiCad,Pcbnew,4.0.7*%
%TF.CreationDate,2017-11-17T00:30:49+08:00*%
%TF.ProjectId,STM32F401CCT6,53544D333246343031434354362E6B69,rev?*%
%TF.FileFunction,Copper,L2,Bot,Signal*%
%FSLAX46Y46*%
G04 Gerber Fmt 4.6, Leading zero omitted, Abs format (unit mm)*
G04 Created by KiCad (PCBNEW 4.0.7) date 11/17/17 00:30:49*
%MOMM*%
%LPD*%
G01*
G04 APERTURE LIST*
%ADD10C,0.100000*%
%ADD11C,0.325000*%
%ADD12R,1.700000X1.700000*%
%ADD13O,1.700000X1.700000*%
%ADD14R,0.500000X0.900000*%
%ADD15R,0.800000X0.750000*%
%ADD16R,0.750000X0.800000*%
%ADD17C,1.500000*%
%ADD18R,0.900000X0.500000*%
%ADD19R,1.060000X0.650000*%
%ADD20C,1.450000*%
%ADD21O,1.900000X1.200000*%
%ADD22C,0.453000*%
%ADD23C,0.400000*%
%ADD24C,0.250000*%
%ADD25C,0.500000*%
%ADD26C,0.300000*%
%ADD27C,0.254000*%
G04 APERTURE END LIST*
D10*
D11*
X43380095Y-5871048D02*
X44680095Y-6304381D01*
X43380095Y-6737714D01*
X44556286Y-7171048D02*
X44618190Y-7232953D01*
X44680095Y-7171048D01*
X44618190Y-7109143D01*
X44556286Y-7171048D01*
X44680095Y-7171048D01*
X43380095Y-8037715D02*
X43380095Y-8161524D01*
X43442000Y-8285334D01*
X43503905Y-8347239D01*
X43627714Y-8409143D01*
X43875333Y-8471048D01*
X44184857Y-8471048D01*
X44432476Y-8409143D01*
X44556286Y-8347239D01*
X44618190Y-8285334D01*
X44680095Y-8161524D01*
X44680095Y-8037715D01*
X44618190Y-7913905D01*
X44556286Y-7852001D01*
X44432476Y-7790096D01*
X44184857Y-7728191D01*
X43875333Y-7728191D01*
X43627714Y-7790096D01*
X43503905Y-7852001D01*
X43442000Y-7913905D01*
X43380095Y-8037715D01*
X44680095Y-9709143D02*
X44680095Y-8966286D01*
X44680095Y-9337715D02*
X43380095Y-9337715D01*
X43565810Y-9213905D01*
X43689619Y-9090096D01*
X43751524Y-8966286D01*
D12*
X47772000Y-6482000D03*
D13*
X47772000Y-9022000D03*
X47772000Y-11562000D03*
X47772000Y-14102000D03*
X47772000Y-16642000D03*
D14*
X2202000Y-16972000D03*
X3702000Y-16972000D03*
D15*
X31402000Y-12262000D03*
X32902000Y-12262000D03*
D16*
X34542000Y-13792000D03*
X34542000Y-15292000D03*
X45672000Y-15362000D03*
X45672000Y-13862000D03*
D15*
X6482000Y-6472000D03*
X4982000Y-6472000D03*
X15962000Y-6532000D03*
X17462000Y-6532000D03*
D17*
X32142000Y-14222000D03*
X32142000Y-9342000D03*
D18*
X16912000Y-13752000D03*
X16912000Y-15252000D03*
D16*
X18592000Y-15242000D03*
X18592000Y-13742000D03*
X20232000Y-13752000D03*
X20232000Y-15252000D03*
D19*
X22002000Y-15382000D03*
X22002000Y-14432000D03*
X22002000Y-13482000D03*
X24202000Y-13482000D03*
X24202000Y-15382000D03*
D16*
X26282000Y-13722000D03*
X26282000Y-15222000D03*
X28022000Y-13732000D03*
X28022000Y-15232000D03*
D18*
X30012000Y-13752000D03*
X30012000Y-15252000D03*
X40192000Y-13812000D03*
X40192000Y-15312000D03*
D16*
X43572000Y-15332000D03*
X43572000Y-13832000D03*
D18*
X41242000Y-8602000D03*
X41242000Y-10102000D03*
D16*
X37502000Y-10072000D03*
X37502000Y-8572000D03*
X35602000Y-8552000D03*
X35602000Y-10052000D03*
X33872000Y-8552000D03*
X33872000Y-10052000D03*
D18*
X30082000Y-10092000D03*
X30082000Y-8592000D03*
D16*
X27772000Y-10052000D03*
X27772000Y-8552000D03*
X20592000Y-10042000D03*
X20592000Y-8542000D03*
X25892000Y-10042000D03*
X25892000Y-8542000D03*
X22322000Y-10062000D03*
X22322000Y-8562000D03*
X24202000Y-10032000D03*
X24202000Y-8532000D03*
D18*
X18772000Y-8522000D03*
X18772000Y-10022000D03*
D14*
X13412000Y-6512000D03*
X11912000Y-6512000D03*
D19*
X13882000Y-8462000D03*
X13882000Y-9412000D03*
X13882000Y-10362000D03*
X11682000Y-10362000D03*
X11682000Y-8462000D03*
X11682000Y-9412000D03*
D14*
X9452000Y-10152000D03*
X7952000Y-10152000D03*
X9452000Y-8242000D03*
X7952000Y-8242000D03*
D18*
X2172000Y-10842000D03*
X2172000Y-12342000D03*
D20*
X4802000Y-9152000D03*
X4802000Y-14152000D03*
D21*
X2102000Y-8152000D03*
X2102000Y-15152000D03*
D12*
X50152000Y-19182000D03*
D13*
X47612000Y-19182000D03*
X45072000Y-19182000D03*
X42532000Y-19182000D03*
X39992000Y-19182000D03*
X37452000Y-19182000D03*
X34912000Y-19182000D03*
X32372000Y-19182000D03*
X29832000Y-19182000D03*
X27292000Y-19182000D03*
X24752000Y-19182000D03*
X22212000Y-19182000D03*
X19672000Y-19182000D03*
X17132000Y-19182000D03*
X14592000Y-19182000D03*
X12052000Y-19182000D03*
X9512000Y-19182000D03*
X6972000Y-19182000D03*
X4432000Y-19182000D03*
X1892000Y-19182000D03*
D12*
X50152000Y-3682000D03*
D13*
X47612000Y-3682000D03*
X45072000Y-3682000D03*
X42532000Y-3682000D03*
X39992000Y-3682000D03*
X37452000Y-3682000D03*
X34912000Y-3682000D03*
X32372000Y-3682000D03*
X29832000Y-3682000D03*
X27292000Y-3682000D03*
X24752000Y-3682000D03*
X22212000Y-3682000D03*
X19672000Y-3682000D03*
X17132000Y-3682000D03*
X14592000Y-3682000D03*
X12052000Y-3682000D03*
X9512000Y-3682000D03*
X6972000Y-3682000D03*
X4432000Y-3682000D03*
X1892000Y-3682000D03*
D12*
X14110000Y-13080000D03*
D13*
X14110000Y-15620000D03*
X11570000Y-13080000D03*
X11570000Y-15620000D03*
X9030000Y-13080000D03*
X9030000Y-15620000D03*
D16*
X39362000Y-10072000D03*
X39362000Y-8572000D03*
D22*
X4771074Y-17082852D03*
X6062000Y-10262000D03*
X22812000Y-20615500D03*
X6822000Y-15262000D03*
X26568500Y-6915030D03*
X15027782Y-9037708D03*
X17452000Y-9202000D03*
X11174992Y-7332000D03*
X10072000Y-7322000D03*
X29295468Y-12258500D03*
X6612000Y-12602000D03*
X29015525Y-13418475D03*
X32242000Y-8122000D03*
X20831906Y-16981906D03*
X33982000Y-12702000D03*
X6502000Y-5382000D03*
X21462000Y-9712000D03*
X23082000Y-11297010D03*
X23572000Y-10972000D03*
X22632000Y-11032000D03*
X30302000Y-11072000D03*
X16953502Y-11052880D03*
X27802002Y-6932000D03*
X49852000Y-6372000D03*
X49833735Y-5142742D03*
X38412000Y-8562000D03*
X40283765Y-5933765D03*
X38400130Y-9214884D03*
X39415637Y-5942266D03*
X28687278Y-7758528D03*
X28671321Y-7095929D03*
X41482000Y-9372000D03*
X41398492Y-14735308D03*
X17570000Y-11760000D03*
X10302000Y-10862000D03*
X17682000Y-16150500D03*
X16242233Y-17582233D03*
X42062000Y-5672000D03*
X22790000Y-5960000D03*
X22242000Y-5513498D03*
X20572000Y-6132000D03*
X24876565Y-17206504D03*
X25252000Y-17832000D03*
X19701956Y-17305509D03*
X18976246Y-16716246D03*
X29932000Y-16132000D03*
X17502000Y-7442000D03*
X7002000Y-10972000D03*
X3612000Y-12282000D03*
X6982796Y-11688983D03*
X15022000Y-5262000D03*
X1312000Y-16992000D03*
X20871991Y-19892009D03*
X10812000Y-17472000D03*
X10832000Y-21248500D03*
X10792000Y-19909008D03*
X29922000Y-14492000D03*
X17403613Y-10579794D03*
X49222000Y-7742000D03*
X44732000Y-13832000D03*
X24039145Y-17268683D03*
X26023285Y-6462000D03*
X29202000Y-6642000D03*
D23*
X22002000Y-15382000D02*
X22002000Y-16889209D01*
X22002000Y-16889209D02*
X20959200Y-17932009D01*
X20959200Y-17932009D02*
X19072003Y-17932009D01*
X19072003Y-17932009D02*
X18382000Y-18622012D01*
X18382000Y-18622012D02*
X18382000Y-19842000D01*
X9102012Y-20622000D02*
X11199209Y-20622000D01*
X11199209Y-20622000D02*
X18082000Y-20622000D01*
X6822000Y-15262000D02*
X8262009Y-16702009D01*
X8262009Y-16702009D02*
X8262009Y-19781997D01*
X8262009Y-19781997D02*
X9102012Y-20622000D01*
X18392000Y-20615500D02*
X18692000Y-20615500D01*
X18398500Y-20322000D02*
X18692000Y-20615500D01*
X18692000Y-20615500D02*
X22491681Y-20615500D01*
X18382000Y-20322000D02*
X18398500Y-20322000D01*
X18382000Y-20182000D02*
X18382000Y-20605500D01*
X18382000Y-20182000D02*
X18382000Y-20322000D01*
X18382000Y-19842000D02*
X18382000Y-20182000D01*
X18382000Y-20322000D02*
X18082000Y-20622000D01*
X18088500Y-20615500D02*
X18392000Y-20615500D01*
X18382000Y-20605500D02*
X18392000Y-20615500D01*
D24*
X3812000Y-17082000D02*
X4770222Y-17082000D01*
X4770222Y-17082000D02*
X4771074Y-17082852D01*
D23*
X5942000Y-14382000D02*
X5942000Y-10382000D01*
D24*
X5942000Y-10382000D02*
X6062000Y-10262000D01*
D23*
X18082000Y-20622000D02*
X18088500Y-20615500D01*
X22491681Y-20615500D02*
X22812000Y-20615500D01*
X6822000Y-15262000D02*
X5942000Y-14382000D01*
X20072000Y-15252000D02*
X21872000Y-15252000D01*
X21872000Y-15252000D02*
X22002000Y-15382000D01*
X18382000Y-19842000D02*
X18385501Y-19845501D01*
D24*
X22002000Y-15957000D02*
X22002000Y-15382000D01*
D23*
X18382000Y-2272000D02*
X18032000Y-2272000D01*
X18032000Y-2272000D02*
X5842000Y-2272000D01*
X18382000Y-2632000D02*
X18382000Y-2622000D01*
X18382000Y-2622000D02*
X18032000Y-2272000D01*
X18382000Y-2632000D02*
X18382000Y-2272000D01*
X18382000Y-5562000D02*
X18382000Y-2632000D01*
X18382000Y-2272000D02*
X18742000Y-2272000D01*
X18742000Y-2272000D02*
X32811988Y-2272000D01*
X18382000Y-2632000D02*
X18742000Y-2272000D01*
D25*
X29295468Y-12258500D02*
X31398500Y-12258500D01*
X31398500Y-12258500D02*
X31402000Y-12262000D01*
D23*
X26812000Y-10042000D02*
X26812000Y-7772000D01*
X26812000Y-7772000D02*
X26562000Y-7522000D01*
X26562000Y-7522000D02*
X26562000Y-6921530D01*
X26562000Y-6921530D02*
X26568500Y-6915030D01*
X26794999Y-6688531D02*
X26568500Y-6915030D01*
X27626522Y-5857008D02*
X26794999Y-6688531D01*
X32046980Y-5857008D02*
X27626522Y-5857008D01*
X33621991Y-4281997D02*
X32046980Y-5857008D01*
X33621991Y-3082003D02*
X33621991Y-4281997D01*
X32811988Y-2272000D02*
X33621991Y-3082003D01*
D24*
X13882000Y-9412000D02*
X14653490Y-9412000D01*
X14653490Y-9412000D02*
X15027782Y-9037708D01*
X20592000Y-10042000D02*
X19967000Y-10042000D01*
X19967000Y-10042000D02*
X19127000Y-9202000D01*
X19127000Y-9202000D02*
X17772319Y-9202000D01*
X17772319Y-9202000D02*
X17452000Y-9202000D01*
X17462000Y-6532000D02*
X17487000Y-6532000D01*
D23*
X17462000Y-6532000D02*
X17462000Y-6482000D01*
X17462000Y-6482000D02*
X18382000Y-5562000D01*
D24*
X17702000Y-6772000D02*
X17462000Y-6532000D01*
X10072000Y-7322000D02*
X11164992Y-7322000D01*
X11164992Y-7322000D02*
X11174992Y-7332000D01*
D25*
X41242000Y-8602000D02*
X41012000Y-8602000D01*
X41012000Y-8602000D02*
X39542000Y-10072000D01*
X39542000Y-10072000D02*
X39362000Y-10072000D01*
X37502000Y-10072000D02*
X39362000Y-10072000D01*
X35602000Y-8552000D02*
X35852000Y-8552000D01*
X37372000Y-10072000D02*
X37502000Y-10072000D01*
X35852000Y-8552000D02*
X37372000Y-10072000D01*
D24*
X43572000Y-15332000D02*
X43572000Y-15357000D01*
D23*
X25892000Y-10042000D02*
X26812000Y-10042000D01*
X26812000Y-10042000D02*
X27762000Y-10042000D01*
X27762000Y-10042000D02*
X27772000Y-10052000D01*
D24*
X13882000Y-9412000D02*
X13488396Y-9412000D01*
D25*
X25892000Y-10042000D02*
X25976984Y-10042000D01*
D23*
X47772000Y-6482000D02*
X47772000Y-6204791D01*
X47772000Y-6204791D02*
X46321991Y-4754782D01*
X46321991Y-4754782D02*
X46321991Y-3082003D01*
X46321991Y-3082003D02*
X45671997Y-2432009D01*
X41932003Y-2432009D02*
X41241991Y-3122021D01*
X45671997Y-2432009D02*
X41932003Y-2432009D01*
X41241991Y-3122021D02*
X41241991Y-8591991D01*
X41241991Y-8591991D02*
X41262000Y-8612000D01*
D24*
X47612000Y-19182000D02*
X45682000Y-17252000D01*
X45682000Y-17252000D02*
X45682000Y-15312000D01*
X45682000Y-15312000D02*
X43592000Y-15312000D01*
X43592000Y-15312000D02*
X43572000Y-15332000D01*
D23*
X18577016Y-15252000D02*
X20307016Y-16982000D01*
X20307016Y-16982000D02*
X20831812Y-16982000D01*
X20831812Y-16982000D02*
X20831906Y-16981906D01*
X20072000Y-13752000D02*
X20112000Y-13792000D01*
X20112000Y-13792000D02*
X20752000Y-13792000D01*
X20752000Y-13792000D02*
X21392000Y-14432000D01*
X21392000Y-14432000D02*
X22002000Y-14432000D01*
X18572000Y-15252000D02*
X20072000Y-13752000D01*
X5842000Y-2272000D02*
X5281999Y-2832001D01*
X5281999Y-2832001D02*
X4432000Y-3682000D01*
D25*
X9030000Y-13080000D02*
X7827919Y-13080000D01*
X7827919Y-13080000D02*
X7367043Y-12619124D01*
X7367043Y-12619124D02*
X7113599Y-12619124D01*
X7113599Y-12619124D02*
X6605509Y-12619124D01*
D23*
X29015525Y-13513475D02*
X29015525Y-13418475D01*
X28022000Y-13732000D02*
X28797000Y-13732000D01*
X28797000Y-13732000D02*
X29015525Y-13513475D01*
D26*
X25892000Y-10042000D02*
X25892000Y-9946984D01*
D23*
X33872000Y-8552000D02*
X33872000Y-8532000D01*
X33872000Y-8532000D02*
X33472000Y-8132000D01*
X33472000Y-8132000D02*
X32572319Y-8132000D01*
X32572319Y-8132000D02*
X32562319Y-8122000D01*
X32562319Y-8122000D02*
X32242000Y-8122000D01*
D25*
X21482000Y-10052000D02*
X20602000Y-10052000D01*
D23*
X34532000Y-13732000D02*
X34532000Y-13252000D01*
X34532000Y-13252000D02*
X33982000Y-12702000D01*
D25*
X6482000Y-6472000D02*
X6482000Y-5402000D01*
X6482000Y-5402000D02*
X6502000Y-5382000D01*
X24687000Y-11272000D02*
X23107000Y-11272000D01*
X25882000Y-10077000D02*
X24687000Y-11272000D01*
X23107000Y-11272000D02*
X23082000Y-11247000D01*
X31402000Y-12262000D02*
X31402000Y-12172000D01*
X31402000Y-12172000D02*
X30302000Y-11072000D01*
X25882000Y-10052000D02*
X25882000Y-10077000D01*
X22632000Y-11032000D02*
X22632000Y-10372000D01*
X22632000Y-10372000D02*
X22322000Y-10062000D01*
X23572000Y-10972000D02*
X23572000Y-10612000D01*
X23572000Y-10612000D02*
X24122000Y-10062000D01*
X21482000Y-10052000D02*
X22312000Y-10052000D01*
X21462000Y-9712000D02*
X21462000Y-10032000D01*
X21462000Y-10032000D02*
X21482000Y-10052000D01*
X22312000Y-10052000D02*
X22322000Y-10062000D01*
X24122000Y-10062000D02*
X22322000Y-10062000D01*
X25882000Y-10052000D02*
X24132000Y-10052000D01*
X24132000Y-10052000D02*
X24122000Y-10062000D01*
X26282000Y-13722000D02*
X28012000Y-13722000D01*
X28012000Y-13722000D02*
X28022000Y-13732000D01*
X9030000Y-13080000D02*
X9030000Y-15620000D01*
X41122000Y-8552000D02*
X41162000Y-8592000D01*
X33872000Y-8552000D02*
X35602000Y-8552000D01*
D24*
X24661990Y-11297010D02*
X25882000Y-10077000D01*
X22605332Y-10345332D02*
X22322000Y-10062000D01*
X25882000Y-10052000D02*
X25882000Y-9922000D01*
X41232000Y-3213012D02*
X42063010Y-2382002D01*
X33872000Y-8552000D02*
X35582000Y-8552000D01*
X35582000Y-8552000D02*
X35592000Y-8562000D01*
D25*
X2172000Y-10842000D02*
X2172000Y-8222000D01*
X2172000Y-8222000D02*
X2102000Y-8152000D01*
D24*
X24202000Y-13482000D02*
X23422000Y-13482000D01*
X23422000Y-13482000D02*
X22762002Y-12822002D01*
X22762002Y-12822002D02*
X19411998Y-12822002D01*
X19411998Y-12822002D02*
X18512000Y-13722000D01*
X18512000Y-13722000D02*
X18512000Y-13742000D01*
X18772000Y-10022000D02*
X18772000Y-10238000D01*
X17044113Y-11143491D02*
X16953502Y-11052880D01*
X18772000Y-10238000D02*
X17866509Y-11143491D01*
X17866509Y-11143491D02*
X17044113Y-11143491D01*
X27772000Y-8552000D02*
X27772000Y-8692016D01*
X27772000Y-8692016D02*
X28822000Y-9742016D01*
X28822000Y-9742016D02*
X28822000Y-11106910D01*
X28822000Y-11106910D02*
X28056910Y-11872000D01*
X28056910Y-11872000D02*
X20822000Y-11872000D01*
X20822000Y-11872000D02*
X18972000Y-10022000D01*
X18972000Y-10022000D02*
X18772000Y-10022000D01*
X27772000Y-8552000D02*
X27772000Y-6962002D01*
X27772000Y-6962002D02*
X27802002Y-6932000D01*
X49833735Y-6353735D02*
X49852000Y-6372000D01*
X49833735Y-5142742D02*
X49833735Y-6353735D01*
X27772000Y-8738736D02*
X27772000Y-8672000D01*
X40283765Y-5933765D02*
X40283765Y-6512000D01*
X40283765Y-6512000D02*
X40283765Y-6690235D01*
X40283765Y-7000235D02*
X40283765Y-6512000D01*
X39362000Y-8572000D02*
X39362000Y-7922000D01*
X39362000Y-7922000D02*
X40283765Y-7000235D01*
X38412000Y-8562000D02*
X39352000Y-8562000D01*
X39352000Y-8562000D02*
X39362000Y-8572000D01*
X37502000Y-8572000D02*
X37502000Y-7855903D01*
X37502000Y-7855903D02*
X39415637Y-5942266D01*
X37502000Y-8572000D02*
X38144884Y-9214884D01*
X38144884Y-9214884D02*
X38400130Y-9214884D01*
X31132000Y-10092000D02*
X29872000Y-10092000D01*
X32172000Y-11132000D02*
X31132000Y-10092000D01*
X29872000Y-10092000D02*
X28687278Y-8907278D01*
X28687278Y-8907278D02*
X28687278Y-8076726D01*
X28687278Y-8076726D02*
X28687278Y-7758528D01*
X32362000Y-11132000D02*
X34547000Y-11132000D01*
X32172000Y-11132000D02*
X32362000Y-11132000D01*
X32142000Y-11132000D02*
X32142000Y-11272000D01*
X32142000Y-11272000D02*
X32142000Y-14222000D01*
X32362000Y-11132000D02*
X32282000Y-11132000D01*
X32282000Y-11132000D02*
X32142000Y-11272000D01*
X32172000Y-11132000D02*
X32172000Y-11122000D01*
X32172000Y-11122000D02*
X32162000Y-11112000D01*
X32162000Y-11112000D02*
X32142000Y-11132000D01*
X34547000Y-11132000D02*
X35602000Y-10077000D01*
X35602000Y-10077000D02*
X35602000Y-10052000D01*
X35592000Y-10062000D02*
X35592000Y-10087000D01*
X35592000Y-10087000D02*
X34547000Y-11132000D01*
X29382000Y-7615988D02*
X28861941Y-7095929D01*
X28861941Y-7095929D02*
X28671321Y-7095929D01*
X29882000Y-8592000D02*
X29382000Y-8092000D01*
X30082000Y-8592000D02*
X29882000Y-8592000D01*
X29382000Y-8092000D02*
X29382000Y-7615988D01*
X30082000Y-8592000D02*
X31392000Y-8592000D01*
X31392000Y-8592000D02*
X32142000Y-9342000D01*
X32812000Y-10062000D02*
X32812000Y-10012000D01*
X32812000Y-10012000D02*
X32142000Y-9342000D01*
X33832000Y-10062000D02*
X32812000Y-10062000D01*
X32812000Y-10062000D02*
X32072000Y-9322000D01*
X41255501Y-9598499D02*
X41482000Y-9372000D01*
X41162000Y-9692000D02*
X41255501Y-9598499D01*
X41162000Y-10092000D02*
X41162000Y-9692000D01*
X41398492Y-14735308D02*
X41398492Y-14755508D01*
X41398492Y-14755508D02*
X40852000Y-15302000D01*
X40852000Y-15302000D02*
X40202000Y-15302000D01*
X40202000Y-15302000D02*
X40192000Y-15312000D01*
X28750808Y-12866984D02*
X28255827Y-12372003D01*
X18182003Y-12372003D02*
X17796499Y-11986499D01*
X28255827Y-12372003D02*
X18182003Y-12372003D01*
X30012000Y-13752000D02*
X30012000Y-13252000D01*
X17796499Y-11986499D02*
X17570000Y-11760000D01*
X29626984Y-12866984D02*
X28750808Y-12866984D01*
X30012000Y-13252000D02*
X29626984Y-12866984D01*
X10302000Y-11182319D02*
X10302000Y-10862000D01*
X10302000Y-11812000D02*
X10302000Y-11182319D01*
X11570000Y-13080000D02*
X10302000Y-11812000D01*
X30022000Y-13692000D02*
X30022000Y-13645011D01*
X17682000Y-15822000D02*
X17682000Y-15830181D01*
X17112000Y-15252000D02*
X17682000Y-15822000D01*
X17682000Y-15830181D02*
X17682000Y-16150500D01*
X16912000Y-15252000D02*
X17112000Y-15252000D01*
X16242233Y-17582233D02*
X13532233Y-17582233D01*
X13532233Y-17582233D02*
X11570000Y-15620000D01*
X40192000Y-13312000D02*
X42288499Y-11215501D01*
X42288499Y-5898499D02*
X42062000Y-5672000D01*
X40192000Y-13812000D02*
X40192000Y-13312000D01*
X42288499Y-11215501D02*
X42288499Y-5898499D01*
X32372000Y-3652000D02*
X30691992Y-5332008D01*
X30691992Y-5332008D02*
X27241706Y-5332008D01*
X27241706Y-5332008D02*
X26711714Y-5862000D01*
X26711714Y-5862000D02*
X22868000Y-5862000D01*
X22868000Y-5862000D02*
X22790000Y-5940000D01*
X22790000Y-5940000D02*
X22790000Y-5960000D01*
X28601993Y-4882007D02*
X27049031Y-4882007D01*
X22346989Y-5408509D02*
X22242000Y-5513498D01*
X27049031Y-4882007D02*
X26519038Y-5412000D01*
X29832000Y-3652000D02*
X28601993Y-4882007D01*
X26519038Y-5412000D02*
X23068208Y-5412000D01*
X23064717Y-5408509D02*
X22346989Y-5408509D01*
X23068208Y-5412000D02*
X23064717Y-5408509D01*
X20798499Y-5905501D02*
X20572000Y-6132000D01*
X21745492Y-4958508D02*
X20798499Y-5905501D01*
X25985492Y-4958508D02*
X21745492Y-4958508D01*
X27292000Y-3652000D02*
X25985492Y-4958508D01*
X47772000Y-9022000D02*
X46195603Y-9022000D01*
X46195603Y-9022000D02*
X42141999Y-13075604D01*
X42141999Y-13075604D02*
X42141999Y-14812001D01*
X42141999Y-14812001D02*
X39762000Y-17192000D01*
X39762000Y-17192000D02*
X24891069Y-17192000D01*
X24891069Y-17192000D02*
X24876565Y-17206504D01*
X47772000Y-9022000D02*
X46385619Y-9022000D01*
X25572319Y-17832000D02*
X25252000Y-17832000D01*
X39822000Y-17832000D02*
X25572319Y-17832000D01*
X44292000Y-11562000D02*
X42592000Y-13262000D01*
X47772000Y-11562000D02*
X44292000Y-11562000D01*
X42592000Y-13262000D02*
X42592000Y-15062000D01*
X42592000Y-15062000D02*
X39822000Y-17832000D01*
X13882000Y-10362000D02*
X14087000Y-10362000D01*
X14087000Y-10362000D02*
X15502000Y-11777000D01*
X15502000Y-11777000D02*
X15502000Y-15962000D01*
X15502000Y-15962000D02*
X16845509Y-17305509D01*
X16845509Y-17305509D02*
X19381637Y-17305509D01*
X19381637Y-17305509D02*
X19701956Y-17305509D01*
X13882000Y-8462000D02*
X15232000Y-8462000D01*
X15232000Y-8462000D02*
X15952001Y-9182001D01*
X17016246Y-16716246D02*
X18655927Y-16716246D01*
X15952001Y-9182001D02*
X15952001Y-15652001D01*
X15952001Y-15652001D02*
X17016246Y-16716246D01*
X18655927Y-16716246D02*
X18976246Y-16716246D01*
X11682000Y-8462000D02*
X11462000Y-8242000D01*
X11462000Y-8242000D02*
X9452000Y-8242000D01*
X11682000Y-10362000D02*
X12362000Y-10362000D01*
X12362000Y-10362000D02*
X13002000Y-9722000D01*
X13002000Y-6932000D02*
X13412000Y-6522000D01*
X13002000Y-9722000D02*
X13002000Y-6932000D01*
X13412000Y-6522000D02*
X13412000Y-6512000D01*
X9452000Y-10152000D02*
X11472000Y-10152000D01*
X11472000Y-10152000D02*
X11682000Y-10362000D01*
X29932000Y-15282000D02*
X29932000Y-16132000D01*
X30022000Y-15192000D02*
X29932000Y-15282000D01*
X17275501Y-7668499D02*
X17502000Y-7442000D01*
X16402002Y-8541998D02*
X17275501Y-7668499D01*
X16402002Y-12742002D02*
X16402002Y-8541998D01*
X16912000Y-13752000D02*
X16912000Y-13252000D01*
X16912000Y-13252000D02*
X16402002Y-12742002D01*
X7952000Y-8242000D02*
X7002000Y-9192000D01*
X7002000Y-9192000D02*
X7002000Y-10651681D01*
X7002000Y-10651681D02*
X7002000Y-10972000D01*
X3612000Y-12282000D02*
X2232000Y-12282000D01*
X2232000Y-12282000D02*
X2172000Y-12342000D01*
X7952000Y-10152000D02*
X7952000Y-10852000D01*
X7115017Y-11688983D02*
X6982796Y-11688983D01*
X7952000Y-10852000D02*
X7115017Y-11688983D01*
X15022000Y-5582319D02*
X15022000Y-5262000D01*
X15022000Y-5617000D02*
X15022000Y-5582319D01*
X15937000Y-6532000D02*
X15022000Y-5617000D01*
X15962000Y-6532000D02*
X15937000Y-6532000D01*
X1332000Y-16972000D02*
X1312000Y-16992000D01*
X2202000Y-16972000D02*
X1332000Y-16972000D01*
D26*
X22002000Y-13482000D02*
X22462000Y-13482000D01*
X22462000Y-13482000D02*
X22952009Y-13972009D01*
X22952009Y-13972009D02*
X22952009Y-16717017D01*
X22952009Y-16717017D02*
X20871991Y-18797035D01*
X20871991Y-18797035D02*
X20871991Y-19892009D01*
D25*
X4982000Y-5527000D02*
X4982000Y-4991991D01*
X4982000Y-4991991D02*
X4992000Y-4981991D01*
X4982000Y-5527000D02*
X4982000Y-6472000D01*
X4992000Y-4981991D02*
X4602000Y-4981991D01*
D23*
X4982000Y-5381991D02*
X5382000Y-4981991D01*
D25*
X5672009Y-4981991D02*
X5382000Y-4981991D01*
X5382000Y-4981991D02*
X4992000Y-4981991D01*
D23*
X4982000Y-5361991D02*
X4602000Y-4981991D01*
X4982000Y-5527000D02*
X4982000Y-5381991D01*
D25*
X4602000Y-4981991D02*
X1362009Y-4981991D01*
X1362009Y-4981991D02*
X712000Y-5632000D01*
X6972000Y-3682000D02*
X5672009Y-4981991D01*
D24*
X6972000Y-3652000D02*
X5682000Y-4942000D01*
D25*
X712000Y-5632000D02*
X712000Y-7707076D01*
D24*
X16900508Y-8937283D02*
X16900508Y-10076689D01*
X17315791Y-8522000D02*
X16900508Y-8937283D01*
X16900508Y-10076689D02*
X17177114Y-10353295D01*
X17177114Y-10353295D02*
X17403613Y-10579794D01*
X18772000Y-8522000D02*
X17315791Y-8522000D01*
D23*
X25892000Y-8542000D02*
X25892000Y-6593285D01*
X25892000Y-6593285D02*
X26023285Y-6462000D01*
D25*
X2122000Y-13962000D02*
X2873012Y-13962000D01*
X712000Y-7707076D02*
X702000Y-7717076D01*
X702000Y-7717076D02*
X702000Y-8586924D01*
X712000Y-12552000D02*
X2122000Y-13962000D01*
X702000Y-8586924D02*
X712000Y-8596924D01*
X712000Y-8596924D02*
X712000Y-12552000D01*
X2873012Y-13962000D02*
X4842000Y-15930988D01*
X4842000Y-15930988D02*
X4842000Y-15932000D01*
X4842000Y-15932000D02*
X5722000Y-16812000D01*
X5722000Y-16812000D02*
X5722000Y-18662000D01*
D24*
X10792000Y-17492000D02*
X10812000Y-17472000D01*
X10792000Y-19909008D02*
X10792000Y-17492000D01*
D23*
X10511681Y-21248500D02*
X10832000Y-21248500D01*
X7188512Y-21248500D02*
X10511681Y-21248500D01*
X5722000Y-19781988D02*
X7188512Y-21248500D01*
X5722000Y-18662000D02*
X5722000Y-19781988D01*
X11152319Y-21248500D02*
X10832000Y-21248500D01*
D24*
X14110000Y-15620000D02*
X14110000Y-13080000D01*
X44732000Y-13832000D02*
X45662000Y-13832000D01*
X46922001Y-15077001D02*
X46922001Y-15792001D01*
X45682000Y-13837000D02*
X46922001Y-15077001D01*
X11682000Y-9412000D02*
X12102000Y-9412000D01*
X12102000Y-9412000D02*
X12536991Y-8977009D01*
X12536991Y-8977009D02*
X12536991Y-7126991D01*
X12536991Y-7126991D02*
X11922000Y-6512000D01*
X11922000Y-6512000D02*
X11912000Y-6512000D01*
D25*
X9802000Y-6512000D02*
X11912000Y-6512000D01*
D24*
X45662000Y-13832000D02*
X45682000Y-13812000D01*
X45682000Y-13812000D02*
X45682000Y-13837000D01*
D25*
X24202000Y-15382000D02*
X24202000Y-17147404D01*
D23*
X34352000Y-15412000D02*
X33372000Y-15412000D01*
X33372000Y-15412000D02*
X31630012Y-15412000D01*
X32902000Y-12262000D02*
X32902000Y-13037000D01*
X32902000Y-13037000D02*
X33372000Y-13507000D01*
X33372000Y-13507000D02*
X33372000Y-15412000D01*
X34532000Y-15232000D02*
X34352000Y-15412000D01*
X31630012Y-15412000D02*
X30710012Y-14492000D01*
X30710012Y-14492000D02*
X29922000Y-14492000D01*
D26*
X32902000Y-12262000D02*
X32942000Y-12262000D01*
D25*
X24222000Y-8532000D02*
X25882000Y-8532000D01*
X25882000Y-8532000D02*
X25892000Y-8542000D01*
X28022000Y-15232000D02*
X28762000Y-14492000D01*
X28762000Y-14492000D02*
X29922000Y-14492000D01*
X26282000Y-15222000D02*
X28012000Y-15222000D01*
X28012000Y-15222000D02*
X28022000Y-15232000D01*
X24202000Y-15382000D02*
X26122000Y-15382000D01*
X26122000Y-15382000D02*
X26282000Y-15222000D01*
X18772000Y-8522000D02*
X20572000Y-8522000D01*
X20572000Y-8522000D02*
X20602000Y-8552000D01*
X22322000Y-8562000D02*
X20612000Y-8562000D01*
X20612000Y-8562000D02*
X20602000Y-8552000D01*
X24122000Y-8562000D02*
X22322000Y-8562000D01*
D24*
X26392000Y-15222000D02*
X28012000Y-15222000D01*
X25872000Y-8562000D02*
X25882000Y-8552000D01*
D23*
X49222000Y-7742000D02*
X49222000Y-15192000D01*
X49222000Y-15192000D02*
X49102000Y-15312000D01*
X49102000Y-15312000D02*
X47772000Y-16642000D01*
X48861991Y-5021991D02*
X48861991Y-3082003D01*
X48861991Y-3082003D02*
X47611997Y-1832009D01*
X37052000Y-6642000D02*
X29520198Y-6642000D01*
X47611997Y-1832009D02*
X39992003Y-1832009D01*
X39992003Y-1832009D02*
X38701991Y-3122021D01*
X38701991Y-3122021D02*
X38701991Y-4992009D01*
X38701991Y-4992009D02*
X37052000Y-6642000D01*
X29520198Y-6642000D02*
X29202000Y-6642000D01*
X49222000Y-7421681D02*
X49222000Y-7742000D01*
X49222000Y-5382000D02*
X49222000Y-7421681D01*
X48861991Y-5021991D02*
X49222000Y-5382000D01*
X23106208Y-21248500D02*
X11152319Y-21248500D01*
X23112708Y-21242000D02*
X23106208Y-21248500D01*
X23112708Y-21242000D02*
X23782000Y-21242000D01*
X23782000Y-21242000D02*
X48092000Y-21242000D01*
X23461991Y-20892717D02*
X23461991Y-20921991D01*
X23461991Y-20921991D02*
X23782000Y-21242000D01*
X24039145Y-17268683D02*
X24039145Y-17284855D01*
X24039145Y-17284855D02*
X23461991Y-17862009D01*
X23461991Y-17862009D02*
X23461991Y-20892717D01*
X23461991Y-20892717D02*
X23112708Y-21242000D01*
X48092000Y-21242000D02*
X50152000Y-19182000D01*
D24*
X43572000Y-13832000D02*
X44732000Y-13832000D01*
X46922001Y-15792001D02*
X47772000Y-16642000D01*
D25*
X6972000Y-3682000D02*
X9802000Y-6512000D01*
D23*
X24202000Y-17147404D02*
X24080721Y-17268683D01*
X24080721Y-17268683D02*
X24039145Y-17268683D01*
X48962000Y-5122000D02*
X48861991Y-5021991D01*
D25*
X47772000Y-16642000D02*
X47772000Y-16802000D01*
X47772000Y-16802000D02*
X50152000Y-19182000D01*
D24*
X50132000Y-19222000D02*
X50152000Y-19222000D01*
X50142000Y-19222000D02*
X50152000Y-19222000D01*
X48492000Y-16642000D02*
X47772000Y-16642000D01*
D27*
G36*
X47739000Y-19055000D02*
X47759000Y-19055000D01*
X47759000Y-19309000D01*
X47739000Y-19309000D01*
X47739000Y-19329000D01*
X47485000Y-19329000D01*
X47485000Y-19309000D01*
X47465000Y-19309000D01*
X47465000Y-19055000D01*
X47485000Y-19055000D01*
X47485000Y-19035000D01*
X47739000Y-19035000D01*
X47739000Y-19055000D01*
X47739000Y-19055000D01*
G37*
X47739000Y-19055000D02*
X47759000Y-19055000D01*
X47759000Y-19309000D01*
X47739000Y-19309000D01*
X47739000Y-19329000D01*
X47485000Y-19329000D01*
X47485000Y-19309000D01*
X47465000Y-19309000D01*
X47465000Y-19055000D01*
X47485000Y-19055000D01*
X47485000Y-19035000D01*
X47739000Y-19035000D01*
X47739000Y-19055000D01*
G36*
X44559885Y-14693350D02*
X44720901Y-14693490D01*
X44662000Y-14835691D01*
X44662000Y-15076250D01*
X44820750Y-15235000D01*
X45545000Y-15235000D01*
X45545000Y-15215000D01*
X45799000Y-15215000D01*
X45799000Y-15235000D01*
X45819000Y-15235000D01*
X45819000Y-15489000D01*
X45799000Y-15489000D01*
X45799000Y-16238250D01*
X45957750Y-16397000D01*
X46173310Y-16397000D01*
X46318612Y-16336814D01*
X46257907Y-16642000D01*
X46370946Y-17210285D01*
X46692853Y-17692054D01*
X46952793Y-17865740D01*
X46845076Y-17910355D01*
X46416817Y-18300642D01*
X46349702Y-18443553D01*
X46122054Y-18102853D01*
X45640285Y-17780946D01*
X45072000Y-17667907D01*
X44503715Y-17780946D01*
X44021946Y-18102853D01*
X43802000Y-18432026D01*
X43582054Y-18102853D01*
X43100285Y-17780946D01*
X42532000Y-17667907D01*
X41963715Y-17780946D01*
X41481946Y-18102853D01*
X41262000Y-18432026D01*
X41042054Y-18102853D01*
X40792617Y-17936185D01*
X42652356Y-16076446D01*
X42658673Y-16091698D01*
X42837301Y-16270327D01*
X43070690Y-16367000D01*
X43286250Y-16367000D01*
X43445000Y-16208250D01*
X43445000Y-15459000D01*
X43699000Y-15459000D01*
X43699000Y-16208250D01*
X43857750Y-16367000D01*
X44073310Y-16367000D01*
X44306699Y-16270327D01*
X44485327Y-16091698D01*
X44582000Y-15858309D01*
X44582000Y-15647750D01*
X44662000Y-15647750D01*
X44662000Y-15888309D01*
X44758673Y-16121698D01*
X44937301Y-16300327D01*
X45170690Y-16397000D01*
X45386250Y-16397000D01*
X45545000Y-16238250D01*
X45545000Y-15489000D01*
X44820750Y-15489000D01*
X44662000Y-15647750D01*
X44582000Y-15647750D01*
X44582000Y-15617750D01*
X44423250Y-15459000D01*
X43699000Y-15459000D01*
X43445000Y-15459000D01*
X43425000Y-15459000D01*
X43425000Y-15205000D01*
X43445000Y-15205000D01*
X43445000Y-15185000D01*
X43699000Y-15185000D01*
X43699000Y-15205000D01*
X44423250Y-15205000D01*
X44582000Y-15046250D01*
X44582000Y-14805691D01*
X44530395Y-14681104D01*
X44559885Y-14693350D01*
X44559885Y-14693350D01*
G37*
X44559885Y-14693350D02*
X44720901Y-14693490D01*
X44662000Y-14835691D01*
X44662000Y-15076250D01*
X44820750Y-15235000D01*
X45545000Y-15235000D01*
X45545000Y-15215000D01*
X45799000Y-15215000D01*
X45799000Y-15235000D01*
X45819000Y-15235000D01*
X45819000Y-15489000D01*
X45799000Y-15489000D01*
X45799000Y-16238250D01*
X45957750Y-16397000D01*
X46173310Y-16397000D01*
X46318612Y-16336814D01*
X46257907Y-16642000D01*
X46370946Y-17210285D01*
X46692853Y-17692054D01*
X46952793Y-17865740D01*
X46845076Y-17910355D01*
X46416817Y-18300642D01*
X46349702Y-18443553D01*
X46122054Y-18102853D01*
X45640285Y-17780946D01*
X45072000Y-17667907D01*
X44503715Y-17780946D01*
X44021946Y-18102853D01*
X43802000Y-18432026D01*
X43582054Y-18102853D01*
X43100285Y-17780946D01*
X42532000Y-17667907D01*
X41963715Y-17780946D01*
X41481946Y-18102853D01*
X41262000Y-18432026D01*
X41042054Y-18102853D01*
X40792617Y-17936185D01*
X42652356Y-16076446D01*
X42658673Y-16091698D01*
X42837301Y-16270327D01*
X43070690Y-16367000D01*
X43286250Y-16367000D01*
X43445000Y-16208250D01*
X43445000Y-15459000D01*
X43699000Y-15459000D01*
X43699000Y-16208250D01*
X43857750Y-16367000D01*
X44073310Y-16367000D01*
X44306699Y-16270327D01*
X44485327Y-16091698D01*
X44582000Y-15858309D01*
X44582000Y-15647750D01*
X44662000Y-15647750D01*
X44662000Y-15888309D01*
X44758673Y-16121698D01*
X44937301Y-16300327D01*
X45170690Y-16397000D01*
X45386250Y-16397000D01*
X45545000Y-16238250D01*
X45545000Y-15489000D01*
X44820750Y-15489000D01*
X44662000Y-15647750D01*
X44582000Y-15647750D01*
X44582000Y-15617750D01*
X44423250Y-15459000D01*
X43699000Y-15459000D01*
X43445000Y-15459000D01*
X43425000Y-15459000D01*
X43425000Y-15205000D01*
X43445000Y-15205000D01*
X43445000Y-15185000D01*
X43699000Y-15185000D01*
X43699000Y-15205000D01*
X44423250Y-15205000D01*
X44582000Y-15046250D01*
X44582000Y-14805691D01*
X44530395Y-14681104D01*
X44559885Y-14693350D01*
G36*
X37629000Y-9945000D02*
X37649000Y-9945000D01*
X37649000Y-10199000D01*
X37629000Y-10199000D01*
X37629000Y-10948250D01*
X37787750Y-11107000D01*
X38003310Y-11107000D01*
X38236699Y-11010327D01*
X38415327Y-10831698D01*
X38432000Y-10791446D01*
X38448673Y-10831698D01*
X38627301Y-11010327D01*
X38860690Y-11107000D01*
X39076250Y-11107000D01*
X39235000Y-10948250D01*
X39235000Y-10199000D01*
X39215000Y-10199000D01*
X39215000Y-9945000D01*
X39235000Y-9945000D01*
X39235000Y-9925000D01*
X39489000Y-9925000D01*
X39489000Y-9945000D01*
X39509000Y-9945000D01*
X39509000Y-10199000D01*
X39489000Y-10199000D01*
X39489000Y-10948250D01*
X39647750Y-11107000D01*
X39863310Y-11107000D01*
X40096699Y-11010327D01*
X40275327Y-10831698D01*
X40303040Y-10764792D01*
X40327910Y-10803441D01*
X40540110Y-10948431D01*
X40792000Y-10999440D01*
X41429758Y-10999440D01*
X39654599Y-12774599D01*
X39535063Y-12953498D01*
X39506683Y-12958838D01*
X39290559Y-13097910D01*
X39145569Y-13310110D01*
X39094560Y-13562000D01*
X39094560Y-14062000D01*
X39138838Y-14297317D01*
X39277910Y-14513441D01*
X39347711Y-14561134D01*
X39290559Y-14597910D01*
X39145569Y-14810110D01*
X39094560Y-15062000D01*
X39094560Y-15562000D01*
X39138838Y-15797317D01*
X39277910Y-16013441D01*
X39490110Y-16158431D01*
X39681924Y-16197274D01*
X39447198Y-16432000D01*
X30740247Y-16432000D01*
X30793350Y-16304115D01*
X30793578Y-16043220D01*
X30913441Y-15966090D01*
X30949890Y-15912746D01*
X31039578Y-16002434D01*
X31310471Y-16183439D01*
X31630012Y-16247000D01*
X33854474Y-16247000D01*
X33915110Y-16288431D01*
X34167000Y-16339440D01*
X34917000Y-16339440D01*
X35152317Y-16295162D01*
X35368441Y-16156090D01*
X35513431Y-15943890D01*
X35564440Y-15692000D01*
X35564440Y-14892000D01*
X35520162Y-14656683D01*
X35453671Y-14553354D01*
X35455327Y-14551698D01*
X35552000Y-14318309D01*
X35552000Y-14077750D01*
X35393250Y-13919000D01*
X34669000Y-13919000D01*
X34669000Y-13939000D01*
X34415000Y-13939000D01*
X34415000Y-13919000D01*
X34395000Y-13919000D01*
X34395000Y-13665000D01*
X34415000Y-13665000D01*
X34415000Y-12915750D01*
X34669000Y-12915750D01*
X34669000Y-13665000D01*
X35393250Y-13665000D01*
X35552000Y-13506250D01*
X35552000Y-13265691D01*
X35455327Y-13032302D01*
X35276699Y-12853673D01*
X35043310Y-12757000D01*
X34827750Y-12757000D01*
X34669000Y-12915750D01*
X34415000Y-12915750D01*
X34256250Y-12757000D01*
X34040690Y-12757000D01*
X33914560Y-12809245D01*
X33949440Y-12637000D01*
X33949440Y-11892000D01*
X34547000Y-11892000D01*
X34837839Y-11834148D01*
X35084401Y-11669401D01*
X35654362Y-11099440D01*
X35977000Y-11099440D01*
X36212317Y-11055162D01*
X36428441Y-10916090D01*
X36549961Y-10738239D01*
X36588673Y-10831698D01*
X36767301Y-11010327D01*
X37000690Y-11107000D01*
X37216250Y-11107000D01*
X37375000Y-10948250D01*
X37375000Y-10199000D01*
X37355000Y-10199000D01*
X37355000Y-9945000D01*
X37375000Y-9945000D01*
X37375000Y-9925000D01*
X37629000Y-9925000D01*
X37629000Y-9945000D01*
X37629000Y-9945000D01*
G37*
X37629000Y-9945000D02*
X37649000Y-9945000D01*
X37649000Y-10199000D01*
X37629000Y-10199000D01*
X37629000Y-10948250D01*
X37787750Y-11107000D01*
X38003310Y-11107000D01*
X38236699Y-11010327D01*
X38415327Y-10831698D01*
X38432000Y-10791446D01*
X38448673Y-10831698D01*
X38627301Y-11010327D01*
X38860690Y-11107000D01*
X39076250Y-11107000D01*
X39235000Y-10948250D01*
X39235000Y-10199000D01*
X39215000Y-10199000D01*
X39215000Y-9945000D01*
X39235000Y-9945000D01*
X39235000Y-9925000D01*
X39489000Y-9925000D01*
X39489000Y-9945000D01*
X39509000Y-9945000D01*
X39509000Y-10199000D01*
X39489000Y-10199000D01*
X39489000Y-10948250D01*
X39647750Y-11107000D01*
X39863310Y-11107000D01*
X40096699Y-11010327D01*
X40275327Y-10831698D01*
X40303040Y-10764792D01*
X40327910Y-10803441D01*
X40540110Y-10948431D01*
X40792000Y-10999440D01*
X41429758Y-10999440D01*
X39654599Y-12774599D01*
X39535063Y-12953498D01*
X39506683Y-12958838D01*
X39290559Y-13097910D01*
X39145569Y-13310110D01*
X39094560Y-13562000D01*
X39094560Y-14062000D01*
X39138838Y-14297317D01*
X39277910Y-14513441D01*
X39347711Y-14561134D01*
X39290559Y-14597910D01*
X39145569Y-14810110D01*
X39094560Y-15062000D01*
X39094560Y-15562000D01*
X39138838Y-15797317D01*
X39277910Y-16013441D01*
X39490110Y-16158431D01*
X39681924Y-16197274D01*
X39447198Y-16432000D01*
X30740247Y-16432000D01*
X30793350Y-16304115D01*
X30793578Y-16043220D01*
X30913441Y-15966090D01*
X30949890Y-15912746D01*
X31039578Y-16002434D01*
X31310471Y-16183439D01*
X31630012Y-16247000D01*
X33854474Y-16247000D01*
X33915110Y-16288431D01*
X34167000Y-16339440D01*
X34917000Y-16339440D01*
X35152317Y-16295162D01*
X35368441Y-16156090D01*
X35513431Y-15943890D01*
X35564440Y-15692000D01*
X35564440Y-14892000D01*
X35520162Y-14656683D01*
X35453671Y-14553354D01*
X35455327Y-14551698D01*
X35552000Y-14318309D01*
X35552000Y-14077750D01*
X35393250Y-13919000D01*
X34669000Y-13919000D01*
X34669000Y-13939000D01*
X34415000Y-13939000D01*
X34415000Y-13919000D01*
X34395000Y-13919000D01*
X34395000Y-13665000D01*
X34415000Y-13665000D01*
X34415000Y-12915750D01*
X34669000Y-12915750D01*
X34669000Y-13665000D01*
X35393250Y-13665000D01*
X35552000Y-13506250D01*
X35552000Y-13265691D01*
X35455327Y-13032302D01*
X35276699Y-12853673D01*
X35043310Y-12757000D01*
X34827750Y-12757000D01*
X34669000Y-12915750D01*
X34415000Y-12915750D01*
X34256250Y-12757000D01*
X34040690Y-12757000D01*
X33914560Y-12809245D01*
X33949440Y-12637000D01*
X33949440Y-11892000D01*
X34547000Y-11892000D01*
X34837839Y-11834148D01*
X35084401Y-11669401D01*
X35654362Y-11099440D01*
X35977000Y-11099440D01*
X36212317Y-11055162D01*
X36428441Y-10916090D01*
X36549961Y-10738239D01*
X36588673Y-10831698D01*
X36767301Y-11010327D01*
X37000690Y-11107000D01*
X37216250Y-11107000D01*
X37375000Y-10948250D01*
X37375000Y-10199000D01*
X37355000Y-10199000D01*
X37355000Y-9945000D01*
X37375000Y-9945000D01*
X37375000Y-9925000D01*
X37629000Y-9925000D01*
X37629000Y-9945000D01*
G36*
X8737910Y-11053441D02*
X8950110Y-11198431D01*
X9202000Y-11249440D01*
X9529943Y-11249440D01*
X9542000Y-11278621D01*
X9542000Y-11702769D01*
X9386890Y-11638524D01*
X9157000Y-11759845D01*
X9157000Y-12953000D01*
X9177000Y-12953000D01*
X9177000Y-13207000D01*
X9157000Y-13207000D01*
X9157000Y-15493000D01*
X9177000Y-15493000D01*
X9177000Y-15747000D01*
X9157000Y-15747000D01*
X9157000Y-15767000D01*
X8903000Y-15767000D01*
X8903000Y-15747000D01*
X8883000Y-15747000D01*
X8883000Y-15493000D01*
X8903000Y-15493000D01*
X8903000Y-13207000D01*
X7709181Y-13207000D01*
X7588514Y-13436892D01*
X7834817Y-13961358D01*
X8261271Y-14350000D01*
X7834817Y-14738642D01*
X7721277Y-14980409D01*
X7579009Y-14838141D01*
X7552770Y-14774637D01*
X7310638Y-14532082D01*
X7246188Y-14505320D01*
X6777000Y-14036132D01*
X6777000Y-12723108D01*
X7588514Y-12723108D01*
X7709181Y-12953000D01*
X8903000Y-12953000D01*
X8903000Y-11759845D01*
X8673110Y-11638524D01*
X8263076Y-11808355D01*
X7834817Y-12198642D01*
X7588514Y-12723108D01*
X6777000Y-12723108D01*
X6777000Y-12536347D01*
X6810681Y-12550333D01*
X7153407Y-12550632D01*
X7470159Y-12419753D01*
X7712714Y-12177621D01*
X7720904Y-12157898D01*
X8489401Y-11389401D01*
X8654148Y-11142839D01*
X8675974Y-11033111D01*
X8701134Y-10996289D01*
X8737910Y-11053441D01*
X8737910Y-11053441D01*
G37*
X8737910Y-11053441D02*
X8950110Y-11198431D01*
X9202000Y-11249440D01*
X9529943Y-11249440D01*
X9542000Y-11278621D01*
X9542000Y-11702769D01*
X9386890Y-11638524D01*
X9157000Y-11759845D01*
X9157000Y-12953000D01*
X9177000Y-12953000D01*
X9177000Y-13207000D01*
X9157000Y-13207000D01*
X9157000Y-15493000D01*
X9177000Y-15493000D01*
X9177000Y-15747000D01*
X9157000Y-15747000D01*
X9157000Y-15767000D01*
X8903000Y-15767000D01*
X8903000Y-15747000D01*
X8883000Y-15747000D01*
X8883000Y-15493000D01*
X8903000Y-15493000D01*
X8903000Y-13207000D01*
X7709181Y-13207000D01*
X7588514Y-13436892D01*
X7834817Y-13961358D01*
X8261271Y-14350000D01*
X7834817Y-14738642D01*
X7721277Y-14980409D01*
X7579009Y-14838141D01*
X7552770Y-14774637D01*
X7310638Y-14532082D01*
X7246188Y-14505320D01*
X6777000Y-14036132D01*
X6777000Y-12723108D01*
X7588514Y-12723108D01*
X7709181Y-12953000D01*
X8903000Y-12953000D01*
X8903000Y-11759845D01*
X8673110Y-11638524D01*
X8263076Y-11808355D01*
X7834817Y-12198642D01*
X7588514Y-12723108D01*
X6777000Y-12723108D01*
X6777000Y-12536347D01*
X6810681Y-12550333D01*
X7153407Y-12550632D01*
X7470159Y-12419753D01*
X7712714Y-12177621D01*
X7720904Y-12157898D01*
X8489401Y-11389401D01*
X8654148Y-11142839D01*
X8675974Y-11033111D01*
X8701134Y-10996289D01*
X8737910Y-11053441D01*
G36*
X18719000Y-15115000D02*
X18739000Y-15115000D01*
X18739000Y-15369000D01*
X18719000Y-15369000D01*
X18719000Y-15389000D01*
X18465000Y-15389000D01*
X18465000Y-15369000D01*
X18445000Y-15369000D01*
X18445000Y-15115000D01*
X18465000Y-15115000D01*
X18465000Y-15095000D01*
X18719000Y-15095000D01*
X18719000Y-15115000D01*
X18719000Y-15115000D01*
G37*
X18719000Y-15115000D02*
X18739000Y-15115000D01*
X18739000Y-15369000D01*
X18719000Y-15369000D01*
X18719000Y-15389000D01*
X18465000Y-15389000D01*
X18465000Y-15369000D01*
X18445000Y-15369000D01*
X18445000Y-15115000D01*
X18465000Y-15115000D01*
X18465000Y-15095000D01*
X18719000Y-15095000D01*
X18719000Y-15115000D01*
G36*
X2229000Y-15025000D02*
X2249000Y-15025000D01*
X2249000Y-15279000D01*
X2229000Y-15279000D01*
X2229000Y-15299000D01*
X1975000Y-15299000D01*
X1975000Y-15279000D01*
X1955000Y-15279000D01*
X1955000Y-15025000D01*
X1975000Y-15025000D01*
X1975000Y-15005000D01*
X2229000Y-15005000D01*
X2229000Y-15025000D01*
X2229000Y-15025000D01*
G37*
X2229000Y-15025000D02*
X2249000Y-15025000D01*
X2249000Y-15279000D01*
X2229000Y-15279000D01*
X2229000Y-15299000D01*
X1975000Y-15299000D01*
X1975000Y-15279000D01*
X1955000Y-15279000D01*
X1955000Y-15025000D01*
X1975000Y-15025000D01*
X1975000Y-15005000D01*
X2229000Y-15005000D01*
X2229000Y-15025000D01*
G36*
X4028207Y-13198602D02*
X4802000Y-13972395D01*
X4816143Y-13958253D01*
X4995748Y-14137858D01*
X4981605Y-14152000D01*
X4995748Y-14166143D01*
X4816143Y-14345748D01*
X4802000Y-14331605D01*
X4787858Y-14345748D01*
X4608253Y-14166143D01*
X4622395Y-14152000D01*
X3848602Y-13378207D01*
X3610247Y-13443122D01*
X3609062Y-13446470D01*
X3498802Y-13336210D01*
X3369943Y-13250110D01*
X3211687Y-13144367D01*
X3138716Y-13129852D01*
X3001293Y-13102516D01*
X3073441Y-13056090D01*
X3083068Y-13042000D01*
X3195807Y-13042000D01*
X3439885Y-13143350D01*
X3782611Y-13143649D01*
X4076212Y-13022336D01*
X4028207Y-13198602D01*
X4028207Y-13198602D01*
G37*
X4028207Y-13198602D02*
X4802000Y-13972395D01*
X4816143Y-13958253D01*
X4995748Y-14137858D01*
X4981605Y-14152000D01*
X4995748Y-14166143D01*
X4816143Y-14345748D01*
X4802000Y-14331605D01*
X4787858Y-14345748D01*
X4608253Y-14166143D01*
X4622395Y-14152000D01*
X3848602Y-13378207D01*
X3610247Y-13443122D01*
X3609062Y-13446470D01*
X3498802Y-13336210D01*
X3369943Y-13250110D01*
X3211687Y-13144367D01*
X3138716Y-13129852D01*
X3001293Y-13102516D01*
X3073441Y-13056090D01*
X3083068Y-13042000D01*
X3195807Y-13042000D01*
X3439885Y-13143350D01*
X3782611Y-13143649D01*
X4076212Y-13022336D01*
X4028207Y-13198602D01*
G36*
X20359000Y-13625000D02*
X20379000Y-13625000D01*
X20379000Y-13879000D01*
X20359000Y-13879000D01*
X20359000Y-13899000D01*
X20105000Y-13899000D01*
X20105000Y-13879000D01*
X20085000Y-13879000D01*
X20085000Y-13625000D01*
X20105000Y-13625000D01*
X20105000Y-13605000D01*
X20359000Y-13605000D01*
X20359000Y-13625000D01*
X20359000Y-13625000D01*
G37*
X20359000Y-13625000D02*
X20379000Y-13625000D01*
X20379000Y-13879000D01*
X20359000Y-13879000D01*
X20359000Y-13899000D01*
X20105000Y-13899000D01*
X20105000Y-13879000D01*
X20085000Y-13879000D01*
X20085000Y-13625000D01*
X20105000Y-13625000D01*
X20105000Y-13605000D01*
X20359000Y-13605000D01*
X20359000Y-13625000D01*
G36*
X26409000Y-13595000D02*
X27133250Y-13595000D01*
X27147000Y-13581250D01*
X27170750Y-13605000D01*
X27895000Y-13605000D01*
X27895000Y-13585000D01*
X28149000Y-13585000D01*
X28149000Y-13605000D01*
X28169000Y-13605000D01*
X28169000Y-13844301D01*
X28136210Y-13866210D01*
X28136208Y-13866213D01*
X28123421Y-13879000D01*
X27895000Y-13879000D01*
X27895000Y-13859000D01*
X27170750Y-13859000D01*
X27157000Y-13872750D01*
X27133250Y-13849000D01*
X26409000Y-13849000D01*
X26409000Y-13869000D01*
X26155000Y-13869000D01*
X26155000Y-13849000D01*
X26135000Y-13849000D01*
X26135000Y-13595000D01*
X26155000Y-13595000D01*
X26155000Y-13575000D01*
X26409000Y-13575000D01*
X26409000Y-13595000D01*
X26409000Y-13595000D01*
G37*
X26409000Y-13595000D02*
X27133250Y-13595000D01*
X27147000Y-13581250D01*
X27170750Y-13605000D01*
X27895000Y-13605000D01*
X27895000Y-13585000D01*
X28149000Y-13585000D01*
X28149000Y-13605000D01*
X28169000Y-13605000D01*
X28169000Y-13844301D01*
X28136210Y-13866210D01*
X28136208Y-13866213D01*
X28123421Y-13879000D01*
X27895000Y-13879000D01*
X27895000Y-13859000D01*
X27170750Y-13859000D01*
X27157000Y-13872750D01*
X27133250Y-13849000D01*
X26409000Y-13849000D01*
X26409000Y-13869000D01*
X26155000Y-13869000D01*
X26155000Y-13849000D01*
X26135000Y-13849000D01*
X26135000Y-13595000D01*
X26155000Y-13595000D01*
X26155000Y-13575000D01*
X26409000Y-13575000D01*
X26409000Y-13595000D01*
G36*
X9176208Y-7137787D02*
X9176210Y-7137790D01*
X9189783Y-7146859D01*
X8966683Y-7188838D01*
X8750559Y-7327910D01*
X8702866Y-7397711D01*
X8666090Y-7340559D01*
X8453890Y-7195569D01*
X8202000Y-7144560D01*
X7702000Y-7144560D01*
X7466683Y-7188838D01*
X7386757Y-7240269D01*
X7420327Y-7206699D01*
X7517000Y-6973310D01*
X7517000Y-6757750D01*
X7358250Y-6599000D01*
X6609000Y-6599000D01*
X6609000Y-7323250D01*
X6767750Y-7482000D01*
X7008309Y-7482000D01*
X7199339Y-7402873D01*
X7105569Y-7540110D01*
X7054560Y-7792000D01*
X7054560Y-8064638D01*
X6464599Y-8654599D01*
X6299852Y-8901161D01*
X6242000Y-9192000D01*
X6242000Y-9403924D01*
X6234115Y-9400650D01*
X6156707Y-9400582D01*
X6174312Y-9350854D01*
X6145949Y-8810556D01*
X5993753Y-8443122D01*
X5755398Y-8378207D01*
X4981605Y-9152000D01*
X4995748Y-9166143D01*
X4816143Y-9345748D01*
X4802000Y-9331605D01*
X4028207Y-10105398D01*
X4093122Y-10343753D01*
X4603146Y-10524312D01*
X5107000Y-10497862D01*
X5107000Y-12817266D01*
X5000854Y-12779688D01*
X4460556Y-12808051D01*
X4193719Y-12918578D01*
X4341918Y-12770638D01*
X4473350Y-12454115D01*
X4473649Y-12111389D01*
X4342770Y-11794637D01*
X4100638Y-11552082D01*
X3784115Y-11420650D01*
X3441389Y-11420351D01*
X3195379Y-11522000D01*
X3090025Y-11522000D01*
X3160327Y-11451698D01*
X3257000Y-11218309D01*
X3257000Y-11125750D01*
X3098250Y-10967000D01*
X2299000Y-10967000D01*
X2299000Y-10989000D01*
X2045000Y-10989000D01*
X2045000Y-10967000D01*
X2025000Y-10967000D01*
X2025000Y-10717000D01*
X2045000Y-10717000D01*
X2045000Y-10115750D01*
X2299000Y-10115750D01*
X2299000Y-10717000D01*
X3098250Y-10717000D01*
X3257000Y-10558250D01*
X3257000Y-10465691D01*
X3160327Y-10232302D01*
X2981699Y-10053673D01*
X2748310Y-9957000D01*
X2457750Y-9957000D01*
X2299000Y-10115750D01*
X2045000Y-10115750D01*
X1886250Y-9957000D01*
X1597000Y-9957000D01*
X1597000Y-9378375D01*
X1625000Y-9387000D01*
X1975000Y-9387000D01*
X1975000Y-8279000D01*
X2229000Y-8279000D01*
X2229000Y-9387000D01*
X2579000Y-9387000D01*
X3041947Y-9244390D01*
X3415080Y-8935474D01*
X3478158Y-8816232D01*
X3429688Y-8953146D01*
X3458051Y-9493444D01*
X3610247Y-9860878D01*
X3848602Y-9925793D01*
X4622395Y-9152000D01*
X3848602Y-8378207D01*
X3625424Y-8438988D01*
X3520731Y-8279000D01*
X2229000Y-8279000D01*
X1975000Y-8279000D01*
X1955000Y-8279000D01*
X1955000Y-8198602D01*
X4028207Y-8198602D01*
X4802000Y-8972395D01*
X5575793Y-8198602D01*
X5510878Y-7960247D01*
X5000854Y-7779688D01*
X4460556Y-7808051D01*
X4093122Y-7960247D01*
X4028207Y-8198602D01*
X1955000Y-8198602D01*
X1955000Y-8025000D01*
X1975000Y-8025000D01*
X1975000Y-6917000D01*
X2229000Y-6917000D01*
X2229000Y-8025000D01*
X3520731Y-8025000D01*
X3645462Y-7834391D01*
X3641592Y-7796719D01*
X3415080Y-7368526D01*
X3041947Y-7059610D01*
X2579000Y-6917000D01*
X2229000Y-6917000D01*
X1975000Y-6917000D01*
X1625000Y-6917000D01*
X1597000Y-6925625D01*
X1597000Y-5998580D01*
X1728588Y-5866991D01*
X3981138Y-5866991D01*
X3934560Y-6097000D01*
X3934560Y-6847000D01*
X3978838Y-7082317D01*
X4117910Y-7298441D01*
X4330110Y-7443431D01*
X4582000Y-7494440D01*
X5382000Y-7494440D01*
X5617317Y-7450162D01*
X5720646Y-7383671D01*
X5722302Y-7385327D01*
X5955691Y-7482000D01*
X6196250Y-7482000D01*
X6355000Y-7323250D01*
X6355000Y-6599000D01*
X6335000Y-6599000D01*
X6335000Y-6345000D01*
X6355000Y-6345000D01*
X6355000Y-5620750D01*
X6609000Y-5620750D01*
X6609000Y-6345000D01*
X7358250Y-6345000D01*
X7517000Y-6186250D01*
X7517000Y-5970690D01*
X7420327Y-5737301D01*
X7241698Y-5558673D01*
X7008309Y-5462000D01*
X6767750Y-5462000D01*
X6609000Y-5620750D01*
X6355000Y-5620750D01*
X6319915Y-5585665D01*
X6753040Y-5152539D01*
X6972000Y-5196093D01*
X7190960Y-5152539D01*
X9176208Y-7137787D01*
X9176208Y-7137787D01*
G37*
X9176208Y-7137787D02*
X9176210Y-7137790D01*
X9189783Y-7146859D01*
X8966683Y-7188838D01*
X8750559Y-7327910D01*
X8702866Y-7397711D01*
X8666090Y-7340559D01*
X8453890Y-7195569D01*
X8202000Y-7144560D01*
X7702000Y-7144560D01*
X7466683Y-7188838D01*
X7386757Y-7240269D01*
X7420327Y-7206699D01*
X7517000Y-6973310D01*
X7517000Y-6757750D01*
X7358250Y-6599000D01*
X6609000Y-6599000D01*
X6609000Y-7323250D01*
X6767750Y-7482000D01*
X7008309Y-7482000D01*
X7199339Y-7402873D01*
X7105569Y-7540110D01*
X7054560Y-7792000D01*
X7054560Y-8064638D01*
X6464599Y-8654599D01*
X6299852Y-8901161D01*
X6242000Y-9192000D01*
X6242000Y-9403924D01*
X6234115Y-9400650D01*
X6156707Y-9400582D01*
X6174312Y-9350854D01*
X6145949Y-8810556D01*
X5993753Y-8443122D01*
X5755398Y-8378207D01*
X4981605Y-9152000D01*
X4995748Y-9166143D01*
X4816143Y-9345748D01*
X4802000Y-9331605D01*
X4028207Y-10105398D01*
X4093122Y-10343753D01*
X4603146Y-10524312D01*
X5107000Y-10497862D01*
X5107000Y-12817266D01*
X5000854Y-12779688D01*
X4460556Y-12808051D01*
X4193719Y-12918578D01*
X4341918Y-12770638D01*
X4473350Y-12454115D01*
X4473649Y-12111389D01*
X4342770Y-11794637D01*
X4100638Y-11552082D01*
X3784115Y-11420650D01*
X3441389Y-11420351D01*
X3195379Y-11522000D01*
X3090025Y-11522000D01*
X3160327Y-11451698D01*
X3257000Y-11218309D01*
X3257000Y-11125750D01*
X3098250Y-10967000D01*
X2299000Y-10967000D01*
X2299000Y-10989000D01*
X2045000Y-10989000D01*
X2045000Y-10967000D01*
X2025000Y-10967000D01*
X2025000Y-10717000D01*
X2045000Y-10717000D01*
X2045000Y-10115750D01*
X2299000Y-10115750D01*
X2299000Y-10717000D01*
X3098250Y-10717000D01*
X3257000Y-10558250D01*
X3257000Y-10465691D01*
X3160327Y-10232302D01*
X2981699Y-10053673D01*
X2748310Y-9957000D01*
X2457750Y-9957000D01*
X2299000Y-10115750D01*
X2045000Y-10115750D01*
X1886250Y-9957000D01*
X1597000Y-9957000D01*
X1597000Y-9378375D01*
X1625000Y-9387000D01*
X1975000Y-9387000D01*
X1975000Y-8279000D01*
X2229000Y-8279000D01*
X2229000Y-9387000D01*
X2579000Y-9387000D01*
X3041947Y-9244390D01*
X3415080Y-8935474D01*
X3478158Y-8816232D01*
X3429688Y-8953146D01*
X3458051Y-9493444D01*
X3610247Y-9860878D01*
X3848602Y-9925793D01*
X4622395Y-9152000D01*
X3848602Y-8378207D01*
X3625424Y-8438988D01*
X3520731Y-8279000D01*
X2229000Y-8279000D01*
X1975000Y-8279000D01*
X1955000Y-8279000D01*
X1955000Y-8198602D01*
X4028207Y-8198602D01*
X4802000Y-8972395D01*
X5575793Y-8198602D01*
X5510878Y-7960247D01*
X5000854Y-7779688D01*
X4460556Y-7808051D01*
X4093122Y-7960247D01*
X4028207Y-8198602D01*
X1955000Y-8198602D01*
X1955000Y-8025000D01*
X1975000Y-8025000D01*
X1975000Y-6917000D01*
X2229000Y-6917000D01*
X2229000Y-8025000D01*
X3520731Y-8025000D01*
X3645462Y-7834391D01*
X3641592Y-7796719D01*
X3415080Y-7368526D01*
X3041947Y-7059610D01*
X2579000Y-6917000D01*
X2229000Y-6917000D01*
X1975000Y-6917000D01*
X1625000Y-6917000D01*
X1597000Y-6925625D01*
X1597000Y-5998580D01*
X1728588Y-5866991D01*
X3981138Y-5866991D01*
X3934560Y-6097000D01*
X3934560Y-6847000D01*
X3978838Y-7082317D01*
X4117910Y-7298441D01*
X4330110Y-7443431D01*
X4582000Y-7494440D01*
X5382000Y-7494440D01*
X5617317Y-7450162D01*
X5720646Y-7383671D01*
X5722302Y-7385327D01*
X5955691Y-7482000D01*
X6196250Y-7482000D01*
X6355000Y-7323250D01*
X6355000Y-6599000D01*
X6335000Y-6599000D01*
X6335000Y-6345000D01*
X6355000Y-6345000D01*
X6355000Y-5620750D01*
X6609000Y-5620750D01*
X6609000Y-6345000D01*
X7358250Y-6345000D01*
X7517000Y-6186250D01*
X7517000Y-5970690D01*
X7420327Y-5737301D01*
X7241698Y-5558673D01*
X7008309Y-5462000D01*
X6767750Y-5462000D01*
X6609000Y-5620750D01*
X6355000Y-5620750D01*
X6319915Y-5585665D01*
X6753040Y-5152539D01*
X6972000Y-5196093D01*
X7190960Y-5152539D01*
X9176208Y-7137787D01*
G36*
X31274998Y-11309800D02*
X31274998Y-11410748D01*
X31116250Y-11252000D01*
X30875691Y-11252000D01*
X30642302Y-11348673D01*
X30463673Y-11527301D01*
X30367000Y-11760690D01*
X30367000Y-11976250D01*
X30525750Y-12135000D01*
X31275000Y-12135000D01*
X31275000Y-12115000D01*
X31382000Y-12115000D01*
X31382000Y-12409000D01*
X31275000Y-12409000D01*
X31275000Y-12389000D01*
X30525750Y-12389000D01*
X30374776Y-12539974D01*
X30164385Y-12329583D01*
X29917823Y-12164836D01*
X29626984Y-12106984D01*
X29065610Y-12106984D01*
X28981169Y-12022543D01*
X29359401Y-11644311D01*
X29524148Y-11397749D01*
X29582000Y-11106910D01*
X29582000Y-10979315D01*
X29632000Y-10989440D01*
X30532000Y-10989440D01*
X30767317Y-10945162D01*
X30854354Y-10889156D01*
X31274998Y-11309800D01*
X31274998Y-11309800D01*
G37*
X31274998Y-11309800D02*
X31274998Y-11410748D01*
X31116250Y-11252000D01*
X30875691Y-11252000D01*
X30642302Y-11348673D01*
X30463673Y-11527301D01*
X30367000Y-11760690D01*
X30367000Y-11976250D01*
X30525750Y-12135000D01*
X31275000Y-12135000D01*
X31275000Y-12115000D01*
X31382000Y-12115000D01*
X31382000Y-12409000D01*
X31275000Y-12409000D01*
X31275000Y-12389000D01*
X30525750Y-12389000D01*
X30374776Y-12539974D01*
X30164385Y-12329583D01*
X29917823Y-12164836D01*
X29626984Y-12106984D01*
X29065610Y-12106984D01*
X28981169Y-12022543D01*
X29359401Y-11644311D01*
X29524148Y-11397749D01*
X29582000Y-11106910D01*
X29582000Y-10979315D01*
X29632000Y-10989440D01*
X30532000Y-10989440D01*
X30767317Y-10945162D01*
X30854354Y-10889156D01*
X31274998Y-11309800D01*
G36*
X26920750Y-9925000D02*
X27645000Y-9925000D01*
X27645000Y-9905000D01*
X27899000Y-9905000D01*
X27899000Y-9925000D01*
X27919000Y-9925000D01*
X27919000Y-10179000D01*
X27899000Y-10179000D01*
X27899000Y-10199000D01*
X27645000Y-10199000D01*
X27645000Y-10179000D01*
X26920750Y-10179000D01*
X26837000Y-10262750D01*
X26743250Y-10169000D01*
X26019000Y-10169000D01*
X26019000Y-10918250D01*
X26177750Y-11077000D01*
X26393310Y-11077000D01*
X26626699Y-10980327D01*
X26805327Y-10801698D01*
X26829929Y-10742304D01*
X26858673Y-10811698D01*
X27037301Y-10990327D01*
X27270690Y-11087000D01*
X27486250Y-11087000D01*
X27644998Y-10928252D01*
X27644998Y-11087000D01*
X27767108Y-11087000D01*
X27742108Y-11112000D01*
X21136802Y-11112000D01*
X21099315Y-11074513D01*
X21326699Y-10980327D01*
X21447000Y-10860025D01*
X21587301Y-11000327D01*
X21820690Y-11097000D01*
X22036250Y-11097000D01*
X22195000Y-10938250D01*
X22195000Y-10189000D01*
X22449000Y-10189000D01*
X22449000Y-10938250D01*
X22607750Y-11097000D01*
X22823310Y-11097000D01*
X23056699Y-11000327D01*
X23235327Y-10821698D01*
X23268213Y-10742304D01*
X23288673Y-10791698D01*
X23467301Y-10970327D01*
X23700690Y-11067000D01*
X23916250Y-11067000D01*
X24075000Y-10908250D01*
X24075000Y-10159000D01*
X24329000Y-10159000D01*
X24329000Y-10908250D01*
X24487750Y-11067000D01*
X24703310Y-11067000D01*
X24936699Y-10970327D01*
X25042000Y-10865025D01*
X25157301Y-10980327D01*
X25390690Y-11077000D01*
X25606250Y-11077000D01*
X25765000Y-10918250D01*
X25765000Y-10169000D01*
X25063250Y-10169000D01*
X25053250Y-10159000D01*
X24329000Y-10159000D01*
X24075000Y-10159000D01*
X23350750Y-10159000D01*
X23247000Y-10262750D01*
X23173250Y-10189000D01*
X22449000Y-10189000D01*
X22195000Y-10189000D01*
X21470750Y-10189000D01*
X21467000Y-10192750D01*
X21443250Y-10169000D01*
X20719000Y-10169000D01*
X20719000Y-10189000D01*
X20465000Y-10189000D01*
X20465000Y-10169000D01*
X20445000Y-10169000D01*
X20445000Y-9915000D01*
X20465000Y-9915000D01*
X20465000Y-9895000D01*
X20719000Y-9895000D01*
X20719000Y-9915000D01*
X21443250Y-9915000D01*
X21447000Y-9911250D01*
X21470750Y-9935000D01*
X22195000Y-9935000D01*
X22195000Y-9915000D01*
X22449000Y-9915000D01*
X22449000Y-9935000D01*
X23173250Y-9935000D01*
X23277000Y-9831250D01*
X23350750Y-9905000D01*
X24075000Y-9905000D01*
X24075000Y-9885000D01*
X24329000Y-9885000D01*
X24329000Y-9905000D01*
X25030750Y-9905000D01*
X25040750Y-9915000D01*
X25765000Y-9915000D01*
X25765000Y-9895000D01*
X26019000Y-9895000D01*
X26019000Y-9915000D01*
X26743250Y-9915000D01*
X26827000Y-9831250D01*
X26920750Y-9925000D01*
X26920750Y-9925000D01*
G37*
X26920750Y-9925000D02*
X27645000Y-9925000D01*
X27645000Y-9905000D01*
X27899000Y-9905000D01*
X27899000Y-9925000D01*
X27919000Y-9925000D01*
X27919000Y-10179000D01*
X27899000Y-10179000D01*
X27899000Y-10199000D01*
X27645000Y-10199000D01*
X27645000Y-10179000D01*
X26920750Y-10179000D01*
X26837000Y-10262750D01*
X26743250Y-10169000D01*
X26019000Y-10169000D01*
X26019000Y-10918250D01*
X26177750Y-11077000D01*
X26393310Y-11077000D01*
X26626699Y-10980327D01*
X26805327Y-10801698D01*
X26829929Y-10742304D01*
X26858673Y-10811698D01*
X27037301Y-10990327D01*
X27270690Y-11087000D01*
X27486250Y-11087000D01*
X27644998Y-10928252D01*
X27644998Y-11087000D01*
X27767108Y-11087000D01*
X27742108Y-11112000D01*
X21136802Y-11112000D01*
X21099315Y-11074513D01*
X21326699Y-10980327D01*
X21447000Y-10860025D01*
X21587301Y-11000327D01*
X21820690Y-11097000D01*
X22036250Y-11097000D01*
X22195000Y-10938250D01*
X22195000Y-10189000D01*
X22449000Y-10189000D01*
X22449000Y-10938250D01*
X22607750Y-11097000D01*
X22823310Y-11097000D01*
X23056699Y-11000327D01*
X23235327Y-10821698D01*
X23268213Y-10742304D01*
X23288673Y-10791698D01*
X23467301Y-10970327D01*
X23700690Y-11067000D01*
X23916250Y-11067000D01*
X24075000Y-10908250D01*
X24075000Y-10159000D01*
X24329000Y-10159000D01*
X24329000Y-10908250D01*
X24487750Y-11067000D01*
X24703310Y-11067000D01*
X24936699Y-10970327D01*
X25042000Y-10865025D01*
X25157301Y-10980327D01*
X25390690Y-11077000D01*
X25606250Y-11077000D01*
X25765000Y-10918250D01*
X25765000Y-10169000D01*
X25063250Y-10169000D01*
X25053250Y-10159000D01*
X24329000Y-10159000D01*
X24075000Y-10159000D01*
X23350750Y-10159000D01*
X23247000Y-10262750D01*
X23173250Y-10189000D01*
X22449000Y-10189000D01*
X22195000Y-10189000D01*
X21470750Y-10189000D01*
X21467000Y-10192750D01*
X21443250Y-10169000D01*
X20719000Y-10169000D01*
X20719000Y-10189000D01*
X20465000Y-10189000D01*
X20465000Y-10169000D01*
X20445000Y-10169000D01*
X20445000Y-9915000D01*
X20465000Y-9915000D01*
X20465000Y-9895000D01*
X20719000Y-9895000D01*
X20719000Y-9915000D01*
X21443250Y-9915000D01*
X21447000Y-9911250D01*
X21470750Y-9935000D01*
X22195000Y-9935000D01*
X22195000Y-9915000D01*
X22449000Y-9915000D01*
X22449000Y-9935000D01*
X23173250Y-9935000D01*
X23277000Y-9831250D01*
X23350750Y-9905000D01*
X24075000Y-9905000D01*
X24075000Y-9885000D01*
X24329000Y-9885000D01*
X24329000Y-9905000D01*
X25030750Y-9905000D01*
X25040750Y-9915000D01*
X25765000Y-9915000D01*
X25765000Y-9895000D01*
X26019000Y-9895000D01*
X26019000Y-9915000D01*
X26743250Y-9915000D01*
X26827000Y-9831250D01*
X26920750Y-9925000D01*
G36*
X15192001Y-9496803D02*
X15192001Y-10392199D01*
X15059440Y-10259638D01*
X15059440Y-10037000D01*
X15033081Y-9896914D01*
X15047000Y-9863310D01*
X15047000Y-9697750D01*
X14888250Y-9539000D01*
X14807949Y-9539000D01*
X14663890Y-9440569D01*
X14526880Y-9412824D01*
X14647317Y-9390162D01*
X14810743Y-9285000D01*
X14888250Y-9285000D01*
X14934224Y-9239026D01*
X15192001Y-9496803D01*
X15192001Y-9496803D01*
G37*
X15192001Y-9496803D02*
X15192001Y-10392199D01*
X15059440Y-10259638D01*
X15059440Y-10037000D01*
X15033081Y-9896914D01*
X15047000Y-9863310D01*
X15047000Y-9697750D01*
X14888250Y-9539000D01*
X14807949Y-9539000D01*
X14663890Y-9440569D01*
X14526880Y-9412824D01*
X14647317Y-9390162D01*
X14810743Y-9285000D01*
X14888250Y-9285000D01*
X14934224Y-9239026D01*
X15192001Y-9496803D01*
G36*
X36799852Y-7565064D02*
X36785512Y-7637157D01*
X36675559Y-7707910D01*
X36554039Y-7885761D01*
X36515327Y-7792302D01*
X36336699Y-7613673D01*
X36103310Y-7517000D01*
X35887750Y-7517000D01*
X35729000Y-7675750D01*
X35729000Y-8425000D01*
X35749000Y-8425000D01*
X35749000Y-8679000D01*
X35729000Y-8679000D01*
X35729000Y-8699000D01*
X35475000Y-8699000D01*
X35475000Y-8679000D01*
X34750750Y-8679000D01*
X34737000Y-8692750D01*
X34723250Y-8679000D01*
X33999000Y-8679000D01*
X33999000Y-8699000D01*
X33745000Y-8699000D01*
X33745000Y-8679000D01*
X33725000Y-8679000D01*
X33725000Y-8425000D01*
X33745000Y-8425000D01*
X33745000Y-7675750D01*
X33999000Y-7675750D01*
X33999000Y-8425000D01*
X34723250Y-8425000D01*
X34737000Y-8411250D01*
X34750750Y-8425000D01*
X35475000Y-8425000D01*
X35475000Y-7675750D01*
X35316250Y-7517000D01*
X35100690Y-7517000D01*
X34867301Y-7613673D01*
X34737000Y-7743975D01*
X34606699Y-7613673D01*
X34373310Y-7517000D01*
X34157750Y-7517000D01*
X33999000Y-7675750D01*
X33745000Y-7675750D01*
X33586250Y-7517000D01*
X33370690Y-7517000D01*
X33137301Y-7613673D01*
X32958673Y-7792302D01*
X32862000Y-8025691D01*
X32862000Y-8141314D01*
X32418702Y-7957241D01*
X31867715Y-7956760D01*
X31815354Y-7978395D01*
X31682839Y-7889852D01*
X31392000Y-7832000D01*
X30910386Y-7832000D01*
X30783890Y-7745569D01*
X30532000Y-7694560D01*
X30142000Y-7694560D01*
X30142000Y-7615988D01*
X30114353Y-7477000D01*
X36858694Y-7477000D01*
X36799852Y-7565064D01*
X36799852Y-7565064D01*
G37*
X36799852Y-7565064D02*
X36785512Y-7637157D01*
X36675559Y-7707910D01*
X36554039Y-7885761D01*
X36515327Y-7792302D01*
X36336699Y-7613673D01*
X36103310Y-7517000D01*
X35887750Y-7517000D01*
X35729000Y-7675750D01*
X35729000Y-8425000D01*
X35749000Y-8425000D01*
X35749000Y-8679000D01*
X35729000Y-8679000D01*
X35729000Y-8699000D01*
X35475000Y-8699000D01*
X35475000Y-8679000D01*
X34750750Y-8679000D01*
X34737000Y-8692750D01*
X34723250Y-8679000D01*
X33999000Y-8679000D01*
X33999000Y-8699000D01*
X33745000Y-8699000D01*
X33745000Y-8679000D01*
X33725000Y-8679000D01*
X33725000Y-8425000D01*
X33745000Y-8425000D01*
X33745000Y-7675750D01*
X33999000Y-7675750D01*
X33999000Y-8425000D01*
X34723250Y-8425000D01*
X34737000Y-8411250D01*
X34750750Y-8425000D01*
X35475000Y-8425000D01*
X35475000Y-7675750D01*
X35316250Y-7517000D01*
X35100690Y-7517000D01*
X34867301Y-7613673D01*
X34737000Y-7743975D01*
X34606699Y-7613673D01*
X34373310Y-7517000D01*
X34157750Y-7517000D01*
X33999000Y-7675750D01*
X33745000Y-7675750D01*
X33586250Y-7517000D01*
X33370690Y-7517000D01*
X33137301Y-7613673D01*
X32958673Y-7792302D01*
X32862000Y-8025691D01*
X32862000Y-8141314D01*
X32418702Y-7957241D01*
X31867715Y-7956760D01*
X31815354Y-7978395D01*
X31682839Y-7889852D01*
X31392000Y-7832000D01*
X30910386Y-7832000D01*
X30783890Y-7745569D01*
X30532000Y-7694560D01*
X30142000Y-7694560D01*
X30142000Y-7615988D01*
X30114353Y-7477000D01*
X36858694Y-7477000D01*
X36799852Y-7565064D01*
G36*
X41481946Y-4761147D02*
X41683896Y-4896085D01*
X41574637Y-4941230D01*
X41332082Y-5183362D01*
X41200650Y-5499885D01*
X41200351Y-5842611D01*
X41331230Y-6159363D01*
X41528499Y-6356977D01*
X41528499Y-7717000D01*
X41527750Y-7717000D01*
X41369000Y-7875750D01*
X41369000Y-8477000D01*
X41389000Y-8477000D01*
X41389000Y-8510419D01*
X41311389Y-8510351D01*
X41095000Y-8599761D01*
X41095000Y-8477000D01*
X41115000Y-8477000D01*
X41115000Y-7875750D01*
X40956250Y-7717000D01*
X40665690Y-7717000D01*
X40624911Y-7733891D01*
X40821166Y-7537636D01*
X40985913Y-7291074D01*
X41043765Y-7000235D01*
X41043765Y-6349958D01*
X41145115Y-6105880D01*
X41145414Y-5763154D01*
X41014535Y-5446402D01*
X40772403Y-5203847D01*
X40507018Y-5093649D01*
X40560285Y-5083054D01*
X41042054Y-4761147D01*
X41262000Y-4431974D01*
X41481946Y-4761147D01*
X41481946Y-4761147D01*
G37*
X41481946Y-4761147D02*
X41683896Y-4896085D01*
X41574637Y-4941230D01*
X41332082Y-5183362D01*
X41200650Y-5499885D01*
X41200351Y-5842611D01*
X41331230Y-6159363D01*
X41528499Y-6356977D01*
X41528499Y-7717000D01*
X41527750Y-7717000D01*
X41369000Y-7875750D01*
X41369000Y-8477000D01*
X41389000Y-8477000D01*
X41389000Y-8510419D01*
X41311389Y-8510351D01*
X41095000Y-8599761D01*
X41095000Y-8477000D01*
X41115000Y-8477000D01*
X41115000Y-7875750D01*
X40956250Y-7717000D01*
X40665690Y-7717000D01*
X40624911Y-7733891D01*
X40821166Y-7537636D01*
X40985913Y-7291074D01*
X41043765Y-7000235D01*
X41043765Y-6349958D01*
X41145115Y-6105880D01*
X41145414Y-5763154D01*
X41014535Y-5446402D01*
X40772403Y-5203847D01*
X40507018Y-5093649D01*
X40560285Y-5083054D01*
X41042054Y-4761147D01*
X41262000Y-4431974D01*
X41481946Y-4761147D01*
G36*
X46561946Y-4761147D02*
X46914926Y-4997000D01*
X46795691Y-4997000D01*
X46562302Y-5093673D01*
X46383673Y-5272301D01*
X46287000Y-5505690D01*
X46287000Y-6196250D01*
X46445750Y-6355000D01*
X47645000Y-6355000D01*
X47645000Y-6335000D01*
X47899000Y-6335000D01*
X47899000Y-6355000D01*
X47919000Y-6355000D01*
X47919000Y-6609000D01*
X47899000Y-6609000D01*
X47899000Y-6629000D01*
X47645000Y-6629000D01*
X47645000Y-6609000D01*
X46445750Y-6609000D01*
X46287000Y-6767750D01*
X46287000Y-7458310D01*
X46383673Y-7691699D01*
X46562302Y-7870327D01*
X46736777Y-7942597D01*
X46692853Y-7971946D01*
X46499046Y-8262000D01*
X46195603Y-8262000D01*
X45929500Y-8314932D01*
X45929500Y-5112238D01*
X45493567Y-5112238D01*
X45640285Y-5083054D01*
X46122054Y-4761147D01*
X46342000Y-4431974D01*
X46561946Y-4761147D01*
X46561946Y-4761147D01*
G37*
X46561946Y-4761147D02*
X46914926Y-4997000D01*
X46795691Y-4997000D01*
X46562302Y-5093673D01*
X46383673Y-5272301D01*
X46287000Y-5505690D01*
X46287000Y-6196250D01*
X46445750Y-6355000D01*
X47645000Y-6355000D01*
X47645000Y-6335000D01*
X47899000Y-6335000D01*
X47899000Y-6355000D01*
X47919000Y-6355000D01*
X47919000Y-6609000D01*
X47899000Y-6609000D01*
X47899000Y-6629000D01*
X47645000Y-6629000D01*
X47645000Y-6609000D01*
X46445750Y-6609000D01*
X46287000Y-6767750D01*
X46287000Y-7458310D01*
X46383673Y-7691699D01*
X46562302Y-7870327D01*
X46736777Y-7942597D01*
X46692853Y-7971946D01*
X46499046Y-8262000D01*
X46195603Y-8262000D01*
X45929500Y-8314932D01*
X45929500Y-5112238D01*
X45493567Y-5112238D01*
X45640285Y-5083054D01*
X46122054Y-4761147D01*
X46342000Y-4431974D01*
X46561946Y-4761147D01*
G36*
X26940652Y-6759885D02*
X26940353Y-7102611D01*
X27012000Y-7276010D01*
X27012000Y-7645156D01*
X26945559Y-7687910D01*
X26834231Y-7850844D01*
X26731090Y-7690559D01*
X26727000Y-7687764D01*
X26727000Y-6976795D01*
X26753203Y-6950638D01*
X26884635Y-6634115D01*
X26884676Y-6587595D01*
X27002553Y-6564148D01*
X27029369Y-6546230D01*
X26940652Y-6759885D01*
X26940652Y-6759885D01*
G37*
X26940652Y-6759885D02*
X26940353Y-7102611D01*
X27012000Y-7276010D01*
X27012000Y-7645156D01*
X26945559Y-7687910D01*
X26834231Y-7850844D01*
X26731090Y-7690559D01*
X26727000Y-7687764D01*
X26727000Y-6976795D01*
X26753203Y-6950638D01*
X26884635Y-6634115D01*
X26884676Y-6587595D01*
X27002553Y-6564148D01*
X27029369Y-6546230D01*
X26940652Y-6759885D01*
G36*
X21044228Y-4584970D02*
X20328892Y-5300306D01*
X20084637Y-5401230D01*
X19842082Y-5643362D01*
X19710650Y-5959885D01*
X19710351Y-6302611D01*
X19841230Y-6619363D01*
X20083362Y-6861918D01*
X20399885Y-6993350D01*
X20742611Y-6993649D01*
X21059363Y-6862770D01*
X21301918Y-6620638D01*
X21403997Y-6374805D01*
X21644469Y-6134333D01*
X21753362Y-6243416D01*
X22020855Y-6354489D01*
X22059230Y-6447363D01*
X22301362Y-6689918D01*
X22617885Y-6821350D01*
X22960611Y-6821649D01*
X23277363Y-6690770D01*
X23346253Y-6622000D01*
X25057000Y-6622000D01*
X25057000Y-7647000D01*
X24991975Y-7647000D01*
X24828890Y-7535569D01*
X24577000Y-7484560D01*
X23827000Y-7484560D01*
X23591683Y-7528838D01*
X23375559Y-7667910D01*
X23369348Y-7677000D01*
X23111975Y-7677000D01*
X22948890Y-7565569D01*
X22697000Y-7514560D01*
X21947000Y-7514560D01*
X21711683Y-7558838D01*
X21528054Y-7677000D01*
X21411246Y-7677000D01*
X21218890Y-7545569D01*
X20967000Y-7494560D01*
X20217000Y-7494560D01*
X19981683Y-7538838D01*
X19829135Y-7637000D01*
X19283431Y-7637000D01*
X19222000Y-7624560D01*
X18359013Y-7624560D01*
X18363350Y-7614115D01*
X18363621Y-7303405D01*
X18400327Y-7266699D01*
X18497000Y-7033310D01*
X18497000Y-6817750D01*
X18338250Y-6659000D01*
X17862803Y-6659000D01*
X17674115Y-6580650D01*
X17331389Y-6580351D01*
X17315000Y-6587123D01*
X17315000Y-6405000D01*
X17335000Y-6405000D01*
X17335000Y-5680750D01*
X17589000Y-5680750D01*
X17589000Y-6405000D01*
X18338250Y-6405000D01*
X18497000Y-6246250D01*
X18497000Y-6030690D01*
X18400327Y-5797301D01*
X18221698Y-5618673D01*
X17988309Y-5522000D01*
X17747750Y-5522000D01*
X17589000Y-5680750D01*
X17335000Y-5680750D01*
X17176250Y-5522000D01*
X16935691Y-5522000D01*
X16702302Y-5618673D01*
X16700932Y-5620043D01*
X16613890Y-5560569D01*
X16362000Y-5509560D01*
X15989362Y-5509560D01*
X15883377Y-5403575D01*
X15883649Y-5091389D01*
X15752770Y-4774637D01*
X15681047Y-4702789D01*
X15862000Y-4431974D01*
X16081946Y-4761147D01*
X16563715Y-5083054D01*
X17132000Y-5196093D01*
X17700285Y-5083054D01*
X18182054Y-4761147D01*
X18402000Y-4431974D01*
X18621946Y-4761147D01*
X19103715Y-5083054D01*
X19672000Y-5196093D01*
X20240285Y-5083054D01*
X20722054Y-4761147D01*
X20942000Y-4431974D01*
X21044228Y-4584970D01*
X21044228Y-4584970D01*
G37*
X21044228Y-4584970D02*
X20328892Y-5300306D01*
X20084637Y-5401230D01*
X19842082Y-5643362D01*
X19710650Y-5959885D01*
X19710351Y-6302611D01*
X19841230Y-6619363D01*
X20083362Y-6861918D01*
X20399885Y-6993350D01*
X20742611Y-6993649D01*
X21059363Y-6862770D01*
X21301918Y-6620638D01*
X21403997Y-6374805D01*
X21644469Y-6134333D01*
X21753362Y-6243416D01*
X22020855Y-6354489D01*
X22059230Y-6447363D01*
X22301362Y-6689918D01*
X22617885Y-6821350D01*
X22960611Y-6821649D01*
X23277363Y-6690770D01*
X23346253Y-6622000D01*
X25057000Y-6622000D01*
X25057000Y-7647000D01*
X24991975Y-7647000D01*
X24828890Y-7535569D01*
X24577000Y-7484560D01*
X23827000Y-7484560D01*
X23591683Y-7528838D01*
X23375559Y-7667910D01*
X23369348Y-7677000D01*
X23111975Y-7677000D01*
X22948890Y-7565569D01*
X22697000Y-7514560D01*
X21947000Y-7514560D01*
X21711683Y-7558838D01*
X21528054Y-7677000D01*
X21411246Y-7677000D01*
X21218890Y-7545569D01*
X20967000Y-7494560D01*
X20217000Y-7494560D01*
X19981683Y-7538838D01*
X19829135Y-7637000D01*
X19283431Y-7637000D01*
X19222000Y-7624560D01*
X18359013Y-7624560D01*
X18363350Y-7614115D01*
X18363621Y-7303405D01*
X18400327Y-7266699D01*
X18497000Y-7033310D01*
X18497000Y-6817750D01*
X18338250Y-6659000D01*
X17862803Y-6659000D01*
X17674115Y-6580650D01*
X17331389Y-6580351D01*
X17315000Y-6587123D01*
X17315000Y-6405000D01*
X17335000Y-6405000D01*
X17335000Y-5680750D01*
X17589000Y-5680750D01*
X17589000Y-6405000D01*
X18338250Y-6405000D01*
X18497000Y-6246250D01*
X18497000Y-6030690D01*
X18400327Y-5797301D01*
X18221698Y-5618673D01*
X17988309Y-5522000D01*
X17747750Y-5522000D01*
X17589000Y-5680750D01*
X17335000Y-5680750D01*
X17176250Y-5522000D01*
X16935691Y-5522000D01*
X16702302Y-5618673D01*
X16700932Y-5620043D01*
X16613890Y-5560569D01*
X16362000Y-5509560D01*
X15989362Y-5509560D01*
X15883377Y-5403575D01*
X15883649Y-5091389D01*
X15752770Y-4774637D01*
X15681047Y-4702789D01*
X15862000Y-4431974D01*
X16081946Y-4761147D01*
X16563715Y-5083054D01*
X17132000Y-5196093D01*
X17700285Y-5083054D01*
X18182054Y-4761147D01*
X18402000Y-4431974D01*
X18621946Y-4761147D01*
X19103715Y-5083054D01*
X19672000Y-5196093D01*
X20240285Y-5083054D01*
X20722054Y-4761147D01*
X20942000Y-4431974D01*
X21044228Y-4584970D01*
G36*
X51290000Y-2260242D02*
X51253890Y-2235569D01*
X51002000Y-2184560D01*
X49302000Y-2184560D01*
X49170213Y-2209357D01*
X48202431Y-1241575D01*
X47931538Y-1060570D01*
X47611997Y-997009D01*
X39992003Y-997009D01*
X39672462Y-1060570D01*
X39401569Y-1241575D01*
X38225247Y-2417897D01*
X38020285Y-2280946D01*
X37452000Y-2167907D01*
X36883715Y-2280946D01*
X36401946Y-2602853D01*
X36182000Y-2932026D01*
X35962054Y-2602853D01*
X35480285Y-2280946D01*
X34912000Y-2167907D01*
X34343715Y-2280946D01*
X33861946Y-2602853D01*
X33642000Y-2932026D01*
X33422054Y-2602853D01*
X32940285Y-2280946D01*
X32372000Y-2167907D01*
X31803715Y-2280946D01*
X31321946Y-2602853D01*
X31102000Y-2932026D01*
X30882054Y-2602853D01*
X30400285Y-2280946D01*
X29832000Y-2167907D01*
X29263715Y-2280946D01*
X28781946Y-2602853D01*
X28562000Y-2932026D01*
X28342054Y-2602853D01*
X27860285Y-2280946D01*
X27292000Y-2167907D01*
X26723715Y-2280946D01*
X26241946Y-2602853D01*
X26022000Y-2932026D01*
X25802054Y-2602853D01*
X25320285Y-2280946D01*
X24752000Y-2167907D01*
X24183715Y-2280946D01*
X23701946Y-2602853D01*
X23482000Y-2932026D01*
X23262054Y-2602853D01*
X22780285Y-2280946D01*
X22212000Y-2167907D01*
X21643715Y-2280946D01*
X21161946Y-2602853D01*
X20942000Y-2932026D01*
X20722054Y-2602853D01*
X20240285Y-2280946D01*
X19672000Y-2167907D01*
X19103715Y-2280946D01*
X18621946Y-2602853D01*
X18402000Y-2932026D01*
X18182054Y-2602853D01*
X17700285Y-2280946D01*
X17132000Y-2167907D01*
X16563715Y-2280946D01*
X16081946Y-2602853D01*
X15862000Y-2932026D01*
X15642054Y-2602853D01*
X15160285Y-2280946D01*
X14592000Y-2167907D01*
X14023715Y-2280946D01*
X13541946Y-2602853D01*
X13322000Y-2932026D01*
X13102054Y-2602853D01*
X12620285Y-2280946D01*
X12052000Y-2167907D01*
X11483715Y-2280946D01*
X11001946Y-2602853D01*
X10782000Y-2932026D01*
X10562054Y-2602853D01*
X10080285Y-2280946D01*
X9512000Y-2167907D01*
X8943715Y-2280946D01*
X8461946Y-2602853D01*
X8242000Y-2932026D01*
X8022054Y-2602853D01*
X7540285Y-2280946D01*
X6972000Y-2167907D01*
X6403715Y-2280946D01*
X5921946Y-2602853D01*
X5694298Y-2943553D01*
X5627183Y-2800642D01*
X5198924Y-2410355D01*
X4788890Y-2240524D01*
X4559000Y-2361845D01*
X4559000Y-3555000D01*
X4579000Y-3555000D01*
X4579000Y-3809000D01*
X4559000Y-3809000D01*
X4559000Y-3829000D01*
X4305000Y-3829000D01*
X4305000Y-3809000D01*
X4285000Y-3809000D01*
X4285000Y-3555000D01*
X4305000Y-3555000D01*
X4305000Y-2361845D01*
X4075110Y-2240524D01*
X3665076Y-2410355D01*
X3236817Y-2800642D01*
X3169702Y-2943553D01*
X2942054Y-2602853D01*
X2460285Y-2280946D01*
X1892000Y-2167907D01*
X1323715Y-2280946D01*
X841946Y-2602853D01*
X710000Y-2800325D01*
X710000Y-710000D01*
X51290000Y-710000D01*
X51290000Y-2260242D01*
X51290000Y-2260242D01*
G37*
X51290000Y-2260242D02*
X51253890Y-2235569D01*
X51002000Y-2184560D01*
X49302000Y-2184560D01*
X49170213Y-2209357D01*
X48202431Y-1241575D01*
X47931538Y-1060570D01*
X47611997Y-997009D01*
X39992003Y-997009D01*
X39672462Y-1060570D01*
X39401569Y-1241575D01*
X38225247Y-2417897D01*
X38020285Y-2280946D01*
X37452000Y-2167907D01*
X36883715Y-2280946D01*
X36401946Y-2602853D01*
X36182000Y-2932026D01*
X35962054Y-2602853D01*
X35480285Y-2280946D01*
X34912000Y-2167907D01*
X34343715Y-2280946D01*
X33861946Y-2602853D01*
X33642000Y-2932026D01*
X33422054Y-2602853D01*
X32940285Y-2280946D01*
X32372000Y-2167907D01*
X31803715Y-2280946D01*
X31321946Y-2602853D01*
X31102000Y-2932026D01*
X30882054Y-2602853D01*
X30400285Y-2280946D01*
X29832000Y-2167907D01*
X29263715Y-2280946D01*
X28781946Y-2602853D01*
X28562000Y-2932026D01*
X28342054Y-2602853D01*
X27860285Y-2280946D01*
X27292000Y-2167907D01*
X26723715Y-2280946D01*
X26241946Y-2602853D01*
X26022000Y-2932026D01*
X25802054Y-2602853D01*
X25320285Y-2280946D01*
X24752000Y-2167907D01*
X24183715Y-2280946D01*
X23701946Y-2602853D01*
X23482000Y-2932026D01*
X23262054Y-2602853D01*
X22780285Y-2280946D01*
X22212000Y-2167907D01*
X21643715Y-2280946D01*
X21161946Y-2602853D01*
X20942000Y-2932026D01*
X20722054Y-2602853D01*
X20240285Y-2280946D01*
X19672000Y-2167907D01*
X19103715Y-2280946D01*
X18621946Y-2602853D01*
X18402000Y-2932026D01*
X18182054Y-2602853D01*
X17700285Y-2280946D01*
X17132000Y-2167907D01*
X16563715Y-2280946D01*
X16081946Y-2602853D01*
X15862000Y-2932026D01*
X15642054Y-2602853D01*
X15160285Y-2280946D01*
X14592000Y-2167907D01*
X14023715Y-2280946D01*
X13541946Y-2602853D01*
X13322000Y-2932026D01*
X13102054Y-2602853D01*
X12620285Y-2280946D01*
X12052000Y-2167907D01*
X11483715Y-2280946D01*
X11001946Y-2602853D01*
X10782000Y-2932026D01*
X10562054Y-2602853D01*
X10080285Y-2280946D01*
X9512000Y-2167907D01*
X8943715Y-2280946D01*
X8461946Y-2602853D01*
X8242000Y-2932026D01*
X8022054Y-2602853D01*
X7540285Y-2280946D01*
X6972000Y-2167907D01*
X6403715Y-2280946D01*
X5921946Y-2602853D01*
X5694298Y-2943553D01*
X5627183Y-2800642D01*
X5198924Y-2410355D01*
X4788890Y-2240524D01*
X4559000Y-2361845D01*
X4559000Y-3555000D01*
X4579000Y-3555000D01*
X4579000Y-3809000D01*
X4559000Y-3809000D01*
X4559000Y-3829000D01*
X4305000Y-3829000D01*
X4305000Y-3809000D01*
X4285000Y-3809000D01*
X4285000Y-3555000D01*
X4305000Y-3555000D01*
X4305000Y-2361845D01*
X4075110Y-2240524D01*
X3665076Y-2410355D01*
X3236817Y-2800642D01*
X3169702Y-2943553D01*
X2942054Y-2602853D01*
X2460285Y-2280946D01*
X1892000Y-2167907D01*
X1323715Y-2280946D01*
X841946Y-2602853D01*
X710000Y-2800325D01*
X710000Y-710000D01*
X51290000Y-710000D01*
X51290000Y-2260242D01*
G36*
X47739000Y-19055000D02*
X47759000Y-19055000D01*
X47759000Y-19309000D01*
X47739000Y-19309000D01*
X47739000Y-19329000D01*
X47485000Y-19329000D01*
X47485000Y-19309000D01*
X47465000Y-19309000D01*
X47465000Y-19055000D01*
X47485000Y-19055000D01*
X47485000Y-19035000D01*
X47739000Y-19035000D01*
X47739000Y-19055000D01*
X47739000Y-19055000D01*
G37*
X47739000Y-19055000D02*
X47759000Y-19055000D01*
X47759000Y-19309000D01*
X47739000Y-19309000D01*
X47739000Y-19329000D01*
X47485000Y-19329000D01*
X47485000Y-19309000D01*
X47465000Y-19309000D01*
X47465000Y-19055000D01*
X47485000Y-19055000D01*
X47485000Y-19035000D01*
X47739000Y-19035000D01*
X47739000Y-19055000D01*
G36*
X44559885Y-14693350D02*
X44720901Y-14693490D01*
X44662000Y-14835691D01*
X44662000Y-15076250D01*
X44820750Y-15235000D01*
X45545000Y-15235000D01*
X45545000Y-15215000D01*
X45799000Y-15215000D01*
X45799000Y-15235000D01*
X45819000Y-15235000D01*
X45819000Y-15489000D01*
X45799000Y-15489000D01*
X45799000Y-16238250D01*
X45957750Y-16397000D01*
X46173310Y-16397000D01*
X46318612Y-16336814D01*
X46257907Y-16642000D01*
X46370946Y-17210285D01*
X46692853Y-17692054D01*
X46952793Y-17865740D01*
X46845076Y-17910355D01*
X46416817Y-18300642D01*
X46349702Y-18443553D01*
X46122054Y-18102853D01*
X45640285Y-17780946D01*
X45072000Y-17667907D01*
X44503715Y-17780946D01*
X44021946Y-18102853D01*
X43802000Y-18432026D01*
X43582054Y-18102853D01*
X43100285Y-17780946D01*
X42532000Y-17667907D01*
X41963715Y-17780946D01*
X41481946Y-18102853D01*
X41262000Y-18432026D01*
X41042054Y-18102853D01*
X40792617Y-17936185D01*
X42652356Y-16076446D01*
X42658673Y-16091698D01*
X42837301Y-16270327D01*
X43070690Y-16367000D01*
X43286250Y-16367000D01*
X43445000Y-16208250D01*
X43445000Y-15459000D01*
X43699000Y-15459000D01*
X43699000Y-16208250D01*
X43857750Y-16367000D01*
X44073310Y-16367000D01*
X44306699Y-16270327D01*
X44485327Y-16091698D01*
X44582000Y-15858309D01*
X44582000Y-15647750D01*
X44662000Y-15647750D01*
X44662000Y-15888309D01*
X44758673Y-16121698D01*
X44937301Y-16300327D01*
X45170690Y-16397000D01*
X45386250Y-16397000D01*
X45545000Y-16238250D01*
X45545000Y-15489000D01*
X44820750Y-15489000D01*
X44662000Y-15647750D01*
X44582000Y-15647750D01*
X44582000Y-15617750D01*
X44423250Y-15459000D01*
X43699000Y-15459000D01*
X43445000Y-15459000D01*
X43425000Y-15459000D01*
X43425000Y-15205000D01*
X43445000Y-15205000D01*
X43445000Y-15185000D01*
X43699000Y-15185000D01*
X43699000Y-15205000D01*
X44423250Y-15205000D01*
X44582000Y-15046250D01*
X44582000Y-14805691D01*
X44530395Y-14681104D01*
X44559885Y-14693350D01*
X44559885Y-14693350D01*
G37*
X44559885Y-14693350D02*
X44720901Y-14693490D01*
X44662000Y-14835691D01*
X44662000Y-15076250D01*
X44820750Y-15235000D01*
X45545000Y-15235000D01*
X45545000Y-15215000D01*
X45799000Y-15215000D01*
X45799000Y-15235000D01*
X45819000Y-15235000D01*
X45819000Y-15489000D01*
X45799000Y-15489000D01*
X45799000Y-16238250D01*
X45957750Y-16397000D01*
X46173310Y-16397000D01*
X46318612Y-16336814D01*
X46257907Y-16642000D01*
X46370946Y-17210285D01*
X46692853Y-17692054D01*
X46952793Y-17865740D01*
X46845076Y-17910355D01*
X46416817Y-18300642D01*
X46349702Y-18443553D01*
X46122054Y-18102853D01*
X45640285Y-17780946D01*
X45072000Y-17667907D01*
X44503715Y-17780946D01*
X44021946Y-18102853D01*
X43802000Y-18432026D01*
X43582054Y-18102853D01*
X43100285Y-17780946D01*
X42532000Y-17667907D01*
X41963715Y-17780946D01*
X41481946Y-18102853D01*
X41262000Y-18432026D01*
X41042054Y-18102853D01*
X40792617Y-17936185D01*
X42652356Y-16076446D01*
X42658673Y-16091698D01*
X42837301Y-16270327D01*
X43070690Y-16367000D01*
X43286250Y-16367000D01*
X43445000Y-16208250D01*
X43445000Y-15459000D01*
X43699000Y-15459000D01*
X43699000Y-16208250D01*
X43857750Y-16367000D01*
X44073310Y-16367000D01*
X44306699Y-16270327D01*
X44485327Y-16091698D01*
X44582000Y-15858309D01*
X44582000Y-15647750D01*
X44662000Y-15647750D01*
X44662000Y-15888309D01*
X44758673Y-16121698D01*
X44937301Y-16300327D01*
X45170690Y-16397000D01*
X45386250Y-16397000D01*
X45545000Y-16238250D01*
X45545000Y-15489000D01*
X44820750Y-15489000D01*
X44662000Y-15647750D01*
X44582000Y-15647750D01*
X44582000Y-15617750D01*
X44423250Y-15459000D01*
X43699000Y-15459000D01*
X43445000Y-15459000D01*
X43425000Y-15459000D01*
X43425000Y-15205000D01*
X43445000Y-15205000D01*
X43445000Y-15185000D01*
X43699000Y-15185000D01*
X43699000Y-15205000D01*
X44423250Y-15205000D01*
X44582000Y-15046250D01*
X44582000Y-14805691D01*
X44530395Y-14681104D01*
X44559885Y-14693350D01*
G36*
X37629000Y-9945000D02*
X37649000Y-9945000D01*
X37649000Y-10199000D01*
X37629000Y-10199000D01*
X37629000Y-10948250D01*
X37787750Y-11107000D01*
X38003310Y-11107000D01*
X38236699Y-11010327D01*
X38415327Y-10831698D01*
X38432000Y-10791446D01*
X38448673Y-10831698D01*
X38627301Y-11010327D01*
X38860690Y-11107000D01*
X39076250Y-11107000D01*
X39235000Y-10948250D01*
X39235000Y-10199000D01*
X39215000Y-10199000D01*
X39215000Y-9945000D01*
X39235000Y-9945000D01*
X39235000Y-9925000D01*
X39489000Y-9925000D01*
X39489000Y-9945000D01*
X39509000Y-9945000D01*
X39509000Y-10199000D01*
X39489000Y-10199000D01*
X39489000Y-10948250D01*
X39647750Y-11107000D01*
X39863310Y-11107000D01*
X40096699Y-11010327D01*
X40275327Y-10831698D01*
X40303040Y-10764792D01*
X40327910Y-10803441D01*
X40540110Y-10948431D01*
X40792000Y-10999440D01*
X41429758Y-10999440D01*
X39654599Y-12774599D01*
X39535063Y-12953498D01*
X39506683Y-12958838D01*
X39290559Y-13097910D01*
X39145569Y-13310110D01*
X39094560Y-13562000D01*
X39094560Y-14062000D01*
X39138838Y-14297317D01*
X39277910Y-14513441D01*
X39347711Y-14561134D01*
X39290559Y-14597910D01*
X39145569Y-14810110D01*
X39094560Y-15062000D01*
X39094560Y-15562000D01*
X39138838Y-15797317D01*
X39277910Y-16013441D01*
X39490110Y-16158431D01*
X39681924Y-16197274D01*
X39447198Y-16432000D01*
X30740247Y-16432000D01*
X30793350Y-16304115D01*
X30793578Y-16043220D01*
X30913441Y-15966090D01*
X30949890Y-15912746D01*
X31039578Y-16002434D01*
X31310471Y-16183439D01*
X31630012Y-16247000D01*
X33854474Y-16247000D01*
X33915110Y-16288431D01*
X34167000Y-16339440D01*
X34917000Y-16339440D01*
X35152317Y-16295162D01*
X35368441Y-16156090D01*
X35513431Y-15943890D01*
X35564440Y-15692000D01*
X35564440Y-14892000D01*
X35520162Y-14656683D01*
X35453671Y-14553354D01*
X35455327Y-14551698D01*
X35552000Y-14318309D01*
X35552000Y-14077750D01*
X35393250Y-13919000D01*
X34669000Y-13919000D01*
X34669000Y-13939000D01*
X34415000Y-13939000D01*
X34415000Y-13919000D01*
X34395000Y-13919000D01*
X34395000Y-13665000D01*
X34415000Y-13665000D01*
X34415000Y-12915750D01*
X34669000Y-12915750D01*
X34669000Y-13665000D01*
X35393250Y-13665000D01*
X35552000Y-13506250D01*
X35552000Y-13265691D01*
X35455327Y-13032302D01*
X35276699Y-12853673D01*
X35043310Y-12757000D01*
X34827750Y-12757000D01*
X34669000Y-12915750D01*
X34415000Y-12915750D01*
X34256250Y-12757000D01*
X34040690Y-12757000D01*
X33914560Y-12809245D01*
X33949440Y-12637000D01*
X33949440Y-11892000D01*
X34547000Y-11892000D01*
X34837839Y-11834148D01*
X35084401Y-11669401D01*
X35654362Y-11099440D01*
X35977000Y-11099440D01*
X36212317Y-11055162D01*
X36428441Y-10916090D01*
X36549961Y-10738239D01*
X36588673Y-10831698D01*
X36767301Y-11010327D01*
X37000690Y-11107000D01*
X37216250Y-11107000D01*
X37375000Y-10948250D01*
X37375000Y-10199000D01*
X37355000Y-10199000D01*
X37355000Y-9945000D01*
X37375000Y-9945000D01*
X37375000Y-9925000D01*
X37629000Y-9925000D01*
X37629000Y-9945000D01*
X37629000Y-9945000D01*
G37*
X37629000Y-9945000D02*
X37649000Y-9945000D01*
X37649000Y-10199000D01*
X37629000Y-10199000D01*
X37629000Y-10948250D01*
X37787750Y-11107000D01*
X38003310Y-11107000D01*
X38236699Y-11010327D01*
X38415327Y-10831698D01*
X38432000Y-10791446D01*
X38448673Y-10831698D01*
X38627301Y-11010327D01*
X38860690Y-11107000D01*
X39076250Y-11107000D01*
X39235000Y-10948250D01*
X39235000Y-10199000D01*
X39215000Y-10199000D01*
X39215000Y-9945000D01*
X39235000Y-9945000D01*
X39235000Y-9925000D01*
X39489000Y-9925000D01*
X39489000Y-9945000D01*
X39509000Y-9945000D01*
X39509000Y-10199000D01*
X39489000Y-10199000D01*
X39489000Y-10948250D01*
X39647750Y-11107000D01*
X39863310Y-11107000D01*
X40096699Y-11010327D01*
X40275327Y-10831698D01*
X40303040Y-10764792D01*
X40327910Y-10803441D01*
X40540110Y-10948431D01*
X40792000Y-10999440D01*
X41429758Y-10999440D01*
X39654599Y-12774599D01*
X39535063Y-12953498D01*
X39506683Y-12958838D01*
X39290559Y-13097910D01*
X39145569Y-13310110D01*
X39094560Y-13562000D01*
X39094560Y-14062000D01*
X39138838Y-14297317D01*
X39277910Y-14513441D01*
X39347711Y-14561134D01*
X39290559Y-14597910D01*
X39145569Y-14810110D01*
X39094560Y-15062000D01*
X39094560Y-15562000D01*
X39138838Y-15797317D01*
X39277910Y-16013441D01*
X39490110Y-16158431D01*
X39681924Y-16197274D01*
X39447198Y-16432000D01*
X30740247Y-16432000D01*
X30793350Y-16304115D01*
X30793578Y-16043220D01*
X30913441Y-15966090D01*
X30949890Y-15912746D01*
X31039578Y-16002434D01*
X31310471Y-16183439D01*
X31630012Y-16247000D01*
X33854474Y-16247000D01*
X33915110Y-16288431D01*
X34167000Y-16339440D01*
X34917000Y-16339440D01*
X35152317Y-16295162D01*
X35368441Y-16156090D01*
X35513431Y-15943890D01*
X35564440Y-15692000D01*
X35564440Y-14892000D01*
X35520162Y-14656683D01*
X35453671Y-14553354D01*
X35455327Y-14551698D01*
X35552000Y-14318309D01*
X35552000Y-14077750D01*
X35393250Y-13919000D01*
X34669000Y-13919000D01*
X34669000Y-13939000D01*
X34415000Y-13939000D01*
X34415000Y-13919000D01*
X34395000Y-13919000D01*
X34395000Y-13665000D01*
X34415000Y-13665000D01*
X34415000Y-12915750D01*
X34669000Y-12915750D01*
X34669000Y-13665000D01*
X35393250Y-13665000D01*
X35552000Y-13506250D01*
X35552000Y-13265691D01*
X35455327Y-13032302D01*
X35276699Y-12853673D01*
X35043310Y-12757000D01*
X34827750Y-12757000D01*
X34669000Y-12915750D01*
X34415000Y-12915750D01*
X34256250Y-12757000D01*
X34040690Y-12757000D01*
X33914560Y-12809245D01*
X33949440Y-12637000D01*
X33949440Y-11892000D01*
X34547000Y-11892000D01*
X34837839Y-11834148D01*
X35084401Y-11669401D01*
X35654362Y-11099440D01*
X35977000Y-11099440D01*
X36212317Y-11055162D01*
X36428441Y-10916090D01*
X36549961Y-10738239D01*
X36588673Y-10831698D01*
X36767301Y-11010327D01*
X37000690Y-11107000D01*
X37216250Y-11107000D01*
X37375000Y-10948250D01*
X37375000Y-10199000D01*
X37355000Y-10199000D01*
X37355000Y-9945000D01*
X37375000Y-9945000D01*
X37375000Y-9925000D01*
X37629000Y-9925000D01*
X37629000Y-9945000D01*
G36*
X8737910Y-11053441D02*
X8950110Y-11198431D01*
X9202000Y-11249440D01*
X9529943Y-11249440D01*
X9542000Y-11278621D01*
X9542000Y-11702769D01*
X9386890Y-11638524D01*
X9157000Y-11759845D01*
X9157000Y-12953000D01*
X9177000Y-12953000D01*
X9177000Y-13207000D01*
X9157000Y-13207000D01*
X9157000Y-15493000D01*
X9177000Y-15493000D01*
X9177000Y-15747000D01*
X9157000Y-15747000D01*
X9157000Y-15767000D01*
X8903000Y-15767000D01*
X8903000Y-15747000D01*
X8883000Y-15747000D01*
X8883000Y-15493000D01*
X8903000Y-15493000D01*
X8903000Y-13207000D01*
X7709181Y-13207000D01*
X7588514Y-13436892D01*
X7834817Y-13961358D01*
X8261271Y-14350000D01*
X7834817Y-14738642D01*
X7721277Y-14980409D01*
X7579009Y-14838141D01*
X7552770Y-14774637D01*
X7310638Y-14532082D01*
X7246188Y-14505320D01*
X6777000Y-14036132D01*
X6777000Y-12723108D01*
X7588514Y-12723108D01*
X7709181Y-12953000D01*
X8903000Y-12953000D01*
X8903000Y-11759845D01*
X8673110Y-11638524D01*
X8263076Y-11808355D01*
X7834817Y-12198642D01*
X7588514Y-12723108D01*
X6777000Y-12723108D01*
X6777000Y-12536347D01*
X6810681Y-12550333D01*
X7153407Y-12550632D01*
X7470159Y-12419753D01*
X7712714Y-12177621D01*
X7720904Y-12157898D01*
X8489401Y-11389401D01*
X8654148Y-11142839D01*
X8675974Y-11033111D01*
X8701134Y-10996289D01*
X8737910Y-11053441D01*
X8737910Y-11053441D01*
G37*
X8737910Y-11053441D02*
X8950110Y-11198431D01*
X9202000Y-11249440D01*
X9529943Y-11249440D01*
X9542000Y-11278621D01*
X9542000Y-11702769D01*
X9386890Y-11638524D01*
X9157000Y-11759845D01*
X9157000Y-12953000D01*
X9177000Y-12953000D01*
X9177000Y-13207000D01*
X9157000Y-13207000D01*
X9157000Y-15493000D01*
X9177000Y-15493000D01*
X9177000Y-15747000D01*
X9157000Y-15747000D01*
X9157000Y-15767000D01*
X8903000Y-15767000D01*
X8903000Y-15747000D01*
X8883000Y-15747000D01*
X8883000Y-15493000D01*
X8903000Y-15493000D01*
X8903000Y-13207000D01*
X7709181Y-13207000D01*
X7588514Y-13436892D01*
X7834817Y-13961358D01*
X8261271Y-14350000D01*
X7834817Y-14738642D01*
X7721277Y-14980409D01*
X7579009Y-14838141D01*
X7552770Y-14774637D01*
X7310638Y-14532082D01*
X7246188Y-14505320D01*
X6777000Y-14036132D01*
X6777000Y-12723108D01*
X7588514Y-12723108D01*
X7709181Y-12953000D01*
X8903000Y-12953000D01*
X8903000Y-11759845D01*
X8673110Y-11638524D01*
X8263076Y-11808355D01*
X7834817Y-12198642D01*
X7588514Y-12723108D01*
X6777000Y-12723108D01*
X6777000Y-12536347D01*
X6810681Y-12550333D01*
X7153407Y-12550632D01*
X7470159Y-12419753D01*
X7712714Y-12177621D01*
X7720904Y-12157898D01*
X8489401Y-11389401D01*
X8654148Y-11142839D01*
X8675974Y-11033111D01*
X8701134Y-10996289D01*
X8737910Y-11053441D01*
G36*
X18719000Y-15115000D02*
X18739000Y-15115000D01*
X18739000Y-15369000D01*
X18719000Y-15369000D01*
X18719000Y-15389000D01*
X18465000Y-15389000D01*
X18465000Y-15369000D01*
X18445000Y-15369000D01*
X18445000Y-15115000D01*
X18465000Y-15115000D01*
X18465000Y-15095000D01*
X18719000Y-15095000D01*
X18719000Y-15115000D01*
X18719000Y-15115000D01*
G37*
X18719000Y-15115000D02*
X18739000Y-15115000D01*
X18739000Y-15369000D01*
X18719000Y-15369000D01*
X18719000Y-15389000D01*
X18465000Y-15389000D01*
X18465000Y-15369000D01*
X18445000Y-15369000D01*
X18445000Y-15115000D01*
X18465000Y-15115000D01*
X18465000Y-15095000D01*
X18719000Y-15095000D01*
X18719000Y-15115000D01*
G36*
X2229000Y-15025000D02*
X2249000Y-15025000D01*
X2249000Y-15279000D01*
X2229000Y-15279000D01*
X2229000Y-15299000D01*
X1975000Y-15299000D01*
X1975000Y-15279000D01*
X1955000Y-15279000D01*
X1955000Y-15025000D01*
X1975000Y-15025000D01*
X1975000Y-15005000D01*
X2229000Y-15005000D01*
X2229000Y-15025000D01*
X2229000Y-15025000D01*
G37*
X2229000Y-15025000D02*
X2249000Y-15025000D01*
X2249000Y-15279000D01*
X2229000Y-15279000D01*
X2229000Y-15299000D01*
X1975000Y-15299000D01*
X1975000Y-15279000D01*
X1955000Y-15279000D01*
X1955000Y-15025000D01*
X1975000Y-15025000D01*
X1975000Y-15005000D01*
X2229000Y-15005000D01*
X2229000Y-15025000D01*
G36*
X4028207Y-13198602D02*
X4802000Y-13972395D01*
X4816143Y-13958253D01*
X4995748Y-14137858D01*
X4981605Y-14152000D01*
X4995748Y-14166143D01*
X4816143Y-14345748D01*
X4802000Y-14331605D01*
X4787858Y-14345748D01*
X4608253Y-14166143D01*
X4622395Y-14152000D01*
X3848602Y-13378207D01*
X3610247Y-13443122D01*
X3609062Y-13446470D01*
X3498802Y-13336210D01*
X3369943Y-13250110D01*
X3211687Y-13144367D01*
X3138716Y-13129852D01*
X3001293Y-13102516D01*
X3073441Y-13056090D01*
X3083068Y-13042000D01*
X3195807Y-13042000D01*
X3439885Y-13143350D01*
X3782611Y-13143649D01*
X4076212Y-13022336D01*
X4028207Y-13198602D01*
X4028207Y-13198602D01*
G37*
X4028207Y-13198602D02*
X4802000Y-13972395D01*
X4816143Y-13958253D01*
X4995748Y-14137858D01*
X4981605Y-14152000D01*
X4995748Y-14166143D01*
X4816143Y-14345748D01*
X4802000Y-14331605D01*
X4787858Y-14345748D01*
X4608253Y-14166143D01*
X4622395Y-14152000D01*
X3848602Y-13378207D01*
X3610247Y-13443122D01*
X3609062Y-13446470D01*
X3498802Y-13336210D01*
X3369943Y-13250110D01*
X3211687Y-13144367D01*
X3138716Y-13129852D01*
X3001293Y-13102516D01*
X3073441Y-13056090D01*
X3083068Y-13042000D01*
X3195807Y-13042000D01*
X3439885Y-13143350D01*
X3782611Y-13143649D01*
X4076212Y-13022336D01*
X4028207Y-13198602D01*
G36*
X20359000Y-13625000D02*
X20379000Y-13625000D01*
X20379000Y-13879000D01*
X20359000Y-13879000D01*
X20359000Y-13899000D01*
X20105000Y-13899000D01*
X20105000Y-13879000D01*
X20085000Y-13879000D01*
X20085000Y-13625000D01*
X20105000Y-13625000D01*
X20105000Y-13605000D01*
X20359000Y-13605000D01*
X20359000Y-13625000D01*
X20359000Y-13625000D01*
G37*
X20359000Y-13625000D02*
X20379000Y-13625000D01*
X20379000Y-13879000D01*
X20359000Y-13879000D01*
X20359000Y-13899000D01*
X20105000Y-13899000D01*
X20105000Y-13879000D01*
X20085000Y-13879000D01*
X20085000Y-13625000D01*
X20105000Y-13625000D01*
X20105000Y-13605000D01*
X20359000Y-13605000D01*
X20359000Y-13625000D01*
G36*
X26409000Y-13595000D02*
X27133250Y-13595000D01*
X27147000Y-13581250D01*
X27170750Y-13605000D01*
X27895000Y-13605000D01*
X27895000Y-13585000D01*
X28149000Y-13585000D01*
X28149000Y-13605000D01*
X28169000Y-13605000D01*
X28169000Y-13844301D01*
X28136210Y-13866210D01*
X28136208Y-13866213D01*
X28123421Y-13879000D01*
X27895000Y-13879000D01*
X27895000Y-13859000D01*
X27170750Y-13859000D01*
X27157000Y-13872750D01*
X27133250Y-13849000D01*
X26409000Y-13849000D01*
X26409000Y-13869000D01*
X26155000Y-13869000D01*
X26155000Y-13849000D01*
X26135000Y-13849000D01*
X26135000Y-13595000D01*
X26155000Y-13595000D01*
X26155000Y-13575000D01*
X26409000Y-13575000D01*
X26409000Y-13595000D01*
X26409000Y-13595000D01*
G37*
X26409000Y-13595000D02*
X27133250Y-13595000D01*
X27147000Y-13581250D01*
X27170750Y-13605000D01*
X27895000Y-13605000D01*
X27895000Y-13585000D01*
X28149000Y-13585000D01*
X28149000Y-13605000D01*
X28169000Y-13605000D01*
X28169000Y-13844301D01*
X28136210Y-13866210D01*
X28136208Y-13866213D01*
X28123421Y-13879000D01*
X27895000Y-13879000D01*
X27895000Y-13859000D01*
X27170750Y-13859000D01*
X27157000Y-13872750D01*
X27133250Y-13849000D01*
X26409000Y-13849000D01*
X26409000Y-13869000D01*
X26155000Y-13869000D01*
X26155000Y-13849000D01*
X26135000Y-13849000D01*
X26135000Y-13595000D01*
X26155000Y-13595000D01*
X26155000Y-13575000D01*
X26409000Y-13575000D01*
X26409000Y-13595000D01*
G36*
X9176208Y-7137787D02*
X9176210Y-7137790D01*
X9189783Y-7146859D01*
X8966683Y-7188838D01*
X8750559Y-7327910D01*
X8702866Y-7397711D01*
X8666090Y-7340559D01*
X8453890Y-7195569D01*
X8202000Y-7144560D01*
X7702000Y-7144560D01*
X7466683Y-7188838D01*
X7386757Y-7240269D01*
X7420327Y-7206699D01*
X7517000Y-6973310D01*
X7517000Y-6757750D01*
X7358250Y-6599000D01*
X6609000Y-6599000D01*
X6609000Y-7323250D01*
X6767750Y-7482000D01*
X7008309Y-7482000D01*
X7199339Y-7402873D01*
X7105569Y-7540110D01*
X7054560Y-7792000D01*
X7054560Y-8064638D01*
X6464599Y-8654599D01*
X6299852Y-8901161D01*
X6242000Y-9192000D01*
X6242000Y-9403924D01*
X6234115Y-9400650D01*
X6156707Y-9400582D01*
X6174312Y-9350854D01*
X6145949Y-8810556D01*
X5993753Y-8443122D01*
X5755398Y-8378207D01*
X4981605Y-9152000D01*
X4995748Y-9166143D01*
X4816143Y-9345748D01*
X4802000Y-9331605D01*
X4028207Y-10105398D01*
X4093122Y-10343753D01*
X4603146Y-10524312D01*
X5107000Y-10497862D01*
X5107000Y-12817266D01*
X5000854Y-12779688D01*
X4460556Y-12808051D01*
X4193719Y-12918578D01*
X4341918Y-12770638D01*
X4473350Y-12454115D01*
X4473649Y-12111389D01*
X4342770Y-11794637D01*
X4100638Y-11552082D01*
X3784115Y-11420650D01*
X3441389Y-11420351D01*
X3195379Y-11522000D01*
X3090025Y-11522000D01*
X3160327Y-11451698D01*
X3257000Y-11218309D01*
X3257000Y-11125750D01*
X3098250Y-10967000D01*
X2299000Y-10967000D01*
X2299000Y-10989000D01*
X2045000Y-10989000D01*
X2045000Y-10967000D01*
X2025000Y-10967000D01*
X2025000Y-10717000D01*
X2045000Y-10717000D01*
X2045000Y-10115750D01*
X2299000Y-10115750D01*
X2299000Y-10717000D01*
X3098250Y-10717000D01*
X3257000Y-10558250D01*
X3257000Y-10465691D01*
X3160327Y-10232302D01*
X2981699Y-10053673D01*
X2748310Y-9957000D01*
X2457750Y-9957000D01*
X2299000Y-10115750D01*
X2045000Y-10115750D01*
X1886250Y-9957000D01*
X1597000Y-9957000D01*
X1597000Y-9378375D01*
X1625000Y-9387000D01*
X1975000Y-9387000D01*
X1975000Y-8279000D01*
X2229000Y-8279000D01*
X2229000Y-9387000D01*
X2579000Y-9387000D01*
X3041947Y-9244390D01*
X3415080Y-8935474D01*
X3478158Y-8816232D01*
X3429688Y-8953146D01*
X3458051Y-9493444D01*
X3610247Y-9860878D01*
X3848602Y-9925793D01*
X4622395Y-9152000D01*
X3848602Y-8378207D01*
X3625424Y-8438988D01*
X3520731Y-8279000D01*
X2229000Y-8279000D01*
X1975000Y-8279000D01*
X1955000Y-8279000D01*
X1955000Y-8198602D01*
X4028207Y-8198602D01*
X4802000Y-8972395D01*
X5575793Y-8198602D01*
X5510878Y-7960247D01*
X5000854Y-7779688D01*
X4460556Y-7808051D01*
X4093122Y-7960247D01*
X4028207Y-8198602D01*
X1955000Y-8198602D01*
X1955000Y-8025000D01*
X1975000Y-8025000D01*
X1975000Y-6917000D01*
X2229000Y-6917000D01*
X2229000Y-8025000D01*
X3520731Y-8025000D01*
X3645462Y-7834391D01*
X3641592Y-7796719D01*
X3415080Y-7368526D01*
X3041947Y-7059610D01*
X2579000Y-6917000D01*
X2229000Y-6917000D01*
X1975000Y-6917000D01*
X1625000Y-6917000D01*
X1597000Y-6925625D01*
X1597000Y-5998580D01*
X1728588Y-5866991D01*
X3981138Y-5866991D01*
X3934560Y-6097000D01*
X3934560Y-6847000D01*
X3978838Y-7082317D01*
X4117910Y-7298441D01*
X4330110Y-7443431D01*
X4582000Y-7494440D01*
X5382000Y-7494440D01*
X5617317Y-7450162D01*
X5720646Y-7383671D01*
X5722302Y-7385327D01*
X5955691Y-7482000D01*
X6196250Y-7482000D01*
X6355000Y-7323250D01*
X6355000Y-6599000D01*
X6335000Y-6599000D01*
X6335000Y-6345000D01*
X6355000Y-6345000D01*
X6355000Y-5620750D01*
X6609000Y-5620750D01*
X6609000Y-6345000D01*
X7358250Y-6345000D01*
X7517000Y-6186250D01*
X7517000Y-5970690D01*
X7420327Y-5737301D01*
X7241698Y-5558673D01*
X7008309Y-5462000D01*
X6767750Y-5462000D01*
X6609000Y-5620750D01*
X6355000Y-5620750D01*
X6319915Y-5585665D01*
X6753040Y-5152539D01*
X6972000Y-5196093D01*
X7190960Y-5152539D01*
X9176208Y-7137787D01*
X9176208Y-7137787D01*
G37*
X9176208Y-7137787D02*
X9176210Y-7137790D01*
X9189783Y-7146859D01*
X8966683Y-7188838D01*
X8750559Y-7327910D01*
X8702866Y-7397711D01*
X8666090Y-7340559D01*
X8453890Y-7195569D01*
X8202000Y-7144560D01*
X7702000Y-7144560D01*
X7466683Y-7188838D01*
X7386757Y-7240269D01*
X7420327Y-7206699D01*
X7517000Y-6973310D01*
X7517000Y-6757750D01*
X7358250Y-6599000D01*
X6609000Y-6599000D01*
X6609000Y-7323250D01*
X6767750Y-7482000D01*
X7008309Y-7482000D01*
X7199339Y-7402873D01*
X7105569Y-7540110D01*
X7054560Y-7792000D01*
X7054560Y-8064638D01*
X6464599Y-8654599D01*
X6299852Y-8901161D01*
X6242000Y-9192000D01*
X6242000Y-9403924D01*
X6234115Y-9400650D01*
X6156707Y-9400582D01*
X6174312Y-9350854D01*
X6145949Y-8810556D01*
X5993753Y-8443122D01*
X5755398Y-8378207D01*
X4981605Y-9152000D01*
X4995748Y-9166143D01*
X4816143Y-9345748D01*
X4802000Y-9331605D01*
X4028207Y-10105398D01*
X4093122Y-10343753D01*
X4603146Y-10524312D01*
X5107000Y-10497862D01*
X5107000Y-12817266D01*
X5000854Y-12779688D01*
X4460556Y-12808051D01*
X4193719Y-12918578D01*
X4341918Y-12770638D01*
X4473350Y-12454115D01*
X4473649Y-12111389D01*
X4342770Y-11794637D01*
X4100638Y-11552082D01*
X3784115Y-11420650D01*
X3441389Y-11420351D01*
X3195379Y-11522000D01*
X3090025Y-11522000D01*
X3160327Y-11451698D01*
X3257000Y-11218309D01*
X3257000Y-11125750D01*
X3098250Y-10967000D01*
X2299000Y-10967000D01*
X2299000Y-10989000D01*
X2045000Y-10989000D01*
X2045000Y-10967000D01*
X2025000Y-10967000D01*
X2025000Y-10717000D01*
X2045000Y-10717000D01*
X2045000Y-10115750D01*
X2299000Y-10115750D01*
X2299000Y-10717000D01*
X3098250Y-10717000D01*
X3257000Y-10558250D01*
X3257000Y-10465691D01*
X3160327Y-10232302D01*
X2981699Y-10053673D01*
X2748310Y-9957000D01*
X2457750Y-9957000D01*
X2299000Y-10115750D01*
X2045000Y-10115750D01*
X1886250Y-9957000D01*
X1597000Y-9957000D01*
X1597000Y-9378375D01*
X1625000Y-9387000D01*
X1975000Y-9387000D01*
X1975000Y-8279000D01*
X2229000Y-8279000D01*
X2229000Y-9387000D01*
X2579000Y-9387000D01*
X3041947Y-9244390D01*
X3415080Y-8935474D01*
X3478158Y-8816232D01*
X3429688Y-8953146D01*
X3458051Y-9493444D01*
X3610247Y-9860878D01*
X3848602Y-9925793D01*
X4622395Y-9152000D01*
X3848602Y-8378207D01*
X3625424Y-8438988D01*
X3520731Y-8279000D01*
X2229000Y-8279000D01*
X1975000Y-8279000D01*
X1955000Y-8279000D01*
X1955000Y-8198602D01*
X4028207Y-8198602D01*
X4802000Y-8972395D01*
X5575793Y-8198602D01*
X5510878Y-7960247D01*
X5000854Y-7779688D01*
X4460556Y-7808051D01*
X4093122Y-7960247D01*
X4028207Y-8198602D01*
X1955000Y-8198602D01*
X1955000Y-8025000D01*
X1975000Y-8025000D01*
X1975000Y-6917000D01*
X2229000Y-6917000D01*
X2229000Y-8025000D01*
X3520731Y-8025000D01*
X3645462Y-7834391D01*
X3641592Y-7796719D01*
X3415080Y-7368526D01*
X3041947Y-7059610D01*
X2579000Y-6917000D01*
X2229000Y-6917000D01*
X1975000Y-6917000D01*
X1625000Y-6917000D01*
X1597000Y-6925625D01*
X1597000Y-5998580D01*
X1728588Y-5866991D01*
X3981138Y-5866991D01*
X3934560Y-6097000D01*
X3934560Y-6847000D01*
X3978838Y-7082317D01*
X4117910Y-7298441D01*
X4330110Y-7443431D01*
X4582000Y-7494440D01*
X5382000Y-7494440D01*
X5617317Y-7450162D01*
X5720646Y-7383671D01*
X5722302Y-7385327D01*
X5955691Y-7482000D01*
X6196250Y-7482000D01*
X6355000Y-7323250D01*
X6355000Y-6599000D01*
X6335000Y-6599000D01*
X6335000Y-6345000D01*
X6355000Y-6345000D01*
X6355000Y-5620750D01*
X6609000Y-5620750D01*
X6609000Y-6345000D01*
X7358250Y-6345000D01*
X7517000Y-6186250D01*
X7517000Y-5970690D01*
X7420327Y-5737301D01*
X7241698Y-5558673D01*
X7008309Y-5462000D01*
X6767750Y-5462000D01*
X6609000Y-5620750D01*
X6355000Y-5620750D01*
X6319915Y-5585665D01*
X6753040Y-5152539D01*
X6972000Y-5196093D01*
X7190960Y-5152539D01*
X9176208Y-7137787D01*
G36*
X31274998Y-11309800D02*
X31274998Y-11410748D01*
X31116250Y-11252000D01*
X30875691Y-11252000D01*
X30642302Y-11348673D01*
X30463673Y-11527301D01*
X30367000Y-11760690D01*
X30367000Y-11976250D01*
X30525750Y-12135000D01*
X31275000Y-12135000D01*
X31275000Y-12115000D01*
X31382000Y-12115000D01*
X31382000Y-12409000D01*
X31275000Y-12409000D01*
X31275000Y-12389000D01*
X30525750Y-12389000D01*
X30374776Y-12539974D01*
X30164385Y-12329583D01*
X29917823Y-12164836D01*
X29626984Y-12106984D01*
X29065610Y-12106984D01*
X28981169Y-12022543D01*
X29359401Y-11644311D01*
X29524148Y-11397749D01*
X29582000Y-11106910D01*
X29582000Y-10979315D01*
X29632000Y-10989440D01*
X30532000Y-10989440D01*
X30767317Y-10945162D01*
X30854354Y-10889156D01*
X31274998Y-11309800D01*
X31274998Y-11309800D01*
G37*
X31274998Y-11309800D02*
X31274998Y-11410748D01*
X31116250Y-11252000D01*
X30875691Y-11252000D01*
X30642302Y-11348673D01*
X30463673Y-11527301D01*
X30367000Y-11760690D01*
X30367000Y-11976250D01*
X30525750Y-12135000D01*
X31275000Y-12135000D01*
X31275000Y-12115000D01*
X31382000Y-12115000D01*
X31382000Y-12409000D01*
X31275000Y-12409000D01*
X31275000Y-12389000D01*
X30525750Y-12389000D01*
X30374776Y-12539974D01*
X30164385Y-12329583D01*
X29917823Y-12164836D01*
X29626984Y-12106984D01*
X29065610Y-12106984D01*
X28981169Y-12022543D01*
X29359401Y-11644311D01*
X29524148Y-11397749D01*
X29582000Y-11106910D01*
X29582000Y-10979315D01*
X29632000Y-10989440D01*
X30532000Y-10989440D01*
X30767317Y-10945162D01*
X30854354Y-10889156D01*
X31274998Y-11309800D01*
G36*
X26920750Y-9925000D02*
X27645000Y-9925000D01*
X27645000Y-9905000D01*
X27899000Y-9905000D01*
X27899000Y-9925000D01*
X27919000Y-9925000D01*
X27919000Y-10179000D01*
X27899000Y-10179000D01*
X27899000Y-10199000D01*
X27645000Y-10199000D01*
X27645000Y-10179000D01*
X26920750Y-10179000D01*
X26837000Y-10262750D01*
X26743250Y-10169000D01*
X26019000Y-10169000D01*
X26019000Y-10918250D01*
X26177750Y-11077000D01*
X26393310Y-11077000D01*
X26626699Y-10980327D01*
X26805327Y-10801698D01*
X26829929Y-10742304D01*
X26858673Y-10811698D01*
X27037301Y-10990327D01*
X27270690Y-11087000D01*
X27486250Y-11087000D01*
X27644998Y-10928252D01*
X27644998Y-11087000D01*
X27767108Y-11087000D01*
X27742108Y-11112000D01*
X21136802Y-11112000D01*
X21099315Y-11074513D01*
X21326699Y-10980327D01*
X21447000Y-10860025D01*
X21587301Y-11000327D01*
X21820690Y-11097000D01*
X22036250Y-11097000D01*
X22195000Y-10938250D01*
X22195000Y-10189000D01*
X22449000Y-10189000D01*
X22449000Y-10938250D01*
X22607750Y-11097000D01*
X22823310Y-11097000D01*
X23056699Y-11000327D01*
X23235327Y-10821698D01*
X23268213Y-10742304D01*
X23288673Y-10791698D01*
X23467301Y-10970327D01*
X23700690Y-11067000D01*
X23916250Y-11067000D01*
X24075000Y-10908250D01*
X24075000Y-10159000D01*
X24329000Y-10159000D01*
X24329000Y-10908250D01*
X24487750Y-11067000D01*
X24703310Y-11067000D01*
X24936699Y-10970327D01*
X25042000Y-10865025D01*
X25157301Y-10980327D01*
X25390690Y-11077000D01*
X25606250Y-11077000D01*
X25765000Y-10918250D01*
X25765000Y-10169000D01*
X25063250Y-10169000D01*
X25053250Y-10159000D01*
X24329000Y-10159000D01*
X24075000Y-10159000D01*
X23350750Y-10159000D01*
X23247000Y-10262750D01*
X23173250Y-10189000D01*
X22449000Y-10189000D01*
X22195000Y-10189000D01*
X21470750Y-10189000D01*
X21467000Y-10192750D01*
X21443250Y-10169000D01*
X20719000Y-10169000D01*
X20719000Y-10189000D01*
X20465000Y-10189000D01*
X20465000Y-10169000D01*
X20445000Y-10169000D01*
X20445000Y-9915000D01*
X20465000Y-9915000D01*
X20465000Y-9895000D01*
X20719000Y-9895000D01*
X20719000Y-9915000D01*
X21443250Y-9915000D01*
X21447000Y-9911250D01*
X21470750Y-9935000D01*
X22195000Y-9935000D01*
X22195000Y-9915000D01*
X22449000Y-9915000D01*
X22449000Y-9935000D01*
X23173250Y-9935000D01*
X23277000Y-9831250D01*
X23350750Y-9905000D01*
X24075000Y-9905000D01*
X24075000Y-9885000D01*
X24329000Y-9885000D01*
X24329000Y-9905000D01*
X25030750Y-9905000D01*
X25040750Y-9915000D01*
X25765000Y-9915000D01*
X25765000Y-9895000D01*
X26019000Y-9895000D01*
X26019000Y-9915000D01*
X26743250Y-9915000D01*
X26827000Y-9831250D01*
X26920750Y-9925000D01*
X26920750Y-9925000D01*
G37*
X26920750Y-9925000D02*
X27645000Y-9925000D01*
X27645000Y-9905000D01*
X27899000Y-9905000D01*
X27899000Y-9925000D01*
X27919000Y-9925000D01*
X27919000Y-10179000D01*
X27899000Y-10179000D01*
X27899000Y-10199000D01*
X27645000Y-10199000D01*
X27645000Y-10179000D01*
X26920750Y-10179000D01*
X26837000Y-10262750D01*
X26743250Y-10169000D01*
X26019000Y-10169000D01*
X26019000Y-10918250D01*
X26177750Y-11077000D01*
X26393310Y-11077000D01*
X26626699Y-10980327D01*
X26805327Y-10801698D01*
X26829929Y-10742304D01*
X26858673Y-10811698D01*
X27037301Y-10990327D01*
X27270690Y-11087000D01*
X27486250Y-11087000D01*
X27644998Y-10928252D01*
X27644998Y-11087000D01*
X27767108Y-11087000D01*
X27742108Y-11112000D01*
X21136802Y-11112000D01*
X21099315Y-11074513D01*
X21326699Y-10980327D01*
X21447000Y-10860025D01*
X21587301Y-11000327D01*
X21820690Y-11097000D01*
X22036250Y-11097000D01*
X22195000Y-10938250D01*
X22195000Y-10189000D01*
X22449000Y-10189000D01*
X22449000Y-10938250D01*
X22607750Y-11097000D01*
X22823310Y-11097000D01*
X23056699Y-11000327D01*
X23235327Y-10821698D01*
X23268213Y-10742304D01*
X23288673Y-10791698D01*
X23467301Y-10970327D01*
X23700690Y-11067000D01*
X23916250Y-11067000D01*
X24075000Y-10908250D01*
X24075000Y-10159000D01*
X24329000Y-10159000D01*
X24329000Y-10908250D01*
X24487750Y-11067000D01*
X24703310Y-11067000D01*
X24936699Y-10970327D01*
X25042000Y-10865025D01*
X25157301Y-10980327D01*
X25390690Y-11077000D01*
X25606250Y-11077000D01*
X25765000Y-10918250D01*
X25765000Y-10169000D01*
X25063250Y-10169000D01*
X25053250Y-10159000D01*
X24329000Y-10159000D01*
X24075000Y-10159000D01*
X23350750Y-10159000D01*
X23247000Y-10262750D01*
X23173250Y-10189000D01*
X22449000Y-10189000D01*
X22195000Y-10189000D01*
X21470750Y-10189000D01*
X21467000Y-10192750D01*
X21443250Y-10169000D01*
X20719000Y-10169000D01*
X20719000Y-10189000D01*
X20465000Y-10189000D01*
X20465000Y-10169000D01*
X20445000Y-10169000D01*
X20445000Y-9915000D01*
X20465000Y-9915000D01*
X20465000Y-9895000D01*
X20719000Y-9895000D01*
X20719000Y-9915000D01*
X21443250Y-9915000D01*
X21447000Y-9911250D01*
X21470750Y-9935000D01*
X22195000Y-9935000D01*
X22195000Y-9915000D01*
X22449000Y-9915000D01*
X22449000Y-9935000D01*
X23173250Y-9935000D01*
X23277000Y-9831250D01*
X23350750Y-9905000D01*
X24075000Y-9905000D01*
X24075000Y-9885000D01*
X24329000Y-9885000D01*
X24329000Y-9905000D01*
X25030750Y-9905000D01*
X25040750Y-9915000D01*
X25765000Y-9915000D01*
X25765000Y-9895000D01*
X26019000Y-9895000D01*
X26019000Y-9915000D01*
X26743250Y-9915000D01*
X26827000Y-9831250D01*
X26920750Y-9925000D01*
G36*
X15192001Y-9496803D02*
X15192001Y-10392199D01*
X15059440Y-10259638D01*
X15059440Y-10037000D01*
X15033081Y-9896914D01*
X15047000Y-9863310D01*
X15047000Y-9697750D01*
X14888250Y-9539000D01*
X14807949Y-9539000D01*
X14663890Y-9440569D01*
X14526880Y-9412824D01*
X14647317Y-9390162D01*
X14810743Y-9285000D01*
X14888250Y-9285000D01*
X14934224Y-9239026D01*
X15192001Y-9496803D01*
X15192001Y-9496803D01*
G37*
X15192001Y-9496803D02*
X15192001Y-10392199D01*
X15059440Y-10259638D01*
X15059440Y-10037000D01*
X15033081Y-9896914D01*
X15047000Y-9863310D01*
X15047000Y-9697750D01*
X14888250Y-9539000D01*
X14807949Y-9539000D01*
X14663890Y-9440569D01*
X14526880Y-9412824D01*
X14647317Y-9390162D01*
X14810743Y-9285000D01*
X14888250Y-9285000D01*
X14934224Y-9239026D01*
X15192001Y-9496803D01*
G36*
X36799852Y-7565064D02*
X36785512Y-7637157D01*
X36675559Y-7707910D01*
X36554039Y-7885761D01*
X36515327Y-7792302D01*
X36336699Y-7613673D01*
X36103310Y-7517000D01*
X35887750Y-7517000D01*
X35729000Y-7675750D01*
X35729000Y-8425000D01*
X35749000Y-8425000D01*
X35749000Y-8679000D01*
X35729000Y-8679000D01*
X35729000Y-8699000D01*
X35475000Y-8699000D01*
X35475000Y-8679000D01*
X34750750Y-8679000D01*
X34737000Y-8692750D01*
X34723250Y-8679000D01*
X33999000Y-8679000D01*
X33999000Y-8699000D01*
X33745000Y-8699000D01*
X33745000Y-8679000D01*
X33725000Y-8679000D01*
X33725000Y-8425000D01*
X33745000Y-8425000D01*
X33745000Y-7675750D01*
X33999000Y-7675750D01*
X33999000Y-8425000D01*
X34723250Y-8425000D01*
X34737000Y-8411250D01*
X34750750Y-8425000D01*
X35475000Y-8425000D01*
X35475000Y-7675750D01*
X35316250Y-7517000D01*
X35100690Y-7517000D01*
X34867301Y-7613673D01*
X34737000Y-7743975D01*
X34606699Y-7613673D01*
X34373310Y-7517000D01*
X34157750Y-7517000D01*
X33999000Y-7675750D01*
X33745000Y-7675750D01*
X33586250Y-7517000D01*
X33370690Y-7517000D01*
X33137301Y-7613673D01*
X32958673Y-7792302D01*
X32862000Y-8025691D01*
X32862000Y-8141314D01*
X32418702Y-7957241D01*
X31867715Y-7956760D01*
X31815354Y-7978395D01*
X31682839Y-7889852D01*
X31392000Y-7832000D01*
X30910386Y-7832000D01*
X30783890Y-7745569D01*
X30532000Y-7694560D01*
X30142000Y-7694560D01*
X30142000Y-7615988D01*
X30114353Y-7477000D01*
X36858694Y-7477000D01*
X36799852Y-7565064D01*
X36799852Y-7565064D01*
G37*
X36799852Y-7565064D02*
X36785512Y-7637157D01*
X36675559Y-7707910D01*
X36554039Y-7885761D01*
X36515327Y-7792302D01*
X36336699Y-7613673D01*
X36103310Y-7517000D01*
X35887750Y-7517000D01*
X35729000Y-7675750D01*
X35729000Y-8425000D01*
X35749000Y-8425000D01*
X35749000Y-8679000D01*
X35729000Y-8679000D01*
X35729000Y-8699000D01*
X35475000Y-8699000D01*
X35475000Y-8679000D01*
X34750750Y-8679000D01*
X34737000Y-8692750D01*
X34723250Y-8679000D01*
X33999000Y-8679000D01*
X33999000Y-8699000D01*
X33745000Y-8699000D01*
X33745000Y-8679000D01*
X33725000Y-8679000D01*
X33725000Y-8425000D01*
X33745000Y-8425000D01*
X33745000Y-7675750D01*
X33999000Y-7675750D01*
X33999000Y-8425000D01*
X34723250Y-8425000D01*
X34737000Y-8411250D01*
X34750750Y-8425000D01*
X35475000Y-8425000D01*
X35475000Y-7675750D01*
X35316250Y-7517000D01*
X35100690Y-7517000D01*
X34867301Y-7613673D01*
X34737000Y-7743975D01*
X34606699Y-7613673D01*
X34373310Y-7517000D01*
X34157750Y-7517000D01*
X33999000Y-7675750D01*
X33745000Y-7675750D01*
X33586250Y-7517000D01*
X33370690Y-7517000D01*
X33137301Y-7613673D01*
X32958673Y-7792302D01*
X32862000Y-8025691D01*
X32862000Y-8141314D01*
X32418702Y-7957241D01*
X31867715Y-7956760D01*
X31815354Y-7978395D01*
X31682839Y-7889852D01*
X31392000Y-7832000D01*
X30910386Y-7832000D01*
X30783890Y-7745569D01*
X30532000Y-7694560D01*
X30142000Y-7694560D01*
X30142000Y-7615988D01*
X30114353Y-7477000D01*
X36858694Y-7477000D01*
X36799852Y-7565064D01*
G36*
X41481946Y-4761147D02*
X41683896Y-4896085D01*
X41574637Y-4941230D01*
X41332082Y-5183362D01*
X41200650Y-5499885D01*
X41200351Y-5842611D01*
X41331230Y-6159363D01*
X41528499Y-6356977D01*
X41528499Y-7717000D01*
X41527750Y-7717000D01*
X41369000Y-7875750D01*
X41369000Y-8477000D01*
X41389000Y-8477000D01*
X41389000Y-8510419D01*
X41311389Y-8510351D01*
X41095000Y-8599761D01*
X41095000Y-8477000D01*
X41115000Y-8477000D01*
X41115000Y-7875750D01*
X40956250Y-7717000D01*
X40665690Y-7717000D01*
X40624911Y-7733891D01*
X40821166Y-7537636D01*
X40985913Y-7291074D01*
X41043765Y-7000235D01*
X41043765Y-6349958D01*
X41145115Y-6105880D01*
X41145414Y-5763154D01*
X41014535Y-5446402D01*
X40772403Y-5203847D01*
X40507018Y-5093649D01*
X40560285Y-5083054D01*
X41042054Y-4761147D01*
X41262000Y-4431974D01*
X41481946Y-4761147D01*
X41481946Y-4761147D01*
G37*
X41481946Y-4761147D02*
X41683896Y-4896085D01*
X41574637Y-4941230D01*
X41332082Y-5183362D01*
X41200650Y-5499885D01*
X41200351Y-5842611D01*
X41331230Y-6159363D01*
X41528499Y-6356977D01*
X41528499Y-7717000D01*
X41527750Y-7717000D01*
X41369000Y-7875750D01*
X41369000Y-8477000D01*
X41389000Y-8477000D01*
X41389000Y-8510419D01*
X41311389Y-8510351D01*
X41095000Y-8599761D01*
X41095000Y-8477000D01*
X41115000Y-8477000D01*
X41115000Y-7875750D01*
X40956250Y-7717000D01*
X40665690Y-7717000D01*
X40624911Y-7733891D01*
X40821166Y-7537636D01*
X40985913Y-7291074D01*
X41043765Y-7000235D01*
X41043765Y-6349958D01*
X41145115Y-6105880D01*
X41145414Y-5763154D01*
X41014535Y-5446402D01*
X40772403Y-5203847D01*
X40507018Y-5093649D01*
X40560285Y-5083054D01*
X41042054Y-4761147D01*
X41262000Y-4431974D01*
X41481946Y-4761147D01*
G36*
X46561946Y-4761147D02*
X46914926Y-4997000D01*
X46795691Y-4997000D01*
X46562302Y-5093673D01*
X46383673Y-5272301D01*
X46287000Y-5505690D01*
X46287000Y-6196250D01*
X46445750Y-6355000D01*
X47645000Y-6355000D01*
X47645000Y-6335000D01*
X47899000Y-6335000D01*
X47899000Y-6355000D01*
X47919000Y-6355000D01*
X47919000Y-6609000D01*
X47899000Y-6609000D01*
X47899000Y-6629000D01*
X47645000Y-6629000D01*
X47645000Y-6609000D01*
X46445750Y-6609000D01*
X46287000Y-6767750D01*
X46287000Y-7458310D01*
X46383673Y-7691699D01*
X46562302Y-7870327D01*
X46736777Y-7942597D01*
X46692853Y-7971946D01*
X46499046Y-8262000D01*
X46195603Y-8262000D01*
X45929500Y-8314932D01*
X45929500Y-5112238D01*
X45493567Y-5112238D01*
X45640285Y-5083054D01*
X46122054Y-4761147D01*
X46342000Y-4431974D01*
X46561946Y-4761147D01*
X46561946Y-4761147D01*
G37*
X46561946Y-4761147D02*
X46914926Y-4997000D01*
X46795691Y-4997000D01*
X46562302Y-5093673D01*
X46383673Y-5272301D01*
X46287000Y-5505690D01*
X46287000Y-6196250D01*
X46445750Y-6355000D01*
X47645000Y-6355000D01*
X47645000Y-6335000D01*
X47899000Y-6335000D01*
X47899000Y-6355000D01*
X47919000Y-6355000D01*
X47919000Y-6609000D01*
X47899000Y-6609000D01*
X47899000Y-6629000D01*
X47645000Y-6629000D01*
X47645000Y-6609000D01*
X46445750Y-6609000D01*
X46287000Y-6767750D01*
X46287000Y-7458310D01*
X46383673Y-7691699D01*
X46562302Y-7870327D01*
X46736777Y-7942597D01*
X46692853Y-7971946D01*
X46499046Y-8262000D01*
X46195603Y-8262000D01*
X45929500Y-8314932D01*
X45929500Y-5112238D01*
X45493567Y-5112238D01*
X45640285Y-5083054D01*
X46122054Y-4761147D01*
X46342000Y-4431974D01*
X46561946Y-4761147D01*
G36*
X26940652Y-6759885D02*
X26940353Y-7102611D01*
X27012000Y-7276010D01*
X27012000Y-7645156D01*
X26945559Y-7687910D01*
X26834231Y-7850844D01*
X26731090Y-7690559D01*
X26727000Y-7687764D01*
X26727000Y-6976795D01*
X26753203Y-6950638D01*
X26884635Y-6634115D01*
X26884676Y-6587595D01*
X27002553Y-6564148D01*
X27029369Y-6546230D01*
X26940652Y-6759885D01*
X26940652Y-6759885D01*
G37*
X26940652Y-6759885D02*
X26940353Y-7102611D01*
X27012000Y-7276010D01*
X27012000Y-7645156D01*
X26945559Y-7687910D01*
X26834231Y-7850844D01*
X26731090Y-7690559D01*
X26727000Y-7687764D01*
X26727000Y-6976795D01*
X26753203Y-6950638D01*
X26884635Y-6634115D01*
X26884676Y-6587595D01*
X27002553Y-6564148D01*
X27029369Y-6546230D01*
X26940652Y-6759885D01*
G36*
X21044228Y-4584970D02*
X20328892Y-5300306D01*
X20084637Y-5401230D01*
X19842082Y-5643362D01*
X19710650Y-5959885D01*
X19710351Y-6302611D01*
X19841230Y-6619363D01*
X20083362Y-6861918D01*
X20399885Y-6993350D01*
X20742611Y-6993649D01*
X21059363Y-6862770D01*
X21301918Y-6620638D01*
X21403997Y-6374805D01*
X21644469Y-6134333D01*
X21753362Y-6243416D01*
X22020855Y-6354489D01*
X22059230Y-6447363D01*
X22301362Y-6689918D01*
X22617885Y-6821350D01*
X22960611Y-6821649D01*
X23277363Y-6690770D01*
X23346253Y-6622000D01*
X25057000Y-6622000D01*
X25057000Y-7647000D01*
X24991975Y-7647000D01*
X24828890Y-7535569D01*
X24577000Y-7484560D01*
X23827000Y-7484560D01*
X23591683Y-7528838D01*
X23375559Y-7667910D01*
X23369348Y-7677000D01*
X23111975Y-7677000D01*
X22948890Y-7565569D01*
X22697000Y-7514560D01*
X21947000Y-7514560D01*
X21711683Y-7558838D01*
X21528054Y-7677000D01*
X21411246Y-7677000D01*
X21218890Y-7545569D01*
X20967000Y-7494560D01*
X20217000Y-7494560D01*
X19981683Y-7538838D01*
X19829135Y-7637000D01*
X19283431Y-7637000D01*
X19222000Y-7624560D01*
X18359013Y-7624560D01*
X18363350Y-7614115D01*
X18363621Y-7303405D01*
X18400327Y-7266699D01*
X18497000Y-7033310D01*
X18497000Y-6817750D01*
X18338250Y-6659000D01*
X17862803Y-6659000D01*
X17674115Y-6580650D01*
X17331389Y-6580351D01*
X17315000Y-6587123D01*
X17315000Y-6405000D01*
X17335000Y-6405000D01*
X17335000Y-5680750D01*
X17589000Y-5680750D01*
X17589000Y-6405000D01*
X18338250Y-6405000D01*
X18497000Y-6246250D01*
X18497000Y-6030690D01*
X18400327Y-5797301D01*
X18221698Y-5618673D01*
X17988309Y-5522000D01*
X17747750Y-5522000D01*
X17589000Y-5680750D01*
X17335000Y-5680750D01*
X17176250Y-5522000D01*
X16935691Y-5522000D01*
X16702302Y-5618673D01*
X16700932Y-5620043D01*
X16613890Y-5560569D01*
X16362000Y-5509560D01*
X15989362Y-5509560D01*
X15883377Y-5403575D01*
X15883649Y-5091389D01*
X15752770Y-4774637D01*
X15681047Y-4702789D01*
X15862000Y-4431974D01*
X16081946Y-4761147D01*
X16563715Y-5083054D01*
X17132000Y-5196093D01*
X17700285Y-5083054D01*
X18182054Y-4761147D01*
X18402000Y-4431974D01*
X18621946Y-4761147D01*
X19103715Y-5083054D01*
X19672000Y-5196093D01*
X20240285Y-5083054D01*
X20722054Y-4761147D01*
X20942000Y-4431974D01*
X21044228Y-4584970D01*
X21044228Y-4584970D01*
G37*
X21044228Y-4584970D02*
X20328892Y-5300306D01*
X20084637Y-5401230D01*
X19842082Y-5643362D01*
X19710650Y-5959885D01*
X19710351Y-6302611D01*
X19841230Y-6619363D01*
X20083362Y-6861918D01*
X20399885Y-6993350D01*
X20742611Y-6993649D01*
X21059363Y-6862770D01*
X21301918Y-6620638D01*
X21403997Y-6374805D01*
X21644469Y-6134333D01*
X21753362Y-6243416D01*
X22020855Y-6354489D01*
X22059230Y-6447363D01*
X22301362Y-6689918D01*
X22617885Y-6821350D01*
X22960611Y-6821649D01*
X23277363Y-6690770D01*
X23346253Y-6622000D01*
X25057000Y-6622000D01*
X25057000Y-7647000D01*
X24991975Y-7647000D01*
X24828890Y-7535569D01*
X24577000Y-7484560D01*
X23827000Y-7484560D01*
X23591683Y-7528838D01*
X23375559Y-7667910D01*
X23369348Y-7677000D01*
X23111975Y-7677000D01*
X22948890Y-7565569D01*
X22697000Y-7514560D01*
X21947000Y-7514560D01*
X21711683Y-7558838D01*
X21528054Y-7677000D01*
X21411246Y-7677000D01*
X21218890Y-7545569D01*
X20967000Y-7494560D01*
X20217000Y-7494560D01*
X19981683Y-7538838D01*
X19829135Y-7637000D01*
X19283431Y-7637000D01*
X19222000Y-7624560D01*
X18359013Y-7624560D01*
X18363350Y-7614115D01*
X18363621Y-7303405D01*
X18400327Y-7266699D01*
X18497000Y-7033310D01*
X18497000Y-6817750D01*
X18338250Y-6659000D01*
X17862803Y-6659000D01*
X17674115Y-6580650D01*
X17331389Y-6580351D01*
X17315000Y-6587123D01*
X17315000Y-6405000D01*
X17335000Y-6405000D01*
X17335000Y-5680750D01*
X17589000Y-5680750D01*
X17589000Y-6405000D01*
X18338250Y-6405000D01*
X18497000Y-6246250D01*
X18497000Y-6030690D01*
X18400327Y-5797301D01*
X18221698Y-5618673D01*
X17988309Y-5522000D01*
X17747750Y-5522000D01*
X17589000Y-5680750D01*
X17335000Y-5680750D01*
X17176250Y-5522000D01*
X16935691Y-5522000D01*
X16702302Y-5618673D01*
X16700932Y-5620043D01*
X16613890Y-5560569D01*
X16362000Y-5509560D01*
X15989362Y-5509560D01*
X15883377Y-5403575D01*
X15883649Y-5091389D01*
X15752770Y-4774637D01*
X15681047Y-4702789D01*
X15862000Y-4431974D01*
X16081946Y-4761147D01*
X16563715Y-5083054D01*
X17132000Y-5196093D01*
X17700285Y-5083054D01*
X18182054Y-4761147D01*
X18402000Y-4431974D01*
X18621946Y-4761147D01*
X19103715Y-5083054D01*
X19672000Y-5196093D01*
X20240285Y-5083054D01*
X20722054Y-4761147D01*
X20942000Y-4431974D01*
X21044228Y-4584970D01*
G36*
X51290000Y-2260242D02*
X51253890Y-2235569D01*
X51002000Y-2184560D01*
X49302000Y-2184560D01*
X49170213Y-2209357D01*
X48202431Y-1241575D01*
X47931538Y-1060570D01*
X47611997Y-997009D01*
X39992003Y-997009D01*
X39672462Y-1060570D01*
X39401569Y-1241575D01*
X38225247Y-2417897D01*
X38020285Y-2280946D01*
X37452000Y-2167907D01*
X36883715Y-2280946D01*
X36401946Y-2602853D01*
X36182000Y-2932026D01*
X35962054Y-2602853D01*
X35480285Y-2280946D01*
X34912000Y-2167907D01*
X34343715Y-2280946D01*
X33861946Y-2602853D01*
X33642000Y-2932026D01*
X33422054Y-2602853D01*
X32940285Y-2280946D01*
X32372000Y-2167907D01*
X31803715Y-2280946D01*
X31321946Y-2602853D01*
X31102000Y-2932026D01*
X30882054Y-2602853D01*
X30400285Y-2280946D01*
X29832000Y-2167907D01*
X29263715Y-2280946D01*
X28781946Y-2602853D01*
X28562000Y-2932026D01*
X28342054Y-2602853D01*
X27860285Y-2280946D01*
X27292000Y-2167907D01*
X26723715Y-2280946D01*
X26241946Y-2602853D01*
X26022000Y-2932026D01*
X25802054Y-2602853D01*
X25320285Y-2280946D01*
X24752000Y-2167907D01*
X24183715Y-2280946D01*
X23701946Y-2602853D01*
X23482000Y-2932026D01*
X23262054Y-2602853D01*
X22780285Y-2280946D01*
X22212000Y-2167907D01*
X21643715Y-2280946D01*
X21161946Y-2602853D01*
X20942000Y-2932026D01*
X20722054Y-2602853D01*
X20240285Y-2280946D01*
X19672000Y-2167907D01*
X19103715Y-2280946D01*
X18621946Y-2602853D01*
X18402000Y-2932026D01*
X18182054Y-2602853D01*
X17700285Y-2280946D01*
X17132000Y-2167907D01*
X16563715Y-2280946D01*
X16081946Y-2602853D01*
X15862000Y-2932026D01*
X15642054Y-2602853D01*
X15160285Y-2280946D01*
X14592000Y-2167907D01*
X14023715Y-2280946D01*
X13541946Y-2602853D01*
X13322000Y-2932026D01*
X13102054Y-2602853D01*
X12620285Y-2280946D01*
X12052000Y-2167907D01*
X11483715Y-2280946D01*
X11001946Y-2602853D01*
X10782000Y-2932026D01*
X10562054Y-2602853D01*
X10080285Y-2280946D01*
X9512000Y-2167907D01*
X8943715Y-2280946D01*
X8461946Y-2602853D01*
X8242000Y-2932026D01*
X8022054Y-2602853D01*
X7540285Y-2280946D01*
X6972000Y-2167907D01*
X6403715Y-2280946D01*
X5921946Y-2602853D01*
X5694298Y-2943553D01*
X5627183Y-2800642D01*
X5198924Y-2410355D01*
X4788890Y-2240524D01*
X4559000Y-2361845D01*
X4559000Y-3555000D01*
X4579000Y-3555000D01*
X4579000Y-3809000D01*
X4559000Y-3809000D01*
X4559000Y-3829000D01*
X4305000Y-3829000D01*
X4305000Y-3809000D01*
X4285000Y-3809000D01*
X4285000Y-3555000D01*
X4305000Y-3555000D01*
X4305000Y-2361845D01*
X4075110Y-2240524D01*
X3665076Y-2410355D01*
X3236817Y-2800642D01*
X3169702Y-2943553D01*
X2942054Y-2602853D01*
X2460285Y-2280946D01*
X1892000Y-2167907D01*
X1323715Y-2280946D01*
X841946Y-2602853D01*
X710000Y-2800325D01*
X710000Y-710000D01*
X51290000Y-710000D01*
X51290000Y-2260242D01*
X51290000Y-2260242D01*
G37*
X51290000Y-2260242D02*
X51253890Y-2235569D01*
X51002000Y-2184560D01*
X49302000Y-2184560D01*
X49170213Y-2209357D01*
X48202431Y-1241575D01*
X47931538Y-1060570D01*
X47611997Y-997009D01*
X39992003Y-997009D01*
X39672462Y-1060570D01*
X39401569Y-1241575D01*
X38225247Y-2417897D01*
X38020285Y-2280946D01*
X37452000Y-2167907D01*
X36883715Y-2280946D01*
X36401946Y-2602853D01*
X36182000Y-2932026D01*
X35962054Y-2602853D01*
X35480285Y-2280946D01*
X34912000Y-2167907D01*
X34343715Y-2280946D01*
X33861946Y-2602853D01*
X33642000Y-2932026D01*
X33422054Y-2602853D01*
X32940285Y-2280946D01*
X32372000Y-2167907D01*
X31803715Y-2280946D01*
X31321946Y-2602853D01*
X31102000Y-2932026D01*
X30882054Y-2602853D01*
X30400285Y-2280946D01*
X29832000Y-2167907D01*
X29263715Y-2280946D01*
X28781946Y-2602853D01*
X28562000Y-2932026D01*
X28342054Y-2602853D01*
X27860285Y-2280946D01*
X27292000Y-2167907D01*
X26723715Y-2280946D01*
X26241946Y-2602853D01*
X26022000Y-2932026D01*
X25802054Y-2602853D01*
X25320285Y-2280946D01*
X24752000Y-2167907D01*
X24183715Y-2280946D01*
X23701946Y-2602853D01*
X23482000Y-2932026D01*
X23262054Y-2602853D01*
X22780285Y-2280946D01*
X22212000Y-2167907D01*
X21643715Y-2280946D01*
X21161946Y-2602853D01*
X20942000Y-2932026D01*
X20722054Y-2602853D01*
X20240285Y-2280946D01*
X19672000Y-2167907D01*
X19103715Y-2280946D01*
X18621946Y-2602853D01*
X18402000Y-2932026D01*
X18182054Y-2602853D01*
X17700285Y-2280946D01*
X17132000Y-2167907D01*
X16563715Y-2280946D01*
X16081946Y-2602853D01*
X15862000Y-2932026D01*
X15642054Y-2602853D01*
X15160285Y-2280946D01*
X14592000Y-2167907D01*
X14023715Y-2280946D01*
X13541946Y-2602853D01*
X13322000Y-2932026D01*
X13102054Y-2602853D01*
X12620285Y-2280946D01*
X12052000Y-2167907D01*
X11483715Y-2280946D01*
X11001946Y-2602853D01*
X10782000Y-2932026D01*
X10562054Y-2602853D01*
X10080285Y-2280946D01*
X9512000Y-2167907D01*
X8943715Y-2280946D01*
X8461946Y-2602853D01*
X8242000Y-2932026D01*
X8022054Y-2602853D01*
X7540285Y-2280946D01*
X6972000Y-2167907D01*
X6403715Y-2280946D01*
X5921946Y-2602853D01*
X5694298Y-2943553D01*
X5627183Y-2800642D01*
X5198924Y-2410355D01*
X4788890Y-2240524D01*
X4559000Y-2361845D01*
X4559000Y-3555000D01*
X4579000Y-3555000D01*
X4579000Y-3809000D01*
X4559000Y-3809000D01*
X4559000Y-3829000D01*
X4305000Y-3829000D01*
X4305000Y-3809000D01*
X4285000Y-3809000D01*
X4285000Y-3555000D01*
X4305000Y-3555000D01*
X4305000Y-2361845D01*
X4075110Y-2240524D01*
X3665076Y-2410355D01*
X3236817Y-2800642D01*
X3169702Y-2943553D01*
X2942054Y-2602853D01*
X2460285Y-2280946D01*
X1892000Y-2167907D01*
X1323715Y-2280946D01*
X841946Y-2602853D01*
X710000Y-2800325D01*
X710000Y-710000D01*
X51290000Y-710000D01*
X51290000Y-2260242D01*
M02*
