%TF.GenerationSoftware,KiCad,Pcbnew,4.0.7*%
%TF.CreationDate,2017-11-17T16:48:23+08:00*%
%TF.ProjectId,STM32F401CCT6,53544D333246343031434354362E6B69,rev?*%
%TF.FileFunction,Legend,Bot*%
%FSLAX46Y46*%
G04 Gerber Fmt 4.6, Leading zero omitted, Abs format (unit mm)*
G04 Created by KiCad (PCBNEW 4.0.7) date 11/17/17 16:48:23*
%MOMM*%
%LPD*%
G01*
G04 APERTURE LIST*
%ADD10C,0.100000*%
%ADD11C,0.200000*%
%ADD12C,0.120000*%
G04 APERTURE END LIST*
D10*
D11*
X37450000Y-14530000D02*
X37180000Y-15390000D01*
X50291082Y-15564430D02*
X51023773Y-16295370D01*
X50024415Y-16026311D01*
X50757107Y-16757250D02*
X49891082Y-16257250D01*
X49795844Y-16422207D01*
X49779940Y-16544991D01*
X49824323Y-16658594D01*
X49887754Y-16739204D01*
X50033663Y-16867433D01*
X50157382Y-16938862D01*
X50341387Y-17001109D01*
X50442913Y-17015737D01*
X50563487Y-16997372D01*
X50661869Y-16922207D01*
X50757107Y-16757250D01*
X50357107Y-17450070D02*
X49491082Y-16950070D01*
X49395844Y-17115027D01*
X49379940Y-17237812D01*
X49424323Y-17351414D01*
X49487754Y-17432024D01*
X49633663Y-17560253D01*
X49757382Y-17631682D01*
X49941387Y-17693929D01*
X50042913Y-17708557D01*
X50163487Y-17690193D01*
X50261869Y-17615027D01*
X50357107Y-17450070D01*
X50654994Y-12926139D02*
X51232345Y-13259473D01*
X50737473Y-12973758D02*
X50677186Y-12982940D01*
X50597851Y-13025114D01*
X50540708Y-13124088D01*
X50543853Y-13213880D01*
X50607284Y-13294491D01*
X51060916Y-13556396D01*
X50641868Y-14282208D02*
X50362808Y-13813172D01*
X50870440Y-13886311D02*
X50004415Y-13386311D01*
X49852034Y-13650242D01*
X49855177Y-13740035D01*
X49877369Y-13796836D01*
X49940800Y-13877446D01*
X50064518Y-13948875D01*
X50166044Y-13963502D01*
X50226331Y-13954321D01*
X50305665Y-13912147D01*
X50458046Y-13648215D01*
X50448248Y-14522330D02*
X50432344Y-14645114D01*
X50337106Y-14810071D01*
X50257772Y-14852244D01*
X50197485Y-14861427D01*
X50095959Y-14846799D01*
X50013480Y-14799180D01*
X49950049Y-14718570D01*
X49927858Y-14661768D01*
X49924713Y-14571976D01*
X49959664Y-14416200D01*
X49956520Y-14326408D01*
X49934329Y-14269607D01*
X49870898Y-14188997D01*
X49788419Y-14141378D01*
X49686893Y-14126750D01*
X49626606Y-14135932D01*
X49547272Y-14178105D01*
X49452034Y-14343063D01*
X49436130Y-14465847D01*
X49280605Y-14639985D02*
X49052034Y-15035883D01*
X50032344Y-15337935D02*
X49166319Y-14837935D01*
X51180153Y-10536262D02*
X51164249Y-10659046D01*
X51069011Y-10824003D01*
X50989677Y-10866176D01*
X50929390Y-10875359D01*
X50827864Y-10860731D01*
X50745385Y-10813112D01*
X50681954Y-10732502D01*
X50659763Y-10675700D01*
X50656618Y-10585907D01*
X50691569Y-10430132D01*
X50688425Y-10340339D01*
X50666234Y-10283539D01*
X50602803Y-10202928D01*
X50520324Y-10155309D01*
X50418798Y-10140682D01*
X50358511Y-10149863D01*
X50279177Y-10192037D01*
X50183939Y-10356994D01*
X50168035Y-10479778D01*
X49993462Y-10686909D02*
X50764249Y-11351866D01*
X50069469Y-11126689D01*
X50611868Y-11615798D01*
X49650605Y-11280755D01*
X50364249Y-12044687D02*
X49498224Y-11544687D01*
X49402986Y-11709644D01*
X49387082Y-11832428D01*
X49431465Y-11946030D01*
X49494896Y-12026640D01*
X49640806Y-12154870D01*
X49764525Y-12226299D01*
X49948529Y-12288545D01*
X50050055Y-12303173D01*
X50170629Y-12284809D01*
X50269011Y-12209644D01*
X50364249Y-12044687D01*
X49964249Y-12737507D02*
X49098224Y-12237507D01*
X48831558Y-12699387D02*
X48755367Y-12831353D01*
X48758511Y-12921145D01*
X48802894Y-13034747D01*
X48948804Y-13162976D01*
X49237480Y-13329643D01*
X49421484Y-13391890D01*
X49542058Y-13373526D01*
X49621392Y-13331353D01*
X49697583Y-13199387D01*
X49694439Y-13109595D01*
X49650056Y-12995992D01*
X49504146Y-12867763D01*
X49215470Y-12701096D01*
X49031466Y-12638849D01*
X48910892Y-12657214D01*
X48831558Y-12699387D01*
X51517296Y-7220877D02*
X51501392Y-7343661D01*
X51406154Y-7508618D01*
X51326820Y-7550791D01*
X51266533Y-7559974D01*
X51165007Y-7545346D01*
X51082528Y-7497727D01*
X51019097Y-7417117D01*
X50996906Y-7360315D01*
X50993761Y-7270523D01*
X51028712Y-7114747D01*
X51025568Y-7024955D01*
X51003377Y-6968154D01*
X50939946Y-6887544D01*
X50857467Y-6839925D01*
X50755941Y-6825297D01*
X50695654Y-6834479D01*
X50616320Y-6876652D01*
X50521082Y-7041609D01*
X50505178Y-7164394D01*
X50330605Y-7371524D02*
X51101392Y-8036481D01*
X50406612Y-7811304D01*
X50949011Y-8300413D01*
X49987748Y-7965370D01*
X50701392Y-8729302D02*
X49835367Y-8229302D01*
X49740129Y-8394259D01*
X49724225Y-8517043D01*
X49768608Y-8630645D01*
X49832039Y-8711256D01*
X49977949Y-8839485D01*
X50101668Y-8910914D01*
X50285672Y-8973161D01*
X50387198Y-8987788D01*
X50507772Y-8969424D01*
X50606154Y-8894259D01*
X50701392Y-8729302D01*
X49990342Y-9770401D02*
X50050629Y-9761219D01*
X50149011Y-9686054D01*
X50187106Y-9620071D01*
X50203010Y-9497287D01*
X50158627Y-9383685D01*
X50095196Y-9303075D01*
X49949287Y-9174845D01*
X49825568Y-9103416D01*
X49641563Y-9041170D01*
X49540037Y-9026542D01*
X49419463Y-9044906D01*
X49321081Y-9120071D01*
X49282986Y-9186054D01*
X49267082Y-9308838D01*
X49289274Y-9365639D01*
X49710916Y-10444857D02*
X49901392Y-10114942D01*
X49035367Y-9614942D01*
X49577583Y-10675797D02*
X48711558Y-10175797D01*
X49349011Y-11071694D02*
X49025568Y-10489057D01*
X48482986Y-10571694D02*
X49206430Y-10461511D01*
X49873749Y-5574138D02*
X49870605Y-5484345D01*
X49927748Y-5385371D01*
X50026130Y-5310206D01*
X50146704Y-5291842D01*
X50248230Y-5306469D01*
X50432234Y-5368716D01*
X50555953Y-5440145D01*
X50701863Y-5568374D01*
X50765294Y-5648985D01*
X50809677Y-5762587D01*
X50793773Y-5885371D01*
X50755678Y-5951354D01*
X50657296Y-6026519D01*
X50597009Y-6035700D01*
X50308334Y-5869034D01*
X50384525Y-5737068D01*
X50508059Y-6380242D02*
X49642034Y-5880242D01*
X50279487Y-6776140D01*
X49413462Y-6276140D01*
X50089011Y-7106054D02*
X49222986Y-6606054D01*
X49127748Y-6771011D01*
X49111844Y-6893795D01*
X49156227Y-7007397D01*
X49219658Y-7088007D01*
X49365568Y-7216237D01*
X49489287Y-7287666D01*
X49673291Y-7349912D01*
X49774817Y-7364540D01*
X49895391Y-7346176D01*
X49993773Y-7271011D01*
X50089011Y-7106054D01*
X38302000Y-12872000D02*
X38862000Y-12242000D01*
X37972000Y-12682000D02*
X38182000Y-11782000D01*
X37592000Y-12632000D02*
X37512000Y-11732000D01*
X38162000Y-14422000D02*
X38732000Y-15182000D01*
X37792000Y-14612000D02*
X37942000Y-15442000D01*
X37722000Y-13852000D02*
X38222000Y-13442000D01*
X37782000Y-13362000D02*
X38172000Y-13882000D01*
X36052000Y-14802000D02*
X36692000Y-14622000D01*
X36362000Y-14202000D02*
X36052000Y-14782000D01*
X37290167Y-13202000D02*
G75*
G03X37290167Y-13202000I-108167J0D01*
G01*
X37245137Y-13992000D02*
G75*
G03X37245137Y-13992000I-113137J0D01*
G01*
X36412000Y-12852000D02*
X36272000Y-12212000D01*
X36882000Y-12512000D02*
X36292000Y-12232000D01*
X38796706Y-13596706D02*
G75*
G03X38796706Y-13596706I-1234706J0D01*
G01*
D12*
X3452000Y-16292000D02*
X2452000Y-16292000D01*
X2452000Y-17652000D02*
X3452000Y-17652000D01*
X31802000Y-12862000D02*
X32502000Y-12862000D01*
X32502000Y-11662000D02*
X31802000Y-11662000D01*
X33942000Y-14192000D02*
X33942000Y-14892000D01*
X35142000Y-14892000D02*
X35142000Y-14192000D01*
X46272000Y-14962000D02*
X46272000Y-14262000D01*
X45072000Y-14262000D02*
X45072000Y-14962000D01*
X6082000Y-5872000D02*
X5382000Y-5872000D01*
X5382000Y-7072000D02*
X6082000Y-7072000D01*
X16362000Y-7132000D02*
X17062000Y-7132000D01*
X17062000Y-5932000D02*
X16362000Y-5932000D01*
X17592000Y-15002000D02*
X17592000Y-14002000D01*
X16232000Y-14002000D02*
X16232000Y-15002000D01*
X19192000Y-14842000D02*
X19192000Y-14142000D01*
X17992000Y-14142000D02*
X17992000Y-14842000D01*
X19632000Y-14152000D02*
X19632000Y-14852000D01*
X20832000Y-14852000D02*
X20832000Y-14152000D01*
X22202000Y-12822000D02*
X24002000Y-12822000D01*
X24002000Y-16042000D02*
X21552000Y-16042000D01*
X25682000Y-14122000D02*
X25682000Y-14822000D01*
X26882000Y-14822000D02*
X26882000Y-14122000D01*
X27422000Y-14132000D02*
X27422000Y-14832000D01*
X28622000Y-14832000D02*
X28622000Y-14132000D01*
X30692000Y-15002000D02*
X30692000Y-14002000D01*
X29332000Y-14002000D02*
X29332000Y-15002000D01*
X40872000Y-15062000D02*
X40872000Y-14062000D01*
X39512000Y-14062000D02*
X39512000Y-15062000D01*
X44172000Y-14932000D02*
X44172000Y-14232000D01*
X42972000Y-14232000D02*
X42972000Y-14932000D01*
X41922000Y-9852000D02*
X41922000Y-8852000D01*
X40562000Y-8852000D02*
X40562000Y-9852000D01*
X38102000Y-9672000D02*
X38102000Y-8972000D01*
X36902000Y-8972000D02*
X36902000Y-9672000D01*
X35002000Y-8952000D02*
X35002000Y-9652000D01*
X36202000Y-9652000D02*
X36202000Y-8952000D01*
X33272000Y-8952000D02*
X33272000Y-9652000D01*
X34472000Y-9652000D02*
X34472000Y-8952000D01*
X29402000Y-8842000D02*
X29402000Y-9842000D01*
X30762000Y-9842000D02*
X30762000Y-8842000D01*
X28372000Y-9652000D02*
X28372000Y-8952000D01*
X27172000Y-8952000D02*
X27172000Y-9652000D01*
X21192000Y-9642000D02*
X21192000Y-8942000D01*
X19992000Y-8942000D02*
X19992000Y-9642000D01*
X26492000Y-9642000D02*
X26492000Y-8942000D01*
X25292000Y-8942000D02*
X25292000Y-9642000D01*
X22922000Y-9662000D02*
X22922000Y-8962000D01*
X21722000Y-8962000D02*
X21722000Y-9662000D01*
X24802000Y-9632000D02*
X24802000Y-8932000D01*
X23602000Y-8932000D02*
X23602000Y-9632000D01*
X19452000Y-9772000D02*
X19452000Y-8772000D01*
X18092000Y-8772000D02*
X18092000Y-9772000D01*
X11870000Y-7190000D02*
X12870000Y-7190000D01*
X12870000Y-5830000D02*
X11870000Y-5830000D01*
X13682000Y-11022000D02*
X11882000Y-11022000D01*
X11882000Y-7802000D02*
X14332000Y-7802000D01*
X8202000Y-10832000D02*
X9202000Y-10832000D01*
X9202000Y-9472000D02*
X8202000Y-9472000D01*
X8202000Y-8922000D02*
X9202000Y-8922000D01*
X9202000Y-7562000D02*
X8202000Y-7562000D01*
X2852000Y-12092000D02*
X2852000Y-11092000D01*
X1492000Y-11092000D02*
X1492000Y-12092000D01*
X562000Y-20512000D02*
X562000Y-17852000D01*
X48882000Y-20512000D02*
X562000Y-20512000D01*
X48882000Y-17852000D02*
X562000Y-17852000D01*
X48882000Y-20512000D02*
X48882000Y-17852000D01*
X50152000Y-20512000D02*
X51482000Y-20512000D01*
X51482000Y-20512000D02*
X51482000Y-19182000D01*
X562000Y-5012000D02*
X562000Y-2352000D01*
X48882000Y-5012000D02*
X562000Y-5012000D01*
X48882000Y-2352000D02*
X562000Y-2352000D01*
X48882000Y-5012000D02*
X48882000Y-2352000D01*
X50152000Y-5012000D02*
X51482000Y-5012000D01*
X51482000Y-5012000D02*
X51482000Y-3682000D01*
X39962000Y-9672000D02*
X39962000Y-8972000D01*
X38762000Y-8972000D02*
X38762000Y-9672000D01*
D11*
X5974286Y-17392381D02*
X6240953Y-16916190D01*
X6431429Y-17392381D02*
X6431429Y-16392381D01*
X6126667Y-16392381D01*
X6050476Y-16440000D01*
X6012381Y-16487619D01*
X5974286Y-16582857D01*
X5974286Y-16725714D01*
X6012381Y-16820952D01*
X6050476Y-16868571D01*
X6126667Y-16916190D01*
X6431429Y-16916190D01*
X5212381Y-17392381D02*
X5669524Y-17392381D01*
X5440953Y-17392381D02*
X5440953Y-16392381D01*
X5517143Y-16535238D01*
X5593334Y-16630476D01*
X5669524Y-16678095D01*
X4450476Y-17392381D02*
X4907619Y-17392381D01*
X4679048Y-17392381D02*
X4679048Y-16392381D01*
X4755238Y-16535238D01*
X4831429Y-16630476D01*
X4907619Y-16678095D01*
X32594286Y-11293571D02*
X32632381Y-11334048D01*
X32746667Y-11374524D01*
X32822857Y-11374524D01*
X32937143Y-11334048D01*
X33013334Y-11253095D01*
X33051429Y-11172143D01*
X33089524Y-11010238D01*
X33089524Y-10888810D01*
X33051429Y-10726905D01*
X33013334Y-10645952D01*
X32937143Y-10565000D01*
X32822857Y-10524524D01*
X32746667Y-10524524D01*
X32632381Y-10565000D01*
X32594286Y-10605476D01*
X31832381Y-11374524D02*
X32289524Y-11374524D01*
X32060953Y-11374524D02*
X32060953Y-10524524D01*
X32137143Y-10645952D01*
X32213334Y-10726905D01*
X32289524Y-10767381D01*
X31451429Y-11374524D02*
X31299048Y-11374524D01*
X31222857Y-11334048D01*
X31184762Y-11293571D01*
X31108571Y-11172143D01*
X31070476Y-11010238D01*
X31070476Y-10686429D01*
X31108571Y-10605476D01*
X31146667Y-10565000D01*
X31222857Y-10524524D01*
X31375238Y-10524524D01*
X31451429Y-10565000D01*
X31489524Y-10605476D01*
X31527619Y-10686429D01*
X31527619Y-10888810D01*
X31489524Y-10969762D01*
X31451429Y-11010238D01*
X31375238Y-11050714D01*
X31222857Y-11050714D01*
X31146667Y-11010238D01*
X31108571Y-10969762D01*
X31070476Y-10888810D01*
X34997143Y-11405714D02*
X35044762Y-11367619D01*
X35092381Y-11253333D01*
X35092381Y-11177143D01*
X35044762Y-11062857D01*
X34949524Y-10986666D01*
X34854286Y-10948571D01*
X34663810Y-10910476D01*
X34520952Y-10910476D01*
X34330476Y-10948571D01*
X34235238Y-10986666D01*
X34140000Y-11062857D01*
X34092381Y-11177143D01*
X34092381Y-11253333D01*
X34140000Y-11367619D01*
X34187619Y-11405714D01*
X35092381Y-12167619D02*
X35092381Y-11710476D01*
X35092381Y-11939047D02*
X34092381Y-11939047D01*
X34235238Y-11862857D01*
X34330476Y-11786666D01*
X34378095Y-11710476D01*
X34520952Y-12624762D02*
X34473333Y-12548571D01*
X34425714Y-12510476D01*
X34330476Y-12472381D01*
X34282857Y-12472381D01*
X34187619Y-12510476D01*
X34140000Y-12548571D01*
X34092381Y-12624762D01*
X34092381Y-12777143D01*
X34140000Y-12853333D01*
X34187619Y-12891429D01*
X34282857Y-12929524D01*
X34330476Y-12929524D01*
X34425714Y-12891429D01*
X34473333Y-12853333D01*
X34520952Y-12777143D01*
X34520952Y-12624762D01*
X34568571Y-12548571D01*
X34616190Y-12510476D01*
X34711429Y-12472381D01*
X34901905Y-12472381D01*
X34997143Y-12510476D01*
X35044762Y-12548571D01*
X35092381Y-12624762D01*
X35092381Y-12777143D01*
X35044762Y-12853333D01*
X34997143Y-12891429D01*
X34901905Y-12929524D01*
X34711429Y-12929524D01*
X34616190Y-12891429D01*
X34568571Y-12853333D01*
X34520952Y-12777143D01*
X46077143Y-11355714D02*
X46124762Y-11317619D01*
X46172381Y-11203333D01*
X46172381Y-11127143D01*
X46124762Y-11012857D01*
X46029524Y-10936666D01*
X45934286Y-10898571D01*
X45743810Y-10860476D01*
X45600952Y-10860476D01*
X45410476Y-10898571D01*
X45315238Y-10936666D01*
X45220000Y-11012857D01*
X45172381Y-11127143D01*
X45172381Y-11203333D01*
X45220000Y-11317619D01*
X45267619Y-11355714D01*
X46172381Y-12117619D02*
X46172381Y-11660476D01*
X46172381Y-11889047D02*
X45172381Y-11889047D01*
X45315238Y-11812857D01*
X45410476Y-11736666D01*
X45458095Y-11660476D01*
X45172381Y-12384286D02*
X45172381Y-12917619D01*
X46172381Y-12574762D01*
X3334286Y-6777143D02*
X3372381Y-6824762D01*
X3486667Y-6872381D01*
X3562857Y-6872381D01*
X3677143Y-6824762D01*
X3753334Y-6729524D01*
X3791429Y-6634286D01*
X3829524Y-6443810D01*
X3829524Y-6300952D01*
X3791429Y-6110476D01*
X3753334Y-6015238D01*
X3677143Y-5920000D01*
X3562857Y-5872381D01*
X3486667Y-5872381D01*
X3372381Y-5920000D01*
X3334286Y-5967619D01*
X2572381Y-6872381D02*
X3029524Y-6872381D01*
X2800953Y-6872381D02*
X2800953Y-5872381D01*
X2877143Y-6015238D01*
X2953334Y-6110476D01*
X3029524Y-6158095D01*
X1886667Y-5872381D02*
X2039048Y-5872381D01*
X2115238Y-5920000D01*
X2153333Y-5967619D01*
X2229524Y-6110476D01*
X2267619Y-6300952D01*
X2267619Y-6681905D01*
X2229524Y-6777143D01*
X2191429Y-6824762D01*
X2115238Y-6872381D01*
X1962857Y-6872381D01*
X1886667Y-6824762D01*
X1848571Y-6777143D01*
X1810476Y-6681905D01*
X1810476Y-6443810D01*
X1848571Y-6348571D01*
X1886667Y-6300952D01*
X1962857Y-6253333D01*
X2115238Y-6253333D01*
X2191429Y-6300952D01*
X2229524Y-6348571D01*
X2267619Y-6443810D01*
X14897143Y-5805714D02*
X14944762Y-5767619D01*
X14992381Y-5653333D01*
X14992381Y-5577143D01*
X14944762Y-5462857D01*
X14849524Y-5386666D01*
X14754286Y-5348571D01*
X14563810Y-5310476D01*
X14420952Y-5310476D01*
X14230476Y-5348571D01*
X14135238Y-5386666D01*
X14040000Y-5462857D01*
X13992381Y-5577143D01*
X13992381Y-5653333D01*
X14040000Y-5767619D01*
X14087619Y-5805714D01*
X14992381Y-6567619D02*
X14992381Y-6110476D01*
X14992381Y-6339047D02*
X13992381Y-6339047D01*
X14135238Y-6262857D01*
X14230476Y-6186666D01*
X14278095Y-6110476D01*
X13992381Y-7291429D02*
X13992381Y-6910476D01*
X14468571Y-6872381D01*
X14420952Y-6910476D01*
X14373333Y-6986667D01*
X14373333Y-7177143D01*
X14420952Y-7253333D01*
X14468571Y-7291429D01*
X14563810Y-7329524D01*
X14801905Y-7329524D01*
X14897143Y-7291429D01*
X14944762Y-7253333D01*
X14992381Y-7177143D01*
X14992381Y-6986667D01*
X14944762Y-6910476D01*
X14897143Y-6872381D01*
X17412381Y-11986667D02*
X16936190Y-11720000D01*
X17412381Y-11529524D02*
X16412381Y-11529524D01*
X16412381Y-11834286D01*
X16460000Y-11910477D01*
X16507619Y-11948572D01*
X16602857Y-11986667D01*
X16745714Y-11986667D01*
X16840952Y-11948572D01*
X16888571Y-11910477D01*
X16936190Y-11834286D01*
X16936190Y-11529524D01*
X16840952Y-12443810D02*
X16793333Y-12367619D01*
X16745714Y-12329524D01*
X16650476Y-12291429D01*
X16602857Y-12291429D01*
X16507619Y-12329524D01*
X16460000Y-12367619D01*
X16412381Y-12443810D01*
X16412381Y-12596191D01*
X16460000Y-12672381D01*
X16507619Y-12710477D01*
X16602857Y-12748572D01*
X16650476Y-12748572D01*
X16745714Y-12710477D01*
X16793333Y-12672381D01*
X16840952Y-12596191D01*
X16840952Y-12443810D01*
X16888571Y-12367619D01*
X16936190Y-12329524D01*
X17031429Y-12291429D01*
X17221905Y-12291429D01*
X17317143Y-12329524D01*
X17364762Y-12367619D01*
X17412381Y-12443810D01*
X17412381Y-12596191D01*
X17364762Y-12672381D01*
X17317143Y-12710477D01*
X17221905Y-12748572D01*
X17031429Y-12748572D01*
X16936190Y-12710477D01*
X16888571Y-12672381D01*
X16840952Y-12596191D01*
X18987143Y-11886667D02*
X19034762Y-11848572D01*
X19082381Y-11734286D01*
X19082381Y-11658096D01*
X19034762Y-11543810D01*
X18939524Y-11467619D01*
X18844286Y-11429524D01*
X18653810Y-11391429D01*
X18510952Y-11391429D01*
X18320476Y-11429524D01*
X18225238Y-11467619D01*
X18130000Y-11543810D01*
X18082381Y-11658096D01*
X18082381Y-11734286D01*
X18130000Y-11848572D01*
X18177619Y-11886667D01*
X18177619Y-12191429D02*
X18130000Y-12229524D01*
X18082381Y-12305715D01*
X18082381Y-12496191D01*
X18130000Y-12572381D01*
X18177619Y-12610477D01*
X18272857Y-12648572D01*
X18368095Y-12648572D01*
X18510952Y-12610477D01*
X19082381Y-12153334D01*
X19082381Y-12648572D01*
X20607143Y-11946667D02*
X20654762Y-11908572D01*
X20702381Y-11794286D01*
X20702381Y-11718096D01*
X20654762Y-11603810D01*
X20559524Y-11527619D01*
X20464286Y-11489524D01*
X20273810Y-11451429D01*
X20130952Y-11451429D01*
X19940476Y-11489524D01*
X19845238Y-11527619D01*
X19750000Y-11603810D01*
X19702381Y-11718096D01*
X19702381Y-11794286D01*
X19750000Y-11908572D01*
X19797619Y-11946667D01*
X20702381Y-12708572D02*
X20702381Y-12251429D01*
X20702381Y-12480000D02*
X19702381Y-12480000D01*
X19845238Y-12403810D01*
X19940476Y-12327619D01*
X19988095Y-12251429D01*
X23509524Y-11312381D02*
X23509524Y-12121905D01*
X23471429Y-12217143D01*
X23433333Y-12264762D01*
X23357143Y-12312381D01*
X23204762Y-12312381D01*
X23128571Y-12264762D01*
X23090476Y-12217143D01*
X23052381Y-12121905D01*
X23052381Y-11312381D01*
X22252381Y-12312381D02*
X22709524Y-12312381D01*
X22480953Y-12312381D02*
X22480953Y-11312381D01*
X22557143Y-11455238D01*
X22633334Y-11550476D01*
X22709524Y-11598095D01*
X26737143Y-11906667D02*
X26784762Y-11868572D01*
X26832381Y-11754286D01*
X26832381Y-11678096D01*
X26784762Y-11563810D01*
X26689524Y-11487619D01*
X26594286Y-11449524D01*
X26403810Y-11411429D01*
X26260952Y-11411429D01*
X26070476Y-11449524D01*
X25975238Y-11487619D01*
X25880000Y-11563810D01*
X25832381Y-11678096D01*
X25832381Y-11754286D01*
X25880000Y-11868572D01*
X25927619Y-11906667D01*
X25832381Y-12630477D02*
X25832381Y-12249524D01*
X26308571Y-12211429D01*
X26260952Y-12249524D01*
X26213333Y-12325715D01*
X26213333Y-12516191D01*
X26260952Y-12592381D01*
X26308571Y-12630477D01*
X26403810Y-12668572D01*
X26641905Y-12668572D01*
X26737143Y-12630477D01*
X26784762Y-12592381D01*
X26832381Y-12516191D01*
X26832381Y-12325715D01*
X26784762Y-12249524D01*
X26737143Y-12211429D01*
X28417143Y-11946667D02*
X28464762Y-11908572D01*
X28512381Y-11794286D01*
X28512381Y-11718096D01*
X28464762Y-11603810D01*
X28369524Y-11527619D01*
X28274286Y-11489524D01*
X28083810Y-11451429D01*
X27940952Y-11451429D01*
X27750476Y-11489524D01*
X27655238Y-11527619D01*
X27560000Y-11603810D01*
X27512381Y-11718096D01*
X27512381Y-11794286D01*
X27560000Y-11908572D01*
X27607619Y-11946667D01*
X27845714Y-12632381D02*
X28512381Y-12632381D01*
X27464762Y-12441905D02*
X28179048Y-12251429D01*
X28179048Y-12746667D01*
X30542381Y-12036667D02*
X30066190Y-11770000D01*
X30542381Y-11579524D02*
X29542381Y-11579524D01*
X29542381Y-11884286D01*
X29590000Y-11960477D01*
X29637619Y-11998572D01*
X29732857Y-12036667D01*
X29875714Y-12036667D01*
X29970952Y-11998572D01*
X30018571Y-11960477D01*
X30066190Y-11884286D01*
X30066190Y-11579524D01*
X29542381Y-12303334D02*
X29542381Y-12836667D01*
X30542381Y-12493810D01*
X40682381Y-12096667D02*
X40206190Y-11830000D01*
X40682381Y-11639524D02*
X39682381Y-11639524D01*
X39682381Y-11944286D01*
X39730000Y-12020477D01*
X39777619Y-12058572D01*
X39872857Y-12096667D01*
X40015714Y-12096667D01*
X40110952Y-12058572D01*
X40158571Y-12020477D01*
X40206190Y-11944286D01*
X40206190Y-11639524D01*
X39682381Y-12782381D02*
X39682381Y-12630000D01*
X39730000Y-12553810D01*
X39777619Y-12515715D01*
X39920476Y-12439524D01*
X40110952Y-12401429D01*
X40491905Y-12401429D01*
X40587143Y-12439524D01*
X40634762Y-12477619D01*
X40682381Y-12553810D01*
X40682381Y-12706191D01*
X40634762Y-12782381D01*
X40587143Y-12820477D01*
X40491905Y-12858572D01*
X40253810Y-12858572D01*
X40158571Y-12820477D01*
X40110952Y-12782381D01*
X40063333Y-12706191D01*
X40063333Y-12553810D01*
X40110952Y-12477619D01*
X40158571Y-12439524D01*
X40253810Y-12401429D01*
X43947143Y-11355714D02*
X43994762Y-11317619D01*
X44042381Y-11203333D01*
X44042381Y-11127143D01*
X43994762Y-11012857D01*
X43899524Y-10936666D01*
X43804286Y-10898571D01*
X43613810Y-10860476D01*
X43470952Y-10860476D01*
X43280476Y-10898571D01*
X43185238Y-10936666D01*
X43090000Y-11012857D01*
X43042381Y-11127143D01*
X43042381Y-11203333D01*
X43090000Y-11317619D01*
X43137619Y-11355714D01*
X44042381Y-12117619D02*
X44042381Y-11660476D01*
X44042381Y-11889047D02*
X43042381Y-11889047D01*
X43185238Y-11812857D01*
X43280476Y-11736666D01*
X43328095Y-11660476D01*
X43375714Y-12803333D02*
X44042381Y-12803333D01*
X42994762Y-12612857D02*
X43709048Y-12422381D01*
X43709048Y-12917619D01*
X41742381Y-6826667D02*
X41266190Y-6560000D01*
X41742381Y-6369524D02*
X40742381Y-6369524D01*
X40742381Y-6674286D01*
X40790000Y-6750477D01*
X40837619Y-6788572D01*
X40932857Y-6826667D01*
X41075714Y-6826667D01*
X41170952Y-6788572D01*
X41218571Y-6750477D01*
X41266190Y-6674286D01*
X41266190Y-6369524D01*
X40742381Y-7550477D02*
X40742381Y-7169524D01*
X41218571Y-7131429D01*
X41170952Y-7169524D01*
X41123333Y-7245715D01*
X41123333Y-7436191D01*
X41170952Y-7512381D01*
X41218571Y-7550477D01*
X41313810Y-7588572D01*
X41551905Y-7588572D01*
X41647143Y-7550477D01*
X41694762Y-7512381D01*
X41742381Y-7436191D01*
X41742381Y-7245715D01*
X41694762Y-7169524D01*
X41647143Y-7131429D01*
X37957143Y-6726667D02*
X38004762Y-6688572D01*
X38052381Y-6574286D01*
X38052381Y-6498096D01*
X38004762Y-6383810D01*
X37909524Y-6307619D01*
X37814286Y-6269524D01*
X37623810Y-6231429D01*
X37480952Y-6231429D01*
X37290476Y-6269524D01*
X37195238Y-6307619D01*
X37100000Y-6383810D01*
X37052381Y-6498096D01*
X37052381Y-6574286D01*
X37100000Y-6688572D01*
X37147619Y-6726667D01*
X37052381Y-6993334D02*
X37052381Y-7526667D01*
X38052381Y-7183810D01*
X36107143Y-6706667D02*
X36154762Y-6668572D01*
X36202381Y-6554286D01*
X36202381Y-6478096D01*
X36154762Y-6363810D01*
X36059524Y-6287619D01*
X35964286Y-6249524D01*
X35773810Y-6211429D01*
X35630952Y-6211429D01*
X35440476Y-6249524D01*
X35345238Y-6287619D01*
X35250000Y-6363810D01*
X35202381Y-6478096D01*
X35202381Y-6554286D01*
X35250000Y-6668572D01*
X35297619Y-6706667D01*
X35630952Y-7163810D02*
X35583333Y-7087619D01*
X35535714Y-7049524D01*
X35440476Y-7011429D01*
X35392857Y-7011429D01*
X35297619Y-7049524D01*
X35250000Y-7087619D01*
X35202381Y-7163810D01*
X35202381Y-7316191D01*
X35250000Y-7392381D01*
X35297619Y-7430477D01*
X35392857Y-7468572D01*
X35440476Y-7468572D01*
X35535714Y-7430477D01*
X35583333Y-7392381D01*
X35630952Y-7316191D01*
X35630952Y-7163810D01*
X35678571Y-7087619D01*
X35726190Y-7049524D01*
X35821429Y-7011429D01*
X36011905Y-7011429D01*
X36107143Y-7049524D01*
X36154762Y-7087619D01*
X36202381Y-7163810D01*
X36202381Y-7316191D01*
X36154762Y-7392381D01*
X36107143Y-7430477D01*
X36011905Y-7468572D01*
X35821429Y-7468572D01*
X35726190Y-7430477D01*
X35678571Y-7392381D01*
X35630952Y-7316191D01*
X34287143Y-6706667D02*
X34334762Y-6668572D01*
X34382381Y-6554286D01*
X34382381Y-6478096D01*
X34334762Y-6363810D01*
X34239524Y-6287619D01*
X34144286Y-6249524D01*
X33953810Y-6211429D01*
X33810952Y-6211429D01*
X33620476Y-6249524D01*
X33525238Y-6287619D01*
X33430000Y-6363810D01*
X33382381Y-6478096D01*
X33382381Y-6554286D01*
X33430000Y-6668572D01*
X33477619Y-6706667D01*
X34382381Y-7087619D02*
X34382381Y-7240000D01*
X34334762Y-7316191D01*
X34287143Y-7354286D01*
X34144286Y-7430477D01*
X33953810Y-7468572D01*
X33572857Y-7468572D01*
X33477619Y-7430477D01*
X33430000Y-7392381D01*
X33382381Y-7316191D01*
X33382381Y-7163810D01*
X33430000Y-7087619D01*
X33477619Y-7049524D01*
X33572857Y-7011429D01*
X33810952Y-7011429D01*
X33906190Y-7049524D01*
X33953810Y-7087619D01*
X34001429Y-7163810D01*
X34001429Y-7316191D01*
X33953810Y-7392381D01*
X33906190Y-7430477D01*
X33810952Y-7468572D01*
X30602381Y-6936667D02*
X30126190Y-6670000D01*
X30602381Y-6479524D02*
X29602381Y-6479524D01*
X29602381Y-6784286D01*
X29650000Y-6860477D01*
X29697619Y-6898572D01*
X29792857Y-6936667D01*
X29935714Y-6936667D01*
X30030952Y-6898572D01*
X30078571Y-6860477D01*
X30126190Y-6784286D01*
X30126190Y-6479524D01*
X29697619Y-7241429D02*
X29650000Y-7279524D01*
X29602381Y-7355715D01*
X29602381Y-7546191D01*
X29650000Y-7622381D01*
X29697619Y-7660477D01*
X29792857Y-7698572D01*
X29888095Y-7698572D01*
X30030952Y-7660477D01*
X30602381Y-7203334D01*
X30602381Y-7698572D01*
X28177143Y-6706667D02*
X28224762Y-6668572D01*
X28272381Y-6554286D01*
X28272381Y-6478096D01*
X28224762Y-6363810D01*
X28129524Y-6287619D01*
X28034286Y-6249524D01*
X27843810Y-6211429D01*
X27700952Y-6211429D01*
X27510476Y-6249524D01*
X27415238Y-6287619D01*
X27320000Y-6363810D01*
X27272381Y-6478096D01*
X27272381Y-6554286D01*
X27320000Y-6668572D01*
X27367619Y-6706667D01*
X27272381Y-6973334D02*
X27272381Y-7468572D01*
X27653333Y-7201905D01*
X27653333Y-7316191D01*
X27700952Y-7392381D01*
X27748571Y-7430477D01*
X27843810Y-7468572D01*
X28081905Y-7468572D01*
X28177143Y-7430477D01*
X28224762Y-7392381D01*
X28272381Y-7316191D01*
X28272381Y-7087619D01*
X28224762Y-7011429D01*
X28177143Y-6973334D01*
X20967143Y-5905714D02*
X21014762Y-5867619D01*
X21062381Y-5753333D01*
X21062381Y-5677143D01*
X21014762Y-5562857D01*
X20919524Y-5486666D01*
X20824286Y-5448571D01*
X20633810Y-5410476D01*
X20490952Y-5410476D01*
X20300476Y-5448571D01*
X20205238Y-5486666D01*
X20110000Y-5562857D01*
X20062381Y-5677143D01*
X20062381Y-5753333D01*
X20110000Y-5867619D01*
X20157619Y-5905714D01*
X21062381Y-6667619D02*
X21062381Y-6210476D01*
X21062381Y-6439047D02*
X20062381Y-6439047D01*
X20205238Y-6362857D01*
X20300476Y-6286666D01*
X20348095Y-6210476D01*
X21062381Y-7429524D02*
X21062381Y-6972381D01*
X21062381Y-7200952D02*
X20062381Y-7200952D01*
X20205238Y-7124762D01*
X20300476Y-7048571D01*
X20348095Y-6972381D01*
X26367143Y-5895714D02*
X26414762Y-5857619D01*
X26462381Y-5743333D01*
X26462381Y-5667143D01*
X26414762Y-5552857D01*
X26319524Y-5476666D01*
X26224286Y-5438571D01*
X26033810Y-5400476D01*
X25890952Y-5400476D01*
X25700476Y-5438571D01*
X25605238Y-5476666D01*
X25510000Y-5552857D01*
X25462381Y-5667143D01*
X25462381Y-5743333D01*
X25510000Y-5857619D01*
X25557619Y-5895714D01*
X26462381Y-6657619D02*
X26462381Y-6200476D01*
X26462381Y-6429047D02*
X25462381Y-6429047D01*
X25605238Y-6352857D01*
X25700476Y-6276666D01*
X25748095Y-6200476D01*
X25462381Y-7152857D02*
X25462381Y-7229048D01*
X25510000Y-7305238D01*
X25557619Y-7343333D01*
X25652857Y-7381429D01*
X25843333Y-7419524D01*
X26081429Y-7419524D01*
X26271905Y-7381429D01*
X26367143Y-7343333D01*
X26414762Y-7305238D01*
X26462381Y-7229048D01*
X26462381Y-7152857D01*
X26414762Y-7076667D01*
X26367143Y-7038571D01*
X26271905Y-7000476D01*
X26081429Y-6962381D01*
X25843333Y-6962381D01*
X25652857Y-7000476D01*
X25557619Y-7038571D01*
X25510000Y-7076667D01*
X25462381Y-7152857D01*
X22707143Y-5905714D02*
X22754762Y-5867619D01*
X22802381Y-5753333D01*
X22802381Y-5677143D01*
X22754762Y-5562857D01*
X22659524Y-5486666D01*
X22564286Y-5448571D01*
X22373810Y-5410476D01*
X22230952Y-5410476D01*
X22040476Y-5448571D01*
X21945238Y-5486666D01*
X21850000Y-5562857D01*
X21802381Y-5677143D01*
X21802381Y-5753333D01*
X21850000Y-5867619D01*
X21897619Y-5905714D01*
X22802381Y-6667619D02*
X22802381Y-6210476D01*
X22802381Y-6439047D02*
X21802381Y-6439047D01*
X21945238Y-6362857D01*
X22040476Y-6286666D01*
X22088095Y-6210476D01*
X21802381Y-6934286D02*
X21802381Y-7429524D01*
X22183333Y-7162857D01*
X22183333Y-7277143D01*
X22230952Y-7353333D01*
X22278571Y-7391429D01*
X22373810Y-7429524D01*
X22611905Y-7429524D01*
X22707143Y-7391429D01*
X22754762Y-7353333D01*
X22802381Y-7277143D01*
X22802381Y-7048571D01*
X22754762Y-6972381D01*
X22707143Y-6934286D01*
X24597143Y-5895714D02*
X24644762Y-5857619D01*
X24692381Y-5743333D01*
X24692381Y-5667143D01*
X24644762Y-5552857D01*
X24549524Y-5476666D01*
X24454286Y-5438571D01*
X24263810Y-5400476D01*
X24120952Y-5400476D01*
X23930476Y-5438571D01*
X23835238Y-5476666D01*
X23740000Y-5552857D01*
X23692381Y-5667143D01*
X23692381Y-5743333D01*
X23740000Y-5857619D01*
X23787619Y-5895714D01*
X24692381Y-6657619D02*
X24692381Y-6200476D01*
X24692381Y-6429047D02*
X23692381Y-6429047D01*
X23835238Y-6352857D01*
X23930476Y-6276666D01*
X23978095Y-6200476D01*
X23787619Y-6962381D02*
X23740000Y-7000476D01*
X23692381Y-7076667D01*
X23692381Y-7267143D01*
X23740000Y-7343333D01*
X23787619Y-7381429D01*
X23882857Y-7419524D01*
X23978095Y-7419524D01*
X24120952Y-7381429D01*
X24692381Y-6924286D01*
X24692381Y-7419524D01*
X19362381Y-6876667D02*
X18886190Y-6610000D01*
X19362381Y-6419524D02*
X18362381Y-6419524D01*
X18362381Y-6724286D01*
X18410000Y-6800477D01*
X18457619Y-6838572D01*
X18552857Y-6876667D01*
X18695714Y-6876667D01*
X18790952Y-6838572D01*
X18838571Y-6800477D01*
X18886190Y-6724286D01*
X18886190Y-6419524D01*
X19362381Y-7638572D02*
X19362381Y-7181429D01*
X19362381Y-7410000D02*
X18362381Y-7410000D01*
X18505238Y-7333810D01*
X18600476Y-7257619D01*
X18648095Y-7181429D01*
X10802381Y-5855714D02*
X10326190Y-5589047D01*
X10802381Y-5398571D02*
X9802381Y-5398571D01*
X9802381Y-5703333D01*
X9850000Y-5779524D01*
X9897619Y-5817619D01*
X9992857Y-5855714D01*
X10135714Y-5855714D01*
X10230952Y-5817619D01*
X10278571Y-5779524D01*
X10326190Y-5703333D01*
X10326190Y-5398571D01*
X10802381Y-6617619D02*
X10802381Y-6160476D01*
X10802381Y-6389047D02*
X9802381Y-6389047D01*
X9945238Y-6312857D01*
X10040476Y-6236666D01*
X10088095Y-6160476D01*
X9802381Y-7112857D02*
X9802381Y-7189048D01*
X9850000Y-7265238D01*
X9897619Y-7303333D01*
X9992857Y-7341429D01*
X10183333Y-7379524D01*
X10421429Y-7379524D01*
X10611905Y-7341429D01*
X10707143Y-7303333D01*
X10754762Y-7265238D01*
X10802381Y-7189048D01*
X10802381Y-7112857D01*
X10754762Y-7036667D01*
X10707143Y-6998571D01*
X10611905Y-6960476D01*
X10421429Y-6922381D01*
X10183333Y-6922381D01*
X9992857Y-6960476D01*
X9897619Y-6998571D01*
X9850000Y-7036667D01*
X9802381Y-7112857D01*
X16259524Y-8782381D02*
X16259524Y-9591905D01*
X16221429Y-9687143D01*
X16183333Y-9734762D01*
X16107143Y-9782381D01*
X15954762Y-9782381D01*
X15878571Y-9734762D01*
X15840476Y-9687143D01*
X15802381Y-9591905D01*
X15802381Y-8782381D01*
X15497619Y-8782381D02*
X15002381Y-8782381D01*
X15269048Y-9163333D01*
X15154762Y-9163333D01*
X15078572Y-9210952D01*
X15040476Y-9258571D01*
X15002381Y-9353810D01*
X15002381Y-9591905D01*
X15040476Y-9687143D01*
X15078572Y-9734762D01*
X15154762Y-9782381D01*
X15383334Y-9782381D01*
X15459524Y-9734762D01*
X15497619Y-9687143D01*
X6643333Y-10672381D02*
X6910000Y-10196190D01*
X7100476Y-10672381D02*
X7100476Y-9672381D01*
X6795714Y-9672381D01*
X6719523Y-9720000D01*
X6681428Y-9767619D01*
X6643333Y-9862857D01*
X6643333Y-10005714D01*
X6681428Y-10100952D01*
X6719523Y-10148571D01*
X6795714Y-10196190D01*
X7100476Y-10196190D01*
X5957619Y-10005714D02*
X5957619Y-10672381D01*
X6148095Y-9624762D02*
X6338571Y-10339048D01*
X5843333Y-10339048D01*
X6653333Y-8742381D02*
X6920000Y-8266190D01*
X7110476Y-8742381D02*
X7110476Y-7742381D01*
X6805714Y-7742381D01*
X6729523Y-7790000D01*
X6691428Y-7837619D01*
X6653333Y-7932857D01*
X6653333Y-8075714D01*
X6691428Y-8170952D01*
X6729523Y-8218571D01*
X6805714Y-8266190D01*
X7110476Y-8266190D01*
X6386666Y-7742381D02*
X5891428Y-7742381D01*
X6158095Y-8123333D01*
X6043809Y-8123333D01*
X5967619Y-8170952D01*
X5929523Y-8218571D01*
X5891428Y-8313810D01*
X5891428Y-8551905D01*
X5929523Y-8647143D01*
X5967619Y-8694762D01*
X6043809Y-8742381D01*
X6272381Y-8742381D01*
X6348571Y-8694762D01*
X6386666Y-8647143D01*
X4262381Y-11506667D02*
X3786190Y-11240000D01*
X4262381Y-11049524D02*
X3262381Y-11049524D01*
X3262381Y-11354286D01*
X3310000Y-11430477D01*
X3357619Y-11468572D01*
X3452857Y-11506667D01*
X3595714Y-11506667D01*
X3690952Y-11468572D01*
X3738571Y-11430477D01*
X3786190Y-11354286D01*
X3786190Y-11049524D01*
X4262381Y-11887619D02*
X4262381Y-12040000D01*
X4214762Y-12116191D01*
X4167143Y-12154286D01*
X4024286Y-12230477D01*
X3833810Y-12268572D01*
X3452857Y-12268572D01*
X3357619Y-12230477D01*
X3310000Y-12192381D01*
X3262381Y-12116191D01*
X3262381Y-11963810D01*
X3310000Y-11887619D01*
X3357619Y-11849524D01*
X3452857Y-11811429D01*
X3690952Y-11811429D01*
X3786190Y-11849524D01*
X3833810Y-11887619D01*
X3881429Y-11963810D01*
X3881429Y-12116191D01*
X3833810Y-12192381D01*
X3786190Y-12230477D01*
X3690952Y-12268572D01*
X39837143Y-6756667D02*
X39884762Y-6718572D01*
X39932381Y-6604286D01*
X39932381Y-6528096D01*
X39884762Y-6413810D01*
X39789524Y-6337619D01*
X39694286Y-6299524D01*
X39503810Y-6261429D01*
X39360952Y-6261429D01*
X39170476Y-6299524D01*
X39075238Y-6337619D01*
X38980000Y-6413810D01*
X38932381Y-6528096D01*
X38932381Y-6604286D01*
X38980000Y-6718572D01*
X39027619Y-6756667D01*
X38932381Y-7442381D02*
X38932381Y-7290000D01*
X38980000Y-7213810D01*
X39027619Y-7175715D01*
X39170476Y-7099524D01*
X39360952Y-7061429D01*
X39741905Y-7061429D01*
X39837143Y-7099524D01*
X39884762Y-7137619D01*
X39932381Y-7213810D01*
X39932381Y-7366191D01*
X39884762Y-7442381D01*
X39837143Y-7480477D01*
X39741905Y-7518572D01*
X39503810Y-7518572D01*
X39408571Y-7480477D01*
X39360952Y-7442381D01*
X39313333Y-7366191D01*
X39313333Y-7213810D01*
X39360952Y-7137619D01*
X39408571Y-7099524D01*
X39503810Y-7061429D01*
M02*
